<svg width="21" height="32" viewBox="0 0 21 32" fill="none" xmlns="http://www.w3.org/2000/svg">
<path d="M10.0401 31.9724V23.9579L0.137634 18.1602L10.0401 31.9724Z" fill="white"/>
<path fill-rule="evenodd" clip-rule="evenodd" d="M0.125167 18.1401C0.134148 18.1302 0.148794 18.128 0.160297 18.1347L10.0627 23.9325C10.0714 23.9375 10.0767 23.9468 10.0767 23.9568V31.9713C10.0767 31.9836 10.0688 31.9944 10.0571 31.9982C10.0454 32.0019 10.0327 31.9977 10.0255 31.9878L0.123086 18.1755C0.115319 18.1647 0.116187 18.1499 0.125167 18.1401ZM0.246326 18.2505L10.0202 31.8835V23.973L0.246326 18.2505Z" fill="white"/>
<path d="M10.08 31.9724V23.9579L19.9824 18.1602L10.08 31.9724Z" fill="white"/>
<path fill-rule="evenodd" clip-rule="evenodd" d="M20.0021 18.1401C20.011 18.1499 20.0119 18.1647 20.0041 18.1755L10.1018 31.9878C10.0946 31.9977 10.0819 32.0019 10.0702 31.9982C10.0585 31.9944 10.0506 31.9836 10.0506 31.9713V23.9568C10.0506 23.9468 10.0559 23.9375 10.0646 23.9325L19.9669 18.1347C19.9784 18.128 19.9931 18.1302 20.0021 18.1401ZM10.1071 23.973V31.8835L19.8809 18.2505L10.1071 23.973Z" fill="white"/>
<path d="M10.0454 21.966V11.7373L0.0294189 16.2277L10.0454 21.966Z" fill="white"/>
<path fill-rule="evenodd" clip-rule="evenodd" d="M10.0596 11.7135C10.0676 11.7187 10.0725 11.7276 10.0725 11.7372V21.9659C10.0725 21.9759 10.0671 21.9853 10.0584 21.9903C10.0497 21.9954 10.0389 21.9954 10.0302 21.9904L0.0141986 16.2521C0.0049831 16.2468 -0.000489878 16.2368 3.45886e-05 16.2262C0.000559055 16.2156 0.00699223 16.2062 0.0166836 16.2019L10.0327 11.7115C10.0414 11.7075 10.0516 11.7083 10.0596 11.7135ZM0.0903939 16.2307L10.016 21.9172V11.7808L0.0903939 16.2307Z" fill="white"/>
<path d="M10.08 21.966V11.7373L20.0961 16.2277L10.08 21.966Z" fill="white"/>
<path fill-rule="evenodd" clip-rule="evenodd" d="M10.0635 11.7135C10.0715 11.7083 10.0816 11.7075 10.0904 11.7115L20.1064 16.2019C20.1161 16.2062 20.1226 16.2156 20.1231 16.2262C20.1236 16.2368 20.1181 16.2468 20.1089 16.2521L10.0929 21.9904C10.0841 21.9954 10.0734 21.9954 10.0647 21.9903C10.056 21.9853 10.0506 21.9759 10.0506 21.9659V11.7372C10.0506 11.7276 10.0554 11.7187 10.0635 11.7135ZM10.1071 11.7808V21.9172L20.0327 16.2307L10.1071 11.7808Z" fill="white"/>
<path d="M0.0294189 16.2269L10.0454 0.0273438V11.7365L0.0294189 16.2269Z" fill="white"/>
<path fill-rule="evenodd" clip-rule="evenodd" d="M10.0519 0.00107774C10.0641 0.00452767 10.0724 0.0156154 10.0724 0.0282361V11.7374C10.0724 11.7485 10.0659 11.7586 10.0558 11.7631L0.0397838 16.2535C0.028467 16.2586 0.0151643 16.2557 0.00699361 16.2464C-0.00117707 16.237 -0.00230244 16.2235 0.00421967 16.2129L10.0202 0.0133883C10.0268 0.00265376 10.0398 -0.00237219 10.0519 0.00107774ZM0.100626 16.1644L10.016 11.7191V0.127588L0.100626 16.1644Z" fill="white"/>
<path d="M20.096 16.2269L10.08 0.0273438V11.7365L20.096 16.2269Z" fill="white"/>
<path fill-rule="evenodd" clip-rule="evenodd" d="M10.0711 0.00107774C10.0833 -0.00237219 10.0962 0.00265375 10.1028 0.0133883L20.1188 16.2129C20.1254 16.2235 20.1242 16.237 20.1161 16.2464C20.1079 16.2557 20.0946 16.2586 20.0833 16.2535L10.0673 11.7631C10.0571 11.7586 10.0506 11.7485 10.0506 11.7374V0.0282361C10.0506 0.0156154 10.059 0.00452767 10.0711 0.00107774ZM10.1071 0.127587V11.7191L20.0224 16.1644L10.1071 0.127587Z" fill="white"/>
</svg>
