<?xml version="1.0" encoding="utf-8"?>
<!-- Generator: Adobe Illustrator 18.1.1, SVG Export Plug-In . SVG Version: 6.00 Build 0)  -->
<svg version="1.1" id="Layer_1" xmlns="http://www.w3.org/2000/svg" xmlns:xlink="http://www.w3.org/1999/xlink" x="0px" y="0px"
	 viewBox="0 0 1920 1080" enable-background="new 0 0 1920 1080" xml:space="preserve">
<g>
	<polygon fill="#8891B1" points="503,404.7 420,542.5 503,504.8 	"/>
	<polygon fill="#63688E" points="503,504.8 420,542.5 503,591.6 	"/>
	<polygon fill="#63688E" points="586.1,542.5 503,404.7 503,504.8 	"/>
	<polygon fill="#464A75" points="503,591.6 586.1,542.5 503,504.8 	"/>
	<polygon fill="#8891B1" points="420,558.3 503,675.3 503,607.3 	"/>
	<polygon fill="#63688E" points="503,607.3 503,675.3 586.1,558.3 	"/>
</g>
<g>
	<path fill="#8891B1" d="M724.9,561.1c0,1.9-1.7,3.6-3.6,3.6h-66.4c1.7,15.8,14,31.2,31.4,31.2c11.9,0,20.7-4.6,27.4-14.2
		c0.7-1,1.7-1.7,2.9-1.7c1.9,0,3.3,1.4,3.3,3.3c0,0.7-0.2,1.2-0.5,1.7c-6.7,11.7-20,17.4-33.1,17.4c-22.4,0-38.3-20-38.3-41.4
		c0-21.4,15.9-41.3,38.3-41.3S724.9,539.7,724.9,561.1z M717.7,557.9c-1.4-16.9-14-31.4-31.4-31.4s-29.8,14.5-31.4,31.4H717.7z"/>
	<path fill="#8891B1" d="M805.6,520.8c1.9,0,3.3,1.7,3.3,3.4c0,1.9-1.4,3.4-3.3,3.4h-17.8v70.2c0,1.7-1.5,3.3-3.4,3.3
		c-1.9,0-3.4-1.7-3.4-3.3v-70.2h-17.1c-1.9,0-3.3-1.5-3.3-3.4c0-1.7,1.4-3.4,3.3-3.4H781v-25.4c0-1.9,1.5-3.3,3.4-3.3
		c1.9,0,3.4,1.4,3.4,3.3v25.4H805.6z"/>
	<path fill="#8891B1" d="M913.8,554.9v42.4c0,1.9-1.1,3.3-2.8,3.3c-1.9,0-2.8-1.4-2.8-3.3v-42.4c0-14.3-8.3-28.6-24.3-28.6
		c-20.5,0-29.6,17.9-28.5,36.2c0,0.5-0.1,2.6-0.1,2.9v31.9c0,1.9-0.9,3.3-2.8,3.3c-1.9,0-2.8-1.4-2.8-3.3V458c0-1.7,0.9-3.3,2.8-3.3
		c1.9,0,2.8,1.7,2.8,3.3v78.8c6.8-10.2,15.9-17.1,27.8-17.1C902.6,519.7,913.8,536.8,913.8,554.9z"/>
	<path fill="#8891B1" d="M1033.6,561.1c0,1.9-1.7,3.6-3.6,3.6h-66.4c1.7,15.8,14,31.2,31.4,31.2c11.9,0,20.7-4.6,27.4-14.2
		c0.7-1,1.7-1.7,2.9-1.7c1.9,0,3.3,1.4,3.3,3.3c0,0.7-0.2,1.2-0.5,1.7c-6.7,11.7-20,17.4-33.1,17.4c-22.4,0-38.3-20-38.3-41.4
		c0-21.4,15.9-41.3,38.3-41.3S1033.6,539.7,1033.6,561.1z M1026.5,557.9c-1.4-16.9-14-31.4-31.4-31.4s-29.8,14.5-31.4,31.4H1026.5z"
		/>
	<path fill="#8891B1" d="M1115.3,524.2c0,2.1-1.2,3.3-3.2,3.6c-19.5,2.9-28.4,18.8-28.4,37.4V597c0,1.9-1.5,3.3-3.4,3.3
		s-3.4-1.4-3.4-3.3v-72.6c0-1.9,1.5-3.3,3.4-3.3s3.4,1.4,3.4,3.3v14.8c5.6-9.3,16.5-18.1,27.9-18.1
		C1113.3,521.1,1115.3,522.3,1115.3,524.2z"/>
	<path fill="#8891B1" d="M1224.5,561.1c0,1.9-1.7,3.6-3.6,3.6h-66.4c1.7,15.8,14,31.2,31.4,31.2c11.9,0,20.7-4.6,27.4-14.2
		c0.7-1,1.7-1.7,2.9-1.7c1.9,0,3.3,1.4,3.3,3.3c0,0.7-0.2,1.2-0.5,1.7c-6.7,11.7-20,17.4-33.1,17.4c-22.4,0-38.3-20-38.3-41.4
		c0-21.4,15.9-41.3,38.3-41.3C1208.3,519.6,1224.5,539.7,1224.5,561.1z M1217.4,557.9c-1.4-16.9-14-31.4-31.4-31.4
		c-17.4,0-29.8,14.5-31.4,31.4H1217.4z"/>
	<path fill="#8891B1" d="M1332.4,524.9V548v49.7c0,1.9-1.7,3.3-3.4,3.3c-1.9,0-3.4-1.4-3.4-3.3V584c-5.6,10.9-15.3,18.8-27.7,18.8
		c-19.8,0-30.8-17.1-30.8-35.2v-42.6c0-1.7,1.5-3.3,3.4-3.3s3.4,1.7,3.4,3.3v42.6c0,14.3,8.1,28.6,24.1,28.6
		c22.4,0,27.7-20.9,27.7-44v-27.1c0-1.7,1.5-3.3,3.4-3.3C1330.7,521.6,1332.4,523.3,1332.4,524.9z"/>
	<path fill="#8891B1" d="M1500,554.7v42.6c0,1.9-1.7,3.3-3.4,3.3c-1.9,0-3.4-1.4-3.4-3.3v-42.6c0-14.3-8.1-28.3-24.1-28.3
		c-20,0-27.7,21.4-27.7,38.1v32.8c0,1.9-1.7,3.3-3.4,3.3c-1.9,0-3.4-1.4-3.4-3.3v-42.6c0-14.3-7.9-28.3-23.8-28.3
		c-20.2,0-28.6,15.9-27.9,37.1c0,0.5,0,1.4,0,1.7v32.1c0,1.9-1.5,3.3-3.4,3.3s-3.4-1.4-3.4-3.3v-72.8c0-1.9,1.5-3.3,3.4-3.3
		s3.4,1.4,3.4,3.3v12.1c5.6-10.2,16.1-16.9,28-16.9c13.6,0,24.1,8.6,28.4,21.2c5.5-12.4,16.2-21.2,30-21.2
		C1488.9,519.7,1500,536.6,1500,554.7z"/>
</g>
</svg>
