<svg xmlns="http://www.w3.org/2000/svg"  width="1em" height="1em" viewBox="0 0 16 16" fill="currentcolor">
  <path
    fillRule="evenodd"
    clipRule="evenodd"
    d="M11.1137 2.03027H11.1564C11.7087 2.03027 12.1542 2.03027 12.5128 2.06436C12.8826 2.09952 13.2048 2.174 13.4946 2.35155C13.7879 2.53132 14.0346 2.77797 14.2144 3.07134C14.3919 3.36108 14.4664 3.68329 14.5016 4.0531C14.5356 4.41171 14.5356 4.85717 14.5356 5.40954V5.45226C14.5356 5.81519 14.5356 6.11807 14.5122 6.36409C14.4878 6.62127 14.4347 6.86094 14.3 7.08077C14.1682 7.2959 13.9873 7.47677 13.7722 7.60865C13.5523 7.74334 13.3127 7.7964 13.0555 7.82084C12.8095 7.84427 12.5066 7.84421 12.1436 7.84421H11.4531C10.9307 7.84427 10.4951 7.84427 10.1493 7.79777C9.78431 7.74871 9.45475 7.64077 9.18993 7.37596C8.92512 7.11115 8.81718 6.7816 8.76812 6.4166C8.72162 6.0708 8.72162 5.63521 8.72168 5.11283V4.42231C8.72168 4.05936 8.72162 3.75643 8.74506 3.51042C8.7695 3.25324 8.82256 3.01355 8.95725 2.79372C9.08912 2.57859 9.27 2.39771 9.48512 2.26588C9.70493 2.13116 9.94462 2.0781 10.2018 2.05365C10.4478 2.03026 10.7507 2.03027 11.1137 2.03027ZM11.6286 5.66399C11.329 5.66399 11.1792 5.66399 11.0734 5.58893C11.0361 5.56245 11.0034 5.52986 10.9769 5.49252C10.9019 5.38674 10.9019 5.23691 10.9019 4.93726C10.9019 4.63761 10.9019 4.48777 10.9769 4.38198C11.0034 4.34465 11.0361 4.31206 11.0734 4.28557C11.1792 4.21051 11.329 4.21051 11.6286 4.21051C11.9283 4.21051 12.0781 4.21051 12.1839 4.28557C12.2212 4.31206 12.2538 4.34465 12.2803 4.38198C12.3554 4.48777 12.3554 4.63759 12.3554 4.93725C12.3554 5.23691 12.3554 5.38674 12.2803 5.49252C12.2538 5.52986 12.2212 5.56245 12.1839 5.58893C12.0781 5.66399 11.9283 5.66399 11.6286 5.66399Z"
  />,
  <path
    fillRule="evenodd"
    clipRule="evenodd"
    d="M7.08614 2.26588C6.86631 2.13116 6.62664 2.0781 6.36946 2.05365C6.12344 2.03026 5.82054 2.03027 5.45758 2.03027H5.41492C4.86256 2.03027 4.41708 2.03027 4.05848 2.06436C3.68866 2.09952 3.36645 2.174 3.07671 2.35155C2.78334 2.53132 2.53669 2.77797 2.35693 3.07134C2.17937 3.36108 2.10489 3.68329 2.06973 4.0531C2.03564 4.41171 2.03564 4.85716 2.03564 5.40952V5.45219C2.03564 5.81514 2.03563 6.11807 2.05902 6.36409C2.08348 6.62127 2.13653 6.86094 2.27125 7.08077C2.40308 7.2959 2.58396 7.47677 2.79909 7.60865C3.01893 7.74334 3.25861 7.7964 3.51579 7.82084C3.76179 7.84427 4.06466 7.84421 4.42759 7.84421H5.1182C5.64056 7.84427 6.07617 7.84427 6.42197 7.79777C6.78697 7.74871 7.11652 7.64077 7.38133 7.37596C7.64614 7.11115 7.75408 6.7816 7.80314 6.4166C7.84964 6.0708 7.84965 5.63521 7.84958 5.11285V4.42231C7.84958 4.05939 7.84965 3.75642 7.82621 3.51042C7.80177 3.25324 7.74871 3.01355 7.61402 2.79372C7.48214 2.57859 7.30127 2.39771 7.08614 2.26588ZM4.38735 5.58893C4.49314 5.66399 4.64296 5.66399 4.94262 5.66399C5.24228 5.66399 5.39211 5.66399 5.4979 5.58893C5.53523 5.56245 5.56782 5.52986 5.5943 5.49252C5.66936 5.38674 5.66936 5.23691 5.66936 4.93725C5.66936 4.63759 5.66936 4.48777 5.5943 4.38198C5.56782 4.34465 5.53523 4.31206 5.4979 4.28557C5.39211 4.21051 5.24228 4.21051 4.94262 4.21051C4.64296 4.21051 4.49314 4.21051 4.38735 4.28557C4.35002 4.31206 4.31743 4.34465 4.29094 4.38198C4.21588 4.48777 4.21588 4.63759 4.21588 4.93725C4.21588 5.23691 4.21588 5.38674 4.29094 5.49252C4.31743 5.52986 4.35002 5.56245 4.38735 5.58893Z"
  />,
  <path
    fillRule="evenodd"
    clipRule="evenodd"
    d="M6.42197 8.76324C6.78697 8.8123 7.11652 8.92024 7.38133 9.18505C7.64614 9.44986 7.75408 9.77943 7.80314 10.1444C7.84964 10.4902 7.84965 10.9258 7.84958 11.4482V12.1387C7.84958 12.5017 7.84965 12.8046 7.82621 13.0506C7.80177 13.3078 7.74871 13.5474 7.61402 13.7673C7.48214 13.9824 7.30127 14.1633 7.08614 14.2951C6.86631 14.4299 6.62664 14.4829 6.36946 14.5074C6.12345 14.5307 5.8205 14.5307 5.45756 14.5307H5.41491C4.86255 14.5307 4.41708 14.5307 4.05848 14.4967C3.68866 14.4615 3.36645 14.387 3.07671 14.2095C2.78334 14.0297 2.53669 13.7831 2.35693 13.4897C2.17937 13.1999 2.10489 12.8777 2.06973 12.5079C2.03564 12.1493 2.03564 11.7039 2.03564 11.1515V11.1088C2.03564 10.7459 2.03563 10.4429 2.05902 10.1969C2.08348 9.93974 2.13653 9.70005 2.27125 9.48024C2.40308 9.26511 2.58396 9.08424 2.79909 8.95236C3.01893 8.81768 3.25861 8.76461 3.51579 8.74018C3.76179 8.71674 4.06469 8.7168 4.42763 8.7168H5.1182C5.64058 8.71674 6.07617 8.71674 6.42197 8.76324ZM4.94262 12.3505C4.64296 12.3505 4.49314 12.3505 4.38735 12.2754C4.35002 12.2489 4.31743 12.2164 4.29094 12.1791C4.21588 12.0732 4.21588 11.9234 4.21588 11.6237C4.21588 11.3241 4.21588 11.1743 4.29094 11.0685C4.31743 11.0312 4.35002 10.9986 4.38735 10.9721C4.49314 10.897 4.64296 10.897 4.94261 10.897C5.24226 10.897 5.39211 10.897 5.4979 10.9721C5.53523 10.9986 5.56782 11.0312 5.5943 11.0685C5.66936 11.1743 5.66936 11.3241 5.66936 11.6237C5.66936 11.9234 5.66936 12.0732 5.5943 12.1791C5.56782 12.2164 5.53523 12.2489 5.4979 12.2754C5.39211 12.3505 5.24228 12.3505 4.94262 12.3505Z"
  />,
  <path d="M8.72168 11.1654V11.1877H9.59374C9.59374 10.7704 9.59431 10.4902 9.61599 10.2765C9.63699 10.0702 9.67412 9.97492 9.71624 9.91186C9.76924 9.83248 9.83737 9.76436 9.91674 9.71136C9.97981 9.66923 10.0751 9.63211 10.2814 9.61111C10.4951 9.58942 10.7752 9.58886 11.1926 9.58886H12.3554V8.7168H11.1703C10.781 8.7168 10.4562 8.71673 10.1932 8.74348C9.91793 8.77155 9.66249 8.83242 9.43224 8.98623C9.25768 9.10286 9.10774 9.2528 8.99112 9.42736C8.83731 9.65761 8.77643 9.91305 8.74837 10.1883C8.72162 10.4513 8.72168 10.7761 8.72168 11.1654Z" />,
  <path d="M14.5356 12.3643V12.3496H13.6635C13.6635 12.6265 13.6633 12.8123 13.6535 12.9562C13.6439 13.0961 13.6268 13.1643 13.6082 13.2091C13.5344 13.3872 13.393 13.5287 13.2149 13.6024C13.1701 13.621 13.1019 13.6382 12.9619 13.6477C12.8181 13.6575 12.6323 13.6577 12.3554 13.6577H11.1926V14.5299H12.3701C12.6285 14.5299 12.8442 14.5299 13.0213 14.5178C13.2057 14.5052 13.3798 14.4781 13.5486 14.4082C13.9404 14.2459 14.2516 13.9346 14.4139 13.5429C14.4839 13.374 14.511 13.1999 14.5236 13.0155C14.5356 12.8384 14.5356 12.6227 14.5356 12.3643Z" />,
  <path d="M9.59374 14.0938C9.59374 14.3346 9.39855 14.5299 9.15768 14.5299C8.91687 14.5299 8.72168 14.3346 8.72168 14.0938V12.3496H9.59374V14.0938Z" />,
  <path d="M14.0996 8.7168C13.8588 8.7168 13.6636 8.91198 13.6636 9.1528V11.1877H14.5357V9.1528C14.5357 8.91198 14.3404 8.7168 14.0996 8.7168Z" />,
  <path d="M10.8332 11.1661C10.7856 11.281 10.7856 11.4266 10.7856 11.7178C10.7856 12.009 10.7856 12.1546 10.8332 12.2695C10.8966 12.4226 11.0183 12.5443 11.1715 12.6077C11.2863 12.6553 11.432 12.6553 11.7231 12.6553C12.0143 12.6553 12.16 12.6553 12.2748 12.6077C12.428 12.5443 12.5496 12.4226 12.6131 12.2695C12.6606 12.1546 12.6606 12.009 12.6606 11.7178C12.6606 11.4266 12.6606 11.281 12.6131 11.1661C12.5496 11.013 12.428 10.8913 12.2748 10.8278C12.16 10.7803 12.0143 10.7803 11.7231 10.7803C11.432 10.7803 11.2863 10.7803 11.1715 10.8278C11.0183 10.8913 10.8966 11.013 10.8332 11.1661Z" />,
</svg>