<svg xmlns="http://www.w3.org/2000/svg" width="1em" height="1em" viewBox="0 0 16 16" fill="currentColor">
  <g> <path fillRule="evenodd" clipRule="evenodd" d="M5.82869 10.1713C5.63343 9.97609 5.31685 9.97609 5.12159 10.1713L1.02539 14.2675L1.02539 11.4998C1.02539 11.2236 0.801534 10.9998 0.525392 10.9998C0.249249 10.9998 0.0253906 11.2236 0.025391 11.4998L0.0253906 15.4746C0.0253906 15.7508 0.249249 15.9747 0.525391 15.9747L4.50023 15.9746C4.77637 15.9746 5.00023 15.7508 5.00023 15.4746C5.00023 15.1985 4.77637 14.9746 4.50023 14.9746L1.7325 14.9746L5.82869 10.8785C6.02395 10.6832 6.02395 10.3666 5.82869 10.1713Z" fill="currentColor"/> <path fillRule="evenodd" clipRule="evenodd" d="M10.1718 5.82865C10.3671 6.02391 10.6836 6.02391 10.8789 5.82865L14.9751 1.73246L14.9751 4.50023C14.9751 4.77637 15.199 5.00023 15.4751 5.00023C15.7512 5.00023 15.9751 4.77637 15.9751 4.50023L15.9751 0.52535C15.9751 0.249208 15.7512 0.0253496 15.4751 0.0253496L11.5003 0.0253525C11.2241 0.0253523 11.0003 0.249211 11.0003 0.525353C11.0003 0.801496 11.2241 1.02535 11.5003 1.02535L14.268 1.02535L10.1718 5.12154C9.97653 5.31681 9.97653 5.63339 10.1718 5.82865Z" fill="currentColor"/> </g>
</svg>