<svg xmlns="http://www.w3.org/2000/svg" width="1em" height="1em" viewBox="0 0 24 24" fill="currentColor">
  <g> <path d="M12 22.5C6.20101 22.5 1.5 17.799 1.5 12C1.5 6.20101 6.20101 1.5 12 1.5C17.799 1.5 22.5 6.20101 22.5 12C22.5 17.799 17.799 22.5 12 22.5ZM12 24C18.6274 24 24 18.6274 24 12C24 5.37258 18.6274 0 12 0C5.37258 0 0 5.37258 0 12C0 18.6274 5.37258 24 12 24Z" fill="currentColor"/> <path d="M9.40681 7.58313C9.65662 7.45457 9.95732 7.47641 10.1859 7.6397L15.4359 11.3897C15.633 11.5305 15.75 11.7578 15.75 12C15.75 12.2422 15.633 12.4695 15.4359 12.6103L10.1859 16.3603C9.95732 16.5236 9.65662 16.5454 9.40681 16.4169C9.15701 16.2883 9 16.0309 9 15.75V8.25C9 7.96906 9.15701 7.71168 9.40681 7.58313Z" fill="currentColor"/> </g>
</svg>