<svg enable-background="new 0 0 1920 1080" viewBox="0 0 1920 1080" xmlns="http://www.w3.org/2000/svg"><path d="m0 0h1920v1080h-1920z" fill="#eceff0"/><g fill="#3b3b3b"><path d="m726.2 560.4c0 1.9-1.6 3.5-3.6 3.5h-66.3c1.7 16.4 14 31.4 31.4 31.4 11.9 0 20.7-4.5 27.3-14 .7-1 1.7-1.7 2.9-1.7 1.9 0 3.3 1.4 3.3 3.3 0 .7-.2 1.2-.5 1.7-6.7 11.6-20 17.3-33 17.3-22.3 0-38.3-20-38.3-41.3 0-21.4 15.9-41.3 38.3-41.3 22.3 0 38.4 19.8 38.5 41.1zm-7.1-3.1c-1.4-16.4-14-31.4-31.4-31.4s-29.7 15-31.4 31.4z"/><path d="m806.8 520.9c1.9 0 3.3 1.7 3.3 3.3 0 1.9-1.4 3.3-3.3 3.3h-17.8v69.9c0 1.7-1.4 3.3-3.3 3.3s-3.3-1.7-3.3-3.3v-69.9h-17.1c-1.9 0-3.3-1.4-3.3-3.3 0-1.7 1.4-3.3 3.3-3.3h17.1v-25.5c0-1.7 1.3-3.3 3-3.5 2.1-.2 3.7 1.3 3.7 3.3v25.7z"/><path d="m915.3 554.7v42.3c0 1.9-1.7 3.3-3.3 3.3-1.9 0-3.3-1.4-3.3-3.3v-42.3c0-14.3-8.1-28.5-24-28.5-20.4 0-29.2 17.8-28 36.1 0 .5.2 2.6.2 2.9v31.7c0 1.7-1.3 3.3-3 3.5-2.1.2-3.7-1.3-3.7-3.3v-139.1c0-1.7 1.4-3.3 3.3-3.3s3.3 1.7 3.3 3.3v78.6c5.7-10.2 15.9-17.1 27.8-17.1 19.6 0 30.7 17.1 30.7 35.2z"/><path d="m1034.4 560.4c0 1.9-1.6 3.5-3.6 3.5h-66.3c1.7 16.4 14 31.4 31.4 31.4 11.9 0 20.7-4.5 27.3-14 .7-1 1.7-1.7 2.9-1.7 1.9 0 3.3 1.4 3.3 3.3 0 .7-.2 1.2-.5 1.7-6.7 11.6-20 17.3-33 17.3-22.3 0-38.3-20-38.3-41.3 0-21.4 15.9-41.3 38.3-41.3 22.2 0 38.4 19.8 38.5 41.1zm-7.2-3.1c-1.4-16.4-14-31.4-31.4-31.4s-29.7 15-31.4 31.4z"/><path d="m1115.9 524c0 2.1-1.2 3.3-3.1 3.6-19.5 2.9-28.3 18.8-28.3 37.3v31.7c0 1.7-1.3 3.3-3 3.5-2.1.2-3.7-1.3-3.7-3.3v-72.3c0-1.7 1.3-3.3 3-3.5 2.1-.2 3.7 1.3 3.7 3.3v14.7c5.5-9.3 16.4-18.1 27.8-18.1 1.7 0 3.6 1.2 3.6 3.1z"/><path d="m1224.9 560.4c0 1.9-1.6 3.5-3.6 3.5h-66.3c1.7 16.4 14 31.4 31.4 31.4 11.9 0 20.7-4.5 27.3-14 .7-1 1.7-1.7 2.9-1.7 1.9 0 3.3 1.4 3.3 3.3 0 .7-.2 1.2-.5 1.7-6.7 11.6-20 17.3-33 17.3-22.3 0-38.3-20-38.3-41.3 0-21.4 15.9-41.3 38.3-41.3 22.3 0 38.4 19.8 38.5 41.1zm-7.1-3.1c-1.4-16.4-14-31.4-31.4-31.4s-29.7 15-31.4 31.4z"/><path d="m1332.1 524.8v22.9 49.7c0 1.9-1.7 3.3-3.3 3.3-1.9 0-3.3-1.4-3.3-3.3v-13.8c-5.5 10.9-15.2 18.8-27.6 18.8-19.7 0-30.6-17.1-30.6-35.2v-42.5c0-1.7 1.4-3.3 3.3-3.3s3.3 1.7 3.3 3.3v42.5c0 14.3 8.1 28.5 24 28.5 22.3 0 27.6-20.9 27.6-44v-27.1c0-2 2.1-4 4.5-3.1 1.3.6 2.1 1.9 2.1 3.3z"/><path d="m1500 554.4v42.5c0 1.9-1.7 3.3-3.3 3.3-1.9 0-3.3-1.4-3.3-3.3v-42.5c0-14.3-8.1-28.3-24-28.3-20 0-27.6 21.4-27.6 38v32.8c0 1.9-1.7 3.3-3.3 3.3-1.9 0-3.3-1.4-3.3-3.3v-42.5c0-14.3-8.1-28.3-24-28.3-20.2 0-28.5 15.9-27.8 37.1 0 .5.2 1.4 0 1.7v31.9c0 1.7-1.3 3.3-3 3.5-2.1.2-3.7-1.3-3.7-3.3v-72.5c0-1.7 1.3-3.3 3-3.5 2.1-.2 3.7 1.3 3.7 3.3v12.1c5.7-10.2 15.9-16.9 27.8-16.9 13.5 0 24 8.6 28.3 21.1 5.5-12.4 16.2-21.1 29.9-21.1 19.5 0 30.6 16.9 30.6 34.9z"/></g><path d="m503 504.8-83 37.7 83 49.1 83.1-49.1z" opacity=".6"/><path d="m420 542.5 83 49.1v-86.8-100.1z" opacity=".45"/><path d="m503 404.7v100.1 86.8l83.1-49.1z" opacity=".8"/><path d="m420 558.3 83 117v-68z" opacity=".45"/><path d="m503 607.3v68l83.1-117z" opacity=".8"/></svg>