<svg fill="currentColor" viewBox="0 0 256 256" fill-rule="evenodd" clip-rule="evenodd" aria-hidden="true" height="1em" width="1em" xmlns="http://www.w3.org/2000/svg">
<path d="M128 24C70.562 24 24 70.562 24 128C24 185.438 70.562 232 128 232C185.438 232 232 185.438 232 128C232 70.562 185.438 24 128 24ZM128 34.67C179.546 34.67 221.33 76.454 221.33 128C221.33 179.546 179.546 221.33 128 221.33C76.454 221.33 34.67 179.546 34.67 128C34.67 76.454 76.454 34.67 128 34.67Z"/>
<path d="M128 72L156 108H136V148H120V108H100L128 72Z"/>
<path d="M88 168H168V184H88V168Z"/>
<path d="M72 136C72 105.072 97.072 80 128 80V91C103.147 91 83 111.147 83 136C83 160.853 103.147 181 128 181V192C97.072 192 72 166.928 72 136Z"/>
<path d="M184 136C184 166.928 158.928 192 128 192V181C152.853 181 173 160.853 173 136C173 111.147 152.853 91 128 91V80C158.928 80 184 105.072 184 136Z"/>
</svg>
