<svg xmlns="http://www.w3.org/2000/svg" width="1em" height="1em" viewBox="0 0 24 24" fill="currentColor">
  <path fill="#8C8C8C" fill-rule="evenodd" clip-rule="evenodd" d="M12.17 2.5H5a2.5 2.5 0 0 0-2.5 2.5v7.17c0 .66.26 1.3.73 1.77l7.66 7.66a2.5 2.5 0 0 0 3.54 0l6.66-6.66a2.5 2.5 0 0 0 0-3.54l-7.66-7.66a2.5 2.5 0 0 0-1.77-.74ZM5 4.5h7.17a.5.5 0 0 1 .35.15l7.66 7.66a.5.5 0 0 1 0 .7l-6.66 6.67a.5.5 0 0 1-.71 0L5.15 12.02a.5.5 0 0 1-.15-.35V5a.5.5 0 0 1 .5-.5Zm2.75 1.75a1.5 1.5 0 1 0 0 3 1.5 1.5 0 0 0 0-3Z"/>
</svg>
