<svg fill="currentColor" viewBox="0 0 256 256" fill-rule="evenodd" clip-rule="evenodd" aria-hidden="true" height="1em" width="1em" xmlns="http://www.w3.org/2000/svg">
<path d="M128 24C70.562 24 24 70.562 24 128C24 185.438 70.562 232 128 232C185.438 232 232 185.438 232 128C232 70.562 185.438 24 128 24ZM128 34.67C179.546 34.67 221.33 76.454 221.33 128C221.33 179.546 179.546 221.33 128 221.33C76.454 221.33 34.67 179.546 34.67 128C34.67 76.454 76.454 34.67 128 34.67Z"/>
<path d="M128 56C88.236 56 56 88.236 56 128C56 167.764 88.236 200 128 200C167.764 200 200 167.764 200 128C200 88.236 167.764 56 128 56ZM128 66.67C161.871 66.67 189.33 94.129 189.33 128C189.33 161.871 161.871 189.33 128 189.33C94.129 189.33 66.67 161.871 66.67 128C66.67 94.129 94.129 66.67 128 66.67Z"/>
<path d="M128 88C105.909 88 88 105.909 88 128C88 150.091 105.909 168 128 168C150.091 168 168 150.091 168 128C168 105.909 150.091 88 128 88ZM128 104C141.255 104 152 114.745 152 128C152 141.255 141.255 152 128 152C114.745 152 104 141.255 104 128C104 114.745 114.745 104 128 104Z"/>
<path d="M164 76L180 60M76 164L60 180M180 180L164 164M60 60L76 76" stroke="currentColor" stroke-width="10" stroke-linecap="round"/>
</svg>
