<svg width="100%" height="100%" viewBox="0 0 36 24" fill="none" xmlns="http://www.w3.org/2000/svg">
<g clip-path="url(#clip0_27181_2837)">
<path d="M23.38 15.6819L16.2588 3.37653L21.3747 0.454834L30.2298 15.6819H23.38Z" fill="currentColor"/>
<path d="M4.41211 13.9578L9.52798 11.0164L12.2348 15.6819H5.40484L4.41211 13.9578Z" fill="currentColor"/>
<path d="M14.4521 23.5322H15.9082V17.6757H14.4521V23.5322Z" fill="currentColor"/>
<path d="M32.6984 23.6704C31.0703 23.6704 30.0908 22.8347 30.0378 21.6568H31.5733C31.5733 22.0253 31.8049 22.5649 32.7976 22.5846C33.4595 22.5846 33.7705 22.1964 33.7705 21.9069C33.7308 21.4462 33.1484 21.4068 32.5263 21.308C31.9042 21.2093 31.3747 21.0975 30.9909 20.9001C30.5011 20.65 30.1702 20.1104 30.1702 19.4919C30.1702 18.4456 31.0835 17.6165 32.6057 17.6165C34.0816 17.6165 35.0147 18.3864 35.114 19.5313H33.6315C33.6183 19.2221 33.5587 18.7351 32.6851 18.7351C32.0961 18.7351 31.7056 18.8536 31.6725 19.2616C31.6725 19.8604 32.8969 19.8209 33.8499 20.0709C34.7632 20.3013 35.3456 20.8672 35.3456 21.6568C35.3456 23.1111 34.161 23.6704 32.6984 23.6704Z" fill="currentColor"/>
<path d="M10.4082 8.73295L15.5241 5.7981L21.2621 15.6818H15.9079V17.1295H14.4519V15.6753L10.4082 8.73295Z" fill="currentColor"/>
<path d="M10.5406 23.6705C8.84631 23.6705 7.46973 22.2952 7.46973 20.6303C7.46973 18.9458 8.84631 17.6165 10.5406 17.6165C11.1825 17.6165 11.7649 17.7876 12.2745 18.1364V15.6819H13.7305V23.5323H12.2745V23.144C11.7649 23.4731 11.1825 23.6705 10.5406 23.6705ZM8.86617 20.6303C8.86617 21.5384 9.64712 22.2952 10.5803 22.2952C11.4936 22.2952 12.2745 21.5384 12.2745 20.6303C12.2745 19.7222 11.4936 18.9458 10.5803 18.9458C9.64712 18.9458 8.86617 19.7222 8.86617 20.6303Z" fill="currentColor"/>
<path d="M21.3019 15.6819H22.738V23.5323H21.3019V23.144C20.8121 23.4731 20.2099 23.6705 19.5481 23.6705C17.8737 23.6705 16.4971 22.2952 16.4971 20.6303C16.4971 18.9458 17.8737 17.6165 19.5481 17.6165C20.2099 17.6165 20.7923 17.7876 21.3019 18.1364V15.6819ZM17.9134 20.6303C17.9134 21.5384 18.6943 22.2952 19.5878 22.2952C20.5209 22.2952 21.3019 21.5384 21.3019 20.6303C21.3019 19.7222 20.5209 18.9458 19.5878 18.9458C18.6943 18.9458 17.9134 19.7222 17.9134 20.6303Z" fill="currentColor"/>
<path d="M26.2788 23.6704C24.611 23.6704 23.2278 22.2951 23.2278 20.6303C23.2278 18.9457 24.611 17.6165 26.2788 17.6165C26.9207 17.6165 27.523 17.7875 28.0127 18.1363V17.6691H29.4688V23.5322H28.0127V23.144C27.523 23.473 26.9406 23.6704 26.2788 23.6704ZM24.6441 20.6303C24.6441 21.5384 25.425 22.2951 26.3383 22.2951C27.2517 22.2951 28.0127 21.5384 28.0127 20.6303C28.0127 19.7222 27.2517 18.9457 26.3383 18.9457C25.425 18.9457 24.6441 19.7222 24.6441 20.6303Z" fill="currentColor"/>
<path d="M2.11571 20.6303C2.11571 21.5384 2.89665 22.2951 3.80997 22.2951C4.74313 22.2951 5.52408 21.5384 5.52408 20.6303C5.52408 19.7222 4.74313 18.9457 3.80997 18.9457C2.89665 18.9457 2.11571 19.7222 2.11571 20.6303ZM3.77026 23.6704C2.09585 23.6704 0.712646 22.2951 0.712646 20.6303C0.712646 18.9457 2.09585 17.6165 3.77026 17.6165C4.41222 17.6165 5.01448 17.7875 5.52408 18.1363V17.6691H6.96023V23.5322H5.52408V23.144C5.03433 23.473 4.43208 23.6704 3.77026 23.6704Z" fill="currentColor"/>
</g>
<defs>
<clipPath id="clip0_27181_2837">
<rect width="35" height="24" fill="white" transform="translate(0.5)"/>
</clipPath>
</defs>
</svg>
