<svg width="100%" height="100%" viewBox="0 0 84 24" fill="none" xmlns="http://www.w3.org/2000/svg">
<g clip-path="url(#clip0_27181_2964)">
<path d="M14.7819 22.7183C18.7482 22.0151 22.0241 21.4331 22.0617 21.4251L22.1301 21.4106L18.3856 16.9401C16.3261 14.4814 14.641 12.4601 14.641 12.4485C14.641 12.4264 18.5076 1.73942 18.5293 1.7014C18.5366 1.68869 21.1679 6.24835 24.9078 12.7543C28.4092 18.8453 31.2959 23.8674 31.3227 23.9144L31.3715 24L19.471 23.9985L7.57052 23.9969L14.7819 22.7183ZM60.4189 21.6372C58.6074 21.5206 57.5538 20.4853 57.2746 18.5474C57.2004 18.0319 57.2001 18.0185 57.1925 14.6719L57.1851 11.4329H57.9868H58.7885L58.7949 14.5658C58.8005 17.3895 58.8041 17.7205 58.831 17.9192C58.9402 18.7253 59.1575 19.2674 59.5275 19.6565C59.8236 19.9679 60.1702 20.1503 60.65 20.247C60.8764 20.2927 61.5204 20.2928 61.7267 20.2472C62.2132 20.1398 62.6031 19.9273 62.947 19.5822C63.339 19.1889 63.629 18.6309 63.7694 17.9999L63.8167 17.7872L63.8219 14.6277L63.8272 11.4683H64.6457H65.4642V16.435V21.4018H64.6541H63.8441V20.6138C63.8441 20.0783 63.8382 19.8277 63.8258 19.8318C63.8158 19.8352 63.7742 19.8991 63.7334 19.9738C63.4542 20.4848 62.9891 20.9521 62.4795 21.2336C61.8686 21.5711 61.2559 21.691 60.4189 21.6372ZM78.8056 21.6291C78.1661 21.5809 77.4928 21.3602 76.9425 21.0186C75.7826 20.2984 75.0963 19.1114 74.8953 17.4778C74.8258 16.9126 74.8174 16.1533 74.8755 15.6729C75.0051 14.5997 75.4253 13.5461 76.0237 12.7939C76.1771 12.6011 76.525 12.2518 76.7171 12.0979C77.2359 11.6821 77.8427 11.3914 78.487 11.25C78.8624 11.1675 79.5234 11.1288 79.9222 11.1659C80.9241 11.2591 81.8423 11.7326 82.4664 12.4778C83.1004 13.2348 83.4489 14.2927 83.4934 15.5954C83.5004 15.7996 83.5021 16.1575 83.4972 16.3908L83.4883 16.815L79.9794 16.8195L76.4706 16.8239V16.9811C76.4706 17.4595 76.5865 18.0044 76.7868 18.4681C76.9596 18.8679 77.257 19.3044 77.5005 19.5157C77.9998 19.9489 78.6108 20.2082 79.2794 20.2706C79.5274 20.2937 80.1592 20.2694 80.4417 20.2258C81.2478 20.1015 82.0141 19.7842 82.633 19.3185C82.7058 19.2637 82.7755 19.2125 82.7878 19.2047C82.8059 19.1933 82.8102 19.3365 82.8097 19.9382L82.8092 20.6859L82.6433 20.7888C81.9432 21.2234 81.1412 21.5025 80.292 21.6069C80.0386 21.6381 79.1087 21.652 78.8056 21.6291ZM81.8593 15.3233C81.8593 14.5219 81.5229 13.6317 81.0467 13.1732C80.7069 12.8461 80.2961 12.6462 79.8077 12.5702C79.5767 12.5343 79.0898 12.5482 78.8462 12.5976C78.3312 12.702 77.9053 12.9292 77.5338 13.2976C77.1429 13.6854 76.8498 14.1564 76.6654 14.6929C76.5991 14.8859 76.5216 15.2027 76.4975 15.3789L76.486 15.4629H79.1727H81.8593V15.3233ZM34.2625 21.3796C34.2667 21.3675 35.4582 18.2257 36.9104 14.398L39.5507 7.4384L40.3991 7.43835L41.2474 7.4383L41.3178 7.61947C41.5329 8.17311 46.6036 21.3866 46.6036 21.3935C46.6036 21.398 46.1975 21.4017 45.7011 21.4016L44.7986 21.4014L44.0677 19.4485L43.3369 17.4955L40.3943 17.4955L37.4516 17.4955L37.4261 17.5617C37.412 17.5982 37.0998 18.477 36.7322 19.5145L36.0639 21.4011L35.1595 21.4014C34.4436 21.4016 34.2566 21.3971 34.2625 21.3796ZM42.7998 16.0052C42.7998 16.0021 42.308 14.6638 41.7069 13.0313C40.5823 9.97712 40.5194 9.79335 40.4306 9.30302C40.3889 9.0731 40.3678 9.06671 40.3431 9.27651C40.3254 9.42647 40.2488 9.76204 40.1897 9.94817C40.1603 10.0405 39.6539 11.4356 39.0643 13.0483C38.4746 14.661 37.9922 15.9873 37.9922 15.9957C37.9922 16.004 39.0739 16.0108 40.396 16.0108C41.7181 16.0108 42.7998 16.0083 42.7998 16.0052ZM47.1495 21.1474V20.893L50.0813 16.8479L53.0131 12.8027L50.3587 12.7939L47.7043 12.785L47.6997 12.109L47.695 11.4329H51.5343H55.3735V11.6612V11.8896L52.4414 15.9568C50.8288 18.1938 49.5093 20.0278 49.5093 20.0324C49.5093 20.037 50.8129 20.0407 52.4062 20.0407H55.3031V20.7212V21.4017H51.2263H47.1495V21.1474ZM68.6634 21.39C68.6569 21.3835 68.6516 19.1405 68.6516 16.4055V11.4329H69.4529H70.2542V12.4581C70.2542 13.0219 70.261 13.4832 70.2694 13.4832C70.2777 13.4832 70.3167 13.3909 70.356 13.2781C70.5362 12.7612 70.8486 12.2782 71.2511 11.8943C71.6137 11.5485 72.0281 11.3417 72.5171 11.2626C72.6545 11.2403 72.7707 11.2361 73.0454 11.2433C73.3904 11.2523 73.5708 11.2776 73.7806 11.3465L73.8467 11.3681V12.2029V13.0377L73.6574 12.9426C73.323 12.7745 72.993 12.7081 72.5963 12.7288C72.3382 12.7422 72.1688 12.7755 71.9624 12.8532C71.5377 13.0132 71.1933 13.2955 70.9526 13.6809C70.6042 14.2388 70.3557 14.956 70.2824 15.6151C70.2693 15.7334 70.2615 16.6967 70.2584 18.5958L70.2539 21.4017H69.4645C69.0303 21.4017 68.6698 21.3964 68.6634 21.39ZM0.5 21.355C0.5 21.3487 2.26441 18.2745 4.42092 14.5235L8.34183 7.70341L12.9112 3.85462C15.4244 1.73779 17.4874 0.00325034 17.4956 8.69521e-05C17.5039 -0.00307581 17.4708 0.0804393 17.4222 0.185677C17.3735 0.290915 15.1407 5.09764 12.4605 10.8673L7.58727 21.3575L4.04363 21.362C2.09464 21.3645 0.5 21.3613 0.5 21.355Z" fill="currentColor"/>
</g>
<defs>
<clipPath id="clip0_27181_2964">
<rect width="83" height="24" fill="white" transform="translate(0.5)"/>
</clipPath>
</defs>
</svg>
