<svg width="100%" height="100%" viewBox="0 0 138 24" fill="none" xmlns="http://www.w3.org/2000/svg">
<g clip-path="url(#clip0_27181_2848)">
<path d="M18.2494 11.0458C18.1914 10.1783 17.9597 9.31084 17.4962 8.55904L13.5567 1.67711C13.267 1.15663 13.0353 0.578313 12.9194 0L12.7456 0.289157C11.7607 1.96627 11.7607 4.10602 12.7456 5.78313L15.932 11.2771C16.9169 12.9542 16.9169 15.094 15.932 16.7711L15.7582 17.0602C15.6423 16.4819 15.4106 15.9036 15.1209 15.3831L12.2242 10.3518L10.3703 7.11325C10.0806 6.59277 9.84887 6.01446 9.733 5.43614L9.55919 5.7253C8.57431 7.40241 8.57431 9.48434 9.55919 11.2193L12.7456 16.7133C13.7305 18.3904 13.7305 20.5301 12.7456 22.2072L12.5718 22.4964C12.4559 21.9181 12.2242 21.3398 11.9345 20.8193L7.93703 13.9373C7.41562 13.012 7.18388 11.9711 7.18388 10.9301C2.95466 12.0289 0 14.4 0 17.1181C0 20.9349 5.67758 24 12.6877 24C19.6977 24 25.3753 20.9349 25.3753 17.1181C25.4332 14.5157 22.5365 12.1446 18.2494 11.0458ZM30.2418 22.7855C30.2997 21.8024 30.4156 21.1663 30.7053 20.3566C32.0378 20.9928 33.7758 21.2819 35.0504 21.2819C37.2519 21.2819 38.5264 20.588 38.5264 19.1422C38.5264 17.7542 37.5995 17.1181 35.398 16.1349L34.1814 15.6723C31.9219 14.6892 30.4156 13.4169 30.4156 10.9301C30.4156 8.21205 32.3275 6.47711 36.1511 6.47711C37.7154 6.47711 39.1637 6.70843 40.4962 7.17108C40.4383 8.09639 40.2645 8.84819 40.0327 9.54217C38.7582 9.07952 37.194 8.84819 36.0932 8.84819C34.0076 8.84819 33.0806 9.65783 33.0806 10.9301C33.0806 12.1446 34.0076 12.8964 35.6877 13.5904L36.9622 14.1108C39.9748 15.3831 41.2494 16.7711 41.2494 19.0843C41.2494 21.8024 39.1637 23.7108 35.1083 23.7108C33.1965 23.7108 31.5743 23.4217 30.2418 22.7855ZM54.0529 11.3928V23.306H51.6196L51.5038 21.8602C50.8086 22.9012 49.8237 23.5952 48.1436 23.5952C45.0151 23.5952 42.8715 21.2819 42.8715 17.2916C42.8715 13.1277 45.131 10.6988 49.534 10.6988C51.272 10.7566 52.7204 10.9301 54.0529 11.3928ZM51.4458 20.588V13.1277C50.9244 13.012 50.2872 13.012 49.534 13.012C46.8111 13.012 45.5365 14.6892 45.5365 17.3494C45.5365 19.7783 46.5214 21.5133 48.8388 21.5133C49.9395 21.4554 50.7506 21.1084 51.4458 20.588ZM67.4937 15.3253V23.306H64.8867V15.788C64.8867 13.8795 64.2494 13.012 61.6423 13.012C61.005 13.012 60.3098 13.0699 59.5567 13.1855V23.306H56.9496V11.3928C58.6297 10.988 60.4836 10.6988 61.7003 10.6988C66.1033 10.7566 67.4937 12.4337 67.4937 15.3253ZM74.7935 21.3976C75.5466 21.3976 76.2998 21.2819 76.8212 21.0506C76.7632 21.7446 76.6474 22.5542 76.5315 23.2482C75.8363 23.5373 75.0252 23.653 74.33 23.653C71.7809 23.653 70.1587 22.4964 70.1587 19.6048V7.05542C70.9698 6.76627 71.9547 6.6506 72.7657 6.6506V11.1614H76.937C76.8791 11.9711 76.8212 12.7229 76.7053 13.4169H72.7657V19.2578C72.7657 20.7614 73.5189 21.3976 74.7935 21.3976ZM88.8715 11.3928V23.306H86.4383L86.3224 21.8602C85.6272 22.9012 84.6423 23.5952 82.9622 23.5952C79.8338 23.5952 77.6902 21.2819 77.6902 17.2916C77.6902 13.1277 79.9496 10.6988 84.3527 10.6988C86.0907 10.7566 87.4811 10.9301 88.8715 11.3928ZM86.2066 20.588V13.1277C85.6851 13.012 85.0479 13.012 84.2947 13.012C81.5718 13.012 80.2972 14.6892 80.2972 17.3494C80.2972 19.7783 81.2821 21.5133 83.5995 21.5133C84.7003 21.4554 85.5693 21.1084 86.2066 20.588ZM102.312 15.3253V23.306H99.6474V15.788C99.6474 13.8795 99.0101 13.012 96.403 13.012C95.7657 13.012 95.0705 13.0699 94.3174 13.1855V23.306H91.7103V11.3928C93.3904 10.988 95.2443 10.6988 96.461 10.6988C100.864 10.7566 102.312 12.4337 102.312 15.3253ZM115.579 6.6506V23.306H113.146L113.03 21.8024C112.335 22.9012 111.35 23.5952 109.612 23.5952C106.484 23.5952 104.34 21.2819 104.34 17.2916C104.34 13.1277 106.6 10.6988 111.003 10.6988C111.698 10.6988 112.335 10.7566 112.972 10.8723V6.93976C113.783 6.70843 114.71 6.6506 115.579 6.6506ZM112.972 20.588V13.2434C112.277 13.1277 111.582 13.012 110.887 13.012C108.28 13.012 107.063 14.6313 107.063 17.3494C107.063 19.7783 108.048 21.5133 110.365 21.5133C111.408 21.4554 112.277 21.1084 112.972 20.588ZM128.788 18.2169H120.388C120.736 20.3566 121.952 21.3398 124.327 21.3398C125.776 21.3398 127.224 21.0506 128.499 20.4145C128.383 21.1084 128.267 22.0337 128.093 22.7855C126.877 23.306 125.66 23.5373 124.212 23.5373C119.809 23.5373 117.723 21.1084 117.723 17.0602C117.723 13.5325 119.345 10.6988 123.516 10.6988C127.282 10.6988 128.904 13.1277 128.904 16.1349C128.904 16.9446 128.904 17.5229 128.788 18.2169ZM120.388 16.0193H126.297C126.297 14.053 125.254 12.8964 123.458 12.8964C121.547 12.9542 120.562 13.9952 120.388 16.0193ZM138 10.8723C138 11.6819 137.884 12.6072 137.768 13.1277C137.131 13.0699 136.552 13.012 135.798 13.012C135.161 13.012 134.524 13.0699 133.887 13.1277V23.306H131.28V11.3928C132.38 10.988 134.292 10.6988 135.741 10.6988C136.494 10.7566 137.421 10.7566 138 10.8723Z" fill="currentColor"/>
</g>
<defs>
<clipPath id="clip0_27181_2848">
<rect width="138" height="24" fill="white"/>
</clipPath>
</defs>
</svg>
