<svg width="100%" height="100%" viewBox="0 0 126 24" fill="none" xmlns="http://www.w3.org/2000/svg">
<g clip-path="url(#clip0_27181_2851)">
<path d="M0 0.462646V23.0273H22.5651V0.462646H0ZM15.622 16.0842H6.9414V7.40361H15.622V16.0842Z" fill="currentColor"/>
<path d="M29.5078 7.65186H38.1866V16.3694H29.5078V7.65186Z" fill="currentColor"/>
<path d="M45.1295 0.678223H57.7014C62.3162 0.678223 64.424 3.76872 64.424 6.59323C64.424 8.62773 63.6454 9.94002 61.556 11.1629C64.1913 12.1414 65.624 13.9064 65.624 16.6292C65.624 19.8853 63.2701 23.3408 57.7181 23.3408H45.1238L45.1295 0.678223ZM51.9959 18.2246H56.5449C58.167 18.2246 58.8943 17.0603 58.8943 16.0316C58.8943 16.5077 59.103 14.1539 56.7755 14.1539H51.9959V18.2246ZM52.0121 9.60138H55.6681C57.3393 9.60138 58.0052 8.81973 58.0052 7.67345C58.0052 7.40923 57.9237 5.92872 56.1477 5.92872H52.0121V9.60138Z" fill="currentColor"/>
<path d="M72.7735 0.678223H80.0424L88.3214 23.3131H80.8605L79.7684 19.9223H72.8037L71.8778 23.2955H64.4739L72.7735 0.678223ZM76.1124 7.39822L74.1935 14.9576H78.2962L76.1124 7.39822Z" fill="currentColor"/>
<path d="M99.9145 7.41006H106.847C106.848 3.56697 103.969 0 97.1375 0C89.6442 0 87.3241 4.15398 87.3241 7.19428C87.3241 12.0964 93.2966 13.3999 93.4821 13.4581C94.3742 13.7403 98.0814 14.7378 99.0061 15.0702C99.8084 15.3578 100.576 16.0029 100.576 16.8647C100.576 18.1858 99.0061 18.8239 97.6996 18.8239C96.8605 18.8239 94.0415 18.5447 94.0415 15.5432H86.8809C86.8809 19.5294 89.6109 23.9903 97.2713 23.9903C105.724 23.9903 107.492 18.9261 107.492 16.2328C107.492 14.0349 106.253 11.5971 103.392 10.4363C101.671 9.73828 98.8189 9.12661 97.3861 8.7065C96.6641 8.4938 94.258 8.00455 94.258 6.52976C94.258 4.64059 97.3585 4.88499 96.9061 4.88499C98.3063 4.88499 99.9145 5.67721 99.9145 7.41006Z" fill="currentColor"/>
<path d="M108.668 0.672852H125.969V6.6548H115.581V10.6423H124.844V16.3583H115.549V23.3368H108.634L108.668 0.672852Z" fill="currentColor"/>
</g>
<defs>
<clipPath id="clip0_27181_2851">
<rect width="126" height="24" fill="white"/>
</clipPath>
</defs>
</svg>
