<svg width="6.8em" height="1em" viewBox="0 0 162 24" fill="none" xmlns="http://www.w3.org/2000/svg">
<path d="M21.4965 22.8581V0.711182H26.5527V22.8581H21.4965ZM119.785 14.5837C119.785 9.23159 115.623 5.90958 110.752 5.90958C105.85 5.90958 101.718 9.26231 101.718 14.5837C101.718 19.9359 105.881 23.2887 110.752 23.2887C115.623 23.2887 119.785 19.9052 119.785 14.5837ZM114.791 14.5837C114.791 17.3829 112.91 18.9517 110.721 18.9517C108.532 18.9517 106.651 17.3829 106.651 14.5837C106.651 11.7538 108.532 10.2467 110.721 10.2467C112.91 10.2467 114.791 11.7538 114.791 14.5837ZM19.4616 16.4909C19.4616 13.9993 18.1668 12.0922 15.8544 11.231C18.0435 10.0313 18.8141 8.46257 18.8141 6.61702C18.8141 3.38732 16.4711 0.711182 11.2298 0.742024H1.17896V22.8888H11.6615C16.9335 22.8581 19.4616 20.2435 19.4616 16.4909ZM13.4496 7.26301C13.4496 8.7702 12.4939 9.63152 10.644 9.63152H6.45101V5.01753H10.644C12.3397 5.01753 13.4496 5.75582 13.4496 7.26301ZM13.912 16.1525C13.912 17.5982 12.8946 18.5517 11.014 18.5517H6.45101V13.7533H11.014C12.833 13.7533 13.912 14.676 13.912 16.1525ZM63.4881 10.4313C62.1008 7.5398 59.5109 5.94031 55.5954 5.94031C50.9708 5.94031 46.8394 8.83177 46.8394 14.5837C46.8394 20.182 50.4775 23.2887 55.5337 23.2887C59.0793 23.2887 62.0698 21.8737 63.4881 18.8285L59.4184 16.7369C58.6785 18.0903 57.5378 18.9517 55.7188 18.9517C53.3756 18.9517 51.8649 17.2906 51.8649 14.5837C51.8649 11.8769 53.5914 10.2467 55.688 10.2467C57.3219 10.2467 58.5552 10.9849 59.3259 12.5844L63.4881 10.4313ZM138.006 10.4313C136.619 7.5398 134.029 5.94031 130.114 5.94031C125.489 5.94031 121.358 8.83177 121.358 14.5837C121.358 20.182 124.996 23.2887 130.052 23.2887C133.597 23.2887 136.588 21.8737 138.006 18.8285L133.937 16.7369C133.197 18.0903 132.056 18.9517 130.237 18.9517C127.894 18.9517 126.383 17.2906 126.383 14.5837C126.383 11.8769 128.11 10.2467 130.206 10.2467C131.84 10.2467 133.073 10.9849 133.844 12.5844L138.006 10.4313ZM95.6139 22.8581L91.39 15.4142H88.1528V22.8581H82.9423V0.711182H92.3458C97.4328 0.711182 100.979 3.14126 100.979 7.90888C100.979 10.9541 99.4677 13.1073 96.7855 14.43L101.657 22.8581H95.6139ZM88.1836 11.0157H92.0683C94.4732 11.0157 95.6447 9.66224 95.6447 8.06275C95.6447 6.15564 94.5348 5.10983 92.0683 5.10983H88.1836V11.0157ZM46.007 22.5812V19.1054C45.7912 19.1669 45.4829 19.2285 45.1437 19.2285C44.4962 19.2285 44.1571 18.8901 44.1571 18.3057V12.5536C44.1571 8.24724 41.259 5.97104 36.4802 5.97104C33.3664 5.97104 30.7149 7.10914 29.05 8.5856L31.8557 11.7231C32.9655 10.7388 34.4454 10.1236 35.8945 10.1236C38.1142 10.1236 39.1626 11.231 39.1626 13.0458V13.5687C38.1142 13.3226 36.7886 13.0766 35.1854 13.0766C31.1465 13.0766 28.5259 15.0144 28.5259 18.2134C28.5259 21.5047 30.7149 23.2272 34.1063 23.2272C36.4186 23.2272 38.4843 22.2737 39.5633 21.0433C40.2108 22.6735 41.629 23.1041 43.0164 23.1041C43.9722 23.1349 45.0821 22.9811 46.007 22.5812ZM39.1934 17.3829C39.1934 18.8901 37.7443 19.8744 36.0795 19.8744C34.5071 19.8744 33.7363 19.0747 33.7363 17.9673C33.7363 16.7985 34.5996 15.9372 36.3569 15.9372C37.4361 15.9372 38.3918 16.1218 39.1934 16.3063V17.3829ZM156.073 22.8581L150.123 12.5536L155.703 6.49399H150.092L144.203 13.015V0.742024H139.178V22.8888H144.203V18.8901L146.608 16.3371L150.369 22.8888H156.073V22.8581ZM81.6167 22.8581L75.6663 12.5536L81.2467 6.49399H75.5738L69.7468 13.015V0.742024H64.7214V22.8888H69.7468V18.8901L72.1516 16.3371L75.913 22.8888H81.6167V22.8581ZM159.156 19.7821C160.205 19.7821 160.821 20.428 160.821 21.4124C160.821 22.3967 160.205 23.0426 159.156 23.0426C158.108 23.0426 157.491 22.3967 157.491 21.4124C157.491 20.428 158.108 19.7821 159.156 19.7821ZM159.156 22.8274C159.989 22.8274 160.544 22.3351 160.544 21.4124C160.544 20.4896 159.958 19.9975 159.156 19.9975C158.324 19.9975 157.769 20.4896 157.769 21.4124C157.738 22.366 158.324 22.8274 159.156 22.8274ZM158.509 20.5819H159.187C159.588 20.5819 159.804 20.7972 159.804 21.1047C159.804 21.3816 159.68 21.5354 159.465 21.6277L159.773 22.2121H159.465L159.187 21.6893H158.817V22.2121H158.509V20.5819ZM158.817 20.8279V21.4124H159.156C159.372 21.4124 159.495 21.3509 159.495 21.1356C159.495 20.951 159.403 20.8587 159.187 20.8587H158.817V20.8279Z" fill="currentColor"/>
</svg>
