<svg width="100%" height="100%" viewBox="0 0 78 24" fill="none" xmlns="http://www.w3.org/2000/svg">
<g clip-path="url(#clip0_27181_2876)">
<path d="M54.4405 1.84214C54.4405 1.84214 52.9971 2.4131 51.3184 4.2516C49.6396 6.0901 48.6619 8.15747 49.3855 8.70728C49.6634 8.91626 50.3043 8.95606 51.4673 7.91118C52.5406 6.98524 53.3831 5.82451 53.9285 4.52028C54.6796 2.70044 54.4405 1.86453 54.4405 1.84463M63.628 5.1497C61.7627 4.19935 60.3994 3.03505 58.9811 2.31483C57.6278 1.62446 56.7527 1.33587 55.6586 1.48141C55.506 1.50844 55.3554 1.54585 55.2079 1.59336C55.2079 1.59336 55.7713 3.50525 53.5292 6.71703C51.2583 9.97358 49.1977 9.95119 48.6118 9.05682C47.9984 8.11269 48.7908 6.18836 50.1141 4.4755C51.4999 2.68427 53.9335 1.19904 53.9335 1.19904C53.9335 1.19904 53.1574 0.7276 51.252 1.80109C49.393 2.84349 46.1932 5.33131 43.2238 9.52702C40.2543 13.7227 39.666 16.0314 39.2403 17.8488C38.8147 19.6661 39.2015 21.6128 41.2295 21.6128C43.2576 21.6128 45.6186 18.5391 46.2846 17.4706C47.5227 15.4804 48.3301 12.4278 46.6451 12.847C45.8151 13.0535 45.1429 13.9665 44.7185 14.846C44.4506 15.4108 44.2457 16.0032 44.1076 16.6123C43.5188 16.8535 42.9658 17.1732 42.4639 17.5627C41.9055 17.9736 41.3837 18.4314 40.9041 18.931C40.9041 18.931 40.9116 17.4781 42.0771 15.1271C43.2425 12.7761 45.382 11.7026 46.5938 11.6019C47.6854 11.5148 49.1063 12.4353 47.902 15.8312C46.6977 19.227 43.1449 23.3556 39.4131 23.4066C35.9692 23.4538 33.7158 19.0865 38.5092 11.465C43.8147 3.045 50.0377 0.461403 52.0582 0.17406C54.0787 -0.113284 54.736 0.77238 54.736 0.77238C55.9522 0.276564 57.2659 0.0613583 58.5779 0.142962C61.0454 0.308402 62.9532 2.04366 65.472 3.26269C64.8173 3.88464 64.1926 4.5377 63.6292 5.1497M74.7133 2.31483C73.0032 3.40449 70.6372 4.39216 68.3638 4.18069C67.788 4.77155 67.172 5.4557 66.5549 6.20205C70.497 6.977 73.9509 4.55014 75.7874 2.484C76.4569 1.74115 77.0321 0.919408 77.5 0.0372295C76.6639 0.902551 75.7281 1.66702 74.712 2.31483M69.463 13.3508C69.4928 13.2991 69.5172 13.2445 69.5356 13.1878C69.5239 13.0981 69.4816 13.0151 69.4157 12.9527C69.3499 12.8902 69.2645 12.852 69.1738 12.8445C68.7982 12.8271 68.2862 12.898 66.9429 14.3758C65.8286 15.5961 64.8696 16.948 64.0874 18.4011C63.3188 19.7967 63.0071 20.8366 63.449 21.1053C63.5925 21.1792 63.759 21.1961 63.9147 21.1526C64.2139 21.0817 64.5531 20.8031 65.0689 20.2097C65.3105 19.9311 65.5784 19.5368 65.8989 19.1002C66.7877 17.8985 69.0211 14.1158 69.463 13.3508ZM55.5096 14.9579C55.7337 14.3758 56.0191 13.2326 55.4257 12.7836C54.7885 12.3072 53.1636 13.4254 53.1548 14.5723C53.1436 15.7466 54.2991 16.2777 54.5757 16.3524C54.7335 16.3946 54.7885 16.3884 54.8649 16.2628C55.11 15.8432 55.3254 15.4072 55.5096 14.9579ZM54.2803 17.0937C53.8776 16.909 53.502 16.6709 53.1636 16.3859C52.8243 16.1031 52.5408 15.7602 52.3274 15.3746C52.3048 15.3373 52.2823 15.3659 52.2573 15.3995C52.2322 15.4331 52.1321 15.5239 51.2658 16.7852C50.3995 18.0466 49.0687 20.66 50.273 21.1053C51.0442 21.3902 52.3274 20.048 53.0272 19.1586C53.5039 18.5378 53.9361 17.8844 54.3203 17.2032C54.3566 17.1273 54.3203 17.1099 54.2815 17.0937M67.9419 20.1127C67.6152 20.6326 67.2421 21.6303 68.3175 21.0096C69.6332 20.2545 71.5073 17.4296 71.5073 17.4296H72.3573C71.5838 18.6113 70.7227 19.7339 69.7809 20.7881C68.4477 22.256 66.8215 23.5894 65.6761 23.4576C64.3378 23.3021 64.7572 21.5569 64.7572 21.5569C64.7572 21.5569 62.8431 23.582 61.5186 23.4364C59.7297 23.2399 60.2755 21.0431 60.2755 21.0431C60.2755 21.0431 58.2525 23.5098 56.8742 23.4339C54.7134 23.3095 55.2567 20.6973 55.8576 18.8576C56.1794 17.8737 56.4773 17.1012 56.4773 17.1012C56.4773 17.1012 56.2632 17.1572 55.8026 17.2256C55.5622 17.2592 55.124 17.284 55.124 17.284C55.124 17.284 54.2239 18.8613 53.5041 19.8092C52.7843 20.757 49.7247 24.0248 47.9245 23.3705C46.2596 22.766 46.8104 20.2334 47.7793 18.2207C49.1939 15.2863 53.1724 11.0707 55.4671 11.628C57.8456 12.2014 55.5209 16.5141 55.5209 16.5141C55.5209 16.5141 55.5209 16.5302 55.5459 16.5414C55.5935 16.5588 55.7174 16.5725 56.0041 16.5166C56.3012 16.4563 56.5923 16.3702 56.8742 16.2591C56.8742 16.2591 59.2652 11.2834 61.9067 8.02811C64.5481 4.77279 69.8172 -0.833508 71.8853 0.522354C72.3861 0.855722 72.1607 2.00385 71.4797 3.39703C71.173 3.49603 70.8613 3.57907 70.5458 3.64581C71.0015 2.82359 71.3032 2.13073 71.3933 1.64685C71.7051 -0.0349174 67.7529 3.51271 64.9287 7.32405C63.2275 9.62175 61.7162 12.0524 60.4094 14.5922C60.9196 14.283 61.4066 13.9376 61.8666 13.5585C63.1264 12.5206 64.3236 11.41 65.452 10.2323C66.5386 9.12697 67.5577 7.9581 68.504 6.73195C68.8047 6.71751 69.1043 6.68678 69.4016 6.6399C68.3699 8.03137 67.2448 9.35209 66.0341 10.5931C64.9074 11.725 63.6881 12.9428 62.629 13.8272C61.683 14.6266 60.6852 15.3633 59.642 16.0327C59.642 16.0327 57.1721 20.9822 58.5154 21.2994C59.3053 21.4885 60.8651 19.1014 60.8651 19.1014C60.8651 19.1014 62.9007 16.0153 64.1275 14.6233C65.8012 12.7326 67.2421 11.6379 68.6818 11.618C69.5205 11.6031 70.015 12.4888 70.015 12.4888L70.4094 11.8817H72.838C72.838 11.8817 68.3025 19.5293 67.9394 20.1052M74.712 2.31483C73.002 3.40449 70.636 4.39216 68.3626 4.18069C67.7867 4.77155 67.1708 5.4557 66.5536 6.20205C70.4958 6.977 73.9497 4.55014 75.7862 2.484C76.4561 1.74122 77.0317 0.919474 77.5 0.0372295C76.6639 0.902551 75.7281 1.66702 74.712 2.31483ZM40.6049 6.06646H38.2952L36.9895 8.16245H39.2992L40.6049 6.06646ZM29.6685 13.3247C30.6512 11.9862 33.3628 7.29545 33.3628 7.29545C33.3514 7.20585 33.3093 7.12286 33.2437 7.06037C33.1781 6.99788 33.0928 6.95967 33.0023 6.95213C32.6267 6.93471 32.0008 7.06035 30.7577 8.60653C29.5145 10.1527 28.5494 11.3829 27.8458 12.6629C27.0747 14.0598 26.7379 15.045 27.1811 15.3124C27.3249 15.384 27.4901 15.4009 27.6455 15.3597C27.9334 15.2876 28.3102 15.0002 28.8273 14.4094C29.0701 14.1332 29.3455 13.7613 29.6685 13.3247ZM17.275 6.98074C16.6366 6.50183 15.0129 7.62259 15.0041 8.76699C14.9941 9.94249 16.4651 10.302 16.6553 10.3107C16.7113 10.3153 16.7674 10.3036 16.8168 10.2771C16.8508 10.2574 16.8779 10.2279 16.8944 10.1925C17.0674 9.85483 17.2228 9.50856 17.3601 9.15509C17.5842 8.57294 17.8684 7.42979 17.275 6.98074ZM16.3123 11.0272C15.8721 10.8905 15.4514 10.6982 15.0605 10.455C14.6817 10.2096 14.3736 9.87051 14.1666 9.47104C14.1441 9.43373 14.1191 9.46234 14.0965 9.49592C14.074 9.52951 13.9438 9.69121 13.075 10.9575C12.2062 12.2238 10.9193 14.8136 12.1248 15.259C12.8935 15.5488 14.1917 14.1954 14.8965 13.3097C15.4239 12.6137 15.9112 11.8886 16.3561 11.1379C16.3849 11.062 16.3561 11.0446 16.3136 11.0309M35.1768 11.8071H36.023C36.023 11.8071 31.7829 17.9023 29.3881 17.6187C28.0511 17.4632 28.448 15.8237 28.448 15.8237C28.448 15.8237 26.5701 18.008 24.8451 17.5652C23.2802 17.1659 24.2905 14.5798 24.2905 14.5798C24.1127 14.6507 20.7264 18.4434 18.3466 17.5341C15.8566 16.5787 17.1498 13.403 17.623 12.4477C18.0249 11.6429 18.4693 10.8592 18.4693 10.8592C18.4693 10.8592 18.0875 10.9662 17.8434 11.021C17.5992 11.0757 17.2462 11.1453 17.2462 11.1453C17.2462 11.1453 16.0682 13.0473 15.3484 13.9964C14.6286 14.9455 11.569 18.207 9.7663 17.5577C7.96361 16.9084 8.41053 14.4019 9.42329 12.4116C11.0657 9.1837 14.9628 5.21687 17.3101 5.81892C19.6811 6.41973 17.7182 10.241 17.7182 10.241C17.7182 10.241 18.1901 10.302 19.3206 9.53573C20.948 8.43238 23.0962 5.46441 25.4222 5.8127C26.5188 5.9769 27.5403 7.0902 26.1433 9.20485C25.6976 9.88402 24.9502 10.491 24.3781 9.89024C24.0213 9.51707 24.3331 8.83665 24.7074 8.37143C24.8531 8.18178 25.0434 8.03063 25.2617 7.93129C25.48 7.83194 25.7196 7.78745 25.9592 7.80172C25.9592 7.80172 26.3436 6.93098 25.3659 6.94342C24.5747 6.95835 22.5717 8.79062 21.4412 10.6416C20.4047 12.3407 18.8336 15.2353 20.4109 15.866C21.8569 16.4456 24.6085 13.2003 25.8829 11.4999C27.1573 9.79943 30.0616 5.9458 32.4978 5.79156C33.3365 5.73683 33.836 6.49685 33.836 6.49685L34.1177 6.05402H36.5538C36.5538 6.05402 31.9657 13.6618 31.6077 14.2377C31.326 14.688 30.9517 15.7005 31.9832 15.1333C33.0148 14.5661 35.1768 11.8071 35.1768 11.8071ZM33.851 23.9974C32.0573 22.7636 29.9094 22.1408 27.7294 22.2224C27.1393 22.2384 26.5614 22.3923 26.0424 22.6718C25.5234 22.9512 25.0781 23.3483 24.7424 23.8307C23.8135 22.2199 21.977 21.231 19.1378 21.2534C14.5497 21.3056 9.99915 23.4078 6.39376 23.4053C2.9386 23.4053 0.418591 21.2471 0.499962 17.4147C0.651439 10.6888 6.37123 4.63223 10.6401 1.90683C13.1013 0.340744 15.1594 -0.124479 16.5051 0.0260343C17.4866 0.134255 18.6671 1.26124 17.9222 2.92186C16.8281 5.34873 15.3171 5.1497 15.3734 3.98913C15.4047 3.23408 15.9105 2.7589 16.291 2.49644C16.5327 2.331 16.9595 2.28373 17.1824 2.27876C17.399 2.09714 17.5579 0.768649 15.8053 1.20526C14.0527 1.64187 11.9245 3.35847 9.90401 5.57636C7.88349 7.79425 4.73754 11.9862 3.96013 16.3884C3.59709 18.4297 3.83494 22.1527 8.70597 22.1104C12.8371 22.0768 18.9262 19.3738 24.5221 19.4298C26.6941 19.4509 28.5844 20.0331 30.0579 20.9362C31.505 21.8218 33.2401 23.1155 33.856 23.9987" fill="currentColor"/>
</g>
<defs>
<clipPath id="clip0_27181_2876">
<rect width="77" height="24" fill="white" transform="translate(0.5)"/>
</clipPath>
</defs>
</svg>
