<svg width="100%" height="100%" viewBox="0 0 107 24" fill="none" xmlns="http://www.w3.org/2000/svg">
<path d="M49.7423 23.8845H28.59V8.34937H49.7423V23.8845ZM38.8956 21.075H38.0822L38.7404 21.5593L38.4884 22.3337L39.1476 21.8503L39.7863 22.3337L39.5343 21.5593L40.1935 21.075H39.38L39.1476 20.3005L38.8956 21.075ZM36.2804 20.3777H35.4669L36.1251 20.8816L35.8741 21.656L36.5128 21.1716L37.172 21.656L36.92 20.8816L37.5587 20.3777H36.7648L36.5128 19.6218L36.2804 20.3777ZM41.4718 20.3777H40.6583L41.3165 20.8621L41.0646 21.6365L41.7042 21.1716L42.3624 21.6365L42.1115 20.8621L42.7697 20.3777H41.9562L41.7042 19.6218L41.4718 20.3777ZM34.382 18.4988H33.588L34.2462 19.0027L33.9952 19.7771L34.6339 19.2927L35.2921 19.7771L35.0411 19.0027L35.6798 18.4988H34.8663L34.6339 17.7439L34.382 18.4988ZM43.3702 18.4988H42.5568L43.215 18.9832L42.963 19.7576L43.6222 19.2927L44.2609 19.7576L44.0089 18.9832L44.6681 18.4988H43.8546L43.6222 17.7439L43.3702 18.4988ZM33.7042 15.8455H32.8907L33.549 16.3484L33.297 17.1238L33.9562 16.6394L34.5948 17.1238L34.3439 16.3484L35.0021 15.8455H34.1886L33.9562 15.0896L33.7042 15.8455ZM44.087 15.8455H43.2736L43.9318 16.3289L43.6798 17.1042L44.338 16.6394L44.9777 17.1042L44.7257 16.3289L45.3849 15.8455H44.5704L44.338 15.0896L44.087 15.8455ZM34.382 13.2878H33.588L34.2462 13.7722L33.9952 14.5476L34.6339 14.0632L35.2921 14.5476L35.0411 13.7722L35.6798 13.2878H34.8663L34.6339 12.533L34.382 13.2878ZM43.3702 13.2693H42.5568L43.215 13.7722L42.963 14.5476L43.6222 14.0632L44.2609 14.5476L44.0089 13.7722L44.6681 13.2693H43.8546L43.6222 12.5134L43.3702 13.2693ZM36.2413 11.3708H35.4279L36.087 11.8748L35.8351 12.6492L36.4933 12.1648L37.1329 12.6492L36.881 11.8748L37.5392 11.3708H36.7257L36.4933 10.615L36.2413 11.3708ZM41.4718 11.3708H40.6583L41.3165 11.8552L41.0646 12.6296L41.7042 12.1648L42.3624 12.6296L42.1115 11.8552L42.7697 11.3708H41.9562L41.7042 10.615L41.4718 11.3708ZM38.8566 10.6736H38.0626L38.7208 11.1765L38.4698 11.99L39.1085 11.4871L39.7667 11.99L39.5157 11.1765L40.1544 10.6736H39.3409L39.1085 9.89819L38.8566 10.6736Z" fill="currentColor"/>
<path d="M49.7427 2.18921V4.90104C44.629 3.29331 39.7283 2.47976 35.0795 2.47976C27.5251 2.47976 20.668 4.62986 14.6633 8.85256C9.627 12.3973 5.17185 17.4529 1.39466 23.9032H0C7.9999 8.44579 20.6099 0.000372545 35.893 0.000372545C40.3869 -0.0189977 45.0164 0.717071 49.7427 2.18921Z" fill="currentColor"/>
<path d="M28.0288 9.82104V10.5765H15.3994C15.5156 10.499 15.6125 10.4215 15.7287 10.344C15.8837 10.2472 16.0193 10.131 16.1742 10.0341C16.2904 9.95664 16.4067 9.89853 16.5229 9.84042H28.0288V9.82104Z" fill="currentColor"/>
<path d="M12.6681 12.7847H28.0287V13.5401H11.8352L12.6681 12.7847Z" fill="currentColor"/>
<path d="M9.60765 15.7677H28.0287V16.5231H8.92969L9.60765 15.7677Z" fill="currentColor"/>
<path d="M7.12823 18.6926H28.0287V19.4481H6.54712L7.12823 18.6926Z" fill="currentColor"/>
<path d="M28.0287 21.637V22.3924H4.4939C4.64886 22.1406 4.82319 21.8888 4.99752 21.637H28.0287Z" fill="currentColor"/>
<path d="M58.13 14.9154H56.3285V16.3294H58.343V17.0461H55.4375V12.2423H58.2268V12.959H56.3092V14.1987H58.1106V14.9154H58.13Z" fill="currentColor"/>
<path d="M62.1203 16.0194C62.1203 16.4262 62.1397 16.7749 62.1397 17.0654H61.3842L61.3455 16.5424H61.3261C61.1712 16.7749 60.8419 17.1429 60.2027 17.1429C59.5634 17.1429 59.0017 16.7749 59.0017 15.632V13.5981H59.8734V15.4771C59.8734 16.0582 60.0671 16.4262 60.5126 16.4262C60.8612 16.4262 61.0937 16.1938 61.1905 15.9613C61.2293 15.8838 61.2487 15.787 61.2487 15.6901V13.5981H62.1203V16.0194Z" fill="currentColor"/>
<path d="M63.0694 14.7022C63.0694 14.2373 63.0694 13.8886 63.05 13.5787H63.8055L63.8442 14.2373H63.8636C64.0379 13.753 64.4447 13.5012 64.8127 13.5012C64.8902 13.5012 64.9483 13.5012 65.0258 13.5206V14.3341C64.9483 14.3148 64.8709 14.3148 64.7546 14.3148C64.3479 14.3148 64.0573 14.586 63.9798 14.9734C63.9605 15.0508 63.9605 15.1477 63.9605 15.2445V17.046H63.0694V14.7022Z" fill="currentColor"/>
<path d="M67.0404 17.1235C66.0719 17.1235 65.2971 16.4455 65.2971 15.3414C65.2971 14.1985 66.0526 13.5012 67.0985 13.5012C68.1252 13.5012 68.8225 14.2179 68.8225 15.2833C68.8225 16.5617 67.9315 17.1235 67.0404 17.1235ZM67.0792 16.4842C67.5828 16.4842 67.9315 16 67.9315 15.3027C67.9315 14.7603 67.699 14.1404 67.0985 14.1404C66.4787 14.1404 66.2269 14.7409 66.2269 15.322C66.2075 15.9806 66.5562 16.4842 67.0792 16.4842Z" fill="currentColor"/>
<path d="M69.5389 14.7409C69.5389 14.276 69.5195 13.908 69.5195 13.5787H70.2943L70.3331 14.1211H70.3524C70.6043 13.7337 71.011 13.5012 71.534 13.5012C72.3282 13.5012 72.9868 14.1792 72.9868 15.2639C72.9868 16.523 72.1926 17.1235 71.3984 17.1235C70.9723 17.1235 70.6043 16.9298 70.4299 16.6586H70.4106V18.46H69.5389V14.7409ZM70.4106 15.5932C70.4106 15.6707 70.4106 15.7482 70.4299 15.8256C70.5268 16.1743 70.8367 16.4455 71.2047 16.4455C71.7665 16.4455 72.0958 15.9806 72.0958 15.3027C72.0958 14.6828 71.8052 14.1985 71.2435 14.1985C70.8755 14.1985 70.5462 14.4697 70.4493 14.8378C70.4299 14.9152 70.4299 14.9927 70.4299 15.0508V15.5932H70.4106Z" fill="currentColor"/>
<path d="M74.3235 15.5545C74.3429 16.1743 74.8272 16.4455 75.3889 16.4455C75.7957 16.4455 76.0862 16.3874 76.3574 16.2905L76.493 16.891C76.2025 17.0266 75.7763 17.1041 75.2921 17.1041C74.1686 17.1041 73.51 16.4068 73.51 15.3608C73.51 14.3923 74.0911 13.5012 75.1952 13.5012C76.3187 13.5012 76.6867 14.431 76.6867 15.1864C76.6867 15.3414 76.6674 15.477 76.6674 15.5545H74.3235ZM75.8538 14.954C75.8538 14.6247 75.7182 14.1017 75.1371 14.1017C74.5947 14.1017 74.3623 14.586 74.3235 14.954H75.8538Z" fill="currentColor"/>
<path d="M80.0765 16.2131C80.0765 16.523 80.0959 16.8329 80.1346 17.046H79.3404L79.2823 16.6586H79.263C79.0499 16.9298 78.7012 17.1235 78.2363 17.1235C77.539 17.1235 77.1516 16.6198 77.1516 16.0968C77.1516 15.2252 77.9264 14.7797 79.2049 14.7797V14.7215C79.2049 14.4891 79.108 14.1211 78.5075 14.1211C78.1589 14.1211 77.8102 14.2373 77.5778 14.3729L77.4034 13.8111C77.6552 13.6562 78.1007 13.5012 78.6625 13.5012C79.7666 13.5012 80.0959 14.1985 80.0959 14.9734V16.2131H80.0765ZM79.2242 15.3608C78.6044 15.3608 78.0233 15.477 78.0233 16C78.0233 16.3486 78.2363 16.5036 78.5269 16.5036C78.8756 16.5036 79.1274 16.2712 79.2242 16.0193C79.2436 15.9612 79.2436 15.8838 79.2436 15.8256V15.3608H79.2242Z" fill="currentColor"/>
<path d="M80.9869 14.6053C80.9869 14.1986 80.9675 13.8693 80.9675 13.5787H81.723L81.7617 14.1017H81.7811C81.936 13.8305 82.3234 13.5012 82.8852 13.5012C83.4857 13.5012 84.1249 13.8886 84.1249 14.9927V17.046H83.2532V15.0896C83.2532 14.586 83.0595 14.2179 82.5946 14.2179C82.246 14.2179 82.0135 14.4697 81.9167 14.7215C81.8973 14.799 81.8779 14.8959 81.8779 14.9927V17.0266H81.0063V14.6053H80.9869Z" fill="currentColor"/>
<path d="M56.3287 19.1187V23.9225H55.457V19.1187H56.3287Z" fill="currentColor"/>
<path d="M57.3358 21.4819C57.3358 21.0751 57.3164 20.7458 57.3164 20.4553H58.0718L58.1106 20.9783H58.13C58.2849 20.7071 58.6723 20.3778 59.2341 20.3778C59.8345 20.3778 60.4738 20.7652 60.4738 21.8693V23.9226H59.6021V21.9662C59.6021 21.4625 59.4084 21.0945 58.9435 21.0945C58.5948 21.0945 58.3624 21.3463 58.2656 21.5981C58.2462 21.6756 58.2268 21.7725 58.2268 21.8693V23.9032H57.3551V21.4819H57.3358Z" fill="currentColor"/>
<path d="M61.849 20.4552L62.4108 22.2179C62.5076 22.5278 62.5851 22.799 62.6432 23.0895H62.6626C62.7207 22.799 62.7982 22.5278 62.895 22.2179L63.4568 20.4552H64.3672L63.05 23.9225H62.1977L60.8999 20.4552H61.849Z" fill="currentColor"/>
<path d="M65.4327 22.4311C65.4521 23.0509 65.9363 23.3221 66.4981 23.3221C66.9048 23.3221 67.1954 23.264 67.4666 23.1671L67.6022 23.7676C67.3116 23.9032 66.8855 23.9807 66.4012 23.9807C65.2777 23.9807 64.6191 23.2833 64.6191 22.2374C64.6191 21.2688 65.2002 20.3778 66.3044 20.3778C67.4278 20.3778 67.7959 21.3076 67.7959 22.063C67.7959 22.218 67.7765 22.3536 67.7765 22.4311H65.4327ZM66.9436 21.8112C66.9436 21.4819 66.808 20.9589 66.2269 20.9589C65.6845 20.9589 65.4521 21.4432 65.4133 21.8112H66.9436Z" fill="currentColor"/>
<path d="M68.4544 23.109C68.6481 23.2252 69.0162 23.3608 69.3455 23.3608C69.7329 23.3608 69.9072 23.2059 69.9072 22.9734C69.9072 22.741 69.7716 22.6248 69.3455 22.4698C68.6675 22.2374 68.3963 21.8693 68.3963 21.4625C68.3963 20.8427 68.9 20.3778 69.7135 20.3778C70.1009 20.3778 70.4302 20.4747 70.6433 20.5909L70.4689 21.2107C70.3334 21.1332 70.0428 21.017 69.7329 21.017C69.4229 21.017 69.2486 21.172 69.2486 21.3851C69.2486 21.5981 69.4036 21.7144 69.8491 21.8693C70.4883 22.0824 70.7595 22.4117 70.7789 22.9153C70.7789 23.5545 70.2946 24 69.3648 24C68.9387 24 68.5707 23.9032 68.3188 23.7676L68.4544 23.109Z" fill="currentColor"/>
<path d="M72.464 19.5643V20.4554H73.2969V21.114H72.464V22.6442C72.464 23.0703 72.5802 23.2834 72.9095 23.2834C73.0645 23.2834 73.1419 23.2834 73.2582 23.2447L73.2775 23.9033C73.142 23.9614 72.9095 24.0001 72.6383 24.0001C72.309 24.0001 72.0572 23.8839 71.8829 23.7096C71.6892 23.5159 71.6117 23.1866 71.6117 22.741V21.114H71.1274V20.4554H71.6117V19.8161L72.464 19.5643Z" fill="currentColor"/>
<path d="M73.9554 21.4819C73.9554 21.0751 73.936 20.7458 73.936 20.4553H74.6915L74.7302 20.9589H74.7496C74.9045 20.6877 75.2338 20.3778 75.8149 20.3778C76.2798 20.3778 76.6285 20.6296 76.7835 21.017H76.8028C76.9191 20.8233 77.074 20.6877 77.229 20.5909C77.4227 20.4553 77.6551 20.3778 77.9457 20.3778C78.5074 20.3778 79.1079 20.7652 79.1079 21.8887V23.9226H78.2556V22.0049C78.2556 21.4238 78.0619 21.0945 77.6358 21.0945C77.3452 21.0945 77.1128 21.3076 77.0159 21.5594C76.9965 21.6369 76.9772 21.7531 76.9772 21.8499V23.9226H76.1249V21.9081C76.1249 21.4238 75.9312 21.0751 75.5244 21.0751C75.1951 21.0751 74.982 21.3269 74.8852 21.5594C74.8658 21.6562 74.8464 21.7531 74.8464 21.8499V23.9032H73.9942V21.4819H73.9554Z" fill="currentColor"/>
<path d="M80.5994 22.4311C80.6188 23.0509 81.1031 23.3221 81.6648 23.3221C82.0716 23.3221 82.3621 23.264 82.6333 23.1671L82.7689 23.7676C82.4784 23.9032 82.0522 23.9807 81.568 23.9807C80.4445 23.9807 79.7859 23.2833 79.7859 22.2374C79.7859 21.2688 80.367 20.3778 81.4711 20.3778C82.5946 20.3778 82.9626 21.3076 82.9626 22.063C82.9626 22.218 82.9432 22.3536 82.9432 22.4311H80.5994ZM82.1297 21.8112C82.1297 21.4819 81.9941 20.9589 81.413 20.9589C80.8706 20.9589 80.6382 21.4432 80.5994 21.8112H82.1297Z" fill="currentColor"/>
<path d="M83.6597 21.4819C83.6597 21.0751 83.6404 20.7458 83.6404 20.4553H84.3958L84.4346 20.9783H84.4539C84.6089 20.7071 84.9963 20.3778 85.558 20.3778C86.1585 20.3778 86.7977 20.7652 86.7977 21.8693V23.9226H85.9261V21.9662C85.9261 21.4625 85.7324 21.0945 85.2675 21.0945C84.9188 21.0945 84.6864 21.3463 84.5895 21.5981C84.5701 21.6756 84.5508 21.7725 84.5508 21.8693V23.9032H83.6791V21.4819H83.6597Z" fill="currentColor"/>
<path d="M88.6962 19.5643V20.4554H89.5291V21.114H88.6962V22.6442C88.6962 23.0703 88.8124 23.2834 89.1417 23.2834C89.2966 23.2834 89.3741 23.2834 89.4903 23.2447L89.5097 23.9033C89.3741 23.9614 89.1417 24.0001 88.8705 24.0001C88.5412 24.0001 88.2894 23.8839 88.1151 23.7096C87.9213 23.5159 87.8439 23.1866 87.8439 22.741V21.114H87.3596V20.4554H87.8439V19.8161L88.6962 19.5643Z" fill="currentColor"/>
<path d="M91.6987 19.1769C91.9699 19.1188 92.4735 19.0607 92.9772 19.0607C93.6164 19.0607 94.0232 19.1381 94.3525 19.3706C94.643 19.5449 94.8561 19.8548 94.8561 20.281C94.8561 20.7265 94.5849 21.1139 94.0619 21.3076V21.327C94.5655 21.4626 95.0304 21.85 95.0304 22.5086C95.0304 22.9347 94.8367 23.264 94.5655 23.4964C94.2169 23.787 93.6551 23.942 92.7835 23.942C92.2992 23.942 91.9312 23.9032 91.7181 23.8839V19.1769H91.6987ZM92.5704 21.0752H93.0159C93.6358 21.0752 93.965 20.7846 93.965 20.3778C93.965 19.913 93.6164 19.7193 93.074 19.7193C92.8222 19.7193 92.6672 19.7386 92.5704 19.758V21.0752ZM92.5704 23.2834C92.6866 23.3027 92.8416 23.3027 93.0353 23.3027C93.597 23.3027 94.1006 23.0897 94.1006 22.4892C94.1006 21.9275 93.6164 21.7144 92.9965 21.7144H92.5704V23.2834Z" fill="currentColor"/>
<path d="M98.4588 23.0702C98.4588 23.3802 98.4782 23.6901 98.517 23.9032H97.7228L97.6647 23.5157H97.6453C97.4322 23.7869 97.0836 23.9806 96.6187 23.9806C95.9213 23.9806 95.5339 23.477 95.5339 22.954C95.5339 22.0824 96.3088 21.6368 97.5872 21.6368V21.5787C97.5872 21.3463 97.4903 20.9782 96.8899 20.9782C96.5412 20.9782 96.1925 21.0945 95.9601 21.2301L95.7858 20.6683C96.0376 20.5134 96.4831 20.3584 97.0448 20.3584C98.1489 20.3584 98.4782 21.0557 98.4782 21.8305V23.0702H98.4588ZM97.6066 22.2179C96.9867 22.2179 96.4056 22.3342 96.4056 22.8572C96.4056 23.2058 96.6187 23.3608 96.9092 23.3608C97.2579 23.3608 97.5097 23.1283 97.6066 22.8765C97.6259 22.8184 97.6259 22.7409 97.6259 22.6828V22.2179H97.6066Z" fill="currentColor"/>
<path d="M99.3888 21.4819C99.3888 21.0751 99.3694 20.7458 99.3694 20.4553H100.125L100.164 20.9783H100.183C100.338 20.7071 100.725 20.3778 101.287 20.3778C101.888 20.3778 102.527 20.7652 102.527 21.8693V23.9226H101.655V21.9662C101.655 21.4625 101.461 21.0945 100.996 21.0945C100.648 21.0945 100.415 21.3463 100.319 21.5981C100.299 21.6756 100.28 21.7725 100.28 21.8693V23.9032H99.4081V21.4819H99.3888Z" fill="currentColor"/>
<path d="M104.328 21.9661C104.425 21.8305 104.522 21.6756 104.618 21.5594L105.471 20.4359H106.517L105.219 21.8499L106.691 23.9032H105.626L104.638 22.3729L104.347 22.7216V23.9032H103.476V18.8475H104.347V21.9661H104.328Z" fill="currentColor"/>
</svg>