<svg width="100%" height="100%" viewBox="0 0 90 24" fill="none" xmlns="http://www.w3.org/2000/svg">
<path d="M38.2273 8.5127H23.0936V19.6274H38.2273V8.5127Z" fill="#003399"/>
<path d="M30.7853 10.1757H31.3673L30.91 10.536L31.0902 11.1181L30.619 10.7578L30.1616 11.1181L30.3418 10.536L29.8706 10.1757H30.4388L30.619 9.62134L30.7853 10.1757Z" fill="#FFDE00"/>
<path d="M30.8129 17.6178H31.395L30.9238 17.9643L31.104 18.5186L30.6466 18.1722L30.1754 18.5186L30.3556 17.9643L29.8844 17.6178H30.4665L30.6466 17.0635L30.8129 17.6178Z" fill="#FFDE00"/>
<path d="M32.6562 17.1189H33.2383L32.7671 17.4653L32.9472 18.0197L32.476 17.6871L32.0187 18.0197L32.1989 17.4653L31.7277 17.1189H32.3097L32.476 16.5784L32.6562 17.1189Z" fill="#FFDE00"/>
<path d="M32.6562 10.6746H33.2383L32.7671 11.0211L32.9472 11.5755L32.476 11.2429L32.0187 11.5755L32.1989 11.0211L31.7277 10.6746H32.3097L32.476 10.1342L32.6562 10.6746Z" fill="#FFDE00"/>
<path d="M34.0142 12.0328H34.5963L34.1251 12.3931L34.3053 12.9475L33.8479 12.601L33.3767 12.9475L33.5569 12.3931L33.0857 12.0328H33.6678L33.8479 11.4923L34.0142 12.0328Z" fill="#FFDE00"/>
<path d="M34.0142 15.7746H34.5963L34.1251 16.1211L34.3053 16.6754L33.8479 16.3428L33.3767 16.6754L33.5569 16.1211L33.0857 15.7746H33.6678L33.8479 15.2341L34.0142 15.7746Z" fill="#FFDE00"/>
<path d="M34.5272 13.8759H35.1092L34.638 14.2224L34.8182 14.7768L34.3609 14.4441L33.8897 14.7768L34.0698 14.2224L33.5986 13.8759H34.1807L34.3609 13.3354L34.5272 13.8759Z" fill="#FFDE00"/>
<path d="M28.9143 10.6746H29.4963L29.0251 11.035L29.2053 11.5893L28.7479 11.2429L28.2768 11.5893L28.4569 11.035L27.9857 10.6746H28.5678L28.7479 10.1342L28.9143 10.6746Z" fill="#FFDE00"/>
<path d="M27.5839 12.0466H28.1659L27.7086 12.3931L27.8888 12.9474L27.4176 12.6009L26.9602 12.9474L27.1404 12.3931L26.6692 12.0466H27.2374L27.4176 11.5061L27.5839 12.0466Z" fill="#FFDE00"/>
<path d="M27.0988 13.8759H27.6809L27.2097 14.2363L27.3899 14.7906L26.9325 14.4441L26.4613 14.7906L26.6415 14.2363L26.1703 13.8759H26.7524L26.9325 13.3354L27.0988 13.8759Z" fill="#FFDE00"/>
<path d="M27.5839 15.7746H28.1659L27.7086 16.1349L27.8888 16.6893L27.4176 16.3428L26.9602 16.6893L27.1404 16.1349L26.6692 15.7746H27.2374L27.4176 15.2341L27.5839 15.7746Z" fill="#FFDE00"/>
<path d="M28.9421 17.1189H29.5103L29.053 17.4792L29.2331 18.0335L28.7619 17.6871L28.3046 18.0335L28.4847 17.4792L28.0135 17.1189H28.5956L28.7619 16.5784L28.9421 17.1189Z" fill="#FFDE00"/>
<path d="M38.2274 4.10561V6.04583C34.5687 4.89555 31.0624 4.31349 27.7363 4.31349C22.3314 4.31349 17.4254 5.8518 13.1292 8.873C9.52597 11.4091 6.33846 15.0263 3.63601 19.6412H2.63818C8.36183 8.58197 17.3839 2.53957 28.3184 2.53957C31.5336 2.52571 34.8458 3.05235 38.2274 4.10561Z" fill="#9D9D9C"/>
<path d="M22.6918 9.56592V10.1064H13.6559C13.739 10.051 13.8083 9.99554 13.8915 9.9401C14.0024 9.87081 14.0994 9.78766 14.2102 9.71836C14.2934 9.66293 14.3765 9.62135 14.4597 9.57978H22.6918V9.56592Z" fill="#9D9D9C"/>
<path d="M11.7018 11.6863H22.6917V12.2268H11.1058L11.7018 11.6863Z" fill="#9D9D9C"/>
<path d="M9.51215 13.8206H22.6918V14.361H9.0271L9.51215 13.8206Z" fill="#9D9D9C"/>
<path d="M7.73815 15.9132H22.6917V16.4537H7.32239L7.73815 15.9132Z" fill="#9D9D9C"/>
<path d="M22.6917 18.0198V18.5603H5.85339C5.96426 18.3801 6.08899 18.1999 6.21372 18.0198H22.6917Z" fill="#9D9D9C"/>
<path d="M44.2281 13.2107H42.9393V14.2224H44.3806V14.7352H42.3018V11.2982H44.2974V11.811H42.9254V12.6979H44.2143V13.2107H44.2281Z" fill="#003399"/>
<path d="M47.0831 14.0006C47.0831 14.2917 47.0969 14.5411 47.0969 14.749H46.5564L46.5287 14.3748H46.5149C46.404 14.5411 46.1684 14.8045 45.711 14.8045C45.2537 14.8045 44.8518 14.5411 44.8518 13.7235V12.2683H45.4754V13.6126C45.4754 14.0284 45.614 14.2917 45.9328 14.2917C46.1822 14.2917 46.3485 14.1254 46.4178 13.9591C46.4456 13.9036 46.4594 13.8343 46.4594 13.7651V12.2683H47.0831V14.0006Z" fill="#003399"/>
<path d="M47.7622 13.0582C47.7622 12.7256 47.7621 12.4762 47.7483 12.2544H48.2888L48.3165 12.7256H48.3304C48.4551 12.3791 48.7461 12.199 49.0094 12.199C49.0649 12.199 49.1064 12.199 49.1619 12.2128V12.7949C49.1064 12.781 49.051 12.781 48.9679 12.781C48.6768 12.781 48.4689 12.9751 48.4135 13.2522C48.3997 13.3077 48.3997 13.377 48.3997 13.4463V14.7351H47.7622V13.0582Z" fill="#003399"/>
<path d="M50.6032 14.7906C49.9103 14.7906 49.356 14.3055 49.356 13.5156C49.356 12.6979 49.8964 12.199 50.6448 12.199C51.3793 12.199 51.8782 12.7117 51.8782 13.474C51.8782 14.3887 51.2407 14.7906 50.6032 14.7906ZM50.631 14.3332C50.9913 14.3332 51.2407 13.9867 51.2407 13.4878C51.2407 13.0998 51.0744 12.6563 50.6448 12.6563C50.2013 12.6563 50.0212 13.0859 50.0212 13.5017C50.0073 13.9729 50.2568 14.3332 50.631 14.3332Z" fill="#003399"/>
<path d="M52.3908 13.0859C52.3908 12.7533 52.377 12.49 52.377 12.2544H52.9313L52.959 12.6425H52.9729C53.153 12.3653 53.4441 12.199 53.8183 12.199C54.3865 12.199 54.8577 12.684 54.8577 13.4601C54.8577 14.3609 54.2895 14.7906 53.7212 14.7906C53.4164 14.7906 53.153 14.652 53.0283 14.4579H53.0145V15.7468H52.3908V13.0859ZM53.0145 13.6957C53.0145 13.7512 53.0145 13.8066 53.0283 13.862C53.0976 14.1115 53.3193 14.3055 53.5827 14.3055C53.9846 14.3055 54.2202 13.9729 54.2202 13.4878C54.2202 13.0444 54.0123 12.6979 53.6104 12.6979C53.3471 12.6979 53.1115 12.8919 53.0422 13.1552C53.0283 13.2107 53.0283 13.2661 53.0283 13.3077V13.6957H53.0145Z" fill="#003399"/>
<path d="M55.814 13.668C55.8279 14.1115 56.1743 14.3055 56.5762 14.3055C56.8673 14.3055 57.0751 14.2639 57.2692 14.1946L57.3662 14.6242C57.1583 14.7213 56.8534 14.7767 56.5069 14.7767C55.7031 14.7767 55.2319 14.2778 55.2319 13.5294C55.2319 12.8365 55.6477 12.199 56.4376 12.199C57.2414 12.199 57.5048 12.8642 57.5048 13.4047C57.5048 13.5156 57.4909 13.6126 57.4909 13.668H55.814ZM56.9088 13.2384C56.9088 13.0028 56.8118 12.6286 56.3961 12.6286C56.008 12.6286 55.8417 12.9751 55.814 13.2384H56.9088Z" fill="#003399"/>
<path d="M59.9301 14.1392C59.9301 14.3609 59.9439 14.5827 59.9716 14.7351H59.4034L59.3619 14.4579H59.348C59.1956 14.652 58.9461 14.7906 58.6135 14.7906C58.1146 14.7906 57.8374 14.4302 57.8374 14.056C57.8374 13.4324 58.3917 13.1137 59.3064 13.1137V13.0721C59.3064 12.9058 59.2371 12.6425 58.8075 12.6425C58.5581 12.6425 58.3086 12.7256 58.1423 12.8226L58.0176 12.4207C58.1977 12.3098 58.5165 12.199 58.9184 12.199C59.7083 12.199 59.9439 12.6979 59.9439 13.2522V14.1392H59.9301ZM59.3203 13.5294C58.8768 13.5294 58.461 13.6126 58.461 13.9867C58.461 14.2362 58.6135 14.3471 58.8214 14.3471C59.0708 14.3471 59.251 14.1808 59.3203 14.0006C59.3341 13.959 59.3341 13.9036 59.3341 13.862V13.5294H59.3203Z" fill="#003399"/>
<path d="M60.5815 12.9889C60.5815 12.6979 60.5676 12.4623 60.5676 12.2544H61.1081L61.1358 12.6286H61.1497C61.2606 12.4346 61.5377 12.199 61.9396 12.199C62.3693 12.199 62.8266 12.4762 62.8266 13.2661V14.7351H62.203V13.3354C62.203 12.9751 62.0644 12.7117 61.7318 12.7117C61.4823 12.7117 61.316 12.8919 61.2467 13.0721C61.2328 13.1275 61.219 13.1968 61.219 13.2661V14.7213H60.5953V12.9889H60.5815Z" fill="#003399"/>
<path d="M42.9393 16.218V19.655H42.3157V16.218H42.9393Z" fill="#003399"/>
<path d="M43.6599 17.9088C43.6599 17.6178 43.646 17.3822 43.646 17.1743H44.1865L44.2142 17.5485H44.2281C44.3389 17.3545 44.6161 17.1189 45.018 17.1189C45.4476 17.1189 45.905 17.3961 45.905 18.186V19.655H45.2813V18.2553C45.2813 17.895 45.1427 17.6317 44.8101 17.6317C44.5607 17.6317 44.3944 17.8118 44.3251 17.992C44.3112 18.0474 44.2974 18.1167 44.2974 18.186V19.6412H43.6737V17.9088H43.6599Z" fill="#003399"/>
<path d="M46.889 17.1743L47.2909 18.4355C47.3602 18.6572 47.4157 18.8512 47.4572 19.0591H47.4711C47.5127 18.8512 47.5681 18.6572 47.6374 18.4355L48.0393 17.1743H48.6907L47.7483 19.655H47.1385L46.21 17.1743H46.889Z" fill="#003399"/>
<path d="M49.4529 18.5879C49.4668 19.0314 49.8132 19.2254 50.2151 19.2254C50.5062 19.2254 50.7141 19.1838 50.9081 19.1146L51.0051 19.5442C50.7972 19.6412 50.4923 19.6966 50.1459 19.6966C49.342 19.6966 48.8708 19.1977 48.8708 18.4493C48.8708 17.7564 49.2866 17.1189 50.0766 17.1189C50.8804 17.1189 51.1437 17.7841 51.1437 18.3246C51.1437 18.4355 51.1298 18.5325 51.1298 18.5879H49.4529ZM50.5339 18.1444C50.5339 17.9088 50.4369 17.5347 50.0211 17.5347C49.6331 17.5347 49.4668 17.8811 49.4391 18.1444H50.5339Z" fill="#003399"/>
<path d="M51.6148 19.073C51.7534 19.1561 52.0167 19.2531 52.2523 19.2531C52.5295 19.2531 52.6542 19.1423 52.6542 18.976C52.6542 18.8097 52.5572 18.7265 52.2523 18.6156C51.7673 18.4493 51.5733 18.186 51.5733 17.895C51.5733 17.4515 51.9336 17.1189 52.5156 17.1189C52.7928 17.1189 53.0284 17.1882 53.1809 17.2713L53.0561 17.7148C52.9591 17.6594 52.7512 17.5762 52.5295 17.5762C52.3078 17.5762 52.183 17.6871 52.183 17.8396C52.183 17.992 52.2939 18.0751 52.6127 18.186C53.07 18.3385 53.264 18.5741 53.2779 18.9344C53.2779 19.3917 52.9314 19.7105 52.2662 19.7105C51.9613 19.7105 51.698 19.6412 51.5178 19.5442L51.6148 19.073Z" fill="#003399"/>
<path d="M54.4836 16.5369V17.1744H55.0795V17.6456H54.4836V18.7404C54.4836 19.0453 54.5667 19.1977 54.8023 19.1977C54.9132 19.1977 54.9686 19.1977 55.0518 19.17L55.0657 19.6412C54.9687 19.6828 54.8024 19.7105 54.6083 19.7105C54.3727 19.7105 54.1926 19.6274 54.0678 19.5026C53.9292 19.364 53.8738 19.1284 53.8738 18.8097V17.6456H53.5273V17.1744H53.8738V16.717L54.4836 16.5369Z" fill="#003399"/>
<path d="M55.5507 17.9088C55.5507 17.6178 55.5369 17.3822 55.5369 17.1743H56.0774L56.1051 17.5347H56.1189C56.2298 17.3406 56.4654 17.1189 56.8812 17.1189C57.2138 17.1189 57.4632 17.2991 57.5741 17.5762H57.588C57.6711 17.4376 57.782 17.3406 57.8928 17.2713C58.0314 17.1743 58.1977 17.1189 58.4056 17.1189C58.8075 17.1189 59.2371 17.3961 59.2371 18.1999V19.655H58.6274V18.283C58.6274 17.8673 58.4888 17.6317 58.1839 17.6317C57.976 17.6317 57.8097 17.7841 57.7404 17.9643C57.7265 18.0197 57.7127 18.1029 57.7127 18.1722V19.655H57.1029V18.2137C57.1029 17.8673 56.9643 17.6178 56.6733 17.6178C56.4377 17.6178 56.2852 17.798 56.2159 17.9643C56.2021 18.0336 56.1882 18.1029 56.1882 18.1722V19.6412H55.5784V17.9088H55.5507Z" fill="#003399"/>
<path d="M60.3042 18.5879C60.3181 19.0314 60.6646 19.2254 61.0665 19.2254C61.3575 19.2254 61.5654 19.1838 61.7594 19.1146L61.8564 19.5442C61.6485 19.6412 61.3436 19.6966 60.9972 19.6966C60.1934 19.6966 59.7222 19.1977 59.7222 18.4493C59.7222 17.7564 60.1379 17.1189 60.9279 17.1189C61.7317 17.1189 61.995 17.7841 61.995 18.3246C61.995 18.4355 61.9811 18.5325 61.9811 18.5879H60.3042ZM61.3991 18.1444C61.3991 17.9088 61.3021 17.5347 60.8863 17.5347C60.4983 17.5347 60.332 17.8811 60.3042 18.1444H61.3991Z" fill="#003399"/>
<path d="M62.4938 17.9088C62.4938 17.6178 62.48 17.3822 62.48 17.1743H63.0205L63.0482 17.5485H63.062C63.1729 17.3545 63.4501 17.1189 63.852 17.1189C64.2816 17.1189 64.7389 17.3961 64.7389 18.186V19.655H64.1153V18.2553C64.1153 17.895 63.9767 17.6317 63.6441 17.6317C63.3947 17.6317 63.2283 17.8118 63.1591 17.992C63.1452 18.0474 63.1313 18.1167 63.1313 18.186V19.6412H62.5077V17.9088H62.4938Z" fill="#003399"/>
<path d="M66.0971 16.5369V17.1744H66.693V17.6456H66.0971V18.7404C66.0971 19.0453 66.1803 19.1977 66.4159 19.1977C66.5267 19.1977 66.5822 19.1977 66.6653 19.17L66.6792 19.6412C66.5822 19.6828 66.4159 19.7105 66.2218 19.7105C65.9862 19.7105 65.8061 19.6274 65.6814 19.5026C65.5428 19.364 65.4873 19.1284 65.4873 18.8097V17.6456H65.1409V17.1744H65.4873V16.717L66.0971 16.5369Z" fill="#003399"/>
<path d="M68.2454 16.2597C68.4394 16.2181 68.7997 16.1765 69.16 16.1765C69.6174 16.1765 69.9084 16.2319 70.144 16.3983C70.3519 16.523 70.5043 16.7447 70.5043 17.0496C70.5043 17.3684 70.3103 17.6455 69.9361 17.7841V17.798C70.2965 17.895 70.6291 18.1722 70.6291 18.6434C70.6291 18.9483 70.4905 19.1839 70.2964 19.3502C70.047 19.558 69.6451 19.6689 69.0215 19.6689C68.675 19.6689 68.4117 19.6412 68.2592 19.6273V16.2597H68.2454ZM68.869 17.6178H69.1878C69.6312 17.6178 69.8668 17.4099 69.8668 17.1189C69.8668 16.7863 69.6174 16.6477 69.2293 16.6477C69.0492 16.6477 68.9383 16.6616 68.869 16.6754V17.6178ZM68.869 19.1977C68.9522 19.2116 69.063 19.2116 69.2016 19.2116C69.6035 19.2116 69.9638 19.0591 69.9638 18.6295C69.9638 18.2276 69.6174 18.0752 69.1739 18.0752H68.869V19.1977Z" fill="#003399"/>
<path d="M73.0819 19.0452C73.0819 19.2669 73.0958 19.4887 73.1235 19.6411H72.5553L72.5137 19.364H72.4999C72.3474 19.558 72.098 19.6966 71.7654 19.6966C71.2664 19.6966 70.9893 19.3362 70.9893 18.962C70.9893 18.3384 71.5436 18.0197 72.4583 18.0197V17.9781C72.4583 17.8118 72.389 17.5485 71.9594 17.5485C71.7099 17.5485 71.4605 17.6316 71.2942 17.7286L71.1694 17.3267C71.3496 17.2158 71.6683 17.105 72.0702 17.105C72.8602 17.105 73.0958 17.6039 73.0958 18.1582V19.0452H73.0819ZM72.4721 18.4354C72.0287 18.4354 71.6129 18.5186 71.6129 18.8928C71.6129 19.1422 71.7654 19.2531 71.9732 19.2531C72.2227 19.2531 72.4028 19.0868 72.4721 18.9066C72.486 18.865 72.486 18.8096 72.486 18.768V18.4354H72.4721Z" fill="#003399"/>
<path d="M73.7473 17.9088C73.7473 17.6178 73.7334 17.3822 73.7334 17.1743H74.2739L74.3016 17.5485H74.3155C74.4263 17.3545 74.7035 17.1189 75.1054 17.1189C75.535 17.1189 75.9924 17.3961 75.9924 18.186V19.655H75.3687V18.2553C75.3687 17.895 75.2301 17.6317 74.8975 17.6317C74.6481 17.6317 74.4818 17.8118 74.4125 17.992C74.3986 18.0474 74.3848 18.1167 74.3848 18.186V19.6412H73.7611V17.9088H73.7473Z" fill="#003399"/>
<path d="M77.2812 18.2553C77.3505 18.1583 77.4198 18.0474 77.4891 17.9643L78.0988 17.1605H78.8472L77.9187 18.1721L78.9719 19.6412H78.2097L77.5029 18.5463L77.295 18.7958V19.6412H76.6714V16.024H77.295V18.2553H77.2812Z" fill="#003399"/>
</svg>
