<svg width="100%" height="100%" viewBox="0 0 58 24" fill="none" xmlns="http://www.w3.org/2000/svg">
<g clip-path="url(#clip0_27181_2931)">
<path d="M0.5 0V24H7.78708V16.2541H14.4124V9.68726H7.78708V6.54609H15.9111L15.47 0H0.5Z" fill="currentColor"/>
<path d="M27.6024 0C20.9332 0 15.5642 5.35204 15.5642 12.0001C15.5642 18.6481 20.9332 24 27.6024 24C34.2715 24 39.6404 18.6481 39.6404 12.0001C39.6404 5.35204 34.2715 0 27.6024 0ZM27.6024 4.94263C28.7284 4.94263 29.6348 5.84616 29.6348 6.96866V17.0313C29.6348 18.1538 28.7284 19.0575 27.6024 19.0575C26.4763 19.0575 25.5698 18.1538 25.5698 17.0313V6.96866C25.5698 5.84616 26.4763 4.94263 27.6024 4.94263Z" fill="currentColor"/>
<path d="M36.0291 0L42.8598 12L36.0291 24H43.8386L46.7645 18.8596L49.6905 24H57.5L50.6693 12L57.5 0H49.6905L46.7645 5.14027L43.8387 0H36.0291Z" fill="currentColor"/>
</g>
<defs>
<clipPath id="clip0_27181_2931">
<rect width="57" height="24" fill="white" transform="translate(0.5)"/>
</clipPath>
</defs>
</svg>
