<svg width="4.7em" height="1em" viewBox="0 0 112 24" fill="none" xmlns="http://www.w3.org/2000/svg">
<g clip-path="url(#clip0_27181_2936)">
<path d="M11.3281 0.891402H4.73611V1.42512H6.87326V12.2925C6.87326 15.5885 5.98297 16.4788 3.93497 16.4788C2.68811 16.4788 2.42068 15.4994 2.42068 15.0537C2.42068 13.896 2.33154 13.0948 1.26183 13.0948C0.193256 13.0948 0.0161133 14.1634 0.0161133 14.52C0.0161133 16.0343 0.728113 17.192 3.66754 17.192C7.23097 17.192 9.10068 16.0343 9.10068 12.0263V1.42397H11.239V0.891402H11.3281ZM12.2195 14.6971C11.863 14.6971 11.5064 14.7885 11.3281 15.0537C11.0607 15.3211 10.9715 15.5885 10.9715 15.9451C10.9715 16.2994 11.0607 16.568 11.3281 16.8365C11.5955 17.1028 11.863 17.1908 12.2195 17.1908C12.575 17.1908 12.8424 17.1017 13.1098 16.8365C13.3773 16.5691 13.4664 16.2994 13.4664 15.9451C13.4664 15.5885 13.3773 15.3211 13.1098 15.0537C12.8424 14.7863 12.575 14.6971 12.2184 14.6971H12.2195ZM26.8275 14.6971C26.471 14.6971 26.2035 14.7885 25.9361 15.0537C25.6698 15.3211 25.5807 15.5885 25.5807 15.9451C25.5807 16.2994 25.6698 16.568 25.9361 16.8365C26.2035 17.1028 26.471 17.1908 26.8275 17.1908C27.1841 17.1908 27.5395 17.1017 27.719 16.8365C27.9853 16.568 28.0744 16.2994 28.0744 15.9451C28.0744 15.5885 27.9853 15.3211 27.7178 15.0537C27.4504 14.7863 27.1841 14.6971 26.8264 14.6971H26.8275ZM22.1944 0.891402H15.7807V1.42512H17.6515V13.8971C17.6515 14.8765 17.5624 15.1428 17.4733 15.4103C17.3841 15.768 17.1167 15.9463 16.671 16.1245C16.4047 16.2137 15.959 16.3017 15.335 16.3017V16.8365H22.2835V16.3017C21.6595 16.3017 21.215 16.2137 20.9464 16.1245C20.5018 15.9463 20.2344 15.6788 20.1464 15.4114C20.0275 15.0986 19.9667 14.7666 19.967 14.432V10.1543H21.6595C26.6481 10.1543 28.0733 8.1954 28.0733 5.52226C28.0733 2.76112 27.2721 0.891402 22.1944 0.891402ZM21.303 9.5314H19.967V1.51426H21.1258C24.9555 1.51426 25.8458 3.11769 25.8458 5.6114C25.8458 8.19426 24.3327 9.5314 21.303 9.5314ZM48.6504 15.3211C48.5329 14.9771 48.4727 14.6161 48.4721 14.2525V1.42512H50.1635V0.891402H46.0687C45.9795 1.06969 41.1704 13.0057 41.1704 13.0057L41.0813 13.096C40.9921 13.096 40.9921 13.096 40.9921 13.0068C40.9921 13.0068 35.8264 0.980544 35.8264 0.891402H31.2801V1.42626H33.2401V14.9657C33.2401 15.2343 33.151 15.5017 32.9727 15.768C32.7944 16.0354 32.527 16.2137 32.2595 16.3017C32.0813 16.3931 31.7258 16.3931 31.3681 16.3931V16.9257H35.823V16.3908C35.4664 16.3908 35.2881 16.3017 35.0218 16.3017C34.6653 16.2125 34.487 16.0343 34.3087 15.7668C34.1304 15.5885 34.0413 15.3211 34.0413 14.9657L33.9521 13.8068V3.11654H34.2195C34.2195 3.11654 40.0093 16.656 40.0984 16.8343H40.5441L46.0664 3.20683H46.2447V14.2525C46.2447 14.6983 46.1555 15.0537 46.0664 15.4103C45.9773 15.7668 45.711 15.9451 45.3544 16.1234C44.9812 16.2472 44.5898 16.3071 44.1967 16.3005V16.8354H50.4321V16.3005C50.0386 16.3071 49.6468 16.2472 49.2733 16.1234C49.007 15.9451 48.7395 15.6777 48.6504 15.3211ZM57.1121 5.16683C53.727 5.16683 51.679 7.39312 51.679 11.224C51.679 16.9245 56.1327 17.2811 57.023 17.2811C58.8938 17.2811 62.4573 16.1234 62.4573 11.136C62.4573 7.21597 60.1407 5.16683 57.1121 5.16683ZM57.023 16.568C54.5293 16.568 54.0835 15.3223 54.0835 11.3131C54.0835 8.1954 54.2618 5.87883 57.023 5.87883C59.9624 5.87883 59.9624 8.2834 59.9624 11.1337C59.9624 15.1428 59.2504 16.568 57.023 16.568ZM71.1875 5.34512C69.2264 5.34512 68.5155 6.50283 67.9795 7.74969H67.8013C67.8013 7.74969 67.535 5.96797 67.4458 5.52226H63.5258V6.14626H65.663V13.9851C65.663 14.7863 65.575 15.3223 65.3978 15.6765C65.2184 16.0343 64.6835 16.3005 63.8824 16.3005H63.5258V17.0137H70.1178V16.3005H69.7613C68.8698 16.3005 68.5155 16.1234 68.335 15.7668C68.1578 15.4103 68.0687 14.8754 68.0687 14.0743V9.79883C68.0687 8.46169 69.1373 6.8594 70.3853 6.8594C71.7213 6.8594 71.631 8.81826 73.1464 8.01712C73.8595 7.5714 73.6813 5.34512 71.1875 5.34512ZM97.1075 15.6765C96.3944 15.6765 96.2173 15.3223 96.1281 14.6091V8.37369C96.1281 7.30397 95.9487 6.68112 95.327 6.05597C94.703 5.43312 93.5441 5.16454 91.8527 5.16454C90.2493 5.16454 89.0915 5.43312 88.2893 6.05597C87.5773 6.59197 87.2218 7.12569 87.2218 7.92797C87.2218 8.28226 87.311 8.55083 87.4881 8.63997C87.6664 8.81826 87.9338 8.9074 88.2001 8.9074C88.823 8.9074 89.1807 8.55312 89.3578 7.74969C89.4493 7.12569 89.6253 6.77026 89.8938 6.41254C90.2481 6.05826 90.7853 5.87883 91.407 5.87883C92.2093 5.87883 92.8321 6.05597 93.0995 6.50169C93.367 6.9474 93.5453 7.48226 93.5453 8.19312V10.0651C91.495 10.2434 86.5075 10.688 86.775 14.4297C86.8641 15.8548 88.1121 17.1908 89.8035 17.1908C91.6744 17.1908 92.831 16.1234 93.6321 15.32C93.7224 16.1223 94.5235 17.1028 95.8607 17.1028C97.3738 17.1028 98.2653 16.3897 98.3555 14.5188H97.999C97.999 15.232 97.5533 15.6777 97.1075 15.6777V15.6765ZM93.7235 14.4308V14.52L93.6344 14.6091C92.5658 15.5897 91.6755 15.9463 91.0515 15.9463C89.4481 15.9463 89.1807 14.6091 89.1807 13.9863C89.1807 11.8491 92.1201 10.7794 93.7235 10.7794V14.4308ZM110.47 15.5885C110.292 15.2331 110.024 14.6971 110.024 13.8971V8.72912C110.024 8.01712 109.935 7.30397 109.668 6.8594C109.4 6.32454 108.956 5.96797 108.51 5.70054C107.975 5.43312 107.441 5.34512 106.818 5.34512C104.502 5.34512 103.61 6.77026 103.077 7.5714H102.898L102.453 5.52226H98.8893V6.14626H100.672V13.9851C100.672 14.6091 100.582 15.0537 100.493 15.3223C100.402 15.6765 100.138 15.9451 99.8698 16.0343C99.6915 16.1234 99.335 16.2125 98.8893 16.2125V16.9245H104.501V16.2125C103.966 16.1234 103.52 16.0343 103.343 15.7668C103.165 15.4994 102.988 14.9645 102.988 14.1634V11.1348C102.988 9.88912 102.988 8.63997 103.433 7.92797C103.878 7.12569 104.768 6.68112 105.66 6.68112C106.551 6.68112 106.996 6.94854 107.264 7.48226C107.53 7.92797 107.618 9.26397 107.618 10.1543V13.896C107.618 14.5188 107.71 14.9645 107.618 15.2331C107.53 15.5874 107.441 15.856 107.173 16.0331C106.996 16.2125 106.638 16.2125 106.282 16.3005V17.0137H111.718V16.3005C111.093 16.0343 110.648 15.8548 110.47 15.5885ZM84.9944 4.63197C84.6378 4.72112 84.4595 5.07769 84.2813 5.5234C84.1921 5.96912 84.0138 6.2354 83.7464 6.3234C83.479 6.41369 83.2127 6.41369 82.9453 6.2354C82.3224 5.70054 81.2527 5.07769 79.2927 5.07769C76.0858 5.07769 74.7498 7.30397 74.7498 9.35197C74.7498 11.7577 75.6413 12.9165 77.6881 13.3611C77.7784 13.3611 77.7784 13.5394 77.6881 13.5394C75.9967 13.896 74.3933 14.4308 74.3933 16.0343C74.3933 17.0148 74.9281 17.5485 75.7304 17.9051C76.5304 18.2605 77.6881 18.44 79.1144 18.44C80.3601 18.44 81.2515 18.5291 81.7864 18.5291C82.3233 18.5983 82.8394 18.7806 83.3007 19.064C83.6573 19.3314 83.8355 19.7771 83.8355 20.3097C83.8355 21.112 83.3898 21.6468 82.5887 22.1817C81.7887 22.6274 80.8058 22.8057 79.471 22.8057C78.4024 22.8057 77.423 22.7154 76.6207 22.1817C75.9978 21.8251 75.9075 21.1131 75.9978 20.5783C76.0881 20.0434 75.9075 19.5097 75.2847 19.3314C75.0952 19.2896 74.8972 19.3105 74.7206 19.3909C74.544 19.4712 74.3982 19.6068 74.3053 19.7771C74.1258 20.0423 74.0367 20.3988 74.0367 20.8445C74.0367 22.1805 75.1064 22.8034 75.9075 23.0708C77.1544 23.4263 77.9578 23.5165 79.0253 23.5165C80.5407 23.5165 81.6973 23.2491 82.5887 22.8925C83.4801 22.4468 84.015 21.9131 84.3704 21.2891C84.7258 20.6663 84.9053 20.0423 84.9053 19.4183C84.9053 18.6171 84.7258 17.904 84.3704 17.4594C83.2127 15.9451 81.6081 16.1223 78.0458 15.9451C76.3533 15.9451 75.9967 15.5885 75.9967 15.0537C75.9967 14.2525 76.6207 13.9851 79.1144 13.5394C81.6081 13.1828 83.9235 12.2034 83.9235 9.26397C83.9235 8.37254 83.7464 7.66054 83.4778 7.12683C84.0138 7.21483 84.4595 7.21483 84.9041 7.12683C85.4401 6.94854 85.7053 6.68112 85.8847 6.41369C86.063 6.05712 86.151 5.70054 85.9738 5.43312C86.063 4.72112 85.6173 4.45369 84.9944 4.63197ZM79.383 13.0057C77.8698 13.0057 77.0664 12.4697 77.0664 9.44226C77.0664 7.30512 77.7795 5.70054 79.383 5.70054C81.2538 5.70054 81.7875 7.12569 81.7875 9.35312C81.7875 12.56 80.8081 13.0057 79.383 13.0057Z" fill="currentColor"/>
</g>
<defs>
<clipPath id="clip0_27181_2936">
<rect width="112" height="24" fill="white"/>
</clipPath>
</defs>
</svg>
