<svg width="7.8em" height="1em" viewBox="0 0 188 24" fill="none" xmlns="http://www.w3.org/2000/svg">
<g clip-path="url(#clip0_27181_2938)">
<mask id="mask0_27181_2938" style="mask-type:luminance" maskUnits="userSpaceOnUse" x="0" y="0" width="188" height="24">
<path d="M187.5 0H0.5V24H187.5V0Z" fill="white"/>
</mask>
<g mask="url(#mask0_27181_2938)">
<path fill-rule="evenodd" clip-rule="evenodd" d="M105.88 5.3568L103.151 18.4733H108.717L109.862 13.0069C110.189 11.5314 111.88 9.78248 116.19 9.72764L117.118 5.3558C117.118 5.3558 114.117 4.7542 111.881 6.50313C111.662 6.72162 111.116 6.94011 111.226 6.39438L111.445 5.3558L105.88 5.3568ZM156.31 0.0611478L155.601 3.23176H161.165L161.874 0.0611478H156.31ZM155.17 5.3558H160.737L158.007 18.4733H152.388L155.17 5.3558ZM181.876 0.0611478L181.167 3.23176H186.731L187.441 0.0611478H181.876ZM180.736 5.3558H186.301L183.573 18.4733H177.954L180.736 5.3558ZM162.443 5.3578L159.661 18.4743H165.282L166.7 11.4246C167.081 9.29264 169.099 8.5284 170.354 8.5284C171.609 8.5284 172.702 9.29364 172.209 11.7529L170.846 18.4743H176.41L177.992 10.7143C178.483 8.30894 178.376 4.81107 173.737 4.81107C170.135 4.81107 168.935 6.06814 168.227 6.56C167.844 6.77849 167.68 6.56 167.789 6.28763L168.008 5.3578H162.443ZM137.752 0.0152588L133.879 18.4892H139.498L140.916 11.4396C141.299 9.30756 143.318 8.5424 144.572 8.5424C145.827 8.5424 146.918 9.30856 146.428 11.7669L145.062 18.4892H150.628L152.21 10.7283C152.702 8.32387 152.593 4.82604 147.955 4.82604C144.354 4.82604 143.153 6.0831 142.443 6.57496C142.06 6.79345 141.897 6.57496 142.005 6.3016L143.316 0.0162541L137.752 0.0152588ZM9.99777 0.0152588L6.88718 14.7729H16.4357L15.6715 18.4892H0.558105L4.37792 0.0152588H9.99777ZM58.9512 5.08344C56.8045 5.08344 54.56 6.09109 53.1765 7.47587C52.5182 5.57629 50.1318 5.08344 48.3978 5.08344C46.1912 5.08344 44.1984 6.14596 43.2543 6.8573L43.566 5.3548H38.0012L35.2731 18.4723H40.8381L42.3084 11.4027C42.9517 9.5111 44.4261 8.79879 45.5049 8.79879C46.7056 8.79879 47.6875 9.5091 47.306 11.3678L45.8325 18.4723H51.3975L52.8599 11.4037C53.5042 9.5111 54.9776 8.79879 56.0574 8.79879C57.2581 8.79879 58.24 9.5091 57.8584 11.3678L56.385 18.4723H61.95L63.8039 9.5091C64.5161 5.90253 61.1878 5.08344 58.9512 5.08344Z" fill="currentColor"/>
<path fill-rule="evenodd" clip-rule="evenodd" d="M77.1824 4.93282C73.9629 4.93282 72.8182 6.08013 71.6714 7.11872L73.1988 0.0142822H67.6338L63.7601 18.4872H69.325L69.5977 17.1763C70.6346 17.9954 72.2169 19.034 74.9448 19.034C77.6721 19.034 82.9109 17.2301 83.7281 11.4377C84.5475 5.64416 80.4009 4.93282 77.1824 4.93282ZM77.3791 12.147C76.9427 14.6222 75.3275 16.1397 73.1857 16.1387C71.2349 16.1367 70.189 14.6222 70.6246 12.147C71.0611 9.67174 72.926 8.2122 75.0637 8.23813C77.0176 8.26205 77.8154 9.67174 77.3791 12.147ZM95.5711 5.0216C90.4995 5.0216 85.5873 6.57997 84.4821 12.132C83.3953 17.5983 87.505 19.1347 92.5767 19.1347C97.6468 19.1347 102.546 16.9867 103.501 12.132C104.618 6.44828 100.642 5.0216 95.5711 5.0216ZM97.2863 12.132C96.8512 14.6073 95.2353 16.1247 93.0942 16.1237C91.1434 16.1217 90.0975 14.6073 90.5342 12.132C90.9693 9.65682 92.8339 8.1972 94.9727 8.22313C96.9259 8.24705 97.723 9.65582 97.2863 12.132ZM28.4398 4.91784C21.3465 4.91784 19.8731 7.5966 19.4376 9.39943H25.1663C25.494 8.14236 26.9663 7.97874 27.8394 7.97874C28.7125 7.97874 30.022 8.30597 29.6404 10.1097C20.3656 10.3292 17.8553 12.132 17.256 15.138C16.6556 18.145 19.1099 19.019 22.2205 19.019C25.3311 19.019 26.9673 18.2537 28.2219 17.4347L27.9493 18.4723H33.4603L35.2602 9.72766C36.1323 5.51945 31.877 4.91784 28.4398 4.91784ZM28.8213 13.9358C28.6036 15.0293 27.0213 16.2314 24.9485 16.2314C22.8748 16.2314 22.9298 15.4124 22.9837 14.702C23.0386 13.9907 23.8018 12.7337 29.095 12.6797L28.8213 13.9358ZM129.405 5.33986L129.133 6.48819C127.659 5.50448 126.84 5.01263 124.495 5.01263C122.147 5.01263 117.292 6.37845 116.147 11.4616C115.002 16.5447 117.729 18.4583 120.566 18.4583C123.403 18.4583 125.312 17.9116 126.95 16.9278C126.351 19.7702 125.04 20.9724 123.077 20.9724C121.113 20.9724 120.839 20.2072 120.457 19.1686H114.838C114.619 23.1584 116.365 23.9774 122.476 23.9774C128.586 23.9774 131.642 21.135 132.297 18.0752L134.971 5.33986H129.405ZM127.878 11.9534C127.551 13.2644 126.949 15.5341 124.003 15.4513C122.038 15.3964 121.794 13.2294 122.038 12.0083C122.255 10.9248 122.857 8.34682 125.804 8.34682C128.751 8.34682 128.107 11.0276 127.878 11.9534Z" fill="currentColor"/>
</g>
</g>
<defs>
<clipPath id="clip0_27181_2938">
<rect width="187" height="24" fill="white" transform="translate(0.5)"/>
</clipPath>
</defs>
</svg>
