<svg width="5.8em" height="1em" viewBox="0 0 138 24" fill="none" xmlns="http://www.w3.org/2000/svg">
<g clip-path="url(#clip0_27181_2945)">
<path d="M18.3279 7.56088e-05C20.4002 7.56088e-05 22.473 -0.000226833 24.5454 0.000378065C24.5466 0.467358 24.543 0.934643 24.5475 1.40193C24.021 1.42491 23.4826 1.48389 22.9978 1.70438C22.5059 1.92546 22.0936 2.32772 21.8814 2.82586C19.3613 8.75326 16.843 14.6813 14.3257 20.6099C14.2821 20.7072 14.2471 20.808 14.1963 20.902C13.2949 20.8914 12.3932 20.9005 11.4918 20.8972C11.094 20.1063 10.7025 19.3121 10.3014 18.523C9.84165 19.7557 9.37917 20.9873 8.91936 22.2198C11.8929 22.2201 14.8664 22.2198 17.84 22.2201C18.3844 22.2274 18.9451 22.2047 19.4544 21.9918C20.3008 21.6515 20.9746 20.994 21.5229 20.2811C22.1849 19.4173 22.6873 18.4449 23.135 17.4568C23.6371 17.4526 24.1389 17.4583 24.6406 17.4574C23.6891 19.4911 22.7327 21.523 21.7726 23.5527C14.9205 23.553 8.06877 23.5527 1.2167 23.5527C1.38356 23.1168 1.54226 22.6774 1.72121 22.2461C1.73209 22.2017 1.78741 22.2128 1.82096 22.2086C2.67641 22.2023 3.5376 22.169 4.37704 21.9908C4.81383 21.8883 5.26575 21.7516 5.60189 21.4395C5.77962 21.2698 5.83493 21.0221 5.89388 20.7935C6.70306 18.6267 7.51348 16.4603 8.3233 14.2938C6.61177 10.6451 4.89454 6.99845 3.18212 3.35C3.04428 3.03092 2.86231 2.71486 2.57605 2.50708C1.98359 2.06308 1.21368 2.00682 0.500302 1.97839C0.499698 1.45546 0.500302 0.932829 0.5 0.409894C2.90584 0.408987 5.31138 0.409289 7.71722 0.409592C7.71755 0.932525 7.71782 1.45546 7.7169 1.97839C7.40346 1.99836 7.07065 1.99321 6.78682 2.14837C6.64595 2.21491 6.5631 2.38247 6.59941 2.5349C6.64383 2.78442 6.84093 2.96256 6.94066 3.18789C7.95663 5.37734 8.9726 7.56706 9.99156 9.75559C10.5021 8.32712 11.0127 6.89894 11.5253 5.4714C11.6006 5.27299 11.6272 5.04374 11.5414 4.84412C11.4739 4.68651 11.321 4.58914 11.1702 4.52351C10.8769 4.40252 10.5547 4.40373 10.244 4.38135C10.4027 3.94008 10.5623 3.49881 10.7267 3.05995C10.7648 3.03546 10.8177 3.05421 10.8615 3.04816C13.3024 3.04967 15.7436 3.04816 18.1849 3.04907C18.0162 3.49246 17.8484 3.93585 17.6816 4.37984C17.0936 4.40706 16.4876 4.42188 15.9362 4.65175C15.6835 4.75759 15.4444 4.9194 15.2951 5.15349C15.1914 5.325 15.127 5.51645 15.0575 5.70337C14.0376 8.48649 13.0083 11.266 11.9999 14.0534C12.5585 15.3167 13.1407 16.5691 13.7105 17.8273C15.7796 12.9385 17.8481 8.04914 19.9196 3.16128C20.0593 2.86729 20.2866 2.59902 20.3044 2.26088C20.3217 1.99624 20.1255 1.76789 19.8982 1.65931C19.4082 1.43308 18.8574 1.42189 18.3279 1.40283C18.3272 0.935248 18.3272 0.467663 18.3279 7.56088e-05Z" fill="currentColor"/>
<path d="M126.533 5.11597C129.542 8.23375 132.527 11.3724 135.507 14.5167C135.503 11.5939 135.519 8.66981 135.517 5.74703C136.032 5.74846 136.547 5.74287 137.063 5.73591C137.065 9.90826 137.065 14.082 137.063 18.2544C134.052 15.1519 131.085 12.0077 128.089 8.88992C128.093 11.8308 128.082 14.773 128.08 17.7152C127.564 17.7194 127.048 17.718 126.533 17.718C126.532 13.5164 126.53 9.3162 126.533 5.11597Z" fill="currentColor"/>
<path d="M38.9432 5.54507C42.2584 5.03516 45.7656 7.63192 46.0608 11.0144C46.3393 12.9494 45.5888 14.9666 44.1728 16.2999C41.8448 18.579 37.6581 18.5372 35.3984 16.1773C34.1773 14.9931 33.4811 13.2866 33.5549 11.5828C33.5883 8.61827 36.0374 5.96996 38.9432 5.54507ZM38.9446 7.07747C37.0149 7.39233 35.4443 9.08775 35.1742 11.0089C34.8066 13.1918 36.153 15.5406 38.2596 16.2539C40.103 16.9504 42.3461 16.2943 43.5296 14.7201C45.0597 12.799 44.8008 9.69929 42.9183 8.10421C41.8601 7.14158 40.33 6.82395 38.9446 7.07747Z" fill="currentColor"/>
<path d="M62.883 6.19014C64.5814 4.91404 67.3565 5.44204 68.3367 7.37011C67.9275 7.60134 67.5179 7.83401 67.1088 8.06528C66.3721 6.91319 64.5773 6.63174 63.5874 7.60974C63.1685 7.91621 63.2142 8.47762 63.2589 8.93874C63.3789 9.54059 64.0191 9.7955 64.491 10.0783C65.7079 10.7191 67.1701 11.0883 68.0249 12.2502C68.9788 13.5472 68.821 15.478 67.7813 16.6789C66.6936 17.9954 64.7055 18.3158 63.1851 17.6262C62.0185 17.0495 61.2971 15.8305 61.0632 14.5808C61.5854 14.4569 62.1103 14.3426 62.6339 14.2256C62.6865 15.3652 63.5707 16.5173 64.7738 16.5382C66.397 16.7151 67.6881 14.6031 66.7425 13.256C65.7332 11.881 63.7866 11.8615 62.6256 10.6732C61.2584 9.55448 61.3958 7.14304 62.883 6.19014Z" fill="currentColor"/>
<path d="M118.308 5.53655C120.48 5.26489 122.724 6.26795 124.058 7.98705C125.981 10.3943 125.673 14.2351 123.391 16.3053C122.088 17.5939 120.172 18.1247 118.373 17.9338C116.595 17.8168 114.931 16.8194 113.905 15.3761C112.799 13.8367 112.513 11.7791 113.036 9.96945C113.72 7.62483 115.9 5.84306 118.308 5.53655ZM118.041 7.09821C115.647 7.5064 113.934 10.0586 114.355 12.4324C114.621 14.7158 116.786 16.5742 119.076 16.531C120.638 16.5574 122.128 15.6714 122.971 14.3758C124.25 12.5202 123.913 9.77855 122.264 8.25174C121.186 7.15812 119.519 6.78898 118.041 7.09821Z" fill="currentColor"/>
<path d="M28.3308 5.73865C28.8251 5.73588 29.3194 5.73588 29.8136 5.73865C29.815 9.27579 29.8123 12.8143 29.815 16.3514C31.043 16.3542 32.2697 16.3514 33.4977 16.3528C33.5005 16.8069 33.5005 17.2611 33.4991 17.7166C31.7754 17.718 30.0531 17.7194 28.3308 17.7166C28.3322 13.724 28.3322 9.73133 28.3308 5.73865Z" fill="currentColor"/>
<path d="M47.2593 5.74836C47.7829 5.74416 48.3064 5.7456 48.8314 5.74698C48.8355 8.1041 48.8245 10.4627 48.8369 12.8198C48.8604 13.8563 48.9887 14.9958 49.7207 15.7941C50.8864 16.9378 53.1753 16.7748 53.9885 15.2926C54.399 14.596 54.519 13.7713 54.5079 12.9744C54.4982 10.5657 54.4982 8.15704 54.4996 5.74698C55.0231 5.74416 55.5462 5.7456 56.0698 5.74698C56.0698 8.20583 56.0753 10.6646 56.0684 13.1235C56.0712 14.2394 55.8779 15.4193 55.1648 16.3165C53.6319 18.441 50.0787 18.5622 48.3996 16.5547C47.6016 15.7188 47.2732 14.5403 47.2621 13.4063C47.2552 10.8541 47.2607 8.30053 47.2593 5.74836Z" fill="currentColor"/>
<path d="M58.0041 5.74017C58.5193 5.73459 59.036 5.73597 59.5526 5.73879C59.5526 9.73142 59.554 13.7241 59.5512 17.7181C59.036 17.7181 58.5193 17.7195 58.0027 17.7153C58.0055 13.7241 58.0055 9.73142 58.0041 5.74017Z" fill="currentColor"/>
<path d="M73.5076 5.74995C74.0745 5.73462 74.6437 5.73462 75.212 5.73739C76.4012 8.64901 77.5719 11.5675 78.7403 14.4875C79.9055 11.5773 81.1044 8.68104 82.2433 5.76107C82.8268 5.71233 83.4112 5.74575 83.9961 5.73739C82.2571 9.97385 80.5112 14.2075 78.7569 18.437C76.9718 14.2228 75.2512 9.98082 73.5076 5.74995Z" fill="currentColor"/>
<path d="M84.7046 5.73584C85.2199 5.74276 85.7351 5.74835 86.2518 5.74696C86.2697 8.0679 86.249 10.3902 86.2684 12.7111C86.3048 13.8131 86.3897 15.0627 87.2306 15.8791C88.2011 16.7107 89.7464 16.7623 90.7824 16.0226C91.3853 15.5935 91.7165 14.8802 91.8475 14.1697C92.0537 12.9465 91.9799 11.7025 91.9938 10.4682C92.0021 8.89539 92.0035 7.32256 92.0007 5.74978C92.4961 5.74419 92.9934 5.74558 93.4906 5.74696C93.5128 7.92856 93.4948 10.1088 93.5003 12.2904C93.5349 13.6431 93.492 15.1114 92.6691 16.2538C91.228 18.3337 87.9114 18.558 86.0875 16.8681C85.1756 16.0239 84.7175 14.7785 84.7106 13.5498C84.6963 10.9447 84.7074 8.34095 84.7046 5.73584Z" fill="currentColor"/>
<path d="M95.4346 5.74704C95.972 5.74843 96.5094 5.74289 97.0482 5.7373C97.0482 9.72994 97.0468 13.7226 97.0482 17.7166C96.5066 17.7181 95.9665 17.7181 95.4258 17.7166C95.4203 13.7268 95.4388 9.7369 95.4346 5.74704Z" fill="currentColor"/>
<path d="M98.0145 5.74707C102.842 5.75122 107.667 5.73871 112.494 5.7401C112.493 6.21793 112.493 6.69576 112.494 7.17497C111.569 7.17917 110.644 7.17497 109.719 7.17641C109.715 10.6898 109.718 14.2032 109.718 17.7167C109.179 17.718 108.642 17.718 108.103 17.7167C108.1 14.2032 108.113 10.6898 108.098 7.17641C106.203 7.17917 104.308 7.17497 102.413 7.17779C102.41 10.6912 102.413 14.2032 102.411 17.7167C101.917 17.718 101.423 17.718 100.93 17.7167C100.928 14.2032 100.931 10.6912 100.928 7.17779C99.9565 7.17497 98.9864 7.17917 98.0145 7.17497C98.0131 6.69853 98.0131 6.22208 98.0145 5.74707Z" fill="currentColor"/>
</g>
<defs>
<clipPath id="clip0_27181_2945">
<rect width="137" height="24" fill="white" transform="translate(0.5)"/>
</clipPath>
</defs>
</svg>
