<svg width="1.3em" height="1em" viewBox="0 0 31 24" fill="none" xmlns="http://www.w3.org/2000/svg">
<g clip-path="url(#clip0_27181_3076)">
<path d="M5.6186 23.9474V22.3547C5.6186 21.7454 5.2463 21.3464 4.60719 21.3464C4.28764 21.3464 3.94016 21.4516 3.70127 21.798C3.51512 21.5072 3.24831 21.3464 2.84809 21.3464C2.58127 21.3464 2.31446 21.4268 2.10349 21.7176V21.399H1.54504V23.9474H2.10349V22.5402C2.10349 22.0887 2.34238 21.8753 2.71468 21.8753C3.08698 21.8753 3.27313 22.1134 3.27313 22.5402V23.9474H3.83157V22.5402C3.83157 22.0887 4.09839 21.8753 4.44276 21.8753C4.81506 21.8753 5.00121 22.1134 5.00121 22.5402V23.9474H5.6186ZM13.9022 21.399H12.9963V20.6289H12.4379V21.399H11.9322V21.9031H12.4379V23.0722C12.4379 23.6567 12.6767 24 13.3159 24C13.5548 24 13.8216 23.9196 14.0077 23.8145L13.8464 23.3351C13.6851 23.4402 13.4989 23.4681 13.3655 23.4681C13.0987 23.4681 12.9932 23.3072 12.9932 23.0444V21.9031H13.8991V21.399H13.9022ZM18.6428 21.3433C18.3233 21.3433 18.1092 21.5041 17.9758 21.7145V21.3959H17.4173V23.9444H17.9758V22.5093C17.9758 22.0856 18.1619 21.8444 18.5094 21.8444C18.6149 21.8444 18.7483 21.8722 18.8569 21.8969L19.0182 21.365C18.9065 21.3433 18.7483 21.3433 18.6428 21.3433ZM11.4792 21.6093C11.2124 21.4237 10.8401 21.3433 10.4399 21.3433C9.80075 21.3433 9.37571 21.6619 9.37571 22.166C9.37571 22.5897 9.69526 22.831 10.2537 22.9083L10.5205 22.9361C10.8122 22.9887 10.9735 23.0691 10.9735 23.2021C10.9735 23.3877 10.7594 23.5206 10.3871 23.5206C10.0148 23.5206 9.72008 23.3877 9.53393 23.2547L9.26712 23.6784C9.55876 23.8918 9.95898 23.9969 10.3592 23.9969C11.1038 23.9969 11.5319 23.6505 11.5319 23.1743C11.5319 22.7227 11.1845 22.4846 10.6539 22.4042L10.3871 22.3763C10.1482 22.3485 9.96208 22.2959 9.96208 22.1382C9.96208 21.9526 10.1482 21.8474 10.443 21.8474C10.7625 21.8474 11.0821 21.9804 11.2434 22.0609L11.4792 21.6093ZM26.337 21.3433C26.0174 21.3433 25.8034 21.5041 25.6699 21.7145V21.3959H25.1115V23.9444H25.6699V22.5093C25.6699 22.0856 25.8561 21.8444 26.2036 21.8444C26.3091 21.8444 26.4425 21.8722 26.551 21.8969L26.7124 21.3712C26.6038 21.3433 26.4456 21.3433 26.337 21.3433ZM19.2013 22.6732C19.2013 23.4433 19.7349 24 20.5602 24C20.9325 24 21.1993 23.9196 21.4661 23.7093L21.1993 23.2578C20.9852 23.4186 20.7742 23.4959 20.5322 23.4959C20.0793 23.4959 19.7597 23.1773 19.7597 22.6732C19.7597 22.1938 20.0793 21.8753 20.5322 21.8505C20.7711 21.8505 20.9852 21.931 21.1993 22.0887L21.4661 21.6371C21.1993 21.4237 20.9325 21.3464 20.5602 21.3464C19.7349 21.3433 19.2013 21.9031 19.2013 22.6732ZM24.3669 22.6732V21.399H23.8085V21.7176C23.6223 21.4794 23.3555 21.3464 23.008 21.3464C22.2882 21.3464 21.7298 21.9031 21.7298 22.6732C21.7298 23.4433 22.2882 24 23.008 24C23.3803 24 23.6471 23.867 23.8085 23.6289V23.9474H24.3669V22.6732ZM22.3162 22.6732C22.3162 22.2217 22.6078 21.8505 23.0887 21.8505C23.5416 21.8505 23.8612 22.1969 23.8612 22.6732C23.8612 23.1248 23.5416 23.4959 23.0887 23.4959C22.6109 23.4681 22.3162 23.1217 22.3162 22.6732ZM15.6334 21.3433C14.8888 21.3433 14.3552 21.8753 14.3552 22.6701C14.3552 23.4681 14.8888 23.9969 15.6613 23.9969C16.0336 23.9969 16.4059 23.8918 16.7007 23.6505L16.4339 23.2516C16.2198 23.4124 15.953 23.5176 15.6893 23.5176C15.3418 23.5176 14.9974 23.3567 14.9167 22.9083H16.8062C16.8062 22.8279 16.8062 22.7753 16.8062 22.6949C16.831 21.8753 16.3501 21.3433 15.6334 21.3433ZM15.6334 21.8227C15.9809 21.8227 16.2198 22.0361 16.2725 22.432H14.9416C14.9943 22.0887 15.2332 21.8227 15.6334 21.8227ZM29.5077 22.6732V20.3907H28.9493V21.7176C28.7631 21.4794 28.4963 21.3464 28.1488 21.3464C27.4291 21.3464 26.8706 21.9031 26.8706 22.6732C26.8706 23.4433 27.4291 24 28.1488 24C28.5211 24 28.7879 23.867 28.9493 23.6289V23.9474H29.5077V22.6732ZM27.457 22.6732C27.457 22.2217 27.7486 21.8505 28.2295 21.8505C28.6825 21.8505 29.002 22.1969 29.002 22.6732C29.002 23.1248 28.6825 23.4959 28.2295 23.4959C27.7486 23.4681 27.457 23.1217 27.457 22.6732ZM8.76142 22.6732V21.399H8.20297V21.7176C8.01682 21.4794 7.75001 21.3464 7.40253 21.3464C6.68275 21.3464 6.12431 21.9031 6.12431 22.6732C6.12431 23.4433 6.68275 24 7.40253 24C7.77483 24 8.04164 23.867 8.20297 23.6289V23.9474H8.76142V22.6732ZM6.68586 22.6732C6.68586 22.2217 6.97749 21.8505 7.45837 21.8505C7.91134 21.8505 8.23089 22.1969 8.23089 22.6732C8.23089 23.1248 7.91134 23.4959 7.45837 23.4959C6.97749 23.4681 6.68586 23.1217 6.68586 22.6732Z" fill="currentColor"/>
<path d="M19.6822 2.04431H11.2931V17.0691H19.6822V2.04431Z" fill="#FF5A00"/>
<path d="M11.8515 9.5567C11.8515 6.50412 13.291 3.79485 15.5 2.04433C13.8743 0.770103 11.8236 0 9.58667 0C4.28763 0 0 4.27423 0 9.5567C0 14.8392 4.28763 19.1134 9.58667 19.1134C11.8236 19.1134 13.8743 18.3433 15.5 17.0691C13.2879 15.3433 11.8515 12.6093 11.8515 9.5567Z" fill="#EB001B"/>
<path d="M31 9.5567C31 14.8392 26.7124 19.1134 21.4133 19.1134C19.1764 19.1134 17.1257 18.3433 15.5 17.0691C17.7369 15.3155 19.1485 12.6093 19.1485 9.5567C19.1485 6.50412 17.709 3.79485 15.5 2.04433C17.1226 0.770103 19.1733 0 21.4102 0C26.7124 0 31 4.30206 31 9.5567Z" fill="#F79E1B"/>
</g>
<defs>
<clipPath id="clip0_27181_3076">
<rect width="31" height="24" fill="white"/>
</clipPath>
</defs>
</svg>
