<svg width="100%" height="100%" viewBox="0 0 121 24" fill="none" xmlns="http://www.w3.org/2000/svg">
<path d="M18.5714 20.1995C18.2243 20.4771 17.8587 20.7346 17.4774 20.9668C16.999 21.2595 16.4956 21.5132 15.9713 21.7268C14.7494 22.2264 13.4127 22.502 12.0121 22.502C10.6114 22.502 9.2767 22.2264 8.05377 21.7278C7.52945 21.5132 7.02661 21.2595 6.54866 20.9678C6.16738 20.7346 5.80221 20.4776 5.45462 20.1995L5.04161 20.5054L4.20776 21.1215C4.54218 21.4064 4.89124 21.6746 5.25544 21.9229C5.70555 22.2307 6.17812 22.5059 6.66827 22.7507C8.27883 23.5542 10.0939 24.0073 12.0121 24.0073C13.9302 24.0073 15.7463 23.5542 17.3568 22.7507C17.8484 22.5064 18.32 22.2298 18.7697 21.9229C19.1339 21.6746 19.4834 21.4064 19.8173 21.1205L18.9845 20.5054L18.5714 20.1995Z" fill="url(#paint0_linear_27208_3171)"/>
<path d="M20.6922 3.71317L19.4722 4.61805L18.2478 5.52683L16.7895 6.60732L12.0125 10.1376L10.9468 9.34878L8.74407 7.72195L7.23604 6.60732V5.0322L12.0125 8.56195L16.7895 5.0322L17.2543 4.68683L18.5085 3.75756C18.0901 3.42829 17.6458 3.13122 17.1811 2.86829C15.653 2.00146 13.8901 1.50488 12.012 1.50488C9.18052 1.50488 6.60724 2.63171 4.71597 4.45854L3.49158 3.55366C5.66942 1.36098 8.68451 0 12.012 0C14.3954 0 16.6177 0.698049 18.4875 1.89805C18.9293 2.18293 19.3535 2.49561 19.7543 2.83317C20.0819 3.11073 20.3953 3.4039 20.6917 3.71317H20.6922Z" fill="url(#paint1_linear_27208_3171)"/>
<path d="M15.281 17.7683L16.7895 18.8824V11.3483L15.281 12.4629V17.7683Z" fill="url(#paint2_linear_27208_3171)"/>
<path d="M7.23608 18.8834L7.23657 18.8829L8.74412 17.7683V12.4629L7.23608 11.3483V18.8834Z" fill="url(#paint3_linear_27208_3171)"/>
<path d="M21.6647 4.86679L20.4559 5.76291C21.7521 7.50877 22.5195 9.66828 22.5195 12.0039C22.5195 14.7663 21.4455 17.2814 19.6938 19.158L19.8808 19.2966L20.9119 20.0575C22.8456 17.9263 24.0261 15.101 24.0261 12.0044C24.0261 9.33316 23.1478 6.8634 21.6652 4.86728L21.6647 4.86679Z" fill="url(#paint4_linear_27208_3171)"/>
<path d="M16.7895 8.19561V9.7717L15.2815 10.8863L15.2205 10.9327L14.1542 11.72L13.0797 12.5141L12.0135 13.3019L10.9473 12.5141L9.87326 11.72L8.80704 10.9327L8.74602 10.8863L7.23701 9.7717V9.77024L4.20727 7.53073L2.99068 6.63122C2.73048 7.06683 2.50151 7.52292 2.30428 7.99609C1.79168 9.2317 1.50706 10.5858 1.50706 12.0039C1.50706 14.7663 2.58158 17.2829 4.33322 19.159L4.14868 19.2956L3.11517 20.058C1.17997 17.9263 0 15.1005 0 12.0034C0 10.2488 0.380304 8.58048 1.06085 7.07658C1.27077 6.61219 1.50755 6.16341 1.77361 5.73268C1.99574 5.3717 2.23642 5.02341 2.49565 4.68878L3.70491 5.58341L4.91661 6.47805L8.35058 9.01804H8.35107L8.74455 9.30975L9.87228 10.1429L10.9385 10.9322L12.0125 11.7249L13.0871 10.9322L14.1533 10.1429L15.281 9.30975L16.789 8.19512L16.7895 8.19561Z" fill="url(#paint5_linear_27208_3171)"/>
<path d="M32.1936 16.3939L32.838 8.24268H34.6102L36.6167 12.2963L38.6231 8.24268H40.3953L41.0397 16.3939H39.6776L39.1943 10.1744L37.3782 13.8329H35.8551L34.039 10.1744L33.5557 16.3939H32.1936ZM44.1662 8.24268H50.0391V9.60365H45.5282V11.6378H47.7837V12.9988H45.5282V15.0329H50.0391V16.3939H44.1662V8.24268ZM53.104 16.3939V8.24268H55.7549C57.2341 8.24268 58.5522 9.03292 59.2845 10.2768C59.6507 10.9061 59.8264 11.5793 59.8264 12.3256C59.8264 13.789 59.0356 15.1061 57.8053 15.8378C57.1755 16.2037 56.5018 16.3939 55.7549 16.3939H53.104ZM54.466 15.0329H55.7549C56.7362 15.0329 57.6296 14.5061 58.1129 13.6719C58.3618 13.2622 58.479 12.8085 58.479 12.3256C58.479 11.3305 57.9518 10.4524 57.1169 9.9695C56.6922 9.72072 56.2382 9.60365 55.7549 9.60365H54.466V15.0329ZM62.801 16.3939V8.24268H64.1631V16.3939H62.801ZM67.7332 16.3939V8.24268H69.0953V15.0329H73.0936V16.3939H67.7332ZM76.0418 8.24268H81.9148V9.60365H77.4039V11.6378H79.6594V12.9988H77.4039V15.0329H81.9148V16.3939H76.0418V8.24268ZM84.9797 16.3939V8.24268H87.6306C89.1099 8.24268 90.428 9.03292 91.1603 10.2768C91.5264 10.9061 91.7022 11.5793 91.7022 12.3256C91.7022 13.789 90.9113 15.1061 89.681 15.8378C89.0513 16.2037 88.3776 16.3939 87.6306 16.3939H84.9797ZM86.3418 15.0329H87.6306C88.6119 15.0329 89.5053 14.5061 89.9886 13.6719C90.2376 13.2622 90.3548 12.8085 90.3548 12.3256C90.3548 11.3305 89.8275 10.4524 88.9927 9.9695C88.5679 9.72072 88.1139 9.60365 87.6306 9.60365H86.3418V15.0329ZM94.955 14.3597C94.5889 13.7305 94.3985 13.0573 94.3985 12.3256C94.3985 10.8476 95.1893 9.51585 96.4342 8.78414C97.064 8.41829 97.7377 8.24268 98.4847 8.24268C99.7588 8.24268 100.974 8.85731 101.736 9.86707L100.652 10.6866C100.14 9.99877 99.3488 9.60365 98.4847 9.60365C96.9908 9.60365 95.7605 10.8329 95.7605 12.3256C95.7605 13.8037 96.9908 15.0329 98.4847 15.0329C99.1877 15.0329 99.876 14.7402 100.359 14.2573V13.4817H98.8069V12.1207H101.736V16.3793H100.359V15.9256C99.7881 16.2329 99.1584 16.3939 98.4847 16.3939C97.0054 16.3939 95.6727 15.6037 94.955 14.3597ZM104.93 8.24268H110.803V9.60365H106.292V11.6378H108.547V12.9988H106.292V15.0329H110.803V16.3939H104.93V8.24268ZM113.882 8.24268H117.471C118.423 8.24268 119.301 8.75487 119.785 9.57438C120.019 9.98414 120.136 10.4232 120.136 10.9061C120.136 11.8866 119.609 12.75 118.789 13.2183L120.107 16.3939H118.642L117.456 13.5695H115.244V16.3939H113.882V8.24268ZM115.244 9.60365V12.2085H117.471C118.188 12.2085 118.774 11.6232 118.774 10.9061C118.774 10.189 118.188 9.60365 117.471 9.60365H115.244Z" fill="currentColor"/>
<defs>
<linearGradient id="paint0_linear_27208_3171" x1="-1.56417" y1="7.36977" x2="15.6117" y2="24.7942" gradientUnits="userSpaceOnUse">
<stop stop-color="#03B3D9"/>
<stop offset="1" stop-color="#4489C9"/>
</linearGradient>
<linearGradient id="paint1_linear_27208_3171" x1="7.22627" y1="-1.29561" x2="24.4027" y2="16.1289" gradientUnits="userSpaceOnUse">
<stop stop-color="#03B3D9"/>
<stop offset="1" stop-color="#4489C9"/>
</linearGradient>
<linearGradient id="paint2_linear_27208_3171" x1="3.75814" y1="2.1234" x2="20.934" y2="19.5479" gradientUnits="userSpaceOnUse">
<stop stop-color="#03B3D9"/>
<stop offset="1" stop-color="#4489C9"/>
</linearGradient>
<linearGradient id="paint3_linear_27208_3171" x1="-0.876744" y1="6.6922" x2="16.2992" y2="24.1167" gradientUnits="userSpaceOnUse">
<stop stop-color="#03B3D9"/>
<stop offset="1" stop-color="#4489C9"/>
</linearGradient>
<linearGradient id="paint4_linear_27208_3171" x1="7.38547" y1="-1.45223" x2="24.5614" y2="15.9723" gradientUnits="userSpaceOnUse">
<stop stop-color="#03B3D9"/>
<stop offset="1" stop-color="#4489C9"/>
</linearGradient>
<linearGradient id="paint5_linear_27208_3171" x1="0.890956" y1="4.94975" x2="18.0673" y2="22.3737" gradientUnits="userSpaceOnUse">
<stop stop-color="#03B3D9"/>
<stop offset="1" stop-color="#4489C9"/>
</linearGradient>
</defs>
</svg>
