<svg width="100%" height="100%" viewBox="0 0 48 24" fill="none" xmlns="http://www.w3.org/2000/svg">
<g clip-path="url(#clip0_27181_2968)">
<mask id="mask0_27181_2968" style="mask-type:luminance" maskUnits="userSpaceOnUse" x="0" y="0" width="48" height="24">
<path d="M47.5 0H0.5V24H47.5V0Z" fill="white"/>
</mask>
<g mask="url(#mask0_27181_2968)">
<path fill-rule="evenodd" clip-rule="evenodd" d="M8.83306 14.6942C8.47028 14.6942 8.18622 14.9496 8.18622 15.3223C8.18622 15.6952 8.47175 15.9492 8.83306 15.9492C9.1942 15.9492 9.47996 15.6935 9.47996 15.3223C9.47996 14.9496 9.19566 14.6942 8.83306 14.6942ZM8.83306 15.7696C8.57438 15.7696 8.3825 15.5794 8.3825 15.3223C8.3825 15.0654 8.57291 14.8738 8.83306 14.8738C9.09009 14.8738 9.28344 15.0684 9.28344 15.3223C9.28344 15.5747 9.08839 15.7696 8.83306 15.7696ZM15.1276 12.4975H11.9785L12.3364 6.99007L10.2915 12.4975H7.36719L12.007 0.0491943H15.1186L14.7594 5.63214L16.8432 0.0491943H19.7677L15.1276 12.4975ZM15.5075 12.4975L20.1471 0.0491943H23.0714L18.4318 12.4975H15.5075Z" fill="currentColor"/>
<path fill-rule="evenodd" clip-rule="evenodd" d="M7.02991 8.20684C2.94352 13.0353 -0.911206 19.4601 2.49366 22.4186C5.79294 25.2856 9.91688 23.5881 12.7287 22.4564C15.5406 21.3246 46.6201 7.74464 46.6201 7.74464C46.92 7.59372 46.8639 7.40509 46.4889 7.49926C46.3378 7.53732 12.6539 16.7223 12.6539 16.7223C8.37951 17.9296 3.5058 15.2984 7.02991 8.20684Z" fill="currentColor"/>
<path fill-rule="evenodd" clip-rule="evenodd" d="M8.94312 15.3665C9.03383 15.3621 9.1048 15.315 9.1048 15.1887C9.1048 15.0258 8.99899 14.9848 8.82221 14.9848H8.56812V15.6602H8.73761V15.3727H8.7661L8.92044 15.6602H9.11525L8.94312 15.3665ZM8.83437 15.2571H8.73784V15.1004H8.81927C8.86927 15.1004 8.92655 15.1062 8.92655 15.1717C8.92655 15.2419 8.89341 15.2571 8.83437 15.2571ZM38.2288 0.0112305C37.8659 0.0112305 37.5819 0.266873 37.5819 0.639301C37.5819 1.01197 37.8677 1.2659 38.2288 1.2659C38.5899 1.2659 38.8757 1.01025 38.8757 0.639301C38.8759 0.266873 38.5918 0.0112305 38.2288 0.0112305ZM38.2288 1.0868C37.9701 1.0868 37.7781 0.896662 37.7781 0.639543C37.7781 0.382674 37.9686 0.191064 38.2288 0.191064C38.4858 0.191064 38.6794 0.385619 38.6794 0.639543C38.6794 0.891998 38.4843 1.0868 38.2288 1.0868Z" fill="currentColor"/>
<path fill-rule="evenodd" clip-rule="evenodd" d="M38.3392 0.683398C38.4299 0.678982 38.5011 0.631874 38.5011 0.505526C38.5011 0.342621 38.3951 0.301649 38.2185 0.301649H37.9644V0.976824H38.1336V0.689528H38.1624L38.3165 0.976824H38.5116L38.3392 0.683398ZM38.2302 0.573975H38.1336V0.417203H38.2154C38.2651 0.417203 38.3226 0.423337 38.3226 0.488843C38.3226 0.558764 38.2892 0.573975 38.2302 0.573975ZM36.302 2.12403L37.0879 0.0491943H28.1651L25.1014 3.78375L26.5158 0.0491943H23.554L18.9514 12.4975H21.8757L23.8408 7.29184L23.9754 12.4975L32.9481 12.4779L33.8022 10.0834H30.3908L31.5117 7.06568H34.3233L35.1884 4.74573H32.3768L33.3407 2.12403H36.302ZM26.8764 11.6675L26.689 5.17949L31.1104 0.295024L26.8764 11.6675Z" fill="currentColor"/>
</g>
</g>
<defs>
<clipPath id="clip0_27181_2968">
<rect width="47" height="24" fill="white" transform="translate(0.5)"/>
</clipPath>
</defs>
</svg>
