<svg width="2.8em" height="1em" viewBox="0 0 66 24" fill="none" xmlns="http://www.w3.org/2000/svg">
<path d="M42.8684 10.1022C41.787 10.1022 40.8858 10.6102 40.2549 11.3874V10.2815H39.4138V20.0251H40.2549V16.5282C40.8858 17.3351 41.787 17.8134 42.8684 17.8134C44.8511 17.8134 46.4733 16.0798 46.4733 13.9578C46.4433 11.8356 44.8511 10.1022 42.8684 10.1022ZM42.8684 17.0063C41.3363 17.0063 40.1048 15.6613 40.1048 13.9877C40.1048 12.3139 41.3363 10.9689 42.8684 10.9689C44.4004 10.9689 45.6322 12.3139 45.6322 13.9877C45.6021 15.6314 44.3704 17.0063 42.8684 17.0063Z" fill="currentColor"/>
<path d="M33.3755 7.26282C30.5216 7.26282 28.2085 9.68376 28.2085 12.6427C28.2085 15.6017 30.5216 18.0225 33.3755 18.0225C36.2294 18.0225 38.5426 15.6017 38.5426 12.6427C38.5426 9.68376 36.2294 7.26282 33.3755 7.26282ZM33.3755 17.2156C30.9723 17.2156 29.0196 15.1532 29.0196 12.6427C29.0196 10.1321 30.9723 8.0698 33.3755 8.0698C35.7787 8.0698 37.7315 10.1321 37.7315 12.6427C37.7315 15.1832 35.7787 17.2156 33.3755 17.2156Z" fill="currentColor"/>
<path d="M58.3698 10.1321C58.0692 10.1321 57.799 10.2217 57.5284 10.3711C56.9879 10.67 56.5972 11.0885 56.357 11.6563C56.357 11.6563 56.357 11.6862 56.327 11.6862C56.327 11.2378 56.327 10.7896 56.327 10.3412H55.4858C55.4858 12.7623 55.4858 15.1831 55.4858 17.6339C55.7561 17.6339 56.0564 17.6339 56.327 17.6339C56.327 17.6042 56.327 17.6042 56.327 17.5743C56.327 16.2592 56.327 15.0934 56.327 13.8082C56.327 13.2703 56.417 12.8221 56.5972 12.4036C56.7474 12.015 56.9879 11.6563 57.3182 11.3874C57.7089 11.0586 58.1593 10.9093 58.6701 10.9988C58.7602 10.9988 58.8203 11.0287 58.9104 11.0586C58.9704 10.8195 59.0605 10.5207 59.1208 10.2516C58.9104 10.162 58.58 10.1321 58.3698 10.1321Z" fill="currentColor"/>
<path d="M50.8293 10.1321C48.8465 10.1321 47.2244 11.8657 47.2244 13.9876C47.2244 16.1096 48.8465 17.8432 50.8293 17.8432C52.2412 17.8432 53.473 16.9466 54.0738 15.6614L53.3529 15.2429C52.9022 16.2891 51.9709 17.0062 50.8593 17.0062C49.4174 17.0062 48.2459 15.7808 48.0955 14.2566H53.9235H54.4342C54.4342 14.1669 54.4342 14.0774 54.4342 13.9876C54.4342 11.7161 52.9322 10.1321 50.8293 10.1321ZM50.8293 10.9689C52.3313 10.9689 53.3829 11.9851 53.5631 13.5093H48.0955C48.306 12.0748 49.4474 10.9689 50.8293 10.9689Z" fill="currentColor"/>
<path d="M65.1588 10.2815V11.3874C64.5279 10.5803 63.6267 10.1022 62.5454 10.1022C60.5626 10.1022 58.9404 11.8356 58.9404 13.9578C58.9404 16.0798 60.5626 17.8134 62.5454 17.8134C63.6267 17.8134 64.5279 17.3051 65.1588 16.5282V17.6339H65.9999V10.2815H65.1588ZM62.5454 17.0063C61.0131 17.0063 59.7815 15.6613 59.7815 13.9877C59.7815 12.3139 61.0131 10.9689 62.5454 10.9689C64.0774 10.9689 65.3089 12.3139 65.3089 13.9877C65.3089 15.6314 64.0774 17.0063 62.5454 17.0063Z" fill="currentColor"/>
<path d="M24.1529 12.015C24.1529 15.5717 22.5906 18.7697 20.1273 20.9814C17.0332 22.4757 14.1492 21.4296 13.188 20.772C16.2221 20.1147 18.5352 16.4384 18.5352 12.015C18.5352 7.59154 16.2221 3.91532 13.188 3.25777C14.1492 2.60024 17.0332 1.55417 20.1273 3.04856C22.5906 5.26028 24.1529 8.45828 24.1529 12.015Z" fill="currentColor"/>
<path d="M8.11106 5.23041C6.78926 6.78458 5.91807 9.11585 5.85798 11.7162V12.284C5.91807 14.8843 6.78926 17.2156 8.11106 18.7697C9.85343 21.0113 12.407 22.4159 15.2907 22.4159C17.0633 22.4159 18.7155 21.878 20.1274 20.9515C17.9945 22.8644 15.1706 24 12.0764 24C11.8962 24 11.686 24 11.5056 24C5.10696 23.731 0 18.4709 0 12.015C0 5.37985 5.40737 0 12.0764 0C12.1065 0 12.1065 0 12.1365 0C15.2006 0 17.9945 1.16564 20.1274 3.04858C18.7155 2.12206 17.0633 1.58408 15.2907 1.58408C12.407 1.58408 9.82338 3.0187 8.11106 5.23041Z" fill="currentColor"/>
</svg>
