<svg width="100%" height="100%" viewBox="0 0 90 24" fill="none" xmlns="http://www.w3.org/2000/svg">
<path fill="currentColor" opacity="0.85" d="M33.5402 4.90833H28.5764C28.2367 4.90833 27.9479 5.1556 27.8949 5.4916L25.8873 18.2458C25.8474 18.4974 26.0419 18.7243 26.2966 18.7243H28.6664C29.0061 18.7243 29.295 18.4771 29.3479 18.1403L29.8894 14.7003C29.9416 14.3636 30.2312 14.1163 30.5702 14.1163H32.1416C35.4113 14.1163 37.2984 12.5309 37.7912 9.38905C38.0133 8.01451 37.8007 6.93451 37.1583 6.17814C36.4529 5.3476 35.2016 4.90833 33.5402 4.90833ZM34.1129 9.56651C33.8414 11.3512 32.4805 11.3512 31.1646 11.3512H30.4156L30.9411 8.01814C30.9723 7.81669 31.1465 7.66832 31.3497 7.66832H31.693C32.5894 7.66832 33.435 7.66833 33.8719 8.18033C34.1325 8.48578 34.2123 8.9396 34.1129 9.56651Z"  />
<path fill="currentColor" opacity="0.85" d="M48.378 9.50903H46.001C45.7985 9.50903 45.6235 9.6574 45.5923 9.85885L45.4871 10.525L45.3209 10.2836C44.8063 9.53522 43.6588 9.28503 42.5135 9.28503C39.8868 9.28503 37.6433 11.2785 37.2064 14.0749C36.9792 15.4698 37.3022 16.8036 38.0918 17.7338C38.8162 18.589 39.8527 18.9454 41.0858 18.9454C43.2022 18.9454 44.3759 17.5818 44.3759 17.5818L44.2699 18.2436C44.23 18.4967 44.4245 18.7236 44.6778 18.7236H46.8189C47.1593 18.7236 47.4468 18.4763 47.5005 18.1396L48.7852 9.98758C48.8258 9.73667 48.632 9.50903 48.378 9.50903ZM45.0647 14.1447C44.8353 15.5054 43.7575 16.4189 42.3828 16.4189C41.6926 16.4189 41.141 16.197 40.7868 15.7767C40.4355 15.3592 40.3019 14.765 40.4137 14.1032C40.6278 12.7541 41.7238 11.8109 43.0774 11.8109C43.7524 11.8109 44.3011 12.0356 44.6626 12.4596C45.0247 12.8879 45.1685 13.4858 45.0647 14.1447Z"  />
<path fill="currentColor" opacity="0.85" d="M61.0375 9.50903H58.6488C58.4209 9.50903 58.2068 9.62249 58.0776 9.81231L54.7832 14.6749L53.3867 10.0021C53.2989 9.70976 53.0296 9.50903 52.7248 9.50903H50.3775C50.0923 9.50903 49.8941 9.78831 49.9849 10.0574L52.6159 17.7941L50.1424 21.293C49.9479 21.5687 50.1438 21.9476 50.4799 21.9476H52.8656C53.092 21.9476 53.304 21.837 53.4325 21.6509L61.3771 10.1599C61.5673 9.88503 61.3721 9.50903 61.0375 9.50903Z" />

<path fill="currentColor" opacity="0.7" d="M68.9457 4.90833H63.9812C63.6422 4.90833 63.3534 5.1556 63.3004 5.4916L61.2928 18.2458C61.2529 18.4974 61.4474 18.7243 61.7007 18.7243H64.2483C64.4849 18.7243 64.6874 18.5512 64.7244 18.3156L65.2942 14.7003C65.3464 14.3636 65.636 14.1163 65.975 14.1163H67.5456C70.8161 14.1163 72.7025 12.5309 73.196 9.38905C73.4189 8.01451 73.2047 6.93451 72.5624 6.17814C71.8576 5.3476 70.6071 4.90833 68.9457 4.90833ZM69.5184 9.56651C69.2476 11.3512 67.8868 11.3512 66.5702 11.3512H65.8218L66.3481 8.01814C66.3793 7.81669 66.552 7.66832 66.756 7.66832H67.0993C67.9949 7.66832 68.8412 7.66833 69.2781 8.18033C69.5387 8.48578 69.6178 8.9396 69.5184 9.56651Z" />
<path fill="currentColor" opacity="0.7" d="M83.7828 9.50903H81.4073C81.2033 9.50903 81.0298 9.6574 80.9994 9.85885L80.8941 10.525L80.7272 10.2836C80.2126 9.53522 79.0658 9.28503 77.9205 9.28503C75.2938 9.28503 73.0511 11.2785 72.6141 14.0749C72.3877 15.4698 72.7092 16.8036 73.4989 17.7338C74.2247 18.589 75.2597 18.9454 76.4928 18.9454C78.6093 18.9454 79.7829 17.5818 79.7829 17.5818L79.6769 18.2436C79.637 18.4967 79.8315 18.7236 80.0863 18.7236H82.2267C82.5657 18.7236 82.8545 18.4763 82.9075 18.1396L84.1929 9.98758C84.2321 9.73667 84.0376 9.50903 83.7828 9.50903ZM80.4695 14.1447C80.2416 15.5054 79.1623 16.4189 77.7877 16.4189C77.0989 16.4189 76.5458 16.197 76.1916 15.7767C75.8403 15.3592 75.7082 14.765 75.8186 14.1032C76.0341 12.7541 77.1286 11.8109 78.4823 11.8109C79.1573 11.8109 79.706 12.0356 80.0674 12.4596C80.4311 12.8879 80.5748 13.4858 80.4695 14.1447Z" />
<path fill="currentColor" opacity="0.7" d="M86.585 5.25814L84.5477 18.2458C84.5078 18.4974 84.7023 18.7243 84.9556 18.7243H87.0038C87.3442 18.7243 87.6331 18.477 87.6854 18.1403L89.6944 5.38687C89.7343 5.13523 89.5398 4.90759 89.2865 4.90759H86.9929C86.7904 4.90832 86.6162 5.05668 86.585 5.25814Z" />

<path fill="currentColor" opacity="0.6" d="M16.7284 5.57605C16.7081 5.70623 16.6849 5.83932 16.6588 5.97605C15.7609 10.595 12.6893 12.1906 8.76633 12.1906H6.76892C6.28916 12.1906 5.88488 12.5397 5.81013 13.0139L4.78746 19.5128L4.49787 21.355C4.44924 21.6662 4.68875 21.947 5.0023 21.947H8.54496C8.96448 21.947 9.32085 21.6415 9.3869 21.227L9.42174 21.0466L10.0888 16.8051L10.1316 16.5724C10.1969 16.1564 10.554 15.851 10.9735 15.851H11.5034C14.9357 15.851 17.6226 14.4546 18.4079 10.4139C18.736 8.72587 18.5662 7.31641 17.6981 6.32514C17.4354 6.02623 17.1095 5.77823 16.7284 5.57605Z" />
<path fill="currentColor" d="M15.7892 5.20072C15.652 5.16072 15.5105 5.12435 15.3653 5.09163C15.2194 5.05963 15.0699 5.03126 14.916 5.00653C14.3775 4.91926 13.7874 4.87781 13.1552 4.87781H7.81909C7.68772 4.87781 7.56288 4.90763 7.45111 4.96144C7.20506 5.07999 7.02216 5.31344 6.97788 5.59926L5.84272 12.8036L5.81006 13.0138C5.88482 12.5396 6.28909 12.1905 6.76885 12.1905H8.76627C12.6893 12.1905 15.7609 10.5942 16.6587 5.97599C16.6855 5.83926 16.708 5.70617 16.7284 5.57599C16.5012 5.45526 16.2551 5.35199 15.9902 5.26399C15.9249 5.24217 15.8574 5.22108 15.7892 5.20072Z" />
<path fill="currentColor" opacity="0.8" d="M6.9779 5.59927C7.02217 5.31345 7.20507 5.08 7.45112 4.96218C7.56362 4.90836 7.68773 4.87855 7.8191 4.87855H13.1552C13.7874 4.87855 14.3775 4.92 14.916 5.00727C15.0699 5.032 15.2194 5.06036 15.3653 5.09236C15.5105 5.12509 15.652 5.16145 15.7892 5.20145C15.8574 5.22182 15.9249 5.24291 15.991 5.264C16.2559 5.352 16.5019 5.456 16.7291 5.576C16.9962 3.86909 16.7269 2.70691 15.8059 1.65455C14.7905 0.496 12.9578 0 10.6127 0H3.80467C3.32564 0 2.91701 0.349091 2.84298 0.824L0.00724995 18.8349C-0.0486371 19.1913 0.225718 19.5127 0.584266 19.5127H4.78741L5.84273 12.8036L6.9779 5.59927Z"  />
</svg>
