<svg width="100%" height="100%" viewBox="0 0 156 24" fill="none" xmlns="http://www.w3.org/2000/svg">
<path d="M0 17.4765V15.7665H5.99097V17.9415C5.98633 18.2273 6.04296 18.5107 6.15704 18.7727C6.27112 19.0348 6.44001 19.2693 6.65234 19.4606C6.86466 19.6519 7.11551 19.7955 7.38798 19.8817C7.66045 19.968 7.94824 19.9948 8.23196 19.9605C8.71664 20.0263 9.20834 19.9075 9.60954 19.6277C10.0107 19.3479 10.2921 18.9275 10.3979 18.45C10.5584 17.9029 10.5447 17.3195 10.3589 16.7805C9.19946 13.8645 1.27649 12.5445 0.269999 7.9995C0.065086 7.00106 0.0523581 5.97271 0.232498 4.9695C0.850495 1.32 4.05748 0 8.03846 0C11.2079 0 15.5759 0.737999 15.5759 5.631V7.224H10.011V5.826C10.0278 5.55045 9.9847 5.27452 9.88475 5.01719C9.78481 4.75985 9.63033 4.5272 9.43194 4.33523C9.23356 4.14325 8.99596 3.9965 8.73548 3.90506C8.475 3.81362 8.19781 3.77965 7.92296 3.8055C7.45362 3.75382 6.98206 3.88113 6.60249 4.16198C6.22292 4.44283 5.96329 4.85656 5.87547 5.3205C5.81292 5.70786 5.82617 6.10369 5.91447 6.486C6.56997 9.087 15.0359 10.4865 15.9644 15.186C16.1965 16.404 16.2092 17.6536 16.0019 18.876C15.4604 22.602 12.1364 24 8.11796 24C3.89998 24 0 22.485 0 17.4765ZM72.5876 17.4V15.69H78.5021V17.826C78.4928 18.1092 78.5448 18.391 78.6545 18.6523C78.7641 18.9136 78.9289 19.1481 79.1376 19.3398C79.3462 19.5315 79.5938 19.6758 79.8634 19.763C80.133 19.8502 80.4182 19.8782 80.6996 19.845C81.1799 19.9166 81.6696 19.8044 82.0709 19.5308C82.4721 19.2572 82.7554 18.8423 82.8641 18.369C83.0244 17.8347 83.0113 17.2634 82.8266 16.737C81.7046 13.8645 73.8581 12.537 72.8546 7.9995C72.6494 7.01429 72.6361 5.99873 72.8156 5.0085C73.4381 1.398 76.6496 0.0780001 80.5496 0.0780001C83.6816 0.0780001 88.0091 0.855 88.0091 5.67V7.224H82.4831V5.865C82.5007 5.59284 82.4596 5.32007 82.3625 5.0652C82.2655 4.81032 82.1147 4.5793 81.9205 4.38781C81.7263 4.19631 81.4932 4.04882 81.237 3.95534C80.9808 3.86186 80.7075 3.82457 80.4356 3.846C79.9748 3.7849 79.5083 3.90442 79.1336 4.17954C78.759 4.45466 78.5053 4.86405 78.4256 5.322C78.3624 5.70926 78.3752 6.10511 78.4631 6.4875C79.0811 9.0885 87.4631 10.449 88.3976 15.108C88.6294 16.3129 88.6421 17.5496 88.4351 18.759C87.8936 22.488 84.6086 23.847 80.6351 23.847C76.4546 23.85 72.5876 22.3305 72.5876 17.4ZM93.769 18.2175C93.7152 17.7269 93.7027 17.2327 93.7315 16.74V0.659999H99.3745V17.2425C99.3672 17.528 99.3797 17.8137 99.412 18.0975C99.5379 18.5651 99.8145 18.9782 100.199 19.2727C100.583 19.5673 101.054 19.7269 101.538 19.7269C102.023 19.7269 102.493 19.5673 102.878 19.2727C103.262 18.9782 103.539 18.5651 103.664 18.0975C103.698 17.8138 103.711 17.5281 103.703 17.2425V0.659999H109.349V16.737C109.349 17.1645 109.31 17.9805 109.31 18.2145C108.925 22.4145 105.638 23.7645 101.542 23.7645C97.4455 23.7645 94.156 22.407 93.769 18.2145V18.2175ZM140.23 17.9835C140.172 17.4911 140.146 16.9957 140.152 16.5V7.068C140.152 6.6795 140.189 5.9805 140.228 5.5905C140.731 1.398 144.094 0.0780001 148.075 0.0780001C152.018 0.0780001 155.495 1.398 155.884 5.592C155.93 6.08306 155.943 6.57672 155.921 7.0695V7.8H150.278V6.564C150.279 6.27725 150.254 5.99103 150.202 5.709C150.053 5.23552 149.758 4.82176 149.358 4.52799C148.958 4.23423 148.475 4.07581 147.979 4.07581C147.483 4.07581 146.999 4.23423 146.6 4.52799C146.2 4.82176 145.904 5.23552 145.756 5.709C145.69 6.05495 145.665 6.40723 145.679 6.759V17.01C145.673 17.2956 145.686 17.5812 145.718 17.865C145.852 18.3735 146.163 18.8175 146.595 19.1172C147.027 19.4169 147.552 19.5527 148.075 19.5C148.589 19.5547 149.105 19.4189 149.525 19.1183C149.945 18.8178 150.24 18.3734 150.355 17.8695C150.407 17.5876 150.42 17.2999 150.394 17.0145V13.7475H148.114V10.485H155.999V16.5C156.005 16.9932 155.979 17.4862 155.921 17.976C155.536 22.053 152.021 23.49 148.075 23.49C144.128 23.49 140.615 22.0575 140.23 17.9805V17.9835ZM61.5732 23.067L61.4232 2.3295L57.5532 23.067H51.9102L48.0823 2.3295L47.9323 23.067H42.3628L42.8263 0.698999H51.9102L54.7317 18.1755L57.5532 0.698999H66.6357L67.1382 23.067H61.5732ZM31.8883 23.067L28.8734 2.3295L25.7804 23.067H19.7519L23.8499 0.698999H33.7843L37.8823 23.067H31.8883ZM126.353 22.8345L120.749 4.233L121.058 22.833H115.568V0.698999H123.839L129.089 18.7185L128.788 0.698999H134.315V22.836L126.353 22.8345Z" fill="currentColor"/>
</svg>
