<svg width="2em" height="1em" viewBox="0 0 49 24" fill="none" xmlns="http://www.w3.org/2000/svg">
<g clip-path="url(#clip0_27181_2999)">
<path d="M49 0H0V24H24.7692" fill="url(#paint0_linear_27181_2999)"/>
<path d="M24.2307 4.79998V16.1066L20.0307 4.79998H15.8307L12.2769 14.1866C11.8461 11.84 9.3692 10.9866 7.43073 10.3466C6.13843 9.91998 4.73843 9.38665 4.73843 8.63998C4.73843 8.10665 5.49227 7.57331 6.89227 7.67998C7.8615 7.78665 8.72304 7.78665 10.4461 8.63998L12.1692 5.75998C10.5538 4.90665 8.39996 4.47998 6.67689 4.47998C4.63073 4.47998 2.90766 5.11998 1.83073 6.18665C1.07689 6.93331 0.75381 7.89331 0.646118 8.95998C0.646118 10.4533 1.18458 11.52 2.3692 12.3733C3.33843 13.0133 4.52304 13.44 5.59996 13.76C6.99996 14.1866 8.07689 14.6133 8.07689 15.36C7.9692 16.32 6.89227 16.5333 6.13843 16.5333C4.84612 16.64 3.7692 16.4266 2.15381 15.4666L0.646118 18.3466C2.2615 19.3066 3.98458 19.7333 6.03073 19.7333C7.43073 19.7333 9.58458 19.3066 10.7692 18.24L10.5538 19.2H14.6461L15.4 17.3866C17.0153 17.8133 18.8461 17.92 20.4615 17.3866L21 19.2H28.323V14.9333H29.8307C33.6 14.9333 35.8615 13.12 35.8615 9.91998C35.8615 6.29331 33.7077 4.79998 29.0769 4.79998H24.2307ZM16.3692 14.1866L17.8769 9.38665H17.9846L19.4923 14.1866C18.4153 14.5066 17.3384 14.5066 16.3692 14.1866ZM28.323 11.7333V7.89331H29.4C30.8 7.89331 31.8769 8.31998 31.8769 9.70665C31.8769 11.2 30.8 11.7333 29.4 11.7333H28.323Z" fill="white"/>
</g>
<defs>
<linearGradient id="paint0_linear_27181_2999" x1="0" y1="0" x2="0" y2="24" gradientUnits="userSpaceOnUse">
<stop stop-color="#00AAEE"/>
<stop offset="1" stop-color="#0055AA"/>
</linearGradient>
<clipPath id="clip0_27181_2999">
<rect width="49" height="24" fill="white"/>
</clipPath>
</defs>
</svg>
