<svg width="6.3em" height="1em" viewBox="0 0 152 24" fill="none" xmlns="http://www.w3.org/2000/svg">
<path fill-rule="evenodd" clip-rule="evenodd" d="M149.658 0.842139V5.33445C147.33 4.45585 145.258 4.01162 143.445 4.01162C142.371 4.01162 141.515 4.21054 140.872 4.59512C140.229 4.98301 139.901 5.46045 139.901 6.02406C139.901 6.77333 140.627 7.43968 142.089 8.03651L146.312 10.092C149.727 11.7199 151.422 13.8815 151.422 16.5968C151.422 18.8545 150.523 20.6548 148.71 21.9876C146.909 23.3337 144.486 24 141.469 24C140.076 24 138.826 23.9404 137.716 23.8143C136.605 23.695 135.329 23.4496 133.913 23.0982V18.397C136.509 19.2756 138.873 19.7199 141.001 19.7199C143.541 19.7199 144.804 18.9838 144.804 17.4986C144.804 16.7592 144.287 16.1625 143.236 15.695L138.545 13.6958C136.814 12.9134 135.528 11.9652 134.685 10.8413C133.857 9.70745 133.436 8.40783 133.436 6.92254C133.436 4.84374 134.311 3.16949 136.041 1.89637C137.785 0.633204 140.1 0 142.977 0C143.912 0 144.99 0.0828504 146.183 0.235371C147.387 0.397834 148.544 0.59675 149.658 0.842139Z" fill="currentColor"/>
<path fill-rule="evenodd" clip-rule="evenodd" d="M16.7908 0.842139V5.33445C14.4634 4.45585 12.3946 4.01162 10.5811 4.01162C9.50358 4.01162 8.65157 4.21054 8.00835 4.59512C7.3652 4.98301 7.03697 5.46045 7.03697 6.02406C7.03697 6.77333 7.77298 7.43968 9.23507 8.03651L13.4589 10.092C16.8604 11.7199 18.5579 13.8815 18.5579 16.5968C18.5579 18.8545 17.6561 20.6548 15.8559 21.9876C14.0424 23.3337 11.6321 24 8.60518 24C7.21268 24 5.95946 23.9404 4.84881 23.8143C3.73816 23.695 2.47499 23.4496 1.04943 23.0982V18.397C3.65531 19.2756 6.01919 19.7199 8.13436 19.7199C10.674 19.7199 11.9371 18.9838 11.9371 17.4986C11.9371 16.7592 11.4232 16.1625 10.3822 15.695L5.69095 13.6958C3.94702 12.9134 2.66065 11.9652 1.83184 10.8413C0.989702 9.70745 0.578613 8.40783 0.578613 6.92254C0.578613 4.84374 1.44726 3.16949 3.1878 1.89637C4.91848 0.633204 7.23588 0 10.1137 0C11.0585 0 12.1228 0.0828504 13.3295 0.235371C14.5231 0.397834 15.6802 0.59675 16.7908 0.842139Z" fill="currentColor"/>
<path fill-rule="evenodd" clip-rule="evenodd" d="M21.6313 0.420898H28.5108V23.5788H21.6313V0.420898Z" fill="currentColor"/>
<path fill-rule="evenodd" clip-rule="evenodd" d="M50.6739 0.420898V4.70111H40.4525V9.83656H49.3179V13.6957H40.4525V19.0865H50.8827V23.5788H33.8318V0.420898H50.6739Z" fill="currentColor"/>
<path fill-rule="evenodd" clip-rule="evenodd" d="M82.7899 0.420898V23.5788H76.3677V8.30488L69.7042 23.791H65.739L59.3304 8.30488V23.5788H54.6855V0.420898H63.0834L68.8156 14.5975L74.8132 0.420898H82.7899Z" fill="currentColor"/>
<path fill-rule="evenodd" clip-rule="evenodd" d="M104.944 0.420898V4.70111H94.7781V9.83656H103.643V13.6957H94.7781V19.0865H105.152V23.5788H88.1016V0.420898H104.944Z" fill="currentColor"/>
<path fill-rule="evenodd" clip-rule="evenodd" d="M129.083 0.420898V23.5788H121.786L113.597 8.72591V23.5788H108.955V0.420898H116.465L124.441 15.0186V0.420898H129.083Z" fill="currentColor"/>
</svg>
