<svg width="5.7em" height="1em" viewBox="0 0 136 24" fill="none" xmlns="http://www.w3.org/2000/svg">
<g clip-path="url(#clip0_27181_3011)">
<path d="M48.4514 24C43.52 24 38.9504 22.5273 35.904 19.7809C34.8146 18.7995 33.9466 17.5963 33.358 16.2517C32.7693 14.907 32.4736 13.452 32.4904 11.9836C32.487 10.5213 32.789 9.07454 33.3769 7.73633C33.9648 6.39811 34.8257 5.19814 35.904 4.21364C38.7328 1.63636 43.7376 0 48.4514 0C53.6656 0 57.8408 1.31727 61.0314 4.21909C62.1055 5.20326 62.9605 6.40345 63.5408 7.74135C64.121 9.07926 64.4133 10.5248 64.3987 11.9836C64.3915 13.4439 64.0894 14.8876 63.5106 16.2277C62.9319 17.5678 62.0885 18.7765 61.0314 19.7809C58.0584 22.5436 53.3909 24 48.4514 24V20.8418C51.0653 20.8418 53.4915 19.9364 55.1861 18.2455C56.8807 16.5545 57.6504 14.5036 57.6504 11.9727C57.6504 9.55636 56.8045 7.29818 55.1861 5.7C53.5133 4.05 51.0299 3.12 48.4514 3.12C45.8728 3.12 43.3786 4.04182 41.7058 5.7C40.0928 7.30091 39.2578 9.56727 39.2578 11.9727C39.2336 13.1284 39.4374 14.2775 39.8575 15.354C40.2776 16.4305 40.9057 17.4131 41.7058 18.2455C43.3786 19.9173 45.8565 20.8418 48.4514 20.8418V24ZM12.444 0C9.80834 0 6.81362 0.496364 4.28402 1.63636C1.92306 2.69455 1.67606e-05 4.39364 1.67606e-05 7.21091C-0.00353035 8.68624 0.556062 10.107 1.56402 11.1818C2.24674 11.8145 3.34834 12.8891 6.2261 13.5218C7.51266 13.7945 10.2626 14.2336 13.0016 14.5227C15.7407 14.8118 18.3954 15.0682 19.4834 15.36C20.3483 15.5809 21.8035 15.8809 21.8035 17.5173C21.8035 19.1536 20.2722 19.6445 20.0056 19.7509C19.7391 19.8573 17.9003 20.7027 14.5983 20.7027C12.4104 20.6418 10.2425 20.2681 8.16002 19.5927C6.92786 19.1509 5.63586 18.57 4.4309 17.0945C3.94461 16.3997 3.67483 15.5759 3.6557 14.7273H0.663697V23.1273H3.98754V21.99C3.98701 21.9056 4.00892 21.8227 4.05101 21.7496C4.0931 21.6766 4.15385 21.6161 4.227 21.5744C4.30015 21.5328 4.38306 21.5114 4.46719 21.5125C4.55131 21.5137 4.63361 21.5373 4.70562 21.5809C6.27158 22.2641 7.90046 22.7921 9.56898 23.1573C11.3152 23.5227 12.444 23.7873 14.6146 23.7873C16.905 23.8309 19.1877 23.5078 21.3765 22.83C22.83 22.4305 24.1937 21.7557 25.3939 20.8418C26.069 20.3219 26.6147 19.652 26.988 18.885C27.3613 18.1179 27.5521 17.2744 27.5455 16.4209C27.5568 14.7994 26.9326 13.2383 25.8074 12.0736C25.1817 11.4648 24.4568 10.9676 23.664 10.6036C22.8118 10.2176 21.927 9.90816 21.0202 9.67909C19.2957 9.25636 15.4224 8.72727 13.5701 8.54182C11.628 8.34 8.25794 8.05909 6.91154 7.64182C6.50354 7.51364 5.67122 7.11818 5.67122 6.15C5.67122 5.46 6.05202 4.87636 6.80274 4.40455C7.99682 3.65455 10.4067 3.18818 12.92 3.18818C15.3527 3.15874 17.7655 3.63125 20.0083 4.57636C20.6109 4.83958 21.1776 5.17867 21.6947 5.58545C22.5377 6.30738 23.1215 7.28644 23.3567 8.37273H26.0413V1.06091H23.0493V1.90909C23.0493 2.18182 22.7773 2.54182 22.2333 2.24455C20.8842 1.54091 17.0925 0.0190909 12.444 0ZM78.1293 1.34182L92.752 14.5718L92.6024 5.66455C92.5861 4.49455 92.3739 4.00636 91.1118 4.00636H88.3646V1.34182H100.877V4.00636H98.192C96.9082 4.00636 96.832 4.42091 96.8103 5.66455L97.036 22.6855H92.752L75.907 7.61455V18.3082C75.9206 19.4727 75.975 20.0209 77.1691 20.0209H80.1611V22.6855H67.8967V20.0209H70.769C71.8406 20.0209 71.7971 18.9955 71.7971 18.2482V5.76545C71.7971 4.94727 71.6829 4.00909 70.0019 4.00909H67.6736V1.34182H78.1293ZM115.151 20.0155C115.399 20.0155 115.646 20 115.891 19.9691C116.019 19.9307 116.136 19.865 116.236 19.7764C116.335 19.6879 116.414 19.5787 116.468 19.4564C116.505 19.2669 116.524 19.0741 116.525 18.8809V14.6673C116.525 14.5255 116.525 14.5227 116.345 14.2991C116.166 14.0755 108.686 5.57182 108.346 5.19C107.921 4.72636 107.176 4.00909 106.042 4.00909H103.444V1.34182H118.105V4.00364H116.337C115.929 4.00364 115.657 4.39364 116.005 4.82182C116.005 4.82182 120.939 10.74 120.986 10.8027C121.032 10.8655 121.073 10.8791 121.135 10.8218C121.198 10.7645 126.192 4.87636 126.23 4.82182C126.289 4.74414 126.324 4.65111 126.332 4.55377C126.34 4.45643 126.32 4.35888 126.274 4.27271C126.228 4.18654 126.159 4.11538 126.074 4.06768C125.989 4.01999 125.892 3.99776 125.795 4.00364H123.98V1.34182H136V4.00909H133.315C132.342 4.00909 131.955 4.18909 131.213 5.01818L123.121 14.2745C123.042 14.3891 123.007 14.5288 123.023 14.6673V18.8782C123.024 19.0715 123.044 19.2642 123.083 19.4536C123.135 19.5761 123.214 19.6855 123.313 19.7741C123.412 19.8627 123.529 19.9283 123.657 19.9664C123.9 19.9986 124.145 20.0141 124.391 20.0127H127.136V22.68H112.551V20.0127L115.151 20.0155Z" fill="currentColor"/>
</g>
<defs>
<clipPath id="clip0_27181_3011">
<rect width="136" height="24" fill="white"/>
</clipPath>
</defs>
</svg>
