<svg width="3.8em" height="1em" viewBox="0 0 90 24" fill="none" xmlns="http://www.w3.org/2000/svg">
<path d="M81.8109 6.11682L77.8886 11.0886H77.4053L79.4687 6.11731" fill="currentColor"/>
<path d="M6.47024 18.1661C5.14929 18.1661 3.98263 17.8375 3.12404 17.3996L2.26545 18.1661H1.86922L1.60522 13.3037L2.06709 13.2602C3.45416 16.4143 5.08318 17.4211 6.60248 17.4211C8.18742 17.4211 9.11213 16.3922 9.11213 15.0126C9.11213 13.6981 8.60569 13.063 6.53636 12.2091C5.83205 11.9241 5.01754 11.6392 4.33479 11.3105C2.79393 10.5445 1.97942 9.33946 1.97942 7.74065C1.97942 5.13386 4.24662 3.55715 6.47024 3.55715C7.57127 3.55715 8.31966 3.86358 9.04601 4.27993L9.9046 3.53552H10.2788L10.6535 7.82839L10.2131 7.89421C9.00191 5.48455 7.70302 4.30205 6.27237 4.30205C5.01753 4.30205 4.18099 5.13389 4.18099 6.42624C4.18099 7.45566 4.62081 8.24436 6.18418 8.92361C6.95463 9.27379 7.8573 9.58028 8.67182 9.97465C10.4551 10.8291 11.2917 11.9462 11.2917 13.5667C11.2917 16.4579 8.84813 18.1661 6.47024 18.1661Z" fill="currentColor"/>
<path d="M18.028 18.1869C14.6818 18.1869 13.0308 15.7999 13.0308 12.8871C13.0308 10.1931 14.9243 7.6084 18.3145 7.6084C21.6612 7.6084 23.2677 9.97384 23.2677 12.865C23.2677 15.5811 21.4183 18.1869 18.028 18.1869ZM18.1162 8.22195C16.5753 8.22195 15.6286 9.93017 15.6286 12.9308C15.6286 15.8876 16.641 17.5733 18.2043 17.5733C19.8113 17.5733 20.692 15.8656 20.692 12.865C20.692 9.90805 19.7452 8.22195 18.1162 8.22195Z" fill="currentColor"/>
<path d="M28.046 18.0994C26.3067 18.0994 25.7567 17.246 25.7567 15.6692V9.11968H24.1267V8.8132L26.1529 7.21423L27.7599 5.1333H28.09V7.98091H31.4362V9.11968H28.09V14.7928C28.09 15.6692 28.2223 16.195 28.6631 16.501C29.0368 16.7639 29.5437 16.8516 30.2696 16.8516C30.6217 16.8516 31.062 16.8295 31.4803 16.8081L31.5024 17.1146C30.6438 17.6399 29.2347 18.0994 28.046 18.0994Z" fill="currentColor"/>
<path d="M38.3273 9.27309C37.4907 9.27309 36.8515 9.42651 36.037 9.82088V17.0707L37.2698 17.5303V17.8369H32.2946V17.5303L33.6821 17.0707V3.8413L32.1633 2.8556V2.63622L35.9498 1.60681L36.037 1.67263V9.33877L36.1257 9.38251C37.4246 8.15584 38.6133 7.60851 39.802 7.60851C41.7837 7.60851 42.6202 9.09797 42.6202 10.6532V17.0708L44.0068 17.5303V17.8369H39.0316V17.5303L40.2643 17.0708V11.5507C40.2643 10.1275 39.6923 9.27309 38.3273 9.27309Z" fill="currentColor"/>
<path d="M47.2672 12.1427C47.2672 14.9246 48.0597 16.7426 50.5473 16.7426C51.6483 16.7426 52.5515 16.5234 53.8715 16.0418L54.0037 16.3047C52.6607 17.4646 51.164 18.1875 49.7549 18.1875C46.7388 18.1875 44.7566 16.1291 44.7566 13.0848C44.7566 9.95287 47.1345 7.60901 49.821 7.60901C52.7269 7.60901 54.1364 9.558 54.1139 12.1427H47.2672ZM51.6483 11.3982C51.5602 9.33924 50.9656 8.22256 49.6667 8.22256C48.3898 8.22256 47.3994 9.558 47.2893 11.5954L51.6483 11.3982Z" fill="currentColor"/>
<path d="M59.9703 18.187C58.8256 18.187 57.3068 17.9246 56.2498 17.6176V3.8413L54.709 2.85555V2.63622L58.5175 1.60681L58.6057 1.67258V9.01016L58.6935 9.0544C59.4643 8.28776 60.5208 7.60851 61.8859 7.60851C63.9772 7.60851 65.8702 9.51444 65.8702 12.6464C65.8702 15.7784 63.4928 18.187 59.9703 18.187ZM60.3454 9.14161C59.6843 9.14161 59.1337 9.27306 58.6057 9.49228V16.4356C59.288 17.1365 60.1686 17.4425 61.0052 17.4425C62.3042 17.4425 63.3826 16.2821 63.3826 13.1937C63.3826 10.478 62.2159 9.14161 60.3454 9.14161Z" fill="currentColor"/>
<path d="M71.9029 18.5156C70.8024 21.2097 69.7684 22.3927 68.4029 22.3927C67.2363 22.3927 66.6857 21.7139 66.6857 21.0126C66.6857 20.3338 67.3019 19.7643 68.0066 19.7643C68.7551 19.7643 69.1954 20.1582 69.7238 20.8155C70.1421 20.3553 70.648 19.5671 70.9346 18.9536L71.3088 18.1213L67.4121 8.7694L66.0691 8.24374V7.95923H71.4415V8.24374L70.0319 8.7694L72.4093 15.187H72.5195L74.677 8.92296L73.4002 8.24374V7.95923H77.1872V8.24374L75.7555 8.96657L71.9029 18.5156Z" fill="currentColor"/>
<path d="M84.4541 18.187C83.2434 18.187 82.2093 17.9899 81.196 17.596L81.1741 14.7052L81.6143 14.6612C82.8031 16.7422 83.7062 17.5302 84.8724 17.5302C85.9078 17.5302 86.5455 16.8736 86.5455 15.8657C86.5455 14.7268 85.3794 14.2889 84.1245 13.7852C82.737 13.1937 81.2627 12.537 81.2627 10.7189C81.2627 8.98858 82.8031 7.60852 85.0492 7.60852C85.9078 7.60852 87.1185 7.78399 87.7121 8.00284L87.7783 10.609L87.36 10.7189C86.282 8.94451 85.5777 8.26568 84.5648 8.26568C83.6396 8.26568 83.068 8.87873 83.068 9.66733C83.068 10.8068 84.2568 11.2663 85.5115 11.77C86.8976 12.3394 88.3953 12.9966 88.3953 14.8583C88.3953 16.8957 86.59 18.187 84.4541 18.187Z" fill="currentColor"/>
</svg>
