<svg width="100%" height="100%" viewBox="0 0 105 24" fill="none" xmlns="http://www.w3.org/2000/svg">
<path d="M87.4612 12.7906L89.0776 8.25767L86.4422 0.843323H80.2928L84.5447 12.7906C84.8609 13.5988 85.7745 13.9853 86.5827 13.6691C87.0044 13.5285 87.3207 13.2123 87.4612 12.7906Z" fill="currentColor"/>
<path d="M95.1213 0.983881C94.9456 0.456795 94.4888 0.0702648 93.9266 0.0351257C93.3292 0.0702648 92.8373 0.456795 92.6616 1.01902L92.6264 1.15958L90.4126 7.48461L88.4097 13.1069C88.3043 13.3528 88.1989 13.5988 88.0232 13.8096H93.2238C93.8563 13.8096 94.4536 13.4231 94.6996 12.8258L94.7348 12.6852L96.9485 6.36016L97.0188 6.18447L95.1213 0.983881Z" fill="currentColor"/>
<path d="M98.2138 6.85212H104.363L102.255 0.983894C102.009 0.38653 101.447 0 100.779 0H95.6135C95.7892 0.210835 95.9298 0.421669 96.0001 0.667643L98.2138 6.85212Z" fill="currentColor"/>
<path d="M6.2899 24C4.53294 24 3.09224 23.6135 2.00293 22.8053C0.913616 21.9971 0.175695 20.7672 0 19.3968L2.49488 19.0103C3.09224 18.94 3.65447 19.2211 3.97072 19.713C4.14641 19.959 4.35725 20.205 4.60322 20.3807C5.16545 20.7672 5.83309 20.978 6.53587 20.9429C7.06296 20.978 7.59004 20.8375 8.01171 20.5564C8.3631 20.3104 8.5388 19.9239 8.5388 19.5022C8.5388 19.2562 8.46852 19.0454 8.32797 18.8697C8.04685 18.6237 7.7306 18.448 7.41435 18.3778C6.9224 18.2021 6.18448 17.9912 5.16545 17.7452C4.21669 17.5344 3.30307 17.183 2.4246 16.7614C1.82723 16.4802 1.30015 16.0234 0.948756 15.4612C0.632504 14.899 0.456808 14.2665 0.491947 13.634C0.491947 12.7906 0.737921 11.9824 1.19473 11.2797C1.68668 10.5769 2.35432 10.0498 3.12738 9.73354C4.07613 9.34701 5.06003 9.17131 6.07906 9.20645C7.06296 9.17131 8.08199 9.34701 8.99561 9.73354C9.80381 10.0498 10.5066 10.5417 11.0688 11.1742C11.5959 11.8067 11.9473 12.5798 12.0527 13.388L9.55783 13.8448C8.99561 13.9502 8.43338 13.6691 8.11713 13.2123C8.01171 13.0717 7.87116 12.9312 7.7306 12.8258C7.27379 12.5095 6.71157 12.2987 6.14934 12.2987C5.62225 12.2284 5.06003 12.3338 4.56808 12.5447C4.21669 12.7204 3.97072 13.0717 3.97072 13.4934C3.97072 13.7394 4.041 13.9502 4.21669 14.0908C4.53294 14.3368 4.88433 14.5125 5.27086 14.6179C5.79795 14.7936 6.60615 15.0044 7.69546 15.2855C8.57394 15.4963 9.45242 15.8126 10.2606 16.2694C10.8228 16.5857 11.3148 17.0425 11.6662 17.6047C11.9824 18.1669 12.123 18.8346 12.123 19.4671C12.1581 20.7672 11.5959 22.0322 10.5769 22.8404C9.55783 23.5783 8.11713 24 6.2899 24Z" fill="currentColor"/>
<path d="M16.4451 23.5783L12.2284 9.62809H15.0395C15.4261 9.62809 15.7423 9.87407 15.8477 10.2606L18.1669 17.9209L20.7321 9.52267H23.0512C23.4378 9.52267 23.754 9.76865 23.8594 10.1552L26.2489 17.9209L28.814 9.52267H32.328L28.2167 22.9809C28.1113 23.3323 27.7599 23.5783 27.3733 23.6134H25.3001L22.243 14.4421L19.3616 23.0161C19.2562 23.3675 18.9048 23.6134 18.5534 23.6134L16.4451 23.5783Z" fill="currentColor"/>
<path d="M46.5944 23.5783V10.4011C46.5944 9.9092 46.9809 9.52267 47.4728 9.52267H49.7217V12.9663L49.3703 12.5095C49.546 12.0175 49.792 11.5959 50.1083 11.1742C50.4245 10.7877 50.8111 10.4363 51.2327 10.1903C51.5841 9.97948 51.9706 9.80378 52.3572 9.69836C52.7437 9.59295 53.1654 9.52267 53.587 9.48753C54.0087 9.45239 54.4304 9.45239 54.852 9.52267V12.8257C54.3952 12.6852 53.9384 12.65 53.4816 12.7203C52.9897 12.7555 52.5329 12.8609 52.0761 13.0717C51.2679 13.4231 50.6354 14.1259 50.3542 14.9341C50.2137 15.3909 50.1083 15.8828 50.1434 16.3748V22.6998C50.1434 23.1918 49.7569 23.5783 49.2649 23.5783H46.5944Z" fill="currentColor"/>
<path d="M56.2578 23.5783V9.52269H58.5067C58.9987 9.52269 59.35 9.90922 59.35 10.4012V14.1962H59.8069V22.735C59.8069 23.2269 59.4203 23.6135 58.9284 23.6135L56.2578 23.5783ZM64.7615 23.5783V15.2855C64.7966 14.5124 64.5858 13.7394 64.0938 13.1069C63.1451 12.123 61.5638 12.0878 60.5799 13.0366C60.5448 13.0717 60.5096 13.1069 60.5096 13.1069C60.0528 13.6691 59.8069 14.3719 59.842 15.0747L58.3662 14.0205C58.3662 13.142 58.6121 12.2987 59.0689 11.5608C59.5257 10.8228 60.1582 10.2255 60.9313 9.83894C61.7395 9.41727 62.618 9.1713 63.5316 9.20643C64.4804 9.1713 65.4291 9.41727 66.2373 9.90922C66.9401 10.366 67.4672 11.0337 67.8186 11.7716C68.17 12.5798 68.3457 13.4583 68.3105 14.3367V22.735C68.3105 23.2269 67.924 23.6135 67.432 23.6135L64.7615 23.5783ZM73.23 23.5783V15.2855C73.2651 14.5124 73.0543 13.7394 72.5623 13.1069C72.1055 12.5798 71.4379 12.2987 70.7351 12.3338C70.2783 12.3338 69.8215 12.4392 69.435 12.6852C69.0484 12.9312 68.7673 13.2474 68.5916 13.634C68.3808 14.0908 68.2754 14.5827 68.2754 15.0747L66.7995 14.0908C66.7644 12.2987 67.7483 10.6471 69.3296 9.8038C70.1026 9.38213 70.9811 9.1713 71.8947 9.1713C73.5111 9.1713 74.7058 9.66324 75.5492 10.612C76.3925 11.5608 76.779 12.7906 76.779 14.3367V22.735C76.779 23.1918 76.3925 23.5783 75.9006 23.5783H73.23Z" fill="currentColor"/>
<path d="M39.4613 9.31184C35.4204 9.2767 32.0821 12.5095 32.047 16.5505C32.047 16.5856 32.047 16.6208 32.047 16.6559C32.047 20.9077 34.5419 23.9648 38.4775 23.9648C39.9182 23.9648 40.7264 23.508 41.7102 22.8052V23.6134H44.0997C44.5917 23.6134 44.9782 23.2269 44.9782 22.735V9.52267C44.9782 9.52267 40.8318 9.31184 39.4613 9.31184ZM41.8859 16.6559C41.8859 18.694 41.3237 20.5915 38.6883 20.5915C35.8069 20.5915 35.1392 18.3074 35.1392 16.5856C35.1392 14.5476 36.7908 12.7906 39.637 12.8609C40.1993 12.8609 41.8859 13.0014 41.8859 13.0014V16.6559Z" fill="currentColor"/>
</svg>
