<svg width="100%" height="100%" viewBox="0 0 102 24" fill="none" xmlns="http://www.w3.org/2000/svg">
<path d="M74.7776 5.59057C74.7777 5.75698 74.7458 5.92179 74.6838 6.07556C74.6219 6.22933 74.531 6.36905 74.4163 6.48675C74.3017 6.60446 74.1657 6.69783 74.0159 6.76153C73.8661 6.82523 73.7056 6.85802 73.5435 6.85802C73.3813 6.85802 73.2208 6.82523 73.071 6.76153C72.9213 6.69783 72.7852 6.60446 72.6706 6.48675C72.556 6.36905 72.4651 6.22933 72.4031 6.07556C72.3411 5.92179 72.3092 5.75698 72.3093 5.59057C72.3092 5.42416 72.3411 5.25936 72.4031 5.10559C72.4651 4.95182 72.556 4.81209 72.6706 4.69439C72.7852 4.57668 72.9213 4.48331 73.071 4.41961C73.2208 4.35591 73.3813 4.32312 73.5435 4.32312C73.7056 4.32312 73.8661 4.35591 74.0159 4.41961C74.1657 4.48331 74.3017 4.57668 74.4163 4.69439C74.531 4.81209 74.6219 4.95182 74.6838 5.10559C74.7458 5.25936 74.7777 5.42416 74.7776 5.59057Z" fill="currentColor" opacity="0.75" />
<path d="M96.7238 11.1549H93.5825V14.3621H96.7238V11.1549Z" fill="currentColor" opacity="0.75" />
<path d="M34.4222 11.1549H31.2809V14.3621H34.4222V11.1549Z" fill="currentColor" opacity="0.75" />
<path d="M25 11.1549H21.8586V14.3621H25V11.1549Z" fill="currentColor" opacity="0.75" />
<path d="M15.7207 11.1549H12.5793V14.3621H15.7207V11.1549Z" fill="currentColor" opacity="0.75" />
<path d="M6.11081 11.1549H2.96948V14.3621H6.11081V11.1549Z" fill="currentColor" opacity="0.75" />
<path d="M10.5138 4.75316H10.8865C13.2937 4.75316 14.4157 6.04155 14.8845 9.47746L15.6299 9.44448L15.5305 3.99316H3.28112L3.1604 9.44448L3.87772 9.47746C4.00195 8.18907 4.15095 7.49521 4.47431 6.80136C5.04594 5.51277 6.23893 4.75316 7.70515 4.75316H8.22705V16.6135C8.22705 17.8689 8.15255 18.2654 7.85455 18.5627C7.60588 18.7939 7.10876 18.8931 6.53693 18.8931H5.9653V19.6858H12.7755V18.8931H12.2004C11.6323 18.8931 11.1316 18.7938 10.8867 18.5627C10.5885 18.2654 10.514 17.8687 10.514 16.6135V4.75316" fill="currentColor"/>
<path d="M42.9166 19.6861L46.8855 5.83128V16.7037C46.8855 17.8902 46.818 18.3072 46.5489 18.5958C46.3468 18.8202 45.8785 18.9165 45.3594 18.9165H45.1575V19.6861H50.7675V18.9165H50.4756C49.9595 18.9165 49.4883 18.8203 49.2865 18.5958C49.0169 18.3072 48.9497 17.8902 48.9497 16.7037V7.43498C48.9497 6.24825 49.0169 5.79927 49.2865 5.51069C49.5108 5.3183 49.9595 5.18991 50.4756 5.18991H50.7675V4.45215H46.4143L43.138 15.6451L39.9323 4.45215H35.6015V5.18991H36.0052C37.1947 5.18991 37.419 5.44649 37.419 6.98601V15.8055C37.419 17.2166 37.3517 17.794 37.1497 18.211C36.9254 18.628 36.4509 18.9165 35.9604 18.9165H35.6013V19.6861H40.2237V18.9165H39.9321C39.3488 18.9165 38.8774 18.692 38.605 18.243C38.3389 17.794 38.2716 17.377 38.2716 15.8055V5.83147L42.2177 19.6863H42.9166" fill="currentColor" opacity="0.75" />
<path d="M55.5916 8.84583C52.8092 8.84583 50.9917 11.0267 50.9917 14.4585C50.9917 17.7619 52.8092 20.007 55.5214 20.007C58.2587 20.007 60.0763 17.7619 60.0763 14.4265C60.0763 11.1229 58.2587 8.84583 55.5916 8.84583ZM55.5019 9.58339C56.3066 9.58339 57.0021 10.0966 57.3836 10.9625C57.7426 11.7643 57.8996 12.8548 57.8996 14.4263C57.8996 17.6653 57.1142 19.2688 55.5212 19.2688C53.9312 19.2688 53.1649 17.6651 53.1649 14.3941C53.1649 12.8546 53.325 11.7643 53.6841 10.9625C54.0402 10.1288 54.7614 9.58339 55.5019 9.58339Z" fill="currentColor" opacity="0.75" />
<path d="M63.8045 4.29175L60.6179 4.45214V5.1577H60.7718C61.7144 5.1577 61.9195 5.47848 61.9195 6.9858V17.409C61.9195 18.7559 61.8747 19.1089 61.6953 19.6861H62.4358C62.9934 18.7559 63.1313 18.5958 63.3557 18.5958C63.4648 18.5958 63.5736 18.6277 63.7341 18.7881C64.8366 19.6861 65.3078 19.8785 66.3176 19.8785C68.7377 19.8785 70.4881 17.5372 70.4881 14.2018C70.4881 11.0588 68.8692 8.94209 66.4491 8.94209C65.1925 8.94209 64.2757 9.55146 63.8045 10.6418V4.29175ZM66.1318 9.74385C67.5713 9.74385 68.3116 11.2834 68.3116 14.298C68.3116 17.473 67.5487 19.1087 66.09 19.1087C64.4744 19.1087 63.6247 17.4408 63.6247 14.3942C63.6247 12.8547 63.8269 11.7965 64.2981 10.9946C64.7211 10.225 65.4425 9.74385 66.1318 9.74385Z" fill="currentColor" opacity="0.75" />
<path d="M74.6396 9.00623L71.3666 9.19861V9.90417H71.6135C72.5526 9.90417 72.7548 10.225 72.7548 11.7003V17.1204C72.7548 18.5959 72.5528 18.9487 71.6135 18.9487H71.2576V19.686H76.1432V18.9487H75.7904C74.8447 18.9487 74.6398 18.6277 74.6398 17.1204V9.00623" fill="currentColor" opacity="0.75" />
<path d="M80.3166 4.29175L77.0436 4.45214V5.1577H77.2876C78.2299 5.1577 78.4318 5.47848 78.4318 6.9858V17.1202C78.4318 18.6277 78.2299 18.9485 77.2876 18.9485H76.9316V19.6859H81.82V18.9485H81.461C80.5153 18.9485 80.3166 18.6276 80.3166 17.1202V4.29175Z" fill="currentColor" opacity="0.75" />
<path d="M90.7481 14.3621C90.6389 10.9625 89.0232 8.84583 86.5807 8.84583C84.2213 8.84583 82.519 11.1549 82.519 14.3621C82.519 17.7937 84.1988 20.0068 86.8019 20.0068C88.4848 20.0068 89.6516 19.1087 90.6166 17.1202L89.9436 16.7674C89.1582 18.4351 88.3728 19.1087 87.1609 19.1087C85.3883 19.1087 84.6287 17.6977 84.6059 14.3621H90.7481ZM84.6285 13.5602C84.6478 11.1549 85.4297 9.64758 86.6895 9.64758C87.9461 9.64758 88.6864 11.1229 88.6642 13.5602H84.6285Z" fill="currentColor" opacity="0.75" />
<path d="M97.9022 8.58435C98.0917 8.58435 98.2768 8.63294 98.4574 8.73031C98.638 8.82767 98.7786 8.96699 98.8793 9.14806C98.9803 9.32913 99.0306 9.51801 99.0306 9.71469C99.0306 9.90942 98.9809 10.0965 98.8814 10.2761C98.7823 10.4558 98.6429 10.5953 98.464 10.6946C98.2848 10.7939 98.0976 10.8437 97.902 10.8437C97.7064 10.8437 97.5191 10.7941 97.3399 10.6946C97.1609 10.5953 97.0212 10.456 96.9218 10.2761C96.8219 10.0965 96.772 9.90942 96.772 9.71469C96.772 9.51801 96.8225 9.32913 96.9239 9.14806C97.0251 8.96699 97.1661 8.82748 97.3463 8.73031C97.5277 8.63294 97.7128 8.58435 97.9022 8.58435ZM97.9022 8.77245C97.7438 8.77245 97.5893 8.81304 97.4396 8.8944C97.2896 8.97577 97.1722 9.09167 97.0873 9.24269C97.0027 9.39372 96.9606 9.55118 96.9606 9.7145C96.9606 9.87703 97.0021 10.0327 97.0854 10.1818C97.1685 10.3309 97.2849 10.447 97.4343 10.5303C97.5839 10.6136 97.7399 10.6552 97.9022 10.6552C98.0648 10.6552 98.2205 10.6136 98.37 10.5303C98.5194 10.4472 98.6355 10.3311 98.7182 10.1818C98.8009 10.0327 98.8424 9.87703 98.8424 9.7145C98.8424 9.55118 98.8003 9.39372 98.716 9.24269C98.6318 9.09186 98.5146 8.97577 98.364 8.8944C98.2136 8.81304 98.0597 8.77245 97.9022 8.77245ZM97.4068 10.3379V9.12231H97.8251C97.9677 9.12231 98.0714 9.13362 98.1352 9.15606C98.1994 9.1785 98.2503 9.21772 98.2881 9.27372C98.3262 9.32953 98.3453 9.38904 98.3453 9.45187C98.3453 9.54065 98.3133 9.61811 98.2497 9.68386C98.1865 9.74962 98.1021 9.78669 97.9969 9.79469C98.0401 9.81264 98.0744 9.83411 98.1003 9.85909C98.1495 9.90689 98.2093 9.98728 98.2801 10.1001L98.4285 10.3381H98.1881L98.0798 10.1463C97.995 9.99625 97.9269 9.90221 97.8756 9.86396C97.8398 9.83567 97.7873 9.82162 97.7185 9.82162H97.603V10.3381H97.4068V10.3379ZM97.6032 9.6546H97.8423C97.9562 9.6546 98.034 9.63762 98.0757 9.60347C98.1175 9.56932 98.138 9.52425 98.138 9.46806C98.138 9.43196 98.128 9.39957 98.1079 9.37108C98.0878 9.3426 98.0603 9.32113 98.0244 9.30708C97.989 9.29304 97.923 9.28621 97.8269 9.28621H97.6032V9.6546Z" fill="currentColor" opacity="0.75" />
</svg>
