<svg width="100%" height="100%" viewBox="0 0 107 24" fill="none" xmlns="http://www.w3.org/2000/svg">
<path d="M90.5152 23.4585H95.7847V13.8257C95.7847 11.6277 97.0682 10.0727 98.9606 10.0727C100.785 10.0727 101.731 11.357 101.731 13.1827V23.4585H107V12.1692C107 8.34852 104.704 5.64465 100.986 5.64465C98.6224 5.64465 96.9667 6.65816 95.717 8.51774H95.6156V6.15229H90.5152V23.4585ZM80.1775 5.67849C74.6713 5.67849 70.988 9.63277 70.988 14.8392C70.988 20.0119 74.6695 24 80.1775 24C85.6855 24 89.367 20.0119 89.367 14.8392C89.367 9.63455 85.6855 5.67849 80.1775 5.67849ZM80.1437 20.1116C77.6443 20.1116 76.3269 18.0169 76.3269 14.8392C76.3269 11.6277 77.6443 9.56687 80.1437 9.56687C82.6431 9.56687 84.0281 11.6295 84.0281 14.8392C84.0299 18.0169 82.6449 20.1116 80.1437 20.1116ZM55.9897 23.4585H70.7869V19.3012H62.4092V19.1996L70.4148 10.2081V6.15229H55.9897V10.3096H64.0968V10.4112L55.9897 19.4704V23.4585ZM49.232 23.4585H54.5353V6.15229H49.232V23.4585ZM36.936 23.4585H42.2055V15.5161C42.2055 11.8985 44.3684 10.3096 47.6779 10.7496H47.7793V6.18614C47.5087 6.08461 47.2043 6.05076 46.6987 6.05076C44.6372 6.05076 43.2522 6.99659 42.0702 9.02538H41.9687V6.15229H36.936V23.4585ZM27.2392 20.1472C24.9089 20.1472 23.49 18.6261 23.2194 16.2945H35.6845C35.7183 12.5753 34.7392 9.60071 32.6777 7.74291C31.2251 6.39097 29.2989 5.64643 26.8671 5.64643C21.6653 5.64643 18.0497 9.60071 18.0497 14.7733C18.0497 19.978 21.4962 23.9679 27.2053 23.9679C29.3683 23.9679 31.0898 23.3926 32.5086 22.4129C34.0289 21.3656 35.1095 19.8444 35.4139 18.3233H30.3474C29.8418 19.4704 28.7933 20.1472 27.2392 20.1472ZM26.9704 9.4315C28.8289 9.4315 30.1124 10.8173 30.3154 12.8461H23.255C23.6592 10.7834 24.7736 9.4315 26.9704 9.4315ZM49.232 0H54.5353V4.69883H49.232V0Z" fill="currentColor"/>
<path d="M0 6.15234L6.55833 23.2448C6.60817 23.3748 6.73279 23.4603 6.87164 23.4603H12.1927C12.0539 23.4603 11.9292 23.3748 11.8794 23.2448L5.32107 6.15234H0Z" fill="url(#paint0_radial_27181_3086)"/>
<path d="M19.0643 6.15234L12.506 23.2448C12.4561 23.3748 12.3315 23.4603 12.1927 23.4603H6.87158C7.01044 23.4603 7.13506 23.3748 7.1849 23.2448L13.7432 6.15234H19.0643Z" fill="currentColor"/>
<defs>
<radialGradient id="paint0_radial_27181_3086" cx="0" cy="0" r="1" gradientUnits="userSpaceOnUse" gradientTransform="translate(9.43685 17.4934) rotate(-90) scale(8.21132 7.44531)">
<stop stop-color="#808080"/>
<stop offset="1" stop-color="currentColor"/>
</radialGradient>
</defs>
</svg>
