<svg width="100%" height="100%" viewBox="0 0 74 24" fill="none" xmlns="http://www.w3.org/2000/svg">
<path d="M32.0665 23.6538H26.072L29.8214 0.421143H35.8156L32.0665 23.6538Z" fill="currentColor"/>
<path d="M53.7973 0.989106C52.615 0.519026 50.7396 0 48.4207 0C42.501 0 38.3323 3.16343 38.3067 7.68618C38.2576 11.0231 41.2914 12.8764 43.5604 13.9891C45.8796 15.126 46.668 15.8681 46.668 16.8815C46.6444 18.4379 44.7939 19.1553 43.0681 19.1553C40.6748 19.1553 39.3924 18.7854 37.4436 17.9195L36.6543 17.5483L35.8154 22.7635C37.2214 23.4054 39.8117 23.975 42.501 24C48.7908 24 52.8857 20.8855 52.9342 16.0658C52.9582 13.4211 51.3562 11.3946 47.9025 9.73863C45.8059 8.67561 44.5219 7.95883 44.5219 6.87118C44.5464 5.8824 45.6079 4.86964 47.9746 4.86964C49.9234 4.82004 51.3552 5.28946 52.4399 5.75921L52.9821 6.00591L53.7973 0.989106Z" fill="currentColor"/>
<path d="M61.7645 15.4233C62.2582 14.0886 64.1578 8.92298 64.1578 8.92298C64.1329 8.97258 64.6505 7.56366 64.9465 6.69872L65.3654 8.70059C65.3654 8.70059 66.5006 14.2617 66.7471 15.4233C65.8102 15.4233 62.9485 15.4233 61.7645 15.4233ZM69.164 0.421143H64.5272C63.0973 0.421143 62.011 0.840962 61.3941 2.34876L52.49 23.6535H58.7799C58.7799 23.6535 59.8154 20.786 60.038 20.1684C60.728 20.1684 66.8467 20.1684 67.7344 20.1684C67.9065 20.9841 68.4497 23.6535 68.4497 23.6535H74L69.164 0.421143Z" fill="currentColor"/>
<path d="M21.0652 0.421143L15.1946 16.2636L14.5531 13.0505C13.4677 9.34313 10.0638 5.31509 6.26526 3.31225L11.6425 23.6291H17.9816L27.4039 0.421143H21.0652Z" fill="currentColor"/>
<path d="M9.74326 0.421143H0.098668L0 0.890565C7.52339 2.81851 12.506 7.46576 14.5531 13.0515L12.4565 2.37406C12.1113 0.890236 11.0505 0.470089 9.74326 0.421143Z" fill="#FAA61A"/>
</svg>
