<svg width="100%" height="100%" viewBox="0 0 100 24" fill="none" xmlns="http://www.w3.org/2000/svg">
<g clip-path="url(#clip0_27181_3055)">
<path d="M58.0002 12.7717C58.0002 10.4016 56.9865 8.3075 53.5585 8.3075C51.7997 8.3075 50.4026 8.80925 49.6451 9.24843L50.2003 11.1499C50.8977 10.712 52.0105 10.3513 53.0609 10.3513C54.7964 10.3488 55.0807 11.3315 55.0807 11.9633V12.1154C51.2923 12.1093 48.8975 13.4195 48.8975 16.0877C48.8975 17.7181 50.1133 19.2466 52.2385 19.2466C53.5352 19.2466 54.6309 18.7228 55.2854 17.896H55.3491C55.3491 17.896 55.7806 19.703 58.1668 19.0123C58.0455 18.2554 58.0002 17.458 58.0002 16.4889V12.7717ZM55.1739 15.2743C55.1739 15.4657 55.158 15.6645 55.1016 15.835C54.8834 16.5649 54.1309 17.1758 53.1945 17.1758C52.404 17.1758 51.7838 16.7281 51.7838 15.7896C51.7838 14.3543 53.3673 13.9592 55.1739 13.9691" fill="#0071CE"/>
<path d="M0 5.08264C0 5.08264 2.47451 15.2158 2.86795 16.8572C3.33123 18.7759 4.16098 19.485 6.55585 19.0127L8.10258 12.7291C8.49356 11.1724 8.75949 10.056 9.012 8.46977H9.05486C9.23013 10.0719 9.48264 11.1724 9.80251 12.734C9.80251 12.734 10.4337 15.5887 10.761 17.0842C11.0796 18.5796 11.9767 19.523 14.3263 19.0127L18.0081 5.08264H15.0359L13.7723 11.1086C13.4377 12.8543 13.1337 14.2295 12.8972 15.8292H12.8543C12.6411 14.2466 12.3702 12.9279 12.0221 11.2177L10.7132 5.08264H7.61234L6.21511 11.0607C5.81677 12.8862 5.4442 14.3497 5.21009 15.8991H5.16966C4.92822 14.4454 4.60098 12.5942 4.25411 10.8374C4.25411 10.8374 3.42436 6.55723 3.13146 5.08264" fill="#0071CE"/>
<path d="M26.2909 12.7717C26.2909 10.4016 25.2748 8.3075 21.8468 8.3075C20.0929 8.3075 18.6933 8.80925 17.9359 9.24843L18.491 11.1499C19.186 10.712 20.2976 10.3513 21.3517 10.3513C23.0871 10.3488 23.3715 11.3315 23.3715 11.9633V12.1154C19.5831 12.1093 17.1858 13.4195 17.1858 16.0877C17.1858 17.7181 18.4065 19.2466 20.5219 19.2466C21.8308 19.2466 22.9168 18.7228 23.5713 17.896H23.6374C23.6374 17.896 24.0713 19.703 26.4551 19.0123C26.3326 18.2554 26.2909 17.458 26.2909 16.4889V12.7717ZM23.4622 15.2743C23.4622 15.4657 23.4463 15.6645 23.3923 15.835C23.1717 16.5649 22.4192 17.1758 21.4804 17.1758C20.6947 17.1758 20.0721 16.7281 20.0721 15.7896C20.0721 14.3543 21.6556 13.9592 23.4622 13.9691" fill="#0071CE"/>
<path d="M27.8331 5.08264V19.0078H30.6618V16.0549V5.08264H27.8331Z" fill="#0071CE"/>
<path d="M66.6819 5.08264V15.3569C66.6819 16.775 66.9478 17.7638 67.5202 18.3698C68.0227 18.901 68.8451 19.247 69.8243 19.247C70.6652 19.247 71.4875 19.085 71.876 18.944L71.8417 16.7321C71.5512 16.7996 71.2191 16.8572 70.7632 16.8572C69.7974 16.8572 69.4787 16.2451 69.4787 14.9717V11.0386H71.9422V8.37776H69.4787V5.08264" fill="#0071CE"/>
<path d="M59.3706 8.54913V19.0123H62.2949V13.6537C62.2949 13.3654 62.3133 13.1164 62.3587 12.8858C62.5768 11.7559 63.4335 11.0407 64.6677 11.0407C65.0121 11.0407 65.2462 11.0787 65.5061 11.1192V8.37615C65.2878 8.3369 65.1396 8.31604 64.8712 8.31604C63.7767 8.31604 62.5363 9.01162 62.013 10.5267H61.9407V8.54913" fill="#0071CE"/>
<path d="M32.3044 8.54913V19.0123H35.154V12.8711C35.154 12.5828 35.1858 12.2883 35.2876 12.0221C35.5192 11.4002 36.094 10.68 37.0169 10.68C38.1641 10.68 38.7058 11.6492 38.7058 13.0477V19.0123H41.5481V12.7974C41.5481 12.5263 41.5861 12.1939 41.6657 11.9534C41.8937 11.248 42.5163 10.68 43.3767 10.68C44.5361 10.68 45.0975 11.6283 45.0975 13.2771V19.0123H47.9372V12.8428C47.9372 9.6017 46.29 8.31604 44.4197 8.31604C43.5973 8.31604 42.9428 8.51846 42.3545 8.88158C41.8569 9.18705 41.4206 9.61765 41.0296 10.1807H40.9867C40.5369 9.05456 39.4804 8.31604 38.1003 8.31604C36.3306 8.31604 35.5266 9.21036 35.0535 9.96605H35.0106V8.54913" fill="#0071CE"/>
<path d="M87.2464 8.07953C87.8053 8.07953 88.2759 7.78756 88.3371 7.41217L88.8912 1.13109C88.8912 0.509112 88.1595 0 87.2464 0C86.3284 0 85.6016 0.509112 85.6016 1.13109L86.1604 7.41217C86.2193 7.78756 86.6875 8.07953 87.2464 8.07953Z" fill="#FFC220"/>
<path d="M83.8472 10.045C84.1241 9.55425 84.1082 9.00956 83.8092 8.76666L78.637 5.14645C78.099 4.8324 77.2937 5.20656 76.8329 5.99906C76.3733 6.79032 76.4664 7.67851 76.9934 7.98643L82.7195 10.6436C83.086 10.781 83.5652 10.5259 83.8472 10.04" fill="#FFC220"/>
<path d="M90.6446 10.0398C90.9374 10.5256 91.4166 10.7808 91.7733 10.6507L97.4994 7.98617C98.0313 7.67212 98.111 6.79252 97.6612 6.00125C97.2016 5.20875 96.3914 4.83704 95.8546 5.14496L90.6813 8.76149C90.3945 9.00807 90.3737 9.55522 90.6506 10.0447" fill="#FFC220"/>
<path d="M87.2464 15.9254C87.8053 15.9254 88.2759 16.2174 88.3371 16.5928L88.8912 22.8739C88.8912 23.4958 88.1595 24 87.2464 24C86.3284 24 85.6016 23.4958 85.6016 22.8739L86.1604 16.5928C86.2193 16.2174 86.6875 15.9254 87.2464 15.9254Z" fill="#FFC220"/>
<path d="M90.6446 13.9655C90.9374 13.4785 91.4166 13.2184 91.7733 13.3595L97.4994 16.0192C98.0313 16.3271 98.111 17.214 97.6612 18.0065C97.2016 18.7929 96.3914 19.1671 95.8546 18.8591L90.6813 15.2377C90.3945 14.9936 90.3737 14.4489 90.6506 13.9655" fill="#FFC220"/>
<path d="M83.8472 13.9601C84.1241 14.4495 84.1082 14.993 83.8092 15.2384L78.637 18.8537C78.099 19.1677 77.2937 18.7923 76.8329 18.006C76.3733 17.2147 76.4664 16.3265 76.9934 16.0186L82.7195 13.3589C83.086 13.2191 83.5652 13.4767 83.8472 13.9601Z" fill="#FFC220"/>
<path d="M99.175 18.3079H99.2462C99.343 18.3079 99.3822 18.3385 99.3932 18.4158C99.414 18.5017 99.4251 18.5593 99.4459 18.5839H99.6298C99.6138 18.5655 99.593 18.5189 99.582 18.4109C99.5611 18.3177 99.5133 18.2649 99.4459 18.2465V18.2293C99.539 18.2085 99.593 18.1459 99.593 18.0686C99.593 17.9987 99.5611 17.9484 99.5292 17.9165C99.468 17.8871 99.4092 17.8638 99.2792 17.8638C99.164 17.8638 99.0794 17.8736 99.012 17.8895V18.5839H99.175V18.3079ZM99.18 17.9913L99.2633 17.9803C99.3614 17.9803 99.414 18.0257 99.414 18.0895C99.414 18.1606 99.343 18.1938 99.2523 18.1938H99.18V17.9913ZM99.2842 17.5203C98.8822 17.5203 98.5635 17.8343 98.5635 18.2195C98.5635 18.6145 98.8822 18.9286 99.2842 18.9286C99.691 18.9286 99.9999 18.6145 99.9999 18.2195C99.9999 17.8343 99.691 17.5203 99.2842 17.5203ZM99.2842 17.6613C99.593 17.6613 99.8222 17.9116 99.8222 18.2195C99.8222 18.5299 99.593 18.7875 99.2842 18.7826C98.9753 18.7826 98.7411 18.5299 98.7411 18.2195C98.7411 17.9116 98.9753 17.6613 99.2792 17.6613" fill="#FFC220"/>
</g>
<defs>
<clipPath id="clip0_27181_3055">
<rect width="100" height="24" fill="white"/>
</clipPath>
</defs>
</svg>
