<svg width="100%" height="100%" viewBox="0 0 56 24" fill="none" xmlns="http://www.w3.org/2000/svg">
<g clip-path="url(#clip0_27181_3071)">
<path fill-rule="evenodd" clip-rule="evenodd" d="M15.4724 1.92984H15.7008C15.9137 1.92984 16.0737 1.88805 16.1795 1.80405C16.2854 1.72047 16.3383 1.5984 16.3383 1.43867C16.3383 1.27729 16.2937 1.15812 16.2054 1.08074C16.1162 1.00378 15.9774 0.964879 15.7879 0.964879H15.4724V1.92984ZM17.0391 1.41426C17.0391 1.76391 16.9287 2.03122 16.7087 2.21619C16.4887 2.40198 16.1758 2.49426 15.7699 2.49426H15.4724V3.64998H14.7787V0.400879H15.8237C16.2204 0.400879 16.522 0.485293 16.7287 0.655362C16.9354 0.825017 17.0391 1.07784 17.0391 1.41426ZM13.0654 3.64998H12.3829V0.400879H14.2583V0.964879H13.0654V1.80322H14.1754V2.36557H13.0654V3.64998ZM11.1799 3.64998H10.3899L9.94702 1.94309C9.93036 1.88226 9.90244 1.75688 9.86286 1.56653C9.83423 1.43977 9.81142 1.31177 9.79452 1.18295C9.78577 1.26322 9.76327 1.39191 9.72786 1.5686C9.69161 1.74571 9.66411 1.87233 9.64494 1.94764L9.20369 3.64998H8.41619L7.58119 0.400879H8.26411L8.68244 2.17398C8.75577 2.50171 8.80827 2.78557 8.84119 3.02557C8.85036 2.94115 8.87077 2.8104 8.90286 2.63329C8.93494 2.45578 8.96536 2.3184 8.99369 2.22115L9.47036 0.400879H10.1258L10.6024 2.22115C10.6639 2.48705 10.714 2.75543 10.7524 3.02557C10.7674 2.90971 10.7912 2.76571 10.8241 2.59315C10.857 2.4206 10.8866 2.28115 10.9137 2.17398L11.3299 0.400879H12.0124L11.1799 3.64998ZM9.48286 14.9519C8.21161 14.9519 7.39577 15.2515 7.17286 15.3446C7.15994 15.3504 7.14911 15.3318 7.15952 15.3214C8.55619 13.8794 10.1916 13.9588 10.5854 13.9588H15.2358C15.4704 13.9588 15.6604 14.181 15.6604 14.4558C15.6604 14.7297 15.4704 14.9519 15.2358 14.9519H9.48286ZM10.5308 16.2285C9.16077 16.2285 8.76161 15.4555 6.68827 15.9657C6.67411 15.9694 6.66452 15.95 6.67661 15.9417C7.83244 15.1543 9.08952 15.2258 9.59786 15.2258H15.2358C15.4704 15.2258 15.6604 15.448 15.6604 15.722C15.6604 15.9959 15.4704 16.2181 15.2358 16.2181C15.2358 16.2181 11.6154 16.2285 10.5308 16.2285ZM10.6279 17.4852C9.22202 17.4852 9.10952 16.4548 7.02536 16.2227C7.01077 16.221 7.00911 16.1995 7.02327 16.1962C8.73536 15.7708 9.37244 16.492 10.372 16.492H15.2358C15.4704 16.492 15.6604 16.7143 15.6604 16.9886C15.6604 17.2629 15.4704 17.4852 15.2358 17.4852H10.6279ZM10.3229 13.6853C9.19119 13.6853 8.25286 14.1756 8.03327 14.2994C8.02077 14.306 8.00869 14.2915 8.01661 14.2803C8.20036 14.0118 9.19161 12.6926 10.8958 12.6926H15.2358C15.4704 12.6926 15.6604 12.9148 15.6604 13.1892C15.6604 13.4631 15.4704 13.6853 15.2358 13.6853H10.3229ZM16.5483 10.9439C16.4978 10.896 16.4327 10.8661 16.3633 10.8591C16.3123 10.8524 16.2604 10.8585 16.2124 10.8769C16.232 10.8359 16.2487 10.7921 16.2549 10.7403C16.2659 10.6679 16.2538 10.5938 16.2204 10.5285C16.0804 10.2239 16.4804 9.6144 16.4299 9.58709C16.382 9.5606 16.1545 10.2326 15.9337 10.5041C15.8869 10.5621 15.8579 10.6324 15.8504 10.7064C15.8417 10.7791 15.8543 10.8528 15.8866 10.9187C15.9174 10.9733 15.9641 11.0122 16.0191 11.0155C16.034 11.0174 16.0491 11.0165 16.0637 11.013C16.0602 11.0208 16.0577 11.029 16.0562 11.0374C16.0525 11.0669 16.056 11.0969 16.0663 11.1248C16.0766 11.1527 16.0934 11.1778 16.1154 11.198C16.1647 11.2469 16.2297 11.2772 16.2991 11.2836C16.37 11.2939 16.4423 11.2804 16.5045 11.2452C16.8041 11.0825 17.4254 10.922 17.412 10.8649C17.3999 10.8078 16.7941 11.1607 16.5483 10.9439ZM17.0062 10.4995C16.962 10.4522 16.9017 10.4229 16.837 10.4172C16.799 10.4153 16.7609 10.4214 16.7254 10.4349C16.7308 10.4159 16.7383 10.3998 16.7408 10.3807C16.7484 10.314 16.7333 10.2467 16.6979 10.1896C16.5458 9.90943 16.9429 9.38019 16.8916 9.35412C16.8404 9.32764 16.6224 9.92019 16.4016 10.1544C16.3544 10.2017 16.3254 10.2639 16.3195 10.3303C16.3125 10.3972 16.3271 10.4646 16.3612 10.5227C16.3962 10.5736 16.4441 10.6096 16.502 10.6174C16.5272 10.6188 16.5524 10.6158 16.5766 10.6087C16.5754 10.6116 16.572 10.6162 16.5733 10.6195C16.5709 10.6494 16.5748 10.6795 16.5848 10.7079C16.5948 10.7362 16.6106 10.7622 16.6312 10.7842C16.6729 10.8285 16.7329 10.8591 16.7995 10.8649C16.8636 10.8717 16.928 10.8544 16.9799 10.8165C17.2383 10.6315 17.8287 10.5218 17.8133 10.4623C17.7991 10.4052 17.2337 10.7151 17.0062 10.4995ZM17.4079 10.0886C17.3612 10.0545 17.3033 10.0391 17.2458 10.0456C17.2173 10.0474 17.1895 10.0545 17.1637 10.0667C17.1683 10.0543 17.1758 10.0443 17.1804 10.0323C17.1959 9.97345 17.1924 9.91119 17.1704 9.8544C17.0741 9.57922 17.5004 9.17246 17.4591 9.13936C17.4174 9.10874 17.1408 9.60157 16.9133 9.77495C16.8656 9.81172 16.8317 9.86329 16.817 9.92143C16.7996 9.97974 16.8027 10.0422 16.8258 10.0985C16.8354 10.123 16.8502 10.1451 16.8693 10.1634C16.8884 10.1816 16.9112 10.1955 16.9362 10.2041C16.9745 10.2161 17.0129 10.2082 17.0491 10.1929C17.0406 10.2153 17.0372 10.2393 17.0391 10.2632C17.0445 10.3195 17.072 10.3667 17.117 10.3998C17.1636 10.4342 17.2212 10.4503 17.279 10.4452C17.3368 10.4401 17.3907 10.4141 17.4304 10.3721C17.6349 10.1664 18.1445 9.97398 18.1241 9.92474C18.102 9.87509 17.6441 10.2413 17.4079 10.0886ZM18.197 9.20557C18.1545 9.14309 17.7979 9.53122 17.5345 9.56847C17.4782 9.57703 17.4259 9.60277 17.3849 9.64212C17.3391 9.68099 17.3069 9.73329 17.2929 9.7915C17.2863 9.81413 17.285 9.83792 17.289 9.86112C17.2929 9.88433 17.3021 9.90635 17.3158 9.92557C17.3309 9.94306 17.3503 9.9564 17.3721 9.9643C17.3939 9.9722 17.4174 9.97439 17.4404 9.97067C17.4979 9.96283 17.5513 9.93653 17.5924 9.89578C17.6361 9.85634 17.6672 9.80516 17.682 9.74846C17.762 9.4824 18.2287 9.24612 18.197 9.20557ZM10.8245 9.73109C10.8141 9.76957 10.737 10.0687 10.737 10.0687C10.7154 10.0807 10.6237 10.0609 10.5995 10.0588C10.4237 10.0423 10.2662 9.8904 10.3337 9.70915C10.3891 9.56102 10.502 9.54529 10.6454 9.53867C10.7049 9.53619 10.812 9.55026 10.8658 9.58709C10.8658 9.58709 10.8445 9.65536 10.8245 9.73109ZM10.6224 10.634L10.6062 10.7362C10.4966 10.6679 10.4324 10.5119 10.4849 10.3886C10.5254 10.2951 10.6254 10.2707 10.6991 10.2665C10.6724 10.3888 10.6469 10.5113 10.6224 10.634ZM10.4649 11.7496C10.4512 11.8261 10.347 11.8365 10.2758 11.8576C10.0691 11.9192 9.87327 11.8927 9.80994 11.6474C9.74119 11.385 9.94119 11.2745 10.1558 11.2232C10.2724 11.1959 10.3808 11.2187 10.4608 11.3167C10.4808 11.3412 10.5045 11.3631 10.5099 11.3863C10.5099 11.3863 10.4779 11.6776 10.4649 11.7496ZM9.81452 10.4577C9.97411 10.4196 10.1391 10.3601 10.2616 10.5161C10.3908 10.6799 10.3479 10.9427 10.1404 11.0122C10.0037 11.0581 9.83827 11.0978 9.72161 10.9869C9.56827 10.8417 9.57952 10.5119 9.81452 10.4577ZM9.65827 9.60695C9.82619 9.5664 10.0004 9.50474 10.1295 9.6686C10.2637 9.83991 10.2191 10.1172 10.0012 10.1896C9.85702 10.2367 9.68327 10.2785 9.56077 10.1618C9.39994 10.0104 9.41202 9.66405 9.65827 9.60695ZM9.50161 11.4463C9.45786 11.5994 9.33077 11.6221 9.19786 11.654C9.11036 11.5476 8.87536 11.2778 8.87119 11.246C8.87003 11.2334 8.87174 11.2206 8.87619 11.2087C8.88702 11.1769 8.92411 11.1463 8.95161 11.1285C9.03161 11.0767 9.20202 11.0387 9.29411 11.0573C9.45911 11.0925 9.54536 11.2923 9.50161 11.4463ZM8.66619 10.6605C8.54577 10.2367 9.26119 10.0522 9.37161 10.4676C9.48536 10.8947 8.76369 11.0759 8.66619 10.6605ZM8.56119 9.81467C8.43869 9.39384 9.15744 9.20888 9.26786 9.62226C9.38161 10.0497 8.65869 10.2314 8.56119 9.81467ZM8.46077 8.98336C8.34369 8.59109 9.01827 8.41729 9.12119 8.80419C9.22702 9.20226 8.55244 9.37398 8.46077 8.98336ZM8.39161 10.5835C8.35869 10.6029 8.34619 10.6133 8.33494 10.6133L8.01411 10.2665C8.01786 10.2566 8.11702 10.1854 8.15036 10.1664C8.41702 10.0191 8.63661 10.4403 8.39161 10.5835ZM7.78286 9.80267C7.62411 9.45509 8.20161 9.07812 8.37661 9.45302C8.53702 9.79812 7.95952 10.1817 7.78286 9.80267ZM8.26827 8.70198C8.45077 9.02433 7.90077 9.38391 7.74327 9.03715C7.60327 8.7384 8.09202 8.38957 8.26827 8.70198ZM7.80661 7.95095C7.88786 7.87978 7.98161 7.84129 8.07786 7.88722C8.23202 7.96088 8.23661 8.19053 8.10202 8.28198C8.04077 8.32377 7.93702 8.3755 7.86161 8.35688C7.69619 8.31509 7.66452 8.0755 7.80661 7.95095ZM7.82744 7.26033C7.89411 7.21564 7.98286 7.1755 8.05952 7.20653C8.19869 7.26322 8.19369 7.46391 8.08119 7.54419C8.02952 7.5806 7.93702 7.62571 7.87452 7.60915C7.73369 7.57398 7.69911 7.34681 7.82744 7.26033ZM8.19702 6.27633C8.27994 6.23205 8.39952 6.21343 8.47369 6.29619C8.49404 6.31824 8.50897 6.34466 8.51732 6.3734C8.52566 6.40214 8.52719 6.43241 8.52178 6.46183C8.51637 6.49125 8.50417 6.51903 8.48614 6.54299C8.46811 6.56695 8.44474 6.58643 8.41786 6.59991C8.32952 6.64378 8.21036 6.66033 8.14036 6.57881C8.12121 6.55632 8.10733 6.52989 8.09974 6.50143C8.09214 6.47296 8.09101 6.44317 8.09644 6.41422C8.10186 6.38527 8.1137 6.35787 8.1311 6.33403C8.14849 6.31018 8.17101 6.29047 8.19702 6.27633ZM8.13161 7.02405C8.06452 6.77784 8.48244 6.66157 8.55036 6.91191C8.62577 7.15481 8.19827 7.27605 8.13161 7.02405ZM8.80494 7.45398C8.90244 7.72005 8.44869 7.87067 8.35994 7.60791C8.26952 7.34184 8.72536 7.18998 8.80494 7.45398ZM8.86202 6.15757C8.94869 6.12322 9.05952 6.08598 9.15619 6.15757C9.27661 6.24695 9.25036 6.44805 9.11244 6.51053C9.02161 6.5515 8.90577 6.57881 8.82494 6.50722C8.72202 6.41619 8.71619 6.2155 8.86202 6.15757ZM8.78202 8.38419C8.65952 8.41274 8.53161 8.46115 8.42994 8.35688C8.29994 8.22364 8.33702 7.99067 8.51327 7.92695C8.62702 7.88391 8.77119 7.85991 8.86411 7.95426C8.98327 8.0755 8.97036 8.33909 8.78202 8.38419ZM8.78411 7.02529C8.70577 6.76129 9.13869 6.62598 9.22161 6.88212C9.30702 7.14488 8.85869 7.28474 8.78411 7.02529ZM9.50911 7.50902C9.61077 7.81026 9.09827 7.97081 9.00411 7.67412C8.90911 7.3704 9.42536 7.20984 9.50911 7.50902ZM9.53661 6.70212C9.62702 6.67812 9.72244 6.68681 9.79119 6.76005C9.89619 6.87219 9.86036 7.06377 9.70494 7.09233C9.63202 7.10557 9.51911 7.10019 9.46202 7.05053C9.35952 6.96033 9.36452 6.74805 9.53661 6.70212ZM9.97411 7.3344C10.1391 7.3344 10.2224 7.57522 10.1262 7.69481C10.0683 7.76722 9.94327 7.77178 9.85827 7.75853C9.70077 7.73453 9.59994 7.53302 9.70619 7.39688C9.77077 7.31453 9.88119 7.3344 9.97411 7.3344ZM9.18119 8.32584C9.07952 7.9795 9.67202 7.82474 9.76286 8.1686C9.85494 8.51826 9.25911 8.67219 9.18119 8.32584ZM9.54452 8.76902C9.70619 8.75246 9.87452 8.71522 9.97411 8.88364C10.0779 9.06157 10.0004 9.30902 9.79036 9.35081C9.65244 9.37936 9.48536 9.3926 9.38702 9.27136C9.25786 9.11122 9.30911 8.79095 9.54452 8.76902ZM10.367 7.99771C10.567 8.07964 10.6345 8.31384 10.4937 8.4446C10.4179 8.51288 10.2804 8.49964 10.1874 8.48102C10.0012 8.4446 9.87994 8.16736 10.0429 8.03578C10.1266 7.96833 10.2762 7.96005 10.367 7.99771ZM10.6816 8.83274C10.807 8.98584 10.7604 9.25605 10.5404 9.26929C10.4258 9.27591 10.2758 9.26267 10.1983 9.16915C10.0737 9.01978 10.1208 8.73922 10.3404 8.73177C10.4554 8.72722 10.6041 8.73922 10.6816 8.83274ZM11.5312 6.07522C11.5254 6.06628 11.5168 6.05944 11.5067 6.05572C11.4967 6.05199 11.4857 6.05158 11.4754 6.05453C11.4491 6.06322 11.4316 6.09178 11.4416 6.11702C11.9437 7.45646 11.3024 8.11605 11.0345 9.05371C10.7133 8.29191 11.7783 7.57522 11.2295 6.18653C11.2216 6.16874 11.2074 6.15426 11.1879 6.15136C11.1604 6.14764 11.1341 6.15881 11.1299 6.19522C11.1158 6.29288 11.0512 7.06253 10.4224 7.51357C10.3553 7.35411 10.2556 7.21024 10.1295 7.09109C10.0712 6.83164 9.90077 6.47536 9.54202 6.37026C9.48827 6.23578 9.38036 6.04336 9.17244 5.93991C8.97661 5.84309 8.75036 5.85178 8.49869 5.96515C8.19494 6.00033 7.98577 6.11826 7.87577 6.31481C7.77161 6.5006 7.79036 6.70295 7.82536 6.84074C7.56952 7.11219 7.55744 7.5144 7.56411 7.67205C7.41202 8.03453 7.49744 8.45784 7.54536 8.63371C7.36369 9.12653 7.54119 9.60446 7.61202 9.76295C7.61202 9.80598 7.61411 9.84653 7.61661 9.88709C7.02161 9.24074 5.66786 8.44005 5.15077 8.13467C5.13903 8.12756 5.12522 8.12455 5.11156 8.12612C5.09789 8.1277 5.08515 8.13377 5.07536 8.14336C5.06916 8.14906 5.06416 8.15592 5.06064 8.16354C5.05712 8.17116 5.05514 8.1794 5.05483 8.18778C5.05452 8.19616 5.05588 8.20452 5.05883 8.21237C5.06178 8.22023 5.06627 8.22743 5.07202 8.23357C6.22536 9.35081 7.25452 10.7296 8.24286 13.5905C8.73619 13.0812 9.62744 12.4116 10.8958 12.4116H12.3795C11.437 8.92419 12.8095 7.67619 11.5312 6.07522ZM18.5462 7.87853C18.2749 7.80819 16.5429 7.50364 14.6016 11.0494C14.8849 9.72902 15.7458 8.13136 15.9816 7.6675V7.66419C15.9885 7.65101 15.9906 7.63583 15.9874 7.6213C15.9842 7.60678 15.976 7.59383 15.9641 7.58474C15.9517 7.5763 15.9365 7.57308 15.9217 7.5758C15.9069 7.57851 15.8939 7.58694 15.8854 7.59922C14.6029 9.72322 14.1524 10.9472 13.8866 12.4116H14.6904C14.827 10.9998 16.6224 7.67412 18.5362 7.92115H18.5383C18.5495 7.92364 18.5591 7.91453 18.5604 7.90502C18.5645 7.8926 18.557 7.8806 18.5462 7.87853ZM14.687 19.5607L14.2529 17.7587H13.5137C13.6308 18.2159 13.7979 18.681 14.0145 19.089C14.0209 19.1007 14.0306 19.1103 14.0425 19.1164C14.0544 19.1225 14.0679 19.125 14.0812 19.1234C14.0991 19.1202 14.115 19.1102 14.1254 19.0955C14.1359 19.0807 14.14 19.0625 14.137 19.0447C14.0866 18.6632 14.0266 18.2954 13.9695 17.9279C14.1262 18.5052 14.337 19.0692 14.6216 19.5885C14.6291 19.6046 14.6454 19.612 14.6608 19.6071C14.6816 19.6025 14.6924 19.5806 14.687 19.5607ZM15.4341 18.7427C15.3583 18.4414 15.2795 18.0719 15.212 17.7587H14.9308C15.0404 18.093 15.1879 18.4658 15.3191 18.7845C15.332 18.8155 15.3616 18.8308 15.3899 18.8229C15.4063 18.8178 15.42 18.8066 15.4282 18.7916C15.4365 18.7766 15.4386 18.7591 15.4341 18.7427ZM15.5279 19.8024L15.5258 19.7983C15.4349 19.5463 15.3091 19.3207 15.2095 19.0791C15.1016 18.8405 15.0035 18.5977 14.9154 18.3512C14.8445 18.1654 14.7691 17.9523 14.7112 17.7587H14.4399C14.5166 17.9842 14.6162 18.2271 14.7091 18.4447C14.9133 18.9363 15.1495 19.418 15.4504 19.8487C15.456 19.8565 15.4641 19.8622 15.4734 19.8648C15.4827 19.8675 15.4927 19.8669 15.5016 19.8632C15.5258 19.8541 15.5366 19.8268 15.5279 19.8024ZM15.9337 11.1541C15.9129 11.1231 15.8624 11.1165 15.8387 11.1417C15.4817 11.521 15.1806 11.9486 14.9441 12.4116H15.237C15.3837 12.0698 15.7137 11.4661 15.9262 11.2485L15.9283 11.2464C15.9393 11.2338 15.9458 11.2179 15.9468 11.2012C15.9478 11.1845 15.9432 11.1679 15.9337 11.1541ZM13.7029 8.65274C13.9741 8.2104 14.3766 7.87191 14.7179 7.46309C14.7238 7.45532 14.7268 7.44565 14.7261 7.4359C14.7254 7.42615 14.7211 7.41698 14.7141 7.41012C14.7111 7.40672 14.7074 7.40397 14.7032 7.40206C14.6991 7.40014 14.6946 7.39909 14.69 7.39897C14.6854 7.39885 14.6809 7.39967 14.6766 7.40138C14.6724 7.40308 14.6686 7.40564 14.6654 7.40888C14.5874 7.49122 14.5066 7.5686 14.4237 7.64515C14.3874 7.62778 14.2958 7.66295 14.2024 7.73536C14.1295 7.79288 14.077 7.8566 14.0583 7.90253C14.0112 7.89178 13.9229 7.9464 13.8429 8.04777C13.777 8.1326 13.7391 8.22157 13.7399 8.2766C13.6895 8.28074 13.6166 8.34446 13.5541 8.44584C13.5137 8.51288 13.4874 8.57784 13.4787 8.63164C13.4267 8.67165 13.383 8.72125 13.3499 8.77771C13.2941 8.8704 13.2654 8.9635 13.2741 9.01729C13.2612 9.04088 13.2479 9.06281 13.237 9.08557L13.2437 9.03095C13.3237 8.40488 13.4391 7.78502 13.6154 7.18709C13.7924 6.59081 14.0045 5.98957 14.3687 5.50667L14.3712 5.5046C14.3802 5.49153 14.3845 5.47579 14.3833 5.45999C14.3821 5.44418 14.3754 5.42927 14.3645 5.41771C14.3592 5.41169 14.3527 5.40684 14.3454 5.40348C14.3381 5.40013 14.3301 5.39833 14.3221 5.39821C14.314 5.3981 14.3061 5.39966 14.2986 5.4028C14.2912 5.40595 14.2846 5.4106 14.2791 5.41647C14.1559 5.55021 14.0463 5.69575 13.952 5.85095C13.9108 5.82902 13.8233 5.91053 13.7566 6.03798C13.6954 6.15302 13.6733 6.25978 13.6966 6.30074C13.6966 6.30074 13.6954 6.30405 13.6929 6.30281C13.6491 6.28419 13.5683 6.38102 13.5191 6.51053C13.4712 6.6326 13.4624 6.74474 13.4954 6.7824C13.4929 6.78447 13.4929 6.78571 13.4916 6.78777C13.4429 6.76998 13.3629 6.88129 13.3137 7.03853C13.2729 7.17136 13.2687 7.28681 13.2983 7.33315C13.3004 7.33522 13.2983 7.34102 13.2962 7.33978C13.2458 7.32198 13.1691 7.4366 13.1245 7.5926C13.0795 7.74322 13.0829 7.87646 13.1254 7.90253C13.0762 7.89715 13.0074 8.01136 12.9712 8.16653C12.9387 8.3006 12.942 8.41605 12.9737 8.4624C12.9254 8.47646 12.872 8.5886 12.8445 8.73384C12.8183 8.87578 12.8312 8.99329 12.8662 9.03095C12.8216 9.05371 12.7758 9.16915 12.7591 9.31233C12.7429 9.45426 12.7637 9.57053 12.8008 9.60819C12.7637 9.64957 12.7274 9.74846 12.712 9.86764C12.697 9.9806 12.7066 10.0787 12.7287 10.1337C12.6883 10.1676 12.6574 10.2823 12.6562 10.4196C12.6533 10.5293 12.6695 10.6228 12.6979 10.6766C12.6722 10.7486 12.6596 10.8245 12.6608 10.9009C12.6587 11.0163 12.677 11.1152 12.7066 11.1669C12.6979 11.5729 12.7033 12.0049 12.7254 12.4116H13.6079C13.6141 12.0951 13.6354 11.7496 13.6666 11.4363C13.7291 10.8777 13.822 10.3104 14.1033 9.83329L14.1054 9.82998C14.1098 9.82169 14.1117 9.81225 14.1107 9.80288C14.1098 9.79352 14.106 9.78465 14.0999 9.77743C14.0833 9.76295 14.0604 9.76295 14.0449 9.78074C13.6633 10.2206 13.4962 10.8177 13.3979 11.3904C13.3804 11.5025 13.3662 11.6155 13.3529 11.7281C13.377 11.2683 13.4195 10.8107 13.5258 10.3754C13.647 9.84529 13.8899 9.34088 14.3524 9.05826C14.3599 9.05341 14.3656 9.04623 14.3685 9.03784C14.3715 9.02945 14.3715 9.02033 14.3687 9.01191C14.3662 9.00227 14.36 8.99399 14.3514 8.98887C14.3429 8.98376 14.3326 8.98222 14.3229 8.9846C14.2933 8.99329 14.2662 9.0086 14.2374 9.02102C14.207 8.98336 14.0945 9.01109 13.9783 9.08433C13.8679 9.15591 13.7945 9.24405 13.8024 9.29247C13.8024 9.29453 13.797 9.29784 13.797 9.29329C13.7963 9.28825 13.7945 9.28344 13.7916 9.27922C13.7499 9.24529 13.6383 9.32226 13.5441 9.45302C13.4491 9.58377 13.412 9.72033 13.4524 9.7555C13.4545 9.75633 13.4537 9.75964 13.4516 9.75964C13.402 9.73978 13.3204 9.85109 13.2687 10.0063C13.2316 10.1147 13.2229 10.2148 13.2362 10.2723C13.2362 10.274 13.2337 10.2765 13.2337 10.2765C13.1954 10.4018 13.1637 10.5285 13.1341 10.6567C13.1454 10.4755 13.1616 10.293 13.1879 10.1126C13.2654 9.59371 13.4229 9.08557 13.7029 8.65274ZM16.4791 7.20529C16.4153 7.17804 16.3442 7.17265 16.277 7.18998C16.2269 7.20279 16.1804 7.22686 16.1412 7.26033C16.1477 7.2127 16.1452 7.16426 16.1337 7.11757C16.1192 7.04623 16.0825 6.98123 16.0287 6.93178C15.7904 6.6955 15.9541 5.98378 15.8987 5.97509C15.8441 5.96764 15.8637 6.67688 15.7512 7.00874C15.727 7.07936 15.7243 7.15548 15.7433 7.22764C15.7598 7.29919 15.7976 7.36418 15.8516 7.41426C15.8987 7.45522 15.9554 7.47384 16.0091 7.45729C16.0239 7.45477 16.0377 7.44866 16.0495 7.4395C16.0495 7.4486 16.0495 7.45729 16.0504 7.46598C16.0629 7.52433 16.1041 7.56943 16.1612 7.59591C16.2251 7.62437 16.297 7.62978 16.3645 7.61122C16.4341 7.59546 16.4967 7.55771 16.5429 7.50364C16.767 7.24502 17.2941 6.87674 17.2624 6.8275C17.2304 6.77909 16.7854 7.32198 16.4791 7.20529ZM17.4987 6.30943C17.4645 6.26102 17.0424 6.75012 16.7549 6.62805C16.6964 6.59952 16.6294 6.59334 16.5666 6.61067C16.5305 6.62238 16.4971 6.64109 16.4683 6.66571C16.467 6.64584 16.4683 6.62805 16.4641 6.61067C16.4488 6.5453 16.4112 6.48715 16.3579 6.44598C16.1174 6.23702 16.3066 5.60143 16.2495 5.59481C16.1916 5.58819 16.1929 6.22046 16.0679 6.51715C16.04 6.57793 16.0347 6.64652 16.0529 6.71081C16.0704 6.78115 16.1099 6.8395 16.1591 6.87674C16.182 6.89454 16.2085 6.90719 16.2367 6.91384C16.265 6.92048 16.2944 6.92095 16.3229 6.91522C16.347 6.90805 16.3696 6.89655 16.3895 6.88129C16.3895 6.8846 16.3883 6.88874 16.3895 6.89205C16.3979 6.92108 16.4122 6.94808 16.4316 6.97137C16.4509 6.99465 16.4749 7.01371 16.502 7.02736C16.5602 7.0545 16.6264 7.05994 16.6883 7.04267C16.7506 7.02668 16.8048 6.98836 16.8404 6.93509C17.0183 6.67026 17.5324 6.35991 17.4987 6.30943ZM17.6024 5.69702C17.5649 5.65853 17.2624 6.16212 16.9879 6.10171C16.9323 6.08625 16.873 6.09216 16.8216 6.11826C16.7953 6.1296 16.7715 6.14606 16.7516 6.16667C16.7516 6.15426 16.7549 6.14226 16.7549 6.12902C16.7496 6.06857 16.7246 6.01149 16.6837 5.9664C16.4991 5.74212 16.7558 5.21122 16.7066 5.19467C16.6566 5.18019 16.5691 5.73881 16.4158 5.98171C16.3834 6.03239 16.3696 6.09258 16.3766 6.15219C16.3808 6.21715 16.4083 6.2755 16.4466 6.31605C16.4858 6.3566 16.5341 6.37895 16.5866 6.37564C16.6255 6.37222 16.6618 6.35452 16.6883 6.32598C16.6883 6.34791 16.6924 6.37191 16.7033 6.39509C16.7146 6.41939 16.7311 6.44095 16.7517 6.45825C16.7723 6.47555 16.7964 6.48817 16.8224 6.49522C16.8741 6.51178 16.9354 6.50722 16.9899 6.48074C17.0425 6.45555 17.0844 6.41276 17.1083 6.35991C17.2283 6.09509 17.6383 5.7355 17.6024 5.69702ZM17.4208 4.99771C17.3587 4.95384 17.1608 5.44295 16.9254 5.5704C16.8757 5.5987 16.8357 5.64125 16.8108 5.69246C16.7827 5.74513 16.7712 5.80496 16.7779 5.86419C16.7833 5.91591 16.8074 5.95978 16.8458 5.98171C16.8659 5.99286 16.8885 5.99865 16.9115 5.9985C16.9345 5.99836 16.9571 5.99229 16.977 5.98088C17.0279 5.9529 17.0687 5.90977 17.0937 5.85757C17.1211 5.80511 17.1325 5.74588 17.1266 5.68709C17.1091 5.41026 17.4645 5.02502 17.4208 4.99771ZM13.1049 17.7587H10.6279C10.4595 17.7587 10.3074 17.7454 10.1674 17.7202C10.1687 17.7202 10.1687 17.721 10.1687 17.721C10.5754 18.3214 11.2129 18.777 11.8591 19.0824C11.9587 19.6298 12.0833 20.1367 12.1283 20.1765C12.1741 20.2158 12.8083 20.0345 12.8283 19.9762C12.8466 19.9183 12.5687 18.9802 12.5687 18.9802C12.9024 18.4116 13.0054 18.076 13.1049 17.7587ZM19.3354 21.9665C18.7099 22.2119 17.8941 22.2322 17.2283 22.0567C15.7029 21.585 14.0091 20.6912 12.3829 21.4332C10.757 20.6912 9.06327 21.585 7.53786 22.0567C6.87202 22.2322 6.05619 22.2119 5.43077 21.9665C5.42717 21.9649 5.4231 21.9648 5.41936 21.966C5.41562 21.9672 5.41248 21.9698 5.41055 21.9732C5.40862 21.9766 5.40805 21.9806 5.40894 21.9845C5.40983 21.9883 5.41211 21.9916 5.41536 21.9938C6.31536 22.6853 7.57619 23.0035 8.71119 22.5963C9.80119 22.2591 10.7233 21.112 12.0145 21.6016C10.992 21.9984 10.0362 22.7308 9.29827 23.4218L9.83494 23.8596C10.5054 23.0846 11.2599 22.3096 12.1141 21.8378C12.2308 21.7696 12.3008 21.7423 12.3829 21.7377C12.4654 21.7423 12.5349 21.7696 12.6508 21.8378C13.5062 22.3096 14.2608 23.0846 14.9308 23.8596L15.4679 23.4218C14.7299 22.7308 13.7741 21.9984 12.7516 21.6016C14.0429 21.112 14.9649 22.2591 16.0549 22.5963C17.1899 23.0035 18.4508 22.6853 19.3508 21.9938C19.3649 21.9818 19.3529 21.9599 19.3354 21.9665ZM9.28161 20.9217C7.68744 20.5381 7.25119 19.0538 5.91827 18.4096C5.90411 18.4021 5.88869 18.4187 5.89744 18.4315C6.31744 19.1176 6.54494 20.1686 7.75536 20.8166C7.76536 20.8216 7.75994 20.8373 7.74869 20.834C6.01244 20.5021 5.28286 20.9635 3.46327 20.1467C3.44786 20.14 3.43161 20.1566 3.44161 20.1711C4.03952 21.033 5.45869 21.6223 7.40327 21.4596C8.10327 21.4005 8.61036 21.1079 9.28161 20.9519C9.29827 20.9474 9.29827 20.925 9.28161 20.9217ZM5.94244 20.0114C5.33661 19.2231 5.50911 17.5402 4.14119 15.9996C4.13036 15.9876 4.11077 15.9972 4.11411 16.0125C4.37536 17.1471 4.29744 18.436 5.01286 19.3803C5.01952 19.3903 5.00952 19.4002 4.99952 19.3936C3.58911 18.2908 2.13911 17.9585 1.49369 17.066C1.48411 17.054 1.46452 17.0602 1.46661 17.0759C1.62619 18.2312 3.86119 20.0325 5.93036 20.0358C5.94244 20.0358 5.94994 20.0217 5.94244 20.0114ZM3.82411 17.9159C3.17452 16.7196 3.95077 14.8944 3.21411 13.1209C3.20619 13.1023 3.17786 13.1068 3.17786 13.1267C3.15619 14.0949 2.55036 15.5412 2.91661 16.6327C2.92077 16.6427 2.90786 16.6481 2.90244 16.6394C1.96952 15.2858 1.22952 15.0032 0.61244 13.7643C0.60369 13.7457 0.575357 13.7507 0.574107 13.7705C0.53494 14.6126 0.90994 15.2991 1.33327 15.9367C1.9969 16.7775 2.84063 17.4611 3.80327 17.9378C3.81786 17.9445 3.83077 17.93 3.82411 17.9159ZM3.38369 10.6307C3.38244 10.6108 3.35619 10.6042 3.34619 10.6216C2.85077 11.5418 1.96869 12.2743 1.93994 13.4896C1.93911 13.5016 1.92577 13.5024 1.92369 13.4912C1.76286 12.5536 0.961607 11.5025 0.926607 10.1445C0.926607 10.1238 0.897024 10.1184 0.889107 10.1378C0.22994 11.9039 1.17786 13.5781 2.18702 14.9614C2.19827 14.9755 2.21994 14.9672 2.21994 14.9482C2.17869 13.4825 3.45786 12.3885 3.38369 10.6307ZM4.01327 8.34571C3.54536 8.99122 2.49244 9.44764 2.10744 10.3787C2.10202 10.3919 2.08536 10.3886 2.08786 10.3733C2.24077 9.32971 1.83494 8.11812 2.21577 6.73191C2.22119 6.71205 2.19619 6.69881 2.18411 6.71412C1.60869 7.41674 1.41411 8.24019 1.38244 9.12984C1.34327 10.2227 1.72994 11.0196 1.92161 11.7607C1.92577 11.7785 1.94869 11.7773 1.95327 11.7595C2.22869 10.7879 3.61202 10.2028 4.04494 8.36102C4.05077 8.34157 4.02536 8.32915 4.01327 8.34571ZM5.28286 6.17536C4.51327 6.77453 3.33744 7.35178 3.08494 7.76846C3.08077 7.77715 3.06744 7.77053 3.06952 7.76184L3.35494 6.40171C3.48286 5.82446 3.59327 5.27164 3.91494 4.75481C3.92494 4.7395 3.90619 4.72171 3.89202 4.73288C2.42661 5.88529 2.64077 7.55164 2.57619 8.91633C2.57536 8.93081 2.59286 8.93743 2.60286 8.9275C3.46536 7.99812 4.87161 7.45729 5.30702 6.19398C5.31244 6.17867 5.29577 6.16543 5.28286 6.17536ZM6.37327 4.08612C5.07827 4.12709 4.12702 5.20998 3.71911 6.58874C3.71702 6.5966 3.72786 6.60322 3.73452 6.59867C5.51827 5.30019 5.41827 4.74364 6.38411 4.12584C6.40161 4.11467 6.39411 4.08612 6.37327 4.08612ZM21.3016 20.1467C19.4833 20.9635 18.7529 20.5021 17.0162 20.834C17.0054 20.8373 16.9999 20.8216 17.0095 20.8166C18.2199 20.1686 18.4474 19.1176 18.8674 18.4315C18.8762 18.4187 18.8612 18.4021 18.8466 18.4096C17.5149 19.0538 17.0787 20.5381 15.4833 20.9217C15.4666 20.925 15.4666 20.9474 15.4833 20.9519C16.1545 21.1079 16.662 21.4005 17.3616 21.4596C19.3058 21.6223 20.7266 21.033 21.3237 20.1711C21.3333 20.1566 21.317 20.14 21.3016 20.1467ZM23.2708 17.066C22.6258 17.9585 21.1758 18.2908 19.7654 19.3936C19.7566 19.4002 19.7458 19.3903 19.7533 19.3803C20.4674 18.436 20.3895 17.1471 20.6508 16.0125C20.6541 15.9972 20.6345 15.9876 20.6237 15.9996C19.2566 17.5402 19.4283 19.2231 18.8237 20.0114C18.8162 20.0217 18.8224 20.0358 18.8358 20.0358C20.9045 20.0325 23.1387 18.2312 23.2983 17.0759C23.3004 17.0602 23.2808 17.054 23.2708 17.066ZM24.1908 13.7705C24.1895 13.7507 24.1612 13.7457 24.1524 13.7643C23.5358 15.0032 22.7954 15.2858 21.8637 16.6394C21.857 16.6481 21.8449 16.6427 21.8487 16.6327C22.2145 15.5412 21.6099 14.0949 21.587 13.1267C21.587 13.1068 21.5587 13.1023 21.5512 13.1209C20.8141 14.8944 21.5904 16.7196 20.942 17.9159C20.9341 17.93 20.9474 17.9445 20.9616 17.9378C21.9243 17.4612 22.7681 16.7776 23.4316 15.9367C23.8549 15.2991 24.2299 14.6126 24.1908 13.7705ZM23.8758 10.1378C23.8683 10.1184 23.8387 10.1238 23.8387 10.1445C23.8037 11.5025 23.002 12.5536 22.8412 13.4912C22.8391 13.5024 22.8262 13.5016 22.8262 13.4896C22.7974 12.2743 21.9141 11.5418 21.4187 10.6216C21.4087 10.6042 21.3824 10.6108 21.3824 10.6307C21.3083 12.3885 22.5866 13.4825 22.5449 14.9482C22.5449 14.9672 22.5679 14.9755 22.5787 14.9614C23.587 13.5781 24.5349 11.9039 23.8758 10.1378ZM23.3824 9.12984C23.3508 8.24019 23.1562 7.41674 22.5812 6.71412C22.5691 6.69881 22.5449 6.71205 22.5495 6.73191C22.9299 8.11812 22.5241 9.32971 22.6783 10.3733C22.6804 10.3886 22.6633 10.3919 22.6574 10.3787C22.2729 9.44764 21.2195 8.99122 20.7516 8.34571C20.7408 8.32915 20.7154 8.34157 20.7199 8.36102C21.1529 10.2028 22.5362 10.7879 22.812 11.7595C22.8162 11.7773 22.8391 11.7785 22.8437 11.7607C23.0349 11.0196 23.422 10.2227 23.3824 9.12984ZM20.8729 4.73288C20.8587 4.72171 20.8404 4.7395 20.8499 4.75481C21.1716 5.27164 21.282 5.82446 21.4099 6.40171L21.6954 7.76184C21.6974 7.77053 21.6841 7.77715 21.6799 7.76846C21.4274 7.35178 20.2529 6.77453 19.482 6.17536C19.4699 6.16543 19.4524 6.17867 19.4579 6.19398C19.8933 7.45729 21.2995 7.99812 22.162 8.9275C22.172 8.93743 22.1895 8.93081 22.1883 8.91633C22.1241 7.55164 22.3383 5.88529 20.8729 4.73288ZM18.392 4.08612C18.3712 4.08612 18.3645 4.11467 18.3808 4.12584C19.3466 4.74364 19.247 5.30019 21.0304 6.59867C21.0383 6.60322 21.0479 6.5966 21.0458 6.58874C20.6379 5.20998 19.6866 4.12709 18.392 4.08612ZM30.1524 12.1849H29.2224L28.7004 10.1751C28.6812 10.1035 28.6483 9.95577 28.6016 9.7315C28.568 9.5823 28.5411 9.43166 28.5212 9.28005C28.5108 9.37398 28.4845 9.52543 28.4424 9.73398C28.3999 9.94253 28.3674 10.0915 28.3445 10.1805L27.8258 12.1849H26.8979L25.9149 8.35895H26.7187L27.2116 10.4474C27.2979 10.833 27.3599 11.1669 27.3987 11.4496C27.4091 11.3503 27.4333 11.1963 27.4712 10.9878C27.5087 10.7792 27.5445 10.6174 27.5779 10.5024L28.1391 8.35895H28.9112L29.4724 10.5024C29.497 10.598 29.5279 10.7449 29.5649 10.9418C29.6016 11.1392 29.6299 11.3081 29.6491 11.4496C29.6666 11.3134 29.6945 11.1442 29.7337 10.9402C29.772 10.7374 29.8074 10.5732 29.8391 10.4474L30.3291 8.35895H31.1329L30.1524 12.1849ZM32.0599 10.7167C32.0599 11.0068 32.1074 11.2253 32.2037 11.3734C32.2991 11.522 32.4549 11.5961 32.6712 11.5961C32.8854 11.5961 33.0395 11.5224 33.1337 11.3751C33.2279 11.2278 33.2745 11.0081 33.2745 10.7167C33.2745 10.4271 33.2274 10.2103 33.1324 10.065C33.0374 9.9206 32.882 9.84819 32.6658 9.84819C32.4516 9.84819 32.297 9.92019 32.202 10.0638C32.1074 10.2078 32.0599 10.4254 32.0599 10.7167ZM34.0966 10.7167C34.0966 11.193 33.9704 11.5654 33.7174 11.8344C33.4645 12.1029 33.112 12.2374 32.6608 12.2374C32.3779 12.2374 32.1283 12.1758 31.9124 12.0529C31.6964 11.9302 31.5228 11.7454 31.4145 11.5228C31.2983 11.2927 31.2404 11.0238 31.2404 10.7167C31.2404 10.2388 31.3658 9.86722 31.617 9.60198C31.8683 9.33674 32.2216 9.20391 32.6766 9.20391C32.9591 9.20391 33.2087 9.26557 33.4249 9.38722C33.6412 9.50929 33.807 9.68474 33.9229 9.91357C34.0387 10.142 34.0966 10.4097 34.0966 10.7167ZM36.3366 9.20391C36.4458 9.20391 36.5362 9.21219 36.6083 9.22791L36.5474 9.97605C36.4699 9.95718 36.3902 9.94842 36.3104 9.94998C36.0541 9.94998 35.8541 10.0154 35.7112 10.1461C35.5679 10.2773 35.4962 10.4602 35.4962 10.6961V12.1849H34.6924V9.25895H35.3012L35.4195 9.75095H35.4591C35.5508 9.58709 35.6741 9.45509 35.8295 9.35453C35.9799 9.25577 36.1563 9.20336 36.3366 9.20391ZM37.0654 12.1849H37.8691V8.11274H37.0654V12.1849ZM39.882 11.6014C40.0874 11.6014 40.2383 11.5418 40.3341 11.4231C40.4299 11.3047 40.482 11.1032 40.4908 10.8185V10.7325C40.4908 10.4184 40.442 10.1933 40.3445 10.0576C40.247 9.92102 40.0883 9.85315 39.8687 9.85315C39.6895 9.85315 39.5504 9.92846 39.4512 10.0795C39.352 10.2305 39.3024 10.4498 39.3024 10.7378C39.3024 11.0254 39.3524 11.2414 39.4524 11.3854C39.5529 11.5294 39.6958 11.6014 39.882 11.6014ZM39.5999 12.2374C39.2537 12.2374 38.982 12.1038 38.7845 11.8369C38.5866 11.57 38.4883 11.2001 38.4883 10.7275C38.4883 10.2475 38.5887 9.87343 38.7899 9.60612C38.9908 9.33798 39.2683 9.20391 39.6212 9.20391C39.9916 9.20391 40.2749 9.34709 40.4695 9.63343H40.4962C40.4583 9.44102 40.438 9.24561 40.4354 9.04957V8.11274H41.2416V12.1849H40.6249L40.4695 11.8054H40.4354C40.2529 12.093 39.9741 12.2374 39.5999 12.2374ZM44.2541 12.1849H43.4504V8.35895H45.6587V9.02391H44.2541V10.01H45.5612V10.6725H44.2541V12.1849ZM46.912 10.7167C46.912 11.0068 46.9599 11.2253 47.0558 11.3734C47.1512 11.522 47.3074 11.5961 47.5233 11.5961C47.7374 11.5961 47.8916 11.5224 47.9858 11.3751C48.0799 11.2278 48.1266 11.0081 48.1266 10.7167C48.1266 10.4271 48.0795 10.2103 47.9845 10.065C47.8895 9.9206 47.7341 9.84819 47.5179 9.84819C47.3037 9.84819 47.1491 9.92019 47.0541 10.0638C46.9595 10.2078 46.912 10.4254 46.912 10.7167ZM48.9487 10.7167C48.9487 11.193 48.8224 11.5654 48.5695 11.8344C48.3166 12.1029 47.9641 12.2374 47.5129 12.2374C47.2299 12.2374 46.9804 12.1758 46.7645 12.0529C46.5485 11.9302 46.3749 11.7454 46.2666 11.5228C46.1504 11.2927 46.0924 11.0238 46.0924 10.7167C46.0924 10.2388 46.2179 9.86722 46.4691 9.60198C46.7204 9.33674 47.0737 9.20391 47.5287 9.20391C47.8116 9.20391 48.0608 9.26557 48.277 9.38722C48.4933 9.50929 48.6591 9.68474 48.7749 9.91357C48.8908 10.142 48.9487 10.4097 48.9487 10.7167ZM50.2029 10.7167C50.2029 11.0068 50.2508 11.2253 50.3462 11.3734C50.442 11.522 50.5979 11.5961 50.8141 11.5961C51.0283 11.5961 51.1824 11.5224 51.2766 11.3751C51.3704 11.2278 51.4174 11.0081 51.4174 10.7167C51.4174 10.4271 51.3704 10.2103 51.2754 10.065C51.1804 9.9206 51.0249 9.84819 50.8087 9.84819C50.5945 9.84819 50.4399 9.92019 50.3449 10.0638C50.2504 10.2078 50.2029 10.4254 50.2029 10.7167ZM52.2395 10.7167C52.2395 11.193 52.1133 11.5654 51.8604 11.8344C51.6074 12.1029 51.2549 12.2374 50.8037 12.2374C50.5208 12.2374 50.2712 12.1758 50.0554 12.0529C49.8393 11.9301 49.6656 11.7453 49.557 11.5228C49.4412 11.2927 49.3833 11.0238 49.3833 10.7167C49.3833 10.2388 49.5087 9.86722 49.7599 9.60198C50.0112 9.33674 50.3641 9.20391 50.8195 9.20391C51.102 9.20391 51.3516 9.26557 51.5679 9.38722C51.7841 9.50929 51.9499 9.68474 52.0658 9.91357C52.1816 10.142 52.2395 10.4097 52.2395 10.7167ZM54.0804 11.6014C54.2858 11.6014 54.4362 11.5418 54.532 11.4231C54.6279 11.3047 54.6799 11.1032 54.6891 10.8185V10.7325C54.6891 10.4184 54.6404 10.1933 54.5429 10.0576C54.4454 9.92102 54.2866 9.85315 54.067 9.85315C53.8879 9.85315 53.7487 9.92846 53.6495 10.0795C53.5499 10.2305 53.5004 10.4498 53.5004 10.7378C53.5004 11.0254 53.5504 11.2414 53.6508 11.3854C53.7508 11.5294 53.8941 11.6014 54.0804 11.6014ZM53.7983 12.2374C53.452 12.2374 53.1804 12.1038 52.9829 11.8369C52.7849 11.57 52.6862 11.2001 52.6862 10.7275C52.6862 10.2475 52.7866 9.87343 52.9879 9.60612C53.1891 9.33798 53.4662 9.20391 53.8191 9.20391C54.1899 9.20391 54.4729 9.34709 54.6679 9.63343H54.6945C54.6564 9.44105 54.6361 9.24562 54.6337 9.04957V8.11274H55.4399V12.1849H54.8233L54.6679 11.8054H54.6337C54.4512 12.093 54.1724 12.2374 53.7983 12.2374ZM27.232 15.633H27.5008C27.752 15.633 27.9399 15.5838 28.0649 15.4853C28.1895 15.3868 28.252 15.2432 28.252 15.0549C28.252 14.8646 28.1995 14.7243 28.0949 14.6333C27.9904 14.5427 27.827 14.4976 27.6037 14.4976H27.232V15.633ZM29.077 15.026C29.077 15.4377 28.947 15.7526 28.6883 15.9711C28.4291 16.1892 28.0604 16.298 27.5829 16.298H27.232V17.6589H26.4154V13.833H27.6458C28.1133 13.833 28.4687 13.9327 28.712 14.1322C28.9554 14.3325 29.077 14.63 29.077 15.026ZM31.1129 14.678C31.222 14.678 31.3124 14.6858 31.3849 14.7016L31.3241 15.4501C31.2466 15.4311 31.1669 15.4222 31.087 15.4236C30.8304 15.4236 30.6304 15.4894 30.487 15.6202C30.3441 15.7509 30.2729 15.9343 30.2729 16.1697V17.6589H29.4687V14.7326H30.0774L30.1962 15.225H30.2358C30.327 15.0607 30.4508 14.9287 30.6062 14.8286C30.7564 14.7298 30.9327 14.6774 31.1129 14.678ZM32.3233 16.1908C32.3233 16.4805 32.3712 16.6989 32.4666 16.8475C32.5624 16.9956 32.7183 17.0701 32.9341 17.0701C33.1487 17.0701 33.3029 16.9961 33.397 16.8492C33.4908 16.7014 33.5383 16.4821 33.5383 16.1908C33.5383 15.9012 33.4904 15.6839 33.3958 15.5391C33.3008 15.3943 33.1454 15.3218 32.9295 15.3218C32.7149 15.3218 32.5604 15.3938 32.4654 15.5378C32.3708 15.6814 32.3233 15.8995 32.3233 16.1908ZM34.3599 16.1908C34.3599 16.6667 34.2337 17.0395 33.9808 17.308C33.7279 17.5766 33.3754 17.7115 32.9241 17.7115C32.6408 17.7115 32.3916 17.6494 32.1754 17.5265C31.9594 17.4037 31.7859 17.2189 31.6774 16.9965C31.5616 16.7668 31.5037 16.4978 31.5037 16.1908C31.5037 15.7129 31.6291 15.3409 31.8804 15.076C32.1316 14.8108 32.4845 14.678 32.9395 14.678C33.2229 14.678 33.472 14.7392 33.6883 14.8613C33.9038 14.9827 34.0774 15.1661 34.1862 15.3872C34.3024 15.6156 34.3599 15.8838 34.3599 16.1908ZM35.3845 15.6909C35.3845 15.8498 35.4212 15.9752 35.4941 16.0675C35.567 16.1602 35.6779 16.2065 35.8279 16.2065C35.9787 16.2065 36.0895 16.1602 36.1599 16.0675C36.2299 15.9752 36.2654 15.8498 36.2654 15.6909C36.2654 15.3384 36.1191 15.1621 35.8279 15.1621C35.5324 15.1621 35.3845 15.3384 35.3845 15.6909ZM35.0924 18.0723C35.0924 18.182 35.1454 18.2685 35.2516 18.3314C35.3583 18.3943 35.507 18.4257 35.6983 18.4257C35.9866 18.4257 36.2124 18.386 36.3758 18.3078C36.5391 18.2296 36.6208 18.122 36.6208 17.9863C36.6208 17.8762 36.5724 17.8001 36.4758 17.7583C36.3791 17.7161 36.2299 17.6958 36.0279 17.6958H35.6112C35.4641 17.6958 35.3404 17.7301 35.2416 17.7988C35.142 17.8679 35.0924 17.9589 35.0924 18.0723ZM37.3666 14.7326V15.1385L36.9054 15.2565C36.9899 15.3872 37.0316 15.5337 37.0316 15.6963C37.0316 16.01 36.9216 16.2545 36.7008 16.43C36.4808 16.6054 36.1745 16.6932 35.7824 16.6932L35.6379 16.6853L35.5195 16.6721C35.4366 16.7349 35.3954 16.8049 35.3954 16.8818C35.3954 16.9965 35.5429 17.0544 35.8379 17.0544H36.3387C36.662 17.0544 36.9087 17.1235 37.0783 17.2613C37.2474 17.3991 37.3324 17.6014 37.3324 17.8683C37.3324 18.2101 37.1887 18.4754 36.9016 18.6636C36.6141 18.8519 36.2016 18.9463 35.6641 18.9463C35.2533 18.9463 34.9391 18.8751 34.722 18.7332C34.5049 18.5912 34.3966 18.3914 34.3966 18.1352C34.3966 17.9589 34.452 17.8116 34.5629 17.6929C34.6733 17.5745 34.8358 17.4893 35.0504 17.4388C34.9643 17.4016 34.8897 17.3425 34.8341 17.2675C34.7755 17.1961 34.7429 17.1072 34.7416 17.0151C34.7416 16.9034 34.7741 16.8107 34.8395 16.7362C34.9045 16.6621 34.9987 16.5893 35.1216 16.5177C34.968 16.4527 34.8391 16.3408 34.7537 16.1983C34.6633 16.0522 34.6179 15.8792 34.6179 15.6802C34.6179 15.3612 34.7224 15.1141 34.9316 14.9395C35.1404 14.7653 35.4391 14.678 35.8279 14.678C35.9099 14.678 36.0079 14.6854 36.1216 14.6999C36.2345 14.7148 36.307 14.726 36.3387 14.7326H37.3666ZM39.2737 14.678C39.3829 14.678 39.4733 14.6858 39.5458 14.7016L39.4849 15.4501C39.4074 15.4311 39.3277 15.4222 39.2479 15.4236C38.9912 15.4236 38.7912 15.4894 38.6479 15.6202C38.5049 15.7509 38.4337 15.9343 38.4337 16.1697V17.6589H37.6295V14.7326H38.2383L38.357 15.225H38.3966C38.4879 15.0607 38.6112 14.9287 38.7666 14.8286C38.917 14.7299 39.0934 14.6775 39.2737 14.678ZM41.4233 16.3029L41.112 16.3137C40.8787 16.3203 40.7049 16.3625 40.5904 16.4391C40.4762 16.5161 40.4191 16.6327 40.4191 16.79C40.4191 17.0151 40.5495 17.1272 40.8095 17.1272C40.9954 17.1272 41.1445 17.0747 41.2558 16.9679C41.3674 16.8616 41.4233 16.72 41.4233 16.5438V16.3029ZM41.6604 17.6589L41.5049 17.2613H41.4841C41.3487 17.4301 41.2095 17.5476 41.0662 17.613C40.9229 17.6788 40.7362 17.7115 40.5062 17.7115C40.2237 17.7115 40.0004 17.6308 39.8383 17.4707C39.6758 17.3101 39.5945 17.0813 39.5945 16.7846C39.5945 16.4738 39.7041 16.2454 39.9224 16.0977C40.1412 15.9504 40.4708 15.8685 40.912 15.8527L41.4233 15.837V15.7092C41.4233 15.4125 41.2704 15.2643 40.9649 15.2643C40.7291 15.2643 40.4524 15.3347 40.1349 15.4762L39.8687 14.9374C40.2074 14.7612 40.5837 14.6726 40.9962 14.6726C41.3916 14.6726 41.6949 14.7583 41.9058 14.9292C42.1166 15.1 42.2216 15.3603 42.2216 15.7092V17.6589H41.6604ZM45.4324 17.6589H44.6287V15.95C44.6287 15.7389 44.5929 15.5805 44.5216 15.4745C44.4508 15.369 44.3387 15.3169 44.1858 15.3169C43.9804 15.3169 43.8312 15.3914 43.7379 15.542C43.6449 15.6918 43.5983 15.9384 43.5983 16.2823V17.6589H42.7941V14.7326H43.4083L43.5166 15.1075H43.5612C43.6404 14.9726 43.7545 14.8679 43.9041 14.7918C44.0637 14.7134 44.2399 14.6744 44.4179 14.678C44.8587 14.678 45.157 14.8207 45.3137 15.1075H45.3845C45.4641 14.9714 45.5804 14.8658 45.7341 14.7905C45.8964 14.7134 46.0746 14.6749 46.2545 14.678C46.5883 14.678 46.8408 14.7632 47.0124 14.9333C47.1837 15.1034 47.2691 15.3756 47.2691 15.7509V17.6589H46.4624V15.95C46.4624 15.7389 46.427 15.5805 46.3558 15.4745C46.2845 15.369 46.1729 15.3169 46.0199 15.3169C45.8233 15.3169 45.6762 15.3864 45.5787 15.5258C45.4812 15.6653 45.4324 15.8867 45.4324 16.1908V17.6589ZM50.4799 17.6589H49.6762V15.95C49.6762 15.7389 49.6404 15.5805 49.5691 15.4745C49.4983 15.369 49.3862 15.3169 49.2337 15.3169C49.0279 15.3169 48.8787 15.3914 48.7854 15.542C48.6924 15.6918 48.6458 15.9384 48.6458 16.2823V17.6589H47.842V14.7326H48.4558L48.5641 15.1075H48.6091C48.6879 14.9726 48.802 14.8679 48.9516 14.7918C49.1112 14.7134 49.2874 14.6744 49.4654 14.678C49.9062 14.678 50.2049 14.8207 50.3616 15.1075H50.4324C50.5116 14.9714 50.6279 14.8658 50.7816 14.7905C50.944 14.7135 51.1221 14.675 51.302 14.678C51.6358 14.678 51.8887 14.7632 52.0599 14.9333C52.2312 15.1034 52.3166 15.3756 52.3166 15.7509V17.6589H51.5099V15.95C51.5099 15.7389 51.4745 15.5805 51.4037 15.4745C51.3324 15.369 51.2204 15.3169 51.0674 15.3169C50.8708 15.3169 50.7237 15.3864 50.6262 15.5258C50.5287 15.6653 50.4799 15.8867 50.4799 16.1908V17.6589ZM54.1279 15.2461C53.9574 15.2461 53.8237 15.2999 53.727 15.4067C53.6304 15.5143 53.5754 15.6661 53.5608 15.8635H54.6887C54.6858 15.6661 54.6337 15.5143 54.5333 15.4067C54.4333 15.2999 54.2983 15.2461 54.1279 15.2461ZM54.2408 17.7115C53.7666 17.7115 53.3958 17.5812 53.1287 17.3213C52.862 17.061 52.7283 16.6932 52.7283 16.2169C52.7283 15.7265 52.8516 15.3475 53.0987 15.0798C53.3454 14.8121 53.6866 14.678 54.1224 14.678C54.5387 14.678 54.8629 14.7959 55.0949 15.0314C55.327 15.2668 55.4424 15.5925 55.4424 16.0075V16.3948H53.5424C53.5516 16.6216 53.6191 16.7991 53.7458 16.9261C53.872 17.0536 54.0495 17.1169 54.2779 17.1169C54.4472 17.1178 54.6161 17.0994 54.7812 17.0618C54.9395 17.0254 55.1041 16.9671 55.2766 16.8864V17.5046C55.1336 17.5753 54.9821 17.6276 54.8258 17.6602C54.6331 17.6973 54.437 17.7145 54.2408 17.7115Z" fill="currentColor"/>
</g>
<defs>
<clipPath id="clip0_27181_3071">
<rect width="55" height="24" fill="white" transform="translate(0.5)"/>
</clipPath>
</defs>
</svg>
