<svg xmlns="http://www.w3.org/2000/svg" width="24" height="24" fill="none" viewBox="0 0 24 24"><mask id="a" fill="#fff"><path d="M10.1 1.042c0 .025.026.041.049.03l.034-.017a.06.06 0 0 1 .057.002l.059.037v.003l-.082.166a.2.2 0 0 0-.017.072v.112c0 .028.023.05.05.05a.05.05 0 0 1 .05.05v.162c0 .056-.023.11-.062.15l-.053.053a.17.17 0 0 0-.031.193l.03.058q.017.033.054.034c.034 0 .062.028.062.062v.038a.1.1 0 0 0 .1.1h.072q.028 0 .055.01l.234.077a.3.3 0 0 0 .08.013.25.25 0 0 1 .111.026l.087.043a.6.6 0 0 0 .127.047l.174.044c.1.025.18.1.212.197.03.09.1.16.19.19l.157.053.34.085q.061.015.113.05l.113.076a.197.197 0 0 0 .297-.226l-.022-.064a.3.3 0 0 1 .017-.234l.015-.03a.4.4 0 0 1 .073-.102l.073-.073a.28.28 0 0 1 .353-.035l.206.138q.023.016.042.034l.045.045a.12.12 0 0 0 .086.036q.05 0 .086.036l.014.014a.17.17 0 0 0 .12.05h.159c.045 0 .089.018.12.05.033.032.077.05.122.05h.329c.175 0 .316.034.443.082.158.06.337.038.457-.082a.24.24 0 0 1 .22-.066l.305.065a.06.06 0 0 1 .039.03l.004.007a.05.05 0 0 0 .081.013l.018-.017q.002-.002.005-.002l.004.004.507 1.042a.04.04 0 0 1-.008.047.04.04 0 0 0-.009.045l.134.332.1.2.07.14a.4.4 0 0 0 .078.108l.01.01a.4.4 0 0 1 .073.108l.083.194a.03.03 0 0 1-.006.031.03.03 0 0 0-.008.02v.087c0 .065.026.128.072.174l.101.101q.046.046.076.103l.043.08q.008.015.008.033 0 .012.004.022l.069.21a.14.14 0 0 1-.033.139.14.14 0 0 0-.04.096v.175q0 .069.017.135l.018.075c.042.17.142.307.29.4l.006.004c.049.032.085.08.118.129l.096.144a.33.33 0 0 1 .055.18c0 .124.07.237.18.292l.02.01.188.113c.137.082.249.2.323.342q.032.06.072.113l.376.507c.074.1.181.17.302.198l.094.022a.2.2 0 0 1 .09.05l.004.004a.17.17 0 0 0 .177.042l.036-.012a.1.1 0 0 1 .04-.002.1.1 0 0 0 .034 0l.252-.063a.4.4 0 0 1 .108-.014.44.44 0 0 0 .197-.047l.038-.019a.3.3 0 0 1 .092-.03l.027-.003h.032a.04.04 0 0 0 .03-.013.04.04 0 0 1 .02-.012q.121-.03.229-.053a1 1 0 0 1 .197-.023h.225c.049 0 .09.01.129.04a.24.24 0 0 1 .088.18v.09a.22.22 0 0 1-.064.154.2.2 0 0 0-.053.085l-.083.25c-.1.3-.2.501-.3.701l-.055.11a3 3 0 0 1-.36.534c-.083.103-.167.211-.251.31-.086.1-.19.184-.3.257l-.134.089-.4.3-.132.088q-.168.112-.312.255l-.156.158-.1.1-.021.02a.7.7 0 0 1-.18.13l-.064.032a.3.3 0 0 0-.063.045l-.052.052a.07.07 0 0 1-.05.02.07.07 0 0 0-.07.07v.071a.14.14 0 0 1-.042.1l-.03.03a.3.3 0 0 0-.047.065l-.06.123a.07.07 0 0 1-.067.041c-.032 0-.06.02-.07.05l-.071.21a.3.3 0 0 0-.013.082v.046c0 .069.038.132.1.162l.035.018a.117.117 0 0 1 .053.157l-.043.086a.43.43 0 0 0 0 .38l.055.109.081.164a.3.3 0 0 0 .047.064.25.25 0 0 1 .072.175v.873a.94.94 0 0 1-.1.424l-.037.073a.87.87 0 0 1-.39.39l-.183.092a2 2 0 0 0-.52.375l-.17.17-.2.2-.01.01a.31.31 0 0 0-.058.356l.067.134.019.037a.8.8 0 0 1 .082.346v.246c0 .046.018.09.05.121l.015.015a.12.12 0 0 1 0 .17l-.037.037a.2.2 0 0 1-.063.046l-.53.265a.2.2 0 0 0-.064.046l-.05.05a.07.07 0 0 0-.021.05v.021c0 .028.022.05.05.05a.05.05 0 0 1 .05.05v.112q0 .038-.018.072l-.034.07a.5.5 0 0 0-.048.205c0 .122-.049.24-.135.326l-.216.216c-.095.095-.153.21-.267.284a.4.4 0 0 0-.12.14l-.062.126-.037.074a.9.9 0 0 1-.163.225c-.066.066-.146.118-.217.178-.13.108-.226.265-.383.422l-.068.068a.8.8 0 0 1-.309.191l-.11.037-.027.005h-.037a.05.05 0 0 0-.05.05.05.05 0 0 1-.05.05h-.093a.14.14 0 0 0-.097.04.14.14 0 0 1-.14.032l-.157-.052a.4.4 0 0 0-.128-.02h-.084a1 1 0 0 0-.292.046l-.064.021q-.094.032-.184.077l-.11.056-.167.083a.155.155 0 0 1-.179-.03l-.026-.025a.1.1 0 0 0-.068-.028.1.1 0 0 1-.087-.054l-.046-.091a.3.3 0 0 1-.027-.118v-.183a.2.2 0 0 0-.025-.104l-.035-.07a.12.12 0 0 1 .023-.144.13.13 0 0 0 .037-.088v-.122a.5.5 0 0 0-.066-.235c-.141-.252-.235-.552-.378-.801a.8.8 0 0 0-.132-.167 1 1 0 0 1-.203-.28l-.021-.043-.075-.226a1 1 0 0 0-.06-.144 1 1 0 0 1-.094-.274l-.049-.244a1 1 0 0 1-.022-.227v-.385a.24.24 0 0 0-.072-.172.2.2 0 0 1-.046-.065l-.043-.085a1 1 0 0 1-.06-.165l-.029-.112a2 2 0 0 0-.143-.387l-.007-.014a1.2 1.2 0 0 1-.2-.66v-.182q0-.16.05-.308l.034-.102a.3.3 0 0 0 .016-.099q0-.05.016-.097l.039-.118a.6.6 0 0 1 .145-.234l.2-.2a.34.34 0 0 0 .1-.243v-.186a.17.17 0 0 0-.05-.122.3.3 0 0 1-.064-.12c-.027-.076-.086-.153-.086-.23v-.029c0-.045.018-.089.05-.12a.15.15 0 0 0 .045-.122c-.015-.12-.063-.206-.085-.318a.8.8 0 0 0-.06-.21l-.005-.011a.4.4 0 0 1-.045-.19.4.4 0 0 0-.045-.19l-.055-.11-.091-.135a2 2 0 0 0-.25-.304l-.296-.297a.9.9 0 0 1-.263-.634v-.13c0-.087.077-.252.096-.359.004-.022-.015-.041-.038-.041a.042.042 0 0 1-.04-.055l.071-.214a.2.2 0 0 0 .01-.064v-.106a.3.3 0 0 0-.027-.116l-.045-.09a.1.1 0 0 0-.087-.054.1.1 0 0 1-.069-.03l-.05-.05a.07.07 0 0 0-.05-.02h-.03a.04.04 0 0 1-.042-.043.042.042 0 0 0-.054-.04l-.219.073a.2.2 0 0 1-.055.01.17.17 0 0 0-.121.05.17.17 0 0 1-.122.05H8.82a.19.19 0 0 1-.172-.107l-.047-.093-.064-.13a.49.49 0 0 0-.44-.27h-.272a.94.94 0 0 0-.425.1l-.4.199-.158.08a1 1 0 0 1-.087.035l-.12.04a.35.35 0 0 1-.263-.018l-.028-.014a.2.2 0 0 0-.094-.022.2.2 0 0 1-.095-.023l-.055-.028a.5.5 0 0 0-.212-.05h-.139a1.5 1.5 0 0 0-.48.094c-.052.017-.103.033-.16.057a.6.6 0 0 1-.228.05.5.5 0 0 1-.158-.027l-.087-.028a1 1 0 0 1-.255-.125l-.09-.06a1 1 0 0 1-.168-.138l-.278-.278a.15.15 0 0 0-.109-.045.2.2 0 0 1-.068-.016l-.05-.025a.39.39 0 0 1-.219-.352v-.075a.6.6 0 0 0-.058-.25l-.023-.046a.2.2 0 0 0-.046-.064l-.036-.036a.12.12 0 0 0-.086-.036.12.12 0 0 1-.086-.035l-.023-.024a.14.14 0 0 1-.041-.1v-.07a.07.07 0 0 0-.071-.07.07.07 0 0 1-.05-.021l-.044-.044a.12.12 0 0 0-.085-.036.12.12 0 0 1-.085-.035L2.6 8.897a.34.34 0 0 1-.1-.242v-.123a.6.6 0 0 0-.06-.254l-.032-.063a.1.1 0 0 0-.022-.032.12.12 0 0 1 0-.172q.013-.015.022-.031l.074-.148a.3.3 0 0 1 .046-.063.25.25 0 0 0 .072-.173v-.957a.34.34 0 0 0-.1-.242.34.34 0 0 1-.1-.242v-.057c0-.064.025-.127.071-.172a.2.2 0 0 0 .047-.065l.06-.119a.2.2 0 0 0 .022-.095q0-.05.022-.096l.043-.084a.5.5 0 0 1 .09-.125l.116-.116a.1.1 0 0 1 .069-.029c.037 0 .07-.02.087-.054l.045-.09a.3.3 0 0 0 .028-.117V4.89q0-.093.042-.176l.008-.018a.34.34 0 0 1 .15-.149.34.34 0 0 0 .15-.15l.131-.264a.25.25 0 0 1 .22-.136h.049a.36.36 0 0 0 .256-.106l.162-.162.069-.056.02-.014a.415.415 0 0 0 .172-.445.4.4 0 0 1 .009-.232l.044-.132a.4.4 0 0 0 .018-.11c0-.091.036-.18.102-.245l.06-.06a1 1 0 0 1 .082-.067l.256-.17.1-.051a.34.34 0 0 0 .15-.15.34.34 0 0 1 .24-.181l.21-.038.332-.076a.2.2 0 0 1 .095.004l.24.08a.21.21 0 0 0 .187-.025l.153-.103a.8.8 0 0 1 .198-.096l.162-.054a.14.14 0 0 0 .057-.036.14.14 0 0 1 .07-.039l.13-.03c.122-.024 1.759-.266 2.638-.395a.033.033 0 0 1 .038.034"/></mask><path stroke="currentcolor" stroke-width="1.2" d="M10.1 1.042c0 .025.026.041.049.03l.034-.017a.06.06 0 0 1 .057.002l.059.037v.003l-.082.166a.2.2 0 0 0-.017.072v.112c0 .028.023.05.05.05a.05.05 0 0 1 .05.05v.162c0 .056-.023.11-.062.15l-.053.053a.17.17 0 0 0-.031.193l.03.058q.017.033.054.034c.034 0 .062.028.062.062v.038a.1.1 0 0 0 .1.1h.072q.028 0 .055.01l.234.077a.3.3 0 0 0 .08.013.25.25 0 0 1 .111.026l.087.043a.6.6 0 0 0 .127.047l.174.044c.1.025.18.1.212.197.03.09.1.16.19.19l.157.053.34.085q.061.015.113.05l.113.076a.197.197 0 0 0 .297-.226l-.022-.064a.3.3 0 0 1 .017-.234l.015-.03a.4.4 0 0 1 .073-.102l.073-.073a.28.28 0 0 1 .353-.035l.206.138q.023.016.042.034l.045.045a.12.12 0 0 0 .086.036q.05 0 .086.036l.014.014a.17.17 0 0 0 .12.05h.159c.045 0 .089.018.12.05.033.032.077.05.122.05h.329c.175 0 .316.034.443.082.158.06.337.038.457-.082a.24.24 0 0 1 .22-.066l.305.065a.06.06 0 0 1 .039.03l.004.007a.05.05 0 0 0 .081.013l.018-.017q.002-.002.005-.002l.004.004.507 1.042a.04.04 0 0 1-.008.047.04.04 0 0 0-.009.045l.134.332.1.2.07.14a.4.4 0 0 0 .078.108l.01.01a.4.4 0 0 1 .073.108l.083.194a.03.03 0 0 1-.006.031.03.03 0 0 0-.008.02v.087c0 .065.026.128.072.174l.101.101q.046.046.076.103l.043.08q.008.015.008.033 0 .012.004.022l.069.21a.14.14 0 0 1-.033.139.14.14 0 0 0-.04.096v.175q0 .069.017.135l.018.075c.042.17.142.307.29.4l.006.004c.049.032.085.08.118.129l.096.144a.33.33 0 0 1 .055.18c0 .124.07.237.18.292l.02.01.188.113c.137.082.249.2.323.342q.032.06.072.113l.376.507c.074.1.181.17.302.198l.094.022a.2.2 0 0 1 .09.05l.004.004a.17.17 0 0 0 .177.042l.036-.012a.1.1 0 0 1 .04-.002.1.1 0 0 0 .034 0l.252-.063a.4.4 0 0 1 .108-.014.44.44 0 0 0 .197-.047l.038-.019a.3.3 0 0 1 .092-.03l.027-.003h.032a.04.04 0 0 0 .03-.013.04.04 0 0 1 .02-.012q.121-.03.229-.053a1 1 0 0 1 .197-.023h.225c.049 0 .09.01.129.04a.24.24 0 0 1 .088.18v.09a.22.22 0 0 1-.064.154.2.2 0 0 0-.053.085l-.083.25c-.1.3-.2.501-.3.701l-.055.11a3 3 0 0 1-.36.534c-.083.103-.167.211-.251.31-.086.1-.19.184-.3.257l-.134.089-.4.3-.132.088q-.168.112-.312.255l-.156.158-.1.1-.021.02a.7.7 0 0 1-.18.13l-.064.032a.3.3 0 0 0-.063.045l-.052.052a.07.07 0 0 1-.05.02.07.07 0 0 0-.07.07v.071a.14.14 0 0 1-.042.1l-.03.03a.3.3 0 0 0-.047.065l-.06.123a.07.07 0 0 1-.067.041c-.032 0-.06.02-.07.05l-.071.21a.3.3 0 0 0-.013.082v.046c0 .069.038.132.1.162l.035.018a.117.117 0 0 1 .053.157l-.043.086a.43.43 0 0 0 0 .38l.055.109.081.164a.3.3 0 0 0 .047.064.25.25 0 0 1 .072.175v.873a.94.94 0 0 1-.1.424l-.037.073a.87.87 0 0 1-.39.39l-.183.092a2 2 0 0 0-.52.375l-.17.17-.2.2-.01.01a.31.31 0 0 0-.058.356l.067.134.019.037a.8.8 0 0 1 .082.346v.246c0 .046.018.09.05.121l.015.015a.12.12 0 0 1 0 .17l-.037.037a.2.2 0 0 1-.063.046l-.53.265a.2.2 0 0 0-.064.046l-.05.05a.07.07 0 0 0-.021.05v.021c0 .028.022.05.05.05a.05.05 0 0 1 .05.05v.112q0 .038-.018.072l-.034.07a.5.5 0 0 0-.048.205c0 .122-.049.24-.135.326l-.216.216c-.095.095-.153.21-.267.284a.4.4 0 0 0-.12.14l-.062.126-.037.074a.9.9 0 0 1-.163.225c-.066.066-.146.118-.217.178-.13.108-.226.265-.383.422l-.068.068a.8.8 0 0 1-.309.191l-.11.037-.027.005h-.037a.05.05 0 0 0-.05.05.05.05 0 0 1-.05.05h-.093a.14.14 0 0 0-.097.04.14.14 0 0 1-.14.032l-.157-.052a.4.4 0 0 0-.128-.02h-.084a1 1 0 0 0-.292.046l-.064.021q-.094.032-.184.077l-.11.056-.167.083a.155.155 0 0 1-.179-.03l-.026-.025a.1.1 0 0 0-.068-.028.1.1 0 0 1-.087-.054l-.046-.091a.3.3 0 0 1-.027-.118v-.183a.2.2 0 0 0-.025-.104l-.035-.07a.12.12 0 0 1 .023-.144.13.13 0 0 0 .037-.088v-.122a.5.5 0 0 0-.066-.235c-.141-.252-.235-.552-.378-.801a.8.8 0 0 0-.132-.167 1 1 0 0 1-.203-.28l-.021-.043-.075-.226a1 1 0 0 0-.06-.144 1 1 0 0 1-.094-.274l-.049-.244a1 1 0 0 1-.022-.227v-.385a.24.24 0 0 0-.072-.172.2.2 0 0 1-.046-.065l-.043-.085a1 1 0 0 1-.06-.165l-.029-.112a2 2 0 0 0-.143-.387l-.007-.014a1.2 1.2 0 0 1-.2-.66v-.182q0-.16.05-.308l.034-.102a.3.3 0 0 0 .016-.099q0-.05.016-.097l.039-.118a.6.6 0 0 1 .145-.234l.2-.2a.34.34 0 0 0 .1-.243v-.186a.17.17 0 0 0-.05-.122.3.3 0 0 1-.064-.12c-.027-.076-.086-.153-.086-.23v-.029c0-.045.018-.089.05-.12a.15.15 0 0 0 .045-.122c-.015-.12-.063-.206-.085-.318a.8.8 0 0 0-.06-.21l-.005-.011a.4.4 0 0 1-.045-.19.4.4 0 0 0-.045-.19l-.055-.11-.091-.135a2 2 0 0 0-.25-.304l-.296-.297a.9.9 0 0 1-.263-.634v-.13c0-.087.077-.252.096-.359.004-.022-.015-.041-.038-.041a.042.042 0 0 1-.04-.055l.071-.214a.2.2 0 0 0 .01-.064v-.106a.3.3 0 0 0-.027-.116l-.045-.09a.1.1 0 0 0-.087-.054.1.1 0 0 1-.069-.03l-.05-.05a.07.07 0 0 0-.05-.02h-.03a.04.04 0 0 1-.042-.043.042.042 0 0 0-.054-.04l-.219.073a.2.2 0 0 1-.055.01.17.17 0 0 0-.121.05.17.17 0 0 1-.122.05H8.82a.19.19 0 0 1-.172-.107l-.047-.093-.064-.13a.49.49 0 0 0-.44-.27h-.272a.94.94 0 0 0-.425.1l-.4.199-.158.08a1 1 0 0 1-.087.035l-.12.04a.35.35 0 0 1-.263-.018l-.028-.014a.2.2 0 0 0-.094-.022.2.2 0 0 1-.095-.023l-.055-.028a.5.5 0 0 0-.212-.05h-.139a1.5 1.5 0 0 0-.48.094c-.052.017-.103.033-.16.057a.6.6 0 0 1-.228.05.5.5 0 0 1-.158-.027l-.087-.028a1 1 0 0 1-.255-.125l-.09-.06a1 1 0 0 1-.168-.138l-.278-.278a.15.15 0 0 0-.109-.045.2.2 0 0 1-.068-.016l-.05-.025a.39.39 0 0 1-.219-.352v-.075a.6.6 0 0 0-.058-.25l-.023-.046a.2.2 0 0 0-.046-.064l-.036-.036a.12.12 0 0 0-.086-.036.12.12 0 0 1-.086-.035l-.023-.024a.14.14 0 0 1-.041-.1v-.07a.07.07 0 0 0-.071-.07.07.07 0 0 1-.05-.021l-.044-.044a.12.12 0 0 0-.085-.036.12.12 0 0 1-.085-.035L2.6 8.897a.34.34 0 0 1-.1-.242v-.123a.6.6 0 0 0-.06-.254l-.032-.063a.1.1 0 0 0-.022-.032.12.12 0 0 1 0-.172q.013-.015.022-.031l.074-.148a.3.3 0 0 1 .046-.063.25.25 0 0 0 .072-.173v-.957a.34.34 0 0 0-.1-.242.34.34 0 0 1-.1-.242v-.057c0-.064.025-.127.071-.172a.2.2 0 0 0 .047-.065l.06-.119a.2.2 0 0 0 .022-.095q0-.05.022-.096l.043-.084a.5.5 0 0 1 .09-.125l.116-.116a.1.1 0 0 1 .069-.029c.037 0 .07-.02.087-.054l.045-.09a.3.3 0 0 0 .028-.117V4.89q0-.093.042-.176l.008-.018a.34.34 0 0 1 .15-.149.34.34 0 0 0 .15-.15l.131-.264a.25.25 0 0 1 .22-.136h.049a.36.36 0 0 0 .256-.106l.162-.162.069-.056.02-.014a.415.415 0 0 0 .172-.445.4.4 0 0 1 .009-.232l.044-.132a.4.4 0 0 0 .018-.11c0-.091.036-.18.102-.245l.06-.06a1 1 0 0 1 .082-.067l.256-.17.1-.051a.34.34 0 0 0 .15-.15.34.34 0 0 1 .24-.181l.21-.038.332-.076a.2.2 0 0 1 .095.004l.24.08a.21.21 0 0 0 .187-.025l.153-.103a.8.8 0 0 1 .198-.096l.162-.054a.14.14 0 0 0 .057-.036.14.14 0 0 1 .07-.039l.13-.03c.122-.024 1.759-.266 2.638-.395a.033.033 0 0 1 .038.034Z" mask="url(#a)"/></svg>