<svg xmlns="http://www.w3.org/2000/svg" width="24" height="24" fill="none" viewBox="0 0 24 24"><mask id="a" fill="#fff"><path d="M17.993 18.935a.102.102 0 0 1-.157.016l-.072-.072a.148.148 0 0 1 .088-.252l.095-.01.312-.019a.7.7 0 0 1 .173.012l.073.015q.076.015.15-.004l.034-.008a.24.24 0 0 0 .13-.084l.116-.144a.038.038 0 0 0-.052-.055l-.144.1a.25.25 0 0 1-.143.046h-.203l-.264-.02a.3.3 0 0 1-.079-.018.29.29 0 0 0-.276.042l-.016.012a.3.3 0 0 0-.101.135l-.015.036-.097.293a.6.6 0 0 0-.028.121l-.009.072a.3.3 0 0 1-.033.1l-.03.051a.16.16 0 0 0-.007.138l.024.055c.01.023.033.038.058.038.03 0 .056.022.062.051l.025.127a.2.2 0 0 1-.007.113l-.028.085a.102.102 0 0 0 .114.133h.004a.11.11 0 0 0 .092-.11c-.005-.161-.019-.32-.022-.466a.076.076 0 1 1 .15.008l-.004.051a.1.1 0 0 0 .037.091l.083.072a.08.08 0 0 1 .026.082.08.08 0 0 0 .022.077l.006.007c.02.019.048.025.073.015l.03-.012c.052-.021.1.036.07.083a.06.06 0 0 0 .008.071l.015.015c.028.028.07.033.103.013l.012-.007a.1.1 0 0 0 .049-.087v-.048a.2.2 0 0 0-.033-.107l-.155-.223a.06.06 0 0 1 0-.068.06.06 0 0 0-.003-.07l-.093-.122a.148.148 0 0 1 .057-.226.15.15 0 0 0 .063-.053l.049-.072a.06.06 0 0 1 .059-.023l.007.002a.048.048 0 1 0 .004-.095l-.333.053a.1.1 0 0 0-.07.044m.099 1.78a.23.23 0 0 1-.142-.02l-.014-.008a.2.2 0 0 0-.124-.015l-.104.023a.054.054 0 0 0 .008.107l.215.017a.3.3 0 0 0 .079-.005l.276-.055a.054.054 0 1 0-.034-.101l-.08.04a.1.1 0 0 1-.028.009zm-.127-7.555.01-.021.137-.411.028-.1a.088.088 0 0 0-.148-.086l-.106.106a.3.3 0 0 0-.053.074l-.069.137a.4.4 0 0 0-.037.218l.006.05a.121.121 0 0 0 .226.044zm1.045 2.672a.2.2 0 0 0-.026-.057l-.023-.03a.094.094 0 0 0-.15.113l.015.02q.012.017.013.037v.014a.05.05 0 0 1-.059.05.05.05 0 0 0-.056.065l.011.033a.06.06 0 0 0 .039.039.06.06 0 0 1 .041.057v.044a.052.052 0 1 0 .102-.017l-.029-.087-.002-.014c0-.03.03-.052.059-.041l.023.008a.06.06 0 0 0 .08-.07zm-1.336-.864a.1.1 0 0 0 .005.069l.029.071.014.023.072.087a.029.029 0 0 0 .05-.011.03.03 0 0 1 .043-.017l.004.003c.017.011.02.035.005.05l-.03.029a.1.1 0 0 0-.017.03l-.001.005a.085.085 0 0 0 .05.099l.019.007q.03.012.063.005l.116-.025a.12.12 0 0 1 .108.031l.056.056c.02.021.055.019.072-.005a.048.048 0 0 1 .076-.001l.045.055a.1.1 0 0 0 .025.023l.118.074a.045.045 0 0 0 .068-.03l.004-.018a.03.03 0 0 0-.03-.035.03.03 0 0 1-.028-.034l.009-.052a.07.07 0 0 0-.042-.078l-.205-.095a.11.11 0 0 0-.098.002.11.11 0 0 1-.092.004l-.012-.005a.14.14 0 0 1-.08-.082l-.021-.056a.25.25 0 0 1-.009-.149l.008-.032a.18.18 0 0 1 .094-.117.18.18 0 0 0 .09-.104l.019-.055a.25.25 0 0 0-.003-.17l-.02-.053a.12.12 0 0 1 .005-.098l.016-.033a.036.036 0 0 0-.058-.042l-.007.007a.04.04 0 0 1-.05.008l-.082-.041a.143.143 0 0 0-.202.087l-.034.111a.2.2 0 0 0-.007.043l-.018.29a.034.034 0 0 1-.055.025.034.034 0 0 0-.055.02zm-.225 5.735a.06.06 0 0 0-.066-.037l-.058.01a.08.08 0 0 1-.063-.016l-.003-.003a.08.08 0 0 0-.11.016.08.08 0 0 1-.062.031h-.058a.07.07 0 0 0-.063.04l-.001.001a.069.069 0 0 0 .073.1c.116-.02.233-.04.364-.06a.06.06 0 0 0 .047-.082m-3.112-.941a.3.3 0 0 1 .007-.085l.038-.162a.2.2 0 0 0-.043-.18l-.003-.003a.2.2 0 0 0-.125-.07.2.2 0 0 1-.137-.086l-.028-.043a.2.2 0 0 1-.025-.052l-.02-.072a.09.09 0 0 0-.085-.064.1.1 0 0 1-.05-.015l-.032-.022a.12.12 0 0 1-.04-.15.117.117 0 0 0-.043-.151l-.053-.033a.2.2 0 0 1-.067-.075l-.033-.064a.4.4 0 0 0-.102-.133l-.042-.037a.3.3 0 0 0-.19-.071.3.3 0 0 1-.211-.094l-.099-.108a.6.6 0 0 0-.114-.098l-.078-.052-.187-.164-.132-.146a.32.32 0 0 0-.197-.105 4 4 0 0 0-.303-.028.076.076 0 0 0-.077.091q.004.024.022.04l.2.2a1 1 0 0 0 .088.077l.05.038a.5.5 0 0 1 .146.166l.003.007a.5.5 0 0 0 .16.173.5.5 0 0 1 .17.192l.014.03.034.081.001.003q.056.166.186.283a.7.7 0 0 1 .134.164l.134.235.042.068q.076.12.176.22l.05.05a.5.5 0 0 1 .066.082.5.5 0 0 0 .164.158l.156.095q.05.03.091.073l.096.095a.174.174 0 0 0 .297-.135zm4.238-3.052a.116.116 0 0 0-.142-.018l-.04.024-.06.03a.26.26 0 0 0-.118.124l-.045.102a.05.05 0 0 0 .079.059l.083-.071a.14.14 0 0 1 .087-.033h.03a.08.08 0 0 0 .06-.03.076.076 0 0 1 .11-.013l.016.014c.036.03.045.082.02.123l-.001.003a.1.1 0 0 0-.006.09l.02.05q.031.068.097.101l.136.069a.095.095 0 0 0 .13-.123l-.03-.073a.08.08 0 0 1 .016-.083l.017-.017a.06.06 0 0 1 .098.02.06.06 0 0 0 .111-.003l.014-.04a.1.1 0 0 0 .003-.035l-.062-.436a.1.1 0 0 0-.04-.06l-.05-.031a.058.058 0 0 0-.089.056.06.06 0 0 1-.058.066h-.036a.09.09 0 0 0-.084.057l-.006.014a.11.11 0 0 1-.065.064l-.071.027a.12.12 0 0 1-.123-.027m-2.457 3.802a.21.21 0 0 1-.142-.102.2.2 0 0 0-.137-.101l-.276-.062a.07.07 0 0 0-.081.04.07.07 0 0 1-.07.04l-.35-.019a.1.1 0 0 1-.074-.042.1.1 0 0 0-.056-.04l-.037-.01a.2.2 0 0 1-.04-.014l-.105-.053a.4.4 0 0 0-.134-.037l-.139-.012a.13.13 0 0 0-.114.054l-.03.043a.095.095 0 0 0 .067.15c.032.003.06.023.075.052l.002.003q.023.043.07.055l.322.072q.052.011.103-.002a.2.2 0 0 1 .086-.004l.07.01a1 1 0 0 1 .1.024l.232.077.212.047.234.023h.12q.09 0 .178.032l.136.05a.107.107 0 0 0 .085-.197l-.035-.018-.03-.01zm1.316-4.166a.3.3 0 0 1 .048-.052l.11-.094a.058.058 0 1 0-.09-.07l-.042.083-.013.019-.086.1a1 1 0 0 1-.102.103l-.105.09-.008.008c-.022.037.023.078.057.052l.126-.098.014-.014zm-9.003.172-.02-.023a.13.13 0 0 0-.21.061l-.046.159a.2.2 0 0 0-.008.098l.034.25a.24.24 0 0 0 .034.096l.002.003a.235.235 0 0 0 .25.105l.008-.002a.19.19 0 0 0 .148-.154l.013-.07a.37.37 0 0 0-.027-.22l-.042-.09a1 1 0 0 0-.067-.117zm8.672 2.214q0-.046.018-.087l.03-.072a.09.09 0 0 1 .077-.055.092.092 0 0 0 .05-.163l-.025-.021a.1.1 0 0 1-.03-.114.1.1 0 0 0-.01-.093l-.042-.06a.23.23 0 0 1-.003-.264l.029-.044a.14.14 0 0 1 .061-.05l.076-.033a.056.056 0 0 0 .03-.072.056.056 0 0 1 .044-.077l.052-.007a.063.063 0 0 0 .014-.12l-.247-.1a.09.09 0 0 1-.054-.08.1.1 0 0 0-.025-.06l-.064-.064a.097.097 0 0 0-.15.017l-.058.092a.3.3 0 0 1-.08.085l-.186.13-.1.067a1.3 1.3 0 0 0-.205.167l-.117.141-.032.037a.56.56 0 0 1-.33.184l-.06.01a.17.17 0 0 0-.136.129l-.002.014a.2.2 0 0 1-.145.148l-.015.004a.17.17 0 0 1-.106-.008.17.17 0 0 0-.192.044l-.021.025a.2.2 0 0 0-.05.107l-.007.054a.4.4 0 0 0-.001.1l.006.058a.5.5 0 0 0 .062.194l.043.077a.2.2 0 0 0 .066.069c.048.028.08.076.088.131l.011.083a.21.21 0 0 0 .239.178l.07-.01a.12.12 0 0 1 .108.044.12.12 0 0 0 .13.038l.113-.037a.2.2 0 0 1 .172.018q.035.021.077.028l.065.01a.13.13 0 0 1 .09.056.13.13 0 0 0 .163.046l.136-.062a.02.02 0 0 1 .026.013c.005.02.032.02.037 0l.072-.269.003-.023v-.08c0-.09.044-.174.117-.225a.28.28 0 0 0 .118-.225zm-1.652-4.671a.2.2 0 0 1 .023-.036l.047-.06a.084.084 0 0 0-.065-.135h-.064a.2.2 0 0 0-.05.007l-.17.047a.24.24 0 0 0-.11.063l-.015.015a.2.2 0 0 0-.056.135v.012a.173.173 0 0 0 .258.152l.056-.032q.085-.047.128-.133zm2.239 6.869a.07.07 0 1 0-.07.122l.118.063q.021.012.046.012h.032a.051.051 0 0 0 .031-.093l-.064-.048zm3.127-10.559a.12.12 0 0 1 .05-.057l.036-.021a.07.07 0 0 1 .087.01.07.07 0 0 0 .104-.003l.053-.062a.118.118 0 0 0-.043-.186l-.011-.005a.14.14 0 0 0-.162.039l-.005.006a.13.13 0 0 1-.117.043.13.13 0 0 0-.116.042l-.062.072a.14.14 0 0 0-.033.09v.018a.108.108 0 0 0 .207.043zm1.846 9.164a.26.26 0 0 0-.212-.253.3.3 0 0 1-.087-.032 2 2 0 0 0-.246-.107.5.5 0 0 0-.404.018l-.117.059a.3.3 0 0 0-.1.084l-.04.056a.2.2 0 0 1-.359-.081l-.05-.263a.17.17 0 0 0-.129-.138l-.208-.052a.22.22 0 0 0-.168.025l-.009.006a.2.2 0 0 1-.063.022l-.171.025a.071.071 0 0 0-.005.14l.115.026a.18.18 0 0 1 .111.076c.034.05.09.08.15.08h.23a.035.035 0 1 1 0 .07h-.096a.1.1 0 0 0-.036.007l-.077.028a.085.085 0 0 0-.016.152c.025.015.04.043.04.072v.023q0 .023.01.045l.01.017a.077.077 0 0 0 .136 0l.006-.01a.1.1 0 0 1 .143-.042l.2.12q.058.034.124.043l.043.005q.079.01.15.042l.236.106a.53.53 0 0 1 .248.228l.014.026q.017.03.026.063l.03.112a.14.14 0 0 1-.073.166l-.01.004a.106.106 0 0 0 .048.201h.076a.07.07 0 0 0 .058-.03.07.07 0 0 1 .072-.03l.159.03q.03.007.053.027a.113.113 0 0 0 .188-.084zm-2.716-.163a.4.4 0 0 0-.058-.005h-.202a.07.07 0 0 0 0 .14h.076l.042-.008q.09-.014.18-.003l.086.01.022.007.038.017a.064.064 0 1 0 .037-.121zm1.127.692-.01.015-.034.068a.066.066 0 0 0 .113.068l.005-.009a.07.07 0 0 0 .014-.04v-.088q0-.008-.003-.014a.042.042 0 0 0-.069-.016zm1.497-12.097a.18.18 0 0 0-.106.089l-.021.042a.3.3 0 0 0-.027.165l.014.107a.64.64 0 0 1-.035.307l-.032.086a.6.6 0 0 1-.167.238l-.313.268a.1.1 0 0 1-.131 0 .1.1 0 0 0-.157.032l-.115.231a.225.225 0 0 1-.266.115.2.2 0 0 0-.108-.005l-.23.046a.6.6 0 0 0-.318.17.6.6 0 0 1-.12.094l-.089.053a.4.4 0 0 0-.13.128l-.036.058a.2.2 0 0 1-.086.071l-.03.013a.148.148 0 0 0-.013.269c.058.029.09.092.078.156l-.016.088a.121.121 0 0 0 .19.12l.036-.025q.044-.032.062-.084l.125-.357a.1.1 0 0 0-.026-.103.096.096 0 0 1 .064-.169h.007a.1.1 0 0 0 .044-.01l.218-.109a.3.3 0 0 1 .09-.03l.23-.038a.125.125 0 0 1 .145.123c0 .04.02.078.052.102l.01.007c.06.042.14.035.191-.016l.138-.138a.38.38 0 0 1 .246-.11l.155-.008a.7.7 0 0 0 .236-.06l.108-.05a.3.3 0 0 0 .13-.119l.03-.056a.16.16 0 0 0 .004-.15.16.16 0 0 1-.006-.132l.039-.097a.4.4 0 0 0 .028-.146v-.044c0-.12.037-.239.106-.338l.009-.013a.54.54 0 0 0 .096-.31v-.024a.4.4 0 0 0-.02-.124l-.067-.201a.175.175 0 0 0-.216-.112m1.135-.846a.083.083 0 0 0-.136-.057.08.08 0 0 1-.086.013l-.1-.043-.034-.018-.14-.088a.2.2 0 0 1-.053-.047l-.092-.115a.136.136 0 0 0-.238.05l-.047.299a.19.19 0 0 1-.17.16.19.19 0 0 0-.157.11l-.042.093a.3.3 0 0 0-.024.135l.008.113a.156.156 0 0 0 .304.038l.008-.024a.192.192 0 0 1 .276-.107l.008.005a.2.2 0 0 0 .267-.066l.047-.074a.3.3 0 0 1 .172-.125l.142-.038a.125.125 0 0 0 .093-.13zm-4.05 11.767a.025.025 0 0 0 .008-.038l-.046-.057a.08.08 0 0 1-.014-.08l.016-.046a.06.06 0 0 1 .069-.04.06.06 0 0 0 .072-.053l.014-.125a.1.1 0 0 0-.003-.04l-.002-.008a.1.1 0 0 0-.084-.077l-.04-.007a.05.05 0 0 1-.038-.039c-.007-.04-.059-.054-.083-.021l-.008.016-.02.077a.44.44 0 0 0-.001.204l.04.175a.2.2 0 0 0 .023.052l.065.099q.012.016.032.008M17.9 15.66c.04.05.121.037.142-.025l.005-.015a.09.09 0 0 0-.022-.093l-.029-.029a.087.087 0 0 0-.131.115zm1.257 3.875a.05.05 0 0 0 .032.026l.109.031a.07.07 0 0 0 .062-.011l.007-.006a.064.064 0 0 0-.038-.114h-.126a.05.05 0 0 0-.046.074m-.709-3.429a.065.065 0 0 0-.064.054l-.008.048a.12.12 0 0 1-.034.067l-.036.035-.012.015a.1.1 0 0 0 .007.12l.036.041a.08.08 0 0 0 .132-.016l.046-.093a.2.2 0 0 1 .052-.061l.041-.031a.06.06 0 0 0 .022-.039l.01-.099c.003-.03-.036-.044-.053-.02l-.02.029c-.015.021-.049.005-.042-.02a.023.023 0 0 0-.022-.03zm-.217-.17a.036.036 0 0 0-.053.043.04.04 0 0 1 .002.02l-.02.1-.002.014c0 .05.054.084.1.06l.033-.016.016-.01.086-.069a.063.063 0 0 0-.04-.113h-.063l-.026-.008zm1.501-6.092a.27.27 0 0 0 .21-.26v-.17a.7.7 0 0 0-.102-.367l-.112-.187a.7.7 0 0 0-.105-.135l-.073-.072-.017-.012-.061-.031a.018.018 0 0 1-.005-.03.02.02 0 0 0 .005-.013v-.062a.17.17 0 0 1 .05-.12l.008-.008a.2.2 0 0 1 .085-.05l.033-.01a.33.33 0 0 0 .143-.084l.033-.033.03-.03a.2.2 0 0 1 .038-.03c.06-.036.096-.1.096-.17v-.045q0-.077.04-.143l.03-.052.08-.1a.03.03 0 0 1 .036-.012l.027.007a.022.022 0 0 0 .024-.03l-.002-.01v-.1a.06.06 0 0 1 .06-.06.06.06 0 0 0 .06-.056l.018-.27a.3.3 0 0 0-.009-.096l-.02-.08a.208.208 0 0 1 .252-.252l.014.003a.24.24 0 0 0 .275-.126l.053-.106a.4.4 0 0 0 .034-.102l.044-.234a.36.36 0 0 1 .073-.158l.02-.025a.174.174 0 0 0-.176-.278l-.052.012a.2.2 0 0 0-.066.03l-.102.067a.314.314 0 0 1-.481-.199.3.3 0 0 0-.096-.17l-.11-.1a.54.54 0 0 0-.22-.123.54.54 0 0 1-.378-.381l-.014-.054-.094-.234-.05-.086a1 1 0 0 1-.074-.163l-.05-.144a.54.54 0 0 0-.34-.334l-.114-.038a1.1 1.1 0 0 0-.349-.056h-.037a1 1 0 0 0-.175.02l-.168.038a.2.2 0 0 0-.087.049l-.052.051a.12.12 0 0 0 .015.181.12.12 0 0 1 .05.097v.05a.22.22 0 0 1-.077.165l-.022.018a.3.3 0 0 0-.067.082l-.16.304a.2.2 0 0 0-.026.1c0 .07-.034.136-.09.176l-.064.045a.36.36 0 0 1-.366.03.36.36 0 0 0-.19-.037l-.072.006a.24.24 0 0 1-.187-.069l-.007-.007a.2.2 0 0 0-.256-.02l-.166.123a.6.6 0 0 1-.228.103l-.15.032a.5.5 0 0 0-.104.033.53.53 0 0 1-.333.032l-.095-.022a.3.3 0 0 0-.077-.008.34.34 0 0 1-.275-.138l-.01-.012a.4.4 0 0 0-.065-.068l-.09-.071a.57.57 0 0 0-.442-.118l-.205.031-.08.024a.4.4 0 0 1-.3-.026l-.076-.038a.24.24 0 0 1-.129-.172.24.24 0 0 0-.16-.185l-.147-.049-.168-.037a.3.3 0 0 1-.08-.033.253.253 0 0 0-.354.085l-.05.085a.2.2 0 0 0-.01.181.2.2 0 0 1-.035.214l-.034.038a.28.28 0 0 1-.276.081l-.148-.04-.084-.015-.085-.008a.3.3 0 0 1-.183-.087.3.3 0 0 0-.213-.088h-.052a.3.3 0 0 1-.152-.04.31.31 0 0 0-.285-.01l-.159.074a1 1 0 0 0-.092.053l-.347.237a.3.3 0 0 1-.12.05q-.075.016-.148.036a.175.175 0 0 1-.204-.085.16.16 0 0 0-.167-.086l-.087.013a.18.18 0 0 1-.169-.066.2.2 0 0 0-.07-.053l-.027-.012a.3.3 0 0 1-.145-.13l-.033-.06a.23.23 0 0 0-.259-.11l-.154.041a.27.27 0 0 1-.214-.034l-.16-.102a.08.08 0 0 0-.112.025.081.081 0 0 1-.14-.004L7.7 3.724a.4.4 0 0 0-.07-.094l-.25-.25a.02.02 0 0 1-.001-.028c.015-.02-.008-.045-.029-.032l-.454.29a.1.1 0 0 1-.049.017l-.073.008a.11.11 0 0 1-.12-.122.11.11 0 0 0-.06-.11l-.148-.074a.17.17 0 0 0-.133-.008.168.168 0 0 1-.223-.13l-.012-.071a.23.23 0 0 0-.176-.186l-.098-.021a.38.38 0 0 0-.314.07l-.004.004a.4.4 0 0 1-.149.07l-.438.106a.3.3 0 0 0-.12.059.3.3 0 0 1-.144.064l-.733.115a.2.2 0 0 0-.124.077l-.004.005a.18.18 0 0 0-.009.196l.037.063a.117.117 0 0 1-.057.168l-.041.016a.073.073 0 0 0-.04.095.07.07 0 0 1-.023.083l-.041.033a.144.144 0 0 0 .008.231l.161.11a.107.107 0 0 1-.068.195l-.178-.012a.08.08 0 0 0-.078.04.084.084 0 0 1-.116.029l-.166-.102a.3.3 0 0 0-.145-.041h-.196a.35.35 0 0 0-.186.054.35.35 0 0 1-.353.013c-.16-.084-.324-.168-.483-.253a.6.6 0 0 0-.679.072l-.287.247a.12.12 0 0 0-.04.079l-.004.045a.094.094 0 0 1-.157.062.094.094 0 0 0-.147.03l-.113.24a.07.07 0 0 0 .013.079.07.07 0 0 1 .013.08l-.05.1a.22.22 0 0 0 .035.25l.06.068c.03.034.075.054.12.054.058 0 .11.03.14.078l.063.106A.17.17 0 0 1 .79 6.1l-.005.045a.11.11 0 0 0 .145.119l.138-.046.067-.028.117-.058a.31.31 0 0 1 .267-.006l.027.012q.05.021.103.016a.204.204 0 0 1 .222.23l-.016.114a.166.166 0 0 1-.2.139.2.2 0 0 0-.073 0l-.078.017a.12.12 0 0 0-.097.12v.018a.107.107 0 0 1-.117.107l-.039-.004a.072.072 0 0 0-.046.13l.056.038q.052.036.075.094l.04.102a.36.36 0 0 0 .197.203l.094.04a.12.12 0 0 1 .064.064l.008.022a.08.08 0 0 1-.018.087.08.08 0 0 0-.02.078l.011.049.005.014c.015.045.082.038.086-.01a.05.05 0 0 1 .03-.037l.045-.018a.124.124 0 0 1 .16.073l.016.044a.2.2 0 0 0 .03.05l.025.029a.134.134 0 0 1-.14.216l-.065-.02a.113.113 0 0 0-.144.088l-.009.048a.073.073 0 0 0 .072.086c.05 0 .084.048.069.095l-.012.035a.1.1 0 0 0 .05.12l.029.014c.05.025.079.077.075.132l-.015.197v.034l.005.05a.149.149 0 0 0 .26.084l.061-.07a.24.24 0 0 1 .18-.081h.01q.046 0 .086-.02a.2.2 0 0 1 .112-.019l.045.007q.06.008.114.038l.143.077q.06.034.132.043c.076.01.148.043.205.095l.152.14a.14.14 0 0 0 .098.038c.074 0 .137.057.143.13l.008.087a.2.2 0 0 1-.006.08c-.04.16-.081.32-.138.479a.054.054 0 0 0 .027.066.054.054 0 0 1 .022.075l-.038.068a.13.13 0 0 0-.012.1l.05.162.008.04.009.071a.14.14 0 0 0 .105.12.14.14 0 0 1 .106.12l.003.019a.17.17 0 0 1-.037.128l-.06.074a.2.2 0 0 0 0 .255l.02.03.043.073q.043.074.12.114l.057.028c.062.03.1.094.1.162v.053c0 .042.026.08.065.096l.01.004a.084.084 0 0 1-.004.158l-.207.069a.153.153 0 0 0 .07.295l.076-.01.028-.002h.361l.264-.028a.38.38 0 0 1 .311.11l.01.01q.049.049.072.111c.03.08.091.144.17.177l.005.003q.036.015.068.039l.238.178a.1.1 0 0 1 .02.021l.02.027a.07.07 0 0 1-.012.099.072.072 0 0 0-.006.107l.183.183c.042.042.097.07.156.078h.005q.067.01.132-.015l.083-.033a.184.184 0 0 1 .252.17v.112q.002.175.042.345.046.204.082.408c.027.145.081.284.161.408q.09.141.136.3l.001.005.04.17q.03.135.093.259l.028.057q.027.054.064.1a.6.6 0 0 1 .088.155c.053.14.105.282.157.435q.023.067.073.117l.121.121a.103.103 0 0 0 .168-.032l.04-.094a.1.1 0 0 1 .066-.06l.102-.034A.04.04 0 0 0 8 16.458a.04.04 0 0 1-.006-.051l.078-.125a.08.08 0 0 1 .064-.035.075.075 0 0 0 .075-.076v-.259q0-.063.024-.124l.017-.042a.6.6 0 0 0 .037-.275l-.008-.069-.038-.266a.25.25 0 0 1 .014-.121l.013-.036a.18.18 0 0 1 .133-.112l.037-.013.193-.085.065-.04a.11.11 0 0 0 .053-.092c0-.035.017-.068.046-.088l.188-.132.111-.097q.077-.067.143-.145l.068-.08a.9.9 0 0 1 .298-.229l.122-.056a.3.3 0 0 0 .096-.074l.04-.048a.14.14 0 0 0 .03-.104.136.136 0 0 1 .112-.15l.138-.023.031-.003h.106a.054.054 0 0 0 .053-.041.054.054 0 0 1 .066-.04l.04.01.048.016a.03.03 0 0 0 .034-.014.03.03 0 0 1 .038-.012l.022.01a.05.05 0 0 0 .07-.023l.035-.07a.1.1 0 0 0 .007-.05.077.077 0 0 1 .075-.091h.053c.04 0 .078.02.1.054l.058.087.062.124a.5.5 0 0 1 .044.134.5.5 0 0 0 .044.134l.019.038q.02.039.045.074l.092.122q.024.03.06.037l.036.006c.036.006.06.042.051.078a.06.06 0 0 0 .009.05l.114.172a.5.5 0 0 1 .078.189l.015.073a.3.3 0 0 1-.002.117l-.026.114a.15.15 0 0 0 .122.182l.012.002a.3.3 0 0 0 .217-.044l.158-.1a.165.165 0 0 1 .246.066l.003.006a.2.2 0 0 1 .013.044l.043.282.058.23a.24.24 0 0 0 .045.093c.04.049.058.11.052.173l-.009.1a.2.2 0 0 0 .023.117.22.22 0 0 1 .009.174l-.012.03a.3.3 0 0 0-.016.14l.003.03a.4.4 0 0 1-.014.17l-.023.076a.5.5 0 0 0-.022.153v.078q0 .008.002.015l.013.038c.01.03.054.03.064 0a.032.032 0 0 1 .051-.015c.069.059.125.13.18.204a.2.2 0 0 1 .03.052l.008.02a.4.4 0 0 0 .08.122l.016.016a.22.22 0 0 1 .062.187v.006a.24.24 0 0 0 .037.166l.008.011a.3.3 0 0 1 .043.118l.003.019a.35.35 0 0 0 .082.185l.041.049q.03.035.04.08a.18.18 0 0 0 .075.113l.22.147.193.134q.042.03.094.023l.057-.008a.065.065 0 0 0 .05-.091l-.07-.157a.2.2 0 0 0-.055-.07.18.18 0 0 1-.069-.112l-.009-.054-.008-.033a.2.2 0 0 1-.007-.11l.003-.016a.3.3 0 0 0 .003-.092l-.004-.024a.4.4 0 0 0-.066-.172l-.013-.02a.5.5 0 0 0-.064-.079l-.086-.086a.2.2 0 0 0-.042-.03.2.2 0 0 1-.042-.03l-.049-.049a.22.22 0 0 0-.12-.062.22.22 0 0 1-.121-.062l-.024-.023a.33.33 0 0 1-.087-.16l-.02-.088a.3.3 0 0 0-.019-.059l-.053-.118a.11.11 0 0 0-.099-.065c-.053 0-.1-.04-.107-.093l-.005-.034a.15.15 0 0 1 .008-.072l.186-.497a.3.3 0 0 0 .015-.064l.012-.131a.103.103 0 0 1 .103-.094h.022c.05 0 .09.044.083.094a.084.084 0 0 0 .083.094h.077q.04 0 .074.019l.058.032a.4.4 0 0 1 .175.19l.046.102q.015.032.037.06l.004.004c.043.055.107.09.176.099l.017.002a.2.2 0 0 1 .11.049l.036.03a.145.145 0 0 1 .039.167l-.006.014a.115.115 0 0 0 .176.137l.177-.137a.3.3 0 0 0 .043-.04l.05-.056q.118-.133.271-.222l.088-.052a.48.48 0 0 0 .24-.39l.006-.122a.8.8 0 0 0-.014-.194l-.05-.249a.64.64 0 0 0-.271-.406l-.008-.005a.6.6 0 0 1-.166-.16c-.088-.128-.17-.264-.26-.392a.26.26 0 0 1-.037-.216.24.24 0 0 1 .045-.086l.077-.097a1 1 0 0 1 .184-.171l.172-.12a.3.3 0 0 1 .06-.032l.026-.01a.2.2 0 0 1 .123-.01l.189.04a.06.06 0 0 1 .041.086.06.06 0 0 0-.002.049l.032.088a.098.098 0 0 0 .186-.009l.019-.07a.21.21 0 0 1 .165-.151l.098-.018a.4.4 0 0 0 .058-.016l.276-.098a.2.2 0 0 0 .045-.026l.075-.063a.056.056 0 0 1 .08.01c.02.025.056.03.08.01l.064-.054a.14.14 0 0 1 .074-.03l.107-.01a.45.45 0 0 0 .203-.068q.136-.089.267-.181c.195-.138.366-.308.502-.504l.005-.008c.108-.194.217-.389.343-.583a.14.14 0 0 1 .092-.06.14.14 0 0 0 .108-.093l.044-.132.022-.101a.16.16 0 0 0-.069-.173l-.012-.008a.12.12 0 0 1-.048-.063l-.005-.014a.106.106 0 0 1 .053-.128.11.11 0 0 0 .059-.095v-.07a.22.22 0 0 0-.046-.135l-.087-.111a1 1 0 0 1-.056-.085l-.087-.161a1 1 0 0 1-.048-.109l-.048-.146a.24.24 0 0 0-.098-.124l-.028-.018a.2.2 0 0 1 .004-.34l.124-.074a.4.4 0 0 0 .109-.1l.022-.031a.25.25 0 0 1 .136-.097l.15-.042a.097.097 0 0 0-.027-.191h-.042a.15.15 0 0 1-.088-.028l-.048-.034a.24.24 0 0 0-.286.011l-.036.03a.17.17 0 0 1-.18.02l-.035-.019a.1.1 0 0 1-.056-.09.1.1 0 0 0-.076-.097l-.053-.013a.17.17 0 0 1-.095-.063l-.032-.043a.153.153 0 0 1 .107-.244l.051-.005a.28.28 0 0 0 .195-.11l.037-.049a.4.4 0 0 1 .07-.073l.201-.165.037-.024.098-.055a.12.12 0 0 1 .148.183l-.082.092a.1.1 0 0 0-.019.108l.014.034a.04.04 0 0 1-.007.043.042.042 0 0 0 .047.067l.098-.035.022-.013.077-.066a.5.5 0 0 1 .175-.094l.135-.039a.2.2 0 0 1 .174.035l.001.002q.038.03.086.038l.066.01a.054.054 0 0 1 .04.075l-.052.122a.04.04 0 0 0 .001.038.044.044 0 0 1-.008.05l-.013.014a.1.1 0 0 0-.017.027l-.019.057a.094.094 0 0 0 .037.108h.001l.02.01.045.015a.02.02 0 0 1 .015.021c0 .016.015.026.03.021l.025-.008a.04.04 0 0 0 .023-.02.04.04 0 0 1 .05-.019l.053.022q.03.012.048.04l.095.148a.072.072 0 0 1-.042.109.07.07 0 0 0-.049.09l.053.172a.25.25 0 0 1 .005.127l-.027.121a.145.145 0 0 0 .157.175l.032-.004a.2.2 0 0 0 .074-.026l.102-.064a.4.4 0 0 1 .11-.045zM19.3 20.675a.14.14 0 0 1-.087.03h-.076a.4.4 0 0 0-.08.008l-.143.032a.06.06 0 0 0-.041.032.06.06 0 0 1-.032.03l-.108.043a.37.37 0 0 0-.168.137l-.024.035-.011.023-.014.041a.028.028 0 0 0 .033.037l.117-.026a.25.25 0 0 0 .132-.078l.037-.042a.45.45 0 0 1 .18-.123c.11-.04.228-.088.332-.123l.015-.008.024-.018a.038.038 0 0 0-.045-.06z"/></mask><path stroke="currentcolor" stroke-width="1.2" d="M17.993 18.935a.102.102 0 0 1-.157.016l-.072-.072a.148.148 0 0 1 .088-.252l.095-.01.312-.019a.7.7 0 0 1 .173.012l.073.015q.076.015.15-.004l.034-.008a.24.24 0 0 0 .13-.084l.116-.144a.038.038 0 0 0-.052-.055l-.144.1a.25.25 0 0 1-.143.046h-.203l-.264-.02a.3.3 0 0 1-.079-.018.29.29 0 0 0-.276.042l-.016.012a.3.3 0 0 0-.101.135l-.015.036-.097.293a.6.6 0 0 0-.028.121l-.009.072a.3.3 0 0 1-.033.1l-.03.051a.16.16 0 0 0-.007.138l.024.055c.01.023.033.038.058.038.03 0 .056.022.062.051l.025.127a.2.2 0 0 1-.007.113l-.028.085a.102.102 0 0 0 .114.133h.004a.11.11 0 0 0 .092-.11c-.005-.161-.019-.32-.022-.466a.076.076 0 1 1 .15.008l-.004.051a.1.1 0 0 0 .037.091l.083.072a.08.08 0 0 1 .026.082.08.08 0 0 0 .022.077l.006.007c.02.019.048.025.073.015l.03-.012c.052-.021.1.036.07.083a.06.06 0 0 0 .008.071l.015.015c.028.028.07.033.103.013l.012-.007a.1.1 0 0 0 .049-.087v-.048a.2.2 0 0 0-.033-.107l-.155-.223a.06.06 0 0 1 0-.068.06.06 0 0 0-.003-.07l-.093-.122a.148.148 0 0 1 .057-.226.15.15 0 0 0 .063-.053l.049-.072a.06.06 0 0 1 .059-.023l.007.002a.048.048 0 1 0 .004-.095l-.333.053a.1.1 0 0 0-.07.044Zm.099 1.78a.23.23 0 0 1-.142-.02l-.014-.008a.2.2 0 0 0-.124-.015l-.104.023a.054.054 0 0 0 .008.107l.215.017a.3.3 0 0 0 .079-.005l.276-.055a.054.054 0 1 0-.034-.101l-.08.04a.1.1 0 0 1-.028.009zm-.127-7.555.01-.021.137-.411.028-.1a.088.088 0 0 0-.148-.086l-.106.106a.3.3 0 0 0-.053.074l-.069.137a.4.4 0 0 0-.037.218l.006.05a.121.121 0 0 0 .226.044zm1.045 2.672a.2.2 0 0 0-.026-.057l-.023-.03a.094.094 0 0 0-.15.113l.015.02q.012.017.013.037v.014a.05.05 0 0 1-.059.05.05.05 0 0 0-.056.065l.011.033a.06.06 0 0 0 .039.039.06.06 0 0 1 .041.057v.044a.052.052 0 1 0 .102-.017l-.029-.087-.002-.014c0-.03.03-.052.059-.041l.023.008a.06.06 0 0 0 .08-.07zm-1.336-.864a.1.1 0 0 0 .005.069l.029.071.014.023.072.087a.029.029 0 0 0 .05-.011.03.03 0 0 1 .043-.017l.004.003c.017.011.02.035.005.05l-.03.029a.1.1 0 0 0-.017.03l-.001.005a.085.085 0 0 0 .05.099l.019.007q.03.012.063.005l.116-.025a.12.12 0 0 1 .108.031l.056.056c.02.021.055.019.072-.005a.048.048 0 0 1 .076-.001l.045.055a.1.1 0 0 0 .025.023l.118.074a.045.045 0 0 0 .068-.03l.004-.018a.03.03 0 0 0-.03-.035.03.03 0 0 1-.028-.034l.009-.052a.07.07 0 0 0-.042-.078l-.205-.095a.11.11 0 0 0-.098.002.11.11 0 0 1-.092.004l-.012-.005a.14.14 0 0 1-.08-.082l-.021-.056a.25.25 0 0 1-.009-.149l.008-.032a.18.18 0 0 1 .094-.117.18.18 0 0 0 .09-.104l.019-.055a.25.25 0 0 0-.003-.17l-.02-.053a.12.12 0 0 1 .005-.098l.016-.033a.036.036 0 0 0-.058-.042l-.007.007a.04.04 0 0 1-.05.008l-.082-.041a.143.143 0 0 0-.202.087l-.034.111a.2.2 0 0 0-.007.043l-.018.29a.034.034 0 0 1-.055.025.034.034 0 0 0-.055.02zm-.225 5.735a.06.06 0 0 0-.066-.037l-.058.01a.08.08 0 0 1-.063-.016l-.003-.003a.08.08 0 0 0-.11.016.08.08 0 0 1-.062.031h-.058a.07.07 0 0 0-.063.04l-.001.001a.069.069 0 0 0 .073.1c.116-.02.233-.04.364-.06a.06.06 0 0 0 .047-.082Zm-3.112-.941a.3.3 0 0 1 .007-.085l.038-.162a.2.2 0 0 0-.043-.18l-.003-.003a.2.2 0 0 0-.125-.07.2.2 0 0 1-.137-.086l-.028-.043a.2.2 0 0 1-.025-.052l-.02-.072a.09.09 0 0 0-.085-.064.1.1 0 0 1-.05-.015l-.032-.022a.12.12 0 0 1-.04-.15.117.117 0 0 0-.043-.151l-.053-.033a.2.2 0 0 1-.067-.075l-.033-.064a.4.4 0 0 0-.102-.133l-.042-.037a.3.3 0 0 0-.19-.071.3.3 0 0 1-.211-.094l-.099-.108a.6.6 0 0 0-.114-.098l-.078-.052-.187-.164-.132-.146a.32.32 0 0 0-.197-.105 4 4 0 0 0-.303-.028.076.076 0 0 0-.077.091q.004.024.022.04l.2.2a1 1 0 0 0 .088.077l.05.038a.5.5 0 0 1 .146.166l.003.007a.5.5 0 0 0 .16.173.5.5 0 0 1 .17.192l.014.03.034.081.001.003q.056.166.186.283a.7.7 0 0 1 .134.164l.134.235.042.068q.076.12.176.22l.05.05a.5.5 0 0 1 .066.082.5.5 0 0 0 .164.158l.156.095q.05.03.091.073l.096.095a.174.174 0 0 0 .297-.135zm4.238-3.052a.116.116 0 0 0-.142-.018l-.04.024-.06.03a.26.26 0 0 0-.118.124l-.045.102a.05.05 0 0 0 .079.059l.083-.071a.14.14 0 0 1 .087-.033h.03a.08.08 0 0 0 .06-.03.076.076 0 0 1 .11-.013l.016.014c.036.03.045.082.02.123l-.001.003a.1.1 0 0 0-.006.09l.02.05q.031.068.097.101l.136.069a.095.095 0 0 0 .13-.123L19 17.138a.08.08 0 0 1 .016-.083l.017-.017a.06.06 0 0 1 .098.02.06.06 0 0 0 .111-.003l.014-.04a.1.1 0 0 0 .003-.035l-.062-.436a.1.1 0 0 0-.04-.06l-.05-.031a.058.058 0 0 0-.089.056.06.06 0 0 1-.058.066h-.036a.09.09 0 0 0-.084.057l-.006.014a.11.11 0 0 1-.065.064l-.071.027a.12.12 0 0 1-.123-.027Zm-2.457 3.802a.21.21 0 0 1-.142-.102.2.2 0 0 0-.137-.101l-.276-.062a.07.07 0 0 0-.081.04.07.07 0 0 1-.07.04l-.35-.019a.1.1 0 0 1-.074-.042.1.1 0 0 0-.056-.04l-.037-.01a.2.2 0 0 1-.04-.014l-.105-.053a.4.4 0 0 0-.134-.037l-.139-.012a.13.13 0 0 0-.114.054l-.03.043a.095.095 0 0 0 .067.15c.032.003.06.023.075.052l.002.003q.023.043.07.055l.322.072q.052.011.103-.002a.2.2 0 0 1 .086-.004l.07.01a1 1 0 0 1 .1.024l.232.077.212.047.234.023h.12q.09 0 .178.032l.136.05a.107.107 0 0 0 .085-.197l-.035-.018-.03-.01zm1.316-4.166a.3.3 0 0 1 .048-.052l.11-.094a.058.058 0 1 0-.09-.07l-.042.083-.013.019-.086.1a1 1 0 0 1-.102.103l-.105.09-.008.008c-.022.037.023.078.057.052l.126-.098.014-.014zm-9.003.172-.02-.023a.13.13 0 0 0-.21.061l-.046.159a.2.2 0 0 0-.008.098l.034.25a.24.24 0 0 0 .034.096l.002.003a.235.235 0 0 0 .25.105l.008-.002a.19.19 0 0 0 .148-.154l.013-.07a.37.37 0 0 0-.027-.22l-.042-.09a1 1 0 0 0-.067-.117zm8.672 2.214q0-.046.018-.087l.03-.072a.09.09 0 0 1 .077-.055.092.092 0 0 0 .05-.163l-.025-.021a.1.1 0 0 1-.03-.114.1.1 0 0 0-.01-.093l-.042-.06a.23.23 0 0 1-.003-.264l.029-.044a.14.14 0 0 1 .061-.05l.076-.033a.056.056 0 0 0 .03-.072.056.056 0 0 1 .044-.077l.052-.007a.063.063 0 0 0 .014-.12l-.247-.1a.09.09 0 0 1-.054-.08.1.1 0 0 0-.025-.06l-.064-.064a.097.097 0 0 0-.15.017l-.058.092a.3.3 0 0 1-.08.085l-.186.13-.1.067a1.3 1.3 0 0 0-.205.167l-.117.141-.032.037a.56.56 0 0 1-.33.184l-.06.01a.17.17 0 0 0-.136.129l-.002.014a.2.2 0 0 1-.145.148l-.015.004a.17.17 0 0 1-.106-.008.17.17 0 0 0-.192.044l-.021.025a.2.2 0 0 0-.05.107l-.007.054a.4.4 0 0 0-.001.1l.006.058a.5.5 0 0 0 .062.194l.043.077a.2.2 0 0 0 .066.069c.048.028.08.076.088.131l.011.083a.21.21 0 0 0 .239.178l.07-.01a.12.12 0 0 1 .108.044.12.12 0 0 0 .13.038l.113-.037a.2.2 0 0 1 .172.018q.035.021.077.028l.065.01a.13.13 0 0 1 .09.056.13.13 0 0 0 .163.046l.136-.062a.02.02 0 0 1 .026.013c.005.02.032.02.037 0l.072-.269.003-.023v-.08c0-.09.044-.174.117-.225a.28.28 0 0 0 .118-.225zm-1.652-4.671a.2.2 0 0 1 .023-.036l.047-.06a.084.084 0 0 0-.065-.135h-.064a.2.2 0 0 0-.05.007l-.17.047a.24.24 0 0 0-.11.063l-.015.015a.2.2 0 0 0-.056.135v.012a.173.173 0 0 0 .258.152l.056-.032q.085-.047.128-.133zm2.239 6.869a.07.07 0 1 0-.07.122l.118.063q.021.012.046.012h.032a.051.051 0 0 0 .031-.093l-.064-.048zm3.127-10.559a.12.12 0 0 1 .05-.057l.036-.021a.07.07 0 0 1 .087.01.07.07 0 0 0 .104-.003l.053-.062a.118.118 0 0 0-.043-.186l-.011-.005a.14.14 0 0 0-.162.039l-.005.006a.13.13 0 0 1-.117.043.13.13 0 0 0-.116.042l-.062.072a.14.14 0 0 0-.033.09v.018a.108.108 0 0 0 .207.043zm1.846 9.164a.26.26 0 0 0-.212-.253.3.3 0 0 1-.087-.032 2 2 0 0 0-.246-.107.5.5 0 0 0-.404.018l-.117.059a.3.3 0 0 0-.1.084l-.04.056a.2.2 0 0 1-.359-.081l-.05-.263a.17.17 0 0 0-.129-.138l-.208-.052a.22.22 0 0 0-.168.025l-.009.006a.2.2 0 0 1-.063.022l-.171.025a.071.071 0 0 0-.005.14l.115.026a.18.18 0 0 1 .111.076c.034.05.09.08.15.08h.23a.035.035 0 1 1 0 .07h-.096a.1.1 0 0 0-.036.007l-.077.028a.085.085 0 0 0-.016.152c.025.015.04.043.04.072v.023q0 .023.01.045l.01.017a.077.077 0 0 0 .136 0l.006-.01a.1.1 0 0 1 .143-.042l.2.12q.058.034.124.043l.043.005q.079.01.15.042l.236.106a.53.53 0 0 1 .248.228l.014.026q.017.03.026.063l.03.112a.14.14 0 0 1-.073.166l-.01.004a.106.106 0 0 0 .048.201h.076a.07.07 0 0 0 .058-.03.07.07 0 0 1 .072-.03l.159.03q.03.007.053.027a.113.113 0 0 0 .188-.084zm-2.716-.163a.4.4 0 0 0-.058-.005h-.202a.07.07 0 0 0 0 .14h.076l.042-.008q.09-.014.18-.003l.086.01.022.007.038.017a.064.064 0 1 0 .037-.121zm1.127.692-.01.015-.034.068a.066.066 0 0 0 .113.068l.005-.009a.07.07 0 0 0 .014-.04v-.088q0-.008-.003-.014a.042.042 0 0 0-.069-.016zm1.497-12.097a.18.18 0 0 0-.106.089l-.021.042a.3.3 0 0 0-.027.165l.014.107a.64.64 0 0 1-.035.307l-.032.086a.6.6 0 0 1-.167.238l-.313.268a.1.1 0 0 1-.131 0 .1.1 0 0 0-.157.032l-.115.231a.225.225 0 0 1-.266.115.2.2 0 0 0-.108-.005l-.23.046a.6.6 0 0 0-.318.17.6.6 0 0 1-.12.094l-.089.053a.4.4 0 0 0-.13.128l-.036.058a.2.2 0 0 1-.086.071l-.03.013a.148.148 0 0 0-.013.269c.058.029.09.092.078.156l-.016.088a.121.121 0 0 0 .19.12l.036-.025q.044-.032.062-.084l.125-.357a.1.1 0 0 0-.026-.103.096.096 0 0 1 .064-.169h.007a.1.1 0 0 0 .044-.01l.218-.109a.3.3 0 0 1 .09-.03l.23-.038a.125.125 0 0 1 .145.123c0 .04.02.078.052.102l.01.007c.06.042.14.035.191-.016l.138-.138a.38.38 0 0 1 .246-.11l.155-.008a.7.7 0 0 0 .236-.06l.108-.05a.3.3 0 0 0 .13-.119l.03-.056a.16.16 0 0 0 .004-.15.16.16 0 0 1-.006-.132l.039-.097a.4.4 0 0 0 .028-.146v-.044c0-.12.037-.239.106-.338l.009-.013a.54.54 0 0 0 .096-.31v-.024a.4.4 0 0 0-.02-.124l-.067-.201a.175.175 0 0 0-.216-.112Zm1.135-.846a.083.083 0 0 0-.136-.057.08.08 0 0 1-.086.013l-.1-.043-.034-.018-.14-.088a.2.2 0 0 1-.053-.047l-.092-.115a.136.136 0 0 0-.238.05l-.047.299a.19.19 0 0 1-.17.16.19.19 0 0 0-.157.11l-.042.093a.3.3 0 0 0-.024.135l.008.113a.156.156 0 0 0 .304.038l.008-.024a.192.192 0 0 1 .276-.107l.008.005a.2.2 0 0 0 .267-.066l.047-.074a.3.3 0 0 1 .172-.125l.142-.038a.125.125 0 0 0 .093-.13zm-4.05 11.767a.025.025 0 0 0 .008-.038l-.046-.057a.08.08 0 0 1-.014-.08l.016-.046a.06.06 0 0 1 .069-.04.06.06 0 0 0 .072-.053l.014-.125a.1.1 0 0 0-.003-.04l-.002-.008a.1.1 0 0 0-.084-.077l-.04-.007a.05.05 0 0 1-.038-.039c-.007-.04-.059-.054-.083-.021l-.008.016-.02.077a.44.44 0 0 0-.001.204l.04.175a.2.2 0 0 0 .023.052l.065.099q.012.016.032.008ZM17.9 15.66c.04.05.121.037.142-.025l.005-.015a.09.09 0 0 0-.022-.093l-.029-.029a.087.087 0 0 0-.131.115zm1.257 3.875a.05.05 0 0 0 .032.026l.109.031a.07.07 0 0 0 .062-.011l.007-.006a.064.064 0 0 0-.038-.114h-.126a.05.05 0 0 0-.046.074Zm-.709-3.429a.065.065 0 0 0-.064.054l-.008.048a.12.12 0 0 1-.034.067l-.036.035-.012.015a.1.1 0 0 0 .007.12l.036.041a.08.08 0 0 0 .132-.016l.046-.093a.2.2 0 0 1 .052-.061l.041-.031a.06.06 0 0 0 .022-.039l.01-.099c.003-.03-.036-.044-.053-.02l-.02.029c-.015.021-.049.005-.042-.02a.023.023 0 0 0-.022-.03zm-.217-.17a.036.036 0 0 0-.053.043.04.04 0 0 1 .002.02l-.02.1-.002.014c0 .05.054.084.1.06l.033-.016.016-.01.086-.069a.063.063 0 0 0-.04-.113h-.063l-.026-.008zm1.501-6.092a.27.27 0 0 0 .21-.26v-.17a.7.7 0 0 0-.102-.367l-.112-.187a.7.7 0 0 0-.105-.135l-.073-.072-.017-.012-.061-.031a.018.018 0 0 1-.005-.03.02.02 0 0 0 .005-.013v-.062a.17.17 0 0 1 .05-.12l.008-.008a.2.2 0 0 1 .085-.05l.033-.01a.33.33 0 0 0 .143-.084l.033-.033.03-.03a.2.2 0 0 1 .038-.03c.06-.036.096-.1.096-.17v-.045q0-.077.04-.143l.03-.052.08-.1a.03.03 0 0 1 .036-.012l.027.007a.022.022 0 0 0 .024-.03l-.002-.01v-.1a.06.06 0 0 1 .06-.06.06.06 0 0 0 .06-.056l.018-.27a.3.3 0 0 0-.009-.096l-.02-.08a.208.208 0 0 1 .252-.252l.014.003a.24.24 0 0 0 .275-.126l.053-.106a.4.4 0 0 0 .034-.102l.044-.234a.36.36 0 0 1 .073-.158l.02-.025a.174.174 0 0 0-.176-.278l-.052.012a.2.2 0 0 0-.066.03l-.102.067a.314.314 0 0 1-.481-.199.3.3 0 0 0-.096-.17l-.11-.1a.54.54 0 0 0-.22-.123.54.54 0 0 1-.378-.381l-.014-.054-.094-.234-.05-.086a1 1 0 0 1-.074-.163l-.05-.144a.54.54 0 0 0-.34-.334l-.114-.038a1.1 1.1 0 0 0-.349-.056h-.037a1 1 0 0 0-.175.02l-.168.038a.2.2 0 0 0-.087.049l-.052.051a.12.12 0 0 0 .015.181.12.12 0 0 1 .05.097v.05a.22.22 0 0 1-.077.165l-.022.018a.3.3 0 0 0-.067.082l-.16.304a.2.2 0 0 0-.026.1c0 .07-.034.136-.09.176l-.064.045a.36.36 0 0 1-.366.03.36.36 0 0 0-.19-.037l-.072.006a.24.24 0 0 1-.187-.069l-.007-.007a.2.2 0 0 0-.256-.02l-.166.123a.6.6 0 0 1-.228.103l-.15.032a.5.5 0 0 0-.104.033.53.53 0 0 1-.333.032l-.095-.022a.3.3 0 0 0-.077-.008.34.34 0 0 1-.275-.138l-.01-.012a.4.4 0 0 0-.065-.068l-.09-.071a.57.57 0 0 0-.442-.118l-.205.031-.08.024a.4.4 0 0 1-.3-.026l-.076-.038a.24.24 0 0 1-.129-.172.24.24 0 0 0-.16-.185l-.147-.049-.168-.037a.3.3 0 0 1-.08-.033.253.253 0 0 0-.354.085l-.05.085a.2.2 0 0 0-.01.181.2.2 0 0 1-.035.214l-.034.038a.28.28 0 0 1-.276.081l-.148-.04-.084-.015-.085-.008a.3.3 0 0 1-.183-.087.3.3 0 0 0-.213-.088h-.052a.3.3 0 0 1-.152-.04.31.31 0 0 0-.285-.01l-.159.074a1 1 0 0 0-.092.053l-.347.237a.3.3 0 0 1-.12.05q-.075.016-.148.036a.175.175 0 0 1-.204-.085.16.16 0 0 0-.167-.086l-.087.013a.18.18 0 0 1-.169-.066.2.2 0 0 0-.07-.053l-.027-.012a.3.3 0 0 1-.145-.13l-.033-.06a.23.23 0 0 0-.259-.11l-.154.041a.27.27 0 0 1-.214-.034l-.16-.102a.08.08 0 0 0-.112.025.081.081 0 0 1-.14-.004L7.7 3.724a.4.4 0 0 0-.07-.094l-.25-.25a.02.02 0 0 1-.001-.028c.015-.02-.008-.045-.029-.032l-.454.29a.1.1 0 0 1-.049.017l-.073.008a.11.11 0 0 1-.12-.122.11.11 0 0 0-.06-.11l-.148-.074a.17.17 0 0 0-.133-.008.168.168 0 0 1-.223-.13l-.012-.071a.23.23 0 0 0-.176-.186l-.098-.021a.38.38 0 0 0-.314.07l-.004.004a.4.4 0 0 1-.149.07l-.438.106a.3.3 0 0 0-.12.059.3.3 0 0 1-.144.064l-.733.115a.2.2 0 0 0-.124.077l-.004.005a.18.18 0 0 0-.009.196l.037.063a.117.117 0 0 1-.057.168l-.041.016a.073.073 0 0 0-.04.095.07.07 0 0 1-.023.083l-.041.033a.144.144 0 0 0 .008.231l.161.11a.107.107 0 0 1-.068.195l-.178-.012a.08.08 0 0 0-.078.04.084.084 0 0 1-.116.029l-.166-.102a.3.3 0 0 0-.145-.041h-.196a.35.35 0 0 0-.186.054.35.35 0 0 1-.353.013c-.16-.084-.324-.168-.483-.253a.6.6 0 0 0-.679.072l-.287.247a.12.12 0 0 0-.04.079l-.004.045a.094.094 0 0 1-.157.062.094.094 0 0 0-.147.03l-.113.24a.07.07 0 0 0 .013.079.07.07 0 0 1 .013.08l-.05.1a.22.22 0 0 0 .035.25l.06.068c.03.034.075.054.12.054.058 0 .11.03.14.078l.063.106A.17.17 0 0 1 .79 6.1l-.005.045a.11.11 0 0 0 .145.119l.138-.046.067-.028.117-.058a.31.31 0 0 1 .267-.006l.027.012q.05.021.103.016a.204.204 0 0 1 .222.23l-.016.114a.166.166 0 0 1-.2.139.2.2 0 0 0-.073 0l-.078.017a.12.12 0 0 0-.097.12v.018a.107.107 0 0 1-.117.107l-.039-.004a.072.072 0 0 0-.046.13l.056.038q.052.036.075.094l.04.102a.36.36 0 0 0 .197.203l.094.04a.12.12 0 0 1 .064.064l.008.022a.08.08 0 0 1-.018.087.08.08 0 0 0-.02.078l.011.049.005.014c.015.045.082.038.086-.01a.05.05 0 0 1 .03-.037l.045-.018a.124.124 0 0 1 .16.073l.016.044a.2.2 0 0 0 .03.05l.025.029a.134.134 0 0 1-.14.216l-.065-.02a.113.113 0 0 0-.144.088l-.009.048a.073.073 0 0 0 .072.086c.05 0 .084.048.069.095l-.012.035a.1.1 0 0 0 .05.12l.029.014c.05.025.079.077.075.132l-.015.197v.034l.005.05a.149.149 0 0 0 .26.084l.061-.07a.24.24 0 0 1 .18-.081h.01q.046 0 .086-.02a.2.2 0 0 1 .112-.019l.045.007q.06.008.114.038l.143.077q.06.034.132.043c.076.01.148.043.205.095l.152.14a.14.14 0 0 0 .098.038c.074 0 .137.057.143.13l.008.087a.2.2 0 0 1-.006.08c-.04.16-.081.32-.138.479a.054.054 0 0 0 .027.066.054.054 0 0 1 .022.075l-.038.068a.13.13 0 0 0-.012.1l.05.162.008.04.009.071a.14.14 0 0 0 .105.12.14.14 0 0 1 .106.12l.003.019a.17.17 0 0 1-.037.128l-.06.074a.2.2 0 0 0 0 .255l.02.03.043.073q.043.074.12.114l.057.028c.062.03.1.094.1.162v.053c0 .042.026.08.065.096l.01.004a.084.084 0 0 1-.004.158l-.207.069a.153.153 0 0 0 .07.295l.076-.01.028-.002h.361l.264-.028a.38.38 0 0 1 .311.11l.01.01q.049.049.072.111c.03.08.091.144.17.177l.005.003q.036.015.068.039l.238.178a.1.1 0 0 1 .02.021l.02.027a.07.07 0 0 1-.012.099.072.072 0 0 0-.006.107l.183.183c.042.042.097.07.156.078h.005q.067.01.132-.015l.083-.033a.184.184 0 0 1 .252.17v.112q.002.175.042.345.046.204.082.408c.027.145.081.284.161.408q.09.141.136.3l.001.005.04.17q.03.135.093.259l.028.057q.027.054.064.1a.6.6 0 0 1 .088.155c.053.14.105.282.157.435q.023.067.073.117l.121.121a.103.103 0 0 0 .168-.032l.04-.094a.1.1 0 0 1 .066-.06l.102-.034A.04.04 0 0 0 8 16.458a.04.04 0 0 1-.006-.051l.078-.125a.08.08 0 0 1 .064-.035.075.075 0 0 0 .075-.076v-.259q0-.063.024-.124l.017-.042a.6.6 0 0 0 .037-.275l-.008-.069-.038-.266a.25.25 0 0 1 .014-.121l.013-.036a.18.18 0 0 1 .133-.112l.037-.013.193-.085.065-.04a.11.11 0 0 0 .053-.092c0-.035.017-.068.046-.088l.188-.132.111-.097q.077-.067.143-.145l.068-.08a.9.9 0 0 1 .298-.229l.122-.056a.3.3 0 0 0 .096-.074l.04-.048a.14.14 0 0 0 .03-.104.136.136 0 0 1 .112-.15l.138-.023.031-.003h.106a.054.054 0 0 0 .053-.041.054.054 0 0 1 .066-.04l.04.01.048.016a.03.03 0 0 0 .034-.014.03.03 0 0 1 .038-.012l.022.01a.05.05 0 0 0 .07-.023l.035-.07a.1.1 0 0 0 .007-.05.077.077 0 0 1 .075-.091h.053c.04 0 .078.02.1.054l.058.087.062.124a.5.5 0 0 1 .044.134.5.5 0 0 0 .044.134l.019.038q.02.039.045.074l.092.122q.024.03.06.037l.036.006c.036.006.06.042.051.078a.06.06 0 0 0 .009.05l.114.172a.5.5 0 0 1 .078.189l.015.073a.3.3 0 0 1-.002.117l-.026.114a.15.15 0 0 0 .122.182l.012.002a.3.3 0 0 0 .217-.044l.158-.1a.165.165 0 0 1 .246.066l.003.006a.2.2 0 0 1 .013.044l.043.282.058.23a.24.24 0 0 0 .045.093c.04.049.058.11.052.173l-.009.1a.2.2 0 0 0 .023.117.22.22 0 0 1 .009.174l-.012.03a.3.3 0 0 0-.016.14l.003.03a.4.4 0 0 1-.014.17l-.023.076a.5.5 0 0 0-.022.153v.078q0 .008.002.015l.013.038c.01.03.054.03.064 0a.032.032 0 0 1 .051-.015c.069.059.125.13.18.204a.2.2 0 0 1 .03.052l.008.02a.4.4 0 0 0 .08.122l.016.016a.22.22 0 0 1 .062.187v.006a.24.24 0 0 0 .037.166l.008.011a.3.3 0 0 1 .043.118l.003.019a.35.35 0 0 0 .082.185l.041.049q.03.035.04.08a.18.18 0 0 0 .075.113l.22.147.193.134q.042.03.094.023l.057-.008a.065.065 0 0 0 .05-.091l-.07-.157a.2.2 0 0 0-.055-.07.18.18 0 0 1-.069-.112l-.009-.054-.008-.033a.2.2 0 0 1-.007-.11l.003-.016a.3.3 0 0 0 .003-.092l-.004-.024a.4.4 0 0 0-.066-.172l-.013-.02a.5.5 0 0 0-.064-.079l-.086-.086a.2.2 0 0 0-.042-.03.2.2 0 0 1-.042-.03l-.049-.049a.22.22 0 0 0-.12-.062.22.22 0 0 1-.121-.062l-.024-.023a.33.33 0 0 1-.087-.16l-.02-.088a.3.3 0 0 0-.019-.059l-.053-.118a.11.11 0 0 0-.099-.065c-.053 0-.1-.04-.107-.093l-.005-.034a.15.15 0 0 1 .008-.072l.186-.497a.3.3 0 0 0 .015-.064l.012-.131a.103.103 0 0 1 .103-.094h.022c.05 0 .09.044.083.094a.084.084 0 0 0 .083.094h.077q.04 0 .074.019l.058.032a.4.4 0 0 1 .175.19l.046.102q.015.032.037.06l.004.004c.043.055.107.09.176.099l.017.002a.2.2 0 0 1 .11.049l.036.03a.145.145 0 0 1 .039.167l-.006.014a.115.115 0 0 0 .176.137l.177-.137a.3.3 0 0 0 .043-.04l.05-.056q.118-.133.271-.222l.088-.052a.48.48 0 0 0 .24-.39l.006-.122a.8.8 0 0 0-.014-.194l-.05-.249a.64.64 0 0 0-.271-.406l-.008-.005a.6.6 0 0 1-.166-.16c-.088-.128-.17-.264-.26-.392a.26.26 0 0 1-.037-.216.24.24 0 0 1 .045-.086l.077-.097a1 1 0 0 1 .184-.171l.172-.12a.3.3 0 0 1 .06-.032l.026-.01a.2.2 0 0 1 .123-.01l.189.04a.06.06 0 0 1 .041.086.06.06 0 0 0-.002.049l.032.088a.098.098 0 0 0 .186-.009l.019-.07a.21.21 0 0 1 .165-.151l.098-.018a.4.4 0 0 0 .058-.016l.276-.098a.2.2 0 0 0 .045-.026l.075-.063a.056.056 0 0 1 .08.01c.02.025.056.03.08.01l.064-.054a.14.14 0 0 1 .074-.03l.107-.01a.45.45 0 0 0 .203-.068q.136-.089.267-.181c.195-.138.366-.308.502-.504l.005-.008c.108-.194.217-.389.343-.583a.14.14 0 0 1 .092-.06.14.14 0 0 0 .108-.093l.044-.132.022-.101a.16.16 0 0 0-.069-.173l-.012-.008a.12.12 0 0 1-.048-.063l-.005-.014a.106.106 0 0 1 .053-.128.11.11 0 0 0 .059-.095v-.07a.22.22 0 0 0-.046-.135l-.087-.111a1 1 0 0 1-.056-.085l-.087-.161a1 1 0 0 1-.048-.109l-.048-.146a.24.24 0 0 0-.098-.124l-.028-.018a.2.2 0 0 1 .004-.34l.124-.074a.4.4 0 0 0 .109-.1l.022-.031a.25.25 0 0 1 .136-.097l.15-.042a.097.097 0 0 0-.027-.191h-.042a.15.15 0 0 1-.088-.028l-.048-.034a.24.24 0 0 0-.286.011l-.036.03a.17.17 0 0 1-.18.02l-.035-.019a.1.1 0 0 1-.056-.09.1.1 0 0 0-.076-.097l-.053-.013a.17.17 0 0 1-.095-.063l-.032-.043a.153.153 0 0 1 .107-.244l.051-.005a.28.28 0 0 0 .195-.11l.037-.049a.4.4 0 0 1 .07-.073l.201-.165.037-.024.098-.055a.12.12 0 0 1 .148.183l-.082.092a.1.1 0 0 0-.019.108l.014.034a.04.04 0 0 1-.007.043.042.042 0 0 0 .047.067l.098-.035.022-.013.077-.066a.5.5 0 0 1 .175-.094l.135-.039a.2.2 0 0 1 .174.035l.001.002q.038.03.086.038l.066.01a.054.054 0 0 1 .04.075l-.052.122a.04.04 0 0 0 .001.038.044.044 0 0 1-.008.05l-.013.014a.1.1 0 0 0-.017.027l-.019.057a.094.094 0 0 0 .037.108h.001l.02.01.045.015a.02.02 0 0 1 .015.021c0 .016.015.026.03.021l.025-.008a.04.04 0 0 0 .023-.02.04.04 0 0 1 .05-.019l.053.022q.03.012.048.04l.095.148a.072.072 0 0 1-.042.109.07.07 0 0 0-.049.09l.053.172a.25.25 0 0 1 .005.127l-.027.121a.145.145 0 0 0 .157.175l.032-.004a.2.2 0 0 0 .074-.026l.102-.064a.4.4 0 0 1 .11-.045zM19.3 20.675a.14.14 0 0 1-.087.03h-.076a.4.4 0 0 0-.08.008l-.143.032a.06.06 0 0 0-.041.032.06.06 0 0 1-.032.03l-.108.043a.37.37 0 0 0-.168.137l-.024.035-.011.023-.014.041a.028.028 0 0 0 .033.037l.117-.026a.25.25 0 0 0 .132-.078l.037-.042a.45.45 0 0 1 .18-.123c.11-.04.228-.088.332-.123l.015-.008.024-.018a.038.038 0 0 0-.045-.06z" mask="url(#a)"/></svg>