<svg xmlns="http://www.w3.org/2000/svg" width="24" height="24" fill="none" viewBox="0 0 24 24"><mask id="a" fill="#fff"><path fill-rule="evenodd" d="M11.138 13.03a.242.242 0 0 0-.07.4l.01.01c.145.134.38.085.458-.097l.022-.052a.236.236 0 0 0-.31-.309zm-.901 7.77a.103.103 0 0 0 .155-.053l.066-.197a.2.2 0 0 0 .008-.085l-.012-.11a.137.137 0 0 0-.263-.038l-.018.041a.34.34 0 0 0-.019.21l.04.17a.1.1 0 0 0 .043.062m-5.125-7.64c.003.075.1.102.142.04a.078.078 0 0 1 .128-.002l.022.03c.021.03.025.07.01.103l-.062.136a.195.195 0 0 0 .135.271l.142.032a.5.5 0 0 1 .313.216q.048.07.093.147.04.071.027.154a.28.28 0 0 1-.299.236l-.015-.001a.293.293 0 0 0-.309.234l-.007.04a.25.25 0 0 0 .032.175l.033.052a.192.192 0 0 1-.083.275l-.032.015a.156.156 0 0 0-.077.204l.004.008c.02.045.062.076.11.084l.16.029c.092.018.11.156.025.196a.1.1 0 0 0-.032.023l-.407.466a.12.12 0 0 0 .17.167l.077-.07a.26.26 0 0 1 .23-.059l.038.009a.26.26 0 0 0 .253-.08l.052-.057a.164.164 0 0 1 .203-.032c.037.02.08.027.12.017l.443-.106a1 1 0 0 1 .213-.026h.208a.38.38 0 0 0 .257-.1l.086-.08a.22.22 0 0 0 .048-.262.22.22 0 0 1 .041-.257l.003-.003a.23.23 0 0 0 .065-.132l.004-.026a.306.306 0 0 0-.222-.335l-.023-.006a.33.33 0 0 1-.221-.198l-.037-.09-.176-.55a.3.3 0 0 0-.175-.188.3.3 0 0 1-.162-.155c-.087-.202-.164-.403-.252-.604a.17.17 0 0 0-.141-.1.168.168 0 0 1-.135-.25l.156-.275a.4.4 0 0 0 .041-.115l.024-.13a.294.294 0 0 0-.29-.347h-.017a.2.2 0 0 0-.041.006.161.161 0 0 1-.186-.228l.04-.08a.201.201 0 0 0-.204-.29l-.016.002a.2.2 0 0 1-.059-.001l-.018-.003a.34.34 0 0 0-.357.182l-.113.227a.7.7 0 0 0-.061.184l-.067.374a.62.62 0 0 0 .065.405l.047.089q.02.037.022.08zm10.196 9.463a.082.082 0 0 1 .108-.1l.03.011a.097.097 0 0 0 .132-.09v-.04c0-.04-.02-.077-.052-.1l-.096-.069a.3.3 0 0 1-.042-.037l-.123-.139a.077.077 0 0 1 .01-.11.077.077 0 0 0 .012-.108l-.096-.123a.2.2 0 0 1-.04-.082l-.053-.191a.069.069 0 0 1 .12-.061l.087.109a.18.18 0 0 0 .138.066h.087a.116.116 0 0 0 .085-.193l-.004-.005a.12.12 0 0 1 .057-.196l.19-.053a.24.24 0 0 1 .124-.002l.133.034.145.016a.085.085 0 0 1 .075.084q0 .022.01.041l.012.02a.175.175 0 0 0 .261.05q.09-.07.172-.147a.42.42 0 0 1 .262-.122l.215-.013a.087.087 0 0 0 .03-.165l-.136-.064a.22.22 0 0 1-.121-.14l-.014-.049-.017-.048-.038-.081a.57.57 0 0 1-.02-.433l.005-.015a.5.5 0 0 1 .12-.188l.034-.034a.36.36 0 0 0 .099-.193l.066-.396a.058.058 0 0 1 .083-.043.06.06 0 0 0 .055-.001l.076-.044a.14.14 0 0 0 .068-.117q0-.043.026-.08l.207-.282a.5.5 0 0 0 .059-.104l.059-.142a.2.2 0 0 1 .14-.119l.1-.023a.11.11 0 0 1 .132.093c.006.045.04.082.084.093l.43.097a.099.099 0 0 1 .022.185l-.217.108a.078.078 0 0 0 .008.142l.168.063c.07.027.109.104.087.176-.02.067.01.139.073.17l.01.005a.16.16 0 0 0 .152-.006l.334-.2a.6.6 0 0 1 .17-.071l.259-.065a.087.087 0 0 0-.027-.172l-.158.01a.2.2 0 0 1-.12-.034l-.02-.014a.26.26 0 0 1-.106-.188l-.002-.022a.3.3 0 0 1 .134-.275l.055-.037a.4.4 0 0 1 .2-.068l.07-.005a.6.6 0 0 0 .297-.106l.059-.04a.3.3 0 0 1 .113-.047l.09-.015a.17.17 0 0 0 .141-.166c0-.05.022-.096.059-.128l.046-.04a.3.3 0 0 1 .153-.068l.13-.02a.194.194 0 0 0 .162-.238l-.019-.073a.47.47 0 0 1 .036-.327l.05-.098a.182.182 0 0 0-.103-.252l-.319-.111a.3.3 0 0 0-.1-.017h-.005a.3.3 0 0 1-.227-.108l-.016-.02a.26.26 0 0 0-.287-.079.26.26 0 0 1-.192-.007l-.28-.124a.11.11 0 0 1-.065-.1.1.1 0 0 0-.012-.05l-.056-.112a.22.22 0 0 0-.175-.119l-.06-.005a.14.14 0 0 1-.128-.12v-.004a.13.13 0 0 1 .027-.1.13.13 0 0 0 .004-.16l-.078-.109a.31.31 0 0 0-.293-.127l-.159.021a.1.1 0 0 1-.045-.002.12.12 0 0 0-.124.041l-.01.014a.101.101 0 0 1-.178-.037l-.081-.306-.052-.138a.077.077 0 0 1 .079-.104l.206.017a.146.146 0 0 0 .067-.28l-.15-.06a.064.064 0 0 1-.039-.075.06.06 0 0 0-.026-.069l-.072-.048a.2.2 0 0 1-.06-.064l-.162-.293a.25.25 0 0 1-.011-.22.25.25 0 0 0 .02-.12l-.003-.024a.35.35 0 0 0-.208-.29l-.098-.041a.14.14 0 0 0-.108-.003l-.038.015a.105.105 0 0 1-.137-.066.1.1 0 0 0-.056-.062l-.142-.066a.47.47 0 0 1-.247-.277l-.035-.106a.6.6 0 0 1-.029-.142l-.013-.173a.17.17 0 0 0-.06-.118.173.173 0 0 1-.031-.228l.016-.025a.2.2 0 0 0 .033-.147l-.056-.363a.53.53 0 0 1 .074-.357l.112-.18a.106.106 0 0 0-.098-.163l-.214.014a.4.4 0 0 1-.146-.017l-.09-.028a.9.9 0 0 0-.465-.02l-.145.032a.6.6 0 0 0-.115.038l-.146.065a.38.38 0 0 0-.222.367l.002.033a.28.28 0 0 0 .072.17l.126.14a.05.05 0 0 0 .064.01.05.05 0 0 1 .077.048c-.02.209-.05.427-.072.638a.2.2 0 0 1-.182.18.2.2 0 0 1-.19-.101l-.055-.102a.294.294 0 0 0-.528.03l-.076.183a.9.9 0 0 0-.068.306l-.014.265a.5.5 0 0 0 .01.128l.02.102a.396.396 0 0 1-.24.446l-.082.032a.22.22 0 0 0-.13.147l-.002.006a.21.21 0 0 1-.205.157h-.095a.1.1 0 0 1-.099-.085.1.1 0 0 0-.072-.08l-.157-.045a.35.35 0 0 0-.24.017c-.292.131-.57.279-.865.427l-.039.023-.043.03a.25.25 0 0 1-.33-.04.3.3 0 0 0-.055-.047l-.188-.118a.275.275 0 0 0-.325.027.3.3 0 0 1-.094.054l-.199.061a.108.108 0 0 1-.14-.103.11.11 0 0 0-.068-.1l-.115-.046a.29.29 0 0 1-.183-.27.3.3 0 0 0-.015-.092l-.039-.116a.33.33 0 0 1 .021-.256l.152-.29a.05.05 0 0 1 .074-.016.05.05 0 0 0 .075-.021l.033-.084a.12.12 0 0 0-.057-.15l-.027-.013a.15.15 0 0 1-.082-.114l-.004-.032q-.009-.06.016-.117l.059-.132a.164.164 0 0 0-.241-.203l-.012.007a.2.2 0 0 0-.045.043l-.033.046a.3.3 0 0 1-.191.122.3.3 0 0 0-.216.162l-.015.03a.4.4 0 0 0-.025.063l-.01.035a.8.8 0 0 0-.029.21v.324q0 .204.08.392.066.154.079.322l.009.132a.3.3 0 0 0 .017.083l.025.077a.2.2 0 0 1-.035.185l-.112.135a.07.07 0 0 1-.114-.01.07.07 0 0 0-.066-.033l-.179.015a.14.14 0 0 0-.107.067.14.14 0 0 1-.108.067l-.142.012a.4.4 0 0 0-.152.042l-.088.045a.93.93 0 0 0-.456.508l-.144.385a.52.52 0 0 1-.303.305l-.264.099a.46.46 0 0 0-.289.335.46.46 0 0 1-.244.317l-.56.28a.13.13 0 0 1-.138-.011.134.134 0 0 0-.21.135l.01.043a.152.152 0 0 1-.186.177l-.272-.068a.33.33 0 0 0-.164.001l-.172.045a.265.265 0 0 0-.023.506l.239.087q.135.049.238.152l.086.086q.081.08.144.173l.014.02c.187.275.276.605.251.936l-.029.396a.407.407 0 0 1-.423.377l-.317-.014-.085.007a2 2 0 0 1-.414-.009l-.185-.023H4.82a1 1 0 0 1-.178-.02l-.17-.037a.42.42 0 0 0-.333.066l-.177.123a.2.2 0 0 0-.052.276.2.2 0 0 1 .034.125l-.015.197a.7.7 0 0 0 .006.153l.003.023q.01.071.04.139.044.103.044.217v.005a.6.6 0 0 1-.02.152l-.044.158-.014.073-.007.05a.36.36 0 0 1-.084.19.36.36 0 0 0-.085.206l-.01.11a.3.3 0 0 0 .021.128l.022.052a.14.14 0 0 0 .085.078.14.14 0 0 1 .095.12l.014.153a.2.2 0 0 1-.001.048l-.025.173a.095.095 0 0 0 .12.105.1.1 0 0 1 .06.002l.069.026c.06.023.127.011.177-.03a.18.18 0 0 1 .151-.037l.079.017a.34.34 0 0 1 .246.208l.01.022a.4.4 0 0 0 .056.095l.04.049a.185.185 0 0 0 .284.002l.05-.06a.3.3 0 0 1 .068-.059l.03-.02A.6.6 0 0 1 5.743 23h.338a.51.51 0 0 0 .415-.213l.03-.043a.34.34 0 0 1 .161-.122.34.34 0 0 0 .214-.236l.01-.046a.27.27 0 0 1 .072-.125l.01-.01a.25.25 0 0 0 .043-.298.25.25 0 0 1-.013-.213l.066-.167a.6.6 0 0 1 .098-.165l.132-.162a.16.16 0 0 0 .033-.073.16.16 0 0 1 .122-.127l.226-.048a.5.5 0 0 0 .234-.121l.085-.08a.44.44 0 0 0 .138-.358v-.006a.39.39 0 0 1 .28-.41l.14-.04a.6.6 0 0 1 .276-.015l.311.053a.56.56 0 0 0 .458-.124l.068-.058a.24.24 0 0 1 .114-.053.24.24 0 0 0 .138-.076l.102-.115a.256.256 0 0 1 .32-.05l.154.09q.028.016.058.024a.25.25 0 0 1 .176.182l.05.199a.6.6 0 0 0 .14.261l.141.156.318.317.184.15a.36.36 0 0 0 .194.08l.017.002a.32.32 0 0 1 .229.128.32.32 0 0 0 .155.112l.021.007c.067.022.122.07.153.132l.015.032a.18.18 0 0 0 .104.09.2.2 0 0 1 .11.098c.052.114.113.227.167.331a.15.15 0 0 1-.013.16.2.2 0 0 0-.025.048l-.06.203a.1.1 0 0 0-.005.032v.026a.088.088 0 0 0 .167.04l.147-.295a.12.12 0 0 1 .09-.067.12.12 0 0 0 .101-.098l.009-.041a.19.19 0 0 0-.076-.189l-.006-.004a.2.2 0 0 1-.062-.25.2.2 0 0 1 .222-.105l.117.027q.048.011.081.048l.061.068a.097.097 0 0 0 .167-.088l-.004-.018a.15.15 0 0 0-.05-.08l-.216-.18a.5.5 0 0 0-.085-.055c-.157-.081-.313-.176-.47-.258a.06.06 0 0 1-.014-.093.06.06 0 0 0 0-.082l-.028-.029a.1.1 0 0 0-.07-.028h-.093a.32.32 0 0 1-.23-.095l-.206-.206a1 1 0 0 1-.155-.199l-.056-.093a.9.9 0 0 0-.254-.276l-.103-.073a.4.4 0 0 1-.13-.152l-.03-.061a.25.25 0 0 1-.013-.188.3.3 0 0 0 .011-.102v-.009a.29.29 0 0 1 .14-.276l.085-.05a.14.14 0 0 1 .104-.014l.152.038c.038.01.04.04.005.058q-.018.012-.017.033v.127q0 .023.012.043l.004.008c.034.06.121.055.15-.008a.083.083 0 0 1 .102-.045l.05.017c.059.02.098.074.098.135v.013q0 .055.034.1l.11.14a.04.04 0 0 1-.01.06.04.04 0 0 0-.009.059l.214.267a.35.35 0 0 0 .127.1l.122.056a1 1 0 0 1 .22.143l.016.013a1 1 0 0 0 .173.122c.106.06.206.111.312.17q.083.047.136.126l.02.031a.2.2 0 0 0 .062.061l.015.01a.13.13 0 0 1 .05.147l-.019.058a.3.3 0 0 0-.012.06l-.019.248a.4.4 0 0 0 .001.078l.008.068a.26.26 0 0 0 .103.18l.07.053a.1.1 0 0 1 .035.07v.024q0 .029.027.044a.05.05 0 0 1 .027.034l.012.064a.2.2 0 0 0 .027.065q.071.105.15.217.148.217.211.472l.01.038.063.19a.55.55 0 0 0 .215.28l.1.067a.147.147 0 0 0 .222-.166l-.029-.092a.104.104 0 0 1 .077-.132l.023-.006a.08.08 0 0 0 .061-.103M3.974 15.559a.3.3 0 0 0 .182-.032l.296-.159c.165-.09.3-.226.388-.392l.034-.065a.7.7 0 0 0 .075-.409l-.008-.067a.46.46 0 0 1 .041-.252.46.46 0 0 0-.092-.526l-.047-.048a.343.343 0 0 0-.497.012q-.186.198-.378.386a.64.64 0 0 0-.168.649l.028.087a.4.4 0 0 1-.02.285l-.054.115a.293.293 0 0 0 .22.416m.368-8.3a.394.394 0 0 0-.34-.459h-.007a.4.4 0 0 0-.3.084l-.261.207a.37.37 0 0 1-.408.033.37.37 0 0 0-.42.043l-.033.029a.43.43 0 0 1-.592-.028l-.072-.075a.5.5 0 0 0-.495-.134l-.055.016a.375.375 0 0 0 .006.723l.206.054a.16.16 0 0 1 0 .308l-.03.009a.197.197 0 0 0-.044.363l.138.075a.168.168 0 0 1 .042.262.168.168 0 0 0 .082.278c.304.076.608.153.903.23a.7.7 0 0 0 .502-.055c.305-.158.61-.326.914-.495a.9.9 0 0 0 .276-.243l.088-.121a.64.64 0 0 0 .016-.735l-.055-.083a.4.4 0 0 1-.06-.286m7.962 15.106-.316.042a.4.4 0 0 1-.101.001l-.247-.029a.131.131 0 0 0-.07.25l.352.158.082.03.098.028q.03.01.058.026l.086.055a.144.144 0 0 0 .214-.166l-.015-.045a.17.17 0 0 1 .001-.112l.018-.052a.141.141 0 0 0-.16-.186m-2.091-1.3a.1.1 0 0 1-.08.024.102.102 0 0 0-.11.128l.028.104.006.038.022.494a.124.124 0 0 0 .212.082l.02-.02a.11.11 0 0 1 .093-.03.11.11 0 0 0 .126-.101l.032-.402a.27.27 0 0 0-.043-.17l-.082-.127a.142.142 0 0 0-.211-.03zm-1.15-10.067a.647.647 0 0 0 .828.524.64.64 0 0 0 .28-.18l.297-.328a.324.324 0 0 1 .551.13l.258.912.272.682q.021.052.032.105l.062.298a.278.278 0 0 0 .53.046l.05-.125a.27.27 0 0 1 .292-.164.27.27 0 0 0 .298-.182l.107-.333a1 1 0 0 0 .026-.118l.111-.854a.41.41 0 0 1 .214-.31.4.4 0 0 0 .187-.209l.104-.255a.71.71 0 0 0-.106-.714.7.7 0 0 1-.09-.142l-.024-.05a1.18 1.18 0 0 1-.078-.8l.047-.185c.076-.296.23-.566.446-.782l.354-.354.372-.437a.7.7 0 0 0 .162-.514.7.7 0 0 1 .091-.414l.11-.188a.7.7 0 0 1 .342-.295l.025-.01a.65.65 0 0 1 .662.108l.081.069a.373.373 0 0 1-.027.59l-.022.014a.4.4 0 0 0-.068.06l-.663.723a2 2 0 0 0-.203.262l-.164.252a1.13 1.13 0 0 0-.148.883l.044.173q.04.165.024.335l-.027.27a.51.51 0 0 0 .21.464l.019.013q.084.06.13.153a.416.416 0 0 0 .473.217l.207-.051a1 1 0 0 0 .109-.038l.394-.173q.164-.072.341-.086c.292-.022.56-.165.744-.393.25-.313.498-.62.735-.937a.54.54 0 0 0-.044-.694l-.076-.08a.55.55 0 0 1-.13-.53.55.55 0 0 0-.042-.405l-.053-.101a.84.84 0 0 1-.051-.652l.017-.053a.97.97 0 0 0-.024-.678l-.159-.384a.7.7 0 0 1 .012-.561.7.7 0 0 0-.102-.747l-.103-.12a.64.64 0 0 1-.15-.458l.012-.165a.39.39 0 0 1 .265-.342q.046-.015.087-.042l.263-.168a.37.37 0 0 0 .116-.507l-.088-.143a.21.21 0 0 1 .073-.288.208.208 0 0 0 .016-.35l-.562-.4a.65.65 0 0 0-.591-.084l-.166.057a.8.8 0 0 1-.313.04.78.78 0 0 0-.722.37l-.088.143a.63.63 0 0 1-.588.298.63.63 0 0 0-.373.086l-.318.19a1.8 1.8 0 0 0-.499.439 58 58 0 0 1-1.201 1.504q-.154.183-.262.398a108 108 0 0 1-1.282 2.505 2 2 0 0 1-.24.35l-.409.48a2 2 0 0 1-.363.332l-.554.394a1.1 1.1 0 0 0-.463.982l.096 1.314zm13.725 11.36a.13.13 0 0 0 .01-.084l-.09-.398a.126.126 0 0 1 .067-.14.126.126 0 0 0 .032-.202l-.006-.006a.1.1 0 0 0-.039-.027l-.088-.04a.24.24 0 0 1-.14-.245.2.2 0 0 0-.007-.092l-.004-.014a.3.3 0 0 0-.13-.175l-.084-.054a.58.58 0 0 0-.35-.09l-.024.002a.65.65 0 0 0-.285.087l-.109.065a.56.56 0 0 1-.373.069.6.6 0 0 0-.188 0l-.074.014a1 1 0 0 1-.486-.036l-.135-.045a1.6 1.6 0 0 1-.268-.118l-.174-.098a1.36 1.36 0 0 0-1.11-.096l-.06.02a1 1 0 0 0-.258.14l-.109.083a.6.6 0 0 1-.424.12l-.236-.026a.28.28 0 0 0-.292.175.28.28 0 0 1-.248.177l-.175.008a.43.43 0 0 0-.302.144l-.153.172a.187.187 0 0 0 .007.257.19.19 0 0 1 .035.215l-.023.047a.26.26 0 0 0 .057.307l.071.064q.053.049.085.112l.073.146c.07.14.215.23.372.23.087 0 .172.027.242.078l.142.1a.26.26 0 0 0 .202.044l.056-.011a.15.15 0 0 0 .11-.089.15.15 0 0 1 .148-.091l.16.01a.4.4 0 0 1 .22.087l.034.029c.105.087.24.13.376.117l.198-.018a.35.35 0 0 0 .217-.102l.004-.003a.35.35 0 0 1 .353-.084l.08.027a.04.04 0 0 0 .022.001l.036-.008c.038-.008.06.042.029.064a.036.036 0 0 0-.01.049l.035.055a.105.105 0 0 0 .163.018l.074-.074a.1.1 0 0 0 .032-.068l.008-.084a.066.066 0 0 1 .107-.044q.027.02.061.01l.227-.07a.4.4 0 0 1 .258.007.4.4 0 0 0 .14.025h.068q.153 0 .295-.058l.15-.062a.7.7 0 0 1 .257-.05 1 1 0 0 0 .123-.012l.278-.052a.4.4 0 0 0 .099-.033.37.37 0 0 1 .21-.037l.247.029a.17.17 0 0 1 .1.048l.03.03a.105.105 0 0 0 .167-.124l-.111-.208a.13.13 0 0 1-.002-.115" clip-rule="evenodd"/></mask><path stroke="currentcolor" d="M11.138 13.03a.242.242 0 0 0-.07.4l.01.01c.145.134.38.085.458-.097l.022-.052a.236.236 0 0 0-.31-.309zm-.901 7.77a.103.103 0 0 0 .155-.053l.066-.197a.2.2 0 0 0 .008-.085l-.012-.11a.137.137 0 0 0-.263-.038l-.018.041a.34.34 0 0 0-.019.21l.04.17a.1.1 0 0 0 .043.062Zm-5.125-7.64c.003.075.1.102.142.04a.078.078 0 0 1 .128-.002l.022.03c.021.03.025.07.01.103l-.062.136a.195.195 0 0 0 .135.271l.142.032a.5.5 0 0 1 .313.216q.048.07.093.147.04.071.027.154a.28.28 0 0 1-.299.236l-.015-.001a.293.293 0 0 0-.309.234l-.007.04a.25.25 0 0 0 .032.175l.033.052a.192.192 0 0 1-.083.275l-.032.015a.156.156 0 0 0-.077.204l.004.008c.02.045.062.076.11.084l.16.029c.092.018.11.156.025.196a.1.1 0 0 0-.032.023l-.407.466a.12.12 0 0 0 .17.167l.077-.07a.26.26 0 0 1 .23-.059l.038.009a.26.26 0 0 0 .253-.08l.052-.057a.164.164 0 0 1 .203-.032c.037.02.08.027.12.017l.443-.106a1 1 0 0 1 .213-.026h.208a.38.38 0 0 0 .257-.1l.086-.08a.22.22 0 0 0 .048-.262.22.22 0 0 1 .041-.257l.003-.003a.23.23 0 0 0 .065-.132l.004-.026a.306.306 0 0 0-.222-.335l-.023-.006a.33.33 0 0 1-.221-.198l-.037-.09-.176-.55a.3.3 0 0 0-.175-.188.3.3 0 0 1-.162-.155c-.087-.202-.164-.403-.252-.604a.17.17 0 0 0-.141-.1.168.168 0 0 1-.135-.25l.156-.275a.4.4 0 0 0 .041-.115l.024-.13a.294.294 0 0 0-.29-.347h-.017a.2.2 0 0 0-.041.006.161.161 0 0 1-.186-.228l.04-.08a.201.201 0 0 0-.204-.29l-.016.002a.2.2 0 0 1-.059-.001l-.018-.003a.34.34 0 0 0-.357.182l-.113.227a.7.7 0 0 0-.061.184l-.067.374a.62.62 0 0 0 .065.405l.047.089q.02.037.022.08zm10.196 9.463a.082.082 0 0 1 .108-.1l.03.011a.097.097 0 0 0 .132-.09v-.04c0-.04-.02-.077-.052-.1l-.096-.069a.3.3 0 0 1-.042-.037l-.123-.139a.077.077 0 0 1 .01-.11.077.077 0 0 0 .012-.108l-.096-.123a.2.2 0 0 1-.04-.082l-.053-.191a.069.069 0 0 1 .12-.061l.087.109a.18.18 0 0 0 .138.066h.087a.116.116 0 0 0 .085-.193l-.004-.005a.12.12 0 0 1 .057-.196l.19-.053a.24.24 0 0 1 .124-.002l.133.034.145.016a.085.085 0 0 1 .075.084q0 .022.01.041l.012.02a.175.175 0 0 0 .261.05q.09-.07.172-.147a.42.42 0 0 1 .262-.122l.215-.013a.087.087 0 0 0 .03-.165l-.136-.064a.22.22 0 0 1-.121-.14l-.014-.049-.017-.048-.038-.081a.57.57 0 0 1-.02-.433l.005-.015a.5.5 0 0 1 .12-.188l.034-.034a.36.36 0 0 0 .099-.193l.066-.396a.058.058 0 0 1 .083-.043.06.06 0 0 0 .055-.001l.076-.044a.14.14 0 0 0 .068-.117q0-.043.026-.08l.207-.282a.5.5 0 0 0 .059-.104l.059-.142a.2.2 0 0 1 .14-.119l.1-.023a.11.11 0 0 1 .132.093c.006.045.04.082.084.093l.43.097a.099.099 0 0 1 .022.185l-.217.108a.078.078 0 0 0 .008.142l.168.063c.07.027.109.104.087.176-.02.067.01.139.073.17l.01.005a.16.16 0 0 0 .152-.006l.334-.2a.6.6 0 0 1 .17-.071l.259-.065a.087.087 0 0 0-.027-.172l-.158.01a.2.2 0 0 1-.12-.034l-.02-.014a.26.26 0 0 1-.106-.188l-.002-.022a.3.3 0 0 1 .134-.275l.055-.037a.4.4 0 0 1 .2-.068l.07-.005a.6.6 0 0 0 .297-.106l.059-.04a.3.3 0 0 1 .113-.047l.09-.015a.17.17 0 0 0 .141-.166c0-.05.022-.096.059-.128l.046-.04a.3.3 0 0 1 .153-.068l.13-.02a.194.194 0 0 0 .162-.238l-.019-.073a.47.47 0 0 1 .036-.327l.05-.098a.182.182 0 0 0-.103-.252l-.319-.111a.3.3 0 0 0-.1-.017h-.005a.3.3 0 0 1-.227-.108l-.016-.02a.26.26 0 0 0-.287-.079.26.26 0 0 1-.192-.007l-.28-.124a.11.11 0 0 1-.065-.1.1.1 0 0 0-.012-.05l-.056-.112a.22.22 0 0 0-.175-.119l-.06-.005a.14.14 0 0 1-.128-.12v-.004a.13.13 0 0 1 .027-.1.13.13 0 0 0 .004-.16l-.078-.109a.31.31 0 0 0-.293-.127l-.159.021a.1.1 0 0 1-.045-.002.12.12 0 0 0-.124.041l-.01.014a.101.101 0 0 1-.178-.037l-.081-.306-.052-.138a.077.077 0 0 1 .079-.104l.206.017a.146.146 0 0 0 .067-.28l-.15-.06a.064.064 0 0 1-.039-.075.06.06 0 0 0-.026-.069l-.072-.048a.2.2 0 0 1-.06-.064l-.162-.293a.25.25 0 0 1-.011-.22.25.25 0 0 0 .02-.12l-.003-.024a.35.35 0 0 0-.208-.29l-.098-.041a.14.14 0 0 0-.108-.003l-.038.015a.105.105 0 0 1-.137-.066.1.1 0 0 0-.056-.062l-.142-.066a.47.47 0 0 1-.247-.277l-.035-.106a.6.6 0 0 1-.029-.142l-.013-.173a.17.17 0 0 0-.06-.118.173.173 0 0 1-.031-.228l.016-.025a.2.2 0 0 0 .033-.147l-.056-.363a.53.53 0 0 1 .074-.357l.112-.18a.106.106 0 0 0-.098-.163l-.214.014a.4.4 0 0 1-.146-.017l-.09-.028a.9.9 0 0 0-.465-.02l-.145.032a.6.6 0 0 0-.115.038l-.146.065a.38.38 0 0 0-.222.367l.002.033a.28.28 0 0 0 .072.17l.126.14a.05.05 0 0 0 .064.01.05.05 0 0 1 .077.048c-.02.209-.05.427-.072.638a.2.2 0 0 1-.182.18.2.2 0 0 1-.19-.101l-.055-.102a.294.294 0 0 0-.528.03l-.076.183a.9.9 0 0 0-.068.306l-.014.265a.5.5 0 0 0 .01.128l.02.102a.396.396 0 0 1-.24.446l-.082.032a.22.22 0 0 0-.13.147l-.002.006a.21.21 0 0 1-.205.157h-.095a.1.1 0 0 1-.099-.085.1.1 0 0 0-.072-.08l-.157-.045a.35.35 0 0 0-.24.017c-.292.131-.57.279-.865.427l-.039.023-.043.03a.25.25 0 0 1-.33-.04.3.3 0 0 0-.055-.047l-.188-.118a.275.275 0 0 0-.325.027.3.3 0 0 1-.094.054l-.199.061a.108.108 0 0 1-.14-.103.11.11 0 0 0-.068-.1l-.115-.046a.29.29 0 0 1-.183-.27.3.3 0 0 0-.015-.092l-.039-.116a.33.33 0 0 1 .021-.256l.152-.29a.05.05 0 0 1 .074-.016.05.05 0 0 0 .075-.021l.033-.084a.12.12 0 0 0-.057-.15l-.027-.013a.15.15 0 0 1-.082-.114l-.004-.032q-.009-.06.016-.117l.059-.132a.164.164 0 0 0-.241-.203l-.012.007a.2.2 0 0 0-.045.043l-.033.046a.3.3 0 0 1-.191.122.3.3 0 0 0-.216.162l-.015.03a.4.4 0 0 0-.025.063l-.01.035a.8.8 0 0 0-.029.21v.324q0 .204.08.392.066.154.079.322l.009.132a.3.3 0 0 0 .017.083l.025.077a.2.2 0 0 1-.035.185l-.112.135a.07.07 0 0 1-.114-.01.07.07 0 0 0-.066-.033l-.179.015a.14.14 0 0 0-.107.067.14.14 0 0 1-.108.067l-.142.012a.4.4 0 0 0-.152.042l-.088.045a.93.93 0 0 0-.456.508l-.144.385a.52.52 0 0 1-.303.305l-.264.099a.46.46 0 0 0-.289.335.46.46 0 0 1-.244.317l-.56.28a.13.13 0 0 1-.138-.011.134.134 0 0 0-.21.135l.01.043a.152.152 0 0 1-.186.177l-.272-.068a.33.33 0 0 0-.164.001l-.172.045a.265.265 0 0 0-.023.506l.239.087q.135.049.238.152l.086.086q.081.08.144.173l.014.02c.187.275.276.605.251.936l-.029.396a.407.407 0 0 1-.423.377l-.317-.014-.085.007a2 2 0 0 1-.414-.009l-.185-.023H4.82a1 1 0 0 1-.178-.02l-.17-.037a.42.42 0 0 0-.333.066l-.177.123a.2.2 0 0 0-.052.276.2.2 0 0 1 .034.125l-.015.197a.7.7 0 0 0 .006.153l.003.023q.01.071.04.139.044.103.044.217v.005a.6.6 0 0 1-.02.152l-.044.158-.014.073-.007.05a.36.36 0 0 1-.084.19.36.36 0 0 0-.085.206l-.01.11a.3.3 0 0 0 .021.128l.022.052a.14.14 0 0 0 .085.078.14.14 0 0 1 .095.12l.014.153a.2.2 0 0 1-.001.048l-.025.173a.095.095 0 0 0 .12.105.1.1 0 0 1 .06.002l.069.026c.06.023.127.011.177-.03a.18.18 0 0 1 .151-.037l.079.017a.34.34 0 0 1 .246.208l.01.022a.4.4 0 0 0 .056.095l.04.049a.185.185 0 0 0 .284.002l.05-.06a.3.3 0 0 1 .068-.059l.03-.02A.6.6 0 0 1 5.743 23h.338a.51.51 0 0 0 .415-.213l.03-.043a.34.34 0 0 1 .161-.122.34.34 0 0 0 .214-.236l.01-.046a.27.27 0 0 1 .072-.125l.01-.01a.25.25 0 0 0 .043-.298.25.25 0 0 1-.013-.213l.066-.167a.6.6 0 0 1 .098-.165l.132-.162a.16.16 0 0 0 .033-.073.16.16 0 0 1 .122-.127l.226-.048a.5.5 0 0 0 .234-.121l.085-.08a.44.44 0 0 0 .138-.358v-.006a.39.39 0 0 1 .28-.41l.14-.04a.6.6 0 0 1 .276-.015l.311.053a.56.56 0 0 0 .458-.124l.068-.058a.24.24 0 0 1 .114-.053.24.24 0 0 0 .138-.076l.102-.115a.256.256 0 0 1 .32-.05l.154.09q.028.016.058.024a.25.25 0 0 1 .176.182l.05.199a.6.6 0 0 0 .14.261l.141.156.318.317.184.15a.36.36 0 0 0 .194.08l.017.002a.32.32 0 0 1 .229.128.32.32 0 0 0 .155.112l.021.007c.067.022.122.07.153.132l.015.032a.18.18 0 0 0 .104.09.2.2 0 0 1 .11.098c.052.114.113.227.167.331a.15.15 0 0 1-.013.16.2.2 0 0 0-.025.048l-.06.203a.1.1 0 0 0-.005.032v.026a.088.088 0 0 0 .167.04l.147-.295a.12.12 0 0 1 .09-.067.12.12 0 0 0 .101-.098l.009-.041a.19.19 0 0 0-.076-.189l-.006-.004a.2.2 0 0 1-.062-.25.2.2 0 0 1 .222-.105l.117.027q.048.011.081.048l.061.068a.097.097 0 0 0 .167-.088l-.004-.018a.15.15 0 0 0-.05-.08l-.216-.18a.5.5 0 0 0-.085-.055c-.157-.081-.313-.176-.47-.258a.06.06 0 0 1-.014-.093.06.06 0 0 0 0-.082l-.028-.029a.1.1 0 0 0-.07-.028h-.093a.32.32 0 0 1-.23-.095l-.206-.206a1 1 0 0 1-.155-.199l-.056-.093a.9.9 0 0 0-.254-.276l-.103-.073a.4.4 0 0 1-.13-.152l-.03-.061a.25.25 0 0 1-.013-.188.3.3 0 0 0 .011-.102v-.009a.29.29 0 0 1 .14-.276l.085-.05a.14.14 0 0 1 .104-.014l.152.038c.038.01.04.04.005.058q-.018.012-.017.033v.127q0 .023.012.043l.004.008c.034.06.121.055.15-.008a.083.083 0 0 1 .102-.045l.05.017c.059.02.098.074.098.135v.013q0 .055.034.1l.11.14a.04.04 0 0 1-.01.06.04.04 0 0 0-.009.059l.214.267a.35.35 0 0 0 .127.1l.122.056a1 1 0 0 1 .22.143l.016.013a1 1 0 0 0 .173.122c.106.06.206.111.312.17q.083.047.136.126l.02.031a.2.2 0 0 0 .062.061l.015.01a.13.13 0 0 1 .05.147l-.019.058a.3.3 0 0 0-.012.06l-.019.248a.4.4 0 0 0 .001.078l.008.068a.26.26 0 0 0 .103.18l.07.053a.1.1 0 0 1 .035.07v.024q0 .029.027.044a.05.05 0 0 1 .027.034l.012.064a.2.2 0 0 0 .027.065q.071.105.15.217.148.217.211.472l.01.038.063.19a.55.55 0 0 0 .215.28l.1.067a.147.147 0 0 0 .222-.166l-.029-.092a.104.104 0 0 1 .077-.132l.023-.006a.08.08 0 0 0 .061-.103ZM3.974 15.559a.3.3 0 0 0 .182-.032l.296-.159c.165-.09.3-.226.388-.392l.034-.065a.7.7 0 0 0 .075-.409l-.008-.067a.46.46 0 0 1 .041-.252.46.46 0 0 0-.092-.526l-.047-.048a.343.343 0 0 0-.497.012q-.186.198-.378.386a.64.64 0 0 0-.168.649l.028.087a.4.4 0 0 1-.02.285l-.054.115a.293.293 0 0 0 .22.416Zm.368-8.3a.394.394 0 0 0-.34-.459h-.007a.4.4 0 0 0-.3.084l-.261.207a.37.37 0 0 1-.408.033.37.37 0 0 0-.42.043l-.033.029a.43.43 0 0 1-.592-.028l-.072-.075a.5.5 0 0 0-.495-.134l-.055.016a.375.375 0 0 0 .006.723l.206.054a.16.16 0 0 1 0 .308l-.03.009a.197.197 0 0 0-.044.363l.138.075a.168.168 0 0 1 .042.262.168.168 0 0 0 .082.278c.304.076.608.153.903.23a.7.7 0 0 0 .502-.055c.305-.158.61-.326.914-.495a.9.9 0 0 0 .276-.243l.088-.121a.64.64 0 0 0 .016-.735l-.055-.083a.4.4 0 0 1-.06-.286Zm7.962 15.106-.316.042a.4.4 0 0 1-.101.001l-.247-.029a.131.131 0 0 0-.07.25l.352.158.082.03.098.028q.03.01.058.026l.086.055a.144.144 0 0 0 .214-.166l-.015-.045a.17.17 0 0 1 .001-.112l.018-.052a.141.141 0 0 0-.16-.186Zm-2.091-1.3a.1.1 0 0 1-.08.024.102.102 0 0 0-.11.128l.028.104.006.038.022.494a.124.124 0 0 0 .212.082l.02-.02a.11.11 0 0 1 .093-.03.11.11 0 0 0 .126-.101l.032-.402a.27.27 0 0 0-.043-.17l-.082-.127a.142.142 0 0 0-.211-.03zM9.064 10.998a.647.647 0 0 0 .828.524.64.64 0 0 0 .28-.18l.297-.328a.324.324 0 0 1 .551.13l.258.912.272.682q.021.052.032.105l.062.298a.278.278 0 0 0 .53.046l.05-.125a.27.27 0 0 1 .292-.164.27.27 0 0 0 .298-.182l.107-.333a1 1 0 0 0 .026-.118l.111-.854a.41.41 0 0 1 .214-.31.4.4 0 0 0 .187-.209l.104-.255a.71.71 0 0 0-.106-.714.7.7 0 0 1-.09-.142l-.024-.05a1.18 1.18 0 0 1-.078-.8l.047-.185c.076-.296.23-.566.446-.782l.354-.354.372-.437a.7.7 0 0 0 .162-.514.7.7 0 0 1 .091-.414l.11-.188a.7.7 0 0 1 .342-.295l.025-.01a.65.65 0 0 1 .662.108l.081.069a.373.373 0 0 1-.027.59l-.022.014a.4.4 0 0 0-.068.06l-.663.723a2 2 0 0 0-.203.262l-.164.252a1.13 1.13 0 0 0-.148.883l.044.173q.04.165.024.335l-.027.27a.51.51 0 0 0 .21.464l.019.013q.084.06.13.153a.416.416 0 0 0 .473.217l.207-.051a1 1 0 0 0 .109-.038l.394-.173q.164-.072.341-.086c.292-.022.56-.165.744-.393.25-.313.498-.62.735-.937a.54.54 0 0 0-.044-.694l-.076-.08a.55.55 0 0 1-.13-.53.55.55 0 0 0-.042-.405l-.053-.101a.84.84 0 0 1-.051-.652l.017-.053a.97.97 0 0 0-.024-.678l-.159-.384a.7.7 0 0 1 .012-.561.7.7 0 0 0-.102-.747l-.103-.12a.64.64 0 0 1-.15-.458l.012-.165a.39.39 0 0 1 .265-.342q.046-.015.087-.042l.263-.168a.37.37 0 0 0 .116-.507l-.088-.143a.21.21 0 0 1 .073-.288.208.208 0 0 0 .016-.35l-.562-.4a.65.65 0 0 0-.591-.084l-.166.057a.8.8 0 0 1-.313.04.78.78 0 0 0-.722.37l-.088.143a.63.63 0 0 1-.588.298.63.63 0 0 0-.373.086l-.318.19a1.8 1.8 0 0 0-.499.439 58 58 0 0 1-1.201 1.504q-.154.183-.262.398a108 108 0 0 1-1.282 2.505 2 2 0 0 1-.24.35l-.409.48a2 2 0 0 1-.363.332l-.554.394a1.1 1.1 0 0 0-.463.982l.096 1.314zm13.725 11.36a.13.13 0 0 0 .01-.084l-.09-.398a.126.126 0 0 1 .067-.14.126.126 0 0 0 .032-.202l-.006-.006a.1.1 0 0 0-.039-.027l-.088-.04a.24.24 0 0 1-.14-.245.2.2 0 0 0-.007-.092l-.004-.014a.3.3 0 0 0-.13-.175l-.084-.054a.58.58 0 0 0-.35-.09l-.024.002a.65.65 0 0 0-.285.087l-.109.065a.56.56 0 0 1-.373.069.6.6 0 0 0-.188 0l-.074.014a1 1 0 0 1-.486-.036l-.135-.045a1.6 1.6 0 0 1-.268-.118l-.174-.098a1.36 1.36 0 0 0-1.11-.096l-.06.02a1 1 0 0 0-.258.14l-.109.083a.6.6 0 0 1-.424.12l-.236-.026a.28.28 0 0 0-.292.175.28.28 0 0 1-.248.177l-.175.008a.43.43 0 0 0-.302.144l-.153.172a.187.187 0 0 0 .007.257.19.19 0 0 1 .035.215l-.023.047a.26.26 0 0 0 .057.307l.071.064q.053.049.085.112l.073.146c.07.14.215.23.372.23.087 0 .172.027.242.078l.142.1a.26.26 0 0 0 .202.044l.056-.011a.15.15 0 0 0 .11-.089.15.15 0 0 1 .148-.091l.16.01a.4.4 0 0 1 .22.087l.034.029c.105.087.24.13.376.117l.198-.018a.35.35 0 0 0 .217-.102l.004-.003a.35.35 0 0 1 .353-.084l.08.027a.04.04 0 0 0 .022.001l.036-.008c.038-.008.06.042.029.064a.036.036 0 0 0-.01.049l.035.055a.105.105 0 0 0 .163.018l.074-.074a.1.1 0 0 0 .032-.068l.008-.084a.066.066 0 0 1 .107-.044q.027.02.061.01l.227-.07a.4.4 0 0 1 .258.007.4.4 0 0 0 .14.025h.068q.153 0 .295-.058l.15-.062a.7.7 0 0 1 .257-.05 1 1 0 0 0 .123-.012l.278-.052a.4.4 0 0 0 .099-.033.37.37 0 0 1 .21-.037l.247.029a.17.17 0 0 1 .1.048l.03.03a.105.105 0 0 0 .167-.124l-.111-.208a.13.13 0 0 1-.002-.115Z" clip-rule="evenodd" mask="url(#a)"/></svg>