<svg xmlns="http://www.w3.org/2000/svg" width="24" height="24" fill="none" viewBox="0 0 24 24"><mask id="a" fill="#fff"><path d="M22.98 12.769a.17.17 0 0 0-.096-.106l-.04-.016a.26.26 0 0 1-.158-.228l-.005-.13a.46.46 0 0 0-.261-.398l-.11-.053a.66.66 0 0 1-.293-.276l-.096-.174-.049-.071a.494.494 0 0 1 .008-.632l.136-.16a.37.37 0 0 0 .087-.28l-.003-.034a.32.32 0 0 0-.244-.281.325.325 0 0 1-.244-.281l-.015-.14a.5.5 0 0 0-.022-.104l-.12-.376a.27.27 0 0 1 .03-.232l.09-.138a.132.132 0 0 0-.056-.19.13.13 0 0 1-.072-.157c.112-.391.225-.769.337-1.16a.6.6 0 0 0 .02-.196l-.015-.202a.334.334 0 0 0-.315-.308.33.33 0 0 1-.215-.094l-.356-.344a1 1 0 0 0-.508-.263 1 1 0 0 1-.318-.12l-.369-.216a.8.8 0 0 0-.259-.094l-.11-.018a.44.44 0 0 0-.28.047.44.44 0 0 1-.235.053l-.021-.002a.5.5 0 0 0-.39.149l-.163.162a.6.6 0 0 1-.275.158l-.262.068a.15.15 0 0 0-.107.109.15.15 0 0 1-.113.11l-.58.13a1.1 1.1 0 0 1-.424.013l-.303-.049a1 1 0 0 1-.518-.256l-.045-.042a.74.74 0 0 0-.307-.174l-.19-.053a.36.36 0 0 1-.247-.235l-.088-.265a.085.085 0 0 0-.107-.053.09.09 0 0 1-.09-.023l-.17-.181a.29.29 0 0 1-.041-.337l.022-.04a.22.22 0 0 0-.234-.323l-.026.005a.3.3 0 0 0-.114.053l-.533.43a.44.44 0 0 1-.368.087l-.07-.016a.8.8 0 0 1-.427-.255l-.018-.02a.7.7 0 0 1-.138-.254.7.7 0 0 0-.17-.289l-.031-.031a.5.5 0 0 0-.153-.103l-.064-.027a.39.39 0 0 1-.234-.402.4.4 0 0 0-.017-.167L11.8 3.25a.5.5 0 0 0-.192-.254l-.133-.09a.97.97 0 0 0-.615-.166l-.034.002c-.162.012-.32.06-.46.142l-.175.102a1 1 0 0 1-.63.125 1 1 0 0 0-.296.004l-.098.016a1.64 1.64 0 0 1-.813-.07l-.273-.096a2 2 0 0 1-.279-.122l-.393-.21a2 2 0 0 0-.988-.235l-.121.003a2 2 0 0 0-.586.102l-.15.05q-.226.075-.42.212l-.19.136a.97.97 0 0 1-.662.174l-.385-.039a.45.45 0 0 0-.46.272.45.45 0 0 1-.403.274l-.296.008a.7.7 0 0 0-.493.226l-.25.276a.3.3 0 0 0 .01.41.3.3 0 0 1 .056.344l-.045.09a.44.44 0 0 0 .09.514l.098.093a.6.6 0 0 1 .135.186l.105.225a.62.62 0 0 0 .588.36.62.62 0 0 1 .373.107l.225.153c.1.068.223.091.341.065l.08-.018a.27.27 0 0 0 .188-.151.27.27 0 0 1 .257-.158l.23.009a.6.6 0 0 1 .366.137l.047.037a.8.8 0 0 0 .582.174l.32-.033a.58.58 0 0 0 .36-.177.58.58 0 0 1 .594-.153l.11.035a.1.1 0 0 0 .058.003l.057-.01a.098.098 0 0 1 .093.158.1.1 0 0 0-.006.117l.09.135c.056.084.068.19.033.286l-.035.093a.5.5 0 0 0-.031.222l.034.414a.1.1 0 0 1-.01.041l-.24.406a1 1 0 0 0-.06.125l-.17.475a.02.02 0 0 1-.016.01.02.02 0 0 0-.015.01l-.068.136a.3.3 0 0 0-.022.064l-.093.444a.4.4 0 0 1-.034.098l-.118.237a.04.04 0 0 0 .007.044.04.04 0 0 1 .003.052l-.126.157a.3.3 0 0 1-.068.06l-.058.036a.66.66 0 0 1-.41.094l-.16-.016a.5.5 0 0 1-.116-.025l-.333-.11a.096.096 0 0 0-.112.04.096.096 0 0 1-.17-.008l-.045-.099a.15.15 0 0 0-.106-.085l-.227-.05a.6.6 0 0 0-.193-.012l-.159.014a.75.75 0 0 0-.406.166 1 1 0 0 1-.14.09l-.012.007a.92.92 0 0 1-.722.037c-.277-.1-.563-.194-.844-.288a1 1 0 0 0-.358-.052l-.36.01a.38.38 0 0 0-.311.183l-.017.029a.3.3 0 0 0-.026.262.3.3 0 0 1 0 .21l-.04.109a.62.62 0 0 0-.006.412l.051.154q.056.167.056.343v4.405H7.75a.077.077 0 0 0 .05-.136l-.494-.412a.45.45 0 0 1-.162-.345v-.136q0-.05.036-.086a.12.12 0 0 0 .012-.159l-.398-.535a1 1 0 0 1-.081-.133l-.142-.282-.22-.353-.44-.99-.317-.594a1 1 0 0 1-.061-.14l-.207-.584a.044.044 0 0 1 .082-.032l.334.779q.036.086.098.156c.099.113.19.22.287.33a.143.143 0 0 0 .238-.033l.098-.21q.042-.091.069-.188l.101-.373.012-.028.105-.18a.034.034 0 0 1 .062.025l-.05.197a1 1 0 0 0-.02.12l-.014.14-.007.039-.034.137c-.025.1.05.196.152.196.053 0 .102.027.132.07.18.272.348.532.527.803q.065.096.114.2l.124.26q.047.098.134.164a.44.44 0 0 1 .136.167l.08.173a.2.2 0 0 1 .017.119.2.2 0 0 0 .023.132l.066.118c.063.112.161.2.28.25l.023.01a.7.7 0 0 1 .185.12l.042.039a1 1 0 0 1 .223.299l.132.273c.076.157.11.33.1.503q-.007.11.01.219l.005.032c.03.183.097.358.198.513l.128.195a.55.55 0 0 0 .25.207.55.55 0 0 1 .187.13l.11.116c.136.143.238.315.297.503l.01.033q.054.166.144.316l.157.256q.06.1.154.173l.085.065c.07.053.117.13.132.217.013.07.047.136.098.186l.016.016a.4.4 0 0 1 .11.196l.026.1q.012.051.017.104l.013.155a.2.2 0 0 1-.024.104.17.17 0 0 0-.02.132l.037.149a.045.045 0 0 1-.034.055.045.045 0 0 0-.03.068l.104.162q.015.025.023.053l.089.357q.014.055.04.106c.04.082.059.174.053.265l-.006.082a.45.45 0 0 0 .422.476l.025.002a.36.36 0 0 0 .183-.038l.011-.006a.3.3 0 0 1 .166-.032l.091.007a.17.17 0 0 0 .162-.086.17.17 0 0 1 .1-.08l.023-.005a.23.23 0 0 0 .11-.07l.021-.026q.066-.076.164-.105l.013-.004a.4.4 0 0 1 .088-.014l.28-.013a1.3 1.3 0 0 0 .313-.052l.106-.032a.7.7 0 0 0 .212-.105l.15-.11a.24.24 0 0 1 .185-.044q.03.005.062.003l.04-.004a.56.56 0 0 0 .303-.125l.18-.148c.128-.106.277-.187.436-.238l.662-.21.425-.18a.27.27 0 0 0 .165-.221.3.3 0 0 1 .02-.075l.011-.03a.5.5 0 0 1 .286-.273l.142-.052q.074-.027.152-.04l.057-.01a.8.8 0 0 0 .245-.083l.126-.066a.4.4 0 0 1 .28-.04l.023.006a.35.35 0 0 0 .257-.044l.06-.037a.23.23 0 0 0 .107-.191c0-.073.036-.142.096-.184l.041-.03a.32.32 0 0 1 .185-.057h.14a.27.27 0 0 0 .26-.207l.01-.043a.42.42 0 0 1 .186-.26l.127-.08a.3.3 0 0 1 .17-.049h.127a.085.085 0 0 0 .084-.1l-.037-.218a.65.65 0 0 1 .017-.285l.035-.125a.3.3 0 0 1 .038-.079l.014-.018a.22.22 0 0 1 .193-.09.22.22 0 0 0 .208-.114l.103-.194a.6.6 0 0 1 .137-.169l.032-.026a.8.8 0 0 0 .2-.243c.066-.119.14-.237.213-.356a.128.128 0 0 0-.072-.19l-.06-.019a.2.2 0 0 1-.11-.077l-.173-.226a1.1 1.1 0 0 0-.523-.374l-.011-.004-.227-.048a.94.94 0 0 1-.598-.415l-.07-.113a.9.9 0 0 1-.127-.327l-.043-.247a.23.23 0 0 1 .03-.156.2.2 0 0 0 .029-.08l.034-.205a.052.052 0 0 0-.092-.041l-.126.157c-.232.26-.482.503-.728.75-.282.285-.674.45-1.074.429l-.128-.008a.4.4 0 0 0-.103.006l-.302.06a.08.08 0 0 1-.098-.07l-.003-.024a.06.06 0 0 0-.071-.052.06.06 0 0 1-.067-.034l-.053-.117a.22.22 0 0 1-.008-.166l.064-.18a.7.7 0 0 0 .039-.226v-.167a.24.24 0 0 0-.061-.16l-.043-.048a.152.152 0 0 0-.251.037l-.119.254a.1.1 0 0 0-.008.05l.025.263c.004.04-.05.057-.07.022l-.003-.006-.03-.088a.6.6 0 0 0-.109-.192l-.016-.019a.45.45 0 0 1-.092-.165v-.003a.43.43 0 0 1 0-.249l.001-.006a.4.4 0 0 0-.162-.45l-.16-.108a.35.35 0 0 1-.132-.162.35.35 0 0 0-.16-.18l-.028-.014a.45.45 0 0 1-.205-.233c-.108-.277-.223-.554-.314-.83a.25.25 0 0 1-.002-.146l.008-.03a.16.16 0 0 0-.005-.102.16.16 0 0 1 .159-.219.16.16 0 0 0 .133-.057l.03-.035a.25.25 0 0 1 .322-.052l.072.045a.24.24 0 0 0 .204.022c.114-.04.24.012.293.121l.326.688.179.295c.126.208.323.363.555.437q.192.061.345.191l.236.2a1.18 1.18 0 0 0 1.327.139l.024-.013q.11-.06.23-.09l.204-.05a.36.36 0 0 1 .43.24l.053.167c.085.272.319.47.6.508l.178.025c.41.094.81.178 1.213.25.276.05.543-.12.625-.389a.56.56 0 0 1 .328-.36l.425-.171a.166.166 0 0 0 .097-.202"/></mask><path stroke="currentcolor" stroke-width="1.2" d="M22.98 12.769a.17.17 0 0 0-.096-.106l-.04-.016a.26.26 0 0 1-.158-.228l-.005-.13a.46.46 0 0 0-.261-.398l-.11-.053a.66.66 0 0 1-.293-.276l-.096-.174-.049-.071a.494.494 0 0 1 .008-.632l.136-.16a.37.37 0 0 0 .087-.28l-.003-.034a.32.32 0 0 0-.244-.281.325.325 0 0 1-.244-.281l-.015-.14a.5.5 0 0 0-.022-.104l-.12-.376a.27.27 0 0 1 .03-.232l.09-.138a.132.132 0 0 0-.056-.19.13.13 0 0 1-.072-.157c.112-.391.225-.769.337-1.16a.6.6 0 0 0 .02-.196l-.015-.202a.334.334 0 0 0-.315-.308.33.33 0 0 1-.215-.094l-.356-.344a1 1 0 0 0-.508-.263 1 1 0 0 1-.318-.12l-.369-.216a.8.8 0 0 0-.259-.094l-.11-.018a.44.44 0 0 0-.28.047.44.44 0 0 1-.235.053l-.021-.002a.5.5 0 0 0-.39.149l-.163.162a.6.6 0 0 1-.275.158l-.262.068a.15.15 0 0 0-.107.109.15.15 0 0 1-.113.11l-.58.13a1.1 1.1 0 0 1-.424.013l-.303-.049a1 1 0 0 1-.518-.256l-.045-.042a.74.74 0 0 0-.307-.174l-.19-.053a.36.36 0 0 1-.247-.235l-.088-.265a.085.085 0 0 0-.107-.053.09.09 0 0 1-.09-.023l-.17-.181a.29.29 0 0 1-.041-.337l.022-.04a.22.22 0 0 0-.234-.323l-.026.005a.3.3 0 0 0-.114.053l-.533.43a.44.44 0 0 1-.368.087l-.07-.016a.8.8 0 0 1-.427-.255l-.018-.02a.7.7 0 0 1-.138-.254.7.7 0 0 0-.17-.289l-.031-.031a.5.5 0 0 0-.153-.103l-.064-.027a.39.39 0 0 1-.234-.402.4.4 0 0 0-.017-.167L11.8 3.25a.5.5 0 0 0-.192-.254l-.133-.09a.97.97 0 0 0-.615-.166l-.034.002c-.162.012-.32.06-.46.142l-.175.102a1 1 0 0 1-.63.125 1 1 0 0 0-.296.004l-.098.016a1.64 1.64 0 0 1-.813-.07l-.273-.096a2 2 0 0 1-.279-.122l-.393-.21a2 2 0 0 0-.988-.235l-.121.003a2 2 0 0 0-.586.102l-.15.05q-.226.075-.42.212l-.19.136a.97.97 0 0 1-.662.174l-.385-.039a.45.45 0 0 0-.46.272.45.45 0 0 1-.403.274l-.296.008a.7.7 0 0 0-.493.226l-.25.276a.3.3 0 0 0 .01.41.3.3 0 0 1 .056.344l-.045.09a.44.44 0 0 0 .09.514l.098.093a.6.6 0 0 1 .135.186l.105.225a.62.62 0 0 0 .588.36.62.62 0 0 1 .373.107l.225.153c.1.068.223.091.341.065l.08-.018a.27.27 0 0 0 .188-.151.27.27 0 0 1 .257-.158l.23.009a.6.6 0 0 1 .366.137l.047.037a.8.8 0 0 0 .582.174l.32-.033a.58.58 0 0 0 .36-.177.58.58 0 0 1 .594-.153l.11.035a.1.1 0 0 0 .058.003l.057-.01a.098.098 0 0 1 .093.158.1.1 0 0 0-.006.117l.09.135c.056.084.068.19.033.286l-.035.093a.5.5 0 0 0-.031.222l.034.414a.1.1 0 0 1-.01.041l-.24.406a1 1 0 0 0-.06.125l-.17.475a.02.02 0 0 1-.016.01.02.02 0 0 0-.015.01l-.068.136a.3.3 0 0 0-.022.064l-.093.444a.4.4 0 0 1-.034.098l-.118.237a.04.04 0 0 0 .007.044.04.04 0 0 1 .003.052l-.126.157a.3.3 0 0 1-.068.06l-.058.036a.66.66 0 0 1-.41.094l-.16-.016a.5.5 0 0 1-.116-.025l-.333-.11a.096.096 0 0 0-.112.04.096.096 0 0 1-.17-.008l-.045-.099a.15.15 0 0 0-.106-.085l-.227-.05a.6.6 0 0 0-.193-.012l-.159.014a.75.75 0 0 0-.406.166 1 1 0 0 1-.14.09l-.012.007a.92.92 0 0 1-.722.037c-.277-.1-.563-.194-.844-.288a1 1 0 0 0-.358-.052l-.36.01a.38.38 0 0 0-.311.183l-.017.029a.3.3 0 0 0-.026.262.3.3 0 0 1 0 .21l-.04.109a.62.62 0 0 0-.006.412l.051.154q.056.167.056.343v4.405H7.75a.077.077 0 0 0 .05-.136l-.494-.412a.45.45 0 0 1-.162-.345v-.136q0-.05.036-.086a.12.12 0 0 0 .012-.159l-.398-.535a1 1 0 0 1-.081-.133l-.142-.282-.22-.353-.44-.99-.317-.594a1 1 0 0 1-.061-.14l-.207-.584a.044.044 0 0 1 .082-.032l.334.779q.036.086.098.156c.099.113.19.22.287.33a.143.143 0 0 0 .238-.033l.098-.21q.042-.091.069-.188l.101-.373.012-.028.105-.18a.034.034 0 0 1 .062.025l-.05.197a1 1 0 0 0-.02.12l-.014.14-.007.039-.034.137c-.025.1.05.196.152.196.053 0 .102.027.132.07.18.272.348.532.527.803q.065.096.114.2l.124.26q.047.098.134.164a.44.44 0 0 1 .136.167l.08.173a.2.2 0 0 1 .017.119.2.2 0 0 0 .023.132l.066.118c.063.112.161.2.28.25l.023.01a.7.7 0 0 1 .185.12l.042.039a1 1 0 0 1 .223.299l.132.273c.076.157.11.33.1.503q-.007.11.01.219l.005.032c.03.183.097.358.198.513l.128.195a.55.55 0 0 0 .25.207.55.55 0 0 1 .187.13l.11.116c.136.143.238.315.297.503l.01.033q.054.166.144.316l.157.256q.06.1.154.173l.085.065c.07.053.117.13.132.217.013.07.047.136.098.186l.016.016a.4.4 0 0 1 .11.196l.026.1q.012.051.017.104l.013.155a.2.2 0 0 1-.024.104.17.17 0 0 0-.02.132l.037.149a.045.045 0 0 1-.034.055.045.045 0 0 0-.03.068l.104.162q.015.025.023.053l.089.357q.014.055.04.106c.04.082.059.174.053.265l-.006.082a.45.45 0 0 0 .422.476l.025.002a.36.36 0 0 0 .183-.038l.011-.006a.3.3 0 0 1 .166-.032l.091.007a.17.17 0 0 0 .162-.086.17.17 0 0 1 .1-.08l.023-.005a.23.23 0 0 0 .11-.07l.021-.026q.066-.076.164-.105l.013-.004a.4.4 0 0 1 .088-.014l.28-.013a1.3 1.3 0 0 0 .313-.052l.106-.032a.7.7 0 0 0 .212-.105l.15-.11a.24.24 0 0 1 .185-.044q.03.005.062.003l.04-.004a.56.56 0 0 0 .303-.125l.18-.148c.128-.106.277-.187.436-.238l.662-.21.425-.18a.27.27 0 0 0 .165-.221.3.3 0 0 1 .02-.075l.011-.03a.5.5 0 0 1 .286-.273l.142-.052q.074-.027.152-.04l.057-.01a.8.8 0 0 0 .245-.083l.126-.066a.4.4 0 0 1 .28-.04l.023.006a.35.35 0 0 0 .257-.044l.06-.037a.23.23 0 0 0 .107-.191c0-.073.036-.142.096-.184l.041-.03a.32.32 0 0 1 .185-.057h.14a.27.27 0 0 0 .26-.207l.01-.043a.42.42 0 0 1 .186-.26l.127-.08a.3.3 0 0 1 .17-.049h.127a.085.085 0 0 0 .084-.1l-.037-.218a.65.65 0 0 1 .017-.285l.035-.125a.3.3 0 0 1 .038-.079l.014-.018a.22.22 0 0 1 .193-.09.22.22 0 0 0 .208-.114l.103-.194a.6.6 0 0 1 .137-.169l.032-.026a.8.8 0 0 0 .2-.243c.066-.119.14-.237.213-.356a.128.128 0 0 0-.072-.19l-.06-.019a.2.2 0 0 1-.11-.077l-.173-.226a1.1 1.1 0 0 0-.523-.374l-.011-.004-.227-.048a.94.94 0 0 1-.598-.415l-.07-.113a.9.9 0 0 1-.127-.327l-.043-.247a.23.23 0 0 1 .03-.156.2.2 0 0 0 .029-.08l.034-.205a.052.052 0 0 0-.092-.041l-.126.157c-.232.26-.482.503-.728.75-.282.285-.674.45-1.074.429l-.128-.008a.4.4 0 0 0-.103.006l-.302.06a.08.08 0 0 1-.098-.07l-.003-.024a.06.06 0 0 0-.071-.052.06.06 0 0 1-.067-.034l-.053-.117a.22.22 0 0 1-.008-.166l.064-.18a.7.7 0 0 0 .039-.226v-.167a.24.24 0 0 0-.061-.16l-.043-.048a.152.152 0 0 0-.251.037l-.119.254a.1.1 0 0 0-.008.05l.025.263c.004.04-.05.057-.07.022l-.003-.006-.03-.088a.6.6 0 0 0-.109-.192l-.016-.019a.45.45 0 0 1-.092-.165v-.003a.43.43 0 0 1 0-.249l.001-.006a.4.4 0 0 0-.162-.45l-.16-.108a.35.35 0 0 1-.132-.162.35.35 0 0 0-.16-.18l-.028-.014a.45.45 0 0 1-.205-.233c-.108-.277-.223-.554-.314-.83a.25.25 0 0 1-.002-.146l.008-.03a.16.16 0 0 0-.005-.102.16.16 0 0 1 .159-.219.16.16 0 0 0 .133-.057l.03-.035a.25.25 0 0 1 .322-.052l.072.045a.24.24 0 0 0 .204.022c.114-.04.24.012.293.121l.326.688.179.295c.126.208.323.363.555.437q.192.061.345.191l.236.2a1.18 1.18 0 0 0 1.327.139l.024-.013q.11-.06.23-.09l.204-.05a.36.36 0 0 1 .43.24l.053.167c.085.272.319.47.6.508l.178.025c.41.094.81.178 1.213.25.276.05.543-.12.625-.389a.56.56 0 0 1 .328-.36l.425-.171a.166.166 0 0 0 .097-.202Z" mask="url(#a)"/></svg>