<svg xmlns="http://www.w3.org/2000/svg" width="24" height="24" fill="none" viewBox="0 0 24 24"><mask id="a" fill="#fff"><path d="M14.578 16.725c-.103 0-.206.072-.36.116-.149.042-.305.007-.452-.042l-.182-.06a.3.3 0 0 0-.08-.014h-.028a.227.227 0 0 0-.188.352l.175.263c.053.08.082.175.082.27 0 .097.028.191.082.271l.05.075a.55.55 0 0 0 .458.245.28.28 0 0 0 .23-.123l.174-.261a.057.057 0 0 1 .088-.01.057.057 0 0 0 .098-.04v-.239q.001-.065.046-.11l.028-.029a.25.25 0 0 0 .074-.178v-.19a.295.295 0 0 0-.295-.296m7.266 1.313a.2.2 0 0 0-.042.03l-.078.078c-.073.074-.25.028-.294-.066-.038-.078-.144-.132-.222-.093l-.044.023a.15.15 0 0 0-.082.131v.086c0 .076-.03.149-.084.202l-.01.01a.3.3 0 0 0-.077.126l-.05.15a1 1 0 0 1-.24.386l-.13.13c-.112.112-.31.225-.463.337-.088.065-.176.13-.274.18a1 1 0 0 0-.265.19l-.278.278a1.2 1.2 0 0 0-.283.458l-.053.161a.127.127 0 0 0 .12.167h.231a.4.4 0 0 1 .16.038l.076.038a.7.7 0 0 0 .305.072c.18 0 .35-.077.487-.193q.048-.04.102-.08c.174-.126.335-.274.431-.466l.117-.233a1 1 0 0 0 .052-.126l.06-.179a.5.5 0 0 1 .254-.293l.074-.037a.2.2 0 0 1 .07-.017h.006a.156.156 0 0 0 .14-.225.16.16 0 0 1 0-.14l.076-.153a.7.7 0 0 1 .09-.132c.13-.16.26-.419.39-.678a.182.182 0 0 0-.265-.163zm1.526-1.759a.27.27 0 0 1-.239.148h-.069a.4.4 0 0 1-.12-.02l-.117-.039a.39.39 0 0 1-.267-.37v-.131a.07.07 0 0 0-.021-.052l-.05-.05a.044.044 0 0 0-.076.03c0 .048-.064.063-.085.02l-.206-.412-.008-.02-.04-.12a.8.8 0 0 0-.4-.46l-.278-.14a.08.08 0 0 0-.107.107l.09.18.273.41a.4.4 0 0 0 .051.062l.053.053c.042.042.066.1.066.16q0 .053.024.102l.05.1a.7.7 0 0 1 .074.312v.408a.27.27 0 0 1-.148.239l-.087.043a.11.11 0 0 0 .015.203l.237.08a.33.33 0 0 1 .171.498l-.111.167a.17.17 0 0 0 .02.214.17.17 0 0 1 .05.12v.077c.192-.096.345-.253.446-.442a3 3 0 0 1 .198-.33.45.45 0 0 0 .094-.261v-.044a.25.25 0 0 1 .252-.252h.014a.29.29 0 0 0 .256-.158l.059-.116.017-.042.108-.325a.074.074 0 0 0-.136-.056zm-6.401-6.403a.32.32 0 0 1-.177-.286v-.036a.4.4 0 0 0-.02-.12l-.04-.122a1.2 1.2 0 0 0-.283-.458l-.1-.1-.35-.35a.3.3 0 0 1-.093-.222v-.209a.104.104 0 0 0-.104-.104.1.1 0 0 1-.074-.03l-.06-.061a.08.08 0 0 0-.113 0 .08.08 0 0 1-.132-.031l-.088-.264a.25.25 0 0 0-.061-.099l-.201-.2a.18.18 0 0 1-.052-.127.16.16 0 0 0-.055-.123c-.12-.1-.294-.2-.427-.301-.076-.057-.148-.119-.227-.171l-.18-.12a.66.66 0 0 1-.223-.253l-.003-.007a.6.6 0 0 1-.066-.28v-.056q0-.091-.04-.173l-.083-.163a.09.09 0 0 0-.081-.05c-.05 0-.092-.041-.103-.09-.036-.157-.136-.379-.136-.5a.36.36 0 0 0-.104-.253l-.043-.043-.076-.075a.14.14 0 0 0-.163-.027.14.14 0 0 1-.204-.126v-.553a.25.25 0 0 0-.074-.178l-.043-.043a.1.1 0 0 1-.03-.074v-.03a.074.074 0 0 0-.075-.075.074.074 0 0 1-.074-.073v-.16a.148.148 0 1 0-.295 0v.032q0 .053-.024.102l-.123.247-.124.247a.2.2 0 0 0-.024.102c0 .06-.024.118-.066.16l-.008.008a.25.25 0 0 0-.073.178v.633a.6.6 0 0 1-.066.28l-.034.067a.45.45 0 0 0-.048.203v.038a.36.36 0 0 1-.106.256.4.4 0 0 0-.068.095l-.056.11a.44.44 0 0 1-.197.198l-.011.006a.4.4 0 0 1-.314.022l-.192-.064a.13.13 0 0 1-.09-.124.13.13 0 0 0-.037-.091l-.058-.058a.18.18 0 0 0-.126-.052.18.18 0 0 1-.126-.052l-.243-.243-.022-.022a.43.43 0 0 1-.125-.303v-.1a.27.27 0 0 0-.148-.24l-.068-.034a.143.143 0 0 1-.038-.229l.106-.105.117-.117q.03-.032.03-.074c0-.058.047-.105.105-.105a.1.1 0 0 0 .074-.03l.08-.081a.316.316 0 0 0-.047-.486l-.142-.095a.27.27 0 0 0-.275-.017l-.037.019a.45.45 0 0 1-.4 0l-.03-.015a.3.3 0 0 0-.14-.033.3.3 0 0 1-.139-.033l-.136-.068a.6.6 0 0 1-.167-.12.6.6 0 0 0-.167-.12l-.195-.098-.015-.003c-.035 0-.046.047-.014.062l.132.066a.07.07 0 0 1 .038.061v.032a.12.12 0 0 1-.066.107l-.164.081a.3.3 0 0 1-.14.033.3.3 0 0 0-.14.033l-.056.029a.58.58 0 0 0-.259.259l-.037.074a.2.2 0 0 0-.024.102c0 .06-.024.118-.066.16l-.04.04a.4.4 0 0 0-.068.094l-.086.173a.16.16 0 0 0 0 .14.156.156 0 0 1-.14.225H7.05a.7.7 0 0 1-.504-.209l-.003-.003a.7.7 0 0 0-.188-.136l-.11-.055c-.053-.026-.112-.043-.169-.025-.094.03-.187.096-.281.122-.04.01-.073.044-.073.084s-.033.074-.074.074a.074.074 0 0 0-.074.074c0 .04-.033.074-.074.074h-.277q-.092 0-.173.04l-.16.08a.1.1 0 0 0-.054.088v.087a.061.061 0 0 1-.104.043.06.06 0 0 0-.087 0l-.03.03a.104.104 0 0 0 0 .148l.017.018a.08.08 0 1 1-.132.081l-.033-.099a.144.144 0 0 0-.239-.056l-.07.07a.2.2 0 0 0-.06.145v.144a.35.35 0 0 1-.192.31.35.35 0 0 0-.155.155l-.022.044a.5.5 0 0 1-.221.222l-.096.047a1 1 0 0 1-.107.045l-.108.036a1.8 1.8 0 0 1-.575.093h-.074a.074.074 0 0 0-.073.074c0 .04-.033.074-.074.074h-.165a.24.24 0 0 0-.107.025l-.113.056a.6.6 0 0 1-.28.066.6.6 0 0 0-.279.066l-.07.035a.64.64 0 0 0-.287.288l-.249.497-.082.163c-.016.033-.066.021-.066-.016 0-.036-.05-.048-.066-.015l-.073.147a.1.1 0 0 0-.008.033v.469a.25.25 0 0 1-.074.178.25.25 0 0 0-.074.178v.087c0 .067.027.13.074.178l.007.007c.043.043.067.1.067.16q0 .054.024.102l.112.224a.1.1 0 0 1 .011.05v.06a.086.086 0 0 1-.147.061c-.037-.037-.098.001-.082.05l.04.12c.01.03-.029.055-.052.031a.031.031 0 0 0-.054.023v.05q0 .021.015.037l.176.175a.36.36 0 0 1 .104.252v.043c0 .067.027.131.074.179l.008.007c.042.043.066.1.066.16q0 .054.024.102l.05.1a.7.7 0 0 1 .074.312v.192q0 .233.073.455.075.222.074.455v.578a.074.074 0 0 1-.074.074.074.074 0 0 0-.072.075v.108c0 .07.039.133.1.164l.195.097.235.157c.135.09.294.138.457.138h.132a.5.5 0 0 0 .357-.147l.095-.096a.18.18 0 0 1 .126-.052.18.18 0 0 0 .126-.052l.095-.096a.5.5 0 0 1 .357-.147h.216c.109 0 .216.025.313.074a.7.7 0 0 0 .313.073h.275a.36.36 0 0 0 .324-.2l.022-.044a.67.67 0 0 1 .298-.298l.096-.048.236-.157a.8.8 0 0 1 .456-.138 1 1 0 0 0 .37-.081c.277-.116.616-.215.857-.215h.472c.174 0 .343.052.488.148l.083.056c.09.06.196.092.304.092h.033q.096 0 .182.043l.396.198a.088.088 0 0 1 .023.14.087.087 0 0 0 0 .123l.086.086.211.211a.3.3 0 0 1 .084.203v.061a.186.186 0 0 0 .363.06l.04-.123a.3.3 0 0 1 .15-.172l.15-.075a.15.15 0 0 0 .057-.05l.12-.18a.083.083 0 0 1 .144.083l-.072.145a.6.6 0 0 0-.067.28v.123a.1.1 0 0 1-.01.046l-.004.008a.099.099 0 0 0 .177.089l.003-.007a.12.12 0 0 1 .221.016l.035.104c.014.04.01.085-.009.124a.162.162 0 0 0 .145.235h.09c.058 0 .114.023.154.064l.043.042q.041.043.067.094l.074.147a.5.5 0 0 1 .048.203c0 .12.048.236.133.32l.055.056a.65.65 0 0 0 .25.155l.12.04q.18.06.37.06h.105a.6.6 0 0 1 .225.06c.208.088.482.06.608-.129l.027-.04a.2.2 0 0 1 .067-.06l.063-.031a.132.132 0 0 1 .19.118c0 .05.029.096.074.118l.17.085a.4.4 0 0 1 .093.067c.14.14.368.14.508 0l.041-.04a.9.9 0 0 1 .346-.214l.074-.025q.171-.057.351-.057h.171q.092 0 .173-.04l.082-.041a.24.24 0 0 0 .132-.214q0-.296.093-.575l.01-.028a2 2 0 0 1 .108-.262l.02-.041a2 2 0 0 0 .109-.262l.058-.173q.045-.136.108-.262l.036-.072q.048-.096.082-.199l.048-.142a.9.9 0 0 1 .213-.346.9.9 0 0 0 .214-.345l.057-.173a1 1 0 0 1 .059-.14c.074-.15.113-.314.113-.481v-.041c0-.148.148-.443.148-.59v-.312a.8.8 0 0 0-.042-.256l-.064-.193a.32.32 0 0 0-.16-.185"/></mask><path fill="currentcolor" d="m20.492 19.231-.425-.424zm1.18-4.428.269-.537zm-.295.148-.536.268.016.033.021.031zM16.35 8.755l-.424.424zm-3.1-4.28.425-.425zM12.07 3.44l-.537-.268zm-2.068 1.92-.424.424zm-.295-1.033.424.424zM.851 7.574l.537.268zM.556 9.64l-.424.425zm.738 3.838.333-.5-.031-.02-.034-.017zm1.18.148.425.424zm2.657-.886.269.537.033-.017.031-.02zm3.986.295.424-.424zm5.313 2.51.425.424zm2.699-5.484-.57.19zm-.16-.185.268-.536zm.224.378.57-.19zm-.22 1.68.537.268zm-.058.14.57.19zm-.057.173-.57-.19zm-.427.69-.57-.189zm-.13.342.537.269zm.082-.199-.569-.19zm-.226.533.569.19zm-.058.173-.57-.19zm-.238.565.57.19zm.109-.262.537.268zm-.118.29-.57-.19zm-.307.83-.268-.537zm-.695.097.19.57zm-.074.025.19.569zm-.988.187-.268.537zm-.17-.085-.269.537zm-.264-.236-.269-.537zm-.13.09-.5-.332zm.067-.059.268.537zm-.702.228.236-.551zm.608-.128.499.333zm-1.309.009.19-.57zm-.37-.195-.424.424zm.252.155-.19.57zm-.306-.21.424-.424zm-.255-.671-.536.268zm-.499-.435.537.268zm.009-.124-.57.19zm-.035-.104.57-.19zm-.268.035-.269-.537zm.044-.044-.537-.269zm-.177-.089-.537-.268zm.004-.008-.537-.268zm.076-.449.537.269zm.073-.145.537.268zm-.144-.084.5.333zm-.12.18-.5-.332zm-.356.298-.57-.19zm-.301.23.268-.537zm.26-.108.57.19zm-.447-.323.424-.424zm-.32-.56-.268.536zm-.396-.198-.268.536zm-.602-.19-.333.498zm-1.817.066.233.553zM2.57 13.53l-.424-.424zM.925 10.97l-.537.268zm-.45-1.28-.57.19zm.217-.222.536-.268zM.58 9.245l-.537.269zm-.09-.262.424-.424zm-.008-.007L.058 9.4zm.082-1.123-.537-.268zm.073-.147.537.268zm.132.031-.536-.268zm.451-.827.424.424zm-.12.167.536.268zm.287-.288-.268-.537zm.07-.035-.268-.536zm.56-.132-.27-.536zm.112-.056.268.536zM3.197 6.3l.19.569zm.215-.08.268.536zm-.107.044.19.569zm.424-.314-.536-.268zm-.221.222-.268-.537zm.398-.421.269.537zm.561-.613-.569.19zm.165.13-.424-.424zm-.132-.03.57-.19zm.115-.247.424.424zm0 .147-.424.425zm.117-.178.424-.424zm-.087 0 .425.424zm.405-.297-.268-.537zm.745-.347.159.579zm.45-.097-.268.537zm.298.19.424-.424zm-.188-.135.268-.537zm.191.14-.424.423zm.687-.018.536-.268zm0-.14.536.27zm.154-.266-.424-.424zm-.068.094.537.268zm.108-.134.424.425zm.09-.262.537.269zm.037-.074-.536-.269zm.316-.288-.268-.536zm.28-.066.268.537zm.163-.081-.269-.537zm.028-.2-.268.537zm-.132-.066-.269.537zm.029-.059-.268.537zm.195.098-.268.536zm.334.24L8.5 3.73zm.136.068.268-.536zm.71.08.268.537zm-.402 0-.268.537zm.438-.018.269.537zm.275.017-.333.5zm.249.499-.537-.268zm-.107-.404-.333.5zm.048.486.424.424zm-.081.08-.424-.423zm-.209.21.424.424zm-.223.222.425.425zm.038.23.268-.537zm.858 1.045-.424.424zm.058.058-.425.424zm.127.215-.19.57zm.506.042-.269-.537zm-.314.022-.19.57zm.522-.225-.536-.269zm-.197.197.268.537zm.32-.403.425.425zm-.067.095-.537-.269zm.222-.592.537.269zm1.059-1.601-.424.424zm.278.857-.268-.537zm.282.145-.425.425zm.24.753.585-.132zm.184.14.537-.268zm.082.163-.537.269zm.107.51-.537.268zm.227.26.333-.5zm-.224-.254-.536.268zm.63.544.36-.48zm-.227-.171-.333.499zm.654.472.385-.46zm.107.25.424-.425zm.262.299-.57.19zm-.061-.099.424-.424zm.28.394-.424-.424zm-.131-.031-.57.19zm.245.03.424-.423zm.06.061.424-.424zm.27.566-.424.424zm.734.908.569-.19zm-.283-.458.424-.424zm.323.58-.569.19zm6.651 6.738.537.268zm.136.056.57.19zm-.125.367.536.268zm.017-.042-.57-.19zm-.076.158.537.269zm-.448.232.424.424zm-.168.482.486.352zm-.198.331.53.281zm-.495.245-.424.424zm-.021-.214.499.333zm.132-.5.537-.268zm-.02.333.498.333zm-.172-.499-.19.57zm-.237-.079.19-.569zm.146-1.206-.537.269zm-.05-.1-.537.269zm-.09-.261-.425.424zm.318-.211.57-.19zm.048.14-.536.268zm-.008-.02-.57.189zm.215.432-.537.268zm.16-.052-.425.425zm.05.05.424-.424zm.288.554.19-.57zm.118.04-.19.568zm.427-.129.537.268zm-1.519 1.756.269.536zm-.215.973.537.268zm.09-.132-.465-.38zm-.166.425.537-.269zm0-.14-.537-.268zm-.216.382-.269-.537zm-15.977-6.96.333.499zm15.649 7.29.569.19zm.254-.293.268.537zm-.366.598-.537-.268zm.052-.126-.569-.19zM5.035 12.788l.268.537zm15.321 8.09.352.485zm.431-.467-.536-.268zm-16.14-7.187-.424-.424zm.068-.094-.537-.268zm15.54 7.827.385.46zm-.793.121-.268.537zm-16.64-7.652.424.424zm16.932 6.322.268.536zm.868-.647-.424-.424zm.366-.662-.424-.424zm-.077.126.569.19zm.087-.136-.424-.424zm.166-.42.268.537zM1.099 13.381l-.268.536zm20.33 4.7-.54.26zm-.22-.094-.269-.536zm.515.16.425.423zM11.708 5.048l-.537-.268zm10.094 13.02-.425-.424zm.042-.03.268.536zM11.847 3.957l.425.424zm2.78 13.85-.424.424zM11.856 3.95l.424.425zm2.684 13.867-.5-.333zM11.945 3.688l.537.269zm2.42 14.39.499.333zM12.192 3.194l.537.268zM.875 10.869l-.537.268zm12.801 7.087.5-.333zM12.26 2.955l-.424-.424zM.785 10.607l-.425.424zm12.842 7.274.499-.333zm8.023-2.521-.499.333zm.051.062.424-.424zM12.468 2.955l.425-.424zM.778 10.6l.423-.425zm12.685 6.74-.5.333zM.599 10.126l.424-.424zm12.689 6.951-.5.333zm8-2.306.536-.269zM.422 9.95l.425-.425zM19.21 20.215l-.424-.424zm2.183-5.552.269-.537zM.462 9.84l-.424.425zm13.122 6.897-.19.57zM2.917 13.33l-.424-.424zm16.572 6.608.425.424zm-6.8-16.466-.424.424zM.515 9.809l.569-.19zm13.704 7.032.163.577zm.36-.116v-.6c-.18 0-.33.063-.386.085-.082.034-.102.043-.137.053l.163.578.163.577a2 2 0 0 0 .22-.078l.041-.017.02-.008a.3.3 0 0 1-.084.01zm-.812.074.19-.57-.182-.06-.19.57-.19.568.182.061zm-.262-.074v-.6h-.028v1.2h.027zm-.216.352-.5.333.176.263.499-.333.5-.332-.176-.263zm.339.804-.5.333.05.074.5-.332.498-.333-.05-.075zm.738.197.499.333.174-.262-.499-.332-.5-.333-.174.261zm.36-.31h.6v-.24h-1.2v.24zm.046-.35.425.424.028-.028-.425-.425-.424-.424-.028.028zm.102-.207h.6v-.19h-1.2v.19zm6.929.858-.425-.424-.077.077.424.424.425.424.077-.077zm-.594-.082-.268-.536-.045.022.269.537.268.536.045-.022zm-.126.155h-.6v.085h1.2v-.085zm-.084.287-.424-.424-.01.01.424.424.424.425.01-.01zm-.087.136-.57-.19-.05.15.57.19.569.19.05-.15zm-.29.536-.423-.424-.13.13.424.424.424.424.13-.13zm-.13.13-.424-.424c-.012.012-.047.04-.13.097-.062.042-.176.116-.264.18l.355.484.355.484c.066-.048.127-.086.23-.156.082-.056.203-.14.303-.24zm-1.001.707-.425-.424-.278.278.424.424.425.425.278-.279zm-.562.736-.569-.19-.054.161.57.19.569.19.053-.161zm.067.328v.6h.231v-1.2h-.23zm.392.038-.269.537.076.038.268-.537.269-.537-.076-.038zm.867-.083.386.46.068-.054-.352-.486-.352-.485q-.074.052-.136.105zm.533-.546.537.268.117-.233-.537-.268-.537-.268-.116.233zm.17-.36.568.19.06-.178-.57-.19-.569-.19-.059.18zm.313-.471.268.537.074-.037-.268-.537-.269-.537-.073.037zm.145-.054v.6h.005v-1.2h-.005zm.145-.365.537.269.076-.154-.537-.268-.536-.268-.077.153zm.167-.285.465.378c.181-.222.343-.553.46-.788l-.537-.268-.536-.268c-.142.284-.24.471-.318.567zm.124-.841-.268-.537-.008.004.269.537.268.536.008-.004zm1.28-1.608v-.6h-.069v1.2h.07zm-.188-.02.19-.569-.118-.04-.19.57-.19.57.118.038zm-.385-.41h.6v-.13h-1.2v.13zm-.021-.182.424-.425-.05-.05-.425.424-.424.425.05.05zm-.21 0 .536-.268-.206-.412-.537.268-.536.268.206.413zm-.215-.432.57-.19-.04-.119-.57.19-.57.19.04.119zm-.44-.58.269-.537-.278-.139-.269.537-.268.537.278.139zm-.385-.032-.536.268.09.18.536-.268.537-.269-.09-.18zm.09.18-.499.332.273.41.5-.333.498-.333-.272-.41zm.324.47-.424.425.052.053.425-.424.424-.425-.053-.052zm.143.316-.537.268.05.1.537-.269.537-.268-.05-.1zm.124.412h-.6v.13h1.2v-.13zm0 .13h-.6v.278h1.2v-.278zm-.148.517-.268-.537-.087.043.268.537.269.537.087-.044zm-.072.246-.19.57.237.078.19-.569.19-.569-.237-.079zm.408.578-.5-.333-.11.167.499.333.499.333.111-.167zm-.04.5h-.6v.078h1.2v-.078zm.445-.364.53.281q.092-.175.154-.26l-.486-.352-.486-.351c-.091.125-.173.27-.243.401zm.292-.591h.6v-.044h-1.2v.044zm.252-.296v.6h.014v-1.2h-.014zm.27-.158.537.269.058-.117-.536-.268-.537-.269-.058.117zm.076-.158.57.19.107-.325-.569-.19-.57-.19-.107.325zm-.028-.38-.536-.27-.054.108.537.268.537.268.053-.107zM16.792 9.59h.6v-.036h-1.2v.036zm-.02-.156.57-.19-.041-.121-.57.19-.568.189.04.122zm-.323-.58.424-.424-.1-.1-.424.425-.424.424.1.1zm-.1-.1.424-.424-.35-.35-.425.424-.424.424.35.35zm-.443-.572h.6v-.209h-1.2v.21zm-.178-.344.424-.424-.06-.06-.424.424-.425.424.06.06zm-.305-.091.569-.19-.088-.264-.57.19-.569.19.088.263zm-.15-.363.425-.424-.2-.201-.425.424-.424.424.2.201zm-.307-.45.385-.46a3 3 0 0 0-.26-.19 4 4 0 0 1-.191-.13l-.361.479-.36.48c.083.062.179.125.245.17.077.05.125.084.158.112zm-.654-.472.333-.5-.18-.119-.332.5-.333.499.179.119zm-.403-.373.537-.268-.003-.007-.537.268-.537.269.004.006zm-.07-.286h.6v-.057h-1.2v.057zm-.04-.23.537-.268-.082-.163-.537.268-.536.269.082.163zm-.266-.303.585-.132a2 2 0 0 0-.05-.179l-.046-.139-.026-.087c-.006-.023.001-.005.001.036h-1.2c0 .103.02.194.034.251.015.063.035.124.05.172.039.119.057.167.066.21zm-.24-.753.424-.424-.043-.043-.425.424-.424.424.043.044zm-.043-.043.424-.424-.076-.076-.424.425-.424.424.075.075zm-.443-.228h.6V4.03h-1.2v.215zm0-.215h.6v-.147h-1.2v.147zm0-.147h.6v-.191h-1.2v.19zm-.074-.37.424-.423-.043-.044-.424.425-.425.424.044.043zm-.074-.116h.6v-.03h-1.2v.03zm-.148-.178h.6v-.16h-1.2v.16zm-.295-.16h-.6v.032h1.2V3.06zm-.024.134-.536-.269-.124.248.537.268.536.268.124-.247zm-.123.247-.537-.268-.124.247.537.268.537.269.123-.248zm-.214.51-.425-.425-.007.007.424.425.425.424.007-.007zm-.082.185h-.6v.19h1.2v-.19zm0 .19h-.6v.296h1.2v-.295zm0 .296h-.6v.147h1.2v-.147zm-.066.427-.536-.268-.034.067.537.268.537.269.033-.068zm-.081.27h-.6v.038h1.2V5.32zm-.174.389-.537-.269-.055.111.537.269.536.268.056-.111zm-.253.308-.268-.537-.011.006.268.537.268.536.011-.005zm-.325.028.19-.57-.193-.063-.19.569-.19.57.193.063zm-.32-.28.425-.424-.057-.057-.425.424-.424.424.057.058zm-.309-.161.425-.424-.243-.243-.425.424-.424.424.243.243zm-.243-.243.425-.424-.022-.022-.425.424-.424.424.022.022zm-.147-.325h.6v-.1h-1.2v.1zm-.148-.34.268-.536-.068-.034-.268.536-.269.537.069.034zm-.106-.263.425.425.105-.106-.424-.424-.424-.425-.106.106zm.106-.105.424.424.117-.117-.424-.424-.424-.425-.117.117zM10.033 4l.424.424.08-.08-.423-.425-.425-.424-.08.08zm.033-.567.332-.5-.141-.094-.333.5-.333.499.142.094zm-.417-.112-.268-.536-.037.018.268.537.269.536.037-.018zm-.438.019.269-.537-.029-.014-.268.536-.269.537.029.014zm-.308-.08.268-.537-.135-.068-.269.536-.268.537.136.068zm-.47-.31.268-.536-.195-.098-.268.537-.268.537.195.097zm-.224-.038-.269.537.133.066.268-.537.268-.536-.132-.067zm.17.127h-.6v.032h1.2V3.04zm-.066.139-.269-.537-.163.082.268.536.269.537.163-.082zm-.443.147-.268-.536-.057.028.268.537.269.536.056-.028zm-.316.288-.536-.269-.038.075.537.268.537.269.037-.075zm-.127.336-.425-.424-.04.04.425.424.424.424.04-.04zm-.108.134-.536-.268-.087.173.537.268.536.268.087-.173zm-.226.538v-.6H7.05v1.2h.043zm-.547-.209.425-.424-.004-.004-.424.425-.424.424.003.003zm-.191-.139.268-.537-.11-.054-.268.536-.268.537.11.055zm-.279-.08-.182-.571a1 1 0 0 0-.139.054l-.088.043-.042.02.01-.003.16.579.159.579c.112-.031.21-.082.25-.102l.055-.027zm-.576.428v-.6h-.073v1.2H5.5zm-.073 0v-.6h-.204v1.2h.204zm-.377.04-.268-.536-.16.08.268.536.268.537.16-.08zm-.214.168h-.6v.087h1.2V4.83zm-.19.13-.425-.424-.03.03.424.425.424.424.03-.03zm-.031.178-.424.425.017.017.424-.424.425-.424-.018-.018zm-.115.1.57-.19-.034-.1-.569.19-.569.19.033.1zm-.272-.156-.424-.424-.07.07.424.424.425.424.07-.07zm-.13.215h-.6v.143h1.2v-.142zm-.347.609-.536-.268-.022.044.536.268.537.269.022-.045zm-.243.266-.268-.537-.096.048.268.536.268.537.096-.048zm-.203.092-.19-.57-.107.036.19.57.19.569.107-.036zm-.683.129v-.6h-.074v1.2h.074zm-.221.148v-.6h-.165v1.2H2.4zm-.272.025-.268-.537-.113.057.268.536.269.537.112-.057zm-.672.188-.268-.536-.07.034.268.537.268.537.07-.035zm-.357.323-.537-.269-.249.498.537.268.537.268.248-.497zm-.249.497-.537-.268-.081.163.536.268.537.268.082-.163zm-.214.132-.536-.269-.074.148.537.268.536.269.074-.148zm-.081.18h-.6v.278h1.2v-.278zm0 .278h-.6v.191h1.2v-.19zm-.148.547h-.6v.087h1.2V8.71zm.074.265L.058 9.4l.007.008.424-.425.425-.424-.008-.007zm.098.27-.537.268.112.223.537-.268.536-.268-.112-.224zm.123.273h-.6v.06h1.2v-.06zm-.229.172-.569.19.04.118.569-.19.569-.19-.04-.118zm-.066.173h-.6v.05h1.2v-.05zm.015.087L0 10.375l.176.176.424-.425.424-.424-.175-.176zm.28.427h-.6v.043h1.2v-.043zm.074.222-.424.424.007.007.425-.424.424-.424-.008-.008zm.098.269-.537.268.05.1.537-.268.536-.269-.05-.1zm.124.412h-.6v.13h1.2v-.13zm0 .13h-.6v.062h1.2v-.062zm.147.972h-.6v.062h1.2v-.062zm0 .062h-.6v.295h1.2v-.295zm0 .295h-.6v.147h1.2v-.147zm0 .147h-.6v.074h1.2v-.074zM1 13.11H.4v.108h1.2v-.108zm.1.272-.268.536.194.098.269-.537.268-.537-.194-.097zm.195.097-.333.5.235.156.333-.5.333-.498-.235-.157zm.692.295v.6h.132v-1.2h-.132zm.489-.147.424.424.095-.096-.424-.424-.424-.424-.096.095zm.347-.2.424.424.096-.095-.425-.425-.424-.424-.095.095zm.452-.243v.6h.086v-1.2h-.086zm.086 0v.6h.13v-1.2h-.13zm.756.147v.6h.13v-1.2h-.13zm.13 0v.6h.145v-1.2h-.145zm.469-.2.537.268.022-.044-.537-.268-.537-.268-.022.044zm.32-.342.268.537.097-.048-.269-.537-.268-.537-.097.049zm.096-.048.333.5.236-.158-.333-.5-.333-.498-.235.157zm1.062-.376.233.553c.252-.106.503-.168.624-.168v-1.2c-.36 0-.787.135-1.089.262zm.857-.215v.6h.472v-1.2H7.05zm.96.148-.333.5.083.055.333-.5.333-.499-.084-.055zm.387.148v.6h.033v-1.2h-.033zm.215.043-.268.536.396.198.268-.536.269-.537-.397-.198zm.419.461-.424.425.085.085.425-.424.424-.424-.086-.086zm.086.086-.425.424.212.212.424-.425.424-.424-.211-.211zm.295.414h-.6v.061h1.2v-.061zm.363.12.57.19.04-.122-.57-.19-.569-.19-.04.123zm.19-.294.268.537.15-.075-.268-.537-.269-.536-.15.075zm.207-.125.5.333.12-.181-.5-.333-.499-.333-.12.18zm.264-.097-.536-.269-.073.146.537.268.536.269.073-.146zm-.139.425h-.6v.123h1.2v-.123zm-.01.169-.537-.268-.004.008.537.268.536.268.004-.008zm.173.097.536.268.004-.006-.537-.269-.537-.268-.003.006zm.224.009-.569.19.035.104.569-.19.57-.19-.035-.104zm.172.463v.6h.09v-1.2h-.09zm.243.064-.424.424.042.042.425-.424.424-.424-.042-.043zm.11.136-.536.268.073.147.537-.268.536-.269-.073-.146zm.255.67-.425.425.056.055.424-.424.424-.424-.055-.055zm.306.211-.19.57.119.039.19-.57.19-.569-.12-.04zm.489.1v.6h.105v-1.2h-.105zm.105 0v.6l-.047-.004-.007-.001a.2.2 0 0 1 .043.016l.236-.552.236-.551a1.2 1.2 0 0 0-.461-.108zm.833-.069.499.333.027-.04-.5-.333-.498-.333-.027.04zm.094-.1.268.537.063-.031-.268-.537-.269-.537-.062.032zm.327.205-.269.537.17.085.269-.537.268-.536-.17-.085zm.771.152.424.425.042-.041-.425-.425-.424-.424-.041.041zm.387-.254.19.569.073-.025-.19-.569-.19-.57-.073.025zm.425-.082v.6h.171v-1.2h-.17zm.344-.04.268.536.082-.04-.268-.537-.269-.537-.081.04zm.307-.83.57.19.009-.029-.57-.19-.569-.189-.01.028zm.118-.29.537.268.02-.04-.537-.27-.536-.268-.02.041zm.129-.303.57.19.057-.174-.57-.19-.569-.189-.057.173zm.166-.435.537.268.035-.071-.536-.269-.537-.268-.035.071zm.118-.27.57.189.047-.142-.57-.19-.569-.19-.047.143zm.475-.834.57.19.057-.173-.57-.19-.569-.19-.057.173zm.23-.794h.6v-.041h-1.2v.041zm0-.041h.6c0 .046-.01.063.001.024.009-.032.021-.07.041-.13.017-.051.041-.123.06-.193.017-.062.045-.172.045-.292h-1.2c0-.046.009-.064-.002-.024l-.041.13c-.017.051-.042.123-.06.193a1.1 1.1 0 0 0-.045.292zm.147-.59h.6v-.312h-1.2v.311zm-.042-.568.57-.19-.065-.193-.569.19-.57.19.065.192zm-.064-.193.57-.19a.92.92 0 0 0-.462-.531l-.268.536-.269.537a.28.28 0 0 1-.14-.162zm.106.449h.6a1.4 1.4 0 0 0-.073-.446l-.569.19-.569.19a.2.2 0 0 1 .01.066zm-.261 1.424.536.268c.117-.233.177-.489.177-.749h-1.2a.5.5 0 0 1-.05.212zm-.059.14.57.19.025-.062-.536-.268-.537-.269q-.053.106-.09.22zm-.27.518.424.425c.163-.163.285-.362.358-.58l-.569-.19-.57-.19a.3.3 0 0 1-.068.111zm-.214.346.569.19a.3.3 0 0 1 .069-.111l-.425-.425-.424-.424a1.5 1.5 0 0 0-.358.58zm-.13.341.537.269q.067-.135.114-.278l-.569-.19-.569-.19a1 1 0 0 1-.05.121zm-.144.334.569.19q.03-.095.076-.184l-.537-.268-.537-.269q-.083.165-.14.341zm-.167.435.537.268q.082-.165.141-.34l-.57-.19-.568-.19a1.4 1.4 0 0 1-.076.184zm-.129.303.57.19q.03-.095.076-.184l-.537-.268-.537-.269q-.083.165-.14.341zm-.102.603h.6q0-.198.062-.386l-.569-.19-.57-.19a2.4 2.4 0 0 0-.123.766zm-.132.213.268.537a.84.84 0 0 0 .464-.75h-1.2a.36.36 0 0 1 .2-.323zm-.255.082v.6a1 1 0 0 0 .441-.104l-.268-.537-.268-.536a.2.2 0 0 1 .095-.023zm-.522.057.19.57a.5.5 0 0 1 .161-.027v-1.2c-.184 0-.367.03-.541.088zm-.42.238.425.425a.3.3 0 0 1 .11-.07l-.189-.568-.19-.57a1.5 1.5 0 0 0-.58.359zm-.549.041-.424.425a.96.96 0 0 0 1.356 0l-.424-.425-.424-.424a.24.24 0 0 1 .34 0zm-.093-.067-.268.537a.2.2 0 0 1-.063-.045l.424-.425.424-.424a1 1 0 0 0-.249-.18zm-.243-.203h-.6c0 .277.156.53.404.655l.269-.537.268-.537a.47.47 0 0 1 .259.42zm-.191-.118.268.537a.468.468 0 0 1-.677-.419h1.2a.732.732 0 0 0-1.06-.655zm-.13.09.499.334a.4.4 0 0 1-.164.144l-.268-.537-.268-.536a.8.8 0 0 0-.298.263zm-.635.17-.236.55c.358.154.997.174 1.343-.346l-.5-.333-.498-.333a.2.2 0 0 1 .12-.09h.008-.001zm-.7-.12-.19.569c.18.06.37.09.56.09v-1.2a.6.6 0 0 1-.18-.029zm-.37-.195-.425.424c.137.136.303.24.486.3l.19-.569.19-.57a.04.04 0 0 1-.017-.01zm-.188-.376h-.6c0 .28.11.547.308.745l.425-.424.424-.424a.15.15 0 0 1 .043.103zm-.048-.203-.537.268a.2.2 0 0 1-.015-.065h1.2c0-.164-.038-.325-.112-.472zm-.141-.241-.425.424a.2.2 0 0 1-.044-.062l.536-.268.537-.268a1 1 0 0 0-.18-.25zm-.197-.106v.6a.38.38 0 0 1-.27-.112l.424-.424.425-.425a.82.82 0 0 0-.579-.24zm-.235-.235-.536-.268a.762.762 0 0 0 .681 1.103v-1.2c.326 0 .537.342.392.633zm.009-.124-.57.19a.44.44 0 0 1 .025-.335l.536.269.537.268c.09-.18.105-.39.041-.582zm-.256-.12.537.269a.48.48 0 0 1-.885-.063l.57-.19.569-.19a.72.72 0 0 0-1.328-.094zm-.047.05.268.537a.7.7 0 0 0 .313-.312l-.537-.268-.537-.269a.5.5 0 0 1 .224-.224zm-.133-.132-.537-.268c-.3.6.337 1.238.938.938l-.268-.537-.269-.537a.501.501 0 0 1 .672.672zm.014-.054h-.6q.001-.117.053-.222l.537.268.536.268a.7.7 0 0 0 .075-.314zm.066-.403-.536-.268c-.085.17-.13.358-.13.548h1.2q0-.006.003-.011zm.082-.183h-.6q0-.122.055-.23l.536.268.537.268a.7.7 0 0 0 .072-.306zm-.153-.046.5.333c-.284.425-.947.225-.947-.287h1.2c0-.676-.877-.941-1.252-.379zm-.178.231.269.537a.75.75 0 0 0 .288-.254l-.5-.333-.498-.333a.45.45 0 0 1 .173-.153zm-.298.247.569.19a.3.3 0 0 1-.152.175l-.268-.537-.268-.537a.9.9 0 0 0-.45.52zm-.301.23-.268.537a.786.786 0 0 0 1.097-.455l-.569-.19-.57-.19a.414.414 0 0 1 .578-.239zm-.103-.167h-.6c0 .298.168.57.435.704l.268-.537.268-.537c.14.07.229.214.229.37zm-.084-.264-.424.425a.3.3 0 0 1-.092-.222h1.2a.9.9 0 0 0-.26-.627zm-.297-.42-.424-.425a.687.687 0 0 0 0 .973l.424-.425.424-.424c.2.2.2.525 0 .725zm-.023-.14-.268.536a.513.513 0 0 1-.133-.82l.424.424.424.424a.687.687 0 0 0-.178-1.101zm-.578-.241v.6a.2.2 0 0 1-.086-.02l.268-.537.268-.537a1 1 0 0 0-.45-.106zm-.337-.092-.333.499c.189.126.41.193.637.193v-1.2q.015 0 .029.008zm-.57-.203v.6a.3.3 0 0 1 .154.046l.333-.499.332-.5a1.5 1.5 0 0 0-.82-.248zm-1.7.295v.6c.225 0 .43-.055.603-.128l-.233-.553-.232-.553a.4.4 0 0 1-.138.034zM2.57 13.53l.424.424a.42.42 0 0 1-.298.124v-1.2a.78.78 0 0 0-.55.228zM.925 10.97l-.537.268q.01.021.01.044h1.2a1.3 1.3 0 0 0-.137-.58zm-.37-1.33.425-.424c-.484-.484-1.292.014-1.075.664l.57-.19.568-.19c.184.552-.5.975-.911.565zm.148-.06h-.6c0-.458.554-.688.877-.364l-.424.424-.424.425a.686.686 0 0 0 1.171-.486zm-.011-.11-.537.267a.5.5 0 0 1-.052-.218h1.2c0-.11-.025-.22-.075-.318zm-.136-.326h-.6c0 .128.03.255.087.37l.537-.269.536-.268q.04.079.04.167zm-.067-.16-.424.424a.37.37 0 0 1-.11-.264h1.2c0-.22-.086-.43-.241-.585zm-.08-.186h-.6c0 .226.089.443.249.602l.424-.424.424-.424a.35.35 0 0 1 .102.246zm.073-.265L.058 8.11a.85.85 0 0 0-.25.602h1.2a.34.34 0 0 1-.102.246zm.074-.178h-.6c0-.092.036-.18.102-.246l.424.424.424.425c.16-.16.25-.377.25-.603zm.008-.502-.537-.268a.7.7 0 0 0-.071.301h1.2a.5.5 0 0 1-.056.236zm.14-.132h.6c0-.67-.904-.883-1.203-.284l.536.269.537.268c-.267.534-1.07.344-1.07-.253zm.065.016-.536-.268c.266-.534 1.07-.344 1.07.252h-1.2c0 .67.903.884 1.203.284zm.451-.827-.424-.425a1.2 1.2 0 0 0-.233.323l.537.269.536.268.008-.011zm.167-.12-.268-.538q-.181.091-.323.233l.424.425.424.424.011-.008zm.35-.102v-.6c-.19 0-.378.045-.548.13l.268.536.268.537.012-.003zm.28-.066-.27-.536-.01.002v1.2c.19 0 .377-.044.548-.13zm.219-.081v-.6a.84.84 0 0 0-.375.088l.268.537.268.536a.4.4 0 0 1-.161.039zm.239-.074h-.6c0-.29.235-.526.526-.526v1.2a.674.674 0 0 0 .674-.674zm.073-.074v-.6a.674.674 0 0 0-.673.674h1.2c0 .29-.236.526-.527.526zm.65-.093-.19-.57a1.2 1.2 0 0 1-.386.063v1.2c.26 0 .519-.042.765-.124zm.214-.08-.268-.537-.029.012.19.569.19.569q.096-.032.185-.077zm.317-.27-.536-.268a.1.1 0 0 1 .047-.047l.268.537.268.536c.212-.106.384-.278.49-.49zm.177-.2-.268-.536a.95.95 0 0 0-.423.424l.536.268.537.268a.25.25 0 0 1-.113.114zm.192-.31h-.6c0-.095.054-.183.14-.226l.268.537.269.537a.95.95 0 0 0 .523-.847zm.06-.288-.424-.424a.8.8 0 0 0-.236.57h1.2a.4.4 0 0 1-.115.278zm.31-.014.568-.19a.744.744 0 0 0-1.232-.29l.424.424.425.424a.456.456 0 0 1-.755-.178zm.164.13-.424-.424a.52.52 0 0 1 .861.204l-.569.19-.569.19a.68.68 0 0 0 1.126.265zm0-.112-.424.424a.52.52 0 0 1 0-.736l.424.425.425.424a.68.68 0 0 0 0-.961zm-.017-.165-.424-.424a.704.704 0 0 0 0 .996l.424-.425.424-.424a.496.496 0 0 1 0 .701zm.117-.03.424-.425a.66.66 0 0 0-.935 0l.424.424.425.424a.54.54 0 0 1-.762 0zm.104-.044h-.6c0-.48.58-.72.92-.381l-.424.424-.424.424a.661.661 0 0 0 1.128-.467zm.054-.175-.268-.536a.7.7 0 0 0-.386.624h1.2c0 .19-.107.364-.278.45zm.333-.12v-.6a1 1 0 0 0-.441.104l.268.537.268.536a.2.2 0 0 1-.095.023zm.351-.074h-.6c0-.29.236-.526.526-.526v1.2a.674.674 0 0 0 .674-.674zm.074-.074v-.6a.674.674 0 0 0-.674.674h1.2c0 .29-.235.526-.526.526zm.074-.074h-.6c0-.29.235-.526.526-.526v1.2a.674.674 0 0 0 .674-.674zm.073-.084-.16-.579c-.213.059-.513.272-.513.663h1.2a.52.52 0 0 1-.134.35.5.5 0 0 1-.234.144zm.45-.097.268-.536a.82.82 0 0 0-.62-.06l.183.571.183.572a.4.4 0 0 1-.204.014.3.3 0 0 1-.078-.024zm.298.19.424-.424q-.152-.151-.344-.248l-.268.537-.269.537a.1.1 0 0 1 .033.023zm.507.213v-.6a.1.1 0 0 1-.08-.033l-.424.424-.424.424c.246.247.58.385.928.385zm.183-.226-.537.269a.444.444 0 0 1 .397-.643v1.2a.756.756 0 0 0 .676-1.094zm0-.14-.537-.267a.76.76 0 0 0 0 .676l.537-.269.536-.268a.44.44 0 0 1 0 .397zm.154-.266-.424-.424a1 1 0 0 0-.18.25l.536.268.537.268a.2.2 0 0 1-.045.062zm.106-.2h-.6c0-.1.04-.194.11-.264l.424.424.424.425a.83.83 0 0 0 .242-.585zm.024-.102L6.98 3.42a.8.8 0 0 0-.087.37h1.2a.4.4 0 0 1-.04.167zm.296-.333-.268-.537a1.18 1.18 0 0 0-.527.527l.536.269.537.268a.02.02 0 0 1-.01.01zm.197-.062v-.6a.9.9 0 0 0-.408.097l.268.536.268.537a.3.3 0 0 1-.128.03zm.14-.033-.269-.536q.06-.03.129-.03v1.2a.9.9 0 0 0 .408-.097zm.229-.188h-.6a.48.48 0 0 1 .265-.43l.269.537.268.536a.72.72 0 0 0 .398-.643zm-.038-.093-.268.537a.53.53 0 0 1-.294-.476h1.2a.67.67 0 0 0-.37-.597zm-.118-.128v-.6c-.668 0-.88.9-.283 1.199l.269-.537.268-.537c.535.268.345 1.075-.254 1.075zm.015.003.268-.537a.6.6 0 0 0-.283-.066v1.2a.6.6 0 0 1-.253-.06zm.362.218.424-.424a1.2 1.2 0 0 0-.323-.233l-.268.537-.268.536.01.008zm.167.12.269-.536-.012-.008-.424.424-.424.424q.142.143.323.233zm.276.101v-.6q.069 0 .128.03l-.268.537-.268.537a.9.9 0 0 0 .408.096zm.14.033.268-.536a.9.9 0 0 0-.408-.097v1.2a.3.3 0 0 1-.129-.03zm.43.015-.269-.537a.15.15 0 0 1 .136 0l-.269.537-.268.536c.295.148.643.148.938 0zm.159-.048v-.6a.9.9 0 0 0-.391.093l.268.536.269.537a.3.3 0 0 1-.146.034zm.152.046.333-.499a.87.87 0 0 0-.485-.147v1.2a.33.33 0 0 1-.181-.054zm.249.499.537.268a.916.916 0 0 0-.312-1.171l-.332.499-.333.5a.284.284 0 0 1-.097-.364zm-.06.082.425.424q.105-.106.172-.238l-.537-.268-.537-.268a.3.3 0 0 1 .053-.074zm-.154.111v.6a.7.7 0 0 0 .498-.206l-.424-.424-.424-.424a.5.5 0 0 1 .35-.146zm-.104.105h.6a.496.496 0 0 1-.496.495v-1.2a.704.704 0 0 0-.704.705zm-.03.074.423.424a.7.7 0 0 0 .207-.498h-1.2c0-.132.052-.258.145-.35zm-.265.323h.6a.46.46 0 0 1-.134.324L9.6 4.432l-.424-.424a.74.74 0 0 0-.217.525zm.079.128.268-.536a.46.46 0 0 1 .252.408h-1.2c0 .282.16.54.411.665zm.216.273h.6a.87.87 0 0 0-.48-.775l-.268.537-.268.536a.33.33 0 0 1-.184-.298zm.125.404.425-.424a.17.17 0 0 1 .05.12h-1.2c0 .273.108.535.301.728zm.391.317v-.6a.42.42 0 0 1 .299.124l-.425.424-.424.424a.78.78 0 0 0 .55.228zm.126.052.425-.424a.78.78 0 0 0-.55-.228v1.2a.42.42 0 0 1-.299-.124zm.096.15h.6a.73.73 0 0 0-.214-.517l-.424.425-.425.424a.47.47 0 0 1-.137-.333zm.089.123.19-.57a.47.47 0 0 1 .32.446h-1.2a.73.73 0 0 0 .5.693zm.506.042-.269-.537a.2.2 0 0 1 .145-.01l-.19.569-.19.57c.255.084.532.064.772-.056zm.208-.203-.536-.269a.16.16 0 0 1 .07-.07l.27.536.267.537c.202-.101.365-.265.466-.466zm.124-.206-.424-.424a1 1 0 0 0-.18.25l.536.269.537.268a.2.2 0 0 1-.045.062zm.106-.256h-.6c0-.063.025-.123.07-.168l.424.424.424.425a.96.96 0 0 0 .282-.68zm.048-.24-.537-.269a1.05 1.05 0 0 0-.111.471h1.2a.2.2 0 0 1-.016.066zm1.133-1.424h.6a.85.85 0 0 0-.25-.602l-.424.424-.424.424a.35.35 0 0 1-.102-.246zm.204.68-.268-.538a.46.46 0 0 1 .664.41h-1.2c0 .552.58.91 1.072.664zm.163.026.424-.425a.74.74 0 0 0-.855-.139l.268.537.268.537a.46.46 0 0 1-.53-.086zm.223.37h.6c0-.253-.1-.496-.28-.676l-.424.424-.425.425a.24.24 0 0 1-.07-.173zm.239.59v-.6a.49.49 0 0 1 .482.379l-.585.132-.586.131a.71.71 0 0 0 .689.559zm.082.051.536-.268a.69.69 0 0 0-.618-.382v1.2a.51.51 0 0 1-.455-.281zm.122.336h.6a1 1 0 0 0-.104-.44l-.537.267-.537.269a.2.2 0 0 1-.022-.096zm.066.336.537-.268-.003-.011h-1.2c0 .19.044.377.13.548zm.227.26.333-.499a.1.1 0 0 1-.02-.022l-.537.268-.536.268c.098.196.245.363.427.485zm.406.29.36-.479c-.035-.026-.16-.127-.254-.19l-.333.499-.333.499c.063.042.083.064.2.151zm.482.425h.6a.76.76 0 0 0-.27-.584l-.385.46-.384.462a.44.44 0 0 1-.161-.338zm.052.126.424-.424c.08.079.124.186.124.298h-1.2c0 .207.082.405.228.55zm.262.3.569-.19a.85.85 0 0 0-.206-.333l-.424.424-.424.424a.35.35 0 0 1-.085-.136zm.22.295-.425-.424a.52.52 0 0 1 .862.203l-.57.19-.569.19a.68.68 0 0 0 1.126.265zm.113 0 .424-.424a.68.68 0 0 0-.961 0l.424.424.424.424a.52.52 0 0 1-.736 0zm.134.091v-.6c.131 0 .258.052.35.145l-.424.424-.424.425a.7.7 0 0 0 .498.206zm.104.104h.6a.704.704 0 0 0-.704-.704v1.2a.496.496 0 0 1-.496-.496zm.092.43.424-.424a.3.3 0 0 1 .084.203h-1.2c0 .242.097.475.268.646zm.734.91.569-.19a1.8 1.8 0 0 0-.428-.693l-.424.424-.425.425q.095.095.139.223zm.06.241h.6a1 1 0 0 0-.05-.31l-.57.19-.569.19a.2.2 0 0 1-.011-.07zm0 .036h-.6a.92.92 0 0 0 .508.823l.269-.537.268-.536a.28.28 0 0 1 .155.25zm6.697 6.541v-.6a.67.67 0 0 0-.602.373l.536.268.537.268a.53.53 0 0 1-.47.291zm.07.097.57.19a.674.674 0 0 0-.64-.886v1.2a.526.526 0 0 1-.5-.693zm-.125.367.536.268a1 1 0 0 0 .05-.12l-.569-.19-.57-.19.016-.037zm-.315.274v.6c.336 0 .643-.19.793-.49l-.537-.268-.536-.268a.31.31 0 0 1 .28-.174zm-.192.074.424.424a.35.35 0 0 1-.246.102v-1.2a.85.85 0 0 0-.602.25zm-.074.178h.6a.35.35 0 0 1-.102.247l-.424-.425-.424-.424a.85.85 0 0 0-.25.602zm-.094.304.486.352c.103-.142.208-.352.208-.612h-1.2c0-.036.008-.063.013-.077l.007-.014zm-.644.773.269.537a1.63 1.63 0 0 0 .706-.698l-.53-.28-.53-.282a.43.43 0 0 1-.183.186zm-.05-.197-.424.424a.43.43 0 0 1-.126-.305h1.2a.77.77 0 0 0-.225-.544zm-.02-.214-.5-.333a.77.77 0 0 0 .096.971l.425-.424.424-.425a.43.43 0 0 1 .054.544zm.132-.5-.537.269a.27.27 0 0 1 .017-.269l.5.333.498.333a.93.93 0 0 0 .058-.934zm-.192-.166-.19.57a.27.27 0 0 1-.155-.135l.537-.268.537-.269a.93.93 0 0 0-.54-.467zm-.312-.183h-.6a.71.71 0 0 0 .485.673l.19-.569.19-.569a.49.49 0 0 1 .335.465zm.06-.099-.268-.537a.71.71 0 0 0-.392.636h1.2a.49.49 0 0 1-.271.438zm.235-.282h-.6c0-.126.071-.242.184-.298l.268.537.268.536a.87.87 0 0 0 .48-.775zm-.074-.72-.537.268q.01.02.01.044h1.2a1.3 1.3 0 0 0-.136-.581zm-.074-.202h-.6c0 .128.03.255.088.37l.536-.268.537-.269q.04.08.04.167zm-.066-.16-.425.424a.37.37 0 0 1-.109-.264h1.2c0-.22-.087-.43-.242-.585zm.318-.211.57-.19a1.4 1.4 0 0 0-.701-.808l-.268.537-.269.537a.2.2 0 0 1 .099.114zm.048.14.537-.27q.014.03.024.06l-.57.19-.568.189a1 1 0 0 0 .04.098zm.29.392h-.6c0-.586.79-.773 1.053-.249l-.537.269-.536.268c.304.608 1.22.392 1.22-.288zm.076-.032.425-.424a.644.644 0 0 0-1.1.456h1.2a.556.556 0 0 1-.949.393zm.072.103h.6a.67.67 0 0 0-.197-.477l-.424.425-.425.424a.53.53 0 0 1-.154-.372zm.267.501.19-.57a.21.21 0 0 1 .143.2h-1.2a.99.99 0 0 0 .677.94zm.237.059v-.6q.037 0 .07.011l-.19.57-.189.568q.15.05.31.05zm.07 0v.6a.87.87 0 0 0 .775-.48l-.537-.268-.537-.268a.33.33 0 0 1 .298-.184zm-1.017 1.77h.6a.783.783 0 0 0-1.132-.699l.268.537.269.536a.417.417 0 0 1-.605-.373zm-.479.811.537.268q-.007.012-.003.007l.022-.029-.465-.378-.466-.38c-.04.051-.107.135-.161.244zm-.076.293.537-.269a.44.44 0 0 1 0 .398l-.537-.269-.537-.268a.76.76 0 0 0 0 .676zm-.14.225v.6a.756.756 0 0 0 .676-1.094l-.536.269-.537.268a.444.444 0 0 1 .397-.643zm-.076.017.268.537a.44.44 0 0 1-.197.046v-1.2a.76.76 0 0 0-.34.08zm-15.977-6.96.333.499a.22.22 0 0 1 .123-.037v-1.2c-.28 0-.555.083-.789.239zm15.649 7.29.569.19a.1.1 0 0 1-.047.053l-.268-.536-.268-.537a1.1 1.1 0 0 0-.555.64zm-.112.305.537.268a2 2 0 0 0 .084-.204l-.569-.19-.569-.19-.02.048zM4.737 13.086l.537.268a.07.07 0 0 1 .03-.03l-.27-.536-.268-.537a1.27 1.27 0 0 0-.566.567zm15.619 7.791.352.486c.204-.148.456-.364.616-.683l-.537-.269-.536-.268c-.033.065-.103.144-.247.249zM4.647 13.224l.424.425a1 1 0 0 0 .18-.25l-.536-.269-.537-.268a.2.2 0 0 1 .045-.062zm15.12 7.926v.6c.355 0 .655-.15.873-.334l-.386-.46-.386-.459c-.058.05-.095.053-.101.053zM4.39 13.33v.6c.255 0 .5-.101.68-.281l-.424-.425-.424-.424a.24.24 0 0 1 .168-.07zm15.071 7.748-.268.537c.178.089.374.135.573.135v-1.2a.1.1 0 0 1-.036-.009zm-.236-.076v.6a.24.24 0 0 1-.108-.025l.269-.537.268-.537a.96.96 0 0 0-.429-.1zM3.803 13.257l-.268.536c.18.09.379.137.58.137v-1.2a.1.1 0 0 1-.044-.01zm15.065 7.618h-.6c0 .402.326.727.727.727v-1.2c.261 0 .473.212.473.473zM3.49 13.183v.6a.1.1 0 0 1 .045.01l.268-.536.268-.537a1.3 1.3 0 0 0-.58-.137zm15.385 7.652-.57-.19a.7.7 0 0 0-.037.23h1.2q0 .077-.024.15zM2.696 13.478v.6a.78.78 0 0 0 .55-.228l-.424-.424L2.398 13a.42.42 0 0 1 .298-.123zm17.332 6.09-.355-.483a1.4 1.4 0 0 1-.188.126l.269.537.268.536c.152-.076.283-.175.36-.232zm.833-.854-.57-.19a.4.4 0 0 1-.093.153l.424.424.424.424c.175-.174.306-.387.384-.62zm-18.743-4.94v.6c.293 0 .574-.117.78-.324l-.423-.425-.425-.424a.1.1 0 0 1 .068-.028zm18.87 4.666-.424-.425a.9.9 0 0 0-.223.36l.57.19.569.19a.3.3 0 0 1-.068.109zM1.53 13.635l-.333.499c.234.156.509.24.79.24v-1.2a.22.22 0 0 1-.124-.038zm19.553 4.592h-.6c0-.083.033-.163.092-.222l.424.424.425.425a.9.9 0 0 0 .26-.627zm.082-.218-.269-.536a.75.75 0 0 0-.413.669h1.2a.45.45 0 0 1-.25.404zM.999 13.218h-.6c0 .297.167.568.432.7l.268-.536.269-.537c.141.07.23.215.23.373zm20.43 4.863.541-.26a.8.8 0 0 0-.39-.378.75.75 0 0 0-.64.009l.268.536.269.537a.46.46 0 0 1-.389.013.4.4 0 0 1-.2-.197zM1.073 13.035v-.6a.674.674 0 0 0-.673.674h1.2c0 .29-.236.526-.527.526zm20.652 5.111-.424-.424c.09-.09.19-.123.255-.134a.35.35 0 0 1 .267.056.44.44 0 0 1 .148.177l-.54.26-.541.26c.13.268.38.381.54.419.152.036.471.059.72-.19zM11.774 4.77h-.6l-.003.012.537.268.536.268c.085-.17.13-.357.13-.548zM1.146 12.961h-.6c0-.29.236-.526.526-.526v1.2a.674.674 0 0 0 .674-.674zm20.656 5.108.424.424a.4.4 0 0 1-.114.082l-.268-.537-.269-.536a.8.8 0 0 0-.198.143zm-6.929-1.049h.6c0-.494-.4-.895-.895-.895v1.2a.305.305 0 0 1-.305-.305zm-.074.37.425.424c.16-.16.25-.377.25-.603h-1.2a.35.35 0 0 1 .101-.246zM11.847 3.957l-.424-.425a.85.85 0 0 0-.25.603h1.2a.35.35 0 0 1-.101.246zm-10.775 7.97-.569.19a.8.8 0 0 1 .043.265h1.2q0-.331-.104-.645zm13.555 5.88-.424.424a.657.657 0 0 0 1.123-.465h-1.2c0-.483.584-.725.926-.383zM11.922 3.79h-.6c0-.1.04-.194.11-.264l.424.424.424.425a.83.83 0 0 0 .242-.585zM1 11.473H.4q0 .332.104.645l.57-.19.569-.19a.8.8 0 0 1-.043-.265zm13.54 6.344.5.332a.543.543 0 0 1-.836.083l.425-.424.424-.424a.657.657 0 0 0-1.012.1zM11.945 3.688l-.537-.268a.8.8 0 0 0-.087.37h1.2a.4.4 0 0 1-.04.167zm2.19 14.513v.6a.88.88 0 0 0 .729-.39l-.5-.333-.499-.332a.32.32 0 0 1 .27-.145zM12.216 3.092h-.6q0-.088.04-.167l.536.269.537.268a.8.8 0 0 0 .087-.37zM.851 10.768h-.6c0 .128.03.255.087.37l.537-.269.537-.268q.039.079.039.166zm12.825 7.188-.5.332c.214.32.574.513.96.513v-1.2q.024 0 .04.022zM12.26 2.955l-.424-.424a.75.75 0 0 0-.219.528h1.2c0 .12-.047.235-.132.32zM.785 10.607l-.425.424a.37.37 0 0 1-.109-.264h1.2a.82.82 0 0 0-.242-.584zm12.76 7.004h-.6c0 .214.063.424.182.603l.5-.333.499-.333q.019.028.019.063zm8.105-2.251-.499.333q.055.083.126.153l.424-.424.424-.424.024.03zM12.468 2.955l.425-.424a.75.75 0 0 0-1.058 0l.424.424.425.424a.45.45 0 0 1-.64 0zM.703 10.422h-.6c0 .225.09.442.25.602l.424-.424.424-.425a.35.35 0 0 1 .102.246zm12.76 6.918-.5.333a.1.1 0 0 1-.018-.062h1.2c0-.215-.064-.425-.183-.604zm-.951-14.28h.6a.75.75 0 0 0-.22-.53l-.424.425-.424.424a.45.45 0 0 1-.133-.32zM.598 10.125l-.424.425a.24.24 0 0 1-.072-.173h1.2c0-.253-.1-.497-.28-.676zm12.65 6.826h-.6c0 .163.049.322.14.458l.499-.333.499-.332c.04.06.063.133.063.207zm8.11-2.297v-.6a.68.68 0 0 0-.608.984l.536-.268.537-.269a.52.52 0 0 1-.465.753zM12.585 3.293v-.6c.29 0 .526.236.526.527h-1.2c0 .372.302.673.674.673zM.408 9.913h-.6c0 .174.069.34.191.462l.424-.424.425-.425c.102.103.16.243.16.388zm13.068 6.812v-.6a.827.827 0 0 0-.827.827h1.2a.373.373 0 0 1-.373.373zm5.735 3.491-.424-.424a1.8 1.8 0 0 0-.428.693l.57.19.569.189a.6.6 0 0 1 .138-.223zm2.183-5.552.269-.537a.7.7 0 0 0-.304-.072v1.2a.5.5 0 0 1-.233-.055zM12.66 3.367h.6a.674.674 0 0 0-.674-.674v1.2a.526.526 0 0 1-.526-.526zM.462 9.841l.424-.424a.631.631 0 0 0-1.078.447h1.2c0 .506-.612.76-.97.402zm13.122 6.897.19-.57a.9.9 0 0 0-.27-.043v1.2a.4.4 0 0 1-.11-.018zm1.142.79h.6c0 .118-.047.23-.13.314l-.425-.425-.424-.424a.76.76 0 0 0-.221.535zM2.917 13.33l.425.425a.1.1 0 0 1-.068.028v-1.2a1.1 1.1 0 0 0-.78.323zm16.837 6.418-.269-.537a1.6 1.6 0 0 0-.42.303l.424.424.425.424a.4.4 0 0 1 .108-.078zM12.69 3.472l.424-.425a.5.5 0 0 1 .145.35h-1.2c0 .188.074.367.206.499zM.514 9.809l-.57.19c-.19-.57.518-1.006.942-.582l-.424.424-.424.425c.47.47 1.256-.014 1.045-.646zm13.704 7.032-.163-.578c.022-.006.03-.002.011-.004a.6.6 0 0 1-.11-.03l-.19.57-.19.57c.167.055.472.143.805.049z" mask="url(#a)"/></svg>