<svg xmlns="http://www.w3.org/2000/svg" width="24" height="24" fill="none" viewBox="0 0 24 24"><mask id="a" fill="#fff"><path d="M11.757 21.276a.18.18 0 0 1-.191.029l-.022-.01a.21.21 0 0 0-.226.032l-.132.113a.124.124 0 0 0 .158.19l.05-.04a.126.126 0 0 1 .175.015c.034.04.089.054.138.037l.25-.089a.155.155 0 0 0 .052-.262l-.016-.015a.18.18 0 0 0-.236 0m6.845-15.151-.072-.289a.23.23 0 0 0-.2-.172l-.1-.009a.6.6 0 0 1-.158-.038l-.029-.011a.8.8 0 0 1-.222-.136l-.145-.128a1.3 1.3 0 0 0-.258-.177l-.05-.026a1.1 1.1 0 0 0-.516-.128q-.159 0-.31-.044l-.348-.101a.2.2 0 0 0-.093-.001l-.171.046a.072.072 0 0 1-.088-.09.07.07 0 0 0-.015-.066l-.069-.081a.3.3 0 0 0-.101-.073 9 9 0 0 0-.725-.254.11.11 0 0 0-.103.02l-.02.016a.099.099 0 0 1-.161-.077.1.1 0 0 0-.09-.098l-.375-.034a.098.098 0 0 1-.064-.164l.097-.106a.18.18 0 0 0 .046-.12v-.04a.13.13 0 0 0-.093-.123.13.13 0 0 1-.087-.084l-.139-.435-.049-.115a.032.032 0 0 0-.052-.01.032.032 0 0 1-.053-.011l-.021-.052a.1.1 0 0 0-.02-.027l-.153-.13a.8.8 0 0 0-.29-.16c-.13-.037-.261-.07-.392-.111a.3.3 0 0 0-.124-.014l-.143.015a.04.04 0 0 0-.03.02.04.04 0 0 1-.042.021l-.234-.046a.3.3 0 0 1-.14-.066 3 3 0 0 1-.188-.177.08.08 0 0 0-.056-.023.08.08 0 0 1-.08-.08v-.033a.1.1 0 0 0-.034-.08l-.097-.097a.5.5 0 0 0-.116-.085 2 2 0 0 1-.194-.12.14.14 0 0 0-.083-.028.14.14 0 0 1-.135-.11l-.008-.037a.18.18 0 0 0-.085-.122l-.101-.06a.3.3 0 0 0-.123-.041l-.111-.011a.09.09 0 0 1-.073-.05l-.026-.052a.04.04 0 0 1 .022-.055c.041-.015.03-.075-.013-.075a6 6 0 0 0-.438.018.05.05 0 0 0-.045.05.05.05 0 0 1-.017.037l-.06.052a.22.22 0 0 1-.188.049l-.042-.009a.3.3 0 0 1-.14-.068.3.3 0 0 0-.226-.074l-.168.013h-.187a.063.063 0 0 1-.063-.063.06.06 0 0 0-.021-.047l-.1-.088a.2.2 0 0 0-.14-.052H8.81a.12.12 0 0 1-.107-.063L8.668.77a.066.066 0 0 0-.12.053l.004.013a.09.09 0 0 1-.058.111l-.126.04a.195.195 0 0 0-.136.205l.002.023q.005.046.038.08a.13.13 0 0 1 .032.135l-.027.08a.086.086 0 0 1-.158.01l-.038-.074a.2.2 0 0 1 .005-.185l.01-.015a.23.23 0 0 0 .03-.114V1.06a.1.1 0 0 0-.015-.048L8.092.984a.065.065 0 0 1 .045-.101h.003A.06.06 0 0 0 8.193.82q0-.015.007-.027l.008-.016A.097.097 0 0 0 8.145.64H8.14a.11.11 0 0 0-.106.028l-.067.068a.3.3 0 0 1-.054.042L7.66.931a.2.2 0 0 1-.124.028L7.413.947a.05.05 0 0 0-.05.032.05.05 0 0 1-.045.032h-.076a.15.15 0 0 0-.117.054l-.04.047a.3.3 0 0 0-.065.135l-.03.163-.001.021c0 .049-.03.092-.075.11l-.012.005a.14.14 0 0 0-.047.031l-.123.123a.2.2 0 0 1-.148.061h-.04a.043.043 0 0 0-.04.06l.038.087a.08.08 0 0 1-.002.07l-.004.006a.07.07 0 0 1-.079.04.07.07 0 0 0-.081.043l-.005.013a.09.09 0 0 0 .01.084l.052.074q.034.046.043.102l.027.148a.09.09 0 0 1-.024.079.09.09 0 0 0-.023.084l.045.182a.16.16 0 0 1-.001.083l-.02.067a.07.07 0 0 0 .032.078c.036.022.044.07.02.104q-.078.109-.142.203a.15.15 0 0 1-.1.063.16.16 0 0 0-.112.075l-.01.018a.1.1 0 0 0-.014.07l.009.05a.05.05 0 0 1-.04.059l-.008.001a.045.045 0 0 0-.032.064.045.045 0 0 1-.018.06l-.167.092-.088.038a.096.096 0 0 0-.056.107.1.1 0 0 1-.013.07l-.073.117a.2.2 0 0 0-.03.068l-.024.102a.07.07 0 0 1-.056.053.07.07 0 0 0-.056.083l.026.147a.08.08 0 0 1-.014.061.08.08 0 0 0 .015.111l.062.046a.075.075 0 0 0 .103-.012l.01-.012a.064.064 0 0 1 .102.078L5.7 5.13a.4.4 0 0 1-.069.073l-.128.103a.3.3 0 0 0-.09.117l-.005.01a.29.29 0 0 0 .006.247l.05.1a.1.1 0 0 1-.007.098.1.1 0 0 0 .034.14l.097.054.028.02.103.081a.6.6 0 0 1 .169.22q.033.074.085.136l.007.009a.7.7 0 0 1 .09.142c.17.358.34.698.51 1.037l.226.349a.07.07 0 0 1 0 .074.07.07 0 0 0-.006.066l.064.14q.034.076.099.127l.162.13.5.318.515.268c.034.018.058.05.065.087a.13.13 0 0 0 .058.083l.097.06c.096.06.162.158.18.27l.04.255.014.317q.008.183-.016.364a28 28 0 0 0-.19 1.612 1 1 0 0 1-.074.312l-.016.037a.84.84 0 0 0-.058.413l.007.067c.01.084 0 .17-.03.25a.55.55 0 0 0-.028.264l.018.133c.021.152.01.308-.036.455-.14.454-.305.91-.44 1.38a.08.08 0 0 1-.072.055.075.075 0 0 0-.075.08l.017.296a.4.4 0 0 0 .01.066l.034.138a.5.5 0 0 1-.047.368.5.5 0 0 0-.055.16c-.056.355-.098.724-.154 1.079a.095.095 0 0 0 .187.033l.045-.235a.1.1 0 0 1 .197.036l-.095.559a.137.137 0 0 1-.189.102.137.137 0 0 0-.188.102l-.074.427a.3.3 0 0 1-.048.113l-.11.145a.14.14 0 0 0 .078.221c.103.027.14.155.067.233l-.116.125a.24.24 0 0 0-.056.1l-.052.186a1 1 0 0 0-.036.338l.029.474q.006.104.05.2l.026.055a.4.4 0 0 1 .016.296.4.4 0 0 0-.002.244l.035.115q.017.057.026.118l.023.16a.3.3 0 0 0 .13.205q.043.03.074.071l.147.196q.095.126.211.233l.18.166.244.184q.12.088.264.122l.016.004q.135.031.243.115.097.075.213.108l.042.012a.36.36 0 0 0 .253-.051l.105-.067a.1.1 0 0 0 .042-.049l.008-.017a.1.1 0 0 1 .172-.02.1.1 0 0 0 .09.04l.132-.01a.158.158 0 0 0 .029-.31l-.146-.041a.3.3 0 0 1-.123-.072l-.16-.16a.9.9 0 0 1-.194-.299l-.017-.044a.6.6 0 0 1-.037-.169l-.015-.286a.06.06 0 0 0-.034-.052.1.1 0 0 1-.023-.019l-.077-.11a.6.6 0 0 1-.097-.23l-.04-.21a.4.4 0 0 1 .158-.399l.032-.023a.6.6 0 0 0 .206-.277l.059-.17a.6.6 0 0 1 .22-.296l.092-.069a.3.3 0 0 0 .119-.178l.013-.057a.246.246 0 0 0-.161-.29.25.25 0 0 1-.103-.066l-.082-.088a.39.39 0 0 1 .026-.554l.074-.066a.25.25 0 0 1 .165-.064c.106 0 .2-.067.234-.168l.003-.01a.3.3 0 0 0 .012-.053l.02-.183a.6.6 0 0 1 .157-.347l.057-.063a.24.24 0 0 1 .084-.06l.13-.053a.1.1 0 1 0-.096-.173l-.007.005a.11.11 0 0 1-.11.009l-.038-.02a.18.18 0 0 1-.098-.138l-.026-.224a.122.122 0 0 1 .175-.123l.113.056c.059.03.125.04.19.03l.134-.02a.25.25 0 0 0 .112-.047l.023-.018a.21.21 0 0 0 .076-.213.2.2 0 0 1 0-.1l.047-.188a.13.13 0 0 0-.002-.069.13.13 0 0 1 .142-.165l.094.014a.2.2 0 0 0 .05 0l.377-.045a1.03 1.03 0 0 0 .757-.49l.086-.144a.3.3 0 0 0 .034-.097l.002-.014a.22.22 0 0 0-.074-.193.22.22 0 0 1-.072-.204.22.22 0 0 0-.077-.21l-.233-.189a.07.07 0 1 1 .094-.105l.05.05q.031.03.074.03h.08a.3.3 0 0 1 .15.041l.121.07c.053.031.116.04.175.023a.22.22 0 0 1 .133.002l.018.006a.28.28 0 0 0 .231-.023l.08-.045a.5.5 0 0 0 .194-.206l.013-.025a.6.6 0 0 1 .086-.127l.041-.047a.8.8 0 0 0 .142-.223l.007-.016c.05-.117.13-.22.23-.3a1 1 0 0 0 .094-.085l.058-.063q.149-.163.254-.358l.156-.29a.7.7 0 0 1 .148-.186l.032-.03a.5.5 0 0 0 .159-.295l.024-.168a.4.4 0 0 0-.009-.17.45.45 0 0 1-.005-.196l.003-.012a.5.5 0 0 1 .097-.211l.085-.108q.09-.116.21-.204l.08-.058q.142-.104.312-.153l.036-.01a.8.8 0 0 0 .21-.097.8.8 0 0 1 .232-.103l.283-.07a.4.4 0 0 1 .095-.012h.14a.19.19 0 0 0 .175-.121.2.2 0 0 1 .079-.095l.04-.024a.32.32 0 0 0 .153-.23l.008-.054a.44.44 0 0 1 .085-.203l.104-.136c.08-.105.13-.23.144-.36l.016-.138a.25.25 0 0 1 .053-.127.26.26 0 0 0 .054-.13c.015-.129.038-.25.062-.375.028-.14.028-.284-.001-.423l-.054-.262a.23.23 0 0 1 .015-.14l.044-.1a.06.06 0 0 1 .056-.037.06.06 0 0 0 .047-.022l.155-.19a1 1 0 0 0 .055-.08l.046-.08q.112-.196.271-.356l.209-.208a.8.8 0 0 0 .217-.388l.03-.13a.8.8 0 0 0-.002-.364"/></mask><path stroke="currentcolor" stroke-width="1.2" d="M11.757 21.276a.18.18 0 0 1-.191.029l-.022-.01a.21.21 0 0 0-.226.032l-.132.113a.124.124 0 0 0 .158.19l.05-.04a.126.126 0 0 1 .175.015c.034.04.089.054.138.037l.25-.089a.155.155 0 0 0 .052-.262l-.016-.015a.18.18 0 0 0-.236 0Zm6.845-15.151-.072-.289a.23.23 0 0 0-.2-.172l-.1-.009a.6.6 0 0 1-.158-.038l-.029-.011a.8.8 0 0 1-.222-.136l-.145-.128a1.3 1.3 0 0 0-.258-.177l-.05-.026a1.1 1.1 0 0 0-.516-.128q-.159 0-.31-.044l-.348-.101a.2.2 0 0 0-.093-.001l-.171.046a.072.072 0 0 1-.088-.09.07.07 0 0 0-.015-.066l-.069-.081a.3.3 0 0 0-.101-.073 9 9 0 0 0-.725-.254.11.11 0 0 0-.103.02l-.02.016a.099.099 0 0 1-.161-.077.1.1 0 0 0-.09-.098l-.375-.034a.098.098 0 0 1-.064-.164l.097-.106a.18.18 0 0 0 .046-.12v-.04a.13.13 0 0 0-.093-.123.13.13 0 0 1-.087-.084l-.139-.435-.049-.115a.032.032 0 0 0-.052-.01.032.032 0 0 1-.053-.011l-.021-.052a.1.1 0 0 0-.02-.027l-.153-.13a.8.8 0 0 0-.29-.16c-.13-.037-.261-.07-.392-.111a.3.3 0 0 0-.124-.014l-.143.015a.04.04 0 0 0-.03.02.04.04 0 0 1-.042.021l-.234-.046a.3.3 0 0 1-.14-.066 3 3 0 0 1-.188-.177.08.08 0 0 0-.056-.023.08.08 0 0 1-.08-.08v-.033a.1.1 0 0 0-.034-.08l-.097-.097a.5.5 0 0 0-.116-.085 2 2 0 0 1-.194-.12.14.14 0 0 0-.083-.028.14.14 0 0 1-.135-.11l-.008-.037a.18.18 0 0 0-.085-.122l-.101-.06a.3.3 0 0 0-.123-.041l-.111-.011a.09.09 0 0 1-.073-.05l-.026-.052a.04.04 0 0 1 .022-.055c.041-.015.03-.075-.013-.075a6 6 0 0 0-.438.018.05.05 0 0 0-.045.05.05.05 0 0 1-.017.037l-.06.052a.22.22 0 0 1-.188.049l-.042-.009a.3.3 0 0 1-.14-.068.3.3 0 0 0-.226-.074l-.168.013h-.187a.063.063 0 0 1-.063-.063.06.06 0 0 0-.021-.047l-.1-.088a.2.2 0 0 0-.14-.052H8.81a.12.12 0 0 1-.107-.063L8.668.77a.066.066 0 0 0-.12.053l.004.013a.09.09 0 0 1-.058.111l-.126.04a.195.195 0 0 0-.136.205l.002.023q.005.046.038.08a.13.13 0 0 1 .032.135l-.027.08a.086.086 0 0 1-.158.01l-.038-.074a.2.2 0 0 1 .005-.185l.01-.015a.23.23 0 0 0 .03-.114V1.06a.1.1 0 0 0-.015-.048L8.092.984a.065.065 0 0 1 .045-.101h.003A.06.06 0 0 0 8.193.82q0-.015.007-.027l.008-.016A.097.097 0 0 0 8.145.64H8.14a.11.11 0 0 0-.106.028l-.067.068a.3.3 0 0 1-.054.042L7.66.931a.2.2 0 0 1-.124.028L7.413.947a.05.05 0 0 0-.05.032.05.05 0 0 1-.045.032h-.076a.15.15 0 0 0-.117.054l-.04.047a.3.3 0 0 0-.065.135l-.03.163-.001.021c0 .049-.03.092-.075.11l-.012.005a.14.14 0 0 0-.047.031l-.123.123a.2.2 0 0 1-.148.061h-.04a.043.043 0 0 0-.04.06l.038.087a.08.08 0 0 1-.002.07l-.004.006a.07.07 0 0 1-.079.04.07.07 0 0 0-.081.043l-.005.013a.09.09 0 0 0 .01.084l.052.074q.034.046.043.102l.027.148a.09.09 0 0 1-.024.079.09.09 0 0 0-.023.084l.045.182a.16.16 0 0 1-.001.083l-.02.067a.07.07 0 0 0 .032.078c.036.022.044.07.02.104q-.078.109-.142.203a.15.15 0 0 1-.1.063.16.16 0 0 0-.112.075l-.01.018a.1.1 0 0 0-.014.07l.009.05a.05.05 0 0 1-.04.059l-.008.001a.045.045 0 0 0-.032.064.045.045 0 0 1-.018.06l-.167.092-.088.038a.096.096 0 0 0-.056.107.1.1 0 0 1-.013.07l-.073.117a.2.2 0 0 0-.03.068l-.024.102a.07.07 0 0 1-.056.053.07.07 0 0 0-.056.083l.026.147a.08.08 0 0 1-.014.061.08.08 0 0 0 .015.111l.062.046a.075.075 0 0 0 .103-.012l.01-.012a.064.064 0 0 1 .102.078L5.7 5.13a.4.4 0 0 1-.069.073l-.128.103a.3.3 0 0 0-.09.117l-.005.01a.29.29 0 0 0 .006.247l.05.1a.1.1 0 0 1-.007.098.1.1 0 0 0 .034.14l.097.054.028.02.103.081a.6.6 0 0 1 .169.22q.033.074.085.136l.007.009a.7.7 0 0 1 .09.142c.17.358.34.698.51 1.037l.226.349a.07.07 0 0 1 0 .074.07.07 0 0 0-.006.066l.064.14q.034.076.099.127l.162.13.5.318.515.268c.034.018.058.05.065.087a.13.13 0 0 0 .058.083l.097.06c.096.06.162.158.18.27l.04.255.014.317q.008.183-.016.364a28 28 0 0 0-.19 1.612 1 1 0 0 1-.074.312l-.016.037a.84.84 0 0 0-.058.413l.007.067c.01.084 0 .17-.03.25a.55.55 0 0 0-.028.264l.018.133c.021.152.01.308-.036.455-.14.454-.305.91-.44 1.38a.08.08 0 0 1-.072.055.075.075 0 0 0-.075.08l.017.296a.4.4 0 0 0 .01.066l.034.138a.5.5 0 0 1-.047.368.5.5 0 0 0-.055.16c-.056.355-.098.724-.154 1.079a.095.095 0 0 0 .187.033l.045-.235a.1.1 0 0 1 .197.036l-.095.559a.137.137 0 0 1-.189.102.137.137 0 0 0-.188.102l-.074.427a.3.3 0 0 1-.048.113l-.11.145a.14.14 0 0 0 .078.221c.103.027.14.155.067.233l-.116.125a.24.24 0 0 0-.056.1l-.052.186a1 1 0 0 0-.036.338l.029.474q.006.104.05.2l.026.055a.4.4 0 0 1 .016.296.4.4 0 0 0-.002.244l.035.115q.017.057.026.118l.023.16a.3.3 0 0 0 .13.205q.043.03.074.071l.147.196q.095.126.211.233l.18.166.244.184q.12.088.264.122l.016.004q.135.031.243.115.097.075.213.108l.042.012a.36.36 0 0 0 .253-.051l.105-.067a.1.1 0 0 0 .042-.049l.008-.017a.1.1 0 0 1 .172-.02.1.1 0 0 0 .09.04l.132-.01a.158.158 0 0 0 .029-.31l-.146-.041a.3.3 0 0 1-.123-.072l-.16-.16a.9.9 0 0 1-.194-.299l-.017-.044a.6.6 0 0 1-.037-.169l-.015-.286a.06.06 0 0 0-.034-.052.1.1 0 0 1-.023-.019l-.077-.11a.6.6 0 0 1-.097-.23l-.04-.21a.4.4 0 0 1 .158-.399l.032-.023a.6.6 0 0 0 .206-.277l.059-.17a.6.6 0 0 1 .22-.296l.092-.069a.3.3 0 0 0 .119-.178l.013-.057a.246.246 0 0 0-.161-.29.25.25 0 0 1-.103-.066l-.082-.088a.39.39 0 0 1 .026-.554l.074-.066a.25.25 0 0 1 .165-.064c.106 0 .2-.067.234-.168l.003-.01a.3.3 0 0 0 .012-.053l.02-.183a.6.6 0 0 1 .157-.347l.057-.063a.24.24 0 0 1 .084-.06l.13-.053a.1.1 0 1 0-.096-.173l-.007.005a.11.11 0 0 1-.11.009l-.038-.02a.18.18 0 0 1-.098-.138l-.026-.224a.122.122 0 0 1 .175-.123l.113.056c.059.03.125.04.19.03l.134-.02a.25.25 0 0 0 .112-.047l.023-.018a.21.21 0 0 0 .076-.213.2.2 0 0 1 0-.1l.047-.188a.13.13 0 0 0-.002-.069.13.13 0 0 1 .142-.165l.094.014a.2.2 0 0 0 .05 0l.377-.045a1.03 1.03 0 0 0 .757-.49l.086-.144a.3.3 0 0 0 .034-.097l.002-.014a.22.22 0 0 0-.074-.193.22.22 0 0 1-.072-.204.22.22 0 0 0-.077-.21l-.233-.189a.07.07 0 1 1 .094-.105l.05.05q.031.03.074.03h.08a.3.3 0 0 1 .15.041l.121.07c.053.031.116.04.175.023a.22.22 0 0 1 .133.002l.018.006a.28.28 0 0 0 .231-.023l.08-.045a.5.5 0 0 0 .194-.206l.013-.025a.6.6 0 0 1 .086-.127l.041-.047a.8.8 0 0 0 .142-.223l.007-.016c.05-.117.13-.22.23-.3a1 1 0 0 0 .094-.085l.058-.063q.149-.163.254-.358l.156-.29a.7.7 0 0 1 .148-.186l.032-.03a.5.5 0 0 0 .159-.295l.024-.168a.4.4 0 0 0-.009-.17.45.45 0 0 1-.005-.196l.003-.012a.5.5 0 0 1 .097-.211l.085-.108q.09-.116.21-.204l.08-.058q.142-.104.312-.153l.036-.01a.8.8 0 0 0 .21-.097.8.8 0 0 1 .232-.103l.283-.07a.4.4 0 0 1 .095-.012h.14a.19.19 0 0 0 .175-.121.2.2 0 0 1 .079-.095l.04-.024a.32.32 0 0 0 .153-.23l.008-.054a.44.44 0 0 1 .085-.203l.104-.136c.08-.105.13-.23.144-.36l.016-.138a.25.25 0 0 1 .053-.127.26.26 0 0 0 .054-.13c.015-.129.038-.25.062-.375.028-.14.028-.284-.001-.423l-.054-.262a.23.23 0 0 1 .015-.14l.044-.1a.06.06 0 0 1 .056-.037.06.06 0 0 0 .047-.022l.155-.19a1 1 0 0 0 .055-.08l.046-.08q.112-.196.271-.356l.209-.208a.8.8 0 0 0 .217-.388l.03-.13a.8.8 0 0 0-.002-.364Z" mask="url(#a)"/></svg>