<svg width="800" height="200" viewBox="0 0 800 200" fill="currentcolor" xmlns="http://www.w3.org/2000/svg" fill-opacity="0.125">
<path d="M27.101 47.5427H20.8674V20.0906C22.5387 20.3197 23.8373 21.7628 23.8373 23.4944C23.8373 25.3839 25.3833 26.9298 27.2728 26.9298H34.1438C35.3255 26.9298 36.3727 26.3251 36.9915 25.4098L74.8038 42.2222L46.7515 58.1832L39.8123 52.2236C36.2909 49.2175 31.7819 47.5427 27.101 47.5427Z" />
<path d="M73.2229 38.1102L37.5904 22.2642C37.7017 20.8852 38.6146 19.7281 39.9411 19.2859L53.5113 14.7768C54.8647 14.3187 56.0058 13.4669 56.8226 12.3732L60.3472 17.9039L59.6093 18.6417C58.7075 19.5436 58.1921 20.7889 58.1921 22.0772C58.1921 24.7397 60.3823 26.9298 63.0448 26.9298H66.0984L60.3472 17.9039L62.6288 15.622L58.1808 8.64169C58.1881 8.51168 58.1921 8.38088 58.1921 8.2494V6.31694C58.1921 2.5379 61.2841 -0.554035 65.0631 -0.554035H80.8234C83.4859 -0.554035 85.676 1.63609 85.676 4.29859V8.33528C85.676 10.9978 83.4859 13.1879 80.8234 13.1879H67.0815C65.7931 13.1879 64.5478 13.7032 63.646 14.605L62.6288 15.622L69.8346 26.9298H66.0984L73.2229 38.1102Z" />
<path fill-rule="evenodd" clip-rule="evenodd" d="M19.5 -66C-39.3327 -66 -87 -18.3327 -87 40.5C-87 99.3327 -39.3327 147 19.5 147C78.3327 147 126 99.3327 126 40.5C126 -18.3327 78.3327 -66 19.5 -66ZM105.387 40.5C105.387 50.1623 103.712 59.4811 100.749 68.1556H92.0317C90.1851 68.1556 88.4244 67.4256 87.1361 66.0944L77.1199 55.8904L79.9528 52.1329L79.937 52.142L75.8017 54.5475L73.3942 52.0948C72.1217 50.7941 71.6871 48.9534 72.1026 47.2839L79.964 42.8108L79.9497 42.8042L78.2398 40.1205L78.805 39.5552V35.8192C78.805 34.5308 78.2897 33.2855 77.3879 32.3837L73.3512 28.347C72.4494 27.4452 71.204 26.9298 69.9157 26.9298H69.8346L78.2398 40.1205L73.4368 44.9232C72.7621 45.5979 72.3181 46.4179 72.1026 47.2839L49.2205 60.3033L55.9579 66.0896L19.3085 87.4068L19.3055 87.405L-19.2029 65.0063C-17.9291 63.601 -16.4409 62.3713 -14.769 61.3706L-11.8259 59.6075L19.3086 77.3224L49.2205 60.3033L46.7515 58.1832L20.8674 72.9107V47.5427H17.7502V20.323C17.0021 20.6333 16.3657 21.2018 15.9786 21.9484L11.9419 29.9788C10.7825 32.2978 8.42057 33.7579 5.80101 33.7579H-3.68951C-6.18872 33.7579 -8.38741 32.4056 -9.59001 30.3966L17.7499 18.2403L17.7502 20.323C18.1639 20.1515 18.6115 20.0589 19.0703 20.0589H20.4016C20.5595 20.0589 20.715 20.0697 20.8674 20.0906V18.2405L36.9915 25.4098C37.3621 24.8616 37.579 24.2021 37.579 23.4944V22.5496C37.579 22.4535 37.5828 22.3583 37.5904 22.2642L20.8674 14.8273V-13.3363L17.75 -12.2996V-28.8645L16.9234 -28.0379V-24.6024C16.9234 -22.7129 15.3774 -21.1669 13.4879 -21.1669H6.61694C5.5532 -21.1669 4.59835 -21.6569 3.96691 -22.4223L-34.6053 38.1101L-10.541 27.4084C-10.4586 28.4927 -10.1215 29.5087 -9.59001 30.3966L-36.1861 42.222L-8.80793 57.7995L3.65383 50.3341C6.70282 48.5304 10.1813 47.5427 13.7026 47.5427H17.7502L17.7499 72.9105L-8.80793 57.7995L-11.8259 59.6075L-41.3467 42.8107L-41.3324 42.8043L3.18119 -27.0522V-24.6024C3.18119 -23.7766 3.47673 -23.0165 3.96691 -22.4223L17.7498 -44.0525L17.75 -28.8645L20.8674 -31.9822V-44.0525L26.6938 -34.9089H23.7944L20.8674 -31.9822V-13.3363L22.7208 -13.9524C23.4508 -14.2101 24.095 -14.5966 24.6103 -15.1119L33.5882 -24.0898L56.8226 12.3732C57.6157 11.3112 58.1028 10.021 58.1808 8.64169L35.87 -26.3716L36.1192 -26.6208C37.021 -27.5226 37.5363 -28.7679 37.5363 -30.0562C37.5363 -32.7188 35.3462 -34.9089 32.6837 -34.9089H30.43L35.87 -26.3716L33.5882 -24.0898L26.6938 -34.9089H30.43L23.8238 -45.2757C22.3631 -45.3497 20.8928 -45.3871 19.4138 -45.3871C18.8699 -45.3871 18.3259 -45.3489 17.782 -45.3108C17.51 -45.2917 17.238 -45.2726 16.9661 -45.2583L12.779 -42.1144L19.3088 -52.3617L23.8238 -45.2757C69.2302 -42.9774 105.387 -5.39046 105.387 40.5ZM12.779 -42.1144L4.55565 -35.9395C3.69678 -35.2954 3.18145 -34.2647 3.18145 -33.1911L3.18119 -27.0522L12.779 -42.1144ZM17.75 -12.2996L5.54335 -8.24093C4.12621 -7.76855 3.18145 -6.43729 3.18145 -4.97721C3.18145 -2.14294 2.06492 0.562506 0.0895181 2.53791L-8.54214 11.1696C-9.83044 12.4579 -10.5605 14.2186 -10.5605 16.0222V26.8869C-10.5605 27.0623 -10.5541 27.2362 -10.541 27.4084L17.7498 14.8272L17.75 -12.2996ZM-21.1243 67.505C-20.5537 66.6239 -19.9113 65.7879 -19.2029 65.0063L-41.3354 52.1329L-24.0243 75.0919C-23.8183 73.7772 -23.4797 72.496 -23.0187 71.266L10.901 116.252H8.29147C7.86749 116.252 7.42519 116.233 6.96866 116.197L19.3088 132.563L24.1388 126.157C24.0383 126.162 23.9377 126.167 23.837 126.172V123.123C23.837 122.599 23.7775 122.087 23.6647 121.596L20.8677 125.305V117.476C22.2559 118.439 23.276 119.901 23.6647 121.596L63.9583 68.1556H58.6007L68.144 62.6047L63.9583 68.1556H66.2223C66.7534 68.1556 67.2809 68.1866 67.8025 68.2473L24.1388 126.157C54.5436 124.511 80.7834 107.108 94.6512 81.8976H88.8968C86.8355 81.8976 84.8171 81.0817 83.3571 79.6216L75.9278 72.1923C73.7261 69.9906 70.8657 68.6042 67.8025 68.2473L77.1199 55.8904L75.8017 54.5475L55.9579 66.0896L58.3636 68.1556H58.6007L20.8674 90.1032L20.8677 117.476C19.961 116.846 18.8972 116.429 17.75 116.297V125.336L10.901 116.252H16.9663C17.2311 116.252 17.4928 116.268 17.75 116.297L17.7497 90.1163L17.7296 90.1047L-21.1243 67.505C-21.8883 68.685 -22.524 69.946 -23.0187 71.266L-29.5492 62.6047L-21.1243 67.505ZM-24.0243 75.0919C-24.1797 76.0841 -24.2595 77.0959 -24.2595 78.1186V88.3821C-24.2595 94.523 -21.3823 100.32 -16.4437 104.014L-6.91028 111.185C-3.51586 113.721 2.43108 115.832 6.96866 116.197L-24.0243 75.0919ZM-31.1304 -5.40665C-31.1304 -6.69495 -30.6151 -7.94032 -29.7133 -8.84213L-18.8056 -19.7498C-17.9038 -20.6516 -16.6585 -21.1669 -15.3702 -21.1669C-12.7077 -21.1669 -10.5175 -18.9768 -10.5175 -16.3143V-9.44335C-10.5175 -8.15504 -11.0329 -6.90968 -11.9347 -6.00786L-15.9714 -1.97116C-16.8732 -1.06935 -18.1186 -0.554035 -19.4069 -0.554035H-26.2778C-28.9403 -0.554035 -31.1304 -2.74415 -31.1304 -5.40665ZM1.7585 23.6446L19.3085 15.84L36.1602 23.334L19.3086 15.8413L1.7585 23.6446Z" />
<path d="M207.101 47.5427H200.867V20.0906C202.539 20.3197 203.837 21.7628 203.837 23.4944C203.837 25.3839 205.383 26.9298 207.273 26.9298H214.144C215.326 26.9298 216.373 26.3251 216.991 25.4098L254.804 42.2222L226.752 58.1832L219.812 52.2236C216.291 49.2175 211.782 47.5427 207.101 47.5427Z" />
<path d="M253.223 38.1102L217.59 22.2642C217.702 20.8852 218.615 19.7281 219.941 19.2859L233.511 14.7768C234.865 14.3187 236.006 13.4669 236.823 12.3732L240.347 17.9039L239.609 18.6417C238.707 19.5436 238.192 20.7889 238.192 22.0772C238.192 24.7397 240.382 26.9298 243.045 26.9298H246.098L240.347 17.9039L242.629 15.622L238.181 8.64169C238.188 8.51168 238.192 8.38088 238.192 8.2494V6.31694C238.192 2.5379 241.284 -0.554035 245.063 -0.554035H260.823C263.486 -0.554035 265.676 1.63609 265.676 4.29859V8.33528C265.676 10.9978 263.486 13.1879 260.823 13.1879H247.081C245.793 13.1879 244.548 13.7032 243.646 14.605L242.629 15.622L249.835 26.9298H246.098L253.223 38.1102Z" />
<path fill-rule="evenodd" clip-rule="evenodd" d="M199.5 -66C140.667 -66 93 -18.3327 93 40.5C93 99.3327 140.667 147 199.5 147C258.333 147 306 99.3327 306 40.5C306 -18.3327 258.333 -66 199.5 -66ZM285.387 40.5C285.387 50.1623 283.712 59.4811 280.749 68.1556H272.032C270.185 68.1556 268.424 67.4256 267.136 66.0944L257.12 55.8904L259.953 52.1329L259.937 52.142L255.802 54.5475L253.394 52.0948C252.122 50.7941 251.687 48.9534 252.103 47.2839L259.964 42.8108L259.95 42.8042L258.24 40.1205L258.805 39.5552V35.8192C258.805 34.5308 258.29 33.2855 257.388 32.3837L253.351 28.347C252.449 27.4452 251.204 26.9298 249.916 26.9298H249.835L258.24 40.1205L253.437 44.9232C252.762 45.5979 252.318 46.4179 252.103 47.2839L229.221 60.3033L235.958 66.0896L199.308 87.4068L199.306 87.405L160.797 65.0063C162.071 63.601 163.559 62.3713 165.231 61.3706L168.174 59.6075L199.309 77.3224L229.221 60.3033L226.752 58.1832L200.867 72.9107V47.5427H197.75V20.323C197.002 20.6333 196.366 21.2018 195.979 21.9484L191.942 29.9788C190.782 32.2978 188.421 33.7579 185.801 33.7579H176.31C173.811 33.7579 171.613 32.4056 170.41 30.3966L197.75 18.2403L197.75 20.323C198.164 20.1515 198.612 20.0589 199.07 20.0589H200.402C200.559 20.0589 200.715 20.0697 200.867 20.0906V18.2405L216.991 25.4098C217.362 24.8616 217.579 24.2021 217.579 23.4944V22.5496C217.579 22.4535 217.583 22.3583 217.59 22.2642L200.867 14.8273V-13.3363L197.75 -12.2996V-28.8645L196.923 -28.0379V-24.6024C196.923 -22.7129 195.377 -21.1669 193.488 -21.1669H186.617C185.553 -21.1669 184.598 -21.6569 183.967 -22.4223L145.395 38.1101L169.459 27.4084C169.541 28.4927 169.879 29.5087 170.41 30.3966L143.814 42.222L171.192 57.7995L183.654 50.3341C186.703 48.5304 190.181 47.5427 193.703 47.5427H197.75L197.75 72.9105L171.192 57.7995L168.174 59.6075L138.653 42.8107L138.668 42.8043L183.181 -27.0522V-24.6024C183.181 -23.7766 183.477 -23.0165 183.967 -22.4223L197.75 -44.0525L197.75 -28.8645L200.867 -31.9822V-44.0525L206.694 -34.9089H203.794L200.867 -31.9822V-13.3363L202.721 -13.9524C203.451 -14.2101 204.095 -14.5966 204.61 -15.1119L213.588 -24.0898L236.823 12.3732C237.616 11.3112 238.103 10.021 238.181 8.64169L215.87 -26.3716L216.119 -26.6208C217.021 -27.5226 217.536 -28.7679 217.536 -30.0562C217.536 -32.7188 215.346 -34.9089 212.684 -34.9089H210.43L215.87 -26.3716L213.588 -24.0898L206.694 -34.9089H210.43L203.824 -45.2757C202.363 -45.3497 200.893 -45.3871 199.414 -45.3871C198.87 -45.3871 198.326 -45.3489 197.782 -45.3108C197.51 -45.2917 197.238 -45.2726 196.966 -45.2583L192.779 -42.1144L199.309 -52.3617L203.824 -45.2757C249.23 -42.9774 285.387 -5.39046 285.387 40.5ZM192.779 -42.1144L184.556 -35.9395C183.697 -35.2954 183.181 -34.2647 183.181 -33.1911L183.181 -27.0522L192.779 -42.1144ZM197.75 -12.2996L185.543 -8.24093C184.126 -7.76855 183.181 -6.43729 183.181 -4.97721C183.181 -2.14294 182.065 0.562506 180.09 2.53791L171.458 11.1696C170.17 12.4579 169.44 14.2186 169.44 16.0222V26.8869C169.44 27.0623 169.446 27.2362 169.459 27.4084L197.75 14.8272L197.75 -12.2996ZM158.876 67.505C159.446 66.6239 160.089 65.7879 160.797 65.0063L138.665 52.1329L155.976 75.0919C156.182 73.7772 156.52 72.496 156.981 71.266L190.901 116.252H188.291C187.867 116.252 187.425 116.233 186.969 116.197L199.309 132.563L204.139 126.157C204.038 126.162 203.938 126.167 203.837 126.172V123.123C203.837 122.599 203.777 122.087 203.665 121.596L200.868 125.305V117.476C202.256 118.439 203.276 119.901 203.665 121.596L243.958 68.1556H238.601L248.144 62.6047L243.958 68.1556H246.222C246.753 68.1556 247.281 68.1866 247.803 68.2473L204.139 126.157C234.544 124.511 260.783 107.108 274.651 81.8976H268.897C266.835 81.8976 264.817 81.0817 263.357 79.6216L255.928 72.1923C253.726 69.9906 250.866 68.6042 247.803 68.2473L257.12 55.8904L255.802 54.5475L235.958 66.0896L238.364 68.1556H238.601L200.867 90.1032L200.868 117.476C199.961 116.846 198.897 116.429 197.75 116.297V125.336L190.901 116.252H196.966C197.231 116.252 197.493 116.268 197.75 116.297L197.75 90.1163L197.73 90.1047L158.876 67.505C158.112 68.685 157.476 69.946 156.981 71.266L150.451 62.6047L158.876 67.505ZM155.976 75.0919C155.82 76.0841 155.741 77.0959 155.741 78.1186V88.3821C155.741 94.523 158.618 100.32 163.556 104.014L173.09 111.185C176.484 113.721 182.431 115.832 186.969 116.197L155.976 75.0919ZM148.87 -5.40665C148.87 -6.69495 149.385 -7.94032 150.287 -8.84213L161.194 -19.7498C162.096 -20.6516 163.342 -21.1669 164.63 -21.1669C167.292 -21.1669 169.482 -18.9768 169.482 -16.3143V-9.44335C169.482 -8.15504 168.967 -6.90968 168.065 -6.00786L164.029 -1.97116C163.127 -1.06935 161.881 -0.554035 160.593 -0.554035H153.722C151.06 -0.554035 148.87 -2.74415 148.87 -5.40665ZM181.758 23.6446L199.308 15.84L216.16 23.334L199.309 15.8413L181.758 23.6446Z" />
<path d="M387.101 47.5427H380.867V20.0906C382.539 20.3197 383.837 21.7628 383.837 23.4944C383.837 25.3839 385.383 26.9298 387.273 26.9298H394.144C395.326 26.9298 396.373 26.3251 396.991 25.4098L434.804 42.2222L406.752 58.1832L399.812 52.2236C396.291 49.2175 391.782 47.5427 387.101 47.5427Z" />
<path d="M433.223 38.1102L397.59 22.2642C397.702 20.8852 398.615 19.7281 399.941 19.2859L413.511 14.7768C414.865 14.3187 416.006 13.4669 416.823 12.3732L420.347 17.9039L419.609 18.6417C418.707 19.5436 418.192 20.7889 418.192 22.0772C418.192 24.7397 420.382 26.9298 423.045 26.9298H426.098L420.347 17.9039L422.629 15.622L418.181 8.64169C418.188 8.51168 418.192 8.38088 418.192 8.2494V6.31694C418.192 2.5379 421.284 -0.554035 425.063 -0.554035H440.823C443.486 -0.554035 445.676 1.63609 445.676 4.29859V8.33528C445.676 10.9978 443.486 13.1879 440.823 13.1879H427.081C425.793 13.1879 424.548 13.7032 423.646 14.605L422.629 15.622L429.835 26.9298H426.098L433.223 38.1102Z" />
<path fill-rule="evenodd" clip-rule="evenodd" d="M379.5 -66C320.667 -66 273 -18.3327 273 40.5C273 99.3327 320.667 147 379.5 147C438.333 147 486 99.3327 486 40.5C486 -18.3327 438.333 -66 379.5 -66ZM465.387 40.5C465.387 50.1623 463.712 59.4811 460.749 68.1556H452.032C450.185 68.1556 448.424 67.4256 447.136 66.0944L437.12 55.8904L439.953 52.1329L439.937 52.142L435.802 54.5475L433.394 52.0948C432.122 50.7941 431.687 48.9534 432.103 47.2839L439.964 42.8108L439.95 42.8042L438.24 40.1205L438.805 39.5552V35.8192C438.805 34.5308 438.29 33.2855 437.388 32.3837L433.351 28.347C432.449 27.4452 431.204 26.9298 429.916 26.9298H429.835L438.24 40.1205L433.437 44.9232C432.762 45.5979 432.318 46.4179 432.103 47.2839L409.221 60.3033L415.958 66.0896L379.308 87.4068L379.306 87.405L340.797 65.0063C342.071 63.601 343.559 62.3713 345.231 61.3706L348.174 59.6075L379.309 77.3224L409.221 60.3033L406.752 58.1832L380.867 72.9107V47.5427H377.75V20.323C377.002 20.6333 376.366 21.2018 375.979 21.9484L371.942 29.9788C370.782 32.2978 368.421 33.7579 365.801 33.7579H356.31C353.811 33.7579 351.613 32.4056 350.41 30.3966L377.75 18.2403L377.75 20.323C378.164 20.1515 378.612 20.0589 379.07 20.0589H380.402C380.559 20.0589 380.715 20.0697 380.867 20.0906V18.2405L396.991 25.4098C397.362 24.8616 397.579 24.2021 397.579 23.4944V22.5496C397.579 22.4535 397.583 22.3583 397.59 22.2642L380.867 14.8273V-13.3363L377.75 -12.2996V-28.8645L376.923 -28.0379V-24.6024C376.923 -22.7129 375.377 -21.1669 373.488 -21.1669H366.617C365.553 -21.1669 364.598 -21.6569 363.967 -22.4223L325.395 38.1101L349.459 27.4084C349.541 28.4927 349.879 29.5087 350.41 30.3966L323.814 42.222L351.192 57.7995L363.654 50.3341C366.703 48.5304 370.181 47.5427 373.703 47.5427H377.75L377.75 72.9105L351.192 57.7995L348.174 59.6075L318.653 42.8107L318.668 42.8043L363.181 -27.0522V-24.6024C363.181 -23.7766 363.477 -23.0165 363.967 -22.4223L377.75 -44.0525L377.75 -28.8645L380.867 -31.9822V-44.0525L386.694 -34.9089H383.794L380.867 -31.9822V-13.3363L382.721 -13.9524C383.451 -14.2101 384.095 -14.5966 384.61 -15.1119L393.588 -24.0898L416.823 12.3732C417.616 11.3112 418.103 10.021 418.181 8.64169L395.87 -26.3716L396.119 -26.6208C397.021 -27.5226 397.536 -28.7679 397.536 -30.0562C397.536 -32.7188 395.346 -34.9089 392.684 -34.9089H390.43L395.87 -26.3716L393.588 -24.0898L386.694 -34.9089H390.43L383.824 -45.2757C382.363 -45.3497 380.893 -45.3871 379.414 -45.3871C378.87 -45.3871 378.326 -45.3489 377.782 -45.3108C377.51 -45.2917 377.238 -45.2726 376.966 -45.2583L372.779 -42.1144L379.309 -52.3617L383.824 -45.2757C429.23 -42.9774 465.387 -5.39046 465.387 40.5ZM372.779 -42.1144L364.556 -35.9395C363.697 -35.2954 363.181 -34.2647 363.181 -33.1911L363.181 -27.0522L372.779 -42.1144ZM377.75 -12.2996L365.543 -8.24093C364.126 -7.76855 363.181 -6.43729 363.181 -4.97721C363.181 -2.14294 362.065 0.562506 360.09 2.53791L351.458 11.1696C350.17 12.4579 349.44 14.2186 349.44 16.0222V26.8869C349.44 27.0623 349.446 27.2362 349.459 27.4084L377.75 14.8272L377.75 -12.2996ZM338.876 67.505C339.446 66.6239 340.089 65.7879 340.797 65.0063L318.665 52.1329L335.976 75.0919C336.182 73.7772 336.52 72.496 336.981 71.266L370.901 116.252H368.291C367.867 116.252 367.425 116.233 366.969 116.197L379.309 132.563L384.139 126.157C384.038 126.162 383.938 126.167 383.837 126.172V123.123C383.837 122.599 383.777 122.087 383.665 121.596L380.868 125.305V117.476C382.256 118.439 383.276 119.901 383.665 121.596L423.958 68.1556H418.601L428.144 62.6047L423.958 68.1556H426.222C426.753 68.1556 427.281 68.1866 427.803 68.2473L384.139 126.157C414.544 124.511 440.783 107.108 454.651 81.8976H448.897C446.835 81.8976 444.817 81.0817 443.357 79.6216L435.928 72.1923C433.726 69.9906 430.866 68.6042 427.803 68.2473L437.12 55.8904L435.802 54.5475L415.958 66.0896L418.364 68.1556H418.601L380.867 90.1032L380.868 117.476C379.961 116.846 378.897 116.429 377.75 116.297V125.336L370.901 116.252H376.966C377.231 116.252 377.493 116.268 377.75 116.297L377.75 90.1163L377.73 90.1047L338.876 67.505C338.112 68.685 337.476 69.946 336.981 71.266L330.451 62.6047L338.876 67.505ZM335.976 75.0919C335.82 76.0841 335.741 77.0959 335.741 78.1186V88.3821C335.741 94.523 338.618 100.32 343.556 104.014L353.09 111.185C356.484 113.721 362.431 115.832 366.969 116.197L335.976 75.0919ZM328.87 -5.40665C328.87 -6.69495 329.385 -7.94032 330.287 -8.84213L341.194 -19.7498C342.096 -20.6516 343.342 -21.1669 344.63 -21.1669C347.292 -21.1669 349.482 -18.9768 349.482 -16.3143V-9.44335C349.482 -8.15504 348.967 -6.90968 348.065 -6.00786L344.029 -1.97116C343.127 -1.06935 341.881 -0.554035 340.593 -0.554035H333.722C331.06 -0.554035 328.87 -2.74415 328.87 -5.40665ZM361.758 23.6446L379.308 15.84L396.16 23.334L379.309 15.8413L361.758 23.6446Z" />
<path d="M567.101 47.5427H560.867V20.0906C562.539 20.3197 563.837 21.7628 563.837 23.4944C563.837 25.3839 565.383 26.9298 567.273 26.9298H574.144C575.326 26.9298 576.373 26.3251 576.991 25.4098L614.804 42.2222L586.752 58.1832L579.812 52.2236C576.291 49.2175 571.782 47.5427 567.101 47.5427Z" />
<path d="M613.223 38.1102L577.59 22.2642C577.702 20.8852 578.615 19.7281 579.941 19.2859L593.511 14.7768C594.865 14.3187 596.006 13.4669 596.823 12.3732L600.347 17.9039L599.609 18.6417C598.707 19.5436 598.192 20.7889 598.192 22.0772C598.192 24.7397 600.382 26.9298 603.045 26.9298H606.098L600.347 17.9039L602.629 15.622L598.181 8.64169C598.188 8.51168 598.192 8.38088 598.192 8.2494V6.31694C598.192 2.5379 601.284 -0.554035 605.063 -0.554035H620.823C623.486 -0.554035 625.676 1.63609 625.676 4.29859V8.33528C625.676 10.9978 623.486 13.1879 620.823 13.1879H607.081C605.793 13.1879 604.548 13.7032 603.646 14.605L602.629 15.622L609.835 26.9298H606.098L613.223 38.1102Z" />
<path fill-rule="evenodd" clip-rule="evenodd" d="M559.5 -66C500.667 -66 453 -18.3327 453 40.5C453 99.3327 500.667 147 559.5 147C618.333 147 666 99.3327 666 40.5C666 -18.3327 618.333 -66 559.5 -66ZM645.387 40.5C645.387 50.1623 643.712 59.4811 640.749 68.1556H632.032C630.185 68.1556 628.424 67.4256 627.136 66.0944L617.12 55.8904L619.953 52.1329L619.937 52.142L615.802 54.5475L613.394 52.0948C612.122 50.7941 611.687 48.9534 612.103 47.2839L619.964 42.8108L619.95 42.8042L618.24 40.1205L618.805 39.5552V35.8192C618.805 34.5308 618.29 33.2855 617.388 32.3837L613.351 28.347C612.449 27.4452 611.204 26.9298 609.916 26.9298H609.835L618.24 40.1205L613.437 44.9232C612.762 45.5979 612.318 46.4179 612.103 47.2839L589.221 60.3033L595.958 66.0896L559.308 87.4068L559.306 87.405L520.797 65.0063C522.071 63.601 523.559 62.3713 525.231 61.3706L528.174 59.6075L559.309 77.3224L589.221 60.3033L586.752 58.1832L560.867 72.9107V47.5427H557.75V20.323C557.002 20.6333 556.366 21.2018 555.979 21.9484L551.942 29.9788C550.782 32.2978 548.421 33.7579 545.801 33.7579H536.31C533.811 33.7579 531.613 32.4056 530.41 30.3966L557.75 18.2403L557.75 20.323C558.164 20.1515 558.612 20.0589 559.07 20.0589H560.402C560.559 20.0589 560.715 20.0697 560.867 20.0906V18.2405L576.991 25.4098C577.362 24.8616 577.579 24.2021 577.579 23.4944V22.5496C577.579 22.4535 577.583 22.3583 577.59 22.2642L560.867 14.8273V-13.3363L557.75 -12.2996V-28.8645L556.923 -28.0379V-24.6024C556.923 -22.7129 555.377 -21.1669 553.488 -21.1669H546.617C545.553 -21.1669 544.598 -21.6569 543.967 -22.4223L505.395 38.1101L529.459 27.4084C529.541 28.4927 529.879 29.5087 530.41 30.3966L503.814 42.222L531.192 57.7995L543.654 50.3341C546.703 48.5304 550.181 47.5427 553.703 47.5427H557.75L557.75 72.9105L531.192 57.7995L528.174 59.6075L498.653 42.8107L498.668 42.8043L543.181 -27.0522V-24.6024C543.181 -23.7766 543.477 -23.0165 543.967 -22.4223L557.75 -44.0525L557.75 -28.8645L560.867 -31.9822V-44.0525L566.694 -34.9089H563.794L560.867 -31.9822V-13.3363L562.721 -13.9524C563.451 -14.2101 564.095 -14.5966 564.61 -15.1119L573.588 -24.0898L596.823 12.3732C597.616 11.3112 598.103 10.021 598.181 8.64169L575.87 -26.3716L576.119 -26.6208C577.021 -27.5226 577.536 -28.7679 577.536 -30.0562C577.536 -32.7188 575.346 -34.9089 572.684 -34.9089H570.43L575.87 -26.3716L573.588 -24.0898L566.694 -34.9089H570.43L563.824 -45.2757C562.363 -45.3497 560.893 -45.3871 559.414 -45.3871C558.87 -45.3871 558.326 -45.3489 557.782 -45.3108C557.51 -45.2917 557.238 -45.2726 556.966 -45.2583L552.779 -42.1144L559.309 -52.3617L563.824 -45.2757C609.23 -42.9774 645.387 -5.39046 645.387 40.5ZM552.779 -42.1144L544.556 -35.9395C543.697 -35.2954 543.181 -34.2647 543.181 -33.1911L543.181 -27.0522L552.779 -42.1144ZM557.75 -12.2996L545.543 -8.24093C544.126 -7.76855 543.181 -6.43729 543.181 -4.97721C543.181 -2.14294 542.065 0.562506 540.09 2.53791L531.458 11.1696C530.17 12.4579 529.44 14.2186 529.44 16.0222V26.8869C529.44 27.0623 529.446 27.2362 529.459 27.4084L557.75 14.8272L557.75 -12.2996ZM518.876 67.505C519.446 66.6239 520.089 65.7879 520.797 65.0063L498.665 52.1329L515.976 75.0919C516.182 73.7772 516.52 72.496 516.981 71.266L550.901 116.252H548.291C547.867 116.252 547.425 116.233 546.969 116.197L559.309 132.563L564.139 126.157C564.038 126.162 563.938 126.167 563.837 126.172V123.123C563.837 122.599 563.777 122.087 563.665 121.596L560.868 125.305V117.476C562.256 118.439 563.276 119.901 563.665 121.596L603.958 68.1556H598.601L608.144 62.6047L603.958 68.1556H606.222C606.753 68.1556 607.281 68.1866 607.803 68.2473L564.139 126.157C594.544 124.511 620.783 107.108 634.651 81.8976H628.897C626.835 81.8976 624.817 81.0817 623.357 79.6216L615.928 72.1923C613.726 69.9906 610.866 68.6042 607.803 68.2473L617.12 55.8904L615.802 54.5475L595.958 66.0896L598.364 68.1556H598.601L560.867 90.1032L560.868 117.476C559.961 116.846 558.897 116.429 557.75 116.297V125.336L550.901 116.252H556.966C557.231 116.252 557.493 116.268 557.75 116.297L557.75 90.1163L557.73 90.1047L518.876 67.505C518.112 68.685 517.476 69.946 516.981 71.266L510.451 62.6047L518.876 67.505ZM515.976 75.0919C515.82 76.0841 515.741 77.0959 515.741 78.1186V88.3821C515.741 94.523 518.618 100.32 523.556 104.014L533.09 111.185C536.484 113.721 542.431 115.832 546.969 116.197L515.976 75.0919ZM508.87 -5.40665C508.87 -6.69495 509.385 -7.94032 510.287 -8.84213L521.194 -19.7498C522.096 -20.6516 523.342 -21.1669 524.63 -21.1669C527.292 -21.1669 529.482 -18.9768 529.482 -16.3143V-9.44335C529.482 -8.15504 528.967 -6.90968 528.065 -6.00786L524.029 -1.97116C523.127 -1.06935 521.881 -0.554035 520.593 -0.554035H513.722C511.06 -0.554035 508.87 -2.74415 508.87 -5.40665ZM541.758 23.6446L559.308 15.84L576.16 23.334L559.309 15.8413L541.758 23.6446Z" />
<path d="M747.101 47.5427H740.867V20.0906C742.539 20.3197 743.837 21.7628 743.837 23.4944C743.837 25.3839 745.383 26.9298 747.273 26.9298H754.144C755.326 26.9298 756.373 26.3251 756.991 25.4098L794.804 42.2222L766.752 58.1832L759.812 52.2236C756.291 49.2175 751.782 47.5427 747.101 47.5427Z" />
<path d="M793.223 38.1102L757.59 22.2642C757.702 20.8852 758.615 19.7281 759.941 19.2859L773.511 14.7768C774.865 14.3187 776.006 13.4669 776.823 12.3732L780.347 17.9039L779.609 18.6417C778.707 19.5436 778.192 20.7889 778.192 22.0772C778.192 24.7397 780.382 26.9298 783.045 26.9298H786.098L780.347 17.9039L782.629 15.622L778.181 8.64169C778.188 8.51168 778.192 8.38088 778.192 8.2494V6.31694C778.192 2.5379 781.284 -0.554035 785.063 -0.554035H800.823C803.486 -0.554035 805.676 1.63609 805.676 4.29859V8.33528C805.676 10.9978 803.486 13.1879 800.823 13.1879H787.081C785.793 13.1879 784.548 13.7032 783.646 14.605L782.629 15.622L789.835 26.9298H786.098L793.223 38.1102Z" />
<path fill-rule="evenodd" clip-rule="evenodd" d="M739.5 -66C680.667 -66 633 -18.3327 633 40.5C633 99.3327 680.667 147 739.5 147C798.333 147 846 99.3327 846 40.5C846 -18.3327 798.333 -66 739.5 -66ZM825.387 40.5C825.387 50.1623 823.712 59.4811 820.749 68.1556H812.032C810.185 68.1556 808.424 67.4256 807.136 66.0944L797.12 55.8904L799.953 52.1329L799.937 52.142L795.802 54.5475L793.394 52.0948C792.122 50.7941 791.687 48.9534 792.103 47.2839L799.964 42.8108L799.95 42.8042L798.24 40.1205L798.805 39.5552V35.8192C798.805 34.5308 798.29 33.2855 797.388 32.3837L793.351 28.347C792.449 27.4452 791.204 26.9298 789.916 26.9298H789.835L798.24 40.1205L793.437 44.9232C792.762 45.5979 792.318 46.4179 792.103 47.2839L769.221 60.3033L775.958 66.0896L739.308 87.4068L739.306 87.405L700.797 65.0063C702.071 63.601 703.559 62.3713 705.231 61.3706L708.174 59.6075L739.309 77.3224L769.221 60.3033L766.752 58.1832L740.867 72.9107V47.5427H737.75V20.323C737.002 20.6333 736.366 21.2018 735.979 21.9484L731.942 29.9788C730.782 32.2978 728.421 33.7579 725.801 33.7579H716.31C713.811 33.7579 711.613 32.4056 710.41 30.3966L737.75 18.2403L737.75 20.323C738.164 20.1515 738.612 20.0589 739.07 20.0589H740.402C740.559 20.0589 740.715 20.0697 740.867 20.0906V18.2405L756.991 25.4098C757.362 24.8616 757.579 24.2021 757.579 23.4944V22.5496C757.579 22.4535 757.583 22.3583 757.59 22.2642L740.867 14.8273V-13.3363L737.75 -12.2996V-28.8645L736.923 -28.0379V-24.6024C736.923 -22.7129 735.377 -21.1669 733.488 -21.1669H726.617C725.553 -21.1669 724.598 -21.6569 723.967 -22.4223L685.395 38.1101L709.459 27.4084C709.541 28.4927 709.879 29.5087 710.41 30.3966L683.814 42.222L711.192 57.7995L723.654 50.3341C726.703 48.5304 730.181 47.5427 733.703 47.5427H737.75L737.75 72.9105L711.192 57.7995L708.174 59.6075L678.653 42.8107L678.668 42.8043L723.181 -27.0522V-24.6024C723.181 -23.7766 723.477 -23.0165 723.967 -22.4223L737.75 -44.0525L737.75 -28.8645L740.867 -31.9822V-44.0525L746.694 -34.9089H743.794L740.867 -31.9822V-13.3363L742.721 -13.9524C743.451 -14.2101 744.095 -14.5966 744.61 -15.1119L753.588 -24.0898L776.823 12.3732C777.616 11.3112 778.103 10.021 778.181 8.64169L755.87 -26.3716L756.119 -26.6208C757.021 -27.5226 757.536 -28.7679 757.536 -30.0562C757.536 -32.7188 755.346 -34.9089 752.684 -34.9089H750.43L755.87 -26.3716L753.588 -24.0898L746.694 -34.9089H750.43L743.824 -45.2757C742.363 -45.3497 740.893 -45.3871 739.414 -45.3871C738.87 -45.3871 738.326 -45.3489 737.782 -45.3108C737.51 -45.2917 737.238 -45.2726 736.966 -45.2583L732.779 -42.1144L739.309 -52.3617L743.824 -45.2757C789.23 -42.9774 825.387 -5.39046 825.387 40.5ZM732.779 -42.1144L724.556 -35.9395C723.697 -35.2954 723.181 -34.2647 723.181 -33.1911L723.181 -27.0522L732.779 -42.1144ZM737.75 -12.2996L725.543 -8.24093C724.126 -7.76855 723.181 -6.43729 723.181 -4.97721C723.181 -2.14294 722.065 0.562506 720.09 2.53791L711.458 11.1696C710.17 12.4579 709.44 14.2186 709.44 16.0222V26.8869C709.44 27.0623 709.446 27.2362 709.459 27.4084L737.75 14.8272L737.75 -12.2996ZM698.876 67.505C699.446 66.6239 700.089 65.7879 700.797 65.0063L678.665 52.1329L695.976 75.0919C696.182 73.7772 696.52 72.496 696.981 71.266L730.901 116.252H728.291C727.867 116.252 727.425 116.233 726.969 116.197L739.309 132.563L744.139 126.157C744.038 126.162 743.938 126.167 743.837 126.172V123.123C743.837 122.599 743.777 122.087 743.665 121.596L740.868 125.305V117.476C742.256 118.439 743.276 119.901 743.665 121.596L783.958 68.1556H778.601L788.144 62.6047L783.958 68.1556H786.222C786.753 68.1556 787.281 68.1866 787.803 68.2473L744.139 126.157C774.544 124.511 800.783 107.108 814.651 81.8976H808.897C806.835 81.8976 804.817 81.0817 803.357 79.6216L795.928 72.1923C793.726 69.9906 790.866 68.6042 787.803 68.2473L797.12 55.8904L795.802 54.5475L775.958 66.0896L778.364 68.1556H778.601L740.867 90.1032L740.868 117.476C739.961 116.846 738.897 116.429 737.75 116.297V125.336L730.901 116.252H736.966C737.231 116.252 737.493 116.268 737.75 116.297L737.75 90.1163L737.73 90.1047L698.876 67.505C698.112 68.685 697.476 69.946 696.981 71.266L690.451 62.6047L698.876 67.505ZM695.976 75.0919C695.82 76.0841 695.741 77.0959 695.741 78.1186V88.3821C695.741 94.523 698.618 100.32 703.556 104.014L713.09 111.185C716.484 113.721 722.431 115.832 726.969 116.197L695.976 75.0919ZM688.87 -5.40665C688.87 -6.69495 689.385 -7.94032 690.287 -8.84213L701.194 -19.7498C702.096 -20.6516 703.342 -21.1669 704.63 -21.1669C707.292 -21.1669 709.482 -18.9768 709.482 -16.3143V-9.44335C709.482 -8.15504 708.967 -6.90968 708.065 -6.00786L704.029 -1.97116C703.127 -1.06935 701.881 -0.554035 700.593 -0.554035H693.722C691.06 -0.554035 688.87 -2.74415 688.87 -5.40665ZM721.758 23.6446L739.308 15.84L756.16 23.334L739.309 15.8413L721.758 23.6446Z" />
<path d="M87.101 165.543H80.8674V138.091C82.5387 138.32 83.8373 139.763 83.8373 141.494C83.8373 143.384 85.3833 144.93 87.2728 144.93H94.1438C95.3255 144.93 96.3727 144.325 96.9915 143.41L134.804 160.222L106.752 176.183L99.8123 170.224C96.2909 167.218 91.7819 165.543 87.101 165.543Z" />
<path d="M133.223 156.11L97.5904 140.264C97.7017 138.885 98.6146 137.728 99.9411 137.286L113.511 132.777C114.865 132.319 116.006 131.467 116.823 130.373L120.347 135.904L119.609 136.642C118.707 137.544 118.192 138.789 118.192 140.077C118.192 142.74 120.382 144.93 123.045 144.93H126.098L120.347 135.904L122.629 133.622L118.181 126.642C118.188 126.512 118.192 126.381 118.192 126.249V124.317C118.192 120.538 121.284 117.446 125.063 117.446H140.823C143.486 117.446 145.676 119.636 145.676 122.299V126.335C145.676 128.998 143.486 131.188 140.823 131.188H127.081C125.793 131.188 124.548 131.703 123.646 132.605L122.629 133.622L129.835 144.93H126.098L133.223 156.11Z" />
<path fill-rule="evenodd" clip-rule="evenodd" d="M79.5 52C20.6673 52 -27 99.6673 -27 158.5C-27 217.333 20.6673 265 79.5 265C138.333 265 186 217.333 186 158.5C186 99.6673 138.333 52 79.5 52ZM165.387 158.5C165.387 168.162 163.712 177.481 160.749 186.156H152.032C150.185 186.156 148.424 185.426 147.136 184.094L137.12 173.89L139.953 170.133L139.937 170.142L135.802 172.547L133.394 170.095C132.122 168.794 131.687 166.953 132.103 165.284L139.964 160.811L139.95 160.804L138.24 158.12L138.805 157.555V153.819C138.805 152.531 138.29 151.285 137.388 150.384L133.351 146.347C132.449 145.445 131.204 144.93 129.916 144.93H129.835L138.24 158.12L133.437 162.923C132.762 163.598 132.318 164.418 132.103 165.284L109.221 178.303L115.958 184.09L79.3085 205.407L79.3055 205.405L40.7971 183.006C42.0709 181.601 43.5591 180.371 45.231 179.371L48.1741 177.607L79.3086 195.322L109.221 178.303L106.752 176.183L80.8674 190.911V165.543H77.7502V138.323C77.0021 138.633 76.3657 139.202 75.9786 139.948L71.9419 147.979C70.7825 150.298 68.4206 151.758 65.801 151.758H56.3105C53.8113 151.758 51.6126 150.406 50.41 148.397L77.7499 136.24L77.7502 138.323C78.1639 138.151 78.6115 138.059 79.0703 138.059H80.4016C80.5595 138.059 80.715 138.07 80.8674 138.091V136.241L96.9915 143.41C97.3621 142.862 97.579 142.202 97.579 141.494V140.55C97.579 140.454 97.5828 140.358 97.5904 140.264L80.8674 132.827V104.664L77.75 105.7V89.1355L76.9234 89.9621V93.3976C76.9234 95.2871 75.3774 96.8331 73.4879 96.8331H66.6169C65.5532 96.8331 64.5983 96.3431 63.9669 95.5777L25.3947 156.11L49.459 145.408C49.5414 146.493 49.8785 147.509 50.41 148.397L23.8139 160.222L51.1921 175.8L63.6538 168.334C66.7028 166.53 70.1813 165.543 73.7026 165.543H77.7502L77.7499 190.91L51.1921 175.8L48.1741 177.607L18.6533 160.811L18.6676 160.804L63.1812 90.9478V93.3976C63.1812 94.2234 63.4767 94.9835 63.9669 95.5777L77.7498 73.9475L77.75 89.1355L80.8674 86.0178V73.9475L86.6938 83.0911H83.7944L80.8674 86.0178V104.664L82.7208 104.048C83.4508 103.79 84.095 103.403 84.6103 102.888L93.5882 93.9102L116.823 130.373C117.616 129.311 118.103 128.021 118.181 126.642L95.87 91.6284L96.1192 91.3792C97.021 90.4774 97.5363 89.2321 97.5363 87.9438C97.5363 85.2812 95.3462 83.0911 92.6837 83.0911H90.43L95.87 91.6284L93.5882 93.9102L86.6938 83.0911H90.43L83.8238 72.7243C82.3631 72.6503 80.8928 72.6129 79.4138 72.6129C78.8699 72.6129 78.3259 72.6511 77.782 72.6892C77.51 72.7083 77.238 72.7274 76.9661 72.7417L72.779 75.8856L79.3088 65.6383L83.8238 72.7243C129.23 75.0226 165.387 112.61 165.387 158.5ZM72.779 75.8856L64.5556 82.0605C63.6968 82.7046 63.1815 83.7353 63.1815 84.8089L63.1812 90.9478L72.779 75.8856ZM77.75 105.7L65.5433 109.759C64.1262 110.231 63.1815 111.563 63.1815 113.023C63.1815 115.857 62.0649 118.563 60.0895 120.538L51.4579 129.17C50.1696 130.458 49.4395 132.219 49.4395 134.022V144.887C49.4395 145.062 49.4459 145.236 49.459 145.408L77.7498 132.827L77.75 105.7ZM38.8757 185.505C39.4463 184.624 40.0887 183.788 40.7971 183.006L18.6646 170.133L35.9757 193.092C36.1817 191.777 36.5203 190.496 36.9813 189.266L70.901 234.252H68.2915C67.8675 234.252 67.4252 234.233 66.9687 234.197L79.3088 250.563L84.1388 244.157C84.0383 244.162 83.9377 244.167 83.837 244.172V241.123C83.837 240.599 83.7775 240.087 83.6647 239.596L80.8677 243.305V235.476C82.2559 236.439 83.276 237.901 83.6647 239.596L123.958 186.156H118.601L128.144 180.605L123.958 186.156H126.222C126.753 186.156 127.281 186.187 127.803 186.247L84.1388 244.157C114.544 242.511 140.783 225.108 154.651 199.898H148.897C146.835 199.898 144.817 199.082 143.357 197.622L135.928 190.192C133.726 187.991 130.866 186.604 127.803 186.247L137.12 173.89L135.802 172.547L115.958 184.09L118.364 186.156H118.601L80.8674 208.103L80.8677 235.476C79.961 234.846 78.8972 234.429 77.75 234.297V243.336L70.901 234.252H76.9663C77.2311 234.252 77.4928 234.268 77.75 234.297L77.7497 208.116L77.7296 208.105L38.8757 185.505C38.1117 186.685 37.476 187.946 36.9813 189.266L30.4508 180.605L38.8757 185.505ZM35.9757 193.092C35.8203 194.084 35.7405 195.096 35.7405 196.119V206.382C35.7405 212.523 38.6177 218.32 43.5563 222.014L53.0897 229.185C56.4841 231.721 62.4311 233.832 66.9687 234.197L35.9757 193.092ZM28.8696 112.593C28.8696 111.305 29.3849 110.06 30.2867 109.158L41.1944 98.2502C42.0962 97.3484 43.3415 96.8331 44.6298 96.8331C47.2923 96.8331 49.4825 99.0232 49.4825 101.686V108.557C49.4825 109.845 48.9671 111.09 48.0653 111.992L44.0286 116.029C43.1268 116.931 41.8814 117.446 40.5931 117.446H33.7222C31.0597 117.446 28.8696 115.256 28.8696 112.593ZM61.7585 141.645L79.3085 133.84L96.1602 141.334L79.3086 133.841L61.7585 141.645Z" />
<path d="M267.101 165.543H260.867V138.091C262.539 138.32 263.837 139.763 263.837 141.494C263.837 143.384 265.383 144.93 267.273 144.93H274.144C275.326 144.93 276.373 144.325 276.991 143.41L314.804 160.222L286.752 176.183L279.812 170.224C276.291 167.218 271.782 165.543 267.101 165.543Z" />
<path d="M313.223 156.11L277.59 140.264C277.702 138.885 278.615 137.728 279.941 137.286L293.511 132.777C294.865 132.319 296.006 131.467 296.823 130.373L300.347 135.904L299.609 136.642C298.707 137.544 298.192 138.789 298.192 140.077C298.192 142.74 300.382 144.93 303.045 144.93H306.098L300.347 135.904L302.629 133.622L298.181 126.642C298.188 126.512 298.192 126.381 298.192 126.249V124.317C298.192 120.538 301.284 117.446 305.063 117.446H320.823C323.486 117.446 325.676 119.636 325.676 122.299V126.335C325.676 128.998 323.486 131.188 320.823 131.188H307.081C305.793 131.188 304.548 131.703 303.646 132.605L302.629 133.622L309.835 144.93H306.098L313.223 156.11Z" />
<path fill-rule="evenodd" clip-rule="evenodd" d="M259.5 52C200.667 52 153 99.6673 153 158.5C153 217.333 200.667 265 259.5 265C318.333 265 366 217.333 366 158.5C366 99.6673 318.333 52 259.5 52ZM345.387 158.5C345.387 168.162 343.712 177.481 340.749 186.156H332.032C330.185 186.156 328.424 185.426 327.136 184.094L317.12 173.89L319.953 170.133L319.937 170.142L315.802 172.547L313.394 170.095C312.122 168.794 311.687 166.953 312.103 165.284L319.964 160.811L319.95 160.804L318.24 158.12L318.805 157.555V153.819C318.805 152.531 318.29 151.285 317.388 150.384L313.351 146.347C312.449 145.445 311.204 144.93 309.916 144.93H309.835L318.24 158.12L313.437 162.923C312.762 163.598 312.318 164.418 312.103 165.284L289.221 178.303L295.958 184.09L259.308 205.407L259.306 205.405L220.797 183.006C222.071 181.601 223.559 180.371 225.231 179.371L228.174 177.607L259.309 195.322L289.221 178.303L286.752 176.183L260.867 190.911V165.543H257.75V138.323C257.002 138.633 256.366 139.202 255.979 139.948L251.942 147.979C250.782 150.298 248.421 151.758 245.801 151.758H236.31C233.811 151.758 231.613 150.406 230.41 148.397L257.75 136.24L257.75 138.323C258.164 138.151 258.612 138.059 259.07 138.059H260.402C260.559 138.059 260.715 138.07 260.867 138.091V136.241L276.991 143.41C277.362 142.862 277.579 142.202 277.579 141.494V140.55C277.579 140.454 277.583 140.358 277.59 140.264L260.867 132.827V104.664L257.75 105.7V89.1355L256.923 89.9621V93.3976C256.923 95.2871 255.377 96.8331 253.488 96.8331H246.617C245.553 96.8331 244.598 96.3431 243.967 95.5777L205.395 156.11L229.459 145.408C229.541 146.493 229.879 147.509 230.41 148.397L203.814 160.222L231.192 175.8L243.654 168.334C246.703 166.53 250.181 165.543 253.703 165.543H257.75L257.75 190.91L231.192 175.8L228.174 177.607L198.653 160.811L198.668 160.804L243.181 90.9478V93.3976C243.181 94.2234 243.477 94.9835 243.967 95.5777L257.75 73.9475L257.75 89.1355L260.867 86.0178V73.9475L266.694 83.0911H263.794L260.867 86.0178V104.664L262.721 104.048C263.451 103.79 264.095 103.403 264.61 102.888L273.588 93.9102L296.823 130.373C297.616 129.311 298.103 128.021 298.181 126.642L275.87 91.6284L276.119 91.3792C277.021 90.4774 277.536 89.2321 277.536 87.9438C277.536 85.2812 275.346 83.0911 272.684 83.0911H270.43L275.87 91.6284L273.588 93.9102L266.694 83.0911H270.43L263.824 72.7243C262.363 72.6503 260.893 72.6129 259.414 72.6129C258.87 72.6129 258.326 72.6511 257.782 72.6892C257.51 72.7083 257.238 72.7274 256.966 72.7417L252.779 75.8856L259.309 65.6383L263.824 72.7243C309.23 75.0226 345.387 112.61 345.387 158.5ZM252.779 75.8856L244.556 82.0605C243.697 82.7046 243.181 83.7353 243.181 84.8089L243.181 90.9478L252.779 75.8856ZM257.75 105.7L245.543 109.759C244.126 110.231 243.181 111.563 243.181 113.023C243.181 115.857 242.065 118.563 240.09 120.538L231.458 129.17C230.17 130.458 229.44 132.219 229.44 134.022V144.887C229.44 145.062 229.446 145.236 229.459 145.408L257.75 132.827L257.75 105.7ZM218.876 185.505C219.446 184.624 220.089 183.788 220.797 183.006L198.665 170.133L215.976 193.092C216.182 191.777 216.52 190.496 216.981 189.266L250.901 234.252H248.291C247.867 234.252 247.425 234.233 246.969 234.197L259.309 250.563L264.139 244.157C264.038 244.162 263.938 244.167 263.837 244.172V241.123C263.837 240.599 263.777 240.087 263.665 239.596L260.868 243.305V235.476C262.256 236.439 263.276 237.901 263.665 239.596L303.958 186.156H298.601L308.144 180.605L303.958 186.156H306.222C306.753 186.156 307.281 186.187 307.803 186.247L264.139 244.157C294.544 242.511 320.783 225.108 334.651 199.898H328.897C326.835 199.898 324.817 199.082 323.357 197.622L315.928 190.192C313.726 187.991 310.866 186.604 307.803 186.247L317.12 173.89L315.802 172.547L295.958 184.09L298.364 186.156H298.601L260.867 208.103L260.868 235.476C259.961 234.846 258.897 234.429 257.75 234.297V243.336L250.901 234.252H256.966C257.231 234.252 257.493 234.268 257.75 234.297L257.75 208.116L257.73 208.105L218.876 185.505C218.112 186.685 217.476 187.946 216.981 189.266L210.451 180.605L218.876 185.505ZM215.976 193.092C215.82 194.084 215.741 195.096 215.741 196.119V206.382C215.741 212.523 218.618 218.32 223.556 222.014L233.09 229.185C236.484 231.721 242.431 233.832 246.969 234.197L215.976 193.092ZM208.87 112.593C208.87 111.305 209.385 110.06 210.287 109.158L221.194 98.2502C222.096 97.3484 223.342 96.8331 224.63 96.8331C227.292 96.8331 229.482 99.0232 229.482 101.686V108.557C229.482 109.845 228.967 111.09 228.065 111.992L224.029 116.029C223.127 116.931 221.881 117.446 220.593 117.446H213.722C211.06 117.446 208.87 115.256 208.87 112.593ZM241.758 141.645L259.308 133.84L276.16 141.334L259.309 133.841L241.758 141.645Z" />
<path d="M447.101 165.543H440.867V138.091C442.539 138.32 443.837 139.763 443.837 141.494C443.837 143.384 445.383 144.93 447.273 144.93H454.144C455.326 144.93 456.373 144.325 456.991 143.41L494.804 160.222L466.752 176.183L459.812 170.224C456.291 167.218 451.782 165.543 447.101 165.543Z" />
<path d="M493.223 156.11L457.59 140.264C457.702 138.885 458.615 137.728 459.941 137.286L473.511 132.777C474.865 132.319 476.006 131.467 476.823 130.373L480.347 135.904L479.609 136.642C478.707 137.544 478.192 138.789 478.192 140.077C478.192 142.74 480.382 144.93 483.045 144.93H486.098L480.347 135.904L482.629 133.622L478.181 126.642C478.188 126.512 478.192 126.381 478.192 126.249V124.317C478.192 120.538 481.284 117.446 485.063 117.446H500.823C503.486 117.446 505.676 119.636 505.676 122.299V126.335C505.676 128.998 503.486 131.188 500.823 131.188H487.081C485.793 131.188 484.548 131.703 483.646 132.605L482.629 133.622L489.835 144.93H486.098L493.223 156.11Z" />
<path fill-rule="evenodd" clip-rule="evenodd" d="M439.5 52C380.667 52 333 99.6673 333 158.5C333 217.333 380.667 265 439.5 265C498.333 265 546 217.333 546 158.5C546 99.6673 498.333 52 439.5 52ZM525.387 158.5C525.387 168.162 523.712 177.481 520.749 186.156H512.032C510.185 186.156 508.424 185.426 507.136 184.094L497.12 173.89L499.953 170.133L499.937 170.142L495.802 172.547L493.394 170.095C492.122 168.794 491.687 166.953 492.103 165.284L499.964 160.811L499.95 160.804L498.24 158.12L498.805 157.555V153.819C498.805 152.531 498.29 151.285 497.388 150.384L493.351 146.347C492.449 145.445 491.204 144.93 489.916 144.93H489.835L498.24 158.12L493.437 162.923C492.762 163.598 492.318 164.418 492.103 165.284L469.221 178.303L475.958 184.09L439.308 205.407L439.306 205.405L400.797 183.006C402.071 181.601 403.559 180.371 405.231 179.371L408.174 177.607L439.309 195.322L469.221 178.303L466.752 176.183L440.867 190.911V165.543H437.75V138.323C437.002 138.633 436.366 139.202 435.979 139.948L431.942 147.979C430.782 150.298 428.421 151.758 425.801 151.758H416.31C413.811 151.758 411.613 150.406 410.41 148.397L437.75 136.24L437.75 138.323C438.164 138.151 438.612 138.059 439.07 138.059H440.402C440.559 138.059 440.715 138.07 440.867 138.091V136.241L456.991 143.41C457.362 142.862 457.579 142.202 457.579 141.494V140.55C457.579 140.454 457.583 140.358 457.59 140.264L440.867 132.827V104.664L437.75 105.7V89.1355L436.923 89.9621V93.3976C436.923 95.2871 435.377 96.8331 433.488 96.8331H426.617C425.553 96.8331 424.598 96.3431 423.967 95.5777L385.395 156.11L409.459 145.408C409.541 146.493 409.879 147.509 410.41 148.397L383.814 160.222L411.192 175.8L423.654 168.334C426.703 166.53 430.181 165.543 433.703 165.543H437.75L437.75 190.91L411.192 175.8L408.174 177.607L378.653 160.811L378.668 160.804L423.181 90.9478V93.3976C423.181 94.2234 423.477 94.9835 423.967 95.5777L437.75 73.9475L437.75 89.1355L440.867 86.0178V73.9475L446.694 83.0911H443.794L440.867 86.0178V104.664L442.721 104.048C443.451 103.79 444.095 103.403 444.61 102.888L453.588 93.9102L476.823 130.373C477.616 129.311 478.103 128.021 478.181 126.642L455.87 91.6284L456.119 91.3792C457.021 90.4774 457.536 89.2321 457.536 87.9438C457.536 85.2812 455.346 83.0911 452.684 83.0911H450.43L455.87 91.6284L453.588 93.9102L446.694 83.0911H450.43L443.824 72.7243C442.363 72.6503 440.893 72.6129 439.414 72.6129C438.87 72.6129 438.326 72.6511 437.782 72.6892C437.51 72.7083 437.238 72.7274 436.966 72.7417L432.779 75.8856L439.309 65.6383L443.824 72.7243C489.23 75.0226 525.387 112.61 525.387 158.5ZM432.779 75.8856L424.556 82.0605C423.697 82.7046 423.181 83.7353 423.181 84.8089L423.181 90.9478L432.779 75.8856ZM437.75 105.7L425.543 109.759C424.126 110.231 423.181 111.563 423.181 113.023C423.181 115.857 422.065 118.563 420.09 120.538L411.458 129.17C410.17 130.458 409.44 132.219 409.44 134.022V144.887C409.44 145.062 409.446 145.236 409.459 145.408L437.75 132.827L437.75 105.7ZM398.876 185.505C399.446 184.624 400.089 183.788 400.797 183.006L378.665 170.133L395.976 193.092C396.182 191.777 396.52 190.496 396.981 189.266L430.901 234.252H428.291C427.867 234.252 427.425 234.233 426.969 234.197L439.309 250.563L444.139 244.157C444.038 244.162 443.938 244.167 443.837 244.172V241.123C443.837 240.599 443.777 240.087 443.665 239.596L440.868 243.305V235.476C442.256 236.439 443.276 237.901 443.665 239.596L483.958 186.156H478.601L488.144 180.605L483.958 186.156H486.222C486.753 186.156 487.281 186.187 487.803 186.247L444.139 244.157C474.544 242.511 500.783 225.108 514.651 199.898H508.897C506.835 199.898 504.817 199.082 503.357 197.622L495.928 190.192C493.726 187.991 490.866 186.604 487.803 186.247L497.12 173.89L495.802 172.547L475.958 184.09L478.364 186.156H478.601L440.867 208.103L440.868 235.476C439.961 234.846 438.897 234.429 437.75 234.297V243.336L430.901 234.252H436.966C437.231 234.252 437.493 234.268 437.75 234.297L437.75 208.116L437.73 208.105L398.876 185.505C398.112 186.685 397.476 187.946 396.981 189.266L390.451 180.605L398.876 185.505ZM395.976 193.092C395.82 194.084 395.741 195.096 395.741 196.119V206.382C395.741 212.523 398.618 218.32 403.556 222.014L413.09 229.185C416.484 231.721 422.431 233.832 426.969 234.197L395.976 193.092ZM388.87 112.593C388.87 111.305 389.385 110.06 390.287 109.158L401.194 98.2502C402.096 97.3484 403.342 96.8331 404.63 96.8331C407.292 96.8331 409.482 99.0232 409.482 101.686V108.557C409.482 109.845 408.967 111.09 408.065 111.992L404.029 116.029C403.127 116.931 401.881 117.446 400.593 117.446H393.722C391.06 117.446 388.87 115.256 388.87 112.593ZM421.758 141.645L439.308 133.84L456.16 141.334L439.309 133.841L421.758 141.645Z" />
<path d="M627.101 165.543H620.867V138.091C622.539 138.32 623.837 139.763 623.837 141.494C623.837 143.384 625.383 144.93 627.273 144.93H634.144C635.326 144.93 636.373 144.325 636.991 143.41L674.804 160.222L646.752 176.183L639.812 170.224C636.291 167.218 631.782 165.543 627.101 165.543Z" />
<path d="M673.223 156.11L637.59 140.264C637.702 138.885 638.615 137.728 639.941 137.286L653.511 132.777C654.865 132.319 656.006 131.467 656.823 130.373L660.347 135.904L659.609 136.642C658.707 137.544 658.192 138.789 658.192 140.077C658.192 142.74 660.382 144.93 663.045 144.93H666.098L660.347 135.904L662.629 133.622L658.181 126.642C658.188 126.512 658.192 126.381 658.192 126.249V124.317C658.192 120.538 661.284 117.446 665.063 117.446H680.823C683.486 117.446 685.676 119.636 685.676 122.299V126.335C685.676 128.998 683.486 131.188 680.823 131.188H667.081C665.793 131.188 664.548 131.703 663.646 132.605L662.629 133.622L669.835 144.93H666.098L673.223 156.11Z" />
<path fill-rule="evenodd" clip-rule="evenodd" d="M619.5 52C560.667 52 513 99.6673 513 158.5C513 217.333 560.667 265 619.5 265C678.333 265 726 217.333 726 158.5C726 99.6673 678.333 52 619.5 52ZM705.387 158.5C705.387 168.162 703.712 177.481 700.749 186.156H692.032C690.185 186.156 688.424 185.426 687.136 184.094L677.12 173.89L679.953 170.133L679.937 170.142L675.802 172.547L673.394 170.095C672.122 168.794 671.687 166.953 672.103 165.284L679.964 160.811L679.95 160.804L678.24 158.12L678.805 157.555V153.819C678.805 152.531 678.29 151.285 677.388 150.384L673.351 146.347C672.449 145.445 671.204 144.93 669.916 144.93H669.835L678.24 158.12L673.437 162.923C672.762 163.598 672.318 164.418 672.103 165.284L649.221 178.303L655.958 184.09L619.308 205.407L619.306 205.405L580.797 183.006C582.071 181.601 583.559 180.371 585.231 179.371L588.174 177.607L619.309 195.322L649.221 178.303L646.752 176.183L620.867 190.911V165.543H617.75V138.323C617.002 138.633 616.366 139.202 615.979 139.948L611.942 147.979C610.782 150.298 608.421 151.758 605.801 151.758H596.31C593.811 151.758 591.613 150.406 590.41 148.397L617.75 136.24L617.75 138.323C618.164 138.151 618.612 138.059 619.07 138.059H620.402C620.559 138.059 620.715 138.07 620.867 138.091V136.241L636.991 143.41C637.362 142.862 637.579 142.202 637.579 141.494V140.55C637.579 140.454 637.583 140.358 637.59 140.264L620.867 132.827V104.664L617.75 105.7V89.1355L616.923 89.9621V93.3976C616.923 95.2871 615.377 96.8331 613.488 96.8331H606.617C605.553 96.8331 604.598 96.3431 603.967 95.5777L565.395 156.11L589.459 145.408C589.541 146.493 589.879 147.509 590.41 148.397L563.814 160.222L591.192 175.8L603.654 168.334C606.703 166.53 610.181 165.543 613.703 165.543H617.75L617.75 190.91L591.192 175.8L588.174 177.607L558.653 160.811L558.668 160.804L603.181 90.9478V93.3976C603.181 94.2234 603.477 94.9835 603.967 95.5777L617.75 73.9475L617.75 89.1355L620.867 86.0178V73.9475L626.694 83.0911H623.794L620.867 86.0178V104.664L622.721 104.048C623.451 103.79 624.095 103.403 624.61 102.888L633.588 93.9102L656.823 130.373C657.616 129.311 658.103 128.021 658.181 126.642L635.87 91.6284L636.119 91.3792C637.021 90.4774 637.536 89.2321 637.536 87.9438C637.536 85.2812 635.346 83.0911 632.684 83.0911H630.43L635.87 91.6284L633.588 93.9102L626.694 83.0911H630.43L623.824 72.7243C622.363 72.6503 620.893 72.6129 619.414 72.6129C618.87 72.6129 618.326 72.6511 617.782 72.6892C617.51 72.7083 617.238 72.7274 616.966 72.7417L612.779 75.8856L619.309 65.6383L623.824 72.7243C669.23 75.0226 705.387 112.61 705.387 158.5ZM612.779 75.8856L604.556 82.0605C603.697 82.7046 603.181 83.7353 603.181 84.8089L603.181 90.9478L612.779 75.8856ZM617.75 105.7L605.543 109.759C604.126 110.231 603.181 111.563 603.181 113.023C603.181 115.857 602.065 118.563 600.09 120.538L591.458 129.17C590.17 130.458 589.44 132.219 589.44 134.022V144.887C589.44 145.062 589.446 145.236 589.459 145.408L617.75 132.827L617.75 105.7ZM578.876 185.505C579.446 184.624 580.089 183.788 580.797 183.006L558.665 170.133L575.976 193.092C576.182 191.777 576.52 190.496 576.981 189.266L610.901 234.252H608.291C607.867 234.252 607.425 234.233 606.969 234.197L619.309 250.563L624.139 244.157C624.038 244.162 623.938 244.167 623.837 244.172V241.123C623.837 240.599 623.777 240.087 623.665 239.596L620.868 243.305V235.476C622.256 236.439 623.276 237.901 623.665 239.596L663.958 186.156H658.601L668.144 180.605L663.958 186.156H666.222C666.753 186.156 667.281 186.187 667.803 186.247L624.139 244.157C654.544 242.511 680.783 225.108 694.651 199.898H688.897C686.835 199.898 684.817 199.082 683.357 197.622L675.928 190.192C673.726 187.991 670.866 186.604 667.803 186.247L677.12 173.89L675.802 172.547L655.958 184.09L658.364 186.156H658.601L620.867 208.103L620.868 235.476C619.961 234.846 618.897 234.429 617.75 234.297V243.336L610.901 234.252H616.966C617.231 234.252 617.493 234.268 617.75 234.297L617.75 208.116L617.73 208.105L578.876 185.505C578.112 186.685 577.476 187.946 576.981 189.266L570.451 180.605L578.876 185.505ZM575.976 193.092C575.82 194.084 575.741 195.096 575.741 196.119V206.382C575.741 212.523 578.618 218.32 583.556 222.014L593.09 229.185C596.484 231.721 602.431 233.832 606.969 234.197L575.976 193.092ZM568.87 112.593C568.87 111.305 569.385 110.06 570.287 109.158L581.194 98.2502C582.096 97.3484 583.342 96.8331 584.63 96.8331C587.292 96.8331 589.482 99.0232 589.482 101.686V108.557C589.482 109.845 588.967 111.09 588.065 111.992L584.029 116.029C583.127 116.931 581.881 117.446 580.593 117.446H573.722C571.06 117.446 568.87 115.256 568.87 112.593ZM601.758 141.645L619.308 133.84L636.16 141.334L619.309 133.841L601.758 141.645Z" />
<path d="M807.101 165.543H800.867V138.091C802.539 138.32 803.837 139.763 803.837 141.494C803.837 143.384 805.383 144.93 807.273 144.93H814.144C815.326 144.93 816.373 144.325 816.991 143.41L854.804 160.222L826.752 176.183L819.812 170.224C816.291 167.218 811.782 165.543 807.101 165.543Z" />
<path d="M853.223 156.11L817.59 140.264C817.702 138.885 818.615 137.728 819.941 137.286L833.511 132.777C834.865 132.319 836.006 131.467 836.823 130.373L840.347 135.904L839.609 136.642C838.707 137.544 838.192 138.789 838.192 140.077C838.192 142.74 840.382 144.93 843.045 144.93H846.098L840.347 135.904L842.629 133.622L838.181 126.642C838.188 126.512 838.192 126.381 838.192 126.249V124.317C838.192 120.538 841.284 117.446 845.063 117.446H860.823C863.486 117.446 865.676 119.636 865.676 122.299V126.335C865.676 128.998 863.486 131.188 860.823 131.188H847.081C845.793 131.188 844.548 131.703 843.646 132.605L842.629 133.622L849.835 144.93H846.098L853.223 156.11Z" />
<path fill-rule="evenodd" clip-rule="evenodd" d="M799.5 52C740.667 52 693 99.6673 693 158.5C693 217.333 740.667 265 799.5 265C858.333 265 906 217.333 906 158.5C906 99.6673 858.333 52 799.5 52ZM885.387 158.5C885.387 168.162 883.712 177.481 880.749 186.156H872.032C870.185 186.156 868.424 185.426 867.136 184.094L857.12 173.89L859.953 170.133L859.937 170.142L855.802 172.547L853.394 170.095C852.122 168.794 851.687 166.953 852.103 165.284L859.964 160.811L859.95 160.804L858.24 158.12L858.805 157.555V153.819C858.805 152.531 858.29 151.285 857.388 150.384L853.351 146.347C852.449 145.445 851.204 144.93 849.916 144.93H849.835L858.24 158.12L853.437 162.923C852.762 163.598 852.318 164.418 852.103 165.284L829.221 178.303L835.958 184.09L799.308 205.407L799.306 205.405L760.797 183.006C762.071 181.601 763.559 180.371 765.231 179.371L768.174 177.607L799.309 195.322L829.221 178.303L826.752 176.183L800.867 190.911V165.543H797.75V138.323C797.002 138.633 796.366 139.202 795.979 139.948L791.942 147.979C790.782 150.298 788.421 151.758 785.801 151.758H776.31C773.811 151.758 771.613 150.406 770.41 148.397L797.75 136.24L797.75 138.323C798.164 138.151 798.612 138.059 799.07 138.059H800.402C800.559 138.059 800.715 138.07 800.867 138.091V136.241L816.991 143.41C817.362 142.862 817.579 142.202 817.579 141.494V140.55C817.579 140.454 817.583 140.358 817.59 140.264L800.867 132.827V104.664L797.75 105.7V89.1355L796.923 89.9621V93.3976C796.923 95.2871 795.377 96.8331 793.488 96.8331H786.617C785.553 96.8331 784.598 96.3431 783.967 95.5777L745.395 156.11L769.459 145.408C769.541 146.493 769.879 147.509 770.41 148.397L743.814 160.222L771.192 175.8L783.654 168.334C786.703 166.53 790.181 165.543 793.703 165.543H797.75L797.75 190.91L771.192 175.8L768.174 177.607L738.653 160.811L738.668 160.804L783.181 90.9478V93.3976C783.181 94.2234 783.477 94.9835 783.967 95.5777L797.75 73.9475L797.75 89.1355L800.867 86.0178V73.9475L806.694 83.0911H803.794L800.867 86.0178V104.664L802.721 104.048C803.451 103.79 804.095 103.403 804.61 102.888L813.588 93.9102L836.823 130.373C837.616 129.311 838.103 128.021 838.181 126.642L815.87 91.6284L816.119 91.3792C817.021 90.4774 817.536 89.2321 817.536 87.9438C817.536 85.2812 815.346 83.0911 812.684 83.0911H810.43L815.87 91.6284L813.588 93.9102L806.694 83.0911H810.43L803.824 72.7243C802.363 72.6503 800.893 72.6129 799.414 72.6129C798.87 72.6129 798.326 72.6511 797.782 72.6892C797.51 72.7083 797.238 72.7274 796.966 72.7417L792.779 75.8856L799.309 65.6383L803.824 72.7243C849.23 75.0226 885.387 112.61 885.387 158.5ZM792.779 75.8856L784.556 82.0605C783.697 82.7046 783.181 83.7353 783.181 84.8089L783.181 90.9478L792.779 75.8856ZM797.75 105.7L785.543 109.759C784.126 110.231 783.181 111.563 783.181 113.023C783.181 115.857 782.065 118.563 780.09 120.538L771.458 129.17C770.17 130.458 769.44 132.219 769.44 134.022V144.887C769.44 145.062 769.446 145.236 769.459 145.408L797.75 132.827L797.75 105.7ZM758.876 185.505C759.446 184.624 760.089 183.788 760.797 183.006L738.665 170.133L755.976 193.092C756.182 191.777 756.52 190.496 756.981 189.266L790.901 234.252H788.291C787.867 234.252 787.425 234.233 786.969 234.197L799.309 250.563L804.139 244.157C804.038 244.162 803.938 244.167 803.837 244.172V241.123C803.837 240.599 803.777 240.087 803.665 239.596L800.868 243.305V235.476C802.256 236.439 803.276 237.901 803.665 239.596L843.958 186.156H838.601L848.144 180.605L843.958 186.156H846.222C846.753 186.156 847.281 186.187 847.803 186.247L804.139 244.157C834.544 242.511 860.783 225.108 874.651 199.898H868.897C866.835 199.898 864.817 199.082 863.357 197.622L855.928 190.192C853.726 187.991 850.866 186.604 847.803 186.247L857.12 173.89L855.802 172.547L835.958 184.09L838.364 186.156H838.601L800.867 208.103L800.868 235.476C799.961 234.846 798.897 234.429 797.75 234.297V243.336L790.901 234.252H796.966C797.231 234.252 797.493 234.268 797.75 234.297L797.75 208.116L797.73 208.105L758.876 185.505C758.112 186.685 757.476 187.946 756.981 189.266L750.451 180.605L758.876 185.505ZM755.976 193.092C755.82 194.084 755.741 195.096 755.741 196.119V206.382C755.741 212.523 758.618 218.32 763.556 222.014L773.09 229.185C776.484 231.721 782.431 233.832 786.969 234.197L755.976 193.092ZM748.87 112.593C748.87 111.305 749.385 110.06 750.287 109.158L761.194 98.2502C762.096 97.3484 763.342 96.8331 764.63 96.8331C767.292 96.8331 769.482 99.0232 769.482 101.686V108.557C769.482 109.845 768.967 111.09 768.065 111.992L764.029 116.029C763.127 116.931 761.881 117.446 760.593 117.446H753.722C751.06 117.446 748.87 115.256 748.87 112.593ZM781.758 141.645L799.308 133.84L816.16 141.334L799.309 133.841L781.758 141.645Z" />

</svg>
