<svg width="500" height="200" viewBox="0 0 500 200" fill="none" xmlns="http://www.w3.org/2000/svg" fill-opacity="0.125" fill="currentcolor">
<path d="M27.5669 73.1581H23.0015V53.0522C24.2255 53.22 25.1766 54.2769 25.1766 55.5452C25.1766 56.929 26.3089 58.0613 27.6927 58.0613H32.725C33.5905 58.0613 34.3574 57.6184 34.8107 56.948L62.5042 69.2613L41.9589 80.9511L36.8766 76.5863C34.2976 74.3847 30.9952 73.1581 27.5669 73.1581Z" />
<path d="M61.3464 66.2497L35.2493 54.6442C35.3308 53.6342 35.9994 52.7868 36.971 52.4629L46.9097 49.1605C47.9009 48.825 48.7367 48.2011 49.3349 47.4001L51.9162 51.4507L51.3758 51.9911C50.7153 52.6516 50.3379 53.5637 50.3379 54.5073C50.3379 56.4573 51.9419 58.0613 53.8919 58.0613H56.1284L51.9162 51.4507L53.5873 49.7795L50.3296 44.6672C50.335 44.5719 50.3379 44.4761 50.3379 44.3798V42.9645C50.3379 40.1968 52.6024 37.9323 55.3702 37.9323H66.9129C68.8629 37.9323 70.4669 39.5363 70.4669 41.4863V44.4427C70.4669 46.3927 68.8629 47.9968 66.9129 47.9968H56.8484C55.9048 47.9968 54.9927 48.3742 54.3323 49.0347L53.5873 49.7795L58.8648 58.0613H56.1284L61.3464 66.2497Z" />
<path fill-rule="evenodd" clip-rule="evenodd" d="M22 -10C-21.0887 -10 -56 24.9113 -56 68C-56 111.089 -21.0887 146 22 146C65.0887 146 100 111.089 100 68C100 24.9113 65.0887 -10 22 -10ZM84.9032 68C84.9032 75.0766 83.6766 81.9016 81.5065 88.2548H75.1218C73.7694 88.2548 72.4798 87.7202 71.5363 86.7452L64.2005 79.2718L66.2753 76.5198L66.2637 76.5265L63.2351 78.2883L61.4718 76.4919C60.5399 75.5393 60.2216 74.1912 60.5259 72.9685L66.2835 69.6924L66.273 69.6876L65.0207 67.722L65.4347 67.3081V64.5718C65.4347 63.6282 65.0573 62.7161 64.3968 62.0556L61.4403 59.0992C60.7798 58.4387 59.8677 58.0613 58.9242 58.0613H58.8648L65.0207 67.722L61.503 71.2395C61.0089 71.7337 60.6837 72.3342 60.5259 72.9685L43.7671 82.5038L48.7015 86.7417L21.8597 102.354L21.8576 102.353L-6.34578 85.9483C-5.41287 84.919 -4.32294 84.0184 -3.09839 83.2855L-0.942938 81.9942L21.8598 94.9685L43.7671 82.5038L41.9589 80.9511L23.0015 91.7374V73.1581H20.7184V53.2225C20.1706 53.4497 19.7045 53.8661 19.421 54.4129L16.4645 60.2944C15.6153 61.9927 13.8855 63.0621 11.9669 63.0621H5.01613C3.18573 63.0621 1.57542 62.0717 0.694641 60.6003L20.7182 51.6971L20.7184 53.2225C21.0214 53.0968 21.3493 53.029 21.6853 53.029H22.6603C22.7759 53.029 22.8898 53.0369 23.0015 53.0522V51.6973L34.8107 56.948C35.0821 56.5466 35.2409 56.0635 35.2409 55.5452V54.8532C35.2409 54.7829 35.2438 54.7131 35.2493 54.6442L23.0015 49.1974V28.5706L20.7183 29.3298V17.1978L20.1129 17.8032V20.3194C20.1129 21.7032 18.9806 22.8355 17.5968 22.8355H12.5645C11.7854 22.8355 11.0861 22.4766 10.6237 21.9161L-17.6264 66.2497L-0.00186475 58.4118C0.0584585 59.2059 0.305415 59.9501 0.694641 60.6003L-18.7842 69.2612L1.26743 80.6701L10.3944 75.2024C12.6274 73.8815 15.175 73.1581 17.754 73.1581H20.7184L20.7182 91.7372L1.26743 80.6701L-0.942938 81.9942L-22.5638 69.6923L-22.5533 69.6877L10.0482 18.5252V20.3194C10.0482 20.9241 10.2646 21.4809 10.6237 21.9161L20.7181 6.0742L20.7183 17.1978L23.0015 14.9145V6.07422L27.2687 12.771H25.1452L23.0015 14.9145V28.5706L24.3589 28.1194C24.8935 27.9306 25.3653 27.6476 25.7427 27.2702L32.3181 20.6948L49.3349 47.4001C49.9157 46.6223 50.2725 45.6774 50.3296 44.6672L33.9893 19.0236L34.1718 18.8411C34.8323 18.1806 35.2097 17.2685 35.2097 16.325C35.2097 14.375 33.6057 12.771 31.6557 12.771H30.005L33.9893 19.0236L32.3181 20.6948L27.2687 12.771H30.005L25.1667 5.17833C24.0969 5.12418 23.0201 5.09677 21.9369 5.09677C21.5385 5.09677 21.1401 5.12473 20.7417 5.15269C20.5426 5.16667 20.3434 5.18064 20.1442 5.19113L17.0776 7.49371L21.8599 -0.0113608L25.1667 5.17833C58.4221 6.86163 84.9032 34.3901 84.9032 68ZM17.0776 7.49371L11.0548 12.0161C10.4258 12.4879 10.0484 13.2427 10.0484 14.029L10.0482 18.5252L17.0776 7.49371ZM20.7183 29.3298L11.7782 32.3024C10.7403 32.6484 10.0484 33.6234 10.0484 34.6927C10.0484 36.7686 9.23065 38.75 7.78387 40.1968L1.4621 46.5185C0.518549 47.4621 -0.0161285 48.7516 -0.0161285 50.0726V58.0298C-0.0161285 58.1583 -0.0114415 58.2857 -0.00186475 58.4118L20.7181 49.1974L20.7183 29.3298ZM-7.75298 87.7783C-7.33512 87.133 -6.86463 86.5207 -6.34578 85.9483L-22.5555 76.5198L-9.87696 93.3349C-9.72609 92.3721 -9.47811 91.4337 -9.14049 90.5329L15.7021 123.481H13.7909C13.4804 123.481 13.1565 123.467 12.8221 123.44L21.8599 135.426L25.3975 130.734C25.3238 130.738 25.2501 130.742 25.1764 130.746V128.513C25.1764 128.129 25.1328 127.754 25.0502 127.394L23.0017 130.111V124.377C24.0184 125.082 24.7655 126.153 25.0502 127.394L54.561 88.2548H50.6371L57.6266 84.1894L54.561 88.2548H56.2192C56.6082 88.2548 56.9945 88.2775 57.3765 88.322L25.3975 130.734C47.6657 129.529 66.8836 116.783 77.0403 98.3194H72.8258C71.3161 98.3194 69.8379 97.7218 68.7685 96.6524L63.3274 91.2113C61.7149 89.5988 59.6199 88.5833 57.3765 88.322L64.2005 79.2718L63.2351 78.2883L48.7015 86.7417L50.4635 88.2548H50.6371L23.0015 104.329L23.0017 124.377C22.3377 123.916 21.5585 123.61 20.7183 123.513V130.133L15.7021 123.481H20.1444C20.3383 123.481 20.5299 123.492 20.7183 123.513L20.7181 104.339L20.7034 104.33L-7.75298 87.7783C-8.31254 88.6425 -8.77816 89.5661 -9.14049 90.5329L-13.9233 84.1893L-7.75298 87.7783ZM-9.87696 93.3349C-9.99079 94.0616 -10.0492 94.8026 -10.0492 95.5516V103.069C-10.0492 107.566 -7.94194 111.812 -4.325 114.517L2.65726 119.769C5.14331 121.627 9.49882 123.173 12.8221 123.44L-9.87696 93.3349ZM-15.0814 34.3782C-15.0814 33.4347 -14.704 32.5226 -14.0436 31.8621L-6.05484 23.8734C-5.39435 23.2129 -4.48226 22.8355 -3.53871 22.8355C-1.58871 22.8355 0.0153231 24.4395 0.0153231 26.3895V31.4218C0.0153231 32.3653 -0.362096 33.2774 -1.02258 33.9379L-3.97903 36.8944C-4.63952 37.5548 -5.55162 37.9323 -6.49516 37.9323H-11.5274C-13.4774 37.9323 -15.0814 36.3282 -15.0814 34.3782ZM9.00622 55.6552L21.8597 49.9391L34.2018 55.4277L21.8598 49.9401L9.00622 55.6552Z" />
<path d="M150.567 73.1581H146.001V53.0522C147.226 53.22 148.177 54.2769 148.177 55.5452C148.177 56.929 149.309 58.0613 150.693 58.0613H155.725C156.591 58.0613 157.357 57.6184 157.811 56.948L185.504 69.2613L164.959 80.9511L159.877 76.5863C157.298 74.3847 153.995 73.1581 150.567 73.1581Z" />
<path d="M184.346 66.2497L158.249 54.6442C158.331 53.6342 158.999 52.7868 159.971 52.4629L169.91 49.1605C170.901 48.825 171.737 48.2011 172.335 47.4001L174.916 51.4507L174.376 51.9911C173.715 52.6516 173.338 53.5637 173.338 54.5073C173.338 56.4573 174.942 58.0613 176.892 58.0613H179.128L174.916 51.4507L176.587 49.7795L173.33 44.6672C173.335 44.5719 173.338 44.4761 173.338 44.3798V42.9645C173.338 40.1968 175.602 37.9323 178.37 37.9323H189.913C191.863 37.9323 193.467 39.5363 193.467 41.4863V44.4427C193.467 46.3927 191.863 47.9968 189.913 47.9968H179.848C178.905 47.9968 177.993 48.3742 177.332 49.0347L176.587 49.7795L181.865 58.0613H179.128L184.346 66.2497Z" />
<path fill-rule="evenodd" clip-rule="evenodd" d="M145 -10C101.911 -10 67 24.9113 67 68C67 111.089 101.911 146 145 146C188.089 146 223 111.089 223 68C223 24.9113 188.089 -10 145 -10ZM207.903 68C207.903 75.0766 206.677 81.9016 204.506 88.2548H198.122C196.769 88.2548 195.48 87.7202 194.536 86.7452L187.201 79.2718L189.275 76.5198L189.264 76.5265L186.235 78.2883L184.472 76.4919C183.54 75.5393 183.222 74.1912 183.526 72.9685L189.283 69.6924L189.273 69.6876L188.021 67.722L188.435 67.3081V64.5718C188.435 63.6282 188.057 62.7161 187.397 62.0556L184.44 59.0992C183.78 58.4387 182.868 58.0613 181.924 58.0613H181.865L188.021 67.722L184.503 71.2395C184.009 71.7337 183.684 72.3342 183.526 72.9685L166.767 82.5038L171.702 86.7417L144.86 102.354L144.858 102.353L116.654 85.9483C117.587 84.919 118.677 84.0184 119.902 83.2855L122.057 81.9942L144.86 94.9685L166.767 82.5038L164.959 80.9511L146.001 91.7374V73.1581H143.718V53.2225C143.171 53.4497 142.704 53.8661 142.421 54.4129L139.465 60.2944C138.615 61.9927 136.885 63.0621 134.967 63.0621H128.016C126.186 63.0621 124.575 62.0717 123.695 60.6003L143.718 51.6971L143.718 53.2225C144.021 53.0968 144.349 53.029 144.685 53.029H145.66C145.776 53.029 145.89 53.0369 146.001 53.0522V51.6973L157.811 56.948C158.082 56.5466 158.241 56.0635 158.241 55.5452V54.8532C158.241 54.7829 158.244 54.7131 158.249 54.6442L146.001 49.1974V28.5706L143.718 29.3298V17.1978L143.113 17.8032V20.3194C143.113 21.7032 141.981 22.8355 140.597 22.8355H135.565C134.785 22.8355 134.086 22.4766 133.624 21.9161L105.374 66.2497L122.998 58.4118C123.058 59.2059 123.305 59.9501 123.695 60.6003L104.216 69.2612L124.267 80.6701L133.394 75.2024C135.627 73.8815 138.175 73.1581 140.754 73.1581H143.718L143.718 91.7372L124.267 80.6701L122.057 81.9942L100.436 69.6923L100.447 69.6877L133.048 18.5252V20.3194C133.048 20.9241 133.265 21.4809 133.624 21.9161L143.718 6.0742L143.718 17.1978L146.001 14.9145V6.07422L150.269 12.771H148.145L146.001 14.9145V28.5706L147.359 28.1194C147.894 27.9306 148.365 27.6476 148.743 27.2702L155.318 20.6948L172.335 47.4001C172.916 46.6223 173.272 45.6774 173.33 44.6672L156.989 19.0236L157.172 18.8411C157.832 18.1806 158.21 17.2685 158.21 16.325C158.21 14.375 156.606 12.771 154.656 12.771H153.005L156.989 19.0236L155.318 20.6948L150.269 12.771H153.005L148.167 5.17833C147.097 5.12418 146.02 5.09677 144.937 5.09677C144.539 5.09677 144.14 5.12473 143.742 5.15269C143.543 5.16667 143.343 5.18064 143.144 5.19113L140.078 7.49371L144.86 -0.0113608L148.167 5.17833C181.422 6.86163 207.903 34.3901 207.903 68ZM140.078 7.49371L134.055 12.0161C133.426 12.4879 133.048 13.2427 133.048 14.029L133.048 18.5252L140.078 7.49371ZM143.718 29.3298L134.778 32.3024C133.74 32.6484 133.048 33.6234 133.048 34.6927C133.048 36.7686 132.231 38.75 130.784 40.1968L124.462 46.5185C123.519 47.4621 122.984 48.7516 122.984 50.0726V58.0298C122.984 58.1583 122.989 58.2857 122.998 58.4118L143.718 49.1974L143.718 29.3298ZM115.247 87.7783C115.665 87.133 116.135 86.5207 116.654 85.9483L100.444 76.5198L113.123 93.3349C113.274 92.3721 113.522 91.4337 113.86 90.5329L138.702 123.481H136.791C136.48 123.481 136.156 123.467 135.822 123.44L144.86 135.426L148.397 130.734C148.324 130.738 148.25 130.742 148.176 130.746V128.513C148.176 128.129 148.133 127.754 148.05 127.394L146.002 130.111V124.377C147.018 125.082 147.766 126.153 148.05 127.394L177.561 88.2548H173.637L180.627 84.1894L177.561 88.2548H179.219C179.608 88.2548 179.994 88.2775 180.376 88.322L148.397 130.734C170.666 129.529 189.884 116.783 200.04 98.3194H195.826C194.316 98.3194 192.838 97.7218 191.769 96.6524L186.327 91.2113C184.715 89.5988 182.62 88.5833 180.376 88.322L187.201 79.2718L186.235 78.2883L171.702 86.7417L173.464 88.2548H173.637L146.001 104.329L146.002 124.377C145.338 123.916 144.558 123.61 143.718 123.513V130.133L138.702 123.481H143.144C143.338 123.481 143.53 123.492 143.718 123.513L143.718 104.339L143.703 104.33L115.247 87.7783C114.687 88.6425 114.222 89.5661 113.86 90.5329L109.077 84.1893L115.247 87.7783ZM113.123 93.3349C113.009 94.0616 112.951 94.8026 112.951 95.5516V103.069C112.951 107.566 115.058 111.812 118.675 114.517L125.657 119.769C128.143 121.627 132.499 123.173 135.822 123.44L113.123 93.3349ZM107.919 34.3782C107.919 33.4347 108.296 32.5226 108.956 31.8621L116.945 23.8734C117.606 23.2129 118.518 22.8355 119.461 22.8355C121.411 22.8355 123.015 24.4395 123.015 26.3895V31.4218C123.015 32.3653 122.638 33.2774 121.977 33.9379L119.021 36.8944C118.36 37.5548 117.448 37.9323 116.505 37.9323H111.473C109.523 37.9323 107.919 36.3282 107.919 34.3782ZM132.006 55.6552L144.86 49.9391L157.202 55.4277L144.86 49.9401L132.006 55.6552Z" />
<path d="M273.567 73.1581H269.001V53.0522C270.226 53.22 271.177 54.2769 271.177 55.5452C271.177 56.929 272.309 58.0613 273.693 58.0613H278.725C279.591 58.0613 280.357 57.6184 280.811 56.948L308.504 69.2613L287.959 80.9511L282.877 76.5863C280.298 74.3847 276.995 73.1581 273.567 73.1581Z" />
<path d="M307.346 66.2497L281.249 54.6442C281.331 53.6342 281.999 52.7868 282.971 52.4629L292.91 49.1605C293.901 48.825 294.737 48.2011 295.335 47.4001L297.916 51.4507L297.376 51.9911C296.715 52.6516 296.338 53.5637 296.338 54.5073C296.338 56.4573 297.942 58.0613 299.892 58.0613H302.128L297.916 51.4507L299.587 49.7795L296.33 44.6672C296.335 44.5719 296.338 44.4761 296.338 44.3798V42.9645C296.338 40.1968 298.602 37.9323 301.37 37.9323H312.913C314.863 37.9323 316.467 39.5363 316.467 41.4863V44.4427C316.467 46.3927 314.863 47.9968 312.913 47.9968H302.848C301.905 47.9968 300.993 48.3742 300.332 49.0347L299.587 49.7795L304.865 58.0613H302.128L307.346 66.2497Z" />
<path fill-rule="evenodd" clip-rule="evenodd" d="M268 -10C224.911 -10 190 24.9113 190 68C190 111.089 224.911 146 268 146C311.089 146 346 111.089 346 68C346 24.9113 311.089 -10 268 -10ZM330.903 68C330.903 75.0766 329.677 81.9016 327.506 88.2548H321.122C319.769 88.2548 318.48 87.7202 317.536 86.7452L310.201 79.2718L312.275 76.5198L312.264 76.5265L309.235 78.2883L307.472 76.4919C306.54 75.5393 306.222 74.1912 306.526 72.9685L312.283 69.6924L312.273 69.6876L311.021 67.722L311.435 67.3081V64.5718C311.435 63.6282 311.057 62.7161 310.397 62.0556L307.44 59.0992C306.78 58.4387 305.868 58.0613 304.924 58.0613H304.865L311.021 67.722L307.503 71.2395C307.009 71.7337 306.684 72.3342 306.526 72.9685L289.767 82.5038L294.702 86.7417L267.86 102.354L267.858 102.353L239.654 85.9483C240.587 84.919 241.677 84.0184 242.902 83.2855L245.057 81.9942L267.86 94.9685L289.767 82.5038L287.959 80.9511L269.001 91.7374V73.1581H266.718V53.2225C266.171 53.4497 265.704 53.8661 265.421 54.4129L262.465 60.2944C261.615 61.9927 259.885 63.0621 257.967 63.0621H251.016C249.186 63.0621 247.575 62.0717 246.695 60.6003L266.718 51.6971L266.718 53.2225C267.021 53.0968 267.349 53.029 267.685 53.029H268.66C268.776 53.029 268.89 53.0369 269.001 53.0522V51.6973L280.811 56.948C281.082 56.5466 281.241 56.0635 281.241 55.5452V54.8532C281.241 54.7829 281.244 54.7131 281.249 54.6442L269.001 49.1974V28.5706L266.718 29.3298V17.1978L266.113 17.8032V20.3194C266.113 21.7032 264.981 22.8355 263.597 22.8355H258.565C257.785 22.8355 257.086 22.4766 256.624 21.9161L228.374 66.2497L245.998 58.4118C246.058 59.2059 246.305 59.9501 246.695 60.6003L227.216 69.2612L247.267 80.6701L256.394 75.2024C258.627 73.8815 261.175 73.1581 263.754 73.1581H266.718L266.718 91.7372L247.267 80.6701L245.057 81.9942L223.436 69.6923L223.447 69.6877L256.048 18.5252V20.3194C256.048 20.9241 256.265 21.4809 256.624 21.9161L266.718 6.0742L266.718 17.1978L269.001 14.9145V6.07422L273.269 12.771H271.145L269.001 14.9145V28.5706L270.359 28.1194C270.894 27.9306 271.365 27.6476 271.743 27.2702L278.318 20.6948L295.335 47.4001C295.916 46.6223 296.272 45.6774 296.33 44.6672L279.989 19.0236L280.172 18.8411C280.832 18.1806 281.21 17.2685 281.21 16.325C281.21 14.375 279.606 12.771 277.656 12.771H276.005L279.989 19.0236L278.318 20.6948L273.269 12.771H276.005L271.167 5.17833C270.097 5.12418 269.02 5.09677 267.937 5.09677C267.539 5.09677 267.14 5.12473 266.742 5.15269C266.543 5.16667 266.343 5.18064 266.144 5.19113L263.078 7.49371L267.86 -0.0113608L271.167 5.17833C304.422 6.86163 330.903 34.3901 330.903 68ZM263.078 7.49371L257.055 12.0161C256.426 12.4879 256.048 13.2427 256.048 14.029L256.048 18.5252L263.078 7.49371ZM266.718 29.3298L257.778 32.3024C256.74 32.6484 256.048 33.6234 256.048 34.6927C256.048 36.7686 255.231 38.75 253.784 40.1968L247.462 46.5185C246.519 47.4621 245.984 48.7516 245.984 50.0726V58.0298C245.984 58.1583 245.989 58.2857 245.998 58.4118L266.718 49.1974L266.718 29.3298ZM238.247 87.7783C238.665 87.133 239.135 86.5207 239.654 85.9483L223.444 76.5198L236.123 93.3349C236.274 92.3721 236.522 91.4337 236.86 90.5329L261.702 123.481H259.791C259.48 123.481 259.156 123.467 258.822 123.44L267.86 135.426L271.397 130.734C271.324 130.738 271.25 130.742 271.176 130.746V128.513C271.176 128.129 271.133 127.754 271.05 127.394L269.002 130.111V124.377C270.018 125.082 270.766 126.153 271.05 127.394L300.561 88.2548H296.637L303.627 84.1894L300.561 88.2548H302.219C302.608 88.2548 302.994 88.2775 303.376 88.322L271.397 130.734C293.666 129.529 312.884 116.783 323.04 98.3194H318.826C317.316 98.3194 315.838 97.7218 314.769 96.6524L309.327 91.2113C307.715 89.5988 305.62 88.5833 303.376 88.322L310.201 79.2718L309.235 78.2883L294.702 86.7417L296.464 88.2548H296.637L269.001 104.329L269.002 124.377C268.338 123.916 267.558 123.61 266.718 123.513V130.133L261.702 123.481H266.144C266.338 123.481 266.53 123.492 266.718 123.513L266.718 104.339L266.703 104.33L238.247 87.7783C237.687 88.6425 237.222 89.5661 236.86 90.5329L232.077 84.1893L238.247 87.7783ZM236.123 93.3349C236.009 94.0616 235.951 94.8026 235.951 95.5516V103.069C235.951 107.566 238.058 111.812 241.675 114.517L248.657 119.769C251.143 121.627 255.499 123.173 258.822 123.44L236.123 93.3349ZM230.919 34.3782C230.919 33.4347 231.296 32.5226 231.956 31.8621L239.945 23.8734C240.606 23.2129 241.518 22.8355 242.461 22.8355C244.411 22.8355 246.015 24.4395 246.015 26.3895V31.4218C246.015 32.3653 245.638 33.2774 244.977 33.9379L242.021 36.8944C241.36 37.5548 240.448 37.9323 239.505 37.9323H234.473C232.523 37.9323 230.919 36.3282 230.919 34.3782ZM255.006 55.6552L267.86 49.9391L280.202 55.4277L267.86 49.9401L255.006 55.6552Z" />
<path d="M396.567 73.1581H392.001V53.0522C393.226 53.22 394.177 54.2769 394.177 55.5452C394.177 56.929 395.309 58.0613 396.693 58.0613H401.725C402.591 58.0613 403.357 57.6184 403.811 56.948L431.504 69.2613L410.959 80.9511L405.877 76.5863C403.298 74.3847 399.995 73.1581 396.567 73.1581Z" />
<path d="M430.346 66.2497L404.249 54.6442C404.331 53.6342 404.999 52.7868 405.971 52.4629L415.91 49.1605C416.901 48.825 417.737 48.2011 418.335 47.4001L420.916 51.4507L420.376 51.9911C419.715 52.6516 419.338 53.5637 419.338 54.5073C419.338 56.4573 420.942 58.0613 422.892 58.0613H425.128L420.916 51.4507L422.587 49.7795L419.33 44.6672C419.335 44.5719 419.338 44.4761 419.338 44.3798V42.9645C419.338 40.1968 421.602 37.9323 424.37 37.9323H435.913C437.863 37.9323 439.467 39.5363 439.467 41.4863V44.4427C439.467 46.3927 437.863 47.9968 435.913 47.9968H425.848C424.905 47.9968 423.993 48.3742 423.332 49.0347L422.587 49.7795L427.865 58.0613H425.128L430.346 66.2497Z" />
<path fill-rule="evenodd" clip-rule="evenodd" d="M391 -10C347.911 -10 313 24.9113 313 68C313 111.089 347.911 146 391 146C434.089 146 469 111.089 469 68C469 24.9113 434.089 -10 391 -10ZM453.903 68C453.903 75.0766 452.677 81.9016 450.506 88.2548H444.122C442.769 88.2548 441.48 87.7202 440.536 86.7452L433.201 79.2718L435.275 76.5198L435.264 76.5265L432.235 78.2883L430.472 76.4919C429.54 75.5393 429.222 74.1912 429.526 72.9685L435.283 69.6924L435.273 69.6876L434.021 67.722L434.435 67.3081V64.5718C434.435 63.6282 434.057 62.7161 433.397 62.0556L430.44 59.0992C429.78 58.4387 428.868 58.0613 427.924 58.0613H427.865L434.021 67.722L430.503 71.2395C430.009 71.7337 429.684 72.3342 429.526 72.9685L412.767 82.5038L417.702 86.7417L390.86 102.354L390.858 102.353L362.654 85.9483C363.587 84.919 364.677 84.0184 365.902 83.2855L368.057 81.9942L390.86 94.9685L412.767 82.5038L410.959 80.9511L392.001 91.7374V73.1581H389.718V53.2225C389.171 53.4497 388.704 53.8661 388.421 54.4129L385.465 60.2944C384.615 61.9927 382.885 63.0621 380.967 63.0621H374.016C372.186 63.0621 370.575 62.0717 369.695 60.6003L389.718 51.6971L389.718 53.2225C390.021 53.0968 390.349 53.029 390.685 53.029H391.66C391.776 53.029 391.89 53.0369 392.001 53.0522V51.6973L403.811 56.948C404.082 56.5466 404.241 56.0635 404.241 55.5452V54.8532C404.241 54.7829 404.244 54.7131 404.249 54.6442L392.001 49.1974V28.5706L389.718 29.3298V17.1978L389.113 17.8032V20.3194C389.113 21.7032 387.981 22.8355 386.597 22.8355H381.565C380.785 22.8355 380.086 22.4766 379.624 21.9161L351.374 66.2497L368.998 58.4118C369.058 59.2059 369.305 59.9501 369.695 60.6003L350.216 69.2612L370.267 80.6701L379.394 75.2024C381.627 73.8815 384.175 73.1581 386.754 73.1581H389.718L389.718 91.7372L370.267 80.6701L368.057 81.9942L346.436 69.6923L346.447 69.6877L379.048 18.5252V20.3194C379.048 20.9241 379.265 21.4809 379.624 21.9161L389.718 6.0742L389.718 17.1978L392.001 14.9145V6.07422L396.269 12.771H394.145L392.001 14.9145V28.5706L393.359 28.1194C393.894 27.9306 394.365 27.6476 394.743 27.2702L401.318 20.6948L418.335 47.4001C418.916 46.6223 419.272 45.6774 419.33 44.6672L402.989 19.0236L403.172 18.8411C403.832 18.1806 404.21 17.2685 404.21 16.325C404.21 14.375 402.606 12.771 400.656 12.771H399.005L402.989 19.0236L401.318 20.6948L396.269 12.771H399.005L394.167 5.17833C393.097 5.12418 392.02 5.09677 390.937 5.09677C390.539 5.09677 390.14 5.12473 389.742 5.15269C389.543 5.16667 389.343 5.18064 389.144 5.19113L386.078 7.49371L390.86 -0.0113608L394.167 5.17833C427.422 6.86163 453.903 34.3901 453.903 68ZM386.078 7.49371L380.055 12.0161C379.426 12.4879 379.048 13.2427 379.048 14.029L379.048 18.5252L386.078 7.49371ZM389.718 29.3298L380.778 32.3024C379.74 32.6484 379.048 33.6234 379.048 34.6927C379.048 36.7686 378.231 38.75 376.784 40.1968L370.462 46.5185C369.519 47.4621 368.984 48.7516 368.984 50.0726V58.0298C368.984 58.1583 368.989 58.2857 368.998 58.4118L389.718 49.1974L389.718 29.3298ZM361.247 87.7783C361.665 87.133 362.135 86.5207 362.654 85.9483L346.444 76.5198L359.123 93.3349C359.274 92.3721 359.522 91.4337 359.86 90.5329L384.702 123.481H382.791C382.48 123.481 382.156 123.467 381.822 123.44L390.86 135.426L394.397 130.734C394.324 130.738 394.25 130.742 394.176 130.746V128.513C394.176 128.129 394.133 127.754 394.05 127.394L392.002 130.111V124.377C393.018 125.082 393.766 126.153 394.05 127.394L423.561 88.2548H419.637L426.627 84.1894L423.561 88.2548H425.219C425.608 88.2548 425.994 88.2775 426.376 88.322L394.397 130.734C416.666 129.529 435.884 116.783 446.04 98.3194H441.826C440.316 98.3194 438.838 97.7218 437.769 96.6524L432.327 91.2113C430.715 89.5988 428.62 88.5833 426.376 88.322L433.201 79.2718L432.235 78.2883L417.702 86.7417L419.464 88.2548H419.637L392.001 104.329L392.002 124.377C391.338 123.916 390.558 123.61 389.718 123.513V130.133L384.702 123.481H389.144C389.338 123.481 389.53 123.492 389.718 123.513L389.718 104.339L389.703 104.33L361.247 87.7783C360.687 88.6425 360.222 89.5661 359.86 90.5329L355.077 84.1893L361.247 87.7783ZM359.123 93.3349C359.009 94.0616 358.951 94.8026 358.951 95.5516V103.069C358.951 107.566 361.058 111.812 364.675 114.517L371.657 119.769C374.143 121.627 378.499 123.173 381.822 123.44L359.123 93.3349ZM353.919 34.3782C353.919 33.4347 354.296 32.5226 354.956 31.8621L362.945 23.8734C363.606 23.2129 364.518 22.8355 365.461 22.8355C367.411 22.8355 369.015 24.4395 369.015 26.3895V31.4218C369.015 32.3653 368.638 33.2774 367.977 33.9379L365.021 36.8944C364.36 37.5548 363.448 37.9323 362.505 37.9323H357.473C355.523 37.9323 353.919 36.3282 353.919 34.3782ZM378.006 55.6552L390.86 49.9391L403.202 55.4277L390.86 49.9401L378.006 55.6552Z" />
<path d="M519.567 73.1581H515.001V53.0522C516.226 53.22 517.177 54.2769 517.177 55.5452C517.177 56.929 518.309 58.0613 519.693 58.0613H524.725C525.591 58.0613 526.357 57.6184 526.811 56.948L554.504 69.2613L533.959 80.9511L528.877 76.5863C526.298 74.3847 522.995 73.1581 519.567 73.1581Z" />
<path d="M553.346 66.2497L527.249 54.6442C527.331 53.6342 527.999 52.7868 528.971 52.4629L538.91 49.1605C539.901 48.825 540.737 48.2011 541.335 47.4001L543.916 51.4507L543.376 51.9911C542.715 52.6516 542.338 53.5637 542.338 54.5073C542.338 56.4573 543.942 58.0613 545.892 58.0613H548.128L543.916 51.4507L545.587 49.7795L542.33 44.6672C542.335 44.5719 542.338 44.4761 542.338 44.3798V42.9645C542.338 40.1968 544.602 37.9323 547.37 37.9323H558.913C560.863 37.9323 562.467 39.5363 562.467 41.4863V44.4427C562.467 46.3927 560.863 47.9968 558.913 47.9968H548.848C547.905 47.9968 546.993 48.3742 546.332 49.0347L545.587 49.7795L550.865 58.0613H548.128L553.346 66.2497Z" />
<path fill-rule="evenodd" clip-rule="evenodd" d="M514 -10C470.911 -10 436 24.9113 436 68C436 111.089 470.911 146 514 146C557.089 146 592 111.089 592 68C592 24.9113 557.089 -10 514 -10ZM576.903 68C576.903 75.0766 575.677 81.9016 573.506 88.2548H567.122C565.769 88.2548 564.48 87.7202 563.536 86.7452L556.201 79.2718L558.275 76.5198L558.264 76.5265L555.235 78.2883L553.472 76.4919C552.54 75.5393 552.222 74.1912 552.526 72.9685L558.283 69.6924L558.273 69.6876L557.021 67.722L557.435 67.3081V64.5718C557.435 63.6282 557.057 62.7161 556.397 62.0556L553.44 59.0992C552.78 58.4387 551.868 58.0613 550.924 58.0613H550.865L557.021 67.722L553.503 71.2395C553.009 71.7337 552.684 72.3342 552.526 72.9685L535.767 82.5038L540.702 86.7417L513.86 102.354L513.858 102.353L485.654 85.9483C486.587 84.919 487.677 84.0184 488.902 83.2855L491.057 81.9942L513.86 94.9685L535.767 82.5038L533.959 80.9511L515.001 91.7374V73.1581H512.718V53.2225C512.171 53.4497 511.704 53.8661 511.421 54.4129L508.465 60.2944C507.615 61.9927 505.885 63.0621 503.967 63.0621H497.016C495.186 63.0621 493.575 62.0717 492.695 60.6003L512.718 51.6971L512.718 53.2225C513.021 53.0968 513.349 53.029 513.685 53.029H514.66C514.776 53.029 514.89 53.0369 515.001 53.0522V51.6973L526.811 56.948C527.082 56.5466 527.241 56.0635 527.241 55.5452V54.8532C527.241 54.7829 527.244 54.7131 527.249 54.6442L515.001 49.1974V28.5706L512.718 29.3298V17.1978L512.113 17.8032V20.3194C512.113 21.7032 510.981 22.8355 509.597 22.8355H504.565C503.785 22.8355 503.086 22.4766 502.624 21.9161L474.374 66.2497L491.998 58.4118C492.058 59.2059 492.305 59.9501 492.695 60.6003L473.216 69.2612L493.267 80.6701L502.394 75.2024C504.627 73.8815 507.175 73.1581 509.754 73.1581H512.718L512.718 91.7372L493.267 80.6701L491.057 81.9942L469.436 69.6923L469.447 69.6877L502.048 18.5252V20.3194C502.048 20.9241 502.265 21.4809 502.624 21.9161L512.718 6.0742L512.718 17.1978L515.001 14.9145V6.07422L519.269 12.771H517.145L515.001 14.9145V28.5706L516.359 28.1194C516.894 27.9306 517.365 27.6476 517.743 27.2702L524.318 20.6948L541.335 47.4001C541.916 46.6223 542.272 45.6774 542.33 44.6672L525.989 19.0236L526.172 18.8411C526.832 18.1806 527.21 17.2685 527.21 16.325C527.21 14.375 525.606 12.771 523.656 12.771H522.005L525.989 19.0236L524.318 20.6948L519.269 12.771H522.005L517.167 5.17833C516.097 5.12418 515.02 5.09677 513.937 5.09677C513.539 5.09677 513.14 5.12473 512.742 5.15269C512.543 5.16667 512.343 5.18064 512.144 5.19113L509.078 7.49371L513.86 -0.0113608L517.167 5.17833C550.422 6.86163 576.903 34.3901 576.903 68ZM509.078 7.49371L503.055 12.0161C502.426 12.4879 502.048 13.2427 502.048 14.029L502.048 18.5252L509.078 7.49371ZM512.718 29.3298L503.778 32.3024C502.74 32.6484 502.048 33.6234 502.048 34.6927C502.048 36.7686 501.231 38.75 499.784 40.1968L493.462 46.5185C492.519 47.4621 491.984 48.7516 491.984 50.0726V58.0298C491.984 58.1583 491.989 58.2857 491.998 58.4118L512.718 49.1974L512.718 29.3298ZM484.247 87.7783C484.665 87.133 485.135 86.5207 485.654 85.9483L469.444 76.5198L482.123 93.3349C482.274 92.3721 482.522 91.4337 482.86 90.5329L507.702 123.481H505.791C505.48 123.481 505.156 123.467 504.822 123.44L513.86 135.426L517.397 130.734C517.324 130.738 517.25 130.742 517.176 130.746V128.513C517.176 128.129 517.133 127.754 517.05 127.394L515.002 130.111V124.377C516.018 125.082 516.766 126.153 517.05 127.394L546.561 88.2548H542.637L549.627 84.1894L546.561 88.2548H548.219C548.608 88.2548 548.994 88.2775 549.376 88.322L517.397 130.734C539.666 129.529 558.884 116.783 569.04 98.3194H564.826C563.316 98.3194 561.838 97.7218 560.769 96.6524L555.327 91.2113C553.715 89.5988 551.62 88.5833 549.376 88.322L556.201 79.2718L555.235 78.2883L540.702 86.7417L542.464 88.2548H542.637L515.001 104.329L515.002 124.377C514.338 123.916 513.558 123.61 512.718 123.513V130.133L507.702 123.481H512.144C512.338 123.481 512.53 123.492 512.718 123.513L512.718 104.339L512.703 104.33L484.247 87.7783C483.687 88.6425 483.222 89.5661 482.86 90.5329L478.077 84.1893L484.247 87.7783ZM482.123 93.3349C482.009 94.0616 481.951 94.8026 481.951 95.5516V103.069C481.951 107.566 484.058 111.812 487.675 114.517L494.657 119.769C497.143 121.627 501.499 123.173 504.822 123.44L482.123 93.3349ZM476.919 34.3782C476.919 33.4347 477.296 32.5226 477.956 31.8621L485.945 23.8734C486.606 23.2129 487.518 22.8355 488.461 22.8355C490.411 22.8355 492.015 24.4395 492.015 26.3895V31.4218C492.015 32.3653 491.638 33.2774 490.977 33.9379L488.021 36.8944C487.36 37.5548 486.448 37.9323 485.505 37.9323H480.473C478.523 37.9323 476.919 36.3282 476.919 34.3782ZM501.006 55.6552L513.86 49.9391L526.202 55.4277L513.86 49.9401L501.006 55.6552Z" />
<path d="M87.5669 191.158H83.0015V171.052C84.2255 171.22 85.1766 172.277 85.1766 173.545C85.1766 174.929 86.3089 176.061 87.6927 176.061H92.725C93.5905 176.061 94.3574 175.618 94.8107 174.948L122.504 187.261L101.959 198.951L96.8766 194.586C94.2976 192.385 90.9952 191.158 87.5669 191.158Z" />
<path d="M121.346 184.25L95.2493 172.644C95.3308 171.634 95.9994 170.787 96.971 170.463L106.91 167.16C107.901 166.825 108.737 166.201 109.335 165.4L111.916 169.451L111.376 169.991C110.715 170.652 110.338 171.564 110.338 172.507C110.338 174.457 111.942 176.061 113.892 176.061H116.128L111.916 169.451L113.587 167.779L110.33 162.667C110.335 162.572 110.338 162.476 110.338 162.38V160.965C110.338 158.197 112.602 155.932 115.37 155.932H126.913C128.863 155.932 130.467 157.536 130.467 159.486V162.443C130.467 164.393 128.863 165.997 126.913 165.997H116.848C115.905 165.997 114.993 166.374 114.332 167.035L113.587 167.779L118.865 176.061H116.128L121.346 184.25Z" />
<path fill-rule="evenodd" clip-rule="evenodd" d="M82 108C38.9113 108 4 142.911 4 186C4 229.089 38.9113 264 82 264C125.089 264 160 229.089 160 186C160 142.911 125.089 108 82 108ZM144.903 186C144.903 193.077 143.677 199.902 141.506 206.255H135.122C133.769 206.255 132.48 205.72 131.536 204.745L124.201 197.272L126.275 194.52L126.264 194.527L123.235 196.288L121.472 194.492C120.54 193.539 120.222 192.191 120.526 190.968L126.283 187.692L126.273 187.688L125.021 185.722L125.435 185.308V182.572C125.435 181.628 125.057 180.716 124.397 180.056L121.44 177.099C120.78 176.439 119.868 176.061 118.924 176.061H118.865L125.021 185.722L121.503 189.24C121.009 189.734 120.684 190.334 120.526 190.968L103.767 200.504L108.702 204.742L81.8597 220.354L81.8576 220.353L53.6542 203.948C54.5871 202.919 55.6771 202.018 56.9016 201.285L59.0571 199.994L81.8598 212.968L103.767 200.504L101.959 198.951L83.0015 209.737V191.158H80.7184V171.223C80.1706 171.45 79.7045 171.866 79.421 172.413L76.4645 178.294C75.6153 179.993 73.8855 181.062 71.9669 181.062H65.0161C63.1857 181.062 61.5754 180.072 60.6946 178.6L80.7182 169.697L80.7184 171.223C81.0214 171.097 81.3493 171.029 81.6853 171.029H82.6603C82.7759 171.029 82.8898 171.037 83.0015 171.052V169.697L94.8107 174.948C95.0821 174.547 95.2409 174.063 95.2409 173.545V172.853C95.2409 172.783 95.2438 172.713 95.2493 172.644L83.0015 167.197V146.571L80.7183 147.33V135.198L80.1129 135.803V138.319C80.1129 139.703 78.9806 140.835 77.5968 140.835H72.5645C71.7854 140.835 71.0861 140.477 70.6237 139.916L42.3736 184.25L59.9981 176.412C60.0585 177.206 60.3054 177.95 60.6946 178.6L41.2158 187.261L61.2674 198.67L70.3944 193.202C72.6274 191.881 75.175 191.158 77.754 191.158H80.7184L80.7182 209.737L61.2674 198.67L59.0571 199.994L37.4362 187.692L37.4467 187.688L70.0482 136.525V138.319C70.0482 138.924 70.2646 139.481 70.6237 139.916L80.7181 124.074L80.7183 135.198L83.0015 132.914V124.074L87.2687 130.771H85.1452L83.0015 132.914V146.571L84.3589 146.119C84.8935 145.931 85.3653 145.648 85.7427 145.27L92.3181 138.695L109.335 165.4C109.916 164.622 110.272 163.677 110.33 162.667L93.9893 137.024L94.1718 136.841C94.8323 136.181 95.2097 135.269 95.2097 134.325C95.2097 132.375 93.6057 130.771 91.6557 130.771H90.005L93.9893 137.024L92.3181 138.695L87.2687 130.771H90.005L85.1667 123.178C84.0969 123.124 83.0201 123.097 81.9369 123.097C81.5385 123.097 81.1401 123.125 80.7417 123.153C80.5426 123.167 80.3434 123.181 80.1442 123.191L77.0776 125.494L81.8599 117.989L85.1667 123.178C118.422 124.862 144.903 152.39 144.903 186ZM77.0776 125.494L71.0548 130.016C70.4258 130.488 70.0484 131.243 70.0484 132.029L70.0482 136.525L77.0776 125.494ZM80.7183 147.33L71.7782 150.302C70.7403 150.648 70.0484 151.623 70.0484 152.693C70.0484 154.769 69.2306 156.75 67.7839 158.197L61.4621 164.519C60.5185 165.462 59.9839 166.752 59.9839 168.073V176.03C59.9839 176.158 59.9886 176.286 59.9981 176.412L80.7181 167.197L80.7183 147.33ZM52.247 205.778C52.6649 205.133 53.1354 204.521 53.6542 203.948L37.4445 194.52L50.123 211.335C50.2739 210.372 50.5219 209.434 50.8595 208.533L75.7021 241.481H73.7909C73.4804 241.481 73.1565 241.467 72.8221 241.44L81.8599 253.426L85.3975 248.734C85.3238 248.738 85.2501 248.742 85.1764 248.746V246.513C85.1764 246.129 85.1328 245.754 85.0502 245.394L83.0017 248.111V242.377C84.0184 243.082 84.7655 244.153 85.0502 245.394L114.561 206.255H110.637L117.627 202.189L114.561 206.255H116.219C116.608 206.255 116.994 206.277 117.376 206.322L85.3975 248.734C107.666 247.529 126.884 234.783 137.04 216.319H132.826C131.316 216.319 129.838 215.722 128.769 214.652L123.327 209.211C121.715 207.599 119.62 206.583 117.376 206.322L124.201 197.272L123.235 196.288L108.702 204.742L110.464 206.255H110.637L83.0015 222.329L83.0017 242.377C82.3377 241.916 81.5585 241.61 80.7183 241.513V248.133L75.7021 241.481H80.1444C80.3383 241.481 80.5299 241.492 80.7183 241.513L80.7181 222.339L80.7034 222.33L52.247 205.778C51.6875 206.643 51.2218 207.566 50.8595 208.533L46.0767 202.189L52.247 205.778ZM50.123 211.335C50.0092 212.062 49.9508 212.803 49.9508 213.552V221.069C49.9508 225.566 52.0581 229.812 55.675 232.517L62.6573 237.769C65.1433 239.627 69.4988 241.173 72.8221 241.44L50.123 211.335ZM44.9186 152.378C44.9186 151.435 45.296 150.523 45.9564 149.862L53.9452 141.873C54.6056 141.213 55.5177 140.835 56.4613 140.835C58.4113 140.835 60.0153 142.44 60.0153 144.39V149.422C60.0153 150.365 59.6379 151.277 58.9774 151.938L56.021 154.894C55.3605 155.555 54.4484 155.932 53.5048 155.932H48.4726C46.5226 155.932 44.9186 154.328 44.9186 152.378ZM69.0062 173.655L81.8597 167.939L94.2018 173.428L81.8598 167.94L69.0062 173.655Z" />
<path d="M210.567 191.158H206.001V171.052C207.226 171.22 208.177 172.277 208.177 173.545C208.177 174.929 209.309 176.061 210.693 176.061H215.725C216.591 176.061 217.357 175.618 217.811 174.948L245.504 187.261L224.959 198.951L219.877 194.586C217.298 192.385 213.995 191.158 210.567 191.158Z" />
<path d="M244.346 184.25L218.249 172.644C218.331 171.634 218.999 170.787 219.971 170.463L229.91 167.16C230.901 166.825 231.737 166.201 232.335 165.4L234.916 169.451L234.376 169.991C233.715 170.652 233.338 171.564 233.338 172.507C233.338 174.457 234.942 176.061 236.892 176.061H239.128L234.916 169.451L236.587 167.779L233.33 162.667C233.335 162.572 233.338 162.476 233.338 162.38V160.965C233.338 158.197 235.602 155.932 238.37 155.932H249.913C251.863 155.932 253.467 157.536 253.467 159.486V162.443C253.467 164.393 251.863 165.997 249.913 165.997H239.848C238.905 165.997 237.993 166.374 237.332 167.035L236.587 167.779L241.865 176.061H239.128L244.346 184.25Z" />
<path fill-rule="evenodd" clip-rule="evenodd" d="M205 108C161.911 108 127 142.911 127 186C127 229.089 161.911 264 205 264C248.089 264 283 229.089 283 186C283 142.911 248.089 108 205 108ZM267.903 186C267.903 193.077 266.677 199.902 264.506 206.255H258.122C256.769 206.255 255.48 205.72 254.536 204.745L247.201 197.272L249.275 194.52L249.264 194.527L246.235 196.288L244.472 194.492C243.54 193.539 243.222 192.191 243.526 190.968L249.283 187.692L249.273 187.688L248.021 185.722L248.435 185.308V182.572C248.435 181.628 248.057 180.716 247.397 180.056L244.44 177.099C243.78 176.439 242.868 176.061 241.924 176.061H241.865L248.021 185.722L244.503 189.24C244.009 189.734 243.684 190.334 243.526 190.968L226.767 200.504L231.702 204.742L204.86 220.354L204.858 220.353L176.654 203.948C177.587 202.919 178.677 202.018 179.902 201.285L182.057 199.994L204.86 212.968L226.767 200.504L224.959 198.951L206.001 209.737V191.158H203.718V171.223C203.171 171.45 202.704 171.866 202.421 172.413L199.465 178.294C198.615 179.993 196.885 181.062 194.967 181.062H188.016C186.186 181.062 184.575 180.072 183.695 178.6L203.718 169.697L203.718 171.223C204.021 171.097 204.349 171.029 204.685 171.029H205.66C205.776 171.029 205.89 171.037 206.001 171.052V169.697L217.811 174.948C218.082 174.547 218.241 174.063 218.241 173.545V172.853C218.241 172.783 218.244 172.713 218.249 172.644L206.001 167.197V146.571L203.718 147.33V135.198L203.113 135.803V138.319C203.113 139.703 201.981 140.835 200.597 140.835H195.565C194.785 140.835 194.086 140.477 193.624 139.916L165.374 184.25L182.998 176.412C183.058 177.206 183.305 177.95 183.695 178.6L164.216 187.261L184.267 198.67L193.394 193.202C195.627 191.881 198.175 191.158 200.754 191.158H203.718L203.718 209.737L184.267 198.67L182.057 199.994L160.436 187.692L160.447 187.688L193.048 136.525V138.319C193.048 138.924 193.265 139.481 193.624 139.916L203.718 124.074L203.718 135.198L206.001 132.914V124.074L210.269 130.771H208.145L206.001 132.914V146.571L207.359 146.119C207.894 145.931 208.365 145.648 208.743 145.27L215.318 138.695L232.335 165.4C232.916 164.622 233.272 163.677 233.33 162.667L216.989 137.024L217.172 136.841C217.832 136.181 218.21 135.269 218.21 134.325C218.21 132.375 216.606 130.771 214.656 130.771H213.005L216.989 137.024L215.318 138.695L210.269 130.771H213.005L208.167 123.178C207.097 123.124 206.02 123.097 204.937 123.097C204.539 123.097 204.14 123.125 203.742 123.153C203.543 123.167 203.343 123.181 203.144 123.191L200.078 125.494L204.86 117.989L208.167 123.178C241.422 124.862 267.903 152.39 267.903 186ZM200.078 125.494L194.055 130.016C193.426 130.488 193.048 131.243 193.048 132.029L193.048 136.525L200.078 125.494ZM203.718 147.33L194.778 150.302C193.74 150.648 193.048 151.623 193.048 152.693C193.048 154.769 192.231 156.75 190.784 158.197L184.462 164.519C183.519 165.462 182.984 166.752 182.984 168.073V176.03C182.984 176.158 182.989 176.286 182.998 176.412L203.718 167.197L203.718 147.33ZM175.247 205.778C175.665 205.133 176.135 204.521 176.654 203.948L160.444 194.52L173.123 211.335C173.274 210.372 173.522 209.434 173.86 208.533L198.702 241.481H196.791C196.48 241.481 196.156 241.467 195.822 241.44L204.86 253.426L208.397 248.734C208.324 248.738 208.25 248.742 208.176 248.746V246.513C208.176 246.129 208.133 245.754 208.05 245.394L206.002 248.111V242.377C207.018 243.082 207.766 244.153 208.05 245.394L237.561 206.255H233.637L240.627 202.189L237.561 206.255H239.219C239.608 206.255 239.994 206.277 240.376 206.322L208.397 248.734C230.666 247.529 249.884 234.783 260.04 216.319H255.826C254.316 216.319 252.838 215.722 251.769 214.652L246.327 209.211C244.715 207.599 242.62 206.583 240.376 206.322L247.201 197.272L246.235 196.288L231.702 204.742L233.464 206.255H233.637L206.001 222.329L206.002 242.377C205.338 241.916 204.558 241.61 203.718 241.513V248.133L198.702 241.481H203.144C203.338 241.481 203.53 241.492 203.718 241.513L203.718 222.339L203.703 222.33L175.247 205.778C174.687 206.643 174.222 207.566 173.86 208.533L169.077 202.189L175.247 205.778ZM173.123 211.335C173.009 212.062 172.951 212.803 172.951 213.552V221.069C172.951 225.566 175.058 229.812 178.675 232.517L185.657 237.769C188.143 239.627 192.499 241.173 195.822 241.44L173.123 211.335ZM167.919 152.378C167.919 151.435 168.296 150.523 168.956 149.862L176.945 141.873C177.606 141.213 178.518 140.835 179.461 140.835C181.411 140.835 183.015 142.44 183.015 144.39V149.422C183.015 150.365 182.638 151.277 181.977 151.938L179.021 154.894C178.36 155.555 177.448 155.932 176.505 155.932H171.473C169.523 155.932 167.919 154.328 167.919 152.378ZM192.006 173.655L204.86 167.939L217.202 173.428L204.86 167.94L192.006 173.655Z" />
<path d="M333.567 191.158H329.001V171.052C330.226 171.22 331.177 172.277 331.177 173.545C331.177 174.929 332.309 176.061 333.693 176.061H338.725C339.591 176.061 340.357 175.618 340.811 174.948L368.504 187.261L347.959 198.951L342.877 194.586C340.298 192.385 336.995 191.158 333.567 191.158Z" />
<path d="M367.346 184.25L341.249 172.644C341.331 171.634 341.999 170.787 342.971 170.463L352.91 167.16C353.901 166.825 354.737 166.201 355.335 165.4L357.916 169.451L357.376 169.991C356.715 170.652 356.338 171.564 356.338 172.507C356.338 174.457 357.942 176.061 359.892 176.061H362.128L357.916 169.451L359.587 167.779L356.33 162.667C356.335 162.572 356.338 162.476 356.338 162.38V160.965C356.338 158.197 358.602 155.932 361.37 155.932H372.913C374.863 155.932 376.467 157.536 376.467 159.486V162.443C376.467 164.393 374.863 165.997 372.913 165.997H362.848C361.905 165.997 360.993 166.374 360.332 167.035L359.587 167.779L364.865 176.061H362.128L367.346 184.25Z" />
<path fill-rule="evenodd" clip-rule="evenodd" d="M328 108C284.911 108 250 142.911 250 186C250 229.089 284.911 264 328 264C371.089 264 406 229.089 406 186C406 142.911 371.089 108 328 108ZM390.903 186C390.903 193.077 389.677 199.902 387.506 206.255H381.122C379.769 206.255 378.48 205.72 377.536 204.745L370.201 197.272L372.275 194.52L372.264 194.527L369.235 196.288L367.472 194.492C366.54 193.539 366.222 192.191 366.526 190.968L372.283 187.692L372.273 187.688L371.021 185.722L371.435 185.308V182.572C371.435 181.628 371.057 180.716 370.397 180.056L367.44 177.099C366.78 176.439 365.868 176.061 364.924 176.061H364.865L371.021 185.722L367.503 189.24C367.009 189.734 366.684 190.334 366.526 190.968L349.767 200.504L354.702 204.742L327.86 220.354L327.858 220.353L299.654 203.948C300.587 202.919 301.677 202.018 302.902 201.285L305.057 199.994L327.86 212.968L349.767 200.504L347.959 198.951L329.001 209.737V191.158H326.718V171.223C326.171 171.45 325.704 171.866 325.421 172.413L322.465 178.294C321.615 179.993 319.885 181.062 317.967 181.062H311.016C309.186 181.062 307.575 180.072 306.695 178.6L326.718 169.697L326.718 171.223C327.021 171.097 327.349 171.029 327.685 171.029H328.66C328.776 171.029 328.89 171.037 329.001 171.052V169.697L340.811 174.948C341.082 174.547 341.241 174.063 341.241 173.545V172.853C341.241 172.783 341.244 172.713 341.249 172.644L329.001 167.197V146.571L326.718 147.33V135.198L326.113 135.803V138.319C326.113 139.703 324.981 140.835 323.597 140.835H318.565C317.785 140.835 317.086 140.477 316.624 139.916L288.374 184.25L305.998 176.412C306.058 177.206 306.305 177.95 306.695 178.6L287.216 187.261L307.267 198.67L316.394 193.202C318.627 191.881 321.175 191.158 323.754 191.158H326.718L326.718 209.737L307.267 198.67L305.057 199.994L283.436 187.692L283.447 187.688L316.048 136.525V138.319C316.048 138.924 316.265 139.481 316.624 139.916L326.718 124.074L326.718 135.198L329.001 132.914V124.074L333.269 130.771H331.145L329.001 132.914V146.571L330.359 146.119C330.894 145.931 331.365 145.648 331.743 145.27L338.318 138.695L355.335 165.4C355.916 164.622 356.272 163.677 356.33 162.667L339.989 137.024L340.172 136.841C340.832 136.181 341.21 135.269 341.21 134.325C341.21 132.375 339.606 130.771 337.656 130.771H336.005L339.989 137.024L338.318 138.695L333.269 130.771H336.005L331.167 123.178C330.097 123.124 329.02 123.097 327.937 123.097C327.539 123.097 327.14 123.125 326.742 123.153C326.543 123.167 326.343 123.181 326.144 123.191L323.078 125.494L327.86 117.989L331.167 123.178C364.422 124.862 390.903 152.39 390.903 186ZM323.078 125.494L317.055 130.016C316.426 130.488 316.048 131.243 316.048 132.029L316.048 136.525L323.078 125.494ZM326.718 147.33L317.778 150.302C316.74 150.648 316.048 151.623 316.048 152.693C316.048 154.769 315.231 156.75 313.784 158.197L307.462 164.519C306.519 165.462 305.984 166.752 305.984 168.073V176.03C305.984 176.158 305.989 176.286 305.998 176.412L326.718 167.197L326.718 147.33ZM298.247 205.778C298.665 205.133 299.135 204.521 299.654 203.948L283.444 194.52L296.123 211.335C296.274 210.372 296.522 209.434 296.86 208.533L321.702 241.481H319.791C319.48 241.481 319.156 241.467 318.822 241.44L327.86 253.426L331.397 248.734C331.324 248.738 331.25 248.742 331.176 248.746V246.513C331.176 246.129 331.133 245.754 331.05 245.394L329.002 248.111V242.377C330.018 243.082 330.766 244.153 331.05 245.394L360.561 206.255H356.637L363.627 202.189L360.561 206.255H362.219C362.608 206.255 362.994 206.277 363.376 206.322L331.397 248.734C353.666 247.529 372.884 234.783 383.04 216.319H378.826C377.316 216.319 375.838 215.722 374.769 214.652L369.327 209.211C367.715 207.599 365.62 206.583 363.376 206.322L370.201 197.272L369.235 196.288L354.702 204.742L356.464 206.255H356.637L329.001 222.329L329.002 242.377C328.338 241.916 327.558 241.61 326.718 241.513V248.133L321.702 241.481H326.144C326.338 241.481 326.53 241.492 326.718 241.513L326.718 222.339L326.703 222.33L298.247 205.778C297.687 206.643 297.222 207.566 296.86 208.533L292.077 202.189L298.247 205.778ZM296.123 211.335C296.009 212.062 295.951 212.803 295.951 213.552V221.069C295.951 225.566 298.058 229.812 301.675 232.517L308.657 237.769C311.143 239.627 315.499 241.173 318.822 241.44L296.123 211.335ZM290.919 152.378C290.919 151.435 291.296 150.523 291.956 149.862L299.945 141.873C300.606 141.213 301.518 140.835 302.461 140.835C304.411 140.835 306.015 142.44 306.015 144.39V149.422C306.015 150.365 305.638 151.277 304.977 151.938L302.021 154.894C301.36 155.555 300.448 155.932 299.505 155.932H294.473C292.523 155.932 290.919 154.328 290.919 152.378ZM315.006 173.655L327.86 167.939L340.202 173.428L327.86 167.94L315.006 173.655Z" />
<path d="M456.567 191.158H452.001V171.052C453.226 171.22 454.177 172.277 454.177 173.545C454.177 174.929 455.309 176.061 456.693 176.061H461.725C462.591 176.061 463.357 175.618 463.811 174.948L491.504 187.261L470.959 198.951L465.877 194.586C463.298 192.385 459.995 191.158 456.567 191.158Z" />
<path d="M490.346 184.25L464.249 172.644C464.331 171.634 464.999 170.787 465.971 170.463L475.91 167.16C476.901 166.825 477.737 166.201 478.335 165.4L480.916 169.451L480.376 169.991C479.715 170.652 479.338 171.564 479.338 172.507C479.338 174.457 480.942 176.061 482.892 176.061H485.128L480.916 169.451L482.587 167.779L479.33 162.667C479.335 162.572 479.338 162.476 479.338 162.38V160.965C479.338 158.197 481.602 155.932 484.37 155.932H495.913C497.863 155.932 499.467 157.536 499.467 159.486V162.443C499.467 164.393 497.863 165.997 495.913 165.997H485.848C484.905 165.997 483.993 166.374 483.332 167.035L482.587 167.779L487.865 176.061H485.128L490.346 184.25Z" />
<path fill-rule="evenodd" clip-rule="evenodd" d="M451 108C407.911 108 373 142.911 373 186C373 229.089 407.911 264 451 264C494.089 264 529 229.089 529 186C529 142.911 494.089 108 451 108ZM513.903 186C513.903 193.077 512.677 199.902 510.506 206.255H504.122C502.769 206.255 501.48 205.72 500.536 204.745L493.201 197.272L495.275 194.52L495.264 194.527L492.235 196.288L490.472 194.492C489.54 193.539 489.222 192.191 489.526 190.968L495.283 187.692L495.273 187.688L494.021 185.722L494.435 185.308V182.572C494.435 181.628 494.057 180.716 493.397 180.056L490.44 177.099C489.78 176.439 488.868 176.061 487.924 176.061H487.865L494.021 185.722L490.503 189.24C490.009 189.734 489.684 190.334 489.526 190.968L472.767 200.504L477.702 204.742L450.86 220.354L450.858 220.353L422.654 203.948C423.587 202.919 424.677 202.018 425.902 201.285L428.057 199.994L450.86 212.968L472.767 200.504L470.959 198.951L452.001 209.737V191.158H449.718V171.223C449.171 171.45 448.704 171.866 448.421 172.413L445.465 178.294C444.615 179.993 442.885 181.062 440.967 181.062H434.016C432.186 181.062 430.575 180.072 429.695 178.6L449.718 169.697L449.718 171.223C450.021 171.097 450.349 171.029 450.685 171.029H451.66C451.776 171.029 451.89 171.037 452.001 171.052V169.697L463.811 174.948C464.082 174.547 464.241 174.063 464.241 173.545V172.853C464.241 172.783 464.244 172.713 464.249 172.644L452.001 167.197V146.571L449.718 147.33V135.198L449.113 135.803V138.319C449.113 139.703 447.981 140.835 446.597 140.835H441.565C440.785 140.835 440.086 140.477 439.624 139.916L411.374 184.25L428.998 176.412C429.058 177.206 429.305 177.95 429.695 178.6L410.216 187.261L430.267 198.67L439.394 193.202C441.627 191.881 444.175 191.158 446.754 191.158H449.718L449.718 209.737L430.267 198.67L428.057 199.994L406.436 187.692L406.447 187.688L439.048 136.525V138.319C439.048 138.924 439.265 139.481 439.624 139.916L449.718 124.074L449.718 135.198L452.001 132.914V124.074L456.269 130.771H454.145L452.001 132.914V146.571L453.359 146.119C453.894 145.931 454.365 145.648 454.743 145.27L461.318 138.695L478.335 165.4C478.916 164.622 479.272 163.677 479.33 162.667L462.989 137.024L463.172 136.841C463.832 136.181 464.21 135.269 464.21 134.325C464.21 132.375 462.606 130.771 460.656 130.771H459.005L462.989 137.024L461.318 138.695L456.269 130.771H459.005L454.167 123.178C453.097 123.124 452.02 123.097 450.937 123.097C450.539 123.097 450.14 123.125 449.742 123.153C449.543 123.167 449.343 123.181 449.144 123.191L446.078 125.494L450.86 117.989L454.167 123.178C487.422 124.862 513.903 152.39 513.903 186ZM446.078 125.494L440.055 130.016C439.426 130.488 439.048 131.243 439.048 132.029L439.048 136.525L446.078 125.494ZM449.718 147.33L440.778 150.302C439.74 150.648 439.048 151.623 439.048 152.693C439.048 154.769 438.231 156.75 436.784 158.197L430.462 164.519C429.519 165.462 428.984 166.752 428.984 168.073V176.03C428.984 176.158 428.989 176.286 428.998 176.412L449.718 167.197L449.718 147.33ZM421.247 205.778C421.665 205.133 422.135 204.521 422.654 203.948L406.444 194.52L419.123 211.335C419.274 210.372 419.522 209.434 419.86 208.533L444.702 241.481H442.791C442.48 241.481 442.156 241.467 441.822 241.44L450.86 253.426L454.397 248.734C454.324 248.738 454.25 248.742 454.176 248.746V246.513C454.176 246.129 454.133 245.754 454.05 245.394L452.002 248.111V242.377C453.018 243.082 453.766 244.153 454.05 245.394L483.561 206.255H479.637L486.627 202.189L483.561 206.255H485.219C485.608 206.255 485.994 206.277 486.376 206.322L454.397 248.734C476.666 247.529 495.884 234.783 506.04 216.319H501.826C500.316 216.319 498.838 215.722 497.769 214.652L492.327 209.211C490.715 207.599 488.62 206.583 486.376 206.322L493.201 197.272L492.235 196.288L477.702 204.742L479.464 206.255H479.637L452.001 222.329L452.002 242.377C451.338 241.916 450.558 241.61 449.718 241.513V248.133L444.702 241.481H449.144C449.338 241.481 449.53 241.492 449.718 241.513L449.718 222.339L449.703 222.33L421.247 205.778C420.687 206.643 420.222 207.566 419.86 208.533L415.077 202.189L421.247 205.778ZM419.123 211.335C419.009 212.062 418.951 212.803 418.951 213.552V221.069C418.951 225.566 421.058 229.812 424.675 232.517L431.657 237.769C434.143 239.627 438.499 241.173 441.822 241.44L419.123 211.335ZM413.919 152.378C413.919 151.435 414.296 150.523 414.956 149.862L422.945 141.873C423.606 141.213 424.518 140.835 425.461 140.835C427.411 140.835 429.015 142.44 429.015 144.39V149.422C429.015 150.365 428.638 151.277 427.977 151.938L425.021 154.894C424.36 155.555 423.448 155.932 422.505 155.932H417.473C415.523 155.932 413.919 154.328 413.919 152.378ZM438.006 173.655L450.86 167.939L463.202 173.428L450.86 167.94L438.006 173.655Z" />
<path d="M579.567 191.158H575.001V171.052C576.226 171.22 577.177 172.277 577.177 173.545C577.177 174.929 578.309 176.061 579.693 176.061H584.725C585.591 176.061 586.357 175.618 586.811 174.948L614.504 187.261L593.959 198.951L588.877 194.586C586.298 192.385 582.995 191.158 579.567 191.158Z" />
<path d="M613.346 184.25L587.249 172.644C587.331 171.634 587.999 170.787 588.971 170.463L598.91 167.16C599.901 166.825 600.737 166.201 601.335 165.4L603.916 169.451L603.376 169.991C602.715 170.652 602.338 171.564 602.338 172.507C602.338 174.457 603.942 176.061 605.892 176.061H608.128L603.916 169.451L605.587 167.779L602.33 162.667C602.335 162.572 602.338 162.476 602.338 162.38V160.965C602.338 158.197 604.602 155.932 607.37 155.932H618.913C620.863 155.932 622.467 157.536 622.467 159.486V162.443C622.467 164.393 620.863 165.997 618.913 165.997H608.848C607.905 165.997 606.993 166.374 606.332 167.035L605.587 167.779L610.865 176.061H608.128L613.346 184.25Z" />
<path fill-rule="evenodd" clip-rule="evenodd" d="M574 108C530.911 108 496 142.911 496 186C496 229.089 530.911 264 574 264C617.089 264 652 229.089 652 186C652 142.911 617.089 108 574 108ZM636.903 186C636.903 193.077 635.677 199.902 633.506 206.255H627.122C625.769 206.255 624.48 205.72 623.536 204.745L616.201 197.272L618.275 194.52L618.264 194.527L615.235 196.288L613.472 194.492C612.54 193.539 612.222 192.191 612.526 190.968L618.283 187.692L618.273 187.688L617.021 185.722L617.435 185.308V182.572C617.435 181.628 617.057 180.716 616.397 180.056L613.44 177.099C612.78 176.439 611.868 176.061 610.924 176.061H610.865L617.021 185.722L613.503 189.24C613.009 189.734 612.684 190.334 612.526 190.968L595.767 200.504L600.702 204.742L573.86 220.354L573.858 220.353L545.654 203.948C546.587 202.919 547.677 202.018 548.902 201.285L551.057 199.994L573.86 212.968L595.767 200.504L593.959 198.951L575.001 209.737V191.158H572.718V171.223C572.171 171.45 571.704 171.866 571.421 172.413L568.465 178.294C567.615 179.993 565.885 181.062 563.967 181.062H557.016C555.186 181.062 553.575 180.072 552.695 178.6L572.718 169.697L572.718 171.223C573.021 171.097 573.349 171.029 573.685 171.029H574.66C574.776 171.029 574.89 171.037 575.001 171.052V169.697L586.811 174.948C587.082 174.547 587.241 174.063 587.241 173.545V172.853C587.241 172.783 587.244 172.713 587.249 172.644L575.001 167.197V146.571L572.718 147.33V135.198L572.113 135.803V138.319C572.113 139.703 570.981 140.835 569.597 140.835H564.565C563.785 140.835 563.086 140.477 562.624 139.916L534.374 184.25L551.998 176.412C552.058 177.206 552.305 177.95 552.695 178.6L533.216 187.261L553.267 198.67L562.394 193.202C564.627 191.881 567.175 191.158 569.754 191.158H572.718L572.718 209.737L553.267 198.67L551.057 199.994L529.436 187.692L529.447 187.688L562.048 136.525V138.319C562.048 138.924 562.265 139.481 562.624 139.916L572.718 124.074L572.718 135.198L575.001 132.914V124.074L579.269 130.771H577.145L575.001 132.914V146.571L576.359 146.119C576.894 145.931 577.365 145.648 577.743 145.27L584.318 138.695L601.335 165.4C601.916 164.622 602.272 163.677 602.33 162.667L585.989 137.024L586.172 136.841C586.832 136.181 587.21 135.269 587.21 134.325C587.21 132.375 585.606 130.771 583.656 130.771H582.005L585.989 137.024L584.318 138.695L579.269 130.771H582.005L577.167 123.178C576.097 123.124 575.02 123.097 573.937 123.097C573.539 123.097 573.14 123.125 572.742 123.153C572.543 123.167 572.343 123.181 572.144 123.191L569.078 125.494L573.86 117.989L577.167 123.178C610.422 124.862 636.903 152.39 636.903 186ZM569.078 125.494L563.055 130.016C562.426 130.488 562.048 131.243 562.048 132.029L562.048 136.525L569.078 125.494ZM572.718 147.33L563.778 150.302C562.74 150.648 562.048 151.623 562.048 152.693C562.048 154.769 561.231 156.75 559.784 158.197L553.462 164.519C552.519 165.462 551.984 166.752 551.984 168.073V176.03C551.984 176.158 551.989 176.286 551.998 176.412L572.718 167.197L572.718 147.33ZM544.247 205.778C544.665 205.133 545.135 204.521 545.654 203.948L529.444 194.52L542.123 211.335C542.274 210.372 542.522 209.434 542.86 208.533L567.702 241.481H565.791C565.48 241.481 565.156 241.467 564.822 241.44L573.86 253.426L577.397 248.734C577.324 248.738 577.25 248.742 577.176 248.746V246.513C577.176 246.129 577.133 245.754 577.05 245.394L575.002 248.111V242.377C576.018 243.082 576.766 244.153 577.05 245.394L606.561 206.255H602.637L609.627 202.189L606.561 206.255H608.219C608.608 206.255 608.994 206.277 609.376 206.322L577.397 248.734C599.666 247.529 618.884 234.783 629.04 216.319H624.826C623.316 216.319 621.838 215.722 620.769 214.652L615.327 209.211C613.715 207.599 611.62 206.583 609.376 206.322L616.201 197.272L615.235 196.288L600.702 204.742L602.464 206.255H602.637L575.001 222.329L575.002 242.377C574.338 241.916 573.558 241.61 572.718 241.513V248.133L567.702 241.481H572.144C572.338 241.481 572.53 241.492 572.718 241.513L572.718 222.339L572.703 222.33L544.247 205.778C543.687 206.643 543.222 207.566 542.86 208.533L538.077 202.189L544.247 205.778ZM542.123 211.335C542.009 212.062 541.951 212.803 541.951 213.552V221.069C541.951 225.566 544.058 229.812 547.675 232.517L554.657 237.769C557.143 239.627 561.499 241.173 564.822 241.44L542.123 211.335ZM536.919 152.378C536.919 151.435 537.296 150.523 537.956 149.862L545.945 141.873C546.606 141.213 547.518 140.835 548.461 140.835C550.411 140.835 552.015 142.44 552.015 144.39V149.422C552.015 150.365 551.638 151.277 550.977 151.938L548.021 154.894C547.36 155.555 546.448 155.932 545.505 155.932H540.473C538.523 155.932 536.919 154.328 536.919 152.378ZM561.006 173.655L573.86 167.939L586.202 173.428L573.86 167.94L561.006 173.655Z" />
</svg>
