<svg width="480" height="200" viewBox="0 0 480 200" fill="none" xmlns="http://www.w3.org/2000/svg">
<rect width="480" height="200" fill="url(#paint0_linear_7723_369)"/>
<path fill-rule="evenodd" clip-rule="evenodd" d="M235.687 118.346C222.276 133.138 207.911 142 196.5 142C185 142 160 135 160 100.5C160 66 185.5 59 200.5 59C216.42 59 224 65 243.313 84.6539C256.724 69.8617 271.089 59 282.5 59C301 59 319 70 319 100.5C319 135 293.5 142 278.5 142C262.58 142 253 137 235.687 118.346ZM282 74C272 74 265 81 251.5 96C264.5 115 273.5 121.5 282.5 121.5C291.5 121.5 301 116.5 301 99C301 81.5 292 74 282 74ZM197 127C207 127 214 122 227.5 107C214.5 88 205.5 79.5 196.5 79.5C187.5 79.5 178 84.5 178 102C178 119.5 187 127 197 127Z" fill="black" />
<defs>
<linearGradient id="paint0_linear_7723_369" x1="240" y1="0" x2="240" y2="200" gradientUnits="userSpaceOnUse">
<stop stop-color="#E0E3FB"/>
<stop offset="1" stop-color="white"/>
</linearGradient>
</defs>
</svg>
