<svg width="512" height="512" viewBox="0 0 512 512" fill="none" xmlns="http://www.w3.org/2000/svg">
<rect width="512" height="512" fill="#222222"/>
<path d="M255.766 480.001V367.601L117.579 286.291L255.766 480.001Z" fill="#F0CDC2"/>
<path d="M256.228 480.001V367.601L394.413 286.291L256.228 480.001Z" fill="#C9B3F5"/>
<path d="M255.771 339.674V196.223L116 259.198L255.771 339.674Z" fill="#88AAF1"/>
<path d="M256.228 339.674V196.223L396 259.198L256.228 339.674Z" fill="#C9B3F5"/>
<path d="M116 259.191L255.771 32.0001V196.215L116 259.191Z" fill="#F0CDC2"/>
<path d="M395.999 259.191L256.228 32.0001V196.215L395.999 259.191Z" fill="#B8FAF6"/>
<path fill-rule="evenodd" clip-rule="evenodd" d="M255.999 31.0265C255.582 30.9284 255.146 31.1079 254.919 31.4761L115.148 258.667C115.048 258.83 114.999 259.013 115 259.195C114.999 259.553 115.189 259.885 115.501 260.065L255.272 340.54C255.496 340.669 255.756 340.705 256 340.648C256.243 340.705 256.504 340.669 256.727 340.54L396.499 260.065C396.824 259.877 397.017 259.524 396.998 259.149C396.997 259.13 396.996 259.111 396.994 259.093C396.98 258.945 396.932 258.799 396.851 258.667L257.079 31.4761C256.853 31.1079 256.417 30.9284 255.999 31.0265ZM393.441 256.942L257.228 35.534V195.569L393.441 256.942ZM254.771 35.534L118.558 256.942L254.771 195.569V35.534ZM118.193 259.307L254.771 337.944V197.77L118.193 259.307ZM257.228 337.944L393.807 259.307L257.228 197.77V337.944ZM116.842 285.616C117.161 285.268 117.68 285.19 118.087 285.429L255.997 366.577L393.906 285.429C394.313 285.19 394.832 285.268 395.151 285.616C395.47 285.964 395.502 286.488 395.227 286.872L257.042 480.582C256.804 480.915 256.39 481.067 255.997 480.974C255.604 481.067 255.189 480.915 254.952 480.582L116.765 286.872C116.491 286.488 116.523 285.964 116.842 285.616ZM257.228 476.877L390.87 289.536L257.228 368.173V476.877ZM254.766 368.173L121.123 289.536L254.766 476.877V368.173Z" fill="#1616B4"/>
</svg>
