<svg width="988" height="462" viewBox="0 0 988 462" fill="none" xmlns="http://www.w3.org/2000/svg">
<rect x="0.833984" y="0.5" width="156" height="62" rx="16.5" fill="#D6D6FF"/>
<rect x="0.833984" y="0.5" width="156" height="62" rx="16.5" stroke="#1C1CFF"/>
<path d="M25.6971 38L26.7951 25.436H28.1091L27.4431 32.51L27.0651 36.524H27.2091L30.1431 28.712H31.8351L32.2131 36.524H32.3571L33.2751 32.636L34.9851 25.436H36.3351L33.2571 38H31.0791L30.8091 30.422H30.6651L27.8751 38H25.6971ZM40.6481 38.216C39.4721 38.216 38.5661 37.892 37.9301 37.244C37.2941 36.584 36.9761 35.582 36.9761 34.238C36.9761 33.398 37.1021 32.63 37.3541 31.934C37.6061 31.226 37.9541 30.62 38.3981 30.116C38.8541 29.6 39.3941 29.204 40.0181 28.928C40.6541 28.64 41.3441 28.496 42.0881 28.496C42.5441 28.496 42.9641 28.55 43.3481 28.658C43.7321 28.766 44.0621 28.928 44.3381 29.144C44.6261 29.348 44.8481 29.606 45.0041 29.918C45.1601 30.23 45.2381 30.59 45.2381 30.998C45.2381 31.322 45.1601 31.658 45.0041 32.006C44.8601 32.354 44.5481 32.678 44.0681 32.978C43.6001 33.278 42.9161 33.53 42.0161 33.734C41.1281 33.938 39.9461 34.058 38.4701 34.094C38.4581 34.19 38.4521 34.28 38.4521 34.364C38.4521 34.436 38.4521 34.484 38.4521 34.508C38.4521 34.832 38.4821 35.144 38.5421 35.444C38.6021 35.744 38.7161 36.014 38.8841 36.254C39.0521 36.482 39.2861 36.668 39.5861 36.812C39.8861 36.944 40.2821 37.01 40.7741 37.01C41.1101 37.01 41.4101 36.974 41.6741 36.902C41.9501 36.818 42.2081 36.698 42.4481 36.542C42.7001 36.374 42.9401 36.164 43.1681 35.912C43.4081 35.648 43.6601 35.33 43.9241 34.958L44.9141 35.57C44.3861 36.434 43.7861 37.094 43.1141 37.55C42.4541 37.994 41.6321 38.216 40.6481 38.216ZM41.9621 29.666C41.0261 29.666 40.2641 29.948 39.6761 30.512C39.0881 31.076 38.7281 31.886 38.5961 32.942L38.5781 33.122C39.7061 33.086 40.6121 33.002 41.2961 32.87C41.9921 32.726 42.5201 32.558 42.8801 32.366C43.2521 32.174 43.4981 31.964 43.6181 31.736C43.7381 31.508 43.7981 31.28 43.7981 31.052C43.7981 30.86 43.7621 30.68 43.6901 30.512C43.6301 30.344 43.5281 30.2 43.3841 30.08C43.2401 29.948 43.0481 29.846 42.8081 29.774C42.5801 29.702 42.2981 29.666 41.9621 29.666ZM49.6411 24.68H51.0451L50.0011 30.908H50.0551C50.4151 30.176 50.8471 29.594 51.3511 29.162C51.8671 28.718 52.5331 28.496 53.3491 28.496C54.2851 28.496 54.9991 28.796 55.4911 29.396C55.9951 29.996 56.2471 30.896 56.2471 32.096C56.2471 32.72 56.1691 33.392 56.0131 34.112C55.8691 34.82 55.6231 35.48 55.2751 36.092C54.9391 36.704 54.4891 37.214 53.9251 37.622C53.3611 38.018 52.6711 38.216 51.8551 38.216C51.1711 38.216 50.5951 38.066 50.1271 37.766C49.6711 37.454 49.3411 36.992 49.1371 36.38H49.0831L48.8131 38H47.4091L49.6411 24.68ZM51.4231 36.974C52.3231 36.974 53.0311 36.704 53.5471 36.164C54.0631 35.624 54.3931 34.922 54.5371 34.058L54.7531 32.762C54.7771 32.594 54.7951 32.45 54.8071 32.33C54.8191 32.198 54.8251 32.072 54.8251 31.952C54.8251 31.256 54.6571 30.716 54.3211 30.332C53.9971 29.936 53.5111 29.738 52.8631 29.738C52.4791 29.738 52.1011 29.822 51.7291 29.99C51.3571 30.146 51.0091 30.404 50.6851 30.764C50.4451 31.028 50.2291 31.34 50.0371 31.7C49.8571 32.06 49.7311 32.456 49.6591 32.888L49.3171 34.94C49.2091 35.588 49.3591 36.092 49.7671 36.452C50.1751 36.8 50.7271 36.974 51.4231 36.974ZM72.829 38.216C71.737 38.216 70.831 38.012 70.111 37.604C69.403 37.184 68.863 36.65 68.491 36.002L69.607 35.12C69.991 35.732 70.447 36.188 70.975 36.488C71.503 36.788 72.145 36.938 72.901 36.938C73.885 36.938 74.665 36.704 75.241 36.236C75.817 35.756 76.105 35.114 76.105 34.31C76.105 33.794 75.955 33.38 75.655 33.068C75.367 32.756 74.857 32.516 74.125 32.348L72.775 32.042C71.779 31.814 71.053 31.448 70.597 30.944C70.141 30.44 69.913 29.78 69.913 28.964C69.913 28.388 70.021 27.872 70.237 27.416C70.465 26.948 70.777 26.552 71.173 26.228C71.569 25.904 72.043 25.658 72.595 25.49C73.147 25.31 73.759 25.22 74.431 25.22C74.971 25.22 75.457 25.274 75.889 25.382C76.333 25.49 76.723 25.64 77.059 25.832C77.395 26.024 77.683 26.246 77.923 26.498C78.163 26.738 78.367 27.002 78.535 27.29L77.455 28.082C77.107 27.554 76.681 27.158 76.177 26.894C75.685 26.618 75.079 26.48 74.359 26.48C73.447 26.48 72.727 26.696 72.199 27.128C71.683 27.548 71.425 28.124 71.425 28.856C71.425 29.432 71.593 29.864 71.929 30.152C72.277 30.44 72.787 30.662 73.459 30.818L74.773 31.124C75.817 31.364 76.549 31.742 76.969 32.258C77.401 32.774 77.617 33.416 77.617 34.184C77.617 34.784 77.503 35.33 77.275 35.822C77.059 36.314 76.741 36.74 76.321 37.1C75.913 37.448 75.409 37.724 74.809 37.928C74.221 38.12 73.561 38.216 72.829 38.216ZM83.82 38.216C82.644 38.216 81.738 37.892 81.102 37.244C80.466 36.584 80.148 35.582 80.148 34.238C80.148 33.398 80.274 32.63 80.526 31.934C80.778 31.226 81.126 30.62 81.57 30.116C82.026 29.6 82.566 29.204 83.19 28.928C83.826 28.64 84.516 28.496 85.26 28.496C85.716 28.496 86.136 28.55 86.52 28.658C86.904 28.766 87.234 28.928 87.51 29.144C87.798 29.348 88.02 29.606 88.176 29.918C88.332 30.23 88.41 30.59 88.41 30.998C88.41 31.322 88.332 31.658 88.176 32.006C88.032 32.354 87.72 32.678 87.24 32.978C86.772 33.278 86.088 33.53 85.188 33.734C84.3 33.938 83.118 34.058 81.642 34.094C81.63 34.19 81.624 34.28 81.624 34.364C81.624 34.436 81.624 34.484 81.624 34.508C81.624 34.832 81.654 35.144 81.714 35.444C81.774 35.744 81.888 36.014 82.056 36.254C82.224 36.482 82.458 36.668 82.758 36.812C83.058 36.944 83.454 37.01 83.946 37.01C84.282 37.01 84.582 36.974 84.846 36.902C85.122 36.818 85.38 36.698 85.62 36.542C85.872 36.374 86.112 36.164 86.34 35.912C86.58 35.648 86.832 35.33 87.096 34.958L88.086 35.57C87.558 36.434 86.958 37.094 86.286 37.55C85.626 37.994 84.804 38.216 83.82 38.216ZM85.134 29.666C84.198 29.666 83.436 29.948 82.848 30.512C82.26 31.076 81.9 31.886 81.768 32.942L81.75 33.122C82.878 33.086 83.784 33.002 84.468 32.87C85.164 32.726 85.692 32.558 86.052 32.366C86.424 32.174 86.67 31.964 86.79 31.736C86.91 31.508 86.97 31.28 86.97 31.052C86.97 30.86 86.934 30.68 86.862 30.512C86.802 30.344 86.7 30.2 86.556 30.08C86.412 29.948 86.22 29.846 85.98 29.774C85.752 29.702 85.47 29.666 85.134 29.666ZM92.831 38L94.181 29.918H91.571L91.769 28.712H95.783L95.369 31.196H95.459C95.615 30.824 95.795 30.488 95.999 30.188C96.203 29.876 96.437 29.612 96.701 29.396C96.977 29.18 97.289 29.012 97.637 28.892C97.985 28.772 98.381 28.712 98.825 28.712H100.229L99.995 30.116H98.411C97.871 30.116 97.421 30.194 97.061 30.35C96.701 30.494 96.383 30.728 96.107 31.052C96.047 31.124 95.963 31.226 95.855 31.358C95.759 31.478 95.657 31.628 95.549 31.808C95.441 31.988 95.339 32.192 95.243 32.42C95.159 32.648 95.093 32.894 95.045 33.158L94.235 38H92.831ZM105.154 28.712L103.93 36.884L104.164 37.046C104.908 36.95 105.562 36.722 106.126 36.362C106.702 36.002 107.182 35.558 107.566 35.03C107.95 34.502 108.238 33.914 108.43 33.266C108.622 32.618 108.718 31.958 108.718 31.286C108.718 30.878 108.676 30.482 108.592 30.098C108.508 29.702 108.382 29.336 108.214 29L109.564 28.604C109.756 28.964 109.9 29.366 109.996 29.81C110.104 30.254 110.158 30.722 110.158 31.214C110.158 32.162 109.99 33.056 109.654 33.896C109.33 34.736 108.886 35.474 108.322 36.11C107.758 36.734 107.098 37.232 106.342 37.604C105.598 37.964 104.806 38.144 103.966 38.144C103.498 38.144 103.15 38.03 102.922 37.802C102.694 37.574 102.58 37.256 102.58 36.848C102.58 36.752 102.586 36.644 102.598 36.524C102.61 36.404 102.628 36.29 102.652 36.182L103.588 29.918H101.608L101.806 28.712H105.154ZM116.199 38.216C115.023 38.216 114.117 37.892 113.481 37.244C112.845 36.584 112.527 35.582 112.527 34.238C112.527 33.398 112.653 32.63 112.905 31.934C113.157 31.226 113.505 30.62 113.949 30.116C114.405 29.6 114.945 29.204 115.569 28.928C116.205 28.64 116.895 28.496 117.639 28.496C118.095 28.496 118.515 28.55 118.899 28.658C119.283 28.766 119.613 28.928 119.889 29.144C120.177 29.348 120.399 29.606 120.555 29.918C120.711 30.23 120.789 30.59 120.789 30.998C120.789 31.322 120.711 31.658 120.555 32.006C120.411 32.354 120.099 32.678 119.619 32.978C119.151 33.278 118.467 33.53 117.567 33.734C116.679 33.938 115.497 34.058 114.021 34.094C114.009 34.19 114.003 34.28 114.003 34.364C114.003 34.436 114.003 34.484 114.003 34.508C114.003 34.832 114.033 35.144 114.093 35.444C114.153 35.744 114.267 36.014 114.435 36.254C114.603 36.482 114.837 36.668 115.137 36.812C115.437 36.944 115.833 37.01 116.325 37.01C116.661 37.01 116.961 36.974 117.225 36.902C117.501 36.818 117.759 36.698 117.999 36.542C118.251 36.374 118.491 36.164 118.719 35.912C118.959 35.648 119.211 35.33 119.475 34.958L120.465 35.57C119.937 36.434 119.337 37.094 118.665 37.55C118.005 37.994 117.183 38.216 116.199 38.216ZM117.513 29.666C116.577 29.666 115.815 29.948 115.227 30.512C114.639 31.076 114.279 31.886 114.147 32.942L114.129 33.122C115.257 33.086 116.163 33.002 116.847 32.87C117.543 32.726 118.071 32.558 118.431 32.366C118.803 32.174 119.049 31.964 119.169 31.736C119.289 31.508 119.349 31.28 119.349 31.052C119.349 30.86 119.313 30.68 119.241 30.512C119.181 30.344 119.079 30.2 118.935 30.08C118.791 29.948 118.599 29.846 118.359 29.774C118.131 29.702 117.849 29.666 117.513 29.666ZM125.21 38L126.56 29.918H123.95L124.148 28.712H128.162L127.748 31.196H127.838C127.994 30.824 128.174 30.488 128.378 30.188C128.582 29.876 128.816 29.612 129.08 29.396C129.356 29.18 129.668 29.012 130.016 28.892C130.364 28.772 130.76 28.712 131.204 28.712H132.608L132.374 30.116H130.79C130.25 30.116 129.8 30.194 129.44 30.35C129.08 30.494 128.762 30.728 128.486 31.052C128.426 31.124 128.342 31.226 128.234 31.358C128.138 31.478 128.036 31.628 127.928 31.808C127.82 31.988 127.718 32.192 127.622 32.42C127.538 32.648 127.472 32.894 127.424 33.158L126.614 38H125.21Z" fill="#222222"/>
<rect x="0.5" y="173.5" width="156" height="288" rx="16.5" fill="#D6D6FF"/>
<rect x="0.5" y="173.5" width="156" height="288" rx="16.5" stroke="#1C1CFF"/>
<path d="M51.2871 324.216C49.9791 324.216 49.0251 323.826 48.4251 323.046C47.8251 322.266 47.5251 321.144 47.5251 319.68C47.5251 319.2 47.5551 318.66 47.6151 318.06C47.6871 317.448 47.8071 316.83 47.9751 316.206C48.1431 315.57 48.3651 314.958 48.6411 314.37C48.9171 313.77 49.2591 313.236 49.6671 312.768C50.0871 312.3 50.5851 311.928 51.1611 311.652C51.7371 311.364 52.4031 311.22 53.1591 311.22C53.7351 311.22 54.2271 311.304 54.6351 311.472C55.0431 311.64 55.3791 311.862 55.6431 312.138C55.9191 312.402 56.1291 312.702 56.2731 313.038C56.4171 313.374 56.5251 313.716 56.5971 314.064L55.2651 314.496C55.2051 314.232 55.1211 313.98 55.0131 313.74C54.9171 313.5 54.7851 313.29 54.6171 313.11C54.4491 312.93 54.2391 312.786 53.9871 312.678C53.7351 312.57 53.4231 312.516 53.0511 312.516C52.0431 312.516 51.2391 312.9 50.6391 313.668C50.0511 314.424 49.6491 315.45 49.4331 316.746L49.1451 318.474C49.0971 318.75 49.0611 319.02 49.0371 319.284C49.0131 319.548 49.0011 319.806 49.0011 320.058C49.0011 320.922 49.1931 321.618 49.5771 322.146C49.9611 322.662 50.5851 322.92 51.4491 322.92C51.8091 322.92 52.1271 322.872 52.4031 322.776C52.6791 322.668 52.9311 322.512 53.1591 322.308C53.3991 322.104 53.6271 321.846 53.8431 321.534C54.0591 321.222 54.2871 320.856 54.5271 320.436L55.6971 321.03C55.4571 321.522 55.1991 321.966 54.9231 322.362C54.6471 322.758 54.3291 323.094 53.9691 323.37C53.6211 323.646 53.2251 323.856 52.7811 324C52.3491 324.144 51.8511 324.216 51.2871 324.216ZM61.3961 324.216C60.9041 324.216 60.5561 324.096 60.3521 323.856C60.1481 323.616 60.0461 323.31 60.0461 322.938C60.0461 322.854 60.0461 322.758 60.0461 322.65C60.0581 322.542 60.0761 322.446 60.1001 322.362L62.1161 311.886H58.8401L59.0381 310.68H63.7721L61.4321 322.83L61.8821 322.974L65.5721 319.842L66.3821 320.634L64.5101 322.326C64.0781 322.722 63.7061 323.046 63.3941 323.298C63.0821 323.538 62.8061 323.73 62.5661 323.874C62.3381 324.006 62.1281 324.096 61.9361 324.144C61.7561 324.192 61.5761 324.216 61.3961 324.216ZM73.827 312.642C73.443 312.642 73.173 312.57 73.017 312.426C72.861 312.282 72.783 312.114 72.783 311.922C72.783 311.85 72.789 311.772 72.801 311.688C72.813 311.604 72.831 311.508 72.855 311.4C72.903 311.124 73.023 310.914 73.215 310.77C73.407 310.614 73.683 310.536 74.043 310.536C74.427 310.536 74.697 310.608 74.853 310.752C75.009 310.896 75.087 311.064 75.087 311.256C75.087 311.328 75.081 311.406 75.069 311.49C75.057 311.574 75.039 311.67 75.015 311.778C74.967 312.054 74.847 312.27 74.655 312.426C74.463 312.57 74.187 312.642 73.827 312.642ZM72.603 324.216C72.147 324.216 71.799 324.102 71.559 323.874C71.331 323.634 71.217 323.334 71.217 322.974C71.217 322.854 71.223 322.734 71.235 322.614C71.259 322.482 71.283 322.362 71.307 322.254L72.531 315.918H69.183L69.381 314.712H74.169L72.603 322.812L73.017 322.974L76.563 319.914L77.409 320.706L75.771 322.218C75.351 322.614 74.985 322.938 74.673 323.19C74.373 323.442 74.103 323.646 73.863 323.802C73.623 323.958 73.401 324.066 73.197 324.126C73.005 324.186 72.807 324.216 72.603 324.216ZM83.486 324.216C82.31 324.216 81.404 323.892 80.768 323.244C80.132 322.584 79.814 321.582 79.814 320.238C79.814 319.398 79.94 318.63 80.192 317.934C80.444 317.226 80.792 316.62 81.236 316.116C81.692 315.6 82.232 315.204 82.856 314.928C83.492 314.64 84.182 314.496 84.926 314.496C85.382 314.496 85.802 314.55 86.186 314.658C86.57 314.766 86.9 314.928 87.176 315.144C87.464 315.348 87.686 315.606 87.842 315.918C87.998 316.23 88.076 316.59 88.076 316.998C88.076 317.322 87.998 317.658 87.842 318.006C87.698 318.354 87.386 318.678 86.906 318.978C86.438 319.278 85.754 319.53 84.854 319.734C83.966 319.938 82.784 320.058 81.308 320.094C81.296 320.19 81.29 320.28 81.29 320.364C81.29 320.436 81.29 320.484 81.29 320.508C81.29 320.832 81.32 321.144 81.38 321.444C81.44 321.744 81.554 322.014 81.722 322.254C81.89 322.482 82.124 322.668 82.424 322.812C82.724 322.944 83.12 323.01 83.612 323.01C83.948 323.01 84.248 322.974 84.512 322.902C84.788 322.818 85.046 322.698 85.286 322.542C85.538 322.374 85.778 322.164 86.006 321.912C86.246 321.648 86.498 321.33 86.762 320.958L87.752 321.57C87.224 322.434 86.624 323.094 85.952 323.55C85.292 323.994 84.47 324.216 83.486 324.216ZM84.8 315.666C83.864 315.666 83.102 315.948 82.514 316.512C81.926 317.076 81.566 317.886 81.434 318.942L81.416 319.122C82.544 319.086 83.45 319.002 84.134 318.87C84.83 318.726 85.358 318.558 85.718 318.366C86.09 318.174 86.336 317.964 86.456 317.736C86.576 317.508 86.636 317.28 86.636 317.052C86.636 316.86 86.6 316.68 86.528 316.512C86.468 316.344 86.366 316.2 86.222 316.08C86.078 315.948 85.886 315.846 85.646 315.774C85.418 315.702 85.136 315.666 84.8 315.666ZM90.355 324L91.903 314.712H93.307L92.947 316.908H93.019C93.367 316.164 93.781 315.576 94.261 315.144C94.741 314.712 95.359 314.496 96.115 314.496C96.895 314.496 97.507 314.73 97.951 315.198C98.407 315.666 98.635 316.326 98.635 317.178C98.635 317.358 98.623 317.556 98.599 317.772C98.587 317.976 98.563 318.18 98.527 318.384L97.591 324H96.187L97.105 318.51C97.141 318.294 97.165 318.102 97.177 317.934C97.189 317.754 97.195 317.616 97.195 317.52C97.195 316.968 97.069 316.536 96.817 316.224C96.565 315.9 96.175 315.738 95.647 315.738C95.239 315.738 94.873 315.828 94.549 316.008C94.237 316.188 93.949 316.434 93.685 316.746C93.637 316.806 93.559 316.902 93.451 317.034C93.355 317.154 93.253 317.31 93.145 317.502C93.037 317.682 92.935 317.892 92.839 318.132C92.743 318.36 92.671 318.606 92.623 318.87L91.759 324H90.355ZM104.388 324.216C103.968 324.216 103.638 324.102 103.398 323.874C103.17 323.646 103.056 323.316 103.056 322.884C103.056 322.8 103.056 322.686 103.056 322.542C103.068 322.398 103.086 322.278 103.11 322.182L104.19 315.918H101.508L101.706 314.712H103.596C103.908 314.712 104.136 314.652 104.28 314.532C104.436 314.4 104.544 314.178 104.604 313.866L105.018 311.436H106.35L105.792 314.712H109.626L109.428 315.918H105.594L104.442 322.794L104.802 323.01L108.852 320.31L109.554 321.21L107.52 322.65C107.1 322.95 106.734 323.202 106.422 323.406C106.122 323.598 105.846 323.754 105.594 323.874C105.354 323.994 105.138 324.078 104.946 324.126C104.754 324.186 104.568 324.216 104.388 324.216Z" fill="#222222"/>
<rect x="654.5" y="173.5" width="156" height="288" rx="16.5" fill="#D6D6FF"/>
<rect x="654.5" y="173.5" width="156" height="288" rx="16.5" stroke="#1C1CFF"/>
<path d="M704.909 324.216C703.817 324.216 702.911 324.012 702.191 323.604C701.483 323.184 700.943 322.65 700.571 322.002L701.687 321.12C702.071 321.732 702.527 322.188 703.055 322.488C703.583 322.788 704.225 322.938 704.981 322.938C705.965 322.938 706.745 322.704 707.321 322.236C707.897 321.756 708.185 321.114 708.185 320.31C708.185 319.794 708.035 319.38 707.735 319.068C707.447 318.756 706.937 318.516 706.205 318.348L704.855 318.042C703.859 317.814 703.133 317.448 702.677 316.944C702.221 316.44 701.993 315.78 701.993 314.964C701.993 314.388 702.101 313.872 702.317 313.416C702.545 312.948 702.857 312.552 703.253 312.228C703.649 311.904 704.123 311.658 704.675 311.49C705.227 311.31 705.839 311.22 706.511 311.22C707.051 311.22 707.537 311.274 707.969 311.382C708.413 311.49 708.803 311.64 709.139 311.832C709.475 312.024 709.763 312.246 710.003 312.498C710.243 312.738 710.447 313.002 710.615 313.29L709.535 314.082C709.187 313.554 708.761 313.158 708.257 312.894C707.765 312.618 707.159 312.48 706.439 312.48C705.527 312.48 704.807 312.696 704.279 313.128C703.763 313.548 703.505 314.124 703.505 314.856C703.505 315.432 703.673 315.864 704.009 316.152C704.357 316.44 704.867 316.662 705.539 316.818L706.853 317.124C707.897 317.364 708.629 317.742 709.049 318.258C709.481 318.774 709.697 319.416 709.697 320.184C709.697 320.784 709.583 321.33 709.355 321.822C709.139 322.314 708.821 322.74 708.401 323.1C707.993 323.448 707.489 323.724 706.889 323.928C706.301 324.12 705.641 324.216 704.909 324.216ZM715.9 324.216C714.724 324.216 713.818 323.892 713.182 323.244C712.546 322.584 712.228 321.582 712.228 320.238C712.228 319.398 712.354 318.63 712.606 317.934C712.858 317.226 713.206 316.62 713.65 316.116C714.106 315.6 714.646 315.204 715.27 314.928C715.906 314.64 716.596 314.496 717.34 314.496C717.796 314.496 718.216 314.55 718.6 314.658C718.984 314.766 719.314 314.928 719.59 315.144C719.878 315.348 720.1 315.606 720.256 315.918C720.412 316.23 720.49 316.59 720.49 316.998C720.49 317.322 720.412 317.658 720.256 318.006C720.112 318.354 719.8 318.678 719.32 318.978C718.852 319.278 718.168 319.53 717.268 319.734C716.38 319.938 715.198 320.058 713.722 320.094C713.71 320.19 713.704 320.28 713.704 320.364C713.704 320.436 713.704 320.484 713.704 320.508C713.704 320.832 713.734 321.144 713.794 321.444C713.854 321.744 713.968 322.014 714.136 322.254C714.304 322.482 714.538 322.668 714.838 322.812C715.138 322.944 715.534 323.01 716.026 323.01C716.362 323.01 716.662 322.974 716.926 322.902C717.202 322.818 717.46 322.698 717.7 322.542C717.952 322.374 718.192 322.164 718.42 321.912C718.66 321.648 718.912 321.33 719.176 320.958L720.166 321.57C719.638 322.434 719.038 323.094 718.366 323.55C717.706 323.994 716.884 324.216 715.9 324.216ZM717.214 315.666C716.278 315.666 715.516 315.948 714.928 316.512C714.34 317.076 713.98 317.886 713.848 318.942L713.83 319.122C714.958 319.086 715.864 319.002 716.548 318.87C717.244 318.726 717.772 318.558 718.132 318.366C718.504 318.174 718.75 317.964 718.87 317.736C718.99 317.508 719.05 317.28 719.05 317.052C719.05 316.86 719.014 316.68 718.942 316.512C718.882 316.344 718.78 316.2 718.636 316.08C718.492 315.948 718.3 315.846 718.06 315.774C717.832 315.702 717.55 315.666 717.214 315.666ZM724.911 324L726.261 315.918H723.651L723.849 314.712H727.863L727.449 317.196H727.539C727.695 316.824 727.875 316.488 728.079 316.188C728.283 315.876 728.517 315.612 728.781 315.396C729.057 315.18 729.369 315.012 729.717 314.892C730.065 314.772 730.461 314.712 730.905 314.712H732.309L732.075 316.116H730.491C729.951 316.116 729.501 316.194 729.141 316.35C728.781 316.494 728.463 316.728 728.187 317.052C728.127 317.124 728.043 317.226 727.935 317.358C727.839 317.478 727.737 317.628 727.629 317.808C727.521 317.988 727.419 318.192 727.323 318.42C727.239 318.648 727.173 318.894 727.125 319.158L726.315 324H724.911ZM737.234 314.712L736.01 322.884L736.244 323.046C736.988 322.95 737.642 322.722 738.206 322.362C738.782 322.002 739.262 321.558 739.646 321.03C740.03 320.502 740.318 319.914 740.51 319.266C740.702 318.618 740.798 317.958 740.798 317.286C740.798 316.878 740.756 316.482 740.672 316.098C740.588 315.702 740.462 315.336 740.294 315L741.644 314.604C741.836 314.964 741.98 315.366 742.076 315.81C742.184 316.254 742.238 316.722 742.238 317.214C742.238 318.162 742.07 319.056 741.734 319.896C741.41 320.736 740.966 321.474 740.402 322.11C739.838 322.734 739.178 323.232 738.422 323.604C737.678 323.964 736.886 324.144 736.046 324.144C735.578 324.144 735.23 324.03 735.002 323.802C734.774 323.574 734.66 323.256 734.66 322.848C734.66 322.752 734.666 322.644 734.678 322.524C734.69 322.404 734.708 322.29 734.732 322.182L735.668 315.918H733.688L733.886 314.712H737.234ZM748.279 324.216C747.103 324.216 746.197 323.892 745.561 323.244C744.925 322.584 744.607 321.582 744.607 320.238C744.607 319.398 744.733 318.63 744.985 317.934C745.237 317.226 745.585 316.62 746.029 316.116C746.485 315.6 747.025 315.204 747.649 314.928C748.285 314.64 748.975 314.496 749.719 314.496C750.175 314.496 750.595 314.55 750.979 314.658C751.363 314.766 751.693 314.928 751.969 315.144C752.257 315.348 752.479 315.606 752.635 315.918C752.791 316.23 752.869 316.59 752.869 316.998C752.869 317.322 752.791 317.658 752.635 318.006C752.491 318.354 752.179 318.678 751.699 318.978C751.231 319.278 750.547 319.53 749.647 319.734C748.759 319.938 747.577 320.058 746.101 320.094C746.089 320.19 746.083 320.28 746.083 320.364C746.083 320.436 746.083 320.484 746.083 320.508C746.083 320.832 746.113 321.144 746.173 321.444C746.233 321.744 746.347 322.014 746.515 322.254C746.683 322.482 746.917 322.668 747.217 322.812C747.517 322.944 747.913 323.01 748.405 323.01C748.741 323.01 749.041 322.974 749.305 322.902C749.581 322.818 749.839 322.698 750.079 322.542C750.331 322.374 750.571 322.164 750.799 321.912C751.039 321.648 751.291 321.33 751.555 320.958L752.545 321.57C752.017 322.434 751.417 323.094 750.745 323.55C750.085 323.994 749.263 324.216 748.279 324.216ZM749.593 315.666C748.657 315.666 747.895 315.948 747.307 316.512C746.719 317.076 746.359 317.886 746.227 318.942L746.209 319.122C747.337 319.086 748.243 319.002 748.927 318.87C749.623 318.726 750.151 318.558 750.511 318.366C750.883 318.174 751.129 317.964 751.249 317.736C751.369 317.508 751.429 317.28 751.429 317.052C751.429 316.86 751.393 316.68 751.321 316.512C751.261 316.344 751.159 316.2 751.015 316.08C750.871 315.948 750.679 315.846 750.439 315.774C750.211 315.702 749.929 315.666 749.593 315.666ZM757.29 324L758.64 315.918H756.03L756.228 314.712H760.242L759.828 317.196H759.918C760.074 316.824 760.254 316.488 760.458 316.188C760.662 315.876 760.896 315.612 761.16 315.396C761.436 315.18 761.748 315.012 762.096 314.892C762.444 314.772 762.84 314.712 763.284 314.712H764.688L764.454 316.116H762.87C762.33 316.116 761.88 316.194 761.52 316.35C761.16 316.494 760.842 316.728 760.566 317.052C760.506 317.124 760.422 317.226 760.314 317.358C760.218 317.478 760.116 317.628 760.008 317.808C759.9 317.988 759.798 318.192 759.702 318.42C759.618 318.648 759.552 318.894 759.504 319.158L758.694 324H757.29Z" fill="#222222"/>
<rect x="333.5" y="165.5" width="141" height="288" rx="16.5" fill="#FFCBAD"/>
<rect x="333.5" y="165.5" width="141" height="288" rx="16.5" stroke="#FF7324"/>
<path d="M352.969 303.436H357.019C358.003 303.436 358.753 303.7 359.269 304.228C359.785 304.744 360.043 305.446 360.043 306.334C360.043 307.162 359.821 307.834 359.377 308.35C358.933 308.866 358.363 309.22 357.667 309.412L357.649 309.484C357.925 309.568 358.183 309.676 358.423 309.808C358.663 309.94 358.867 310.108 359.035 310.312C359.215 310.516 359.353 310.756 359.449 311.032C359.545 311.308 359.593 311.632 359.593 312.004C359.593 312.532 359.497 313.036 359.305 313.516C359.113 313.996 358.843 314.422 358.495 314.794C358.159 315.154 357.745 315.448 357.253 315.676C356.773 315.892 356.245 316 355.669 316H350.863L352.969 303.436ZM355.363 314.704C356.083 314.704 356.659 314.548 357.091 314.236C357.535 313.924 357.811 313.444 357.919 312.796L358.009 312.256C358.033 312.148 358.051 312.04 358.063 311.932C358.075 311.824 358.081 311.71 358.081 311.59C358.081 311.134 357.907 310.774 357.559 310.51C357.223 310.246 356.743 310.114 356.119 310.114H353.311L352.537 314.704H355.363ZM356.083 308.89C356.767 308.89 357.295 308.746 357.667 308.458C358.051 308.158 358.291 307.738 358.387 307.198L358.477 306.658C358.513 306.442 358.531 306.25 358.531 306.082C358.531 305.602 358.369 305.26 358.045 305.056C357.733 304.84 357.307 304.732 356.767 304.732H354.193L353.509 308.89H356.083ZM365.31 316.216C364.818 316.216 364.47 316.096 364.266 315.856C364.062 315.616 363.96 315.31 363.96 314.938C363.96 314.854 363.96 314.758 363.96 314.65C363.972 314.542 363.99 314.446 364.014 314.362L366.03 303.886H362.754L362.952 302.68H367.686L365.346 314.83L365.796 314.974L369.486 311.842L370.296 312.634L368.424 314.326C367.992 314.722 367.62 315.046 367.308 315.298C366.996 315.538 366.72 315.73 366.48 315.874C366.252 316.006 366.042 316.096 365.85 316.144C365.67 316.192 365.49 316.216 365.31 316.216ZM376.391 316.216C375.791 316.216 375.263 316.12 374.807 315.928C374.363 315.736 373.991 315.472 373.691 315.136C373.391 314.788 373.163 314.374 373.007 313.894C372.851 313.402 372.773 312.868 372.773 312.292C372.773 311.404 372.899 310.606 373.151 309.898C373.403 309.178 373.745 308.566 374.177 308.062C374.621 307.558 375.137 307.174 375.725 306.91C376.313 306.634 376.949 306.496 377.633 306.496C378.233 306.496 378.761 306.592 379.217 306.784C379.673 306.976 380.051 307.246 380.351 307.594C380.663 307.93 380.891 308.344 381.035 308.836C381.191 309.316 381.269 309.844 381.269 310.42C381.269 311.308 381.143 312.112 380.891 312.832C380.639 313.54 380.291 314.146 379.847 314.65C379.415 315.154 378.899 315.544 378.299 315.82C377.711 316.084 377.075 316.216 376.391 316.216ZM376.463 314.992C377.339 314.992 378.035 314.728 378.551 314.2C379.079 313.66 379.421 312.928 379.577 312.004L379.757 310.924C379.793 310.708 379.817 310.528 379.829 310.384C379.841 310.24 379.847 310.114 379.847 310.006C379.847 309.214 379.643 308.638 379.235 308.278C378.827 307.906 378.275 307.72 377.579 307.72C376.703 307.72 376.001 307.99 375.473 308.53C374.957 309.058 374.621 309.784 374.465 310.708L374.285 311.788C374.249 312.004 374.225 312.184 374.213 312.328C374.201 312.472 374.195 312.598 374.195 312.706C374.195 313.498 374.399 314.08 374.807 314.452C375.215 314.812 375.767 314.992 376.463 314.992ZM387.274 316.216C386.698 316.216 386.188 316.12 385.744 315.928C385.312 315.736 384.946 315.472 384.646 315.136C384.358 314.788 384.136 314.374 383.98 313.894C383.836 313.402 383.764 312.868 383.764 312.292C383.764 311.404 383.89 310.606 384.142 309.898C384.394 309.178 384.736 308.566 385.168 308.062C385.6 307.558 386.104 307.174 386.68 306.91C387.268 306.634 387.892 306.496 388.552 306.496C389.044 306.496 389.47 306.556 389.83 306.676C390.202 306.796 390.52 306.958 390.784 307.162C391.048 307.354 391.258 307.588 391.414 307.864C391.582 308.14 391.708 308.428 391.792 308.728L390.586 309.196C390.406 308.62 390.136 308.23 389.776 308.026C389.428 307.822 388.966 307.72 388.39 307.72C387.598 307.72 386.95 307.978 386.446 308.494C385.954 309.01 385.624 309.754 385.456 310.726L385.276 311.806C385.24 312.022 385.216 312.19 385.204 312.31C385.192 312.43 385.186 312.55 385.186 312.67C385.186 313.462 385.39 314.05 385.798 314.434C386.218 314.806 386.77 314.992 387.454 314.992C387.658 314.992 387.862 314.968 388.066 314.92C388.282 314.872 388.51 314.77 388.75 314.614C389.002 314.458 389.272 314.23 389.56 313.93C389.848 313.63 390.178 313.228 390.55 312.724L391.558 313.318C391.27 313.786 390.976 314.206 390.676 314.578C390.376 314.938 390.052 315.238 389.704 315.478C389.368 315.718 388.996 315.898 388.588 316.018C388.192 316.15 387.754 316.216 387.274 316.216ZM396.501 302.68H397.905L396.861 308.908H396.933C397.269 308.188 397.689 307.606 398.193 307.162C398.697 306.718 399.339 306.496 400.119 306.496C400.863 306.496 401.451 306.706 401.883 307.126C402.327 307.534 402.549 308.086 402.549 308.782C402.549 309.058 402.501 309.358 402.405 309.682C402.309 309.994 402.123 310.306 401.847 310.618C401.571 310.918 401.187 311.206 400.695 311.482C400.215 311.746 399.579 311.974 398.787 312.166L400.065 314.956L400.299 314.992L402.693 312.796L403.467 313.606L402.189 314.884C401.721 315.352 401.331 315.694 401.019 315.91C400.707 316.114 400.377 316.216 400.029 316.216C399.717 316.216 399.453 316.132 399.237 315.964C399.033 315.796 398.835 315.502 398.643 315.082L397.185 311.914C397.941 311.734 398.565 311.536 399.057 311.32C399.561 311.092 399.963 310.858 400.263 310.618C400.575 310.378 400.791 310.126 400.911 309.862C401.043 309.598 401.109 309.328 401.109 309.052C401.109 308.632 400.977 308.302 400.713 308.062C400.461 307.822 400.089 307.702 399.597 307.702C399.141 307.702 398.751 307.804 398.427 308.008C398.103 308.2 397.815 308.452 397.563 308.764C397.299 309.088 397.077 309.424 396.897 309.772C396.717 310.12 396.597 310.486 396.537 310.87L395.673 316H394.269L396.501 302.68ZM408.86 316.216C408.284 316.216 407.774 316.12 407.33 315.928C406.898 315.736 406.532 315.472 406.232 315.136C405.944 314.788 405.722 314.374 405.566 313.894C405.422 313.402 405.35 312.868 405.35 312.292C405.35 311.404 405.476 310.606 405.728 309.898C405.98 309.178 406.322 308.566 406.754 308.062C407.186 307.558 407.69 307.174 408.266 306.91C408.854 306.634 409.478 306.496 410.138 306.496C410.63 306.496 411.056 306.556 411.416 306.676C411.788 306.796 412.106 306.958 412.37 307.162C412.634 307.354 412.844 307.588 413 307.864C413.168 308.14 413.294 308.428 413.378 308.728L412.172 309.196C411.992 308.62 411.722 308.23 411.362 308.026C411.014 307.822 410.552 307.72 409.976 307.72C409.184 307.72 408.536 307.978 408.032 308.494C407.54 309.01 407.21 309.754 407.042 310.726L406.862 311.806C406.826 312.022 406.802 312.19 406.79 312.31C406.778 312.43 406.772 312.55 406.772 312.67C406.772 313.462 406.976 314.05 407.384 314.434C407.804 314.806 408.356 314.992 409.04 314.992C409.244 314.992 409.448 314.968 409.652 314.92C409.868 314.872 410.096 314.77 410.336 314.614C410.588 314.458 410.858 314.23 411.146 313.93C411.434 313.63 411.764 313.228 412.136 312.724L413.144 313.318C412.856 313.786 412.562 314.206 412.262 314.578C411.962 314.938 411.638 315.238 411.29 315.478C410.954 315.718 410.582 315.898 410.174 316.018C409.778 316.15 409.34 316.216 408.86 316.216ZM418.087 302.68H419.491L418.447 308.908H418.519C418.867 308.164 419.281 307.576 419.761 307.144C420.241 306.712 420.859 306.496 421.615 306.496C422.395 306.496 423.007 306.73 423.451 307.198C423.907 307.666 424.135 308.326 424.135 309.178C424.135 309.358 424.123 309.556 424.099 309.772C424.087 309.976 424.063 310.18 424.027 310.384L423.091 316H421.687L422.605 310.51C422.641 310.294 422.665 310.102 422.677 309.934C422.689 309.754 422.695 309.616 422.695 309.52C422.695 308.968 422.569 308.536 422.317 308.224C422.065 307.9 421.675 307.738 421.147 307.738C420.739 307.738 420.373 307.828 420.049 308.008C419.737 308.188 419.449 308.434 419.185 308.746C419.137 308.806 419.059 308.902 418.951 309.034C418.855 309.154 418.753 309.31 418.645 309.502C418.537 309.682 418.435 309.892 418.339 310.132C418.243 310.36 418.171 310.606 418.123 310.87L417.259 316H415.855L418.087 302.68ZM432.48 316L432.84 313.804H432.786C432.426 314.536 431.988 315.124 431.472 315.568C430.968 316 430.308 316.216 429.492 316.216C428.556 316.216 427.836 315.916 427.332 315.316C426.84 314.716 426.594 313.816 426.594 312.616C426.594 311.992 426.666 311.326 426.81 310.618C426.966 309.898 427.212 309.232 427.548 308.62C427.896 308.008 428.352 307.504 428.916 307.108C429.48 306.7 430.17 306.496 430.986 306.496C431.67 306.496 432.24 306.652 432.696 306.964C433.164 307.264 433.5 307.72 433.704 308.332H433.758L434.028 306.712H435.432L433.884 316H432.48ZM429.978 314.974C430.362 314.974 430.74 314.896 431.112 314.74C431.484 314.572 431.832 314.308 432.156 313.948C432.396 313.684 432.606 313.372 432.786 313.012C432.978 312.652 433.11 312.256 433.182 311.824L433.524 309.772C433.632 309.124 433.476 308.626 433.056 308.278C432.648 307.918 432.096 307.738 431.4 307.738C430.5 307.738 429.792 308.008 429.276 308.548C428.772 309.088 428.448 309.79 428.304 310.654L428.088 311.95C428.064 312.118 428.046 312.268 428.034 312.4C428.022 312.52 428.016 312.64 428.016 312.76C428.016 313.456 428.178 314.002 428.502 314.398C428.838 314.782 429.33 314.974 429.978 314.974ZM442.499 304.642C442.115 304.642 441.845 304.57 441.689 304.426C441.533 304.282 441.455 304.114 441.455 303.922C441.455 303.85 441.461 303.772 441.473 303.688C441.485 303.604 441.503 303.508 441.527 303.4C441.575 303.124 441.695 302.914 441.887 302.77C442.079 302.614 442.355 302.536 442.715 302.536C443.099 302.536 443.369 302.608 443.525 302.752C443.681 302.896 443.759 303.064 443.759 303.256C443.759 303.328 443.753 303.406 443.741 303.49C443.729 303.574 443.711 303.67 443.687 303.778C443.639 304.054 443.519 304.27 443.327 304.426C443.135 304.57 442.859 304.642 442.499 304.642ZM441.275 316.216C440.819 316.216 440.471 316.102 440.231 315.874C440.003 315.634 439.889 315.334 439.889 314.974C439.889 314.854 439.895 314.734 439.907 314.614C439.931 314.482 439.955 314.362 439.979 314.254L441.203 307.918H437.855L438.053 306.712H442.841L441.275 314.812L441.689 314.974L445.235 311.914L446.081 312.706L444.443 314.218C444.023 314.614 443.657 314.938 443.345 315.19C443.045 315.442 442.775 315.646 442.535 315.802C442.295 315.958 442.073 316.066 441.869 316.126C441.677 316.186 441.479 316.216 441.275 316.216ZM448.234 316L449.782 306.712H451.186L450.826 308.908H450.898C451.246 308.164 451.66 307.576 452.14 307.144C452.62 306.712 453.238 306.496 453.994 306.496C454.774 306.496 455.386 306.73 455.83 307.198C456.286 307.666 456.514 308.326 456.514 309.178C456.514 309.358 456.502 309.556 456.478 309.772C456.466 309.976 456.442 310.18 456.406 310.384L455.47 316H454.066L454.984 310.51C455.02 310.294 455.044 310.102 455.056 309.934C455.068 309.754 455.074 309.616 455.074 309.52C455.074 308.968 454.948 308.536 454.696 308.224C454.444 307.9 454.054 307.738 453.526 307.738C453.118 307.738 452.752 307.828 452.428 308.008C452.116 308.188 451.828 308.434 451.564 308.746C451.516 308.806 451.438 308.902 451.33 309.034C451.234 309.154 451.132 309.31 451.024 309.502C450.916 309.682 450.814 309.892 450.718 310.132C450.622 310.36 450.55 310.606 450.502 310.87L449.638 316H448.234Z" fill="#222222"/>
<path d="M78 62L78 97.7011L78 131.775L78 167" stroke="#8C8C8C" stroke-width="2"/>
<path d="M73.216 166L82.8084 166C83.6656 166 84.1255 167.008 83.5637 167.655L78.8078 173.137C78.4113 173.594 77.703 173.597 77.3027 173.143L72.4661 167.662C71.8964 167.016 72.3549 166 73.216 166Z" fill="#8C8C8C"/>
<path d="M156 251L212.782 251L266.976 251L323 251" stroke="#8C8C8C" stroke-width="2"/>
<path d="M321 256.319L321 245.668C321 244.912 321.805 244.43 322.471 244.785L332.362 250.066C333.064 250.442 333.068 251.447 332.368 251.827L322.477 257.198C321.811 257.56 321 257.077 321 256.319Z" fill="#8C8C8C"/>
<path d="M334 394L277.218 394L223.024 394L167 394" stroke="#8C8C8C" stroke-width="2"/>
<path d="M169 388.681L169 399.332C169 400.088 168.195 400.57 167.529 400.215L157.638 394.934C156.936 394.558 156.932 393.553 157.632 393.173L167.523 387.802C168.189 387.44 169 387.923 169 388.681Z" fill="#8C8C8C"/>
<path d="M89.829 125.192C88.9117 125.192 88.1117 125.053 87.429 124.776C86.757 124.499 86.2503 124.12 85.909 123.64L87.237 122.408C87.557 122.76 87.9303 123.037 88.357 123.24C88.7943 123.432 89.2903 123.528 89.845 123.528C90.3143 123.528 90.6823 123.459 90.949 123.32C91.2157 123.171 91.349 122.947 91.349 122.648C91.349 122.413 91.2583 122.253 91.077 122.168C90.8957 122.072 90.645 121.997 90.325 121.944L88.997 121.736C88.6237 121.683 88.277 121.603 87.957 121.496C87.637 121.379 87.3597 121.224 87.125 121.032C86.8903 120.84 86.7037 120.605 86.565 120.328C86.4263 120.051 86.357 119.715 86.357 119.32C86.357 118.456 86.6877 117.779 87.349 117.288C88.0103 116.797 88.9383 116.552 90.133 116.552C90.9437 116.552 91.6317 116.664 92.197 116.888C92.773 117.101 93.2317 117.411 93.573 117.816L92.389 119.16C92.1437 118.893 91.829 118.669 91.445 118.488C91.061 118.307 90.597 118.216 90.053 118.216C89.1357 118.216 88.677 118.493 88.677 119.048C88.677 119.293 88.7677 119.464 88.949 119.56C89.1303 119.645 89.381 119.715 89.701 119.768L91.013 119.976C91.3863 120.029 91.733 120.115 92.053 120.232C92.373 120.339 92.6503 120.488 92.885 120.68C93.1303 120.872 93.3223 121.107 93.461 121.384C93.5997 121.661 93.669 121.997 93.669 122.392C93.669 123.256 93.333 123.939 92.661 124.44C91.9997 124.941 91.0557 125.192 89.829 125.192ZM99.5188 125.192C98.8788 125.192 98.3028 125.096 97.7908 124.904C97.2788 124.701 96.8414 124.413 96.4788 124.04C96.1268 123.667 95.8548 123.213 95.6628 122.68C95.4708 122.147 95.3748 121.544 95.3748 120.872C95.3748 120.2 95.4708 119.597 95.6628 119.064C95.8548 118.531 96.1268 118.077 96.4788 117.704C96.8414 117.331 97.2788 117.048 97.7908 116.856C98.3028 116.653 98.8788 116.552 99.5188 116.552C100.159 116.552 100.735 116.653 101.247 116.856C101.759 117.048 102.191 117.331 102.543 117.704C102.905 118.077 103.183 118.531 103.375 119.064C103.567 119.597 103.663 120.2 103.663 120.872C103.663 121.544 103.567 122.147 103.375 122.68C103.183 123.213 102.905 123.667 102.543 124.04C102.191 124.413 101.759 124.701 101.247 124.904C100.735 125.096 100.159 125.192 99.5188 125.192ZM99.5188 123.432C100.052 123.432 100.468 123.267 100.767 122.936C101.065 122.605 101.215 122.136 101.215 121.528V120.216C101.215 119.608 101.065 119.139 100.767 118.808C100.468 118.477 100.052 118.312 99.5188 118.312C98.9854 118.312 98.5694 118.477 98.2708 118.808C97.9721 119.139 97.8228 119.608 97.8228 120.216V121.528C97.8228 122.136 97.9721 122.605 98.2708 122.936C98.5694 123.267 98.9854 123.432 99.5188 123.432ZM105.449 123.16H107.881V118.584H105.289V116.744H107.881V115.544C107.881 114.84 108.083 114.269 108.489 113.832C108.905 113.384 109.545 113.16 110.409 113.16H113.209V115H110.249V116.744H113.209V118.584H110.249V123.16H112.841V125H105.449V123.16ZM119.346 125C118.493 125 117.858 124.776 117.442 124.328C117.026 123.88 116.818 123.309 116.818 122.616V118.584H114.578V116.744H116.034C116.386 116.744 116.637 116.675 116.786 116.536C116.936 116.397 117.01 116.141 117.01 115.768V113.832H119.186V116.744H122.402V118.584H119.186V123.16H122.402V125H119.346ZM123.612 116.744H125.58L126.172 123.432H126.332L127.308 116.744H129.388L130.348 123.432H130.508L131.116 116.744H132.988L132.012 125H129.196L128.38 119.304H128.22L127.404 125H124.588L123.612 116.744ZM140.886 125C140.395 125 140 124.877 139.702 124.632C139.403 124.376 139.227 124.013 139.174 123.544H139.094C138.944 124.088 138.646 124.499 138.198 124.776C137.76 125.053 137.222 125.192 136.582 125.192C135.782 125.192 135.136 124.979 134.646 124.552C134.166 124.115 133.926 123.507 133.926 122.728C133.926 121.864 134.24 121.224 134.87 120.808C135.499 120.392 136.422 120.184 137.638 120.184H138.966V119.768C138.966 119.277 138.848 118.909 138.614 118.664C138.39 118.408 138.006 118.28 137.462 118.28C136.96 118.28 136.555 118.376 136.246 118.568C135.936 118.76 135.67 119.011 135.446 119.32L134.15 118.168C134.427 117.699 134.859 117.315 135.446 117.016C136.043 116.707 136.806 116.552 137.734 116.552C138.864 116.552 139.744 116.813 140.374 117.336C141.014 117.848 141.334 118.627 141.334 119.672V123.288H142.246V125H140.886ZM137.478 123.64C137.894 123.64 138.246 123.539 138.534 123.336C138.822 123.133 138.966 122.84 138.966 122.456V121.464H137.702C136.731 121.464 136.246 121.789 136.246 122.44V122.76C136.246 123.048 136.358 123.267 136.582 123.416C136.806 123.565 137.104 123.64 137.478 123.64ZM143.872 123.16H145.776V118.584H143.872V116.744H148.144V119.08H148.256C148.33 118.781 148.432 118.493 148.56 118.216C148.698 117.928 148.869 117.677 149.072 117.464C149.285 117.24 149.541 117.064 149.84 116.936C150.138 116.808 150.49 116.744 150.896 116.744H151.68V118.92H149.92C149.333 118.92 148.89 119.096 148.592 119.448C148.293 119.789 148.144 120.211 148.144 120.712V123.16H150.864V125H143.872V123.16ZM157.305 125.192C155.919 125.192 154.868 124.808 154.153 124.04C153.439 123.272 153.081 122.227 153.081 120.904C153.081 120.232 153.172 119.629 153.353 119.096C153.545 118.552 153.812 118.093 154.153 117.72C154.505 117.336 154.927 117.048 155.417 116.856C155.919 116.653 156.479 116.552 157.097 116.552C157.716 116.552 158.271 116.653 158.761 116.856C159.252 117.048 159.668 117.325 160.009 117.688C160.351 118.051 160.612 118.493 160.793 119.016C160.985 119.528 161.081 120.104 161.081 120.744V121.448H155.433V121.592C155.433 122.125 155.599 122.557 155.929 122.888C156.26 123.208 156.745 123.368 157.385 123.368C157.876 123.368 158.297 123.277 158.649 123.096C159.001 122.904 159.305 122.653 159.561 122.344L160.841 123.736C160.521 124.131 160.073 124.472 159.497 124.76C158.921 125.048 158.191 125.192 157.305 125.192ZM157.113 118.248C156.601 118.248 156.191 118.408 155.881 118.728C155.583 119.037 155.433 119.459 155.433 119.992V120.12H158.761V119.992C158.761 119.448 158.612 119.021 158.313 118.712C158.025 118.403 157.625 118.248 157.113 118.248Z" fill="#8C8C8C"/>
<path d="M215.243 385.192C213.856 385.192 212.805 384.808 212.091 384.04C211.376 383.272 211.019 382.227 211.019 380.904C211.019 380.232 211.109 379.629 211.291 379.096C211.483 378.552 211.749 378.093 212.091 377.72C212.443 377.336 212.864 377.048 213.355 376.856C213.856 376.653 214.416 376.552 215.035 376.552C215.653 376.552 216.208 376.653 216.699 376.856C217.189 377.048 217.605 377.325 217.947 377.688C218.288 378.051 218.549 378.493 218.731 379.016C218.923 379.528 219.019 380.104 219.019 380.744V381.448H213.371V381.592C213.371 382.125 213.536 382.557 213.867 382.888C214.197 383.208 214.683 383.368 215.323 383.368C215.813 383.368 216.235 383.277 216.587 383.096C216.939 382.904 217.243 382.653 217.499 382.344L218.779 383.736C218.459 384.131 218.011 384.472 217.435 384.76C216.859 385.048 216.128 385.192 215.243 385.192ZM215.051 378.248C214.539 378.248 214.128 378.408 213.819 378.728C213.52 379.037 213.371 379.459 213.371 379.992V380.12H216.699V379.992C216.699 379.448 216.549 379.021 216.251 378.712C215.963 378.403 215.563 378.248 215.051 378.248ZM223.205 385L220.245 376.744H222.741L223.812 380.28L224.597 383.032H224.725L225.509 380.28L226.581 376.744H228.981L226.021 385H223.205ZM234.43 385.192C233.044 385.192 231.993 384.808 231.278 384.04C230.564 383.272 230.206 382.227 230.206 380.904C230.206 380.232 230.297 379.629 230.478 379.096C230.67 378.552 230.937 378.093 231.278 377.72C231.63 377.336 232.052 377.048 232.542 376.856C233.044 376.653 233.604 376.552 234.222 376.552C234.841 376.552 235.396 376.653 235.886 376.856C236.377 377.048 236.793 377.325 237.134 377.688C237.476 378.051 237.737 378.493 237.918 379.016C238.11 379.528 238.206 380.104 238.206 380.744V381.448H232.558V381.592C232.558 382.125 232.724 382.557 233.054 382.888C233.385 383.208 233.87 383.368 234.51 383.368C235.001 383.368 235.422 383.277 235.774 383.096C236.126 382.904 236.43 382.653 236.686 382.344L237.966 383.736C237.646 384.131 237.198 384.472 236.622 384.76C236.046 385.048 235.316 385.192 234.43 385.192ZM234.238 378.248C233.726 378.248 233.316 378.408 233.006 378.728C232.708 379.037 232.558 379.459 232.558 379.992V380.12H235.886V379.992C235.886 379.448 235.737 379.021 235.438 378.712C235.15 378.403 234.75 378.248 234.238 378.248ZM240.04 385V376.744H242.408V378.248H242.504C242.6 378.013 242.717 377.795 242.856 377.592C242.995 377.389 243.16 377.213 243.352 377.064C243.555 376.904 243.784 376.781 244.04 376.696C244.307 376.6 244.605 376.552 244.936 376.552C245.331 376.552 245.693 376.621 246.024 376.76C246.355 376.888 246.637 377.085 246.872 377.352C247.107 377.619 247.288 377.944 247.416 378.328C247.555 378.712 247.624 379.155 247.624 379.656V385H245.256V379.976C245.256 378.909 244.792 378.376 243.864 378.376C243.683 378.376 243.501 378.403 243.32 378.456C243.149 378.499 242.995 378.573 242.856 378.68C242.717 378.776 242.605 378.899 242.52 379.048C242.445 379.197 242.408 379.373 242.408 379.576V385H240.04ZM254.034 385C253.18 385 252.546 384.776 252.13 384.328C251.714 383.88 251.506 383.309 251.506 382.616V378.584H249.266V376.744H250.722C251.074 376.744 251.324 376.675 251.474 376.536C251.623 376.397 251.698 376.141 251.698 375.768V373.832H253.874V376.744H257.09V378.584H253.874V383.16H257.09V385H254.034ZM262.891 385.192C261.974 385.192 261.174 385.053 260.492 384.776C259.82 384.499 259.313 384.12 258.972 383.64L260.299 382.408C260.62 382.76 260.993 383.037 261.42 383.24C261.857 383.432 262.353 383.528 262.908 383.528C263.377 383.528 263.745 383.459 264.012 383.32C264.278 383.171 264.412 382.947 264.412 382.648C264.412 382.413 264.321 382.253 264.14 382.168C263.958 382.072 263.708 381.997 263.388 381.944L262.06 381.736C261.686 381.683 261.34 381.603 261.02 381.496C260.7 381.379 260.422 381.224 260.188 381.032C259.953 380.84 259.766 380.605 259.628 380.328C259.489 380.051 259.42 379.715 259.42 379.32C259.42 378.456 259.75 377.779 260.412 377.288C261.073 376.797 262.001 376.552 263.196 376.552C264.006 376.552 264.694 376.664 265.26 376.888C265.836 377.101 266.294 377.411 266.635 377.816L265.452 379.16C265.206 378.893 264.892 378.669 264.508 378.488C264.124 378.307 263.66 378.216 263.116 378.216C262.198 378.216 261.74 378.493 261.74 379.048C261.74 379.293 261.83 379.464 262.012 379.56C262.193 379.645 262.444 379.715 262.764 379.768L264.076 379.976C264.449 380.029 264.796 380.115 265.116 380.232C265.436 380.339 265.713 380.488 265.948 380.68C266.193 380.872 266.385 381.107 266.524 381.384C266.662 381.661 266.732 381.997 266.732 382.392C266.732 383.256 266.396 383.939 265.724 384.44C265.062 384.941 264.118 385.192 262.891 385.192Z" fill="#8C8C8C"/>
<path d="M186.878 242C186.024 242 185.39 241.776 184.974 241.328C184.558 240.88 184.35 240.309 184.35 239.616V235.584H182.11V233.744H183.566C183.918 233.744 184.168 233.675 184.318 233.536C184.467 233.397 184.542 233.141 184.542 232.768V230.832H186.718V233.744H189.934V235.584H186.718V240.16H189.934V242H186.878ZM192.215 240.16H194.119V235.584H192.215V233.744H196.487V236.08H196.599C196.674 235.781 196.775 235.493 196.903 235.216C197.042 234.928 197.213 234.677 197.415 234.464C197.629 234.24 197.885 234.064 198.183 233.936C198.482 233.808 198.834 233.744 199.239 233.744H200.023V235.92H198.263C197.677 235.92 197.234 236.096 196.935 236.448C196.637 236.789 196.487 237.211 196.487 237.712V240.16H199.207V242H192.215V240.16ZM208.417 242C207.926 242 207.532 241.877 207.233 241.632C206.934 241.376 206.758 241.013 206.705 240.544H206.625C206.476 241.088 206.177 241.499 205.729 241.776C205.292 242.053 204.753 242.192 204.113 242.192C203.313 242.192 202.668 241.979 202.177 241.552C201.697 241.115 201.457 240.507 201.457 239.728C201.457 238.864 201.772 238.224 202.401 237.808C203.03 237.392 203.953 237.184 205.169 237.184H206.497V236.768C206.497 236.277 206.38 235.909 206.145 235.664C205.921 235.408 205.537 235.28 204.993 235.28C204.492 235.28 204.086 235.376 203.777 235.568C203.468 235.76 203.201 236.011 202.977 236.32L201.681 235.168C201.958 234.699 202.39 234.315 202.977 234.016C203.574 233.707 204.337 233.552 205.265 233.552C206.396 233.552 207.276 233.813 207.905 234.336C208.545 234.848 208.865 235.627 208.865 236.672V240.288H209.777V242H208.417ZM205.009 240.64C205.425 240.64 205.777 240.539 206.065 240.336C206.353 240.133 206.497 239.84 206.497 239.456V238.464H205.233C204.262 238.464 203.777 238.789 203.777 239.44V239.76C203.777 240.048 203.889 240.267 204.113 240.416C204.337 240.565 204.636 240.64 205.009 240.64ZM211.259 242V233.744H213.627V235.248H213.723C213.819 235.013 213.936 234.795 214.075 234.592C214.213 234.389 214.379 234.213 214.571 234.064C214.773 233.904 215.003 233.781 215.259 233.696C215.525 233.6 215.824 233.552 216.155 233.552C216.549 233.552 216.912 233.621 217.243 233.76C217.573 233.888 217.856 234.085 218.091 234.352C218.325 234.619 218.507 234.944 218.635 235.328C218.773 235.712 218.843 236.155 218.843 236.656V242H216.475V236.976C216.475 235.909 216.011 235.376 215.083 235.376C214.901 235.376 214.72 235.403 214.539 235.456C214.368 235.499 214.213 235.573 214.075 235.68C213.936 235.776 213.824 235.899 213.739 236.048C213.664 236.197 213.627 236.373 213.627 236.576V242H211.259ZM224.516 242.192C223.599 242.192 222.799 242.053 222.117 241.776C221.445 241.499 220.938 241.12 220.597 240.64L221.924 239.408C222.245 239.76 222.618 240.037 223.045 240.24C223.482 240.432 223.978 240.528 224.533 240.528C225.002 240.528 225.37 240.459 225.637 240.32C225.903 240.171 226.037 239.947 226.037 239.648C226.037 239.413 225.946 239.253 225.765 239.168C225.583 239.072 225.333 238.997 225.013 238.944L223.685 238.736C223.311 238.683 222.965 238.603 222.645 238.496C222.325 238.379 222.047 238.224 221.812 238.032C221.578 237.84 221.391 237.605 221.253 237.328C221.114 237.051 221.045 236.715 221.045 236.32C221.045 235.456 221.375 234.779 222.037 234.288C222.698 233.797 223.626 233.552 224.821 233.552C225.631 233.552 226.319 233.664 226.885 233.888C227.461 234.101 227.919 234.411 228.26 234.816L227.077 236.16C226.831 235.893 226.517 235.669 226.133 235.488C225.749 235.307 225.285 235.216 224.741 235.216C223.823 235.216 223.365 235.493 223.365 236.048C223.365 236.293 223.455 236.464 223.637 236.56C223.818 236.645 224.069 236.715 224.389 236.768L225.701 236.976C226.074 237.029 226.421 237.115 226.741 237.232C227.061 237.339 227.338 237.488 227.573 237.68C227.818 237.872 228.01 238.107 228.149 238.384C228.287 238.661 228.357 238.997 228.357 239.392C228.357 240.256 228.021 240.939 227.349 241.44C226.687 241.941 225.743 242.192 224.516 242.192ZM237.198 242C236.708 242 236.313 241.877 236.014 241.632C235.716 241.376 235.54 241.013 235.486 240.544H235.406C235.257 241.088 234.958 241.499 234.51 241.776C234.073 242.053 233.534 242.192 232.894 242.192C232.094 242.192 231.449 241.979 230.958 241.552C230.478 241.115 230.238 240.507 230.238 239.728C230.238 238.864 230.553 238.224 231.182 237.808C231.812 237.392 232.734 237.184 233.95 237.184H235.278V236.768C235.278 236.277 235.161 235.909 234.926 235.664C234.702 235.408 234.318 235.28 233.774 235.28C233.273 235.28 232.868 235.376 232.558 235.568C232.249 235.76 231.982 236.011 231.758 236.32L230.462 235.168C230.74 234.699 231.172 234.315 231.758 234.016C232.356 233.707 233.118 233.552 234.046 233.552C235.177 233.552 236.057 233.813 236.686 234.336C237.326 234.848 237.646 235.627 237.646 236.672V240.288H238.558V242H237.198ZM233.79 240.64C234.206 240.64 234.558 240.539 234.846 240.336C235.134 240.133 235.278 239.84 235.278 239.456V238.464H234.014C233.044 238.464 232.558 238.789 232.558 239.44V239.76C232.558 240.048 232.67 240.267 232.894 240.416C233.118 240.565 233.417 240.64 233.79 240.64ZM244.136 242.192C243.485 242.192 242.899 242.096 242.376 241.904C241.864 241.701 241.427 241.413 241.064 241.04C240.712 240.667 240.44 240.213 240.248 239.68C240.056 239.147 239.96 238.544 239.96 237.872C239.96 237.2 240.056 236.597 240.248 236.064C240.44 235.531 240.712 235.077 241.064 234.704C241.427 234.331 241.864 234.048 242.376 233.856C242.899 233.653 243.48 233.552 244.12 233.552C245.027 233.552 245.752 233.739 246.296 234.112C246.851 234.475 247.272 234.96 247.56 235.568L245.736 236.56C245.587 236.24 245.389 235.973 245.144 235.76C244.909 235.547 244.568 235.44 244.12 235.44C243.576 235.44 243.155 235.6 242.856 235.92C242.568 236.229 242.424 236.656 242.424 237.2V238.544C242.424 239.088 242.568 239.52 242.856 239.84C243.155 240.149 243.587 240.304 244.152 240.304C244.611 240.304 244.968 240.197 245.224 239.984C245.491 239.771 245.715 239.493 245.896 239.152L247.688 240.176C247.389 240.784 246.952 241.275 246.376 241.648C245.811 242.011 245.064 242.192 244.136 242.192ZM254.034 242C253.18 242 252.546 241.776 252.13 241.328C251.714 240.88 251.506 240.309 251.506 239.616V235.584H249.266V233.744H250.722C251.074 233.744 251.324 233.675 251.474 233.536C251.623 233.397 251.698 233.141 251.698 232.768V230.832H253.874V233.744H257.09V235.584H253.874V240.16H257.09V242H254.034ZM263.5 232.688C262.966 232.688 262.593 232.581 262.38 232.368C262.177 232.144 262.076 231.877 262.076 231.568V231.104C262.076 230.784 262.177 230.517 262.38 230.304C262.593 230.091 262.966 229.984 263.5 229.984C264.033 229.984 264.401 230.091 264.604 230.304C264.817 230.517 264.924 230.784 264.924 231.104V231.568C264.924 231.877 264.817 232.144 264.604 232.368C264.401 232.581 264.033 232.688 263.5 232.688ZM259.692 240.16H262.316V235.584H259.692V233.744H264.684V240.16H267.116V242H259.692V240.16ZM272.581 242.192C271.941 242.192 271.365 242.096 270.853 241.904C270.341 241.701 269.904 241.413 269.541 241.04C269.189 240.667 268.917 240.213 268.725 239.68C268.533 239.147 268.437 238.544 268.437 237.872C268.437 237.2 268.533 236.597 268.725 236.064C268.917 235.531 269.189 235.077 269.541 234.704C269.904 234.331 270.341 234.048 270.853 233.856C271.365 233.653 271.941 233.552 272.581 233.552C273.221 233.552 273.797 233.653 274.309 233.856C274.821 234.048 275.253 234.331 275.605 234.704C275.968 235.077 276.245 235.531 276.437 236.064C276.629 236.597 276.725 237.2 276.725 237.872C276.725 238.544 276.629 239.147 276.437 239.68C276.245 240.213 275.968 240.667 275.605 241.04C275.253 241.413 274.821 241.701 274.309 241.904C273.797 242.096 273.221 242.192 272.581 242.192ZM272.581 240.432C273.115 240.432 273.531 240.267 273.829 239.936C274.128 239.605 274.277 239.136 274.277 238.528V237.216C274.277 236.608 274.128 236.139 273.829 235.808C273.531 235.477 273.115 235.312 272.581 235.312C272.048 235.312 271.632 235.477 271.333 235.808C271.035 236.139 270.885 236.608 270.885 237.216V238.528C270.885 239.136 271.035 239.605 271.333 239.936C271.632 240.267 272.048 240.432 272.581 240.432ZM278.415 242V233.744H280.783V235.248H280.879C280.975 235.013 281.092 234.795 281.231 234.592C281.37 234.389 281.535 234.213 281.727 234.064C281.93 233.904 282.159 233.781 282.415 233.696C282.682 233.6 282.98 233.552 283.311 233.552C283.706 233.552 284.068 233.621 284.399 233.76C284.73 233.888 285.012 234.085 285.247 234.352C285.482 234.619 285.663 234.944 285.791 235.328C285.93 235.712 285.999 236.155 285.999 236.656V242H283.631V236.976C283.631 235.909 283.167 235.376 282.239 235.376C282.058 235.376 281.876 235.403 281.695 235.456C281.524 235.499 281.37 235.573 281.231 235.68C281.092 235.776 280.98 235.899 280.895 236.048C280.82 236.197 280.783 236.373 280.783 236.576V242H278.415ZM291.673 242.192C290.755 242.192 289.955 242.053 289.273 241.776C288.601 241.499 288.094 241.12 287.753 240.64L289.081 239.408C289.401 239.76 289.774 240.037 290.201 240.24C290.638 240.432 291.134 240.528 291.689 240.528C292.158 240.528 292.526 240.459 292.793 240.32C293.059 240.171 293.193 239.947 293.193 239.648C293.193 239.413 293.102 239.253 292.921 239.168C292.739 239.072 292.489 238.997 292.169 238.944L290.841 238.736C290.467 238.683 290.121 238.603 289.801 238.496C289.481 238.379 289.203 238.224 288.969 238.032C288.734 237.84 288.547 237.605 288.409 237.328C288.27 237.051 288.201 236.715 288.201 236.32C288.201 235.456 288.531 234.779 289.193 234.288C289.854 233.797 290.782 233.552 291.977 233.552C292.787 233.552 293.475 233.664 294.041 233.888C294.617 234.101 295.075 234.411 295.417 234.816L294.233 236.16C293.987 235.893 293.673 235.669 293.289 235.488C292.905 235.307 292.441 235.216 291.897 235.216C290.979 235.216 290.521 235.493 290.521 236.048C290.521 236.293 290.611 236.464 290.793 236.56C290.974 236.645 291.225 236.715 291.545 236.768L292.857 236.976C293.23 237.029 293.577 237.115 293.897 237.232C294.217 237.339 294.494 237.488 294.729 237.68C294.974 237.872 295.166 238.107 295.305 238.384C295.443 238.661 295.513 238.997 295.513 239.392C295.513 240.256 295.177 240.939 294.505 241.44C293.843 241.941 292.899 242.192 291.673 242.192Z" fill="#8C8C8C"/>
<path d="M474 251L530.782 251L584.976 251L641 251" stroke="#8C8C8C" stroke-width="2"/>
<path d="M639 256.319V245.668C639 244.912 639.805 244.43 640.471 244.785L650.362 250.066C651.064 250.442 651.068 251.447 650.368 251.827L640.477 257.198C639.811 257.56 639 257.077 639 256.319Z" fill="#8C8C8C"/>
<path d="M652 394L595.218 394L541.024 394L485 394" stroke="#8C8C8C" stroke-width="2"/>
<path d="M487 388.681L487 399.332C487 400.088 486.195 400.57 485.529 400.215L475.638 394.934C474.936 394.558 474.932 393.553 475.632 393.173L485.523 387.802C486.189 387.44 487 387.923 487 388.681Z" fill="#8C8C8C"/>
<path d="M512.878 385C512.024 385 511.39 384.776 510.974 384.328C510.558 383.88 510.35 383.309 510.35 382.616V378.584H508.11V376.744H509.566C509.918 376.744 510.168 376.675 510.318 376.536C510.467 376.397 510.542 376.141 510.542 375.768V373.832H512.718V376.744H515.934V378.584H512.718V383.16H515.934V385H512.878ZM518.215 383.16H520.119V378.584H518.215V376.744H522.487V379.08H522.599C522.674 378.781 522.775 378.493 522.903 378.216C523.042 377.928 523.213 377.677 523.415 377.464C523.629 377.24 523.885 377.064 524.183 376.936C524.482 376.808 524.834 376.744 525.239 376.744H526.023V378.92H524.263C523.677 378.92 523.234 379.096 522.935 379.448C522.637 379.789 522.487 380.211 522.487 380.712V383.16H525.207V385H518.215V383.16ZM534.417 385C533.926 385 533.532 384.877 533.233 384.632C532.934 384.376 532.758 384.013 532.705 383.544H532.625C532.476 384.088 532.177 384.499 531.729 384.776C531.292 385.053 530.753 385.192 530.113 385.192C529.313 385.192 528.668 384.979 528.177 384.552C527.697 384.115 527.457 383.507 527.457 382.728C527.457 381.864 527.772 381.224 528.401 380.808C529.03 380.392 529.953 380.184 531.169 380.184H532.497V379.768C532.497 379.277 532.38 378.909 532.145 378.664C531.921 378.408 531.537 378.28 530.993 378.28C530.492 378.28 530.086 378.376 529.777 378.568C529.468 378.76 529.201 379.011 528.977 379.32L527.681 378.168C527.958 377.699 528.39 377.315 528.977 377.016C529.574 376.707 530.337 376.552 531.265 376.552C532.396 376.552 533.276 376.813 533.905 377.336C534.545 377.848 534.865 378.627 534.865 379.672V383.288H535.777V385H534.417ZM531.009 383.64C531.425 383.64 531.777 383.539 532.065 383.336C532.353 383.133 532.497 382.84 532.497 382.456V381.464H531.233C530.262 381.464 529.777 381.789 529.777 382.44V382.76C529.777 383.048 529.889 383.267 530.113 383.416C530.337 383.565 530.636 383.64 531.009 383.64ZM537.259 385V376.744H539.627V378.248H539.723C539.819 378.013 539.936 377.795 540.075 377.592C540.213 377.389 540.379 377.213 540.571 377.064C540.773 376.904 541.003 376.781 541.259 376.696C541.525 376.6 541.824 376.552 542.155 376.552C542.549 376.552 542.912 376.621 543.243 376.76C543.573 376.888 543.856 377.085 544.091 377.352C544.325 377.619 544.507 377.944 544.635 378.328C544.773 378.712 544.843 379.155 544.843 379.656V385H542.475V379.976C542.475 378.909 542.011 378.376 541.083 378.376C540.901 378.376 540.72 378.403 540.539 378.456C540.368 378.499 540.213 378.573 540.075 378.68C539.936 378.776 539.824 378.899 539.739 379.048C539.664 379.197 539.627 379.373 539.627 379.576V385H537.259ZM550.516 385.192C549.599 385.192 548.799 385.053 548.117 384.776C547.445 384.499 546.938 384.12 546.597 383.64L547.924 382.408C548.245 382.76 548.618 383.037 549.045 383.24C549.482 383.432 549.978 383.528 550.533 383.528C551.002 383.528 551.37 383.459 551.637 383.32C551.903 383.171 552.037 382.947 552.037 382.648C552.037 382.413 551.946 382.253 551.765 382.168C551.583 382.072 551.333 381.997 551.013 381.944L549.685 381.736C549.311 381.683 548.965 381.603 548.645 381.496C548.325 381.379 548.047 381.224 547.812 381.032C547.578 380.84 547.391 380.605 547.253 380.328C547.114 380.051 547.045 379.715 547.045 379.32C547.045 378.456 547.375 377.779 548.037 377.288C548.698 376.797 549.626 376.552 550.821 376.552C551.631 376.552 552.319 376.664 552.885 376.888C553.461 377.101 553.919 377.411 554.26 377.816L553.077 379.16C552.831 378.893 552.517 378.669 552.133 378.488C551.749 378.307 551.285 378.216 550.741 378.216C549.823 378.216 549.365 378.493 549.365 379.048C549.365 379.293 549.455 379.464 549.637 379.56C549.818 379.645 550.069 379.715 550.389 379.768L551.701 379.976C552.074 380.029 552.421 380.115 552.741 380.232C553.061 380.339 553.338 380.488 553.573 380.68C553.818 380.872 554.01 381.107 554.149 381.384C554.287 381.661 554.357 381.997 554.357 382.392C554.357 383.256 554.021 383.939 553.349 384.44C552.687 384.941 551.743 385.192 550.516 385.192ZM563.198 385C562.708 385 562.313 384.877 562.014 384.632C561.716 384.376 561.54 384.013 561.486 383.544H561.406C561.257 384.088 560.958 384.499 560.51 384.776C560.073 385.053 559.534 385.192 558.894 385.192C558.094 385.192 557.449 384.979 556.958 384.552C556.478 384.115 556.238 383.507 556.238 382.728C556.238 381.864 556.553 381.224 557.182 380.808C557.812 380.392 558.734 380.184 559.95 380.184H561.278V379.768C561.278 379.277 561.161 378.909 560.926 378.664C560.702 378.408 560.318 378.28 559.774 378.28C559.273 378.28 558.868 378.376 558.558 378.568C558.249 378.76 557.982 379.011 557.758 379.32L556.462 378.168C556.74 377.699 557.172 377.315 557.758 377.016C558.356 376.707 559.118 376.552 560.046 376.552C561.177 376.552 562.057 376.813 562.686 377.336C563.326 377.848 563.646 378.627 563.646 379.672V383.288H564.558V385H563.198ZM559.79 383.64C560.206 383.64 560.558 383.539 560.846 383.336C561.134 383.133 561.278 382.84 561.278 382.456V381.464H560.014C559.044 381.464 558.558 381.789 558.558 382.44V382.76C558.558 383.048 558.67 383.267 558.894 383.416C559.118 383.565 559.417 383.64 559.79 383.64ZM570.136 385.192C569.485 385.192 568.899 385.096 568.376 384.904C567.864 384.701 567.427 384.413 567.064 384.04C566.712 383.667 566.44 383.213 566.248 382.68C566.056 382.147 565.96 381.544 565.96 380.872C565.96 380.2 566.056 379.597 566.248 379.064C566.44 378.531 566.712 378.077 567.064 377.704C567.427 377.331 567.864 377.048 568.376 376.856C568.899 376.653 569.48 376.552 570.12 376.552C571.027 376.552 571.752 376.739 572.296 377.112C572.851 377.475 573.272 377.96 573.56 378.568L571.736 379.56C571.587 379.24 571.389 378.973 571.144 378.76C570.909 378.547 570.568 378.44 570.12 378.44C569.576 378.44 569.155 378.6 568.856 378.92C568.568 379.229 568.424 379.656 568.424 380.2V381.544C568.424 382.088 568.568 382.52 568.856 382.84C569.155 383.149 569.587 383.304 570.152 383.304C570.611 383.304 570.968 383.197 571.224 382.984C571.491 382.771 571.715 382.493 571.896 382.152L573.688 383.176C573.389 383.784 572.952 384.275 572.376 384.648C571.811 385.011 571.064 385.192 570.136 385.192ZM580.034 385C579.18 385 578.546 384.776 578.13 384.328C577.714 383.88 577.506 383.309 577.506 382.616V378.584H575.266V376.744H576.722C577.074 376.744 577.324 376.675 577.474 376.536C577.623 376.397 577.698 376.141 577.698 375.768V373.832H579.874V376.744H583.09V378.584H579.874V383.16H583.09V385H580.034ZM589.5 375.688C588.966 375.688 588.593 375.581 588.38 375.368C588.177 375.144 588.076 374.877 588.076 374.568V374.104C588.076 373.784 588.177 373.517 588.38 373.304C588.593 373.091 588.966 372.984 589.5 372.984C590.033 372.984 590.401 373.091 590.604 373.304C590.817 373.517 590.924 373.784 590.924 374.104V374.568C590.924 374.877 590.817 375.144 590.604 375.368C590.401 375.581 590.033 375.688 589.5 375.688ZM585.692 383.16H588.316V378.584H585.692V376.744H590.684V383.16H593.116V385H585.692V383.16ZM598.581 385.192C597.941 385.192 597.365 385.096 596.853 384.904C596.341 384.701 595.904 384.413 595.541 384.04C595.189 383.667 594.917 383.213 594.725 382.68C594.533 382.147 594.437 381.544 594.437 380.872C594.437 380.2 594.533 379.597 594.725 379.064C594.917 378.531 595.189 378.077 595.541 377.704C595.904 377.331 596.341 377.048 596.853 376.856C597.365 376.653 597.941 376.552 598.581 376.552C599.221 376.552 599.797 376.653 600.309 376.856C600.821 377.048 601.253 377.331 601.605 377.704C601.968 378.077 602.245 378.531 602.437 379.064C602.629 379.597 602.725 380.2 602.725 380.872C602.725 381.544 602.629 382.147 602.437 382.68C602.245 383.213 601.968 383.667 601.605 384.04C601.253 384.413 600.821 384.701 600.309 384.904C599.797 385.096 599.221 385.192 598.581 385.192ZM598.581 383.432C599.115 383.432 599.531 383.267 599.829 382.936C600.128 382.605 600.277 382.136 600.277 381.528V380.216C600.277 379.608 600.128 379.139 599.829 378.808C599.531 378.477 599.115 378.312 598.581 378.312C598.048 378.312 597.632 378.477 597.333 378.808C597.035 379.139 596.885 379.608 596.885 380.216V381.528C596.885 382.136 597.035 382.605 597.333 382.936C597.632 383.267 598.048 383.432 598.581 383.432ZM604.415 385V376.744H606.783V378.248H606.879C606.975 378.013 607.092 377.795 607.231 377.592C607.37 377.389 607.535 377.213 607.727 377.064C607.93 376.904 608.159 376.781 608.415 376.696C608.682 376.6 608.98 376.552 609.311 376.552C609.706 376.552 610.068 376.621 610.399 376.76C610.73 376.888 611.012 377.085 611.247 377.352C611.482 377.619 611.663 377.944 611.791 378.328C611.93 378.712 611.999 379.155 611.999 379.656V385H609.631V379.976C609.631 378.909 609.167 378.376 608.239 378.376C608.058 378.376 607.876 378.403 607.695 378.456C607.524 378.499 607.37 378.573 607.231 378.68C607.092 378.776 606.98 378.899 606.895 379.048C606.82 379.197 606.783 379.373 606.783 379.576V385H604.415ZM617.673 385.192C616.755 385.192 615.955 385.053 615.273 384.776C614.601 384.499 614.094 384.12 613.753 383.64L615.081 382.408C615.401 382.76 615.774 383.037 616.201 383.24C616.638 383.432 617.134 383.528 617.689 383.528C618.158 383.528 618.526 383.459 618.793 383.32C619.059 383.171 619.193 382.947 619.193 382.648C619.193 382.413 619.102 382.253 618.921 382.168C618.739 382.072 618.489 381.997 618.169 381.944L616.841 381.736C616.467 381.683 616.121 381.603 615.801 381.496C615.481 381.379 615.203 381.224 614.969 381.032C614.734 380.84 614.547 380.605 614.409 380.328C614.27 380.051 614.201 379.715 614.201 379.32C614.201 378.456 614.531 377.779 615.193 377.288C615.854 376.797 616.782 376.552 617.977 376.552C618.787 376.552 619.475 376.664 620.041 376.888C620.617 377.101 621.075 377.411 621.417 377.816L620.233 379.16C619.987 378.893 619.673 378.669 619.289 378.488C618.905 378.307 618.441 378.216 617.897 378.216C616.979 378.216 616.521 378.493 616.521 379.048C616.521 379.293 616.611 379.464 616.793 379.56C616.974 379.645 617.225 379.715 617.545 379.768L618.857 379.976C619.23 380.029 619.577 380.115 619.897 380.232C620.217 380.339 620.494 380.488 620.729 380.68C620.974 380.872 621.166 381.107 621.305 381.384C621.443 381.661 621.513 381.997 621.513 382.392C621.513 383.256 621.177 383.939 620.505 384.44C619.843 384.941 618.899 385.192 617.673 385.192Z" fill="#8C8C8C"/>
<path d="M988 251L931.218 251L877.024 251L821 251" stroke="#8C8C8C" stroke-width="2"/>
<path d="M823 245.681L823 256.332C823 257.088 822.195 257.57 821.529 257.215L811.638 251.934C810.936 251.558 810.932 250.553 811.632 250.173L821.523 244.802C822.189 244.44 823 244.923 823 245.681Z" fill="#8C8C8C"/>
<path d="M850.398 242L849.694 239.312H846.638L845.95 242H843.518L846.542 230.832H849.934L852.958 242H850.398ZM848.238 233.152H848.11L847.022 237.376H849.326L848.238 233.152ZM854.247 242V230.832H858.567C859.111 230.832 859.597 230.917 860.023 231.088C860.45 231.248 860.807 231.483 861.095 231.792C861.394 232.101 861.618 232.475 861.767 232.912C861.917 233.349 861.991 233.84 861.991 234.384C861.991 234.928 861.917 235.419 861.767 235.856C861.618 236.293 861.394 236.667 861.095 236.976C860.807 237.285 860.45 237.525 860.023 237.696C859.597 237.856 859.111 237.936 858.567 237.936H856.663V242H854.247ZM856.663 236H857.959C858.525 236 858.914 235.893 859.127 235.68C859.351 235.467 859.463 235.115 859.463 234.624V234.144C859.463 233.653 859.351 233.301 859.127 233.088C858.914 232.875 858.525 232.768 857.959 232.768H856.663V236ZM863.825 242V240.224H866.225V232.608H863.825V230.832H871.025V232.608H868.625V240.224H871.025V242H863.825ZM882.997 240.16H884.901V235.584H882.997V233.744H887.269V236.08H887.381C887.455 235.781 887.557 235.493 887.685 235.216C887.823 234.928 887.994 234.677 888.197 234.464C888.41 234.24 888.666 234.064 888.965 233.936C889.263 233.808 889.615 233.744 890.021 233.744H890.805V235.92H889.045C888.458 235.92 888.015 236.096 887.717 236.448C887.418 236.789 887.269 237.211 887.269 237.712V240.16H889.989V242H882.997V240.16ZM896.43 242.192C895.044 242.192 893.993 241.808 893.278 241.04C892.564 240.272 892.206 239.227 892.206 237.904C892.206 237.232 892.297 236.629 892.478 236.096C892.67 235.552 892.937 235.093 893.278 234.72C893.63 234.336 894.052 234.048 894.542 233.856C895.044 233.653 895.604 233.552 896.222 233.552C896.841 233.552 897.396 233.653 897.886 233.856C898.377 234.048 898.793 234.325 899.134 234.688C899.476 235.051 899.737 235.493 899.918 236.016C900.11 236.528 900.206 237.104 900.206 237.744V238.448H894.558V238.592C894.558 239.125 894.724 239.557 895.054 239.888C895.385 240.208 895.87 240.368 896.51 240.368C897.001 240.368 897.422 240.277 897.774 240.096C898.126 239.904 898.43 239.653 898.686 239.344L899.966 240.736C899.646 241.131 899.198 241.472 898.622 241.76C898.046 242.048 897.316 242.192 896.43 242.192ZM896.238 235.248C895.726 235.248 895.316 235.408 895.006 235.728C894.708 236.037 894.558 236.459 894.558 236.992V237.12H897.886V236.992C897.886 236.448 897.737 236.021 897.438 235.712C897.15 235.403 896.75 235.248 896.238 235.248ZM907.288 240.496H907.176C906.963 240.997 906.664 241.408 906.28 241.728C905.907 242.037 905.389 242.192 904.728 242.192C904.269 242.192 903.848 242.107 903.464 241.936C903.091 241.765 902.765 241.504 902.488 241.152C902.221 240.8 902.008 240.352 901.848 239.808C901.699 239.264 901.624 238.619 901.624 237.872C901.624 237.125 901.699 236.48 901.848 235.936C902.008 235.392 902.221 234.944 902.488 234.592C902.765 234.24 903.091 233.979 903.464 233.808C903.848 233.637 904.269 233.552 904.728 233.552C905.059 233.552 905.352 233.595 905.608 233.68C905.864 233.765 906.088 233.883 906.28 234.032C906.483 234.181 906.653 234.363 906.792 234.576C906.941 234.779 907.069 235.003 907.176 235.248H907.288V233.744H909.656V245.2H907.288V240.496ZM905.752 240.352C906.168 240.352 906.525 240.251 906.824 240.048C907.133 239.845 907.288 239.525 907.288 239.088V236.656C907.288 236.219 907.133 235.899 906.824 235.696C906.525 235.493 906.168 235.392 905.752 235.392C905.219 235.392 904.808 235.557 904.52 235.888C904.232 236.208 904.088 236.656 904.088 237.232V238.512C904.088 239.088 904.232 239.541 904.52 239.872C904.808 240.192 905.219 240.352 905.752 240.352ZM916.786 240.496H916.69C916.508 240.965 916.22 241.365 915.826 241.696C915.442 242.027 914.919 242.192 914.258 242.192C913.863 242.192 913.5 242.128 913.17 242C912.839 241.861 912.556 241.659 912.322 241.392C912.087 241.125 911.9 240.8 911.762 240.416C911.634 240.032 911.57 239.589 911.57 239.088V233.744H913.938V238.768C913.938 239.835 914.402 240.368 915.33 240.368C915.511 240.368 915.687 240.347 915.858 240.304C916.039 240.251 916.194 240.176 916.322 240.08C916.46 239.973 916.572 239.845 916.658 239.696C916.743 239.547 916.786 239.371 916.786 239.168V233.744H919.154V242H916.786V240.496ZM925.212 242.192C923.825 242.192 922.774 241.808 922.06 241.04C921.345 240.272 920.988 239.227 920.988 237.904C920.988 237.232 921.078 236.629 921.26 236.096C921.452 235.552 921.718 235.093 922.06 234.72C922.412 234.336 922.833 234.048 923.324 233.856C923.825 233.653 924.385 233.552 925.004 233.552C925.622 233.552 926.177 233.653 926.668 233.856C927.158 234.048 927.574 234.325 927.916 234.688C928.257 235.051 928.518 235.493 928.7 236.016C928.892 236.528 928.988 237.104 928.988 237.744V238.448H923.34V238.592C923.34 239.125 923.505 239.557 923.836 239.888C924.166 240.208 924.652 240.368 925.292 240.368C925.782 240.368 926.204 240.277 926.556 240.096C926.908 239.904 927.212 239.653 927.468 239.344L928.748 240.736C928.428 241.131 927.98 241.472 927.404 241.76C926.828 242.048 926.097 242.192 925.212 242.192ZM925.02 235.248C924.508 235.248 924.097 235.408 923.788 235.728C923.489 236.037 923.34 236.459 923.34 236.992V237.12H926.668V236.992C926.668 236.448 926.518 236.021 926.22 235.712C925.932 235.403 925.532 235.248 925.02 235.248ZM934.485 242.192C933.568 242.192 932.768 242.053 932.085 241.776C931.413 241.499 930.907 241.12 930.565 240.64L931.893 239.408C932.213 239.76 932.587 240.037 933.013 240.24C933.451 240.432 933.947 240.528 934.501 240.528C934.971 240.528 935.339 240.459 935.605 240.32C935.872 240.171 936.005 239.947 936.005 239.648C936.005 239.413 935.915 239.253 935.733 239.168C935.552 239.072 935.301 238.997 934.981 238.944L933.653 238.736C933.28 238.683 932.933 238.603 932.613 238.496C932.293 238.379 932.016 238.224 931.781 238.032C931.547 237.84 931.36 237.605 931.221 237.328C931.083 237.051 931.013 236.715 931.013 236.32C931.013 235.456 931.344 234.779 932.005 234.288C932.667 233.797 933.595 233.552 934.789 233.552C935.6 233.552 936.288 233.664 936.853 233.888C937.429 234.101 937.888 234.411 938.229 234.816L937.045 236.16C936.8 235.893 936.485 235.669 936.101 235.488C935.717 235.307 935.253 235.216 934.709 235.216C933.792 235.216 933.333 235.493 933.333 236.048C933.333 236.293 933.424 236.464 933.605 236.56C933.787 236.645 934.037 236.715 934.357 236.768L935.669 236.976C936.043 237.029 936.389 237.115 936.709 237.232C937.029 237.339 937.307 237.488 937.541 237.68C937.787 237.872 937.979 238.107 938.117 238.384C938.256 238.661 938.325 238.997 938.325 239.392C938.325 240.256 937.989 240.939 937.317 241.44C936.656 241.941 935.712 242.192 934.485 242.192ZM944.815 242C943.962 242 943.327 241.776 942.911 241.328C942.495 240.88 942.287 240.309 942.287 239.616V235.584H940.047V233.744H941.503C941.855 233.744 942.106 233.675 942.255 233.536C942.404 233.397 942.479 233.141 942.479 232.768V230.832H944.655V233.744H947.871V235.584H944.655V240.16H947.871V242H944.815ZM953.673 242.192C952.755 242.192 951.955 242.053 951.273 241.776C950.601 241.499 950.094 241.12 949.753 240.64L951.081 239.408C951.401 239.76 951.774 240.037 952.201 240.24C952.638 240.432 953.134 240.528 953.689 240.528C954.158 240.528 954.526 240.459 954.793 240.32C955.059 240.171 955.193 239.947 955.193 239.648C955.193 239.413 955.102 239.253 954.921 239.168C954.739 239.072 954.489 238.997 954.169 238.944L952.841 238.736C952.467 238.683 952.121 238.603 951.801 238.496C951.481 238.379 951.203 238.224 950.969 238.032C950.734 237.84 950.547 237.605 950.409 237.328C950.27 237.051 950.201 236.715 950.201 236.32C950.201 235.456 950.531 234.779 951.193 234.288C951.854 233.797 952.782 233.552 953.977 233.552C954.787 233.552 955.475 233.664 956.041 233.888C956.617 234.101 957.075 234.411 957.417 234.816L956.233 236.16C955.987 235.893 955.673 235.669 955.289 235.488C954.905 235.307 954.441 235.216 953.897 235.216C952.979 235.216 952.521 235.493 952.521 236.048C952.521 236.293 952.611 236.464 952.793 236.56C952.974 236.645 953.225 236.715 953.545 236.768L954.857 236.976C955.23 237.029 955.577 237.115 955.897 237.232C956.217 237.339 956.494 237.488 956.729 237.68C956.974 237.872 957.166 238.107 957.305 238.384C957.443 238.661 957.513 238.997 957.513 239.392C957.513 240.256 957.177 240.939 956.505 241.44C955.843 241.941 954.899 242.192 953.673 242.192Z" fill="#8C8C8C"/>
<path d="M541.243 242.192C539.856 242.192 538.805 241.808 538.091 241.04C537.376 240.272 537.019 239.227 537.019 237.904C537.019 237.232 537.109 236.629 537.291 236.096C537.483 235.552 537.749 235.093 538.091 234.72C538.443 234.336 538.864 234.048 539.355 233.856C539.856 233.653 540.416 233.552 541.035 233.552C541.653 233.552 542.208 233.653 542.699 233.856C543.189 234.048 543.605 234.325 543.947 234.688C544.288 235.051 544.549 235.493 544.731 236.016C544.923 236.528 545.019 237.104 545.019 237.744V238.448H539.371V238.592C539.371 239.125 539.536 239.557 539.867 239.888C540.197 240.208 540.683 240.368 541.323 240.368C541.813 240.368 542.235 240.277 542.587 240.096C542.939 239.904 543.243 239.653 543.499 239.344L544.779 240.736C544.459 241.131 544.011 241.472 543.435 241.76C542.859 242.048 542.128 242.192 541.243 242.192ZM541.051 235.248C540.539 235.248 540.128 235.408 539.819 235.728C539.52 236.037 539.371 236.459 539.371 236.992V237.12H542.699V236.992C542.699 236.448 542.549 236.021 542.251 235.712C541.963 235.403 541.563 235.248 541.051 235.248ZM549.205 242L546.245 233.744H548.741L549.812 237.28L550.597 240.032H550.725L551.509 237.28L552.581 233.744H554.981L552.021 242H549.205ZM560.43 242.192C559.044 242.192 557.993 241.808 557.278 241.04C556.564 240.272 556.206 239.227 556.206 237.904C556.206 237.232 556.297 236.629 556.478 236.096C556.67 235.552 556.937 235.093 557.278 234.72C557.63 234.336 558.052 234.048 558.542 233.856C559.044 233.653 559.604 233.552 560.222 233.552C560.841 233.552 561.396 233.653 561.886 233.856C562.377 234.048 562.793 234.325 563.134 234.688C563.476 235.051 563.737 235.493 563.918 236.016C564.11 236.528 564.206 237.104 564.206 237.744V238.448H558.558V238.592C558.558 239.125 558.724 239.557 559.054 239.888C559.385 240.208 559.87 240.368 560.51 240.368C561.001 240.368 561.422 240.277 561.774 240.096C562.126 239.904 562.43 239.653 562.686 239.344L563.966 240.736C563.646 241.131 563.198 241.472 562.622 241.76C562.046 242.048 561.316 242.192 560.43 242.192ZM560.238 235.248C559.726 235.248 559.316 235.408 559.006 235.728C558.708 236.037 558.558 236.459 558.558 236.992V237.12H561.886V236.992C561.886 236.448 561.737 236.021 561.438 235.712C561.15 235.403 560.75 235.248 560.238 235.248ZM566.04 242V233.744H568.408V235.248H568.504C568.6 235.013 568.717 234.795 568.856 234.592C568.995 234.389 569.16 234.213 569.352 234.064C569.555 233.904 569.784 233.781 570.04 233.696C570.307 233.6 570.605 233.552 570.936 233.552C571.331 233.552 571.693 233.621 572.024 233.76C572.355 233.888 572.637 234.085 572.872 234.352C573.107 234.619 573.288 234.944 573.416 235.328C573.555 235.712 573.624 236.155 573.624 236.656V242H571.256V236.976C571.256 235.909 570.792 235.376 569.864 235.376C569.683 235.376 569.501 235.403 569.32 235.456C569.149 235.499 568.995 235.573 568.856 235.68C568.717 235.776 568.605 235.899 568.52 236.048C568.445 236.197 568.408 236.373 568.408 236.576V242H566.04ZM580.034 242C579.18 242 578.546 241.776 578.13 241.328C577.714 240.88 577.506 240.309 577.506 239.616V235.584H575.266V233.744H576.722C577.074 233.744 577.324 233.675 577.474 233.536C577.623 233.397 577.698 233.141 577.698 232.768V230.832H579.874V233.744H583.09V235.584H579.874V240.16H583.09V242H580.034ZM588.891 242.192C587.974 242.192 587.174 242.053 586.492 241.776C585.82 241.499 585.313 241.12 584.972 240.64L586.299 239.408C586.62 239.76 586.993 240.037 587.42 240.24C587.857 240.432 588.353 240.528 588.908 240.528C589.377 240.528 589.745 240.459 590.012 240.32C590.278 240.171 590.412 239.947 590.412 239.648C590.412 239.413 590.321 239.253 590.14 239.168C589.958 239.072 589.708 238.997 589.388 238.944L588.06 238.736C587.686 238.683 587.34 238.603 587.02 238.496C586.7 238.379 586.422 238.224 586.188 238.032C585.953 237.84 585.766 237.605 585.628 237.328C585.489 237.051 585.42 236.715 585.42 236.32C585.42 235.456 585.75 234.779 586.412 234.288C587.073 233.797 588.001 233.552 589.196 233.552C590.006 233.552 590.694 233.664 591.26 233.888C591.836 234.101 592.294 234.411 592.635 234.816L591.452 236.16C591.206 235.893 590.892 235.669 590.508 235.488C590.124 235.307 589.66 235.216 589.116 235.216C588.198 235.216 587.74 235.493 587.74 236.048C587.74 236.293 587.83 236.464 588.012 236.56C588.193 236.645 588.444 236.715 588.764 236.768L590.076 236.976C590.449 237.029 590.796 237.115 591.116 237.232C591.436 237.339 591.713 237.488 591.948 237.68C592.193 237.872 592.385 238.107 592.524 238.384C592.662 238.661 592.732 238.997 592.732 239.392C592.732 240.256 592.396 240.939 591.724 241.44C591.062 241.941 590.118 242.192 588.891 242.192Z" fill="#8C8C8C"/>
</svg>
