<svg width="24" height="24" viewBox="0 0 24 24" fill="none" xmlns="http://www.w3.org/2000/svg">
<path d="M7 23.3252L17 23.3252" stroke="#1B1B1B" stroke-linecap="round" stroke-linejoin="round"/>
<path d="M12 22.8902L12 5.4502" stroke="#1B1B1B" stroke-linecap="round" stroke-linejoin="round"/>
<mask id="path-3-inside-1_10483_33236" fill="white">
<path fill-rule="evenodd" clip-rule="evenodd" d="M11.8151 20.6202C8.02594 20.5222 4.98438 17.4198 4.98438 13.607C4.98438 13.0541 5.04834 12.5161 5.16928 12C8.95844 12.098 12 15.2004 12 19.0132C12 19.5662 11.936 20.1042 11.8151 20.6202Z"/>
</mask>
<path d="M11.8151 20.6202L11.7892 21.6199L12.603 21.6409L12.7887 20.8484L11.8151 20.6202ZM5.16928 12L5.19514 11.0003L4.38139 10.9793L4.19566 11.7718L5.16928 12ZM11.841 19.6206C8.59242 19.5365 5.98438 16.8762 5.98438 13.607H3.98438C3.98438 17.9634 7.45946 21.5079 11.7892 21.6199L11.841 19.6206ZM5.98438 13.607C5.98438 13.1314 6.03936 12.67 6.1429 12.2282L4.19566 11.7718C4.05732 12.3621 3.98438 12.9767 3.98438 13.607H5.98438ZM5.14342 12.9997C8.39196 13.0837 11 15.7441 11 19.0132H13C13 14.6568 9.52492 11.1124 5.19514 11.0003L5.14342 12.9997ZM11 19.0132C11 19.4888 10.945 19.9502 10.8415 20.3921L12.7887 20.8484C12.9271 20.2581 13 19.6435 13 19.0132H11Z" fill="#1B1B1B" mask="url(#path-3-inside-1_10483_33236)"/>
<mask id="path-5-inside-2_10483_33236" fill="white">
<path fill-rule="evenodd" clip-rule="evenodd" d="M18.8307 12C15.0416 12.098 12 15.2004 12 19.0132C12 19.5661 12.064 20.1041 12.1849 20.6201C15.9741 20.5221 19.0156 17.4197 19.0156 13.6069C19.0156 13.054 18.9517 12.516 18.8307 12Z"/>
</mask>
<path d="M18.8307 12L18.8049 11.0003L19.6186 10.9792L19.8044 11.7718L18.8307 12ZM12.1849 20.6201L12.2108 21.6198L11.397 21.6408L11.2113 20.8483L12.1849 20.6201ZM18.8566 12.9996C15.608 13.0837 13 15.744 13 19.0132H11C11 14.6568 14.4751 11.1123 18.8049 11.0003L18.8566 12.9996ZM13 19.0132C13 19.4887 13.055 19.9502 13.1585 20.392L11.2113 20.8483C11.0729 20.258 11 19.6435 11 19.0132H13ZM12.159 19.6205C15.4076 19.5364 18.0156 16.8761 18.0156 13.6069H20.0156C20.0156 17.9633 16.5405 21.5078 12.2108 21.6198L12.159 19.6205ZM18.0156 13.6069C18.0156 13.1313 17.9606 12.6699 17.8571 12.2281L19.8044 11.7718C19.9427 12.3621 20.0156 12.9766 20.0156 13.6069H18.0156Z" fill="#1B1B1B" mask="url(#path-5-inside-2_10483_33236)"/>
</svg>
