<svg width="24" height="24" viewBox="0 0 24 24" fill="none" xmlns="http://www.w3.org/2000/svg">
<g clip-path="url(#clip0_10483_33259)">
<path d="M6.64063 23.3252L16.6406 23.3252" stroke="#1B1B1B" stroke-linecap="round" stroke-linejoin="round"/>
<path d="M11.6406 23.8902L11.6406 6.4502" stroke="#1B1B1B" stroke-linecap="round" stroke-linejoin="round"/>
<mask id="path-3-inside-1_10483_33259" fill="white">
<path fill-rule="evenodd" clip-rule="evenodd" d="M18.4714 12C14.6822 12.098 11.6406 15.2004 11.6406 19.0132C11.6406 19.5661 11.7046 20.1041 11.8255 20.6201C15.6147 20.5221 18.6562 17.4197 18.6562 13.6069C18.6562 13.054 18.5923 12.516 18.4714 12Z"/>
</mask>
<path d="M18.4714 12L18.4455 11.0003L19.2593 10.9792L19.445 11.7718L18.4714 12ZM11.8255 20.6201L11.8514 21.6198L11.0376 21.6408L10.8519 20.8483L11.8255 20.6201ZM18.4972 12.9996C15.2487 13.0837 12.6406 15.744 12.6406 19.0132H10.6406C10.6406 14.6568 14.1157 11.1123 18.4455 11.0003L18.4972 12.9996ZM12.6406 19.0132C12.6406 19.4887 12.6956 19.9502 12.7991 20.392L10.8519 20.8483C10.7136 20.258 10.6406 19.6435 10.6406 19.0132H12.6406ZM11.7997 19.6205C15.0482 19.5364 17.6562 16.8761 17.6562 13.6069H19.6562C19.6562 17.9633 16.1812 21.5078 11.8514 21.6198L11.7997 19.6205ZM17.6562 13.6069C17.6562 13.1313 17.6013 12.6699 17.4977 12.2281L19.445 11.7718C19.5833 12.3621 19.6562 12.9766 19.6562 13.6069H17.6562Z" fill="#1B1B1B" mask="url(#path-3-inside-1_10483_33259)"/>
</g>
<defs>
<clipPath id="clip0_10483_33259">
<rect width="24" height="24" fill="white"/>
</clipPath>
</defs>
</svg>
