<svg width="24" height="24" viewBox="0 0 24 24" fill="none" xmlns="http://www.w3.org/2000/svg">
<path d="M12 23.375L12 5.93457" stroke="white" stroke-linecap="round" stroke-linejoin="round"/>
<path d="M7 23.375L17 23.375" stroke="white" stroke-linecap="round" stroke-linejoin="round"/>
<mask id="path-3-inside-1_10483_33172" fill="white">
<path fill-rule="evenodd" clip-rule="evenodd" d="M11.8151 20.67C8.02594 20.572 4.98438 17.4696 4.98438 13.6568C4.98438 13.1039 5.04834 12.5659 5.16928 12.0498C8.95844 12.1478 12 15.2502 12 19.063C12 19.616 11.936 20.154 11.8151 20.67Z"/>
</mask>
<path d="M11.8151 20.67L11.7892 21.6697L12.603 21.6907L12.7887 20.8982L11.8151 20.67ZM5.16928 12.0498L5.19514 11.0501L4.38139 11.0291L4.19566 11.8216L5.16928 12.0498ZM11.841 19.6704C8.59242 19.5863 5.98438 16.926 5.98438 13.6568H3.98438C3.98438 18.0132 7.45946 21.5577 11.7892 21.6697L11.841 19.6704ZM5.98438 13.6568C5.98438 13.1812 6.03936 12.7198 6.1429 12.278L4.19566 11.8216C4.05732 12.4119 3.98438 13.0265 3.98438 13.6568H5.98438ZM5.14342 13.0495C8.39196 13.1335 11 15.7939 11 19.063H13C13 14.7066 9.52492 11.1622 5.19514 11.0501L5.14342 13.0495ZM11 19.063C11 19.5386 10.945 20.0001 10.8415 20.4419L12.7887 20.8982C12.9271 20.3079 13 19.6933 13 19.063H11Z" fill="white" mask="url(#path-3-inside-1_10483_33172)"/>
<mask id="path-5-inside-2_10483_33172" fill="white">
<path fill-rule="evenodd" clip-rule="evenodd" d="M11.8493 13.1177C8.76056 13.0378 6.28125 10.5089 6.28125 7.40087C6.28125 6.95015 6.33339 6.5116 6.43197 6.09094C9.52068 6.17086 12 8.69976 12 11.8077C12 12.2585 11.9479 12.697 11.8493 13.1177Z"/>
</mask>
<path d="M11.8493 13.1177L11.8234 14.1173L12.6372 14.1384L12.8229 13.3458L11.8493 13.1177ZM6.43197 6.09094L6.45784 5.09128L5.64409 5.07022L5.45835 5.86277L6.43197 6.09094ZM11.8751 12.118C9.32704 12.0521 7.28125 9.96523 7.28125 7.40087H5.28125C5.28125 11.0525 8.19409 14.0234 11.8234 14.1173L11.8751 12.118ZM7.28125 7.40087C7.28125 7.02751 7.32442 6.66552 7.4056 6.31911L5.45835 5.86277C5.34237 6.35769 5.28125 6.87278 5.28125 7.40087H7.28125ZM6.40611 7.09061C8.95421 7.15653 11 9.24339 11 11.8077H13C13 8.15614 10.0872 5.18518 6.45784 5.09128L6.40611 7.09061ZM11 11.8077C11 12.1811 10.9568 12.5431 10.8757 12.8895L12.8229 13.3458C12.9389 12.8509 13 12.3358 13 11.8077H11Z" fill="white" mask="url(#path-5-inside-2_10483_33172)"/>
<mask id="path-7-inside-3_10483_33172" fill="white">
<path fill-rule="evenodd" clip-rule="evenodd" d="M7.5758 1.28125C10.0301 1.34474 12.0002 3.35423 12.0002 5.82387C12.0002 6.18198 11.9588 6.53043 11.8805 6.86466C9.42615 6.80117 7.45605 4.79168 7.45605 2.32204C7.45605 1.96393 7.49748 1.61549 7.5758 1.28125Z"/>
</mask>
<path d="M7.5758 1.28125L7.60166 0.281584L6.7879 0.260534L6.60218 1.0531L7.5758 1.28125ZM11.8805 6.86466L11.8546 7.86433L12.6684 7.88538L12.8541 7.09281L11.8805 6.86466ZM7.54994 2.28092C9.46365 2.33042 11.0002 3.89786 11.0002 5.82387H13.0002C13.0002 2.81061 10.5966 0.359058 7.60166 0.281584L7.54994 2.28092ZM11.0002 5.82387C11.0002 6.10462 10.9678 6.37652 10.9068 6.63651L12.8541 7.09281C12.9498 6.68433 13.0002 6.25935 13.0002 5.82387H11.0002ZM11.9063 5.865C9.99263 5.81549 8.45605 4.24805 8.45605 2.32204H6.45605C6.45605 5.3353 8.85967 7.78685 11.8546 7.86433L11.9063 5.865ZM8.45605 2.32204C8.45605 2.04129 8.4885 1.76939 8.54943 1.5094L6.60218 1.0531C6.50646 1.46158 6.45605 1.88657 6.45605 2.32204H8.45605Z" fill="white" mask="url(#path-7-inside-3_10483_33172)"/>
<mask id="path-9-inside-4_10483_33172" fill="white">
<path fill-rule="evenodd" clip-rule="evenodd" d="M18.8307 12.0498C15.0416 12.1478 12 15.2502 12 19.063C12 19.6159 12.064 20.1539 12.1849 20.6699C15.9741 20.5719 19.0156 17.4695 19.0156 13.6567C19.0156 13.1038 18.9517 12.5658 18.8307 12.0498Z"/>
</mask>
<path d="M18.8307 12.0498L18.8049 11.0501L19.6186 11.029L19.8044 11.8216L18.8307 12.0498ZM12.1849 20.6699L12.2108 21.6696L11.397 21.6906L11.2113 20.8981L12.1849 20.6699ZM18.8566 13.0494C15.608 13.1335 13 15.7938 13 19.063H11C11 14.7066 14.4751 11.1621 18.8049 11.0501L18.8566 13.0494ZM13 19.063C13 19.5385 13.055 20 13.1585 20.4418L11.2113 20.8981C11.0729 20.3078 11 19.6933 11 19.063H13ZM12.159 19.6703C15.4076 19.5862 18.0156 16.9259 18.0156 13.6567H20.0156C20.0156 18.0131 16.5405 21.5576 12.2108 21.6696L12.159 19.6703ZM18.0156 13.6567C18.0156 13.1811 17.9606 12.7197 17.8571 12.2779L19.8044 11.8216C19.9427 12.4119 20.0156 13.0264 20.0156 13.6567H18.0156Z" fill="white" mask="url(#path-9-inside-4_10483_33172)"/>
<mask id="path-11-inside-5_10483_33172" fill="white">
<path fill-rule="evenodd" clip-rule="evenodd" d="M17.568 6.09083C14.4793 6.17074 12 8.69965 12 11.8076C12 12.2583 12.0521 12.6969 12.1507 13.1176C15.2394 13.0376 17.7188 10.5087 17.7188 7.40075C17.7188 6.95003 17.6666 6.51149 17.568 6.09083Z"/>
</mask>
<path d="M17.568 6.09083L17.5422 5.09116L18.3559 5.07011L18.5416 5.86266L17.568 6.09083ZM12.1507 13.1176L12.1766 14.1172L11.3628 14.1383L11.1771 13.3457L12.1507 13.1176ZM17.5939 7.09049C15.0458 7.15642 13 9.24327 13 11.8076H11C11 8.15602 13.9128 5.18506 17.5422 5.09116L17.5939 7.09049ZM13 11.8076C13 12.181 13.0432 12.543 13.1243 12.8894L11.1771 13.3457C11.0611 12.8508 11 12.3357 11 11.8076H13ZM12.1249 12.1179C14.673 12.052 16.7188 9.96511 16.7188 7.40075L18.7188 7.40075C18.7188 11.0524 15.8059 14.0233 12.1766 14.1172L12.1249 12.1179ZM16.7188 7.40075C16.7188 7.0274 16.6756 6.6654 16.5944 6.31899L18.5416 5.86266C18.6576 6.35757 18.7188 6.87266 18.7188 7.40075L16.7188 7.40075Z" fill="white" mask="url(#path-11-inside-5_10483_33172)"/>
<mask id="path-13-inside-6_10483_33172" fill="white">
<path fill-rule="evenodd" clip-rule="evenodd" d="M16.4244 1.28133C13.9701 1.34482 12 3.35432 12 5.82395C12 6.18207 12.0414 6.53051 12.1197 6.86475C14.5741 6.80126 16.5442 4.79176 16.5442 2.32213C16.5442 1.96401 16.5027 1.61557 16.4244 1.28133Z"/>
</mask>
<path d="M16.4244 1.28133L16.3986 0.28167L17.2123 0.260619L17.398 1.05319L16.4244 1.28133ZM12.1197 6.86475L12.1456 7.86441L11.3318 7.88546L11.1461 7.0929L12.1197 6.86475ZM16.4503 2.281C14.5366 2.3305 13 3.89794 13 5.82395H11C11 2.81069 13.4036 0.359144 16.3986 0.28167L16.4503 2.281ZM13 5.82395C13 6.10471 13.0325 6.37661 13.0934 6.6366L11.1461 7.0929C11.0504 6.68441 11 6.25943 11 5.82395H13ZM12.0939 5.86508C14.0076 5.81558 15.5442 4.24814 15.5442 2.32213L17.5442 2.32213C17.5442 5.33539 15.1405 7.78694 12.1456 7.86441L12.0939 5.86508ZM15.5442 2.32213C15.5442 2.04137 15.5117 1.76947 15.4508 1.50948L17.398 1.05319C17.4938 1.46167 17.5442 1.88665 17.5442 2.32213L15.5442 2.32213Z" fill="white" mask="url(#path-13-inside-6_10483_33172)"/>
</svg>
