<svg enable-background="new 0 0 1920 1080" viewBox="0 0 1920 1080" xmlns="http://www.w3.org/2000/svg"><path d="m0 0h1920v1080h-1920z" fill="#eceff0"/><g fill="#3b3b3b"><path d="m566.6 822.1c0 2.1-1.8 3.8-3.9 3.8h-74.9c1.9 18.5 15.8 35.4 35.4 35.4 13.4 0 23.3-5.1 30.8-15.8 1.1-1.5 2.7-2.4 4.8-1.5 1.1.5 1.9 1.5 2.1 2.7s-.1 1.9-.5 2.6c-7.5 13.1-22.5 19.6-37.3 19.6-25.2 0-43.2-22.5-43.2-46.7 0-24.1 18-46.7 43.2-46.7 25.3 0 43.5 22.5 43.5 46.6zm-8-3.7c-1.6-18.5-15.8-35.4-35.4-35.4s-33.5 16.9-35.4 35.4z"/><path d="m657.5 777.4c2.1 0 3.8 1.9 3.8 3.8 0 2.1-1.6 3.8-3.8 3.8h-20.1v78.8c0 1.9-1.6 3.8-3.8 3.8-2.1 0-3.8-1.9-3.8-3.8v-78.8h-19.3c-2.1 0-3.8-1.6-3.8-3.8 0-1.9 1.6-3.8 3.8-3.8h19.3v-28.9c0-1.8 1.2-3.5 3-3.8 2.5-.4 4.5 1.3 4.5 3.7v29z"/><path d="m780.1 815.5v47.7c0 2.1-1.9 3.8-3.8 3.8-2.1 0-3.8-1.6-3.8-3.8v-47.7c0-16.1-9.1-32.2-27.1-32.2-23.1 0-33 20.1-31.6 40.8 0 .5.3 2.9.3 3.2v35.8c0 1.8-1.2 3.5-3 3.8-2.5.4-4.5-1.3-4.5-3.7v-156.9c0-1.9 1.6-3.8 3.8-3.8 2.1 0 3.8 1.9 3.8 3.8v88.8c6.4-11.5 18-19.3 31.4-19.3 21.9 0 34.5 19.3 34.5 39.7z"/><path d="m914.4 822.1c0 2.1-1.8 3.8-3.9 3.8h-74.9c1.9 18.5 15.8 35.4 35.4 35.4 13.4 0 23.3-5.1 30.8-15.8 1.1-1.5 2.7-2.4 4.8-1.5 1.1.5 1.9 1.5 2.1 2.7s-.1 1.9-.5 2.6c-7.5 13.1-22.5 19.6-37.3 19.6-25.2 0-43.2-22.5-43.2-46.7 0-24.1 18-46.7 43.2-46.7 25.3 0 43.5 22.5 43.5 46.6zm-8-3.7c-1.6-18.5-15.8-35.4-35.4-35.4s-33.5 16.9-35.4 35.4z"/><path d="m1006.4 780.9c0 2.4-1.3 3.8-3.5 4-22 3.2-31.9 21.2-31.9 42.1v35.8c0 1.8-1.2 3.5-3 3.8-2.5.4-4.5-1.3-4.5-3.7v-81.7c0-1.8 1.2-3.5 3-3.8 2.5-.4 4.5 1.3 4.5 3.7v16.6c6.2-10.5 18.5-20.4 31.4-20.4 1.8.1 4 1.4 4 3.6z"/><path d="m1129.5 822.1c0 2.1-1.8 3.8-3.9 3.8h-74.9c1.9 18.5 15.8 35.4 35.4 35.4 13.4 0 23.3-5.1 30.8-15.8 1.1-1.5 2.7-2.4 4.8-1.5 1.1.5 1.9 1.5 2.1 2.7s-.1 1.9-.5 2.6c-7.5 13.1-22.5 19.6-37.3 19.6-25.2 0-43.2-22.5-43.2-46.7 0-24.1 18-46.7 43.2-46.7s43.4 22.5 43.5 46.6zm-8.1-3.7c-1.6-18.5-15.8-35.4-35.4-35.4s-33.5 16.9-35.4 35.4z"/><path d="m1250.4 781.8v25.9 56c0 2.1-1.9 3.8-3.8 3.8-2.1 0-3.8-1.6-3.8-3.8v-15.6c-6.2 12.3-17.2 21.2-31.1 21.2-22.3 0-34.6-19.3-34.6-39.7v-48c0-1.9 1.6-3.8 3.8-3.8s3.8 1.9 3.8 3.8v48c0 16.1 9.1 32.2 27.1 32.2 25.2 0 31.1-23.6 31.1-49.6v-30.6c0-2.2 2.2-4.4 4.8-3.6 1.7.5 2.7 2.1 2.7 3.8z"/><path d="m1440 815.2v48c0 2.1-1.9 3.8-3.8 3.8-2.1 0-3.8-1.6-3.8-3.8v-48c0-16.1-9.1-31.9-27.1-31.9-22.5 0-31.1 24.1-31.1 42.9v37c0 2.1-1.9 3.8-3.8 3.8-2.1 0-3.8-1.6-3.8-3.8v-48c0-16.1-9.1-31.9-27.1-31.9-22.8 0-32.2 18-31.4 41.8 0 .5.3 1.6 0 1.9v36.1c0 1.8-1.2 3.5-3 3.8-2.5.4-4.5-1.3-4.5-3.7v-82c0-1.8 1.2-3.5 3-3.8 2.5-.4 4.5 1.3 4.5 3.7v13.7c6.4-11.5 18-19 31.4-19 15.3 0 27.1 9.7 31.9 23.9 6.2-13.9 18.2-23.9 33.8-23.9 22.2 0 34.8 19 34.8 39.4z"/></g><path d="m960 361.5-125.2 56.9 125.2 74.1 125.3-74.1z" opacity=".6"/><path d="m834.8 418.4 125.2 74.1v-131-150.9z" opacity=".45"/><path d="m960 210.6v150.9 131l125.2-74.1z" opacity=".8"/><path d="m834.8 442.2 125.2 176.4v-102.4z" opacity=".45"/><path d="m960 516.2v102.4l125.3-176.4z" opacity=".8"/></svg>