<svg enable-background="new 0 0 256 417" viewBox="0 0 256 417" xmlns="http://www.w3.org/2000/svg"><path d="m142.1 188.2h10.2l6.8-5.8-4.7-5.8h-10.2l-10.8 5.8z" fill="#951b81"/><path d="m142.1 216.5h10.2l6.8-5.8-4.7-5.8h-10.2l-10.8 5.8z" fill="#951b81"/><path d="m142.1 244.9h10.2l6.8-5.8-4.7-5.8h-10.2l-10.8 5.8z" fill="#951b81"/><path d="m145 264.7h10.1l6.9-5.8-4.8-5.8h-10.2l-10.8 5.8z" fill="#951b81"/><path d="m198.8 210.9h10.2l6.8-5.8-4.7-5.8h-10.2l-10.8 5.8z" fill="#951b81"/><path d="m224.3 219.4h10.2l6.8-5.8-4.7-5.8h-10.2l-10.8 5.8z" fill="#951b81"/><path d="m204.5 230.7h10.2l6.8-5.8-4.8-5.8h-10.1l-10.9 5.8z" fill="#951b81"/><path d="m170.5 225h10.2l6.8-5.8-4.8-5.8h-10.2l-10.8 5.8z" fill="#951b81"/><path d="m176.2 244.9h10.1l6.9-5.8-4.8-5.8h-10.2l-10.8 5.8z" fill="#951b81"/><path d="m170.5 196.7h10.2l6.8-5.8-4.8-5.8h-10.2l-10.8 5.8z" fill="#951b81"/><path d="m210.8 171.6 9.2 19.3h.7l2.5-14.3-6.6-23.1-8.1-5.3z" fill="#312783"/><path d="m182.5 143.3 9.1 19.3h.8l2.4-14.3-6.5-23.2-8.2-5.3z" fill="#312783"/><path d="m171.1 151.8 9.2 19.3h.7l2.5-14.3-6.6-23.2-8.1-5.3z" fill="#312783"/><path d="m142.8 95.1 9.1 19.3h.8l2.4-14.3-6.5-23.2-8.1-5.3z" fill="#312783"/><path d="m162.6 97.9 9.2 19.3h.7l2.5-14.3-6.6-23.2-8.1-5.2z" fill="#312783"/><path d="m145.6 143.3 9.2 19.3h.7l2.5-14.3-6.6-23.2-8.1-5.3z" fill="#312783"/><path d="m121.5 126-1.9-22-9.7 21.9-3.6 20.8 4.8 5.8 6.8-5.8z" fill="#009fe3"/><path d="m93.2 143-1.9-22-9.7 21.9-3.6 20.9 4.7 5.8 6.9-5.8z" fill="#009fe3"/><path d="m64.8 154.4-1.9-22.1-9.7 21.9-3.6 20.9 4.8 5.8 6.8-5.8z" fill="#009fe3"/><path d="m107.4 92-2-22-9.6 21.9-3.6 20.8 4.7 5.8 6.9-5.8z" fill="#009fe3"/><path d="m124.4 35.3-2-22-9.6 21.9-3.6 20.8 4.7 5.8 6.9-5.8z" fill="#009fe3"/><path d="m58.4 182.4h1.7l14.1-17.7 11.4-25.1-9.9 5.3-14.9 23.2z" fill="#009640"/><path d="m92.4 137h1.7l14.2-17.6 11.3-25.2-9.9 5.3-14.8 23.2z" fill="#009640"/><path d="m95.2 88.8h1.7l14.2-17.6 11.3-25.1-9.9 5.2-14.8 23.2z" fill="#009640"/><path d="m69.7 134.2h1.7l14.2-17.7 11.3-25.1-9.9 5.3-14.8 23.2z" fill="#009640"/><path d="m27.2 196.5h1.7l14.2-17.6 11.3-25.1-9.9 5.3-14.8 23.1z" fill="#009640"/><path d="m89.6 165.4h1.7l14.1-17.7 11.4-25.1-10 5.3-14.8 23.2z" fill="#009640"/><path d="m74.7 220.7-10.4 8.9c1.5 1.8 4 2.8 6.7 2.8h15.6l6.8-5.8-4.8-5.8z" fill="#009a93"/><path d="m92.8 238.7-10.4 8.9c1.5 1.8 4 2.8 6.7 2.8h15.6l6.8-5.8-4.8-5.8z" fill="#009a93"/><path d="m106.3 255-10.4 8.9c1.5 1.8 4 2.8 6.7 2.8h15.6l6.8-5.8-4.8-5.8z" fill="#009a93"/><path d="m147.7 64.4-2.3-23.5-9.1-19.3h-.8l-2.4 14.3 6.5 23.2z" fill="#ffed00"/><path d="m167.6 98.4-2.3-23.5-9.2-19.3h-.8l-2.4 14.3 6.6 23.2z" fill="#ffed00"/><path d="m184.6 132.4-2.3-23.5-9.2-19.3h-.7l-2.5 14.3 6.6 23.2z" fill="#ffed00"/><path d="m176.1 160.7-2.3-23.4-9.2-19.3h-.7l-2.5 14.3 6.6 23.1z" fill="#ffed00"/><path d="m150.6 152.2-2.3-23.4-9.2-19.3h-.8l-2.4 14.3 6.6 23.1z" fill="#ffed00"/><path d="m204.4 163.6-2.3-23.5-9.1-19.3h-.8l-2.4 14.3 6.5 23.2z" fill="#ffed00"/><path d="m232.8 200.4-2.3-23.4-9.2-19.4h-.8l-2.4 14.3 6.6 23.2z" fill="#ffed00"/><path d="m189.9 210.7 6.8-5.8-4.8-5.8h-15.6c-2.7 0-5.7 1-7.7 2.8l7.3 8.9z" fill="#f39200"/><path d="m159.4 232.3 6.8-5.8-4.8-5.8h-15.6c-2.7 0-5.7 1-7.7 2.8l7.3 8.9z" fill="#f39200"/><path d="m161 198 6.8-5.8-4.8-5.8h-15.6c-2.7 0-5.7 1-7.7 2.8l7.3 8.9z" fill="#f39200"/><path d="m223.1 214.2 6.8-5.8-4.8-5.8h-15.6c-2.7 0-5.7 1-7.7 2.8l7.3 8.9z" fill="#f39200"/><path d="m194.7 232.3 6.8-5.8-4.8-5.8h-15.6c-2.7 0-5.7 1-7.7 2.8l7.3 8.9z" fill="#f39200"/><path d="m173.4 255 6.8-5.8-4.8-5.8h-15.6c-2.7 0-5.7 1-7.7 2.8l7.3 8.9z" fill="#f39200"/><path d="m137.9 308.7-6.8 5.8 4.8 5.8h15.6c2.7 0 5.7-1 7.7-2.8l-7.3-8.9z" fill="#0069b4"/><path d="m161.8 297-6.8 5.8 4.8 5.8h15.6c2.7 0 5.7-1 7.7-2.8l-7.3-8.9z" fill="#0069b4"/><path d="m221.8 253.2-6.8 5.8 4.8 5.8h15.6c2.7 0 5.7-1 7.7-2.8l-7.3-8.9z" fill="#0069b4"/><path d="m161.8 321.3-6.8 5.8 4.8 5.8h15.6c2.7 0 5.7-1 7.7-2.8l-7.3-8.9z" fill="#0069b4"/><path d="m137.9 328.6-6.8 5.8 4.8 5.8h15.6c2.7 0 5.7-1 7.7-2.8l-7.3-8.9z" fill="#0069b4"/><path d="m137.9 345.6-6.8 5.8 4.8 5.8h15.6c2.7 0 5.7-1 7.7-2.8l-7.3-8.9z" fill="#0069b4"/><path d="m185.9 282.2-6.8 5.8 4.8 5.8h15.6c2.7 0 5.7-1 7.7-2.8l-7.3-8.9z" fill="#0069b4"/><path d="m203.1 266.9-6.8 5.8 4.8 5.8h15.6c2.7 0 5.7-1 7.7-2.8l-7.3-8.9z" fill="#0069b4"/><path d="m137.9 362.6-6.8 5.8 4.8 5.8h15.6c2.7 0 5.7-1 7.7-2.8l-7.3-8.9z" fill="#0069b4"/><path d="m132.9 402.1 10.4-8.9 6.4-37.4-4.7-5.8-6.8 5.8-7 39c-.4 2.9.2 5.5 1.7 7.3z" fill="#3aaa35"/><path d="m155.5 365.2 10.4-8.9 6.4-37.4-4.8-5.8-6.8 5.8-7 39c-.2 2.9.4 5.5 1.8 7.3z" fill="#3aaa35"/><path d="m132.7 357.2 10.4-8.9 6.4-37.4-4.8-5.8-6.8 5.8-7 39c-.2 2.9.4 5.5 1.8 7.3z" fill="#3aaa35"/><path d="m178.2 334 10.4-8.9 6.4-37.4-4.8-5.8-6.8 5.8-7 39c-.3 3 .4 5.5 1.8 7.3z" fill="#3aaa35"/><path d="m198.1 314.2 10.4-8.9 6.4-37.4-4.8-5.8-6.8 5.8-7 39c-.3 2.9.3 5.5 1.8 7.3z" fill="#3aaa35"/><path d="m140.6 102.3-6.7 37.4 7.3 8.9c1.9-1.8 3.6-4.4 4-7.2l7-39-4.8-5.7z" fill="#662483"/><path d="m154.7 116.5-6.7 37.4 7.3 8.9c1.9-1.8 3.6-4.4 4-7.2l7-39-4.8-5.7z" fill="#662483"/><path d="m180.3 119.3-6.7 37.4 7.3 8.9c1.9-1.8 3.6-4.4 4-7.2l7-39-4.8-5.7z" fill="#662483"/><path d="m140.6 45.6-6.7 37.4 7.3 8.9c1.9-1.8 3.6-4.4 4-7.2l7-39-4.8-5.7z" fill="#662483"/><path d="m195.6 137.7-6.7 37.4 7.3 8.9c1.9-1.8 3.6-4.4 4-7.2l7-39-4.8-5.7z" fill="#662483"/><path d="m135.8 336.7 9.2 19.3h.7l2.5-14.3-6.6-23.2-8.1-5.3z" fill="#312783"/><path d="m149.9 353.4 9.2 19.3h.8l2.4-14.3-6.6-23.2-8.1-5.3z" fill="#312783"/><path d="m133.1 373.8 9.1 19.3h.8l2.5-14.3-6.6-23.2-8.1-5.3z" fill="#312783"/><path d="m153 328.4 9.1 19.3h.8l2.4-14.3-6.5-23.2-8.2-5.3z" fill="#312783"/><path d="m167.4 316.5 9.1 19.4h.8l2.5-14.3-6.6-23.2-8.1-5.3z" fill="#312783"/><path d="m182.5 307 9.1 19.3h.8l2.4-14.3-6.5-23.2-8.2-5.3z" fill="#312783"/><path d="m196.5 290.2 9.2 19.4h.7l2.5-14.3-6.6-23.2-8.1-5.3z" fill="#312783"/><path d="m127.1 76.2-2-22.1-9.6 21.9-3.7 20.9 4.8 5.8 6.8-5.8z" fill="#009fe3"/><g fill="#95c11f"><path d="m8.9 212.9 4.7 5.8h10.2l10.8-5.8-8.7-5.8h-10.2z"/><path d="m97.5 173.6 4.8 5.8h10.1l10.9-5.8-8.8-5.8h-10.2z"/><path d="m73.5 185.1 4.8 5.8h10.2l10.8-5.8-8.8-5.8h-10.1z"/><path d="m53 194.5 4.8 5.8h10.2l10.8-5.8-8.7-5.8h-10.2z"/><path d="m33 204.9 4.8 5.8h10.2l10.8-5.8-8.8-5.8h-10.2z"/><path d="m32.6 227.9 4.7 5.8h10.2l10.8-5.8-8.7-5.8h-10.2z"/><path d="m55.8 239.1 4.8 5.8h10.2l10.8-5.8-8.8-5.8h-10.2z"/><path d="m77.1 249.4 4.7 5.8h10.2l10.8-5.8-8.7-5.8h-10.2z"/><path d="m88.4 229.5 4.8 5.8h10.2l10.8-5.8-8.8-5.8h-10.2z"/><path d="m99.8 257.9 4.7 5.8h10.2l10.8-5.8-8.7-5.8h-10.2z"/><path d="m94.1 198.3 4.8 5.8h10.1l10.9-5.8-8.8-5.8h-10.2z"/><path d="m76.7 209.5 4.8 5.8h10.2l10.8-5.8-8.7-5.8h-10.2z"/><path d="m56.7 219.9 4.8 5.8h10.2l10.8-5.8-8.8-5.8h-10.2z"/></g><path d="m65.6 202.6-10.4 8.9c1.5 1.8 4 2.8 6.7 2.8h15.6l6.8-5.8-4.8-5.8z" fill="#009a93"/><path d="m72 109.7h-1.7l-14.2 17.7-11.3 25.1 9.9-5.3 14.8-23.2z" fill="#e6007e"/><path d="m89 109.7h-1.7l-14.2 17.7-11.3 25.1 9.9-5.3 14.8-23.2z" fill="#e6007e"/><path d="m106 112.5h-1.7l-14.1 17.7-11.4 25.1 9.9-5.3 14.9-23.2z" fill="#e6007e"/><path d="m89 109.7h-1.7l-14.2 17.7-11.3 25.1 9.9-5.3 14.8-23.2z" fill="#e6007e"/><path d="m123 115.4h-1.7l-14.1 17.6-11.4 25.2 9.9-5.3 14.9-23.2z" fill="#e6007e"/><path d="m106 112.5h-1.7l-14.1 17.7-11.4 25.1 9.9-5.3 14.9-23.2z" fill="#e6007e"/><path d="m103.2 61.5h-1.7l-14.2 17.7-11.3 25.1 9.9-5.3 14.8-23.2z" fill="#e6007e"/><path d="m123 64.4h-1.7l-14.1 17.6-11.4 25.1 9.9-5.3 14.9-23.1z" fill="#e6007e"/><path d="m123 64.4h-1.7l-14.1 17.6-11.4 25.1 9.9-5.3 14.9-23.1z" fill="#e6007e"/><path d="m125.8 19h-1.6l-14.2 17.7-11.3 25.1 9.9-5.3 14.8-23.2z" fill="#e6007e"/><path d="m43.6 152.2h-1.6l-14.2 17.7-11.3 25.1 9.9-5.3 14.8-23.2z" fill="#e6007e"/><path d="m60.7 152.2h-1.7l-14.2 17.7-11.3 25.1 9.9-5.3 14.8-23.2z" fill="#e6007e"/><path d="m60.7 152.2h-1.7l-14.2 17.7-11.3 25.1 9.9-5.3 14.8-23.2z" fill="#e6007e"/><path d="m32.5 261-6.8 5.8 4.8 5.8h15.5c2.7 0 5.7-1 7.7-2.8l-7.3-8.9z" fill="#0069b4"/><path d="m46.3 278.6-6.8 5.8 4.8 5.8h15.6c2.7 0 5.7-1 7.7-2.8l-7.3-8.9z" fill="#0069b4"/><path d="m56.1 291.1-6.8 5.8 4.8 5.8h15.6c2.7 0 5.7-1 7.7-2.8l-7.3-8.9z" fill="#0069b4"/><path d="m103.2 308.5-6.8 5.8 4.8 5.8h15.6c2.7 0 5.7-1 7.7-2.8l-7.3-8.9z" fill="#0069b4"/><path d="m105.9 364.7-6.8 5.8 4.8 5.8h15.6c2.7 0 5.7-1 7.7-2.8l-7.3-8.9z" fill="#0069b4"/><path d="m87.4 339.7-6.8 5.8 4.8 5.8h15.6c2.7 0 5.7-1 7.7-2.8l-7.3-8.9z" fill="#0069b4"/><path d="m126.8 369.5-1.9-22.1-9.7 21.9-3.6 20.9 4.8 5.8 6.8-5.8z" fill="#009fe3"/><path d="m124.4 332.1-1.9-22.1-9.7 21.9-3.6 20.9 4.8 5.8 6.8-5.8z" fill="#009fe3"/><path d="m107.4 341.8-2-22-9.6 21.9-3.6 20.8 4.7 5.8 6.9-5.8z" fill="#009fe3"/><path d="m97.6 317.5-2-22-9.6 21.9-3.6 20.8 4.7 5.8 6.9-5.8z" fill="#009fe3"/><path d="m82.4 308.1-2-22.1-9.6 22-3.6 20.8 4.7 5.8 6.9-5.8z" fill="#009fe3"/><path d="m68.7 293.2-1.9-22-9.7 21.9-3.6 20.9 4.8 5.8 6.8-5.8z" fill="#009fe3"/><path d="m91.7 182.8-10.4 8.9c1.5 1.8 4 2.8 6.7 2.8h15.6l6.8-5.8-4.8-5.8z" fill="#009a93"/><path d="m105.1 206.4-10.4 8.9c1.5 1.8 4 2.8 6.7 2.8h15.6l6.8-5.8-4.8-5.8z" fill="#009a93"/><path d="m109.2 193.1 2 22.1 9.6-21.9 3.6-20.9-4.7-5.8-6.9 5.8z" fill="#e30613"/><path d="m109.2 238.8 2 22.1 9.6-21.9 3.6-20.9-4.7-5.8-6.9 5.8z" fill="#e30613"/><path d="m92.2 242.4 1.9 22 9.7-21.9 3.6-20.9-4.8-5.7-6.8 5.7z" fill="#e30613"/><path d="m71.2 232.1 2 22 9.6-21.9 3.6-20.9-4.7-5.8-6.9 5.8z" fill="#e30613"/><path d="m88.2 204.3 2 22 9.6-21.9 3.6-20.8-4.7-5.8-6.9 5.8z" fill="#e30613"/><path d="m63.4 207.2 1.9 22 9.7-21.9 3.6-20.9-4.8-5.8-6.8 5.8z" fill="#e30613"/><path d="m45.9 216.6 1.9 22 9.7-21.9 3.6-20.8-4.8-5.8-6.8 5.8z" fill="#e30613"/><path d="m148.5 251.8-2-22-9.6 21.9-3.6 20.9 4.7 5.8 6.8-5.8z" fill="#009fe3"/><path d="m169 236.8-1.9-22-9.7 21.9-3.6 20.9 4.8 5.8 6.8-5.8z" fill="#009fe3"/><path d="m187.9 224.3-2-22-9.6 21.9-3.6 20.8 4.7 5.8 6.9-5.8z" fill="#009fe3"/><path d="m207.1 214.3-1.9-22.1-9.7 21.9-3.6 20.9 4.8 5.8 6.8-5.8z" fill="#009fe3"/><path d="m146.8 186.4-1.9-22.1-9.7 21.9-3.6 20.9 4.8 5.8 6.8-5.8z" fill="#009fe3"/><path d="m164.3 197-2-22-9.6 21.9-3.6 20.8 4.7 5.8 6.9-5.8z" fill="#009fe3"/><path d="m36.1 207.6-10.4 8.9c1.5 1.8 4 2.8 6.7 2.8h15.6l6.8-5.8-4.8-5.8z" fill="#009a93"/><path d="m114.7 377.4 6.7-37.4-7.3-8.9c-1.9 1.8-3.6 4.4-4 7.2l-7 39 4.8 5.8z" fill="#d3d800"/><path d="m86.7 340.6 6.7-37.4-7.3-8.9c-1.9 1.8-3.6 4.4-4 7.2l-7 39 4.8 5.8z" fill="#d3d800"/><path d="m72.2 326.8 6.7-37.4-7.3-8.9c-1.9 1.8-3.6 4.4-4 7.2l-7 39 4.8 5.8z" fill="#d3d800"/><path d="m101.6 347 6.7-37.4-7.3-8.9c-1.9 1.8-3.6 4.4-4 7.2l-7 39 4.8 5.8z" fill="#d3d800"/></svg>