<svg width="79" height="104" fill="none" xmlns="http://www.w3.org/2000/svg"><path fill-rule="evenodd" clip-rule="evenodd" d="M61.6161 71.8906c1.3234 3.1396 2.6492 6.2782 3.9695 9.4193 1.501 3.5714 2.9811 7.1519 4.5041 10.7141.5249 1.2278.621 2.4053-.312 3.43-.9078.9971-2.0615 1.039-3.2877.6041-2.9251-1.0379-5.8671-2.028-8.7843-3.088-.7156-.2599-1.0096-.0717-1.3104.5888-1.3416 2.9439-2.7253 5.8685-4.115 8.7901-.5547 1.166-1.5289 1.602-2.7877 1.509-1.118-.083-1.8074-.714-2.2189-1.699-2.1688-5.1863-4.3281-10.3772-6.4934-15.5655-.0997-.2394-.2253-.4679-.4034-.8343-.7448 1.7652-1.4478 3.4122-2.1359 5.0657-1.5669 3.7647-3.1211 7.5347-4.6926 11.2971-.47 1.126-1.287 1.733-2.5541 1.745-1.2742.013-2.0481-.609-2.5666-1.717-1.3709-2.9309-2.7756-5.8457-4.1404-8.7793-.2522-.5423-.5096-.625-1.075-.4235-3.0873 1.1014-6.1899 2.1598-9.293 3.2152-1.0841.3688-2.1219.1757-2.88-.6726-.7589-.8495-.9787-1.8744-.5026-3.0098 2.5343-6.044 5.0468-12.0972 7.5717-18.1451.1229-.2945.2919-.5697.4393-.8536.3875.1626.7504.3602.9985.7189-1.2486 3.0431-2.4889 6.0898-3.7485 9.1283-1.2944 3.1217-2.6112 6.234-3.9101 9.3537-.2832.6803-.3797 1.3765.196 1.9588.5305.5363 1.1433.3753 1.7758.1527 3.2288-1.1371 6.4726-2.2313 9.6926-3.3925.8226-.2966 1.2239-.1417 1.5952.677 1.4325 3.1591 2.9387 6.2842 4.4135 9.4238.2916.62.7046 1.103 1.4353 1.093.6868-.01 1.1121-.454 1.3643-1.059 2.3074-5.5395 4.5891-11.0899 6.9349-16.6128.3655-.8611.3043-1.5246-.2067-2.2378-.2368.1424-.2757.3481-.3526.5319-2.2826 5.4554-4.5649 10.9111-6.8517 16.3648-.1521.3625-.1985.8759-.7122.8869-.545.011-.6427-.5209-.8314-.8979-1.5669-3.1305-3.1413-6.2574-4.6734-9.4051-.2741-.5633-.5345-.6954-1.1257-.4876-1.6959.596-3.412 1.1349-5.1224 1.6888-1.7382.5628-3.4802 1.1135-5.2178 1.678-.2901.0942-.5701.178-.8035-.0849-.201-.2266-.1409-.4854-.0355-.7401.0891-.2153.1628-.437.2525-.6522 2.344-5.6192 4.6892-11.238 7.0341-16.857 1.959.5183 3.9661.4659 5.9477.342 2.6199-.1636 4.8565.6752 6.986 2.1076 1.727 1.1615 3.5046 2.2825 5.6979 2.3285 3.0209 7.2603 6.0461 14.5188 9.0559 21.7839.2844.687.6163 1.298 1.4354 1.32.8181.022 1.2088-.567 1.5209-1.236 1.3939-2.9834 2.7788-5.9715 4.205-8.9397.6656-1.3854.3376-1.474 2.1183-.8572 3.1243 1.0826 6.2508 2.1587 9.3682 3.2608.6856.2424 1.2991.2922 1.828-.2867.5359-.5865.383-1.2017.1061-1.8626-2.7469-6.5542-5.4784-13.115-8.2143-19.674.2799-.3892.507-.8224.9121-1.107z" fill="#FCCDD3"/><mask id="a" maskUnits="userSpaceOnUse" x="0" y="0" width="79" height="80"><path d="M0 .1754h78.8495v79.3403H0V.1754z" fill="#fff"/></mask><g mask="url(#a)"><path fill-rule="evenodd" clip-rule="evenodd" d="M26.4437 6.162c-1.4108 0-2.3716-.039-3.3279.0084-1.7405.0867-3.1912.739-4.2287 2.2309-.8026 1.154-1.4663 2.3841-2.0959 3.6321-1.1304 2.2413-2.7934 3.9151-5.0263 5.0434-.9846.4975-1.9323 1.0691-2.8918 1.6159-2.007 1.1435-2.949 2.8955-2.9291 5.1982.0127 1.4904.0002 2.981.0232 4.471.0256 1.6507-.394 3.1751-1.2256 4.5884-.6652 1.1304-1.3287 2.2623-2.0183 3.3777-1.4251 2.3053-1.4971 4.6026-.021 6.9147.345.54.6235 1.1257.9955 1.6449 1.7518 2.4454 2.5333 5.1477 2.2766 8.1637-.0792.9288-.0348 1.8694-.0267 2.8041.0167 1.9934.7016 3.6541 2.427 4.7646.6592.4244 1.3123.8805 2.0228 1.1989 3.1835 1.4256 5.5689 3.6417 6.9889 6.8773.2916.6645.6929 1.2813 1.0555 1.9134 1.1361 1.9804 2.8745 2.8934 5.1177 2.8925 1.5401-.0005 3.0803-.0042 4.6204-.0195 1.6431-.0161 3.1476.4566 4.5499 1.2865 1.1259.6662 2.2504 1.3358 3.3593 2.0298 2.215 1.3862 4.4214 1.4037 6.6409.0182.8387-.5233 1.7035-1.0052 2.5296-1.5475 1.9021-1.2482 3.9477-1.9246 6.2478-1.7968 1.246.0691 2.4983.0262 3.7478.03 2.2783.0067 4.0406-.9125 5.1802-2.936.5436-.9651 1.1139-1.9173 1.6083-2.9076 1.1206-2.2445 2.763-3.9375 5.0064-5.0596 1.0126-.5064 1.9934-1.0812 2.9654-1.6638 1.5778-.9449 2.6363-2.2503 2.8168-4.1712.1674-1.7808.0515-3.5614.0464-5.3414-.0051-1.8053.4431-3.4586 1.3709-4.9941.6784-1.1226 1.3414-2.2545 2.0156-3.3795 1.2487-2.0837 1.3113-4.1862.0874-6.2998-.5404-.9334-1.0845-1.8659-1.6675-2.7724-1.249-1.941-1.9422-4.0206-1.8073-6.3665.074-1.2817.0445-2.571.0267-3.8564-.0272-1.9537-.7005-3.5798-2.3831-4.7033-1.1396-.7613-2.3375-1.4153-3.5518-2.039-2.141-1.1-3.7474-2.7175-4.8483-4.8668-.5448-1.0631-1.1369-2.1031-1.7391-3.135-.937-1.6058-2.2875-2.6281-4.1722-2.8014-.7211-.0663-1.4502-.0417-2.176-.0547-1.5673-.0284-3.1422.1303-4.7011-.0835-1.9262-.2641-3.5777-1.2424-5.0916-2.3659-3.2336-2.3998-6.3568-2.4335-9.5907-.0112-2.5532 1.9124-5.4047 2.9529-8.207 2.4683zm-6.8976 68.0381c-.2481-.3586-.611-.5563-.9985-.7187-1.6679-1.9723-2.6836-4.3512-4.0268-6.5259-.8428-1.3646-2.1377-2.1938-3.5021-2.9416-1.3244-.7259-2.6887-1.3848-3.9005-2.3054-1.7607-1.3374-2.6672-3.1228-2.7352-5.3297-.0323-1.0509-.083-2.1116.0157-3.1542.2635-2.7821-.4979-5.2386-2.0744-7.5042-.5966-.8574-1.1051-1.7871-1.5648-2.728-1.04-2.1279-.993-4.2749.0237-6.411.5785-1.2159 1.3146-2.3383 2.0289-3.4715 1.0866-1.7234 1.7097-3.5517 1.5917-5.6249-.0714-1.2529-.0171-2.5125-.0325-3.7689-.0348-2.8312 1.2183-4.9276 3.6025-6.3647.9206-.5549 1.8511-1.1009 2.8143-1.5744 2.1154-1.0398 3.671-2.5998 4.7161-4.7284.7177-1.4621 1.4628-2.9176 2.5395-4.1703 1.3212-1.5372 3.0109-2.2354 4.9892-2.2926 1.0161-.0293 2.0425-.0935 3.0486.0112 2.8389.295 5.3181-.5538 7.614-2.168.7581-.5328 1.5871-.9706 2.4096-1.4018 2.2226-1.1658 4.4505-1.1072 6.6839.0063 1.1486.5726 2.2239 1.267 3.2961 1.9614 1.7383 1.1258 3.6033 1.7033 5.6822 1.6123 1.2473-.0547 2.4982-.0184 3.7474-.0295 2.821-.025 4.8826 1.2714 6.2931 3.6762.5748.98 1.1487 1.9644 1.6508 2.983.9791 1.9863 2.4499 3.4425 4.4167 4.4308 1.2195.6128 2.4213 1.2645 3.548 2.0442 2.016 1.3953 3.0301 3.3275 3.0559 5.7831.0099.9643.0727 1.9361-.0197 2.8915-.2724 2.8121.4939 5.3017 2.1002 7.5838.5012.712.9157 1.4898 1.3298 2.2594 1.3778 2.5619 1.2401 5.0941-.2046 7.5816-.7175 1.2352-1.4478 2.4625-2.1752 3.6916-.7312 1.2357-1.0659 2.5728-1.0495 4.0083.0169 1.4609-.0002 2.9225.0246 4.3833.0479 2.8336-1.1998 4.9344-3.5704 6.3845-1.0161.6217-2.0618 1.198-3.1174 1.7497-1.7183.8982-3.13 2.0985-4.0381 3.8545-.6956 1.3454-1.4263 2.6725-2.142 4.0074-.406.2847-.6331.7179-.913 1.107-.3685.2091-.6494.5157-.9194.8349-1.5558 1.0494-3.2918 1.3241-5.1258 1.2604-1.3035-.0452-2.6097-.0098-3.9149-.0132-.9079-.0026-1.7825.1661-2.6129.5328-2.5816 1.1404-4.7489 3.0864-7.4974 3.9033-.4488-.1287-.9017-.0284-1.3531-.0267-2.1933-.0457-3.9709-1.1669-5.6977-2.3285-2.1297-1.4323-4.3663-2.2711-6.9862-2.1075-1.9816.124-3.9887.1762-5.9479-.3418-.3318-.2485-.6836-.4529-1.1025-.5111z" fill="#6534FF"/></g><path fill-rule="evenodd" clip-rule="evenodd" d="M50.5709 48.0857c.7062.0212 1.1816-.5665.9753-1.2937-1.2565-4.4237-2.531-8.8422-3.8018-13.262-.1959-.6808-.7122-.8185-1.3046-.6769-.4842.1154-.6118.5747-.7376 1.0014-.8149 2.7636-1.6307 5.5271-2.4476 8.2902-.4457 1.507-.912 3.0081-1.3327 4.522-.1733.624-.0413 1.2039.6774 1.3842.6262.1572 1.0573-.0959 1.226-.7743.1613-.6489.4044-1.2773.5667-1.926.1122-.4474.3432-.6075.7975-.5956a59.3785 59.3785 0 003.0462.0004c.4785-.012.7416.1157.843.6354.1222.6259.3383 1.2345.531 1.845.1484.4695.3842.8604.9612.8499zm-22.82-7.5963c-.0687.7252.1401 1.4106.4774 2.075.6464 1.273 1.2906 2.548 1.9043 3.8374.4939 1.0381 1.241 1.654 2.4204 1.6945 1.2413.0428 2.0017-.6106 2.5113-1.6713.6686-1.392 1.3644-2.7712 2.016-4.1711.5606-1.2045.5568-2.4295-.0258-3.6324-.7241-1.4951-1.4391-2.9952-2.1988-4.4718-.9103-1.7693-3.4399-1.8966-4.4278-.1628-.921 1.6165-1.6718 3.3317-2.4727 5.0155-.2142.4504-.2508.9569-.2043 1.487zm28.2424-.2997c0 2.2198.0086 4.4397-.005 6.6595-.0042.7231.2506 1.2191 1.0207 1.2284.879.0103 1.0124-.6607 1.0268-1.3331.0269-1.2555.0299-2.5125-.0012-3.7675-.0132-.5365.166-.7104.6974-.6987a92.8587 92.8587 0 004.0949.0028c1.6243-.0352 2.858-1.2606 2.9077-2.8964.0371-1.2255.0396-2.4542-.0009-3.6798-.0547-1.6685-1.3364-2.8837-2.9929-2.8883-1.975-.0056-3.9505.0235-5.9248-.0158-.6352-.0128-.8525.1405-.839.8173.0437 2.1898.0163 4.381.0163 6.5716zm-42.3774.0272c0 2.1614-.0013 4.3228.0015 6.4843.0004.2326-.0312.4849.0456.6935.1789.4856.5441.7383 1.0824.6885.6719-.0621.8789-.5605.8976-1.1037.0443-1.2836.0527-2.5707.0103-3.8543-.0211-.6371.1383-.8786.8158-.8523 1.3339.0522 2.6721.0396 4.0074.0068 1.5795-.0387 2.8166-1.2473 2.8775-2.8346a50.5581 50.5581 0 00.0008-3.7672c-.0607-1.6643-1.3477-2.8578-3.0185-2.8617-1.975-.0043-3.9507.0292-5.9247-.0177-.6773-.0159-.8205.2121-.8099.8466.0367 2.1899.0142 4.3811.0142 6.5718zm12.828-34.0548c2.8023.4846 5.6538-.556 8.2069-2.4685 3.2338-2.4223 6.3571-2.3885 9.5907.0114 1.5139 1.1233 3.1653 2.1016 5.0916 2.3659 1.5589.2136 3.1338.055 4.7011.0833.7258.0131 1.455-.0114 2.1761.0549 1.8847.1732 3.2352 1.1955 4.1722 2.8013.6021 1.0319 1.1942 2.0718 1.7388 3.1351 1.1012 2.1493 2.7075 3.7668 4.8485 4.8666 1.2143.6238 2.4122 1.2778 3.5519 2.039 1.6825 1.1236 2.3558 2.7497 2.3829 4.7033.0179 1.2855.0474 2.5747-.0265 3.8566-.135 2.3457.5582 4.4253 1.807 6.3664.5832.9064 1.1273 1.8391 1.6678 2.7724 1.2237 2.1137 1.1612 4.216-.0874 6.2997-.6742 1.125-1.3373 2.2569-2.0157 3.3795-.9277 1.5356-1.3759 3.1889-1.3709 4.9943.0051 1.7797.1211 3.5605-.0463 5.3414-.1805 1.9209-1.2391 3.2261-2.8168 4.1712-.9721.5824-1.9529 1.1573-2.9654 1.6636-2.2434 1.1223-3.8858 2.8152-5.0065 5.0597-.4944.9902-1.0647 1.9425-1.6084 2.9076-1.1395 2.0234-2.9017 2.9426-5.18 2.9359-1.2495-.0037-2.5018.0393-3.7479-.03-2.3001-.1277-4.3457.5486-6.2478 1.7968-.8261.5422-1.6909 1.0242-2.5296 1.5477-2.2196 1.3853-4.4259 1.3679-6.6408-.0184-1.109-.694-2.2335-1.3634-3.3594-2.0297-1.4023-.8299-2.9068-1.3027-4.5501-1.2864-1.5398.0153-3.0801.0188-4.6202.0193-2.2432.0009-3.9815-.9122-5.1177-2.8925-.3625-.6319-.7638-1.2487-1.0554-1.9133-1.4201-3.2355-3.8054-5.4516-6.989-6.8775-.7106-.3181-1.3636-.7744-2.0228-1.1989-1.7254-1.1105-2.4103-2.7711-2.427-4.7645-.008-.9348-.0525-1.8751.0267-2.804.2567-3.016-.5248-5.7182-2.2765-8.1637-.372-.5193-.6505-1.1049-.9955-1.6451-1.4762-2.3118-1.4044-4.6091.021-6.9146.6895-1.1153 1.353-2.2472 2.0182-3.3775.8317-1.4136 1.2513-2.938 1.2256-4.5884-.023-1.4901-.0104-2.9806-.0232-4.471-.0198-2.3027.9222-4.0548 2.9292-5.1984.9595-.5467 1.9071-1.1184 2.8916-1.6158 2.2331-1.1282 3.8961-2.8022 5.0265-5.0434.6295-1.2481 1.2933-2.478 2.0958-3.6323 1.0375-1.4917 2.4881-2.1441 4.2285-2.2306.9566-.0475 1.9173-.0084 3.3282-.0084z" fill="#FEFEFE"/><path fill-rule="evenodd" clip-rule="evenodd" d="M59.7846 73.8323l6.4391 15.4846c.369.8872.7486 1.7701 1.1025 2.6633.124.3129.3408.6575.0467.984-.3001.3334-.6424.1272-.9679.022-3.3649-1.0879-6.7362-2.157-10.0893-3.281-.6674-.224-.941-.0802-1.2429.5426-1.5257 3.1484-3.1035 6.2714-4.6664 9.4019-.1655.3313-.2729.7213-.7694.7183-.5166-.004-.5823-.433-.7192-.76-2.7075-6.4729-5.4053-12.9502-8.1004-19.4286-.0875-.2104-.1236-.4425-.1836-.6641 2.7482-.8166 4.9156-2.7626 7.4971-3.9029.8303-.3666 1.7051-.5353 2.613-.5328 1.3051.0035 2.6113-.0319 3.9147.0131 1.8341.0639 3.5702-.211 5.126-1.2604z" fill="#FCCDD3"/><path fill-rule="evenodd" clip-rule="evenodd" d="M15.582 37.521c0 .7289.0136 1.458-.0053 2.1863-.0108.4209.089.6465.5754.6377 1.362-.0242 2.7247-.0048 4.087-.0107.7435-.0033 1.1376-.4281 1.1625-1.1374.0379-1.0773.044-2.158.0021-3.2348-.0282-.7352-.41-1.1835-1.2165-1.1738-1.3043.0156-2.6093.0215-3.9132-.0039-.5386-.0107-.7201.2063-.6985.7256.0278.6692.0067 1.3406.0065 2.011zm-1.9661 2.696c0-2.1909.0223-4.3819-.0142-6.5719-.0108-.6345.1326-.8627.8099-.8465 1.9738.0468 3.9497.0131 5.9247.0177 1.6708.0037 2.9579 1.1973 3.0184 2.8617a50.5015 50.5015 0 01-.0007 3.7671c-.0609 1.5874-1.298 2.7959-2.8777 2.8347-1.3351.0328-2.6732.0454-4.0074-.0069-.6773-.0265-.8367.2152-.8156.8524.0424 1.2834.034 2.5707-.0103 3.8543-.0186.5431-.2256 1.0416-.8976 1.1036-.5383.0497-.9035-.203-1.0824-.6887-.0768-.2083-.0454-.4609-.0457-.6932-.0026-2.1616-.0014-4.323-.0014-6.4843zM57.9596 37.5568c0 .7288.019 1.4582-.0068 2.1861-.0166.4623.1674.6078.6123.6012 1.333-.02 2.6666-.0095 4-.0071.785.0014 1.1944-.4217 1.2174-1.1757.0327-1.0775.044-2.1584-.0048-3.2347-.0335-.7433-.4519-1.1536-1.2487-1.14-1.275.0218-2.5514.0267-3.826-.0037-.5704-.0136-.7811.1942-.7518.7628.0344.6687.008 1.3406.0084 2.0111zm-1.9663 2.6329c0-2.1906.0274-4.3818-.0164-6.5716-.0134-.6766.2039-.8299.8388-.8173 1.9745.0393 3.95.0102 5.925.0158 1.6566.0046 2.9382 1.2198 2.993 2.8883.0404 1.2256.038 2.4543.0008 3.6798-.0497 1.6358-1.2833 2.8612-2.9076 2.8964a92.8585 92.8585 0 01-4.0949-.0028c-.5314-.0117-.7107.1622-.6974.6987.0308 1.2552.028 2.512.0012 3.7675-.0145.6724-.1479 1.3434-1.0268 1.3331-.7702-.0091-1.0249-.5053-1.0208-1.2284.0135-2.2197.0051-4.4397.0051-6.6595zM35.4665 40.4663c-.0565-.2835-.0585-.5932-.1788-.8459-.7014-1.4728-1.4096-2.9434-2.1602-4.3913-.3268-.6305-.8421-.6244-1.1717.0193-.717 1.3995-1.3889 2.8227-2.056 4.2473-.3444.7355-.2527 1.4807.0972 2.1937.6288 1.2818 1.2701 2.5575 1.9042 3.8369.1452.2929.2923.6049.6757.5877.3296-.0146.4777-.2852.612-.5553.6623-1.3302 1.332-2.6568 1.9942-3.987.171-.3436.271-.708.2834-1.1054zm-7.7157.0231c-.0464-.5302-.0098-1.0367.2044-1.487.8008-1.6837 1.5517-3.3991 2.4725-5.0154.988-1.7339 3.5175-1.6066 4.4279.1626.7596 1.4767 1.4746 2.9769 2.1987 4.4718.5827 1.203.5867 2.428.0258 3.6325-.6515 1.3999-1.3473 2.7791-2.016 4.171-.5095 1.0607-1.2697 1.7142-2.5112 1.6714-1.1794-.0405-1.9264-.6564-2.4204-1.6943-.6135-1.2896-1.2578-2.5646-1.9044-3.8377-.3373-.6643-.5458-1.3495-.4773-2.0749zM46.8734 37.773l-.2246.005c-.267.9101-.5561 1.8144-.7945 2.7318-.1946.7494-.9257 1.7543-.4186 2.1833.495.4184 1.5996.1019 2.4363.1201.3638.0081.4334-.114.3266-.4686-.457-1.5192-.8859-3.0471-1.3252-4.5716zm3.698 10.3121c-.5774.011-.8133-.3799-.9617-.8492-.1928-.6107-.4088-1.2192-.5309-1.8452-.1015-.5196-.3647-.6473-.843-.6354a59.6112 59.6112 0 01-3.0463-.0001c-.4543-.012-.6854.1482-.7975.5954-.1624.6487-.4055 1.2771-.5668 1.926-.1686.6785-.5997.9314-1.226.7743-.7186-.1801-.8507-.7601-.6773-1.3843.4208-1.5138.887-3.0149 1.3327-4.522.817-2.7631 1.6327-5.5263 2.4476-8.2901.1257-.4266.2534-.8861.7375-1.0015.5924-.1413 1.1088-.0038 1.3046.677 1.2708 4.4197 2.5453 8.8383 3.8018 13.262.2065.7271-.2691 1.3148-.9747 1.2931z" fill="#6534FF"/><path fill-rule="evenodd" clip-rule="evenodd" d="M15.582 37.521c.0002-.6705.0211-1.3418-.0066-2.0111-.0214-.5193.1601-.7362.6986-.7255 1.304.0254 2.6088.0195 3.9131.0039.8067-.0097 1.1883.4386 1.2167 1.1738.0417 1.0768.0356 2.1575-.0023 3.2348-.0247.7093-.4189 1.1341-1.1623 1.1374-1.3624.0059-2.7252-.0135-4.0871.0107-.4865.0088-.5863-.2168-.5755-.6377.019-.7283.0054-1.4574.0054-2.1863zM57.9595 37.5567c-.0002-.6704.0261-1.3423-.0082-2.011-.0293-.5686.1813-.7764.7518-.7628 1.2746.0304 2.551.0255 3.826.0037.7966-.0136 1.2151.3967 1.2486 1.14.0489 1.0763.0375 2.1572.0049 3.2347-.023.7539-.4325 1.1771-1.2174 1.1757-1.3334-.0024-2.667-.0129-4.0001.0071-.4448.0066-.6288-.1389-.6123-.6012.0258-.7279.0068-1.4573.0067-2.1862zM35.4665 40.4662c-.0124.3975-.1123.7619-.2834 1.1055-.6621 1.3302-1.3318 2.6568-1.9942 3.987-.1342.2701-.2823.5407-.6119.5553-.3835.0172-.5305-.2948-.6758-.5877-.6341-1.2794-1.2753-2.5551-1.9042-3.837-.3498-.7129-.4415-1.4581-.0971-2.1936.667-1.4246 1.339-2.8478 2.0559-4.2473.3296-.6437.8449-.6498 1.1718-.0193.7505 1.4479 1.4587 2.9185 2.1602 4.3913.1203.2527.1222.5624.1787.8458zM46.8734 37.7729c.4393 1.5246.8681 3.0525 1.3252 4.5717.1067.3546.0371.4767-.3266.4686-.8368-.0183-1.9414.2983-2.4363-.1202-.5071-.4289.2239-1.4339.4185-2.1833.2384-.9174.5276-1.8216.7946-2.7317.075-.0017.1498-.0033.2246-.0051z" fill="#FEFEFE"/></svg>