<svg width="19" height="19" viewBox="0 0 19 19" fill="none" xmlns="http://www.w3.org/2000/svg">
<path d="M10.4349 5.50686C10.7073 5.19478 11.1811 5.16258 11.4931 5.43494C11.8052 5.7073 11.8374 6.18108 11.5651 6.49316L8.07415 10.4932C7.9377 10.6495 7.74258 10.7423 7.5352 10.7496C7.32782 10.7568 7.12671 10.6778 6.97971 10.5313L4.47062 8.0313C4.1772 7.73894 4.17634 7.26407 4.4687 6.97064C4.76106 6.67722 5.23593 6.67636 5.52936 6.96872L7.47086 8.90318L10.4349 5.50686Z" fill="black"/>
<path fill-rule="evenodd" clip-rule="evenodd" d="M0.25 8C0.25 3.71979 3.71979 0.25 8 0.25C12.2802 0.25 15.75 3.71979 15.75 8C15.75 9.87099 15.087 11.5871 13.9831 12.9263C13.9993 12.9399 14.0151 12.9544 14.0303 12.9697L18.0303 16.9697C18.3232 17.2626 18.3232 17.7374 18.0303 18.0303C17.7374 18.3232 17.2626 18.3232 16.9697 18.0303L12.9697 14.0303C12.9544 14.0151 12.9399 13.9993 12.9263 13.9831C11.5871 15.087 9.87099 15.75 8 15.75C3.71979 15.75 0.25 12.2802 0.25 8ZM8 1.75C4.54822 1.75 1.75 4.54822 1.75 8C1.75 11.4518 4.54822 14.25 8 14.25C11.4518 14.25 14.25 11.4518 14.25 8C14.25 4.54822 11.4518 1.75 8 1.75Z" fill="black"/>
</svg>
