<?xml version="1.0" encoding="utf-8"?>
<!-- Generator: Adobe Illustrator 26.4.1, SVG Export Plug-In . SVG Version: 6.00 Build 0)  -->
<svg version="1.1" id="Layer_1" xmlns="http://www.w3.org/2000/svg" xmlns:xlink="http://www.w3.org/1999/xlink" x="0px" y="0px"
	 viewBox="0 0 265.7 300" style="enable-background:new 0 0 265.7 300;" xml:space="preserve">
<style type="text/css">
	.st0{fill:#FFFFFF;}
</style>
<path class="st0" d="M259.5,70.4l0.1-0.2l-118-67.8L139,0.8L138.8,1c-3.8-1.4-8.1-1.4-12,0l-0.1-0.2L8.8,68.6
	C3.4,71.7,0,77.5,0,83.7v132.6c0,6.2,3.4,12,8.8,15.1l115.3,66.3c2.7,1.5,5.7,2.3,8.8,2.3c3.1,0,6.1-0.8,8.8-2.3l113.5-65.2l4.5-2.6
	l-0.1-0.2c3.9-3.3,6.2-8.2,6.2-13.3V83.7C265.7,78.6,263.4,73.7,259.5,70.4z M99.1,217.9l-8.6-0.5l3.3-6.8L99.1,217.9z M95.7,206.5
	l2.9-8.4l1.8,14.7L95.7,206.5z M92.4,203.9l-5.4-3.2l8.7-6.2L92.4,203.9z M90.9,207.6l-5,10.4l-14.7,12.3l13-26.7L90.9,207.6z
	 M86.1,222.9l5.5,35l-23.2-20.2L86.1,222.9z M89.8,221.3l11,0.6l-6.1,29.9L89.8,221.3z M104.4,223.9l36.1,31.7l-43.6,5.1
	L104.4,223.9z M113.3,162.3l10.4,2.2l-10.4,8.6l-0.3-10.5l0.6,0.5L113.3,162.3z M113.1,179l57.7-8.7L106,215.7L113.1,179z
	 M108.3,183.2l-4.7,24.1l-2-17.4L108.3,183.2z M104.7,181.2l4.6-11.6l0.2,6.9L104.7,181.2z M141.1,259.4l-8.4,12.7l-28.5-8.4
	L141.1,259.4z M106.3,220.3l68.4-47.9l-30.4,81.2L106.3,220.3z M173.1,166l-54.9,8.3l11.1-9.2l20.5-13.1L173.1,166z M163.8,155.8
	l19.4,5.7l-4.5,3.3L163.8,155.8z M124.9,120.1l7.4-8.8l8.3,8.8H124.9z M143.5,124l3.4,20.2L125.6,124H143.5z M143.9,146.9l-1.8-0.5
	l3.5,2.1l1,1l-17.1,10.9l-5.8-32.6L143.9,146.9z M125.6,160.9l-12.2-2.6l6.9-27L125.6,160.9z M119.2,119.1l-0.1-0.1l0.1,0.4l0,0
	L96,111.9l25.9-9L119.2,119.1z M118.3,123.3l-7.8,30.5l-17.1-38.6L118.3,123.3z M98.8,185.6l-29.3-31.6l38.8,7.2L98.8,185.6z
	 M83.6,198.2c-2.9-3.1-9.5-10.2-15.4-16.4c-1.5-1.6-2.8-3-4-4.3l31.3,12.3L83.6,198.2z M65.3,184.5c6.3,6.6,12.9,13.7,15.7,16.7
	L66.4,231l-7.5-53.2C60.6,179.5,62.7,181.7,65.3,184.5z M86.2,258.4l-18.4-5.6l-9.7-3.2l7.5-9.1L86.2,258.4z M62.2,255.1l4,1.3
	l5,3.9l10,5.7L61,254.4L62.2,255.1z M77,259.7l16.2,4.9l0.5,0.6l1.1,1.4l9.8,12.7l8.9,5.1l-13.7-17.9l30.5,9l-10.4,12.6L97,275.1
	L77,259.7z M135.1,275.7l10.2-15.5l11.9,13.1l-10.1,5.6l-22.6,9.7L135.1,275.7z M152.3,262c4.5,1.8,9.5,3.8,14.6,5.8l-6.1,3.5
	L152.3,262z M148.6,256.2l66.3-68.9l16.1,42.9l-59.7,35C163,262,155.2,258.9,148.6,256.2z M150.3,248.7l29.6-78.9l32.4,14.6
	L150.3,248.7z M182.7,166.8l4.8-3.5l15.4,12.6L182.7,166.8z M151.5,148.1l-4-24l23,1.6l13.6,31.9L151.5,148.1z M150.1,120.4
	l13.2-11.3l5.5,12.5L150.1,120.4z M145.3,119.3l-15.6-16.6l29.8,4.5L145.3,119.3z M126.7,98.3l4.1-23.3l27.7,28.1L126.7,98.3z
	 M129.6,108.4l-5.8,6.9l1.8-11L129.6,108.4z M123.5,93.6l-3.3-6.8l5.8-7.9L123.5,93.6z M120.4,96.2l-17.9-7.1l14.2-0.5L120.4,96.2z
	 M118,83.2L109.9,71l15.9,1.6L118,83.2z M114.3,84.7l-17.5,0.6l9.1-13.2L114.3,84.7z M118.7,99.8L92.2,109l2.5-18.7L118.7,99.8z
	 M106.1,153.6l-35-26.8l17.9-11.9L106.1,153.6z M103.3,156.4l-37.1-6.9l2.9-19.2L103.3,156.4z M92.1,184.3l-33.5-13.2l6.1-16.4
	L92.1,184.3z M63,234.9L6.4,219c0.1,0.4,0.3,0.9,0.4,1.3c-0.4-1-0.6-2.1-0.7-3.2c0,0.3,0.1,0.5,0.1,0.8l48.5-41.9L63,234.9z
	 M8.2,222.8c0.3,0.4,0.5,0.7,0.8,1.1l52.9,14.8l-8.2,9.9l-2.3,0.2l-39.7-22.8C10.3,225.3,9.1,224.1,8.2,222.8z M6.1,216.3
	c0,0.3,0,0.6,0,0.8C6.1,216.9,6.1,216.6,6.1,216.3z M6.9,220.4c0.2,0.4,0.4,0.8,0.6,1.2C7.2,221.2,7,220.8,6.9,220.4z M7.5,221.6
	c0.2,0.4,0.4,0.8,0.7,1.1C7.9,222.4,7.7,222,7.5,221.6z M259.6,216.3c0,4-2.2,7.8-5.7,9.8l-115.3,66.3c-3.5,2-7.9,2-11.4,0l-5.4-3.1
	l4.7,2.7l22.3-9.6l12.6-7l11-6.4l62.1-36.3l25.2-23.7V216.3z M259.6,203.8l-25.4,23.9L219,187l40.6,14.1V203.8z M259.6,196.9
	l-43-14.9l-27.5-22.5l-15.5-36.4l-6.8-15.7l0.2,0l-0.4-0.4l-0.6-1.5l0.5-0.4l-0.7-0.1l-0.1-0.3l-34.3-34.7l0-0.1l-0.1,0l-1.8-1.1
	l-0.8-0.1L105,66.6l-0.6,0.8l-0.3,0.4L91.3,86.5L91,87.9l-3,22.3l-0.2-0.1l0.2,0.4l0,0.3l-21,14l-0.1-0.1l0,0.1l-1,0.7l-3.6,24.1
	l-0.1,0.9l-7,18.9l-0.4,1l-0.7,1L6.1,212.9V83.7c0-4,2.2-7.8,5.7-9.8L125.2,8.7l1.9-1.1c3.5-2,7.9-2,11.4,0l115.4,66.3
	c3.5,2,5.7,5.8,5.7,9.8V196.9z"/>
</svg>
