<svg width="16" height="20" viewBox="0 0 16 20" fill="none" xmlns="http://www.w3.org/2000/svg">
<path d="M9 3.5C8.72386 3.5 8.5 3.72386 8.5 4C8.5 4.27614 8.72386 4.5 9 4.5H12C12.2761 4.5 12.5 4.27614 12.5 4C12.5 3.72386 12.2761 3.5 12 3.5H9Z" fill="black"/>
<path d="M7.32876 4.62329C7.12071 4.44172 6.80485 4.46319 6.62328 4.67124L5.22906 6.26879L4.3529 5.39581C4.15729 5.20091 3.84071 5.20148 3.6458 5.3971C3.45089 5.59271 3.45147 5.90929 3.64708 6.1042L4.90163 7.3542C4.99963 7.45184 5.1337 7.50452 5.27195 7.4997C5.41021 7.49489 5.54029 7.433 5.63125 7.32877L7.37671 5.32877C7.55828 5.12072 7.53681 4.80487 7.32876 4.62329Z" fill="black"/>
<path d="M7.32876 12.6233C7.12071 12.4417 6.80485 12.4632 6.62328 12.6712L5.22906 14.2688L4.3529 13.3958C4.15729 13.2009 3.84071 13.2015 3.6458 13.3971C3.45089 13.5927 3.45147 13.9093 3.64708 14.1042L4.90163 15.3542C4.99963 15.4518 5.1337 15.5045 5.27195 15.4997C5.41021 15.4949 5.54029 15.433 5.63125 15.3288L7.37671 13.3288C7.55828 13.1207 7.53681 12.8049 7.32876 12.6233Z" fill="black"/>
<path d="M8.5 12C8.5 11.7239 8.72386 11.5 9 11.5H12C12.2761 11.5 12.5 11.7239 12.5 12C12.5 12.2761 12.2761 12.5 12 12.5H9C8.72386 12.5 8.5 12.2761 8.5 12Z" fill="black"/>
<path d="M9 5.5C8.72386 5.5 8.5 5.72386 8.5 6C8.5 6.27614 8.72386 6.5 9 6.5H12C12.2761 6.5 12.5 6.27614 12.5 6C12.5 5.72386 12.2761 5.5 12 5.5H9Z" fill="black"/>
<path d="M8.5 14C8.5 13.7239 8.72386 13.5 9 13.5H12C12.2761 13.5 12.5 13.7239 12.5 14C12.5 14.2761 12.2761 14.5 12 14.5H9C8.72386 14.5 8.5 14.2761 8.5 14Z" fill="black"/>
<path d="M9 7.5C8.72386 7.5 8.5 7.72386 8.5 8C8.5 8.27614 8.72386 8.5 9 8.5H12C12.2761 8.5 12.5 8.27614 12.5 8C12.5 7.72386 12.2761 7.5 12 7.5H9Z" fill="black"/>
<path d="M8.5 16C8.5 15.7239 8.72386 15.5 9 15.5H12C12.2761 15.5 12.5 15.7239 12.5 16C12.5 16.2761 12.2761 16.5 12 16.5H9C8.72386 16.5 8.5 16.2761 8.5 16Z" fill="black"/>
<path fill-rule="evenodd" clip-rule="evenodd" d="M13 0.5H3C1.61929 0.5 0.5 1.61929 0.5 3V17C0.5 18.3807 1.61929 19.5 3 19.5H13C14.3807 19.5 15.5 18.3807 15.5 17V3C15.5 1.61929 14.3807 0.5 13 0.5ZM2 3C2 2.44772 2.44772 2 3 2H13C13.5523 2 14 2.44772 14 3V17C14 17.5523 13.5523 18 13 18H3C2.44772 18 2 17.5523 2 17V3Z" fill="black"/>
</svg>
