<svg width="32" height="37" viewBox="0 0 32 37" fill="none" xmlns="http://www.w3.org/2000/svg">
<path d="M15.9999 0C16.4956 0 16.9913 0.129855 17.4365 0.389728L21.8182 2.98396L18.9091 4.70634L16.7259 3.41381C16.2768 3.14781 15.7233 3.14781 15.274 3.41381L6.54562 8.5815C6.22226 8.7729 6.22226 9.25144 6.54562 9.44294L18.9091 16.7629V31.4028C18.9091 31.7856 19.3132 32.0249 19.6366 31.8335L28.3637 26.6664C28.8137 26.4 29.0909 25.9076 29.0909 25.3747V22.7912L32 21.0688V26.2359C32 27.2985 31.4489 28.2807 30.5534 28.8147L17.4502 36.5727C17.0015 36.8383 16.5008 36.9711 16 36.9711L15.9999 18.4853L0.389782 9.24287C0.637998 8.80201 0.996171 8.42622 1.43903 8.16033L14.5669 0.388047L14.6447 0.344021C15.0687 0.114674 15.5344 0 15.9999 0ZM0 10.7346L2.90908 12.457V25.3747C2.90908 25.8844 3.16272 26.3571 3.57864 26.6304L3.63632 26.6664L14.5455 33.1254V36.5701L1.45449 28.8194L1.45004 28.8168C0.554826 28.2867 0.00249409 27.3081 0 26.2483V10.7346ZM23.2728 3.84512L30.5525 8.1555L30.6239 8.19931C31.4757 8.74064 31.9975 9.6956 32 10.7273V19.3465L29.0909 21.0688V12.457C29.0909 11.4225 28.5686 10.4643 27.7149 9.92153L27.6363 9.87333L20.3636 5.56751L23.2728 3.84512Z" fill="white"/>
</svg>
