<svg width="19" height="19" viewBox="0 0 19 19" fill="none" xmlns="http://www.w3.org/2000/svg">
<path fill-rule="evenodd" clip-rule="evenodd" d="M6.28688 3.67862C6.10938 3.46708 5.794 3.43949 5.58247 3.61699C5.37093 3.79449 5.34334 4.10987 5.52084 4.32141L6.07186 4.97808C6.12981 5.04714 6.20245 5.0966 6.28138 5.12571C6.03639 5.40179 5.86837 5.73446 5.79285 6.09118C5.3469 6.21094 5.00342 6.58093 4.92217 7.04138H4.00237C3.73355 7.04138 3.51562 7.27102 3.51562 7.55429C3.51562 7.83756 3.73355 8.0672 4.00237 8.0672H4.90385V8.96715C4.90385 8.98172 4.90396 8.99627 4.90416 9.0108H4.00237C3.73355 9.0108 3.51562 9.24044 3.51562 9.52371C3.51562 9.80698 3.73355 10.0366 4.00237 10.0366H5.06965C5.07992 10.0366 5.09011 10.0363 5.10022 10.0356C5.21066 10.3245 5.36457 10.5919 5.55395 10.8297C5.54971 10.8344 5.54555 10.8392 5.54146 10.844L4.99044 11.5007C4.81294 11.7123 4.84053 12.0276 5.05207 12.2051C5.26361 12.3826 5.57899 12.355 5.75649 12.1435L6.2983 11.4978C6.76071 11.7905 7.30885 11.9599 7.89657 11.9599C8.54627 11.9599 9.14762 11.7528 9.63824 11.4011C9.65428 11.4311 9.67364 11.4599 9.69636 11.487L10.2474 12.1436C10.4249 12.3552 10.7403 12.3828 10.9518 12.2053C11.1633 12.0278 11.1909 11.7124 11.0134 11.5009L10.4624 10.8442C10.4208 10.7946 10.3717 10.7552 10.3181 10.7261C10.4829 10.4996 10.6166 10.2492 10.7132 9.981C10.7793 10.0164 10.8541 10.0363 10.9334 10.0363H12.0006C12.2695 10.0363 12.4874 9.80671 12.4874 9.52344C12.4874 9.24016 12.2695 9.01053 12.0006 9.01053H10.9334C10.9184 9.01053 10.9036 9.01124 10.8889 9.01263C10.8892 8.9975 10.8893 8.98234 10.8893 8.96715V8.06552C10.9038 8.0669 10.9185 8.0676 10.9334 8.0676H12.0006C12.2695 8.0676 12.4874 7.83796 12.4874 7.55469C12.4874 7.27141 12.2695 7.04178 12.0006 7.04178H10.9334C10.9125 7.04178 10.8919 7.04316 10.8717 7.04585C10.7965 6.60963 10.486 6.25394 10.0756 6.1141C10.0019 5.7456 9.82969 5.40189 9.57595 5.11852C9.64776 5.08875 9.71367 5.04175 9.76709 4.97808L10.3181 4.32141C10.4956 4.10987 10.468 3.79449 10.2565 3.61699C10.0449 3.43949 9.72957 3.46708 9.55207 3.67862L9.00105 4.33529C8.93449 4.41461 8.89677 4.50853 8.88677 4.60431C8.59134 4.46407 8.26507 4.38965 7.93187 4.38965C7.58973 4.38965 7.25489 4.46812 6.95325 4.61575C6.94514 4.51603 6.90711 4.41777 6.8379 4.33529L6.28688 3.67862ZM7.93187 5.38965C7.61295 5.38965 7.31004 5.51268 7.08904 5.72705C6.99839 5.81499 6.92456 5.91524 6.86905 6.02337L8.99469 6.02337C8.93918 5.91524 8.86535 5.81499 8.7747 5.72705C8.5537 5.51268 8.25079 5.38965 7.93187 5.38965ZM6.10524 7.05016C5.99402 7.05016 5.90385 7.14033 5.90385 7.25155V8.96715C5.90385 10.0677 6.79602 10.9599 7.89657 10.9599C8.99712 10.9599 9.88929 10.0677 9.88929 8.96715V7.25155C9.88929 7.14033 9.79912 7.05016 9.6879 7.05016H6.10524Z" fill="black"/>
<path fill-rule="evenodd" clip-rule="evenodd" d="M0.25 8C0.25 3.71979 3.71979 0.25 8 0.25C12.2802 0.25 15.75 3.71979 15.75 8C15.75 9.87099 15.087 11.5871 13.9831 12.9263C13.9993 12.9399 14.0151 12.9544 14.0303 12.9697L18.0303 16.9697C18.3232 17.2626 18.3232 17.7374 18.0303 18.0303C17.7374 18.3232 17.2626 18.3232 16.9697 18.0303L12.9697 14.0303C12.9544 14.0151 12.9399 13.9993 12.9263 13.9831C11.5871 15.087 9.87099 15.75 8 15.75C3.71979 15.75 0.25 12.2802 0.25 8ZM8 1.75C4.54822 1.75 1.75 4.54822 1.75 8C1.75 11.4518 4.54822 14.25 8 14.25C11.4518 14.25 14.25 11.4518 14.25 8C14.25 4.54822 11.4518 1.75 8 1.75Z" fill="black"/>
</svg>
