<svg width="30" height="32" viewBox="0 0 30 32" fill="none" xmlns="http://www.w3.org/2000/svg">
<path fill-rule="evenodd" clip-rule="evenodd" d="M19.5571 2.13334C19.5571 3.12738 18.8833 3.96264 17.9714 4.19946V5.40054C18.8833 5.63736 19.5571 6.47262 19.5571 7.46666C19.5571 7.90958 19.4234 8.32096 19.1944 8.66192L21.8998 11.1642C22.267 10.8537 22.7404 10.6667 23.2572 10.6667C23.454 10.6667 23.6448 10.6938 23.8256 10.7447L25.7232 8.11202C25.501 7.77432 25.3714 7.36908 25.3714 6.93334C25.3714 5.75512 26.318 4.8 27.4858 4.8C28.6534 4.8 29.6 5.75512 29.6 6.93334C29.6 8.11154 28.6534 9.06666 27.4858 9.06666C27.1354 9.06666 26.8048 8.98068 26.514 8.82846L24.7442 11.2836C25.1316 11.6703 25.3714 12.2069 25.3714 12.8C25.3714 13.9782 24.4248 14.9333 23.2572 14.9333C23.2278 14.9333 23.1988 14.9327 23.1698 14.9315L22.0518 17.4135C22.4666 17.6267 22.8288 17.9294 23.1134 18.2963L24.8834 17.4844C24.8568 17.3493 24.8428 17.2096 24.8428 17.0667C24.8428 15.8885 25.7894 14.9333 26.9572 14.9333C28.1248 14.9333 29.0714 15.8885 29.0714 17.0667C29.0714 18.2449 28.1248 19.2 26.9572 19.2C26.3102 19.2 25.7312 18.9069 25.3434 18.4451L23.6178 19.2366C23.7266 19.5598 23.7858 19.9063 23.7858 20.2666C23.7858 20.9298 23.5858 21.5456 23.2436 22.0566L24.5418 24.0214C24.6402 24.0074 24.7406 24 24.8428 24C26.0106 24 26.9572 24.9552 26.9572 26.1334C26.9572 27.3116 26.0106 28.2666 24.8428 28.2666C23.6752 28.2666 22.7286 27.3116 22.7286 26.1334C22.7286 25.446 23.0506 24.8346 23.5508 24.4446L22.4936 22.8446C21.9678 23.2356 21.3178 23.4666 20.6142 23.4666C19.6268 23.4666 18.7448 23.0114 18.1632 22.2974L17.3239 22.7594C17.4009 22.9806 17.4429 23.2188 17.4429 23.4666C17.4429 24.6448 16.4963 25.6 15.3286 25.6C14.1609 25.6 13.2143 24.6448 13.2143 23.4666C13.2143 22.2884 14.1609 21.3334 15.3286 21.3334C15.8668 21.3334 16.358 21.5362 16.7313 21.8704L17.6371 21.3718C17.5115 21.0274 17.4429 20.6552 17.4429 20.2666C17.4429 19.8927 17.5064 19.5336 17.6233 19.2H16.49C15.9417 20.1564 14.9167 20.8 13.7429 20.8C13.1205 20.8 12.5399 20.619 12.0501 20.3066L11.0268 21.0574C11.4054 21.5846 11.6286 22.2326 11.6286 22.9334C11.6286 23.681 11.3744 24.369 10.9484 24.9138L12.8726 26.8552C13.138 26.734 13.4326 26.6666 13.7429 26.6666C14.9105 26.6666 15.8571 27.6218 15.8571 28.8C15.8571 29.9782 14.9105 30.9334 13.7429 30.9334C12.5752 30.9334 11.6286 29.9782 11.6286 28.8C11.6286 28.3236 11.7833 27.8836 12.0449 27.5286L10.1641 25.6308C9.8125 25.8578 9.41364 26.0166 8.98572 26.089V28.0188C9.61768 28.3876 10.0429 29.077 10.0429 29.8666C10.0429 31.0448 9.09626 32 7.92858 32C6.76088 32 5.81428 31.0448 5.81428 29.8666C5.81428 28.6884 6.76088 27.7334 7.92858 27.7334V26.089C6.95334 25.924 6.12904 25.3098 5.67166 24.4646L4.19338 25.2104C4.2165 25.3366 4.22858 25.467 4.22858 25.6C4.22858 26.7782 3.28198 27.7334 2.11428 27.7334C0.946598 27.7334 0 26.7782 0 25.6C0 24.4218 0.946598 23.4666 2.11428 23.4666C2.7713 23.4666 3.35832 23.769 3.7461 24.2434L5.32624 23.4462C5.29958 23.2792 5.28572 23.108 5.28572 22.9334C5.28572 22.2992 5.46848 21.7082 5.78378 21.211L4.43148 19.8466C4.0796 20.1106 3.64358 20.2666 3.17142 20.2666C2.00374 20.2666 1.05714 19.3115 1.05714 18.1333C1.05714 16.9551 2.00374 16 3.17142 16C4.33912 16 5.28572 16.9551 5.28572 18.1333C5.28572 18.4464 5.2189 18.7437 5.09886 19.0115L6.49442 20.4196C7.03434 19.9898 7.71606 19.7333 8.45714 19.7333C9.12714 19.7333 9.74862 19.943 10.2607 20.3008L11.2482 19.5761C10.8243 19.032 10.5714 18.3458 10.5714 17.6C10.5714 16.4154 11.2093 15.3812 12.1574 14.8279L11.7897 13.6221C11.4146 13.7797 11.0031 13.8667 10.5714 13.8667C9.17996 13.8667 7.9978 12.9625 7.57056 11.7047L6.31442 11.9159C6.33312 12.03 6.34286 12.1472 6.34286 12.2667C6.34286 13.4449 5.39626 14.4 4.22858 14.4C3.06088 14.4 2.11428 13.4449 2.11428 12.2667C2.11428 11.0885 3.06088 10.1333 4.22858 10.1333C4.8859 10.1333 5.47318 10.436 5.86096 10.9108L7.40004 10.6519C7.40622 9.26452 8.2875 8.08564 9.51564 7.64828V6.4H9.51428C8.3466 6.4 7.4 5.44488 7.4 4.26666C7.4 3.08846 8.3466 2.13334 9.51428 2.13334C10.682 2.13334 11.6286 3.08846 11.6286 4.26666C11.6286 5.05574 11.204 5.74476 10.5728 6.11382V7.46666C11.6328 7.46712 12.5712 7.99226 13.1467 8.7987L15.3523 7.78714C15.3367 7.6826 15.3286 7.5756 15.3286 7.46666C15.3286 6.47262 16.0024 5.63736 16.9143 5.40054V4.19946C16.0024 3.96264 15.3286 3.12738 15.3286 2.13334C15.3286 0.955126 16.2752 0 17.4429 0C18.6105 0 19.5571 0.955126 19.5571 2.13334ZM13.7429 14.4C13.5402 14.4 13.342 14.4192 13.15 14.4558L12.714 13.026C13.3464 12.441 13.7429 11.6006 13.7429 10.6667C13.7429 10.3505 13.6974 10.0451 13.6128 9.75664L15.7676 8.76834C16.1542 9.27416 16.7608 9.6 17.4429 9.6C17.786 9.6 18.1101 9.5175 18.3967 9.3711L21.2812 12.0391C21.1918 12.2755 21.1428 12.532 21.1428 12.8C21.1428 13.5686 21.5456 14.2423 22.15 14.6178L21.0342 17.0945C20.8968 17.0761 20.7566 17.0667 20.6142 17.0667C19.675 17.0667 18.8311 17.4787 18.2504 18.1333H16.8704C16.8993 17.9599 16.9143 17.7817 16.9143 17.6C16.9143 15.8327 15.4944 14.4 13.7429 14.4Z" fill="white"/>
</svg>
