<svg width="134" height="134" viewBox="0 0 134 134" fill="none" xmlns="http://www.w3.org/2000/svg">
<path fill-rule="evenodd" clip-rule="evenodd" d="M60.4251 10.3673C46.6021 -3.45577 24.1904 -3.45577 10.3673 10.3673C6.64286 14.0918 3.92191 18.4397 2.20447 23.0752C0.778043 26.9166 0 31.0694 0 35.3962V98.6038C0 99.8256 0.061904 101.033 0.182747 102.223C1.99539 120.072 17.0692 134 35.3962 134C48.5515 134 60.0238 126.825 66.1247 116.183L73.6002 123.658C80.0036 130.049 88.8423 134 98.6038 134C103.404 134 107.982 133.044 112.156 131.313C116.33 129.586 120.24 127.026 123.633 123.633C127.026 120.239 129.586 116.329 131.314 112.154C133.045 107.981 134 103.404 134 98.6038V35.3962C134 15.8474 118.153 0 98.6037 0C85.4484 0 73.9762 7.17532 67.8753 17.8174L60.4251 10.3673ZM62.965 102.296C63.1249 101.089 63.2075 99.8566 63.2075 98.6038C63.2075 84.204 52.2638 72.3603 38.2397 70.936C37.3048 70.8411 36.3562 70.7925 35.3962 70.7925C34.2134 70.7925 33.0488 70.8661 31.9065 71.0089C31.8805 71.0121 31.8544 71.0154 31.8284 71.0188C31.7868 71.0241 31.7453 71.0295 31.7038 71.035L62.965 102.296ZM17.8174 67.8753L10.3673 60.4251C10.1513 60.2092 9.93872 59.9911 9.72948 59.771C8.97018 58.9722 8.25532 58.1467 7.58491 57.2975V76.7063C10.3909 73.1478 13.8651 70.1411 17.8174 67.8753ZM7.58491 98.6038C7.58491 99.5637 7.63354 100.512 7.72849 101.447C9.15271 115.471 20.9964 126.415 35.3962 126.415C46.4674 126.415 56.0356 119.944 60.5106 110.568L23.4316 73.4894C14.0555 77.9644 7.58491 87.5326 7.58491 98.6038ZM71.035 31.7038L102.296 62.9646C101.607 63.0561 100.909 63.1223 100.205 63.1623C99.9839 63.1748 99.762 63.1848 99.5395 63.1921L99.4874 63.1938C99.194 63.2029 98.8995 63.2075 98.6038 63.2075C83.244 63.2075 70.7925 50.756 70.7925 35.3962C70.7925 34.1433 70.8751 32.9109 71.035 31.7038ZM98.6037 7.58491C113.964 7.58491 126.415 20.0365 126.415 35.3962C126.415 36.0885 126.39 36.7749 126.34 37.4545C126.159 39.9291 125.654 42.3139 124.868 44.5665C124.574 45.407 124.242 46.2291 123.872 47.0307C121.151 52.9301 116.425 57.7144 110.568 60.5099L73.4894 23.4316C77.9644 14.0555 87.5325 7.58491 98.6037 7.58491ZM116.183 66.1254L123.633 73.5749C124.632 74.5746 125.56 75.6194 126.415 76.7025V57.2943C123.61 60.8525 120.136 63.8593 116.183 66.1254Z" fill="white"/>
</svg>
