<svg width="20" height="21" viewBox="0 0 20 21" fill="none" xmlns="http://www.w3.org/2000/svg">
<path fill-rule="evenodd" clip-rule="evenodd" d="M2 4.85488C2 5.3868 2.40424 6.08332 3.53264 6.70473C4.62531 7.30646 6.20284 7.70975 8 7.70975C9.79716 7.70975 11.3747 7.30646 12.4674 6.70473C13.5958 6.08332 14 5.3868 14 4.85488C13.9998 4.32301 13.5955 3.62628 12.4674 3.00503C11.3747 2.4033 9.79716 2 8 2C6.20284 2 4.62531 2.4033 3.53264 3.00503C2.40451 3.62628 2.0002 4.32301 2 4.85488ZM7.99924 20.0375C9.30761 20.0375 10.5426 19.8866 11.6329 19.619C10.3095 19.1775 9.17075 18.3763 8.35341 17.3424C8.23662 17.3458 8.11879 17.3476 8 17.3476C6.20284 17.3476 4.62531 16.9443 3.53264 16.3426C2.40424 15.7212 2 15.0246 2 14.4927C2.00006 14.3341 2.03608 14.1604 2.11657 13.9788C3.41781 14.6569 5.22058 15.1095 7.24205 15.2007C7.08421 14.6586 7 14.0884 7 13.5C7 13.1573 7.02855 12.8209 7.08357 12.4926C5.66874 12.3818 4.43526 12.0201 3.53264 11.5231C2.40424 10.9017 2 10.2047 2 9.67282C2.00006 9.51437 2.03598 9.34133 2.11622 9.16002C3.54592 9.90522 5.58116 10.3781 7.84676 10.3985C9.0327 8.37403 11.3435 7 14 7C14.649 7 15.2774 7.08202 15.8738 7.23549C15.9289 7.08708 15.9663 6.93572 15.9849 6.78193H16V4.85488C15.9998 3.25799 14.8371 2.02683 13.4321 1.25311C11.9913 0.459647 10.0688 0 8 0C5.93116 0 4.0087 0.459647 2.56787 1.25311C1.16288 2.02683 0.000186989 3.25761 0 4.85449V6.78193H0.0136168C0.061509 7.17852 0.234556 7.55897 0.514063 7.9143C0.191993 8.43615 7.59611e-05 9.0245 0 9.67321V11.6003H0.0135882C0.0614544 11.997 0.234603 12.3777 0.51431 12.7332C0.192092 13.2551 7.59804e-05 13.8435 0 14.4923V16.4198H0.0135589C0.256686 18.4374 3.73904 20.0375 7.99924 20.0375ZM18 13.5361C18 15.3089 16.3765 17.0361 14 17.0361C11.6235 17.0361 10 15.3089 10 13.5361C10 11.7634 11.6235 10.0361 14 10.0361C16.3765 10.0361 18 11.7634 18 13.5361ZM20 13.5361C20 16.5737 17.3137 19.0361 14 19.0361C10.6863 19.0361 8 16.5737 8 13.5361C8 10.4986 10.6863 8.03613 14 8.03613C17.3137 8.03613 20 10.4986 20 13.5361Z" fill="black"/>
</svg>
