<svg width="20" height="20" viewBox="0 0 20 20" fill="none" xmlns="http://www.w3.org/2000/svg">
<path fill-rule="evenodd" clip-rule="evenodd" d="M10.2312 1.80797L11.7991 2.62006C12.1392 2.79617 12.5058 2.91529 12.8844 2.97268L14.6302 3.23727C14.7907 3.2616 14.9295 3.36241 15.0023 3.5076L15.7934 5.08618C15.9649 5.42852 16.1915 5.74038 16.4641 6.00934L17.7209 7.24955C17.8365 7.36362 17.8895 7.52672 17.8631 7.68695L17.5752 9.42906C17.5128 9.80686 17.5128 10.1923 17.5752 10.5701L17.8631 12.3123C17.8895 12.4725 17.8365 12.6356 17.7209 12.7497L16.4641 13.9899C16.1915 14.2588 15.9649 14.5707 15.7934 14.913L15.0023 16.4916C14.9295 16.6368 14.7907 16.7376 14.6302 16.7619L12.8844 17.0265C12.5058 17.0839 12.1392 17.203 11.7991 17.3791L10.2312 18.1912C10.087 18.2659 9.91554 18.2659 9.77133 18.1912L8.20344 17.3791C7.86342 17.203 7.4968 17.0839 7.1182 17.0265L5.37241 16.7619C5.21184 16.7376 5.0731 16.6368 5.00033 16.4916L4.20921 14.913C4.03764 14.5707 3.81106 14.2588 3.5385 13.9899L2.28165 12.7497C2.16605 12.6356 2.11305 12.4725 2.13953 12.3123L2.42736 10.5701C2.48978 10.1923 2.48978 9.80686 2.42736 9.42906L2.13953 7.68695C2.11305 7.52672 2.16605 7.36362 2.28165 7.24955L3.5385 6.00934C3.81106 5.74038 4.03764 5.42852 4.20921 5.08618L5.00033 3.5076C5.0731 3.36241 5.21184 3.2616 5.37241 3.23727L7.1182 2.97268C7.4968 2.91529 7.86342 2.79617 8.20344 2.62006L9.77133 1.80797C9.91554 1.73328 10.087 1.73328 10.2312 1.80797ZM9.08146 0.47603C9.65829 0.177261 10.3443 0.177261 10.9211 0.47603L12.489 1.28812C12.6833 1.38875 12.8928 1.45682 13.1092 1.48961L14.8549 1.75421C15.4972 1.85155 16.0522 2.25477 16.3433 2.83554L17.1344 4.41411C17.2324 4.60974 17.3619 4.78794 17.5177 4.94163L18.7745 6.18184C19.2369 6.63812 19.4489 7.29055 19.343 7.93147L19.0552 9.67358C19.0195 9.88947 19.0195 10.1097 19.0552 10.3256L19.343 12.0677C19.4489 12.7087 19.2369 13.3611 18.7745 13.8174L17.5177 15.0576C17.3619 15.2113 17.2324 15.3895 17.1344 15.5851L16.3433 17.1637C16.0522 17.7444 15.4972 18.1477 14.8549 18.245L13.1092 18.5096C12.8928 18.5424 12.6833 18.6105 12.489 18.7111L10.9211 19.5232C10.3443 19.8219 9.65829 19.8219 9.08146 19.5232L7.51356 18.7111C7.31926 18.6105 7.10977 18.5424 6.89343 18.5096L5.14764 18.245C4.50536 18.1477 3.95037 17.7444 3.65931 17.1637L2.86819 15.5851C2.77015 15.3895 2.64068 15.2113 2.48493 15.0576L1.22808 13.8174C0.765682 13.3611 0.553695 12.7087 0.65959 12.0677L0.947425 10.3256C0.983094 10.1097 0.983094 9.88947 0.947425 9.67358L0.65959 7.93147C0.553695 7.29055 0.765682 6.63812 1.22808 6.18184L2.48493 4.94163C2.64068 4.78794 2.77015 4.60974 2.86819 4.41411L3.65931 2.83554C3.95037 2.25477 4.50536 1.85155 5.14764 1.75421L6.89342 1.48961C7.10977 1.45682 7.31926 1.38875 7.51356 1.28812L9.08146 0.47603ZM10 15C11.6569 15 13 13.8426 13 12.415C13 11.6814 12.3521 10.3728 11.6481 8.95073C10.9819 7.60499 10.2654 6.15765 10 5C9.73476 6.1578 9.01808 7.60536 8.35174 8.95126C7.64779 10.3731 7 11.6815 7 12.415C7 13.8426 8.34315 15 10 15Z" fill="black"/>
</svg>
