<svg width="19" height="18" viewBox="0 0 19 18" fill="none" xmlns="http://www.w3.org/2000/svg">
<path fill-rule="evenodd" clip-rule="evenodd" d="M1 4C1 1.79086 2.79086 0 5 0C7.20914 0 9 1.79086 9 4C9 6.20914 7.20914 8 5 8C2.79086 8 1 6.20914 1 4ZM5 6.5C3.61929 6.5 2.5 5.38071 2.5 4C2.5 2.61929 3.61929 1.5 5 1.5C6.38071 1.5 7.5 2.61929 7.5 4C7.5 5.38071 6.38071 6.5 5 6.5Z" fill="black"/>
<path fill-rule="evenodd" clip-rule="evenodd" d="M11 14C11 11.7909 12.7909 10 15 10C17.2091 10 19 11.7909 19 14V17C19 17.5523 18.5523 18 18 18H12C11.4477 18 11 17.5523 11 17V14ZM17.5 14V16.5H12.5V14C12.5 12.6193 13.6193 11.5 15 11.5C16.3807 11.5 17.5 12.6193 17.5 14Z" fill="black"/>
<path fill-rule="evenodd" clip-rule="evenodd" d="M12 0C11.4477 0 11 0.447715 11 1V7C11 7.55228 11.4477 8 12 8H18C18.5523 8 19 7.55228 19 7V1C19 0.447715 18.5523 0 18 0H12ZM12.5 6.5H17.5V1.5H12.5V6.5Z" fill="black"/>
<path fill-rule="evenodd" clip-rule="evenodd" d="M4.13472 10.5C4.51962 9.83333 5.48187 9.83333 5.86678 10.5L9.33088 16.5C9.71578 17.1667 9.23465 18 8.46485 18H1.53665C0.766848 18 0.285723 17.1667 0.670623 16.5L4.13472 10.5ZM2.40267 16.5L5.00075 12L7.59882 16.5H2.40267Z" fill="black"/>
</svg>
