<svg width="20" height="20" viewBox="0 0 20 20" fill="none" xmlns="http://www.w3.org/2000/svg">
<path fill-rule="evenodd" clip-rule="evenodd" d="M6.1194 17.5625C4.78483 16.8776 3.64675 15.8472 2.8312 14.567C1.74377 12.8601 1.30107 10.8212 1.58274 8.81703C1.86441 6.81285 2.85196 4.97494 4.36775 3.63388C5.88354 2.29282 7.82811 1.53662 9.85167 1.5013C11.8752 1.46597 13.845 2.15385 15.4067 3.44119C16.9684 4.72853 18.0194 6.53086 18.3709 8.52399C18.7223 10.5171 18.3511 12.5702 17.3239 14.3141C16.5535 15.6219 15.4521 16.6914 14.1422 17.4224L12.7996 13.5231C13.2285 13.1823 13.5949 12.7634 13.8774 12.2839C14.4212 11.3607 14.6177 10.2738 14.4317 9.21858C14.2456 8.1634 13.6891 7.20922 12.8624 6.52769C12.0356 5.84616 10.9928 5.48199 9.92148 5.50069C8.85018 5.51939 7.82071 5.91973 7.01823 6.6297C6.21575 7.33967 5.69293 8.31269 5.54382 9.37372C5.3947 10.4348 5.62906 11.5142 6.20476 12.4178C6.50374 12.8871 6.88462 13.2931 7.32514 13.6187L6.1194 17.5625ZM6.13614 19.2234C6.64553 19.4368 7.2072 19.1349 7.36868 18.6067L8.83053 13.8252C8.99201 13.2971 8.67872 12.7494 8.23248 12.424C7.93211 12.205 7.67271 11.9303 7.46985 11.6119C7.08605 11.0095 6.9298 10.2898 7.02922 9.58248C7.12863 8.87512 7.47718 8.22645 8.01216 7.75313C8.54715 7.27982 9.23346 7.01293 9.94766 7.00046C10.6619 6.98799 11.3571 7.23077 11.9083 7.68513C12.4594 8.13948 12.8304 8.7756 12.9544 9.47906C13.0785 10.1825 12.9474 10.9071 12.5849 11.5226C12.3933 11.8479 12.1436 12.1315 11.8511 12.3608C11.4165 12.7016 11.1225 13.2599 11.3023 13.7821L12.9301 18.5097C13.1099 19.0319 13.6818 19.314 14.1834 19.0829C16.0278 18.2335 17.5777 16.8385 18.6163 15.0754C19.8248 13.0238 20.2616 10.6084 19.8481 8.26352C19.4346 5.91866 18.1981 3.79827 16.3608 2.28375C14.5235 0.769232 12.2062 -0.040031 9.82549 0.00152435C7.44483 0.0430797 5.15711 0.932726 3.37382 2.51045C1.59053 4.08816 0.428717 6.25041 0.0973415 8.60827C-0.234034 10.9661 0.286781 13.3649 1.56611 15.373C2.66559 17.0988 4.26329 18.4388 6.13614 19.2234Z" fill="black"/>
</svg>
