<svg width="90" height="39" viewBox="0 0 744 324" fill="none" xmlns="http://www.w3.org/2000/svg">
    <path fill-rule="evenodd" clip-rule="evenodd" d="M110 108C108.895 108 108 108.895 108 110V170C108 171.105 108.895 172 110 172H266C267.105 172 268 171.105 268 170V110C268 108.895 267.105 108 266 108H110ZM247 152C247.552 152 248 151.552 248 151V129C248 128.448 247.552 128 247 128H129C128.448 128 128 128.448 128 129V151C128 151.552 128.448 152 129 152H247Z" fill="white"/>
    <path d="M128 198C128 196.895 127.105 196 126 196H110C108.895 196 108 196.895 108 198V214C108 215.105 108.895 216 110 216H126C127.105 216 128 215.105 128 214V198Z" fill="white"/>
    <path d="M496 198C496 196.895 495.105 196 494 196H478C476.895 196 476 196.895 476 198V214C476 215.105 476.895 216 478 216H494C495.105 216 496 215.105 496 214V198Z" fill="white"/>
    <path d="M292 198C292 196.895 292.895 196 294 196H450C451.105 196 452 196.895 452 198V214C452 215.105 451.105 216 450 216H294C292.895 216 292 215.105 292 214V198Z" fill="white"/>
    <path fill-rule="evenodd" clip-rule="evenodd" d="M476 110C476 108.895 476.895 108 478 108H634C635.105 108 636 108.895 636 110V170C636 171.105 635.105 172 634 172H478C476.895 172 476 171.105 476 170V110ZM615 128C615.552 128 616 128.448 616 129V151C616 151.552 615.552 152 615 152H497C496.448 152 496 151.552 496 151V129C496 128.448 496.448 128 497 128H615Z" fill="white"/>
    <path d="M294 108C292.895 108 292 108.895 292 110V126C292 127.105 292.895 128 294 128H431C431.552 128 432 128.448 432 129V151C432 151.552 431.552 152 431 152H294C292.895 152 292 152.895 292 154V170C292 171.105 292.895 172 294 172H450C451.105 172 452 171.105 452 170V110C452 108.895 451.105 108 450 108H294Z" fill="white"/>
</svg>