<svg width="18" height="19" viewBox="0 0 18 19" fill="none" xmlns="http://www.w3.org/2000/svg">
<path fill-rule="evenodd" clip-rule="evenodd" d="M0.0694302 8.3067C-0.0716927 8.54593 0.00921221 8.85433 0.249598 8.99347L5.00466 11.7459C5.15961 11.8356 5.35068 11.8356 5.50563 11.7459L7.61394 10.5255C8.23155 9.45362 9.17092 8.59052 10.3001 8.06814L5.6858 0.245957C5.49234 -0.0819853 5.01795 -0.0819856 4.82449 0.245956L0.0694302 8.3067ZM1.87368 8.2004L5.25514 10.1577L8.63661 8.2004L5.25514 2.46817L1.87368 8.2004Z" fill="black"/>
<path d="M13.9397 12.1878C14.1213 11.9798 14.4371 11.9583 14.6452 12.1399C14.8532 12.3215 14.8747 12.6373 14.6931 12.8454L12.9477 14.8454C12.8567 14.9496 12.7266 15.0115 12.5884 15.0163C12.4501 15.0211 12.316 14.9684 12.218 14.8708L10.9635 13.6208C10.7679 13.4259 10.7673 13.1093 10.9622 12.9137C11.1571 12.7181 11.4737 12.7175 11.6693 12.9124L12.5455 13.7854L13.9397 12.1878Z" fill="black"/>
<path fill-rule="evenodd" clip-rule="evenodd" d="M17.8164 13.5166C17.8164 16.278 15.5778 18.5166 12.8164 18.5166C10.055 18.5166 7.81641 16.278 7.81641 13.5166C7.81641 10.7552 10.055 8.5166 12.8164 8.5166C15.5778 8.5166 17.8164 10.7552 17.8164 13.5166ZM16.3164 13.5166C16.3164 15.4496 14.7494 17.0166 12.8164 17.0166C10.8834 17.0166 9.31641 15.4496 9.31641 13.5166C9.31641 11.5836 10.8834 10.0166 12.8164 10.0166C14.7494 10.0166 16.3164 11.5836 16.3164 13.5166Z" fill="black"/>
<path fill-rule="evenodd" clip-rule="evenodd" d="M7.03227 11.914L5.31956 12.9762C5.27921 13.0012 5.22816 13.0012 5.1878 12.9762L0.627269 10.1478C0.443012 10.0335 0.234061 10.2531 0.357321 10.4314L4.84234 16.9218C5.04113 17.2094 5.46624 17.2094 5.66502 16.9218L6.99842 14.9922C6.87911 14.5203 6.81573 14.026 6.81573 13.517C6.81573 12.9618 6.89114 12.4243 7.03227 11.914ZM5.25368 15.4062L4.07204 13.6962L4.55533 13.996C4.9831 14.2613 5.52426 14.2613 5.95204 13.996L6.43533 13.6962L5.25368 15.4062Z" fill="black"/>
</svg>
