<svg width="50" height="50" viewBox="0 0 50 50" fill="none" xmlns="http://www.w3.org/2000/svg">
<mask id="mask0_1413_8107" style="mask-type:alpha" maskUnits="userSpaceOnUse" x="0" y="0" width="50" height="50">
<path fill-rule="evenodd" clip-rule="evenodd" d="M50 25C50 38.8071 38.8071 50 25 50C11.1929 50 0 38.8071 0 25C0 11.1929 11.1929 0 25 0C38.8071 0 50 11.1929 50 25Z" fill="white"/>
</mask>
<g mask="url(#mask0_1413_8107)">
<path fill-rule="evenodd" clip-rule="evenodd" d="M18.0999 22.4093L21.4578 21.6735C21.4578 21.6735 24.2405 17.6757 29.3574 15.4367C32.7391 13.957 35.018 14.5087 35.018 14.5087C35.018 14.5087 35.4467 16.9204 33.8982 19.9774C31.4033 24.9025 27.7573 27.4613 27.7573 27.4613L27.0855 30.7552L24.1111 33.4098L22.9921 29.8602C22.9921 29.8602 22.3887 30.0328 21.8572 30.0132C21.3256 29.9935 20.6674 29.8186 20.6674 29.8186L19.4742 31.0757L18.2271 29.8286L19.4159 28.5169C19.4159 28.5169 19.1317 28.1016 19.0222 27.5719C18.9126 27.0422 19.0589 26.5666 19.0589 26.5666L15.4133 25.4157L18.0999 22.4093ZM28.4932 23.5916C27.6807 24.4041 26.3635 24.4043 25.5511 23.5919C25.4495 23.4903 25.3607 23.3809 25.2845 23.2656C24.7514 22.4581 24.8404 21.3607 25.5514 20.6497C26.3639 19.8372 27.6811 19.8371 28.4935 20.6495C29.3059 21.4619 29.3058 22.7791 28.4932 23.5916Z" fill="white"/>
<path d="M18.2804 31.9141C18.4699 31.7347 18.4948 31.4534 18.3362 31.2857C18.1775 31.1181 17.8952 31.1275 17.7057 31.3068L8.41622 40.0978C8.22674 40.2771 8.20178 40.5584 8.36048 40.7261C8.51917 40.8938 8.80142 40.8844 8.9909 40.7051L18.2804 31.9141Z" fill="white"/>
<path d="M15.0713 32.1175C15.2607 31.9382 15.2857 31.6569 15.127 31.4892C14.9683 31.3215 14.6861 31.3309 14.4966 31.5102L5.20706 40.3012C5.01758 40.4805 4.99263 40.7618 5.15132 40.9295C5.31001 41.0972 5.59226 41.0878 5.78174 40.9085L15.0713 32.1175Z" fill="white"/>
<path d="M17.9562 34.4788C18.1149 34.6465 18.0899 34.9278 17.9004 35.1071L8.61093 43.8981C8.42145 44.0774 8.1392 44.0869 7.98051 43.9192C7.82182 43.7515 7.84677 43.4702 8.03625 43.2909L17.3258 34.4999C17.5152 34.3205 17.7975 34.3111 17.9562 34.4788Z" fill="white"/>
<g filter="url(#filter0_d_1413_8107)">
<path fill-rule="evenodd" clip-rule="evenodd" d="M50 25C50 38.8071 38.8071 50 25 50C11.1929 50 0 38.8071 0 25C0 11.1929 11.1929 0 25 0C38.8071 0 50 11.1929 50 25ZM25 48C37.7025 48 48 37.7025 48 25C48 12.2975 37.7025 2 25 2C12.2975 2 2 12.2975 2 25C2 37.7025 12.2975 48 25 48Z" fill="white"/>
</g>
</g>
<defs>
<filter id="filter0_d_1413_8107" x="-6" y="-4" width="60" height="60" filterUnits="userSpaceOnUse" color-interpolation-filters="sRGB">
<feFlood flood-opacity="0" result="BackgroundImageFix"/>
<feColorMatrix in="SourceAlpha" type="matrix" values="0 0 0 0 0 0 0 0 0 0 0 0 0 0 0 0 0 0 127 0" result="hardAlpha"/>
<feOffset dx="-1" dy="1"/>
<feGaussianBlur stdDeviation="2.5"/>
<feComposite in2="hardAlpha" operator="out"/>
<feColorMatrix type="matrix" values="0 0 0 0 0 0 0 0 0 0 0 0 0 0 0 0 0 0 0.25 0"/>
<feBlend mode="normal" in2="BackgroundImageFix" result="effect1_dropShadow_1413_8107"/>
<feBlend mode="normal" in="SourceGraphic" in2="effect1_dropShadow_1413_8107" result="shape"/>
</filter>
</defs>
</svg>
