<svg width="20" height="20" viewBox="0 0 20 20" fill="none" xmlns="http://www.w3.org/2000/svg">
<path d="M13.3571 12.7143C13.5544 12.7143 13.7143 12.5544 13.7143 12.3571C13.7143 12.1599 13.5544 12 13.3571 12C13.1599 12 13 12.1599 13 12.3571C13 12.5544 13.1599 12.7143 13.3571 12.7143Z" fill="black"/>
<path fill-rule="evenodd" clip-rule="evenodd" d="M10.3265 10.6212C10.8558 9.94191 11.6721 9.5 12.593 9.5C14.2162 9.5 15.5 10.8612 15.5 12.5C15.5 14.1388 14.2162 15.5 12.593 15.5C11.6722 15.5 10.856 15.0582 10.3267 14.379C10.1266 14.1222 9.90698 14.0002 9.72229 14.0002H8.93127C8.66849 14.0002 8.42023 13.8931 8.23843 13.7085C7.95171 13.9049 7.57177 13.9021 7.2877 13.7001C7.00133 13.9038 6.61752 13.905 6.33 13.7036C6.03593 13.9345 5.6217 13.9547 5.30371 13.7346L5.04853 13.5579C4.31716 13.0514 4.31716 11.9489 5.04853 11.4425L5.35792 11.2283C5.57151 11.0804 5.82456 11.0002 6.08507 11.0002H9.72203C9.90674 11.0002 10.1264 10.8782 10.3265 10.6212ZM12.593 10.5C12.0017 10.5 11.4687 10.7824 11.1154 11.2358C10.8208 11.6139 10.3423 12.0002 9.72203 12.0002H6.08507C6.0306 12.0002 5.9757 12.0168 5.92721 12.0504L5.61781 12.2646C5.46073 12.3734 5.46073 12.6269 5.61782 12.7357L5.78144 12.849C6.07398 12.5965 6.49699 12.5803 6.80631 12.8003C7.09438 12.5954 7.48103 12.5954 7.76909 12.8003C8.09931 12.5654 8.55907 12.5998 8.85137 12.9034L8.94456 13.0002H9.72229C10.3425 13.0002 10.821 13.3864 11.1155 13.7644C11.4688 14.2177 12.0018 14.5 12.593 14.5C13.6285 14.5 14.5 13.6226 14.5 12.5C14.5 11.3774 13.6285 10.5 12.593 10.5Z" fill="black"/>
<path fill-rule="evenodd" clip-rule="evenodd" d="M8.70135 0.793431C9.44934 0.154794 10.5507 0.154794 11.2986 0.793431L19.2987 7.62384C19.7437 8.00382 20 8.55966 20 9.14486V17.9995C20 19.1041 19.1046 19.9995 18 19.9995H2C0.895432 19.9995 0 19.1041 0 17.9995V9.14486C0 8.55967 0.2563 8.00382 0.70135 7.62384L8.70135 0.793431ZM18 9.14486L10 2.31445L2 9.14486V17.9995H18V9.14486Z" fill="black"/>
</svg>
