<svg width="16" height="19" viewBox="0 0 16 19" fill="none" xmlns="http://www.w3.org/2000/svg">
<path fill-rule="evenodd" clip-rule="evenodd" d="M3.00887 8.68984C1.93599 7.81894 1.25037 6.48954 1.25037 5C1.25037 2.37665 3.37702 0.25 6.00037 0.25C8.62372 0.25 10.7504 2.37665 10.7504 5C10.7504 6.22405 10.2874 7.33996 9.52695 8.18216C8.46532 8.45012 7.51628 9.00104 6.76473 9.75L4.64169 9.75C3.83133 9.75 3.12697 10.3063 2.93927 11.0947L2.02322 14.9421C1.98582 15.0992 2.10494 15.25 2.26642 15.25H5.13039C5.24252 15.7791 5.42438 16.2825 5.66591 16.75H2.26642C1.13602 16.75 0.302187 15.6943 0.564011 14.5947L1.48006 10.7472C1.69203 9.85698 2.25879 9.12604 3.00887 8.68984ZM2.75037 5C2.75037 3.20507 4.20545 1.75 6.00037 1.75C7.7953 1.75 9.25037 3.20507 9.25037 5C9.25037 6.79433 7.79626 8.24904 6.00215 8.25H5.99859C4.20448 8.24904 2.75037 6.79433 2.75037 5Z" fill="black"/>
<path d="M8.5 13.25C8.08579 13.25 7.75 13.5858 7.75 14C7.75 14.4142 8.08579 14.75 8.5 14.75H13.5C13.9142 14.75 14.25 14.4142 14.25 14C14.25 13.5858 13.9142 13.25 13.5 13.25H8.5Z" fill="black"/>
<path fill-rule="evenodd" clip-rule="evenodd" d="M16 14C16 16.7614 13.7614 19 11 19C8.23858 19 6 16.7614 6 14C6 11.2386 8.23858 9 11 9C13.7614 9 16 11.2386 16 14ZM14.5 14C14.5 15.933 12.933 17.5 11 17.5C9.067 17.5 7.5 15.933 7.5 14C7.5 12.067 9.067 10.5 11 10.5C12.933 10.5 14.5 12.067 14.5 14Z" fill="black"/>
</svg>
