<svg width="24" height="24" viewBox="0 0 24 24" fill="none" xmlns="http://www.w3.org/2000/svg">
<circle cx="12" cy="12" r="12" fill="#006FFF"/>
<path d="M10 10.24C10 9.2644 10.6641 8.5 11.832 8.5C12.582 8.5 13.1367 8.70361 13.4727 8.97559C13.7695 9.21509 14 9.58691 14 10.24C14 10.8099 13.9102 11.0856 13.8477 11.2189C13.8203 11.2747 13.7891 11.3267 13.7422 11.3818C13.6914 11.4434 13.6211 11.5089 13.5234 11.5878L13.2734 11.7661C12.7969 12.0915 11.8906 12.7105 11.25 13.668C10.7188 14.4651 10.5586 15.3453 10.5039 15.9516C10.457 16.498 10.5 17.1785 10.5 17H13.5L13.4883 16.7396L13.4805 16.5764C13.4766 16.4844 13.4805 16.3732 13.4961 16.2084C13.5273 15.8447 13.6133 15.5349 13.75 15.332C14.0352 14.8996 14.2695 14.7401 14.6484 14.4807C14.8477 14.3443 15.0859 14.1803 15.3945 13.9345C15.8047 13.6085 16.2422 13.1691 16.5586 12.5056C16.8672 11.8572 17 11.1101 17 10.24C17 8.73309 16.3984 7.48492 15.3594 6.64441C14.3633 5.83636 13.0859 5.5 11.832 5.5C9 5.5 7 7.6156 7 10.24H10Z" fill="white"/>
<path d="M12 21C12.8281 21 13.5 20.3284 13.5 19.5C13.5 18.6716 12.8281 18 12 18C11.1719 18 10.5 18.6716 10.5 19.5C10.5 20.3284 11.1719 21 12 21Z" fill="white"/>
</svg>
