<svg version="1.1" xmlns="http://www.w3.org/2000/svg" width="150" height="29" viewBox="0 0 602 118"><path d="M0 0 C11.6066116 9.77398872 17.85208608 22.46590246 19.4375 37.5 C20.28043663 52.444564 16.74955729 68.17218198 7.625 80.25 C-1.61860683 90.52268024 -12.80007473 94.39594841 -26.375 95.25 C-37.55310933 95.47568629 -50.03699604 92.87427707 -58.9296875 85.6796875 C-70.14837266 74.58228542 -74.63368272 60.22859679 -74.75 44.8125 C-74.61563883 30.30402845 -71.25967211 15.28607324 -61.125 4.25 C-45.50559795 -9.61441305 -17.41099698 -12.09188785 0 0 Z M-46.375 14.25 C-55.64377829 23.86127356 -57.72143955 35.81895443 -57.5859375 48.71875 C-57.02716611 58.072997 -53.3656471 67.77690149 -46.265625 74.140625 C-38.8494605 79.40865909 -31.1121727 81.38409074 -22.03125 79.85546875 C-14.05779985 77.94823916 -8.33237804 73.67164082 -3.7734375 66.85546875 C1.99398168 56.14695653 3.57946167 43.03397263 0.9375 31.16015625 C-1.85910526 22.85190812 -6.06365942 14.55323963 -13.9765625 10.1875 C-25.37661888 5.73145191 -36.84679119 6.33332757 -46.375 14.25 Z " fill="#280451" transform="translate(80.375,20.75)" /><path d="M0 0 C1.48831242 0.00667405 2.97660807 0.01863442 4.46484375 0.03515625 C5.22345703 0.03966797 5.98207031 0.04417969 6.76367188 0.04882812 C8.64326246 0.06064945 10.52281274 0.07858547 12.40234375 0.09765625 C12.4270531 5.31208958 12.44520819 10.52648886 12.45727539 15.7409668 C12.46230575 17.51506138 12.46913074 19.28915181 12.4777832 21.06323242 C12.48990549 23.61247786 12.49558501 26.16166851 12.5 28.7109375 C12.50516129 29.50478348 12.51032257 30.29862946 12.51564026 31.11653137 C12.51597252 34.37421911 12.44007201 36.98447146 11.40234375 40.09765625 C26.58234375 40.09765625 41.76234375 40.09765625 57.40234375 40.09765625 C57.40234375 27.22765625 57.40234375 14.35765625 57.40234375 1.09765625 C63.01234375 1.09765625 68.62234375 1.09765625 74.40234375 1.09765625 C74.50275624 20.68088043 74.21113024 40.25827618 73.93878174 59.83898926 C73.87736514 64.27806137 73.81767066 68.71715665 73.7578125 73.15625 C73.64096701 81.80340855 73.52211523 90.45053773 73.40234375 99.09765625 C67.79234375 99.09765625 62.18234375 99.09765625 56.40234375 99.09765625 C56.37935904 93.63495687 56.35945406 88.17242604 56.34741211 82.7097168 C56.34239072 80.85228913 56.33557234 78.9948654 56.3269043 77.13745117 C56.31474258 74.46402004 56.30909342 71.79064129 56.3046875 69.1171875 C56.29952621 68.28991653 56.29436493 67.46264557 56.28904724 66.61030579 C56.28897171 65.82987411 56.28889618 65.04944244 56.28881836 64.24536133 C56.28659775 63.56363358 56.28437714 62.88190582 56.28208923 62.17951965 C56.40234375 60.09765625 56.40234375 60.09765625 57.40234375 55.09765625 C42.22234375 55.09765625 27.04234375 55.09765625 11.40234375 55.09765625 C11.44167865 66.1207532 11.44167865 66.1207532 11.49243164 77.14379883 C11.51655112 85.196568 11.31356376 93.08322518 10.40234375 101.09765625 C5.12234375 101.09765625 -0.15765625 101.09765625 -5.59765625 101.09765625 C-5.70644431 75.07220424 -5.66081906 49.05676673 -5.16015625 23.03515625 C-5.14050812 21.93214172 -5.12085999 20.8291272 -5.10061646 19.69268799 C-5.04407268 16.58664671 -4.98047672 13.48084409 -4.9140625 10.375 C-4.89734497 9.44508743 -4.88062744 8.51517487 -4.86340332 7.55708313 C-4.6873121 0.12723431 -4.6873121 0.12723431 0 0 Z " fill="#47007F" transform="translate(521.59765625,13.90234375)" /><path d="M0 0 C62.48514851 0 62.48514851 0 71 8 C78.13546404 16.51136069 79.89150169 25.0681432 79 36 C77.74942495 43.08246466 73.26562931 48.3144824 68 53 C57.06828108 60.39912165 44.59363971 59.13271868 31.9375 59.0625 C26.678125 59.041875 21.41875 59.02125 16 59 C16 72.2 16 85.4 16 99 C10.72 99 5.44 99 0 99 C0 66.33 0 33.66 0 0 Z M16 15 C16 24.57 16 34.14 16 44 C20.87521204 44.06906124 25.74871108 44.12873492 30.62402344 44.16479492 C32.28065763 44.17983465 33.93725231 44.20027177 35.59375 44.22631836 C37.9818703 44.26291515 40.36946188 44.27977439 42.7578125 44.29296875 C43.49242706 44.30845261 44.22704163 44.32393646 44.98391724 44.33988953 C50.99176794 44.34183354 55.00390996 42.94214166 59.3125 38.75 C61.79843463 34.69884727 62.42301095 31.40384105 61.59375 26.69140625 C60.41404888 22.41498968 59.48002454 20.40002045 56 17.5 C51.25909346 15.12954673 47.46319023 14.86553374 42.26953125 14.90234375 C41.14390022 14.90446617 41.14390022 14.90446617 39.99552917 14.90663147 C37.6011454 14.9122244 35.20685547 14.92477556 32.8125 14.9375 C31.18815239 14.94251592 29.56380332 14.94707866 27.93945312 14.95117188 C23.95957025 14.9613402 19.97989007 14.98091688 16 15 Z " fill="#1C1B1B" transform="translate(110,15)" /><path d="M0 0 C0.6084375 0.48339844 1.216875 0.96679688 1.84375 1.46484375 C2.2253125 1.97144531 2.606875 2.47804688 3 3 C2.35870506 7.5098446 -0.52756605 10.08245345 -3.5625 13.25 C-4.08263672 13.80429687 -4.60277344 14.35859375 -5.13867188 14.9296875 C-6.41930985 16.29256828 -7.7088049 17.64711683 -9 19 C-9.76183594 18.40251953 -9.76183594 18.40251953 -10.5390625 17.79296875 C-17.32381796 12.57099404 -23.20319329 8.8016823 -32 9 C-39.50316274 10.09348418 -45.15144354 13.16238103 -50 19 C-55.72492791 27.34362972 -56.06705757 36.26683937 -55 46 C-53.26967108 53.42398108 -49.46326528 59.82440128 -43.19921875 64.28125 C-37.04156002 67.97320813 -31.05202268 69.06719084 -23.984375 67.57421875 C-18.23802914 65.73041092 -14.27695653 62.1518328 -10 58 C-6.63951428 59.42857653 -4.72274139 61.16054598 -2.375 63.9375 C-1.78460938 64.62714844 -1.19421875 65.31679687 -0.5859375 66.02734375 C3.02338217 70.51676846 3.02338217 70.51676846 2.90625 72.9375 C0.08501718 79.35823677 -8.50303469 83.75979021 -14.78125 86.2578125 C-26.6409009 90.22494925 -38.23797876 89.95584925 -49.77734375 84.74609375 C-61.49347129 78.12079513 -69.60456029 67.81835054 -73.9375 55.0625 C-77.43453621 39.86468855 -76.10904136 23.39448829 -68.16796875 9.8828125 C-60.81675316 -0.81777351 -51.5070834 -8.57615886 -38.625 -11.375 C-23.90041563 -13.53184053 -11.4450916 -9.2030494 0 0 Z " fill="#050405" transform="translate(505,28)" /><path d="M0 0 C19.47 0 38.94 0 59 0 C58.67 4.95 58.34 9.9 58 15 C44.14 15 30.28 15 16 15 C16 23.91 16 32.82 16 42 C29.86 42 43.72 42 58 42 C58 46.95 58 51.9 58 57 C44.14 57 30.28 57 16 57 C16 66.24 16 75.48 16 85 C30.52 85 45.04 85 60 85 C60 89.62 60 94.24 60 99 C50.19237378 99.75443279 40.39309033 100.2137359 30.5625 100.5625 C29.37374268 100.60624756 28.18498535 100.64999512 26.96020508 100.69506836 C17.957654 101.00008355 9.02102365 101 0 101 C0 67.67 0 34.34 0 0 Z " fill="#040304" transform="translate(359,15)" /><path d="M0 0 C7.80575587 -0.02255497 15.61149407 -0.04091738 23.41727352 -0.05181217 C27.0414596 -0.05704002 30.6656223 -0.06413587 34.28979492 -0.07543945 C37.78459975 -0.08627184 41.27938204 -0.09227758 44.77420235 -0.09487724 C46.76239389 -0.09763551 48.75057631 -0.10544688 50.73875427 -0.11329651 C51.93992386 -0.11337204 53.14109344 -0.11344757 54.37866211 -0.11352539 C55.97417152 -0.11685631 55.97417152 -0.11685631 57.60191345 -0.12025452 C60 0 60 0 61 1 C61.07320163 3.5327765 61.09227569 6.03103918 61.0625 8.5625 C61.041875 11.016875 61.02125 13.47125 61 16 C53.41 16 45.82 16 38 16 C38 43.72 38 71.44 38 100 C32.72 100 27.44 100 22 100 C22 72.28 22 44.56 22 16 C14.74 16 7.48 16 0 16 C0 10.72 0 5.44 0 0 Z " fill="#1D1C1B" transform="translate(192,14)" /><path d="M0 0 C20.13 0 40.26 0 61 0 C61 4.95 61 9.9 61 15 C53.41 15 45.82 15 38 15 C38 42.72 38 70.44 38 99 C32.72 99 27.44 99 22 99 C22 71.28 22 43.56 22 15 C14.74 15 7.48 15 0 15 C0 10.05 0 5.1 0 0 Z " fill="#1C1C1A" transform="translate(289,15)" /><path d="M0 0 C10.67035998 8.9855663 17.43330361 20.82554904 19.02734375 34.76953125 C19.27699682 37.9261036 19.45681066 41.08804048 19.625 44.25 C14.015 43.92 8.405 43.59 2.625 43.25 C2.08875 40.836875 1.5525 38.42375 1 35.9375 C-1.17294797 27.00669295 -3.85110919 18.48150177 -11.4375 12.6875 C-18.22149977 8.74065359 -26.46659833 7.43900627 -34.1875 8.8125 C-41.98496166 11.09747045 -46.92119908 15.00447572 -51.12890625 21.9375 C-55.00552345 29.13172378 -56.18271048 36.17911707 -57.375 44.25 C-62.985 43.92 -68.595 43.59 -74.375 43.25 C-75.04854209 29.77915815 -70.68214564 16.90716384 -62.75 6.01953125 C-48.0690269 -9.96720148 -17.64699735 -12.25578943 0 0 Z " fill="#68053D" transform="translate(80.375,20.75)" /><path d="M0 0 C5.61 0 11.22 0 17 0 C17 32.67 17 65.34 17 99 C11.39 99 5.78 99 0 99 C0 66.33 0 33.66 0 0 Z " fill="#1D1B1C" transform="translate(263,16)" /></svg>