<svg width="100%" height="100%" viewBox="0 0 1322 212" fill="none" xmlns="http://www.w3.org/2000/svg">
<path d="M0 0V36H137V0H0M156 0V36H312V0H156M332 0V36H371V0H332M430 0V36H469V0H430M488 0V36H625V0H488M645 0V36H684V0H645M742 0V36H781V0H742M801 0V36H840V0H801M860 0V36H899V0H860M1016 0V36H1055V0H1016M1172 0V36H1309V0H1172M137 14V17H150V14H137M312 14V17H326V14H312M371 14V17H384V14H371M469 14V17H482V14H469M625 14V17H638V14H625M684 14V17H697V14H684M781 14V17H795V14H781M840 14V17H853V14H840M899 14V17H912V14H899M1055 14V17H1068V14H1055M1309 14V17H1322V14H1309M148 17V36H150V17H148M323 17V36H326V17H323M382 17V36H384V17H382M480 17V36H482V17H480M636 17V36H638V17H636M695 17V36H697V17H695M792 17V36H795V17H792M851 17V36H853V17H851M910 17V36H912V17H910M1066 17V36H1068V17H1066M1320 17V36H1322V17H1320M137 19V22H145V19H137M312 19V22H321V19H312M371 19V22H380V19H371M469 19V22H477V19H469M625 19V22H634V19H625M684 19V22H692V19H684M781 19V22H790V19H781M840 19V22H849V19H840M899 19V22H907V19H899M1055 19V22H1063V19H1055M1309 19V22H1317V19H1309M143 22V36H145V22H143M319 22V36H321V22H319M377 22V36H380V22H377M475 22V36H477V22H475M631 22V36H634V22H631M690 22V36H692V22H690M788 22V36H790V22H788M846 22V36H849V22H846M905 22V36H907V22H905M1061 22V36H1063V22H1061M1315 22V36H1317V22H1315M0 38V74H39V38H0M143 38V52H145V38H143M148 38V57H150V38H148M162 38V57H165V38H162M167 38V52H170V38H167M215 38V74H254V38H215M319 38V52H321V38H319M323 38V57H326V38H323M332 38V74H371V38H332M377 38V74H380V38H377M382 38V74H384V38H382M430 38V74H469V38H430M475 38V74H477V38H475M480 38V74H482V38H480M488 38V74H527V38H488M631 38V52H634V38H631M636 38V57H638V38H636M645 38V74H684V38H645M690 38V74H692V38H690M695 38V74H697V38H695M723 38V74H762V38H723M788 38V52H790V38H788M792 38V57H795V38H792M801 38V74H840V38H801M846 38V74H849V38H846M851 38V74H853V38H851M860 38V74H899V38H860M905 38V74H907V38H905M910 38V74H912V38H910M1016 38V74H1055V38H1016M1061 38V74H1063V38H1061M1066 38V74H1068V38H1066M1172 38V74H1211V38H1172M1315 38V52H1317V38H1315M1320 38V57H1322V38H1320M45 52V55H145V52H45M167 52V55H215V52H167M260 52V55H321V52H260M534 52V55H634V52H534M768 52V55H790V52H768M1217 52V55H1317V52H1217M45 55V74H47V55H45M260 55V74H262V55H260M534 55V74H536V55H534M768 55V74H770V55H768M1217 55V74H1220V55H1217M50 57V60H150V57H50M162 57V60H215V57H162M265 57V60H326V57H265M538 57V60H638V57H538M773 57V60H795V57H773M1222 57V60H1322V57H1222M50 60V74H52V60H50M265 60V74H267V60H265M538 60V74H541V60H538M773 60V74H775V60H773M1222 60V74H1225V60H1222M0 76V112H98V76H0M215 76V112H254V76H215M260 76V112H262V76H260M265 76V112H267V76H265M332 76V112H469V76H332M475 76V112H477V76H475M480 76V112H482V76H480M488 76V112H625V76H488M645 76V112H742V76H645M768 76V90H770V76H768M773 76V95H775V76H773M801 76V112H840V76H801M846 76V112H849V76H846M851 76V112H853V76H851M860 76V112H899V76H860M905 76V112H907V76H905M910 76V112H912V76H910M1016 76V112H1055V76H1016M1061 76V112H1063V76H1061M1066 76V112H1068V76H1066M1172 76V112H1309V76H1172M98 90V93H111V90H98M625 90V93H638V90H625M748 90V93H770V90H748M1309 90V93H1322V90H1309M109 93V112H111V93H109M636 93V112H638V93H636M748 93V112H751V93H748M1320 93V112H1322V93H1320M98 95V98H106V95H98M625 95V98H634V95H625M753 95V98H775V95H753M1309 95V98H1317V95H1309M104 98V112H106V98H104M631 98V112H634V98H631M753 98V112H756V98H753M1315 98V112H1317V98H1315M0 114V150H39V114H0M104 114V128H106V114H104M109 114V133H111V114H109M215 114V150H254V114H215M260 114V150H262V114H260M265 114V150H267V114H265M332 114V150H371V114H332M430 114V150H469V114H430M475 114V150H477V114H475M480 114V150H482V114H480M494 114V133H497V114H494M499 114V128H502V114H499M586 114V150H625V114H586M631 114V150H634V114H631M636 114V150H638V114H636M645 114V150H684V114H645M723 114V150H762V114H723M801 114V150H840V114H801M846 114V150H849V114H846M851 114V150H853V114H851M860 114V150H899V114H860M905 114V150H907V114H905M910 114V150H912V114H910M1016 114V150H1055V114H1016M1061 114V150H1063V114H1061M1066 114V150H1068V114H1066M1178 114V133H1181V114H1178M1183 114V128H1186V114H1183M1270 114V150H1309V114H1270M1315 114V150H1317V114H1315M1320 114V150H1322V114H1320M45 128V131H106V128H45M377 128V131H430V128H377M499 128V131H586V128H499M690 128V131H723V128H690M762 128V131H775V128H762M1183 128V131H1270V128H1183M45 131V150H47V131H45M377 131V150H380V131H377M690 131V150H692V131H690M773 131V150H775V131H773M50 133V136H111V133H50M382 133V136H430V133H382M494 133V136H586V133H494M695 133V136H723V133H695M762 133V136H770V133H762M1178 133V136H1270V133H1178M50 136V150H52V136H50M382 136V150H384V136H382M695 136V150H697V136H695M768 136V150H770V136H768M0 152V188H137V152H0M215 152V188H254V152H215M260 152V188H262V152H260M265 152V188H267V152H265M332 152V188H371V152H332M377 152V188H380V152H377M382 152V188H384V152H382M430 152V188H469V152H430M475 152V188H477V152H475M480 152V188H482V152H480M488 152V188H625V152H488M631 152V188H634V152H631M636 152V188H638V152H636M645 152V188H684V152H645M690 152V188H692V152H690M695 152V188H697V152H695M742 152V188H781V152H742M801 152V188H840V152H801M846 152V188H849V152H846M851 152V188H853V152H851M860 152V188H996V152H860M1016 152V188H1153V152H1016M1172 152V188H1309V152H1172M1315 152V188H1317V152H1315M1320 152V188H1322V152H1320M137 166V169H150V166H137M781 166V169H795V166H781M996 166V169H1010V166H996M1153 166V169H1166V166H1153M148 169V188H150V169H148M792 169V188H795V169H792M1007 169V188H1010V169H1007M1164 169V188H1166V169H1164M137 171V174H145V171H137M781 171V174H790V171H781M996 171V174H1005V171H996M1153 171V174H1161V171H1153M143 174V188H145V174H143M788 174V188H790V174H788M1002 174V188H1005V174H1002M1159 174V188H1161V174H1159M6 190V209H8V190H6M11 190V204H13V190H11M143 190V204H145V190H143M148 190V209H150V190H148M221 190V209H223V190H221M226 190V204H228V190H226M260 190V204H262V190H260M265 190V209H267V190H265M338 190V209H341V190H338M343 190V204H345V190H343M377 190V204H380V190H377M382 190V209H384V190H382M436 190V209H438V190H436M441 190V204H443V190H441M475 190V204H477V190H475M480 190V209H482V190H480M494 190V209H497V190H494M499 190V204H502V190H499M631 190V204H634V190H631M636 190V209H638V190H636M651 190V209H653V190H651M656 190V204H658V190H656M690 190V204H692V190H690M695 190V209H697V190H695M748 190V209H751V190H748M753 190V204H756V190H753M788 190V204H790V190H788M792 190V209H795V190H792M807 190V209H809V190H807M812 190V204H814V190H812M846 190V204H849V190H846M851 190V209H853V190H851M866 190V209H868V190H866M871 190V204H873V190H871M1002 190V204H1005V190H1002M1007 190V209H1010V190H1007M1022 190V209H1024V190H1022M1027 190V204H1029V190H1027M1159 190V204H1161V190H1159M1164 190V209H1166V190H1164M1178 190V209H1181V190H1178M1183 190V204H1186V190H1183M1315 190V204H1317V190H1315M1320 190V209H1322V190H1320M11 204V207H145V204H11M226 204V207H262V204H226M343 204V207H380V204H343M441 204V207H477V204H441M499 204V207H634V204H499M656 204V207H692V204H656M753 204V207H790V204H753M812 204V207H849V204H812M871 204V207H1005V204H871M1027 204V207H1161V204H1027M1183 204V207H1317V204H1183M6 209V212H150V209H6M221 209V212H267V209H221M338 209V212H384V209H338M436 209V212H482V209H436M494 209V212H638V209H494M651 209V212H697V209H651M748 209V212H795V209H748M807 209V212H853V209H807M866 209V212H1010V209H866M1022 209V212H1166V209H1022M1178 209V212H1322V209H1178" fill="#ffb000"/>
</svg>
