<?xml version="1.0" encoding="UTF-8"?>
<svg id="Camada_1" xmlns="http://www.w3.org/2000/svg" viewBox="0 0 300 300">
  <defs>
    <style>
      .cls-1 {
        fill: #fff;
      }
    </style>
  </defs>
  <rect x=".51" y="0" width="300" height="300"/>
  <path class="cls-1" d="M257.13,46.28c0-3.93-3.17-7.12-7.08-7.12-.9,0-1.77.18-2.56.49v-.02l-.45.19-61.74,26.02h-69.58l-61.9-26.08-.26-.11c-.8-.31-1.67-.5-2.58-.5-3.92,0-7.08,3.18-7.08,7.12,0,.29.02.58.05.86h-.01l.08.45,14.43,87.47-13.9,47.49-.15.53c-.14.58-.23,1.16-.23,1.78,0,2.7,1.5,5.04,3.7,6.25l.3.15,45.12,22.99c18.31,11.05,25.75,23.98,39.82,40.17l11.8,13.64.54.62c1.29,1.34,3.08,2.19,5.08,2.19s3.96-.92,5.26-2.37l.26-.3,11.93-13.78c14.07-16.19,21.5-29.12,39.82-40.17l45.15-23.01.25-.13c2.2-1.22,3.7-3.56,3.7-6.27,0-.66-.1-1.31-.26-1.91l-.05-.15-.02-.08-.08-.27-13.88-47.4,14.46-87.64.04-.27h-.03c.03-.29.06-.56.06-.86l.02.02ZM236.04,64.25l-8.06,49-26.34-34.44,34.42-14.56h-.01ZM118.28,83.98h64.44l32.2,42.31H86.1l32.19-42.31h-.01ZM150.51,195.96l-.03-.02v.06l-.17.14-59.77-51.51h119.94l-59.77,51.51-.17-.14v-.06l-.03.02ZM99.38,78.82l-26.34,34.44-8.06-49,34.42,14.56h-.01ZM64.86,177.67l7.38-22.83,40.2,35.93,11.1,9.92-58.68-23.01h0ZM150.51,242.26l-22.67-27.3,22.64,3.26h.07l22.64-3.26-22.67,27.3ZM177.47,200.68l11.1-9.92,40.2-35.93,7.38,22.83-58.68,23.01h0Z"/>
</svg>