<svg xmlns="http://www.w3.org/2000/svg" width="356" height="186" viewBox="0 0 356 186" fill="none">
  <path d="M8.54163 164.492C4.58288 164.392 2.53837 166.934 2.4072 172.152L23.7125 172.688C25.6199 172.735 26.6069 172.148 26.6368 170.96L26.9967 170.97C26.8958 172.119 26.8003 173.053 26.7586 174.709C26.717 176.364 26.7628 177.41 26.7931 179.067L26.4332 179.058C26.4631 177.87 25.5068 177.234 23.5994 177.186L2.29412 176.651C2.16294 181.869 4.07628 184.546 8.03503 184.645L8.02146 185.185C6.79965 185.082 6.08169 184.992 4.75011 184.959C3.45452 184.926 2.73294 184.98 1.43554 185.02C1.57737 180.81 1.67397 178.4 1.78162 174.117C1.88747 169.906 1.91209 167.494 1.96928 163.786C3.26306 163.891 3.98103 163.981 5.27662 164.014C6.6082 164.047 7.32978 163.993 8.5552 163.952L8.54163 164.492ZM21.2045 143.099L27.3093 144.134C29.1905 144.453 30.2511 144.012 30.4498 142.841L30.8047 142.901C30.4809 144.38 30.2534 145.291 29.9764 146.923C29.7055 148.521 29.632 149.384 29.4803 150.71L29.1253 150.649C29.324 149.478 28.5035 148.718 26.6224 148.399L20.6596 147.388C17.9266 146.924 16.8143 146.809 15.6598 146.941C13.7533 147.202 12.4724 148.08 12.2437 149.429C11.8042 152.02 15.3868 155.439 19.1846 156.084L25.1119 157.089C26.9931 157.408 28.0537 156.967 28.2524 155.796L28.6073 155.856C28.3497 156.944 28.1222 157.855 27.8453 159.488C27.5744 161.085 27.4828 162.055 27.2829 163.665L26.9279 163.604C27.1266 162.433 26.2706 161.667 24.3895 161.348L4.15847 157.917C2.27733 157.598 1.21668 158.038 1.01801 159.21L0.663078 159.149C0.824999 158.41 0.986917 157.671 1.11334 156.925C1.35415 155.506 1.51194 154.145 1.43808 153.073L16.3806 155.608C12.8874 154.03 10.855 150.727 11.4631 147.142C12.3541 141.889 17.1938 142.418 21.2045 143.099ZM22.4279 139.338C17.0696 137.657 14.6315 133.043 16.2487 127.89C17.8119 122.91 22.1443 120.648 26.953 122.157L22.9855 134.797C28.2731 136.343 32.6323 134.957 33.8182 131.179C34.5837 128.74 33.7731 126.033 31.6283 123.851L32.1375 123.671C34.5935 126.064 35.3601 129.512 34.2065 133.188C32.5247 138.546 27.8548 141.042 22.4279 139.338ZM25.1872 125.98C20.9193 124.791 17.5078 125.682 16.7423 128.121C15.9876 130.525 18.2651 133.127 22.4703 134.635L25.1872 125.98ZM20.6086 98.7151L40.2802 108.476C41.9893 109.324 43.1321 109.208 43.6601 108.144L43.9826 108.304C43.422 109.271 42.9415 110.078 42.2055 111.561C41.4854 113.012 41.1179 113.915 40.4623 115.398L40.1398 115.238C40.6679 114.174 40.0692 113.194 38.36 112.346L21.7521 104.105C20.6234 103.545 19.6749 103.999 18.9228 105.514L18.4391 105.274C19.9592 102.211 20.677 100.035 20.6086 98.7151ZM34.4725 99.6105C28.0536 95.4819 25.929 88.936 29.2981 83.698C32.6477 78.4902 39.4463 77.7694 45.8652 81.8981C52.284 86.0267 54.4476 92.512 51.098 97.7198C47.7289 102.958 40.8913 103.739 34.4725 99.6105ZM36.8463 95.7868C43.2651 99.9155 48.6185 100.577 50.6049 97.4882C52.6108 94.3696 49.7589 89.753 43.2794 85.5854C36.9211 81.4957 31.7581 80.8715 29.7328 84.0204C27.7074 87.1693 30.4577 91.6777 36.8463 95.7868ZM55.4545 62.8501C54.9798 63.3426 54.9883 63.8007 55.4809 64.2753C55.8179 64.6001 56.3585 64.921 57.1536 65.2373L66.4628 68.8583L62.4993 59.6897C62.3659 59.3612 62.1825 59.0845 61.9751 58.8847C61.4307 58.3601 60.6144 58.2734 59.5511 58.5986L59.2919 58.3488C59.2919 58.3488 59.9951 57.8266 61.1691 56.6082C61.8935 55.8564 62.2164 55.4176 62.814 54.6937L63.0732 54.9435C62.4426 56.6355 62.3932 58.0877 62.8989 59.2749L70.0535 75.7678C71.3836 78.8493 71.3021 81.3205 69.8194 83.7412L65.445 82.6257C68.9172 79.0223 69.8937 76.7637 68.8832 74.4401L53.9063 68.6073C51.9828 67.8537 50.7083 67.7755 50.0838 68.4236L49.8246 68.1738C50.9756 67.0831 51.6769 66.4591 52.776 65.3184C53.8751 64.1778 54.4727 63.4538 55.1952 62.6003L55.4545 62.8501ZM70.3565 60.2033C67.1262 55.6534 67.9234 50.4957 72.3559 47.3487C76.5829 44.3476 81.4101 45.1147 84.3487 49.2536L73.5464 56.923C76.8648 61.4104 81.1921 62.8414 84.4504 60.5281C85.8007 59.5694 86.5619 58.2784 86.8598 56.5216C87.626 52.0041 84.764 47.4134 84.7186 42.8098C84.7019 39.8636 85.8294 37.7827 88.5006 35.8862C92.2286 33.2394 95.4713 33.4537 97.6387 36.5065L103.683 45.0192C104.162 45.6943 104.534 45.7833 104.769 45.6165C104.886 45.5332 104.991 45.3703 105.026 45.1695L105.293 45.4213C105.206 46.5427 104.739 47.3155 103.8 47.9824C102.303 49.0453 101.077 48.8117 99.9517 47.2266L99.2014 46.1698C100.089 48.8507 99.1617 51.2753 96.5492 53.1302C93.5258 55.2768 90.4043 55.1088 88.6953 52.7018C86.1111 49.0619 90.9204 45.8239 93.0374 43.0847C94.5286 41.1429 94.6373 39.7413 93.491 38.1268C92.0113 36.0427 89.9448 35.7438 87.7726 37.2861C85.982 38.5574 85.1944 40.3086 85.2584 42.8239C85.3541 47.436 88.1943 52.307 87.4451 56.7241C87.0706 58.9327 85.835 60.7371 83.6628 62.2793C78.8781 65.6764 73.6494 64.8412 70.3565 60.2033ZM97.6592 43.9976L94.6789 39.8C94.8809 40.8928 94.5051 42.0426 93.5641 43.3289C92.1524 45.2583 90.2805 47.1613 92.3229 50.038C93.7818 52.0928 95.8266 52.6719 97.4704 51.5048C99.5545 50.0251 99.6182 46.7569 97.6592 43.9976ZM80.631 51.2308C77.971 47.733 74.6939 46.351 72.6098 47.8307C70.555 49.2895 70.7963 52.7386 73.2338 56.4827L80.631 51.2308ZM114.88 22.2835L116.345 27.8714C114.707 25.1774 112.837 24.2156 110.973 25.0742C108.292 26.3095 107.399 30.5657 109.071 34.195L111.587 39.6554C112.385 41.3883 113.348 42.015 114.427 41.5179L114.578 41.8449C113.338 42.3369 112.457 42.6631 110.953 43.3561C109.417 44.0641 108.597 44.5211 107.384 45.1589L107.234 44.832C108.313 44.3349 108.462 43.196 107.663 41.463L102.843 31C102.045 29.2671 101.082 28.6404 100.003 29.1375L99.8524 28.8105C100.587 28.5118 101.288 28.2282 101.942 27.9269C103.218 27.3394 104.463 26.6865 105.305 26.0208L107.881 31.612C107.213 27.8375 108.693 24.341 111.832 22.8949C112.879 22.4129 114.078 22.1773 114.88 22.2835ZM130.792 22.1523C129.713 19.7035 127.234 17.9475 124.534 18.8437C122.792 19.4223 121.868 20.8671 122.345 22.302C122.662 23.2587 123.516 23.8858 125.063 24.3201C127.066 24.8689 129.423 24.8829 131.767 25.6597C133.69 26.3108 134.657 27.1658 135.156 28.6691C136.211 31.8465 134.17 34.7243 129.934 36.1311C128.259 36.687 126.483 36.9355 124.708 36.7285C124.195 36.671 123.808 36.6478 123.569 36.7272C123.159 36.8634 123.125 37.2162 123.295 37.9564L122.919 38.0812C122.533 36.6919 122.318 35.815 121.875 34.4826C121.399 33.0476 121.07 32.2845 120.65 31.2481L120.991 31.1346C123.286 35.0762 126.176 36.8099 128.909 35.9023C131.062 35.1875 132.282 33.1511 131.704 31.4087C131.352 30.3496 130.431 29.6313 128.803 29.1855C127.062 28.7395 124.683 28.6571 122.657 28.04C120.472 27.4 119.062 26.2372 118.585 24.6884C117.837 22.2058 119.729 19.7945 123.385 18.5806C124.581 18.1835 125.594 18.0367 127.074 18.0383C127.757 18.0391 128.247 18.0283 128.554 17.9262C129.032 17.7674 129.101 17.4031 128.954 16.7313L129.33 16.6065C129.613 17.6883 129.772 18.3943 130.123 19.4535C130.498 20.5809 130.759 21.1391 131.134 22.0388L130.792 22.1523ZM183.237 10.6212L180.001 10.7877L180.717 24.7013C180.815 26.6068 181.217 27.4152 182.116 27.3689C182.763 27.3356 183.458 26.8312 183.955 25.9765L184.045 26.3324C183.321 27.6674 181.888 28.5342 180.234 28.6193C178.005 28.7341 176.531 27.4041 176.418 25.211L176.251 21.9753C175.238 26.1008 171.246 29.082 165.925 29.3559C159.669 29.6779 155.518 26.0705 155.226 20.39C154.943 14.8893 158.419 10.9974 163.812 10.7198C168.989 10.4533 172.652 13.6893 172.913 18.7586L159.683 19.4396C160.092 25.2943 162.639 28.5517 167.421 28.3056C172.346 28.052 176.37 24.2762 176.122 19.4586L175.687 11.0098L174.608 11.0653L174.58 10.526L175.659 10.4705L175.511 7.59431C176.947 7.48433 178.452 7.29875 179.807 7.01271L179.973 10.2484L183.209 10.0819L183.237 10.6212ZM168.715 18.434C168.346 14.0552 166.321 11.1314 163.768 11.2628C161.251 11.3924 159.605 14.433 159.655 18.9004L168.715 18.434ZM205.226 21.0132L204.504 27.1629C204.282 29.0579 204.776 30.0947 205.956 30.2332L205.914 30.5908C204.421 30.3429 203.5 30.1622 201.855 29.9691C200.246 29.7801 199.379 29.7509 198.048 29.667L198.09 29.3095C199.27 29.448 199.987 28.5898 200.21 26.6948L200.915 20.6881C201.238 17.935 201.297 16.8182 201.105 15.6721C200.747 13.7814 199.805 12.5471 198.446 12.3875C195.836 12.081 192.604 15.8337 192.155 19.6594L191.454 25.6303C191.231 27.5253 191.726 28.5621 192.906 28.7006L192.864 29.0582C191.764 28.8565 190.843 28.6758 189.198 28.4827C187.589 28.2937 186.615 28.2518 184.998 28.1344L185.04 27.7769C186.22 27.9154 186.941 27.0214 187.163 25.1265L189.557 4.74652C189.779 2.85154 189.285 1.81479 188.105 1.67623L188.147 1.31868C188.894 1.44262 189.64 1.56655 190.391 1.65473C191.821 1.82268 193.188 1.91073 194.255 1.78222L192.487 16.8348C193.885 13.2655 197.079 11.067 200.69 11.4911C205.982 12.1125 205.701 16.973 205.226 21.0132ZM209.531 22.1106C211.194 16.8595 215.814 14.4326 220.962 16.0624C225.904 17.627 228.201 21.9415 226.669 26.7808L214.039 22.7823C212.371 28.4093 213.615 32.3526 218.179 33.7977C222.881 35.2862 227.973 33.1597 229.429 28.5606L231.167 23.0692C231.743 21.2502 231.453 20.1388 230.32 19.7803L230.429 19.4371C231.173 19.7104 231.883 19.9729 232.569 20.1902C233.908 20.614 235.268 20.9691 236.34 21.0439L234.482 26.9129C236.527 23.6711 239.976 22.0818 243.271 23.1249C244.369 23.4726 245.415 24.1057 245.936 24.724L243.259 29.8425C243.861 26.7479 243.125 24.778 241.169 24.1587C238.354 23.2677 234.829 25.8146 233.623 29.6242L231.809 35.3559C231.233 37.1749 231.523 38.2863 232.656 38.6448L232.547 38.988C231.299 38.5174 230.428 38.1662 228.849 37.6664C227.236 37.1558 226.322 36.9419 224.996 36.5977L225.105 36.2545C226.237 36.613 227.114 35.8711 227.69 34.052L228.668 30.9631C226.273 34.472 221.49 35.8652 216.41 34.2572C210.438 32.3666 207.815 27.5333 209.531 22.1106ZM222.851 25.0056C224.039 20.7749 223.167 17.327 220.73 16.5555C218.328 15.7949 215.721 18.066 214.202 22.2675L222.851 25.0056ZM244.427 33.5616C247.058 28.5999 252.039 27.0441 256.81 29.5737C261.422 32.0189 262.856 36.6912 260.495 41.1441L248.791 34.9381C246.306 39.855 246.874 44.3938 250.372 46.2489C252.631 47.4462 255.44 47.1429 257.977 45.4321L258.061 45.9655C255.26 47.9438 251.73 48.0689 248.327 46.2644C243.365 43.6337 241.762 38.5869 244.427 33.5616ZM257.059 38.7107C259.006 34.7312 258.751 31.2144 256.493 30.017C254.267 28.8366 251.294 30.6014 249.044 34.461L257.059 38.7107ZM268.704 59.3277L272.301 54.3318C269.345 56.7731 265.486 57.1436 262.535 55.0191C258.211 51.9061 260.817 47.7937 263.194 44.4923L266.812 39.4672C267.926 37.9188 267.998 36.7724 267.034 36.0782L267.244 35.7861C267.836 36.257 268.429 36.728 269.042 37.1697C270.211 38.0111 271.363 38.7519 272.358 39.1574L266.805 46.8704C265.185 49.12 264.591 50.0677 264.244 51.1043C263.597 52.9893 263.851 54.547 264.932 55.3253C267.064 56.8608 271.712 55.1499 273.963 52.0238L277.475 47.1448C278.59 45.5964 278.661 44.4499 277.697 43.7558L277.908 43.4637C278.5 43.9346 279.093 44.4055 279.706 44.8473C280.875 45.6886 282.027 46.4295 283.021 46.835L274.25 59.0179C273.135 60.5663 273.064 61.7128 274.028 62.4069L273.818 62.699C273.225 62.2281 272.633 61.7572 272.019 61.3154C270.851 60.4741 269.698 59.7332 268.704 59.3277ZM303.071 79.5384L298.615 83.7851C297.207 85.1262 296.926 86.2398 297.745 87.0998L297.485 87.3482C296.494 86.2039 295.9 85.4766 294.758 84.2777C293.64 83.1049 292.992 82.5291 292.021 81.6144L292.282 81.3661C293.101 82.2262 294.227 81.9987 295.609 80.6825L299.961 76.5351C302.75 73.8778 303.378 73.18 303.833 72.2489C304.477 70.8894 304.429 69.6915 303.66 68.8835C301.946 67.0852 297.188 67.989 294.373 70.6711L290.047 74.7936C288.639 76.1346 288.358 77.2482 289.178 78.1083L288.917 78.3566C287.926 77.2124 287.332 76.4851 286.19 75.2862C285.072 74.1134 284.424 73.5375 283.453 72.6229L283.714 72.3746C284.533 73.2346 285.659 73.0072 287.041 71.6909L291.393 67.5436C294.182 64.8863 294.81 64.1885 295.265 63.2573C295.909 61.8978 295.862 60.6999 295.092 59.892C293.378 58.0937 288.62 58.9974 285.805 61.6795L281.479 65.802C280.072 67.1431 279.79 68.2567 280.61 69.1168L280.349 69.3651C279.482 68.3511 278.814 67.5456 277.721 66.3989C276.529 65.1479 275.856 64.546 274.885 63.6314L275.146 63.383C275.966 64.2431 277.091 64.0156 278.499 62.6745L286.813 54.7524C288.194 53.4361 288.45 52.3474 287.656 51.4625L287.917 51.2141C288.437 51.8124 288.932 52.3845 289.454 52.9318C290.348 53.8701 291.443 54.915 292.321 55.4709L287.916 59.6679C291.22 57.8124 294.907 58.0287 297.242 60.4786C298.856 62.1726 299.238 64.2953 298.326 66.2085C297.95 67.0143 297.321 67.763 296.381 68.7079C299.737 66.8028 303.475 67.0203 305.81 69.4701C307.424 71.1642 307.806 73.2869 306.894 75.2001C306.277 76.4838 305.104 77.6014 303.071 79.5384ZM317.834 85.7434L318.291 85.4565L319.248 86.9815L321.687 85.4514C322.483 86.6522 323.378 87.8758 324.288 88.92L321.543 90.6413L322.882 92.7763L322.424 93.0632L321.085 90.9282L309.282 98.3301C307.666 99.3438 307.155 100.089 307.634 100.851C307.978 101.4 308.757 101.762 309.745 101.779L309.479 102.031C307.96 102.049 306.505 101.219 305.625 99.8163C304.439 97.9254 304.883 95.99 306.743 94.8233L318.79 87.2684L317.834 85.7434ZM316.106 99.1266C321.037 96.6712 326.266 98.531 328.818 103.655C331.37 108.779 329.703 114.073 324.772 116.528C319.842 118.983 314.613 117.124 312.061 112C309.509 106.876 311.176 101.582 316.106 99.1266ZM318.128 103.187C313.488 105.498 311.18 109.02 312.544 111.759C313.908 114.498 318.142 114.763 322.815 112.436C327.455 110.125 329.699 106.635 328.335 103.896C326.97 101.156 322.801 100.86 318.128 103.187ZM339.352 131.434L333.652 132.375C336.487 130.994 337.618 129.221 336.935 127.286C335.954 124.502 331.799 123.218 328.03 124.547L322.36 126.545C320.561 127.18 319.847 128.08 320.242 129.2L319.903 129.32C319.528 128.04 319.285 127.133 318.734 125.571C318.172 123.975 317.793 123.117 317.27 121.85L317.609 121.731C318.004 122.851 319.124 123.105 320.924 122.471L331.789 118.641C333.588 118.007 334.301 117.107 333.907 115.986L334.246 115.866C334.475 116.625 334.693 117.35 334.932 118.029C335.399 119.354 335.934 120.654 336.518 121.555L330.712 123.601C334.533 123.285 337.877 125.084 339.026 128.343C339.409 129.43 339.532 130.646 339.352 131.434ZM337.438 173.151L331.315 174.07C329.428 174.354 328.558 175.103 328.734 176.278L328.378 176.332C328.225 174.826 328.157 173.889 327.911 172.252C327.67 170.65 327.471 169.806 327.202 168.499L327.558 168.446C327.734 169.621 328.751 170.087 330.638 169.804L336.619 168.905C339.502 168.472 340.488 168.251 341.473 167.776C343.208 166.969 344.187 165.73 343.978 164.342C343.588 161.743 339.118 159.611 335.309 160.183L329.363 161.076C327.477 161.359 326.606 162.109 326.783 163.284L326.427 163.337C326.332 162.223 326.264 161.287 326.018 159.649C325.778 158.047 325.562 157.096 325.251 155.505L325.607 155.452C325.783 156.626 326.835 157.087 328.722 156.804L332.14 156.291C330.61 156.047 329.088 155.366 327.65 154.271C325.311 152.511 324.114 150.361 323.66 147.335C322.713 141.033 325.787 136.531 331.554 135.665C336.93 134.858 341.151 137.755 341.905 142.775C342.322 145.551 341.632 148.713 340.16 150.791L335.892 148.556C339.581 147.419 341.729 145.24 341.392 142.997C341.012 140.47 337.735 139.251 333.214 139.93C327.411 140.801 324.156 144.093 324.808 148.436C325.455 152.744 329.968 156.617 334.418 155.949L349.014 153.757C350.901 153.473 351.772 152.724 351.595 151.549L351.951 151.495C352.028 152.248 352.104 153.001 352.217 153.749C352.431 155.173 352.705 156.515 353.109 157.51L338.121 159.761C341.932 160.171 344.893 162.675 345.433 166.271C346.23 171.576 341.461 172.547 337.438 173.151Z" fill="white"/>
</svg>