 <svg viewBox="0 0 1306 66" fill="none" xmlns="http://www.w3.org/2000/svg" preserveAspectRatio="none">
<path d="M1305.65 13.4399H1297.05V20.1646H1305.65V30.8081H1297.05V37.5337H1305.65V48.1772H1297.05V54.9019H1305.65V65.5454H0.351562V54.9019H8.95215V48.1772H0.351562V37.5337H8.95215V30.8081H0.351562V20.1646H8.95215V13.4399H0.351562V2.79541H1305.65V13.4399Z" fill="#B2820A"/>
<path d="M1305.65 11.4399H1297.05V18.1646H1305.65V28.8081H1297.05V35.5337H1305.65V46.1772H1297.05V52.9019H1305.65V63.5454H0.351562V52.9019H8.95215V46.1772H0.351562V35.5337H8.95215V28.8081H0.351562V18.1646H8.95215V11.4399H0.351562V0.79541H1305.65V11.4399Z" fill="#F6B40E"/>
</svg>
