<?xml version="1.0" encoding="utf-8"?>
<!-- Generator: Adobe Illustrator 18.1.1, SVG Export Plug-In . SVG Version: 6.00 Build 0)  -->
<svg version="1.1" id="Layer_1" xmlns="http://www.w3.org/2000/svg" xmlns:xlink="http://www.w3.org/1999/xlink" x="0px" y="0px"
	 viewBox="0 0 1920 1080" enable-background="new 0 0 1920 1080" xml:space="preserve">
<rect fill="#151C2F" width="1920" height="1080"/>
<g>
	<polygon fill="#8A92B2" points="954.3,210.6 828.9,418.7 954.3,361.7 	"/>
	<polygon fill="#62688F" points="954.3,361.7 828.9,418.7 954.3,492.9 	"/>
	<polygon fill="#62688F" points="1079.7,418.7 954.3,210.6 954.3,361.7 	"/>
	<polygon fill="#454A75" points="954.3,492.9 1079.7,418.7 954.3,361.7 	"/>
	<polygon fill="#8A92B2" points="828.9,442.5 954.3,619.3 954.3,516.6 	"/>
	<polygon fill="#62688F" points="954.3,516.6 954.3,619.3 1079.8,442.5 	"/>
</g>
<g>
	<path fill="#8A92B2" d="M566.6,822.2c0,2.1-1.9,3.8-4,3.8h-74.8c1.9,18.5,15.8,35.4,35.4,35.4c13.4,0,23.3-5.1,30.8-15.8
		c0.8-1.1,1.9-1.9,3.2-1.9c2.1,0,3.8,1.6,3.8,3.8c0,0.8-0.3,1.3-0.5,1.9c-7.5,13.1-22.5,19.6-37.3,19.6c-25.2,0-43.2-22.5-43.2-46.7
		c0-24.1,18-46.7,43.2-46.7C548.4,775.5,566.6,798,566.6,822.2z M558.6,818.4c-1.6-18.5-15.8-35.4-35.4-35.4s-33.5,16.9-35.4,35.4
		H558.6z"/>
	<path fill="#8A92B2" d="M657.5,777.4c2.1,0,3.8,1.9,3.8,3.8c0,2.1-1.6,3.8-3.8,3.8h-20.1v78.8c0,1.9-1.6,3.8-3.8,3.8
		c-2.1,0-3.8-1.9-3.8-3.8v-78.8h-19.3c-2.1,0-3.8-1.6-3.8-3.8c0-1.9,1.6-3.8,3.8-3.8h19.3v-29c0-2.1,1.6-3.8,3.8-3.8
		c2.1,0,3.8,1.6,3.8,3.8v29H657.5z"/>
	<path fill="#8A92B2" d="M780.1,815.5v47.7c0,2.1-1.9,3.8-3.8,3.8c-2.1,0-3.8-1.6-3.8-3.8v-47.7c0-16.1-9.1-32.2-27.1-32.2
		c-23.1,0-33,20.1-31.6,40.8c0,0.5,0.3,2.9,0.3,3.2v35.9c0,2.1-1.6,3.8-3.8,3.8c-2.1,0-3.8-1.6-3.8-3.8V706.3c0-1.9,1.6-3.8,3.8-3.8
		c2.1,0,3.8,1.9,3.8,3.8v88.8c6.4-11.5,18-19.3,31.4-19.3C767.5,775.8,780.1,795.1,780.1,815.5z"/>
	<path fill="#8A92B2" d="M914.4,822.2c0,2.1-1.9,3.8-4,3.8h-74.8c1.9,18.5,15.8,35.4,35.4,35.4c13.4,0,23.3-5.1,30.8-15.8
		c0.8-1.1,1.9-1.9,3.2-1.9c2.1,0,3.8,1.6,3.8,3.8c0,0.8-0.3,1.3-0.5,1.9c-7.5,13.1-22.5,19.6-37.3,19.6c-25.2,0-43.2-22.5-43.2-46.7
		c0-24.1,18-46.7,43.2-46.7S914.4,798,914.4,822.2z M906.4,818.4c-1.6-18.5-15.8-35.4-35.4-35.4s-33.5,16.9-35.4,35.4H906.4z"/>
	<path fill="#8A92B2" d="M1006.4,780.9c0,2.4-1.3,3.8-3.5,4c-22,3.2-31.9,21.2-31.9,42.1v35.9c0,2.1-1.6,3.8-3.8,3.8
		c-2.1,0-3.8-1.6-3.8-3.8v-81.8c0-2.1,1.6-3.8,3.8-3.8c2.1,0,3.8,1.6,3.8,3.8v16.6c6.2-10.5,18.5-20.4,31.4-20.4
		C1004.2,777.4,1006.4,778.7,1006.4,780.9z"/>
	<path fill="#8A92B2" d="M1129.5,822.2c0,2.1-1.9,3.8-4,3.8h-74.8c1.9,18.5,15.8,35.4,35.4,35.4c13.4,0,23.3-5.1,30.8-15.8
		c0.8-1.1,1.9-1.9,3.2-1.9c2.1,0,3.8,1.6,3.8,3.8c0,0.8-0.3,1.3-0.5,1.9c-7.5,13.1-22.5,19.6-37.3,19.6c-25.2,0-43.2-22.5-43.2-46.7
		c0-24.1,18-46.7,43.2-46.7C1111.2,775.5,1129.5,798,1129.5,822.2z M1121.4,818.4c-1.6-18.5-15.8-35.4-35.4-35.4
		s-33.5,16.9-35.4,35.4H1121.4z"/>
	<path fill="#8A92B2" d="M1250.4,781.7v26v56c0,2.1-1.9,3.8-3.8,3.8c-2.1,0-3.8-1.6-3.8-3.8v-15.6c-6.2,12.3-17.2,21.2-31.1,21.2
		c-22.3,0-34.6-19.3-34.6-39.7v-48c0-1.9,1.6-3.8,3.8-3.8s3.8,1.9,3.8,3.8v48c0,16.1,9.1,32.2,27.1,32.2c25.2,0,31.1-23.6,31.1-49.6
		v-30.6c0-1.9,1.6-3.8,3.8-3.8C1248.5,777.9,1250.4,779.8,1250.4,781.7z"/>
	<path fill="#8A92B2" d="M1440,815.2v48c0,2.1-1.9,3.8-3.8,3.8c-2.1,0-3.8-1.6-3.8-3.8v-48c0-16.1-9.1-31.9-27.1-31.9
		c-22.5,0-31.1,24.1-31.1,42.9v37c0,2.1-1.9,3.8-3.8,3.8c-2.1,0-3.8-1.6-3.8-3.8v-48c0-16.1-9.1-31.9-27.1-31.9
		c-22.8,0-32.2,18-31.4,41.8c0,0.5,0.3,1.6,0,1.9v36.2c0,2.1-1.6,3.8-3.8,3.8c-2.1,0-3.8-1.6-3.8-3.8v-82.1c0-2.1,1.6-3.8,3.8-3.8
		c2.1,0,3.8,1.6,3.8,3.8v13.7c6.4-11.5,18-19,31.4-19c15.3,0,27.1,9.7,31.9,23.9c6.2-13.9,18.2-23.9,33.8-23.9
		C1427.4,775.8,1440,794.8,1440,815.2z"/>
</g>
</svg>
