<svg width="225" height="25" viewBox="0 0 225 25" fill="currentColor" xmlns="http://www.w3.org/2000/svg">
<path d="M224.261 2.71411V5.13154H208.264V11.0842H223.359V13.504H208.264V20.1973H225V22.617H205.555V2.71411H224.259H224.261Z"/>
<path d="M190.236 2.27026C195.624 2.27026 199.771 4.92 201.239 8.97971L198.936 10.1896C197.697 6.8199 194.531 4.74749 190.266 4.74749C184.878 4.74749 180.703 7.80205 180.703 12.6668C180.703 17.5316 184.878 20.5861 190.266 20.5861C194.531 20.5861 197.697 18.5137 198.936 15.144L201.239 16.3539C199.771 20.4136 195.624 23.0633 190.236 23.0633C183.35 23.0633 177.907 18.8564 177.907 12.6668C177.907 6.47718 183.35 2.27026 190.236 2.27026Z"/>
<path d="M173.444 22.617H170.996L154.324 6.08379V22.617H151.672V2.71411H154.611L170.795 18.6723V2.71411H173.447V22.617H173.444Z"/>
<path d="M132.913 2.71411H136.255L147.808 22.617H144.581L141.267 17.2555H127.755L124.471 22.617H121.389L132.913 2.71411ZM139.914 14.8357L136.542 8.87613C135.852 7.66627 135.189 6.16889 134.496 4.96133C133.806 6.17119 133.113 7.66857 132.45 8.87613L129.109 14.8357H139.912H139.914Z"/>
<path d="M117.592 22.617H114.826V2.71411H117.592V22.617Z"/>
<path d="M91.8684 2.71411H94.6348V20.1973H110.336V22.617H91.8684V2.71411Z"/>
<path d="M68.9111 2.71411H71.6775V20.1973H87.3782V22.617H68.9111V2.71411Z"/>
<path d="M50.0665 2.71411H53.4083L64.9617 22.617H61.735L58.4209 17.2555H44.9089L41.6247 22.617H38.543L50.0665 2.71411ZM57.0676 14.8357L53.6959 8.87613C53.0055 7.66627 52.3427 6.16889 51.6499 4.96133C50.9595 6.17119 50.2667 7.66857 49.6039 8.87613L46.2621 14.8357H57.0653H57.0676Z"/>
<path d="M15.5419 0H14.7019C12.9804 9.83531 7.5972 18.4079 0 24.2663L0.421172 25C4.9643 23.1645 9.9217 22.1456 15.1231 22.1456C20.3244 22.1456 25.2818 23.1645 29.8249 25L30.2461 24.2663C22.6489 18.4079 17.2634 9.83531 15.5419 0Z"/>
</svg>
