<svg width="137" height="35" viewBox="0 0 137 35" fill="currentColor" xmlns="http://www.w3.org/2000/svg">
<path d="M18.0456 20.1593L16.3543 24.8054C16.3047 24.9339 16.3047 25.0774 16.3543 25.206L19.2583 33.2027L22.6194 31.2553L18.5878 20.1593C18.4953 19.9013 18.1382 19.9013 18.0456 20.1593Z"/>
<path d="M21.4274 12.3419C21.3348 12.084 20.9777 12.084 20.8851 12.3419L19.1938 16.988C19.1442 17.1165 19.1442 17.26 19.1938 17.3886L23.9527 30.4826L27.3139 28.5352L21.4274 12.3419Z"/>
<path d="M15.4557 2.16879C15.5417 2.16879 15.6202 2.19035 15.6979 2.23348L28.5133 9.65712C28.6629 9.74337 28.7555 9.90012 28.7555 10.0726V24.9199C28.7555 25.0916 28.6629 25.2492 28.5133 25.3354L15.6979 32.7665C15.6268 32.8096 15.5408 32.8312 15.4557 32.8312C15.3706 32.8312 15.2912 32.8096 15.2135 32.7665L2.4047 25.3429C2.25508 25.2566 2.16249 25.0999 2.16249 24.9274V10.0726C2.16249 9.90095 2.25508 9.74337 2.4047 9.65712L15.2201 2.23348C15.2912 2.19035 15.3772 2.16879 15.4557 2.16879ZM15.4557 0C14.9994 0 14.5423 0.121917 14.1356 0.358285L1.32015 7.78192C0.506731 8.25383 0 9.12798 0 10.0726V24.9199C0 25.8646 0.506731 26.7453 1.32015 27.2181L14.1356 34.6417C14.5423 34.8781 14.9986 35 15.4557 35C15.9128 35 16.3691 34.8781 16.7758 34.6417L29.5913 27.2181C30.4121 26.7453 30.9114 25.872 30.9114 24.9199V10.0726C30.9114 9.12798 30.4047 8.2472 29.5913 7.77446L16.7825 0.358285C16.3683 0.121917 15.912 0 15.4549 0H15.4557Z"/>
<path d="M14.3778 9.0127H11.1315C10.8893 9.0127 10.6678 9.16281 10.5893 9.39171L3.62482 28.5492L6.98594 30.4965L14.6563 9.39918C14.7208 9.2134 14.5852 9.0127 14.3778 9.0127Z"/>
<path d="M20.065 9.0127H16.8188C16.5766 9.0127 16.3551 9.16281 16.2766 9.39171L8.32096 31.2695L11.6821 33.2169L20.3362 9.40664C20.4073 9.2134 20.2651 9.0127 20.065 9.0127Z"/>
<path d="M44.7461 13.0005C45.0668 13.0005 45.3454 13.0652 45.5669 13.2012C45.7885 13.3372 46.0092 13.5951 46.2233 13.9816L50.4615 21.6989C50.5044 21.7851 50.5111 21.8564 50.4904 21.9137C50.4689 21.9709 50.4044 21.9999 50.3052 21.9999H48.6784C48.5354 21.9999 48.4362 21.9427 48.3858 21.8349L47.4798 20.1811H41.4643L40.5798 21.8349C40.5228 21.9493 40.4227 21.9999 40.2872 21.9999H38.6248C38.5107 21.9999 38.4462 21.9709 38.4247 21.9137C38.4032 21.8564 38.4107 21.7851 38.4537 21.6989L42.6563 13.9816C42.8704 13.5951 43.0771 13.3372 43.2846 13.2012C43.4912 13.0652 43.7268 13.0005 43.998 13.0005H44.7469H44.7461ZM42.2554 18.6775H46.6647L44.6312 14.9122C44.5956 14.8549 44.5526 14.8193 44.4882 14.8193H44.4096C44.3526 14.8193 44.303 14.8483 44.2666 14.9122L42.2546 18.6775H42.2554Z"/>
<path d="M59.7736 13.0005C60.7581 13.0005 61.4574 13.2228 61.8856 13.6665C62.3138 14.1102 62.5279 14.7687 62.5279 15.642V16.3719C62.5279 17.1092 62.3783 17.6889 62.0782 18.1185C61.7782 18.5481 61.2929 18.8201 60.6151 18.9421L62.8057 21.6624C62.8487 21.7055 62.8627 21.7694 62.8412 21.8556C62.8272 21.9419 62.7553 21.9842 62.6346 21.9842H60.9862C60.8722 21.9842 60.8011 21.9701 60.7581 21.9485C60.7151 21.9195 60.6721 21.8772 60.63 21.8199L58.6039 19.1494H54.4657V21.7055C54.4657 21.8913 54.3731 21.985 54.1871 21.985H52.8025C52.6025 21.985 52.5099 21.8921 52.5099 21.7055V13.387C52.5099 13.129 52.638 13.0005 52.8951 13.0005H59.7736ZM54.4723 17.5894H59.3743C59.8099 17.5894 60.1166 17.4965 60.2952 17.3099C60.4737 17.1241 60.5663 16.8371 60.5663 16.4506V15.914C60.5663 15.5276 60.4737 15.2414 60.2952 15.0548C60.1166 14.869 59.8099 14.7753 59.3743 14.7753H54.636C54.5219 14.7753 54.4715 14.8251 54.4715 14.9329V17.5885L54.4723 17.5894Z"/>
<path d="M73.2379 13.0005C74.1158 13.0005 74.7432 13.1796 75.1144 13.5305C75.4855 13.8813 75.6707 14.4112 75.6707 15.1195V15.7349C75.6707 16.4506 75.3995 16.9947 74.8498 17.3671C75.4351 17.7104 75.7343 18.262 75.7343 19.0208V19.7656C75.7343 20.109 75.6988 20.4167 75.6203 20.6895C75.5417 20.9616 75.4202 21.1979 75.2425 21.3912C75.0639 21.5844 74.8358 21.7345 74.5432 21.8349C74.2505 21.9352 73.8942 21.9925 73.466 21.9925H65.8593C65.6022 21.9925 65.4741 21.8639 65.4741 21.606V13.3878C65.4741 13.1299 65.6022 13.0013 65.8593 13.0013H73.2371L73.2379 13.0005ZM67.4365 16.7376H72.6882C73.1164 16.7376 73.4016 16.6729 73.5586 16.5444C73.7157 16.4158 73.7868 16.2292 73.7868 15.9787V15.5417C73.7868 15.2771 73.7157 15.0839 73.5652 14.9545C73.4156 14.8326 73.1726 14.7687 72.8444 14.7687H67.6068C67.4927 14.7687 67.4423 14.8259 67.4423 14.9337V16.7376H67.4349H67.4365ZM67.4365 18.1409V20.0526C67.4365 20.167 67.4936 20.2176 67.601 20.2176H72.8527C73.1949 20.2176 73.4379 20.1529 73.5801 20.0318C73.7223 19.9108 73.8017 19.71 73.8017 19.438V18.9512C73.8017 18.6866 73.7231 18.4859 73.5661 18.3499C73.409 18.2139 73.1164 18.1425 72.6882 18.1425H67.4365V18.1409Z"/>
<path d="M80.509 13.0005C80.6942 13.0005 80.7876 13.0934 80.7876 13.28V21.7063C80.7876 21.8921 80.695 21.9858 80.509 21.9858H79.1244C78.9244 21.9858 78.8318 21.8929 78.8318 21.7063V13.2874C78.8318 13.1017 78.9318 13.008 79.1244 13.008L80.509 13.0005Z"/>
<path d="M93.9237 13.0005C94.1238 13.0005 94.2164 13.0934 94.2164 13.28V14.5398C94.2164 14.7405 94.1164 14.8334 93.9237 14.8334H89.9063V21.7063C89.9063 21.8921 89.8137 21.9858 89.6277 21.9858H88.229C88.0438 21.9858 87.9504 21.8929 87.9504 21.7063V14.8334H83.933C83.7329 14.8334 83.6403 14.733 83.6403 14.5398V13.28C83.6403 13.0942 83.7404 13.0005 83.933 13.0005H93.9229H93.9237Z"/>
<path d="M104.048 13.0005C105.033 13.0005 105.732 13.2228 106.161 13.6665C106.589 14.1102 106.803 14.7687 106.803 15.642V16.3719C106.803 17.1092 106.653 17.6889 106.353 18.1185C106.053 18.5481 105.568 18.8201 104.89 18.9421L107.081 21.6624C107.124 21.7055 107.138 21.7694 107.116 21.8556C107.102 21.9419 107.03 21.9842 106.909 21.9842H105.261C105.147 21.9842 105.076 21.9701 105.033 21.9485C104.99 21.9195 104.947 21.8772 104.905 21.8199L102.879 19.1494H98.7406V21.7055C98.7406 21.8913 98.648 21.985 98.462 21.985H97.0774C96.8773 21.985 96.7847 21.8921 96.7847 21.7055V13.387C96.7847 13.129 96.9129 13.0005 97.17 13.0005H104.048ZM98.7538 17.5894H103.656C104.091 17.5894 104.398 17.4965 104.577 17.3099C104.755 17.1241 104.848 16.8371 104.848 16.4506V15.914C104.848 15.5276 104.755 15.2414 104.577 15.0548C104.398 14.869 104.091 14.7753 103.656 14.7753H98.9175C98.8034 14.7753 98.753 14.8251 98.753 14.9329V17.5885L98.7538 17.5894Z"/>
<path d="M111.248 13.0005C111.434 13.0005 111.527 13.0934 111.527 13.28V18.4055C111.527 18.7488 111.556 19.0358 111.613 19.2572C111.67 19.4861 111.763 19.6653 111.892 19.7938C112.02 19.9298 112.192 20.0227 112.412 20.0733C112.634 20.1305 112.905 20.1596 113.24 20.1596H116.786C117.122 20.1596 117.393 20.1305 117.614 20.0733C117.835 20.0161 118.006 19.9232 118.134 19.7938C118.263 19.6578 118.356 19.4787 118.406 19.2572C118.455 19.0283 118.484 18.7488 118.484 18.4055V13.28C118.484 13.0942 118.577 13.0005 118.763 13.0005H120.161C120.347 13.0005 120.44 13.0934 120.44 13.28V18.5987C120.44 19.2141 120.375 19.7366 120.247 20.1737C120.119 20.6033 119.912 20.9541 119.626 21.2261C119.341 21.4982 118.97 21.6914 118.513 21.8133C118.057 21.9352 117.507 21.9925 116.857 21.9925H113.168C112.519 21.9925 111.969 21.9352 111.52 21.8133C111.07 21.6914 110.699 21.4982 110.414 21.2261C110.128 20.9541 109.921 20.6033 109.785 20.1737C109.65 19.744 109.585 19.2141 109.585 18.5987V13.28C109.585 13.0942 109.685 13.0005 109.878 13.0005H111.248H111.248Z"/>
<path d="M125.94 13.0005C126.126 13.0005 126.29 13.0146 126.426 13.0362C126.561 13.0652 126.683 13.1075 126.783 13.1863C126.883 13.2576 126.975 13.3579 127.061 13.4799C127.14 13.6018 127.226 13.766 127.311 13.9742L129.973 20.138C130.008 20.2168 130.065 20.2524 130.151 20.2524H130.308C130.394 20.2524 130.451 20.2168 130.487 20.138L133.149 13.9742C133.235 13.7668 133.32 13.6018 133.398 13.4799C133.477 13.3579 133.569 13.2576 133.677 13.1863C133.777 13.1149 133.898 13.0643 134.027 13.0362C134.162 13.0071 134.319 13.0005 134.504 13.0005H135.874C136.316 13.0005 136.616 13.1008 136.773 13.3015C136.931 13.5023 137.002 13.8456 137.002 14.3324V21.7063C137.002 21.8921 136.902 21.9858 136.709 21.9858H135.403C135.218 21.9858 135.124 21.8929 135.124 21.7063V14.9984C135.124 14.9122 135.089 14.8699 135.024 14.8699H134.91C134.824 14.8699 134.767 14.9055 134.746 14.9702L132.162 20.726C132.062 20.9549 131.956 21.1556 131.848 21.3132C131.742 21.4708 131.627 21.5993 131.506 21.7072C131.385 21.8075 131.242 21.8863 131.085 21.9294C130.928 21.9726 130.743 21.9941 130.529 21.9941H129.916C129.702 21.9941 129.516 21.9726 129.359 21.9294C129.202 21.8863 129.059 21.815 128.939 21.7072C128.817 21.6068 128.696 21.4708 128.596 21.3132C128.49 21.1556 128.382 20.9624 128.282 20.726L125.699 14.9702C125.67 14.8989 125.62 14.8699 125.534 14.8699H125.42C125.349 14.8699 125.32 14.913 125.32 14.9984V21.7063C125.32 21.8921 125.228 21.9858 125.042 21.9858H123.736C123.536 21.9858 123.443 21.8929 123.443 21.7063V14.3324C123.443 13.8456 123.522 13.5023 123.671 13.3015C123.828 13.1008 124.128 13.0005 124.577 13.0005H125.94Z"/>
</svg>
