<svg width="95" height="24" viewBox="0 0 95 24" fill="currentColor" xmlns="http://www.w3.org/2000/svg">
<path d="M33.1928 23.9807C31.321 23.9807 29.516 23.2974 28.4525 21.4951H27.835V23.4679H23.5793V0H27.835V8.53755H28.4525C29.545 6.66848 31.5875 5.94812 33.4303 5.94812C38.0282 5.94812 41.135 9.61957 41.135 14.7895C41.135 19.9595 37.7246 23.9718 33.1928 23.9718V23.9815V23.9807ZM32.2718 20.1774C34.8939 20.1774 36.765 18.0333 36.765 14.9696C36.765 11.9059 34.8553 9.76186 32.2718 9.76186C29.6882 9.76186 27.8446 11.8014 27.8446 14.9696C27.8446 18.1378 29.7164 20.1774 32.2718 20.1774ZM49.0007 23.9807C45.7328 23.9807 43.0728 22.0079 43.0728 18.773C43.0728 15.538 45.9985 13.7357 49.5425 13.3659L54.5493 12.8538V11.9051C54.5493 10.4444 53.3521 9.41947 51.2436 9.41947C49.135 9.41947 48.0707 10.3014 47.7004 11.6294H43.6154C44.0236 8.39452 46.7125 5.94738 51.2436 5.94738C55.7746 5.94738 58.5014 8.05361 58.5014 12.1705V20.4708C58.5014 21.524 58.6061 22.9847 58.6721 23.3923V23.459H54.5871C54.5493 22.8802 54.5493 22.3399 54.5493 21.7611H53.9318C52.8771 23.459 51.0343 23.9711 48.9918 23.9711L49.0014 23.9807H49.0007ZM50.16 20.7843C52.9528 20.7843 54.5582 18.6781 54.5582 16.5348V15.6811L50.8057 16.1272C48.4878 16.4022 47.3664 17.0758 47.3664 18.5744C47.3664 20.0729 48.5257 20.7843 50.1592 20.7843H50.16ZM68.7325 23.9807C64.4382 23.9807 61.37 21.8367 60.895 18.4691H65.0846C65.5596 19.9676 67.1271 20.6131 68.7614 20.6131C70.3957 20.6131 71.7918 19.9017 71.7918 18.6403C71.7918 17.379 70.4996 17.0373 68.7236 16.7334L66.9186 16.4296C63.5082 15.8508 61.3989 14.4182 61.3989 11.3641C61.3989 8.31003 64.3246 5.95702 68.3814 5.95702C72.4382 5.95702 74.9557 7.79718 75.6682 10.9943H71.5832C71.1082 9.73295 69.845 9.22974 68.4104 9.22974C66.9757 9.22974 65.5507 9.979 65.5507 11.0321C65.5507 12.0852 66.4339 12.4647 68.2775 12.7678L70.0825 13.0716C73.3882 13.6126 75.9057 14.9785 75.9057 18.2794C75.9057 21.5803 72.9036 23.9993 68.7139 23.9993L68.7332 23.98L68.7325 23.9807ZM86.5828 23.9807C81.3385 23.9807 77.8621 20.4042 77.8621 14.9311C77.8621 9.458 81.5389 5.94738 86.6214 5.94738C91.7039 5.94738 95.0007 9.89377 95.0007 15.1015V15.8508H82.0236C82.2329 18.6774 84.2086 20.3375 86.5932 20.3375C88.9779 20.3375 89.7661 19.6542 90.3457 18.4684H94.7061C93.8229 21.6655 90.6493 23.98 86.5932 23.98H86.5836L86.5828 23.9807ZM90.8393 13.0338C90.4971 10.7572 88.6921 9.4291 86.5836 9.4291C84.475 9.4291 82.4986 10.7194 82.0904 13.0338H90.8497H90.84H90.8393Z"/>
<path d="M1.0257 23.4782C0.341406 23.4782 0 23.1366 0 22.454V7.48441C0 6.80111 0.342148 6.46021 1.0257 6.46021H16.0164C16.7007 6.46021 17.0421 6.80186 17.0421 7.48441V22.4533C17.0421 23.1366 16.7 23.4775 16.0164 23.4775H1.0257V23.4782Z"/>
</svg>
