<svg width="67" height="35" viewBox="0 0 67 35" fill="currentColor" xmlns="http://www.w3.org/2000/svg">
<path d="M25.3772 27.1593V26.3639C25.3772 25.5116 25.009 25.3696 24.5559 25.6252C23.8761 26.023 23.6495 26.5059 23.6495 27.273V32.415C23.6495 33.182 23.8761 33.4093 24.5559 33.0116C25.179 32.6707 25.3772 32.1877 25.3772 31.5059V30.2843L27.0766 29.3184V30.4832C27.0766 31.932 26.2552 33.5513 24.5842 34.5172C22.8282 35.54 22.0068 34.8297 22.0068 33.4093V28.182C22.0068 26.7616 22.8282 25.1139 24.5842 24.0912C26.2836 23.1253 27.0766 23.8923 27.0766 25.4264V26.165L25.3772 27.1593Z"/>
<path d="M28.7761 24.261C28.7761 22.8121 29.5975 21.1644 31.3535 20.1417C33.1095 19.1189 33.9308 19.8008 33.9308 21.2496V26.5053C33.9308 27.9541 33.1095 29.6018 31.3535 30.5961C29.5975 31.6189 28.7761 30.9086 28.7761 29.4882V24.261ZM30.4472 28.4939C30.4472 29.2609 30.6737 29.4882 31.3535 29.1189C32.0332 28.7212 32.2598 28.2382 32.2598 27.4712V22.3007C32.2598 21.5337 32.0332 21.3064 31.3535 21.7041C30.6737 22.1019 30.4472 22.5848 30.4472 23.3519V28.4939Z"/>
<path d="M35.5732 28.0682V17.8409L37.131 16.9318L39.1702 21.5909L39.1985 21.5625V15.7103L40.728 14.8296V25.0568L39.2552 25.9091L37.1027 20.7671L37.0743 20.7955V27.1875L35.5732 28.0682Z"/>
<path d="M42.3711 24.1473V13.8917L43.9288 12.9826L45.9681 17.6701L45.9964 17.6417V11.761L47.5258 10.8804V21.1644L46.053 22.0167L43.9005 16.8462L43.8722 16.8747V23.2951L42.3711 24.1473Z"/>
<path d="M49.1682 20.2273V9.94321L53.6715 7.32959V8.86368L50.8392 10.5114V13.1534L53.0201 11.9034V13.4375L50.8392 14.6875V17.6989L53.8698 15.9659V17.5L49.1682 20.2273Z"/>
<path d="M58.5996 7.92644V7.13099C58.5996 6.25031 58.2314 6.10827 57.7783 6.36395C57.0985 6.76167 56.872 7.24462 56.872 8.04007V13.2389C56.872 14.0059 57.0985 14.2616 57.7783 13.8639C58.4014 13.523 58.5996 13.0116 58.5996 12.3582V11.1082L60.299 10.1423V11.3355C60.299 12.7844 59.4776 14.4605 57.8066 15.4264C56.0506 16.4491 55.2292 15.7389 55.2292 14.2616V8.94916C55.2292 7.5003 56.0506 5.82418 57.8066 4.80146C59.506 3.83555 60.299 4.631 60.299 6.19349V6.96053L58.5996 7.92644Z"/>
<path d="M62.9613 3.46589L61.3186 4.40339V2.8693L66.2751 0V1.56249L64.6323 2.49999V11.3068L62.933 12.2727V3.46589H62.9613Z"/>
<path d="M0 12.812L2.54904 14.2893C4.30504 15.312 5.26801 16.8177 5.26801 18.8631V22.812C5.26801 24.8574 4.33336 25.2551 2.54904 24.2324L0 22.7551L0 12.812ZM1.72768 22.329L2.32245 22.6699C3.22878 23.2097 3.54033 23.0392 3.54033 21.9881V17.6415C3.54033 16.5904 3.22878 16.079 2.32245 15.5393L1.72768 15.1984V22.329Z"/>
<path d="M7.6189 27.1585V17.2153L12.2072 19.8858V21.363L9.31825 19.6869V22.2437L11.5274 23.5221V24.9994L9.31825 23.721V26.6471L12.3771 28.4369V29.9141L7.6189 27.1585Z"/>
<path d="M17.9283 23.2099L19.6277 24.1758L17.5318 32.8689L15.8041 31.8746L13.7083 20.7383L15.4076 21.7042L16.6538 29.2894L16.6821 29.3178L17.9283 23.2099Z"/>
</svg>
