<svg width="83" height="35" viewBox="0 0 83 35" fill="currentColor" xmlns="http://www.w3.org/2000/svg">
<path d="M10.3449 26.5859V35L0 20.0103L10.3449 26.5859Z"/>
<path d="M20.6192 20.0103L10.3448 35V26.5859L20.6192 20.0103Z"/>
<path d="M20.6192 17.8891L10.3448 12.0205V24.4648L20.6192 17.8891Z"/>
<path d="M20.6192 17.8889L10.3448 0V12.0203L20.6192 17.8889Z"/>
<path d="M10.3449 0V12.0203L0 17.8889L10.3449 0Z"/>
<path d="M10.3449 12.0205V24.4648L0 17.8891L10.3449 12.0205Z"/>
<path d="M25.7251 6.38042C25.7144 5.83936 25.8385 5.30412 26.0863 4.82273C26.3145 4.3836 26.6647 4.01942 27.095 3.77376C27.5524 3.52006 28.0691 3.39211 28.5923 3.40298C29.1046 3.39446 29.6095 3.52637 30.0519 3.78435C30.4811 4.03969 30.829 4.41102 31.0556 4.8554C31.3025 5.34089 31.4265 5.87933 31.4167 6.42367V6.8686H27.2436C27.2485 7.03163 27.2869 7.19192 27.3563 7.33958C27.4257 7.48724 27.5247 7.61914 27.6472 7.72711C27.9201 7.95497 28.2687 8.07218 28.6241 8.05551C28.8972 8.05793 29.1667 7.99425 29.4097 7.8699C29.7059 7.70232 29.9716 7.48592 30.1955 7.22988L31.1407 8.19411C30.8253 8.54678 30.4426 8.83316 30.015 9.03651C29.58 9.24006 29.1046 9.34325 28.6241 9.33843C28.0942 9.34923 27.5707 9.2214 27.1056 8.96765C26.6717 8.72566 26.3176 8.36307 26.0863 7.92397C25.8386 7.44761 25.7145 6.91695 25.7251 6.38042ZM29.8876 5.76577C29.8755 5.61608 29.833 5.4704 29.7627 5.33761C29.6924 5.20481 29.5958 5.08768 29.4787 4.99333C29.225 4.79604 28.913 4.68803 28.5913 4.68611C28.2697 4.68419 27.9564 4.78848 27.7003 4.98274C27.4652 5.18319 27.3105 5.46166 27.2649 5.76688L29.8876 5.76577Z"/>
<path d="M32.3827 6.36988C32.3724 5.83394 32.4966 5.30393 32.7439 4.82808C32.9751 4.38931 33.3268 4.02542 33.7579 3.77911C34.2129 3.52366 34.728 3.39413 35.2499 3.40392C35.8608 3.38872 36.4592 3.57901 36.9486 3.94419C37.4243 4.30674 37.7646 4.81785 37.9151 5.39594L36.4497 5.79849C36.3951 5.5171 36.2541 5.25968 36.0461 5.06202C35.825 4.87375 35.5401 4.77709 35.2499 4.79189C35.0633 4.78207 34.877 4.81473 34.705 4.88737C34.5329 4.96002 34.3797 5.07076 34.2569 5.21121C34.0026 5.54282 33.8764 5.95463 33.9012 6.37142C33.8763 6.78822 34.0026 7.20004 34.2569 7.53163C34.3797 7.67212 34.5329 7.78289 34.7049 7.85554C34.877 7.92819 35.0633 7.96082 35.2499 7.95095C35.5401 7.96576 35.825 7.86909 36.0461 7.68082C36.2541 7.48316 36.3951 7.22574 36.4497 6.94435L37.9151 7.34691C37.7646 7.92502 37.4244 8.43615 36.9486 8.79865C36.4592 9.16383 35.8608 9.35412 35.2499 9.33892C34.728 9.34871 34.2129 9.21919 33.7579 8.96374C33.3268 8.71752 32.975 8.3536 32.7439 7.91476C32.496 7.43801 32.3719 6.90686 32.3827 6.36988Z"/>
<path d="M38.8281 6.36987C38.8178 5.83393 38.942 5.30393 39.1893 4.82808C39.4204 4.3893 39.7722 4.02541 40.2033 3.7791C40.6636 3.53227 41.1779 3.40308 41.7005 3.40308C42.223 3.40308 42.7374 3.53227 43.1976 3.7791C43.6287 4.02541 43.9805 4.3893 44.2116 4.82808C44.4589 5.30396 44.583 5.83394 44.5728 6.36987C44.5831 6.90581 44.4589 7.4358 44.2116 7.91167C43.9806 8.35051 43.6288 8.71442 43.1976 8.96064C42.7374 9.20748 42.223 9.33667 41.7005 9.33667C41.1779 9.33667 40.6636 9.20748 40.2033 8.96064C39.7721 8.71442 39.4203 8.35051 39.1893 7.91167C38.9419 7.43584 38.8177 6.90582 38.8281 6.36987ZM43.0543 6.36987C43.0792 5.95304 42.9529 5.54119 42.6985 5.20967C42.574 5.06851 42.419 4.95742 42.2452 4.88478C42.0714 4.81214 41.8834 4.77985 41.6953 4.79034C41.5087 4.78051 41.3224 4.81316 41.1504 4.88581C40.9784 4.95845 40.8252 5.0692 40.7025 5.20967C40.448 5.54119 40.3217 5.95304 40.3466 6.36987C40.3217 6.78671 40.448 7.19857 40.7025 7.53008C40.8319 7.66293 40.9869 7.76844 41.158 7.84032C41.3292 7.9122 41.5131 7.94898 41.6988 7.94849C41.8845 7.94799 42.0682 7.91023 42.239 7.83744C42.4098 7.76465 42.5642 7.65832 42.6929 7.52479C42.9491 7.19594 43.0774 6.78575 43.0543 6.36987Z"/>
<path d="M45.422 7.3235L46.8025 7.0057C46.8819 7.32963 47.0714 7.61609 47.3386 7.81632C47.6274 8.01254 47.9717 8.11096 48.3208 8.09705C48.5974 8.11023 48.8738 8.06697 49.1331 7.96993C49.2115 7.94608 49.2806 7.89867 49.331 7.83417C49.3814 7.76966 49.4106 7.69121 49.4146 7.60953C49.4131 7.52066 49.3848 7.4343 49.3336 7.36161C49.2823 7.28891 49.2104 7.2332 49.1271 7.20168C48.7893 7.06378 48.4364 6.966 48.0757 6.91036C47.2403 6.75499 46.6439 6.53951 46.2865 6.26393C46.1122 6.13208 45.9724 5.96012 45.879 5.76272C45.7856 5.56532 45.7414 5.34832 45.7502 5.13021C45.7455 4.80522 45.8502 4.48805 46.0477 4.22954C46.2646 3.95389 46.5531 3.7429 46.8819 3.61953C47.2728 3.46868 47.6894 3.39493 48.1085 3.40237C48.7012 3.39192 49.2841 3.55388 49.7862 3.86848C50.2525 4.15162 50.6025 4.59115 50.7737 5.10836L49.4677 5.5321C49.372 5.26313 49.1912 5.03253 48.9526 4.87508C48.6971 4.71474 48.3996 4.63363 48.0978 4.64203C47.8709 4.63162 47.6448 4.67709 47.4397 4.77444C47.368 4.80543 47.3067 4.85643 47.2634 4.9213C47.22 4.98618 47.1964 5.06217 47.1953 5.14014C47.1953 5.28139 47.2855 5.39615 47.466 5.48443C47.7816 5.61037 48.1114 5.69752 48.4482 5.74397C49.312 5.90655 49.9297 6.13085 50.3011 6.41688C50.4834 6.55596 50.6293 6.73697 50.7264 6.94448C50.8235 7.152 50.8688 7.37986 50.8586 7.60864C50.8638 7.93959 50.753 8.26196 50.5454 8.52013C50.3099 8.79989 50.0011 9.00893 49.6535 9.12395C49.2252 9.27216 48.774 9.34388 48.3208 9.33582C47.6457 9.36152 46.9794 9.17636 46.4148 8.80615C45.9091 8.45377 45.5548 7.92453 45.422 7.3235Z"/>
<path d="M53.8309 8.95542L51.5912 3.56201H53.1836L54.5848 7.15409H54.607L55.9983 3.56201H57.5907L54.3201 11.5621H52.7381L53.8309 8.95542Z"/>
<path d="M57.8877 7.32358L59.2682 7.00577C59.3477 7.32966 59.5371 7.6161 59.8043 7.81639C60.0931 8.01262 60.4375 8.11103 60.7867 8.09712C61.0632 8.11029 61.3396 8.06703 61.5988 7.97C61.6772 7.94615 61.7463 7.89874 61.7967 7.83424C61.8471 7.76974 61.8763 7.69129 61.8803 7.6096C61.8787 7.52073 61.8505 7.43438 61.7993 7.36168C61.748 7.28898 61.6761 7.23328 61.5928 7.20175C61.255 7.06379 60.9021 6.96601 60.5414 6.91043C59.7063 6.75506 59.1099 6.53958 58.7522 6.26401C58.5779 6.13215 58.4381 5.9602 58.3447 5.7628C58.2513 5.5654 58.2071 5.3484 58.2159 5.13028C58.2113 4.8053 58.316 4.48817 58.5134 4.22962C58.7302 3.95433 59.0185 3.74358 59.3469 3.62027C59.7379 3.46939 60.1544 3.39564 60.5735 3.4031C61.1662 3.39269 61.7492 3.55465 62.2512 3.86922C62.7174 4.15237 63.0674 4.5919 63.2385 5.1091L61.9336 5.53284C61.838 5.26383 61.6572 5.03321 61.4186 4.87582C61.1631 4.71538 60.8657 4.63426 60.564 4.64276C60.337 4.63238 60.1108 4.67785 59.9056 4.77518C59.8341 4.80631 59.7731 4.85737 59.7299 4.92224C59.6868 4.98711 59.6633 5.06302 59.6623 5.14088C59.6623 5.28212 59.7525 5.39689 59.9328 5.48516C60.2485 5.61109 60.5784 5.69825 60.9152 5.7447C61.7787 5.90729 62.3964 6.13159 62.7681 6.41761C62.9503 6.55674 63.0962 6.73777 63.1932 6.94528C63.2903 7.15278 63.3356 7.38062 63.3254 7.60938C63.3307 7.94035 63.2199 8.26275 63.0122 8.52086C62.7767 8.80063 62.4679 9.00966 62.1203 9.12469C61.6921 9.27288 61.241 9.3446 60.7878 9.33656C60.1126 9.36226 59.4463 9.1771 58.8816 8.80688C58.3754 8.45455 58.0206 7.92502 57.8877 7.32358Z"/>
<path d="M66.9772 4.9181V7.17517C66.9702 7.24941 66.9784 7.3243 67.0012 7.39531C67.024 7.46632 67.061 7.53197 67.1099 7.58832C67.2354 7.68501 67.3931 7.73053 67.5509 7.71566H68.8357V9.17778H67.4129C66.8939 9.21112 66.3805 9.05477 65.9685 8.73793C65.7952 8.57983 65.6595 8.38499 65.5715 8.16773C65.4835 7.95046 65.4453 7.71628 65.4598 7.48238V4.9181H64.0793V3.56191H65.4598V2.13135H66.9783V3.56191H69.1869V4.9181H66.9772Z"/>
<path d="M70.2049 6.38044C70.1942 5.83938 70.3183 5.30414 70.566 4.82275C70.7943 4.38371 71.1445 4.0196 71.5748 3.774C72.0321 3.52033 72.5487 3.39238 73.0718 3.40322C73.5842 3.39472 74.089 3.52662 74.5315 3.78459C74.9607 4.03984 75.3087 4.41109 75.5353 4.85542C75.7822 5.34091 75.9062 5.87935 75.8965 6.42369V6.86862H71.7229C71.7277 7.03165 71.766 7.19196 71.8354 7.33963C71.9048 7.48731 72.0038 7.6192 72.1263 7.72713C72.3992 7.95491 72.7478 8.07211 73.1032 8.05553C73.3763 8.0579 73.6459 7.99422 73.889 7.86993C74.1852 7.70233 74.4508 7.48593 74.6746 7.2299L75.6198 8.19413C75.3044 8.5468 74.9217 8.83318 74.4941 9.03653C74.0591 9.24008 73.5837 9.34327 73.1032 9.33845C72.5733 9.34925 72.0498 9.22142 71.5847 8.96768C71.1507 8.72575 70.7966 8.36314 70.5654 7.924C70.318 7.44757 70.194 6.91692 70.2049 6.38044ZM74.3674 5.76579C74.3553 5.61612 74.3128 5.47046 74.2425 5.33767C74.1723 5.20488 74.0757 5.08774 73.9587 4.99335C73.7049 4.79608 73.3929 4.68808 73.0712 4.68616C72.7495 4.68425 72.4362 4.78852 72.1801 4.98276C71.945 5.18327 71.7904 5.46171 71.7446 5.7669L74.3674 5.76579Z"/>
<path d="M76.9155 3.56188H78.2533V4.04918H78.2755C78.3886 3.86518 78.5477 3.71369 78.7372 3.60955C78.9277 3.50606 79.1414 3.45288 79.3583 3.45506C79.5766 3.45453 79.7912 3.51218 79.9797 3.62206C80.1683 3.73193 80.3241 3.89005 80.4309 4.08007H80.453C80.5765 3.88365 80.7492 3.72272 80.954 3.61313C81.1588 3.50354 81.3887 3.44906 81.621 3.45506C81.8093 3.44874 81.9966 3.48446 82.1692 3.5596C82.3419 3.63474 82.4956 3.74741 82.6191 3.88939C82.8837 4.20652 83.0201 4.61085 83.0015 5.02312V9.17775H81.5998V5.28906C81.6045 5.22186 81.5956 5.15439 81.5738 5.09067C81.5519 5.02694 81.5174 4.96824 81.4724 4.91806C81.4238 4.8737 81.3668 4.83958 81.3048 4.81773C81.2427 4.79589 81.1769 4.78678 81.1112 4.79094C81.0451 4.78794 80.9792 4.79916 80.9178 4.82383C80.8564 4.84851 80.8011 4.88607 80.7556 4.93395C80.6628 5.04091 80.6152 5.17959 80.6229 5.32084V9.17775H79.2959V5.28906C79.3036 5.15605 79.2599 5.02516 79.1738 4.92336C79.1292 4.87793 79.0752 4.84259 79.0157 4.81975C78.9562 4.7969 78.8925 4.78708 78.8288 4.79094C78.7603 4.78761 78.6918 4.79861 78.6278 4.82324C78.5638 4.84787 78.5056 4.88558 78.457 4.93395C78.4096 4.98618 78.373 5.04725 78.3493 5.11364C78.3256 5.18004 78.3153 5.25045 78.319 5.32084V9.17775H76.9175L76.9155 3.56188Z"/>
<path d="M25.874 18.7997L27.2543 18.4816C27.3336 18.8057 27.5232 19.0922 27.7906 19.2922C28.0793 19.4887 28.4237 19.5872 28.7728 19.5732C29.0493 19.5864 29.3257 19.5431 29.5849 19.4461C29.6633 19.4222 29.7324 19.3749 29.7827 19.3104C29.8331 19.2459 29.8624 19.1675 29.8664 19.0859C29.8649 18.997 29.8366 18.9106 29.7854 18.8379C29.7341 18.7651 29.6622 18.7094 29.5789 18.6778C29.2412 18.5398 28.8884 18.442 28.5278 18.3865C27.6922 18.2311 27.0957 18.0157 26.7383 17.7401C26.564 17.6082 26.4242 17.4363 26.3309 17.2389C26.2375 17.0415 26.1934 16.8245 26.2022 16.6064C26.1975 16.2814 26.3022 15.9643 26.4995 15.7057C26.7164 15.4305 27.0046 15.2197 27.333 15.0963C27.724 14.9455 28.1405 14.8717 28.5596 14.8792C29.1523 14.8688 29.7353 15.0307 30.2373 15.3453C30.7036 15.6284 31.0535 16.068 31.2246 16.5852L29.9186 17.0091C29.8231 16.7401 29.6423 16.5094 29.4038 16.3519C29.1482 16.1915 28.8506 16.1104 28.5488 16.1188C28.3218 16.1085 28.0958 16.1539 27.8906 16.2513C27.8191 16.2824 27.7581 16.3334 27.7149 16.3983C27.6718 16.4632 27.6483 16.5391 27.6473 16.617C27.6473 16.7582 27.7375 16.873 27.918 16.9612C28.2337 17.0871 28.5635 17.1743 28.9002 17.2208C29.7638 17.3835 30.3814 17.6078 30.7531 17.8937C31.0586 18.1447 31.2547 18.5041 31.3001 18.8964C31.3455 19.2887 31.2366 19.6833 30.9964 19.9972C30.7609 20.2769 30.4522 20.486 30.1046 20.601C29.6763 20.7492 29.2252 20.8209 28.7719 20.8129C28.0968 20.8386 27.4304 20.6534 26.8657 20.2832C26.3601 19.9306 26.0061 19.4009 25.874 18.7997Z"/>
<path d="M32.2767 18.7467V15.039H33.7952V18.398C33.7952 19.0833 34.1349 19.4259 34.8145 19.4258C34.9487 19.4322 35.0827 19.4106 35.208 19.3622C35.3333 19.3138 35.447 19.2397 35.5419 19.1448C35.6343 19.0444 35.7057 18.9267 35.7522 18.7985C35.7987 18.6703 35.8192 18.5341 35.8126 18.398V15.0381H37.3322V20.654H35.8774V20.1558H35.8564C35.685 20.3653 35.4643 20.5292 35.2139 20.6328C34.9448 20.7521 34.6536 20.8134 34.3591 20.8129C33.6936 20.8129 33.1803 20.631 32.8194 20.2673C32.6314 20.0631 32.4864 19.8233 32.3932 19.562C32.2999 19.3008 32.2603 19.0235 32.2767 18.7467Z"/>
<path d="M39.0406 15.0382H40.4948V15.5255H40.5158C40.7197 15.3135 40.9659 15.1465 41.2384 15.0352C41.511 14.9239 41.8038 14.8708 42.0982 14.8793C42.5689 14.8724 43.0315 15.0011 43.4307 15.2501C43.8296 15.5043 44.148 15.8662 44.349 16.2938C44.5765 16.7792 44.6893 17.3103 44.6785 17.8461C44.6867 18.3732 44.574 18.8952 44.349 19.372C44.1465 19.8045 43.8264 20.1716 43.4252 20.4314C43.0226 20.6875 42.5535 20.8201 42.0761 20.8128C41.7826 20.8172 41.4909 20.7669 41.216 20.6645C40.9777 20.5762 40.7607 20.439 40.5788 20.2619H40.5578V23.0381H39.0393L39.0406 15.0382ZM43.1604 17.8461C43.1819 17.4321 43.0538 17.0242 42.7993 16.6965C42.6769 16.5536 42.5234 16.4405 42.3504 16.3661C42.1774 16.2917 41.9896 16.2579 41.8014 16.2673C41.639 16.265 41.4778 16.2952 41.3273 16.3562C41.1768 16.4172 41.0402 16.5077 40.9254 16.6224C40.8074 16.7329 40.7138 16.8668 40.6507 17.0155C40.5876 17.1642 40.5564 17.3245 40.5591 17.486V18.2169C40.5584 18.4268 40.6173 18.6326 40.729 18.8104C40.8451 18.9971 41.0079 19.1504 41.2014 19.2553C41.4075 19.3696 41.6399 19.4281 41.8757 19.425C42.0552 19.4323 42.2338 19.3973 42.3971 19.3227C42.5604 19.2481 42.7037 19.1361 42.8154 18.9958C43.06 18.6638 43.1819 18.2576 43.1604 17.8461Z"/>
<path d="M45.6981 15.0382H47.1529V15.5255H47.175C47.3789 15.3135 47.625 15.1465 47.8975 15.0352C48.17 14.9239 48.4629 14.8708 48.7572 14.8793C49.2279 14.8724 49.6905 15.0011 50.0897 15.2501C50.4887 15.5042 50.8072 15.8661 51.0082 16.2938C51.2357 16.7792 51.3484 17.3103 51.3375 17.8461C51.3458 18.3732 51.2331 18.8951 51.0082 19.372C50.8057 19.8045 50.4857 20.1716 50.0844 20.4314C49.6818 20.6875 49.2127 20.8201 48.7353 20.8128C48.4419 20.8172 48.1503 20.7669 47.8754 20.6645C47.6371 20.5763 47.42 20.4392 47.2382 20.2619H47.2161V23.0381H45.6976L45.6981 15.0382ZM49.8181 17.8461C49.8396 17.4321 49.7114 17.0242 49.4569 16.6965C49.3345 16.5536 49.1809 16.4406 49.0079 16.3662C48.8349 16.2917 48.647 16.2579 48.4588 16.2673C48.2964 16.265 48.1352 16.2952 47.9848 16.3562C47.8343 16.4172 47.6976 16.5077 47.5828 16.6224C47.4648 16.7329 47.3713 16.8668 47.3082 17.0155C47.2452 17.1643 47.2139 17.3245 47.2166 17.486V18.2169C47.2159 18.4268 47.2748 18.6325 47.3864 18.8104C47.5026 18.9971 47.6654 19.1504 47.8588 19.2553C48.0649 19.3696 48.2974 19.4281 48.5332 19.425C48.7126 19.4323 48.8912 19.3973 49.0545 19.3227C49.2178 19.2481 49.3612 19.1361 49.4729 18.9958C49.7175 18.6638 49.8395 18.2576 49.8181 17.8461Z"/>
<path d="M52.3557 17.8462C52.3454 17.3102 52.4695 16.7802 52.7169 16.3044C52.9479 15.8656 53.2997 15.5016 53.7309 15.2554C54.1912 15.0086 54.7055 14.8794 55.228 14.8794C55.7506 14.8794 56.2649 15.0086 56.7252 15.2554C57.1563 15.5017 57.5081 15.8656 57.7392 16.3044C57.9768 16.7838 58.1004 17.3114 58.1004 17.8462C58.1004 18.381 57.9768 18.9086 57.7392 19.388C57.5082 19.8268 57.1564 20.1907 56.7252 20.437C56.2649 20.6838 55.7506 20.813 55.228 20.813C54.7055 20.813 54.1912 20.6838 53.7309 20.437C53.2997 20.1907 52.9479 19.8268 52.7169 19.388C52.4695 18.9122 52.3453 18.3821 52.3557 17.8462ZM56.5819 17.8462C56.6068 17.4294 56.4805 17.0175 56.226 16.686C56.1016 16.5448 55.9465 16.4337 55.7727 16.3611C55.5989 16.2884 55.4108 16.2561 55.2226 16.2667C55.0361 16.2568 54.8499 16.2895 54.6779 16.3621C54.5059 16.4348 54.3528 16.5455 54.2301 16.686C53.9757 17.0175 53.8495 17.4294 53.8744 17.8462C53.8494 18.263 53.9756 18.6749 54.2301 19.0064C54.3595 19.1393 54.5145 19.2448 54.6856 19.3166C54.8568 19.3885 55.0407 19.4253 55.2264 19.4248C55.4121 19.4243 55.5958 19.3865 55.7666 19.3138C55.9374 19.241 56.0918 19.1346 56.2205 19.0011C56.4767 18.6723 56.605 18.2621 56.5819 17.8462Z"/>
<path d="M59.2683 15.0382H60.7229V15.5573H60.745C60.9528 15.3336 61.2064 15.1573 61.4886 15.0403C61.7709 14.9233 62.0751 14.8684 62.3805 14.8793C62.8392 14.8692 63.2867 15.0212 63.644 15.3083C64.0087 15.6112 64.2688 16.0209 64.3873 16.4794L62.9644 16.9455C62.9004 16.7329 62.7654 16.5486 62.5819 16.4233C62.3984 16.298 62.1774 16.2392 61.9557 16.2567C61.7949 16.2455 61.6336 16.2696 61.4832 16.3273C61.3328 16.385 61.1968 16.4748 61.0849 16.5906C60.8747 16.8483 60.7687 17.1752 60.7877 17.5069V20.6541H59.2692L59.2683 15.0382Z"/>
<path d="M68.039 16.3944V18.6515C68.032 18.7257 68.0402 18.8006 68.063 18.8716C68.0858 18.9426 68.1228 19.0083 68.1717 19.0646C68.2972 19.1613 68.4547 19.2068 68.6125 19.1918H69.8975V20.6541H68.4745C67.9556 20.6874 67.4423 20.5311 67.0303 20.2145C66.8568 20.0564 66.721 19.8616 66.6327 19.6444C66.5445 19.4271 66.5062 19.1929 66.5205 18.9589V16.3944H65.1403V15.0382H66.5205V13.6077H68.0393V15.0382H70.2478V16.3944H68.039Z"/>
<path d="M25.9376 26.5145H27.3922V27.002H27.4143C27.6182 26.79 27.8643 26.6229 28.1368 26.5115C28.4093 26.4001 28.7022 26.3469 28.9965 26.3554C29.4672 26.3485 29.9299 26.4773 30.329 26.7264C30.728 26.9805 31.0466 27.3424 31.2477 27.77C31.475 28.2555 31.5876 28.7866 31.5768 29.3224C31.5851 29.8494 31.4725 30.3714 31.2477 30.8483C31.0452 31.2808 30.725 31.6479 30.3237 31.9077C29.9211 32.1638 29.452 32.2964 28.9746 32.289C28.6812 32.2934 28.3895 32.2431 28.1145 32.1407C27.8763 32.0525 27.6592 31.9153 27.4774 31.7382H27.4563V34.5143H25.9378L25.9376 26.5145ZM30.0574 29.3224C30.079 28.9084 29.9509 28.5005 29.6965 28.1728C29.574 28.0299 29.4204 27.917 29.2474 27.8426C29.0744 27.7681 28.8866 27.7343 28.6984 27.7435C28.536 27.7412 28.3748 27.7714 28.2243 27.8324C28.0738 27.8934 27.9371 27.9839 27.8224 28.0986C27.7044 28.2092 27.6108 28.3431 27.5477 28.4918C27.4847 28.6405 27.4535 28.8008 27.4561 28.9622V29.6932C27.4554 29.9031 27.5143 30.1088 27.626 30.2866C27.7421 30.4733 27.9049 30.6267 28.0984 30.7316C28.3045 30.8459 28.5369 30.9044 28.7727 30.9013C28.9521 30.9086 29.1308 30.8735 29.2941 30.7989C29.4573 30.7243 29.6007 30.6123 29.7124 30.472C29.957 30.1401 30.0789 29.7339 30.0574 29.3224Z"/>
<path d="M32.6378 26.5145H34.0924V27.0335H34.1145C34.3222 26.8099 34.5758 26.6336 34.8579 26.5165C35.1401 26.3995 35.4442 26.3445 35.7496 26.3553C36.2083 26.3453 36.6558 26.4974 37.0131 26.7846C37.3779 27.0873 37.6379 27.4969 37.7564 27.9554L36.3337 28.4217C36.2697 28.2092 36.1347 28.0249 35.9512 27.8996C35.7677 27.7743 35.5466 27.7154 35.3249 27.7329C35.1642 27.7218 35.0029 27.7459 34.8525 27.8035C34.702 27.8612 34.5661 27.9511 34.4542 28.0669C34.2438 28.3245 34.1377 28.6514 34.1568 28.9832V32.1303H32.6385L32.6378 26.5145Z"/>
<path d="M38.4034 29.3223C38.3931 28.7864 38.5172 28.2564 38.7644 27.7805C38.9957 27.3417 39.3475 26.9779 39.7786 26.7315C40.2388 26.4845 40.7532 26.3552 41.2758 26.3552C41.7983 26.3552 42.3127 26.4845 42.7729 26.7315C43.2039 26.9779 43.5556 27.3418 43.7867 27.7805C44.0243 28.2599 44.1479 28.7875 44.1479 29.3223C44.1479 29.8571 44.0243 30.3847 43.7867 30.8641C43.5556 31.3028 43.2039 31.6667 42.7727 31.9128C42.3125 32.1597 41.7981 32.2889 41.2756 32.2889C40.753 32.2889 40.2387 32.1597 39.7784 31.9128C39.3471 31.6667 38.9953 31.3027 38.7641 30.8639C38.5171 30.388 38.3931 29.8581 38.4034 29.3223ZM42.6296 29.3223C42.6544 28.9055 42.5281 28.4937 42.2738 28.1621C42.1493 28.0209 41.9942 27.9098 41.8204 27.8372C41.6466 27.7646 41.4585 27.7323 41.2704 27.7428C41.0838 27.7329 40.8975 27.7656 40.7255 27.8382C40.5535 27.9109 40.4003 28.0216 40.2776 28.1621C40.0459 28.5048 39.9221 28.9088 39.9221 29.3223C39.9221 29.7357 40.0459 30.1398 40.2776 30.4825C40.407 30.6153 40.562 30.7209 40.7331 30.7927C40.9043 30.8646 41.0882 30.9014 41.2739 30.9009C41.4596 30.9004 41.6433 30.8626 41.8141 30.7899C41.9849 30.7171 42.1393 30.6107 42.268 30.4772C42.5243 30.1484 42.6527 29.7382 42.6296 29.3223Z"/>
<path d="M45.4751 33.3807L46.6327 32.5014C46.7975 32.7586 47.0163 32.977 47.274 33.1414C47.5203 33.2725 47.7968 33.3365 48.0757 33.327C48.4217 33.345 48.7609 33.2271 49.0208 32.9984C49.1405 32.8799 49.2336 32.7374 49.294 32.5803C49.3544 32.4232 49.3806 32.2551 49.3711 32.0872V31.6846H49.3501C49.1663 31.8812 48.944 32.0381 48.697 32.1454C48.4312 32.2471 48.148 32.2957 47.8634 32.2884C47.3852 32.2975 46.9147 32.1671 46.5097 31.9132C46.1118 31.6571 45.7951 31.2933 45.5965 30.8643C45.373 30.3814 45.2622 29.8542 45.2725 29.3225C45.263 28.793 45.3776 28.2687 45.6071 27.7913C45.8128 27.3623 46.1322 26.9978 46.5307 26.737C46.931 26.4804 47.3984 26.3477 47.874 26.3554C48.1532 26.3485 48.431 26.3953 48.6923 26.4933C48.9277 26.5911 49.1408 26.7352 49.3189 26.9171H49.341V26.5145H50.8064V32.1516C50.815 32.613 50.6955 33.0678 50.4612 33.4656C50.2313 33.8468 49.8981 34.1553 49.5 34.3555C48.819 34.6792 48.047 34.7589 47.314 34.5814C46.5809 34.4039 45.9315 33.9799 45.4749 33.3807H45.4751ZM49.287 29.6826V28.9517C49.2947 28.7896 49.2684 28.6276 49.2099 28.4762C49.1515 28.3247 49.062 28.1871 48.9473 28.072C48.8314 27.9622 48.6947 27.8766 48.5452 27.8202C48.3957 27.7638 48.2364 27.7377 48.0766 27.7436C47.8977 27.7361 47.7195 27.7705 47.5563 27.8442C47.3931 27.9178 47.2495 28.0285 47.1369 28.1676C46.911 28.5088 46.7909 28.909 46.7919 29.318C46.7928 29.727 46.9147 30.1266 47.1422 30.4668C47.2511 30.6066 47.3915 30.7189 47.552 30.7944C47.7125 30.8699 47.8886 30.9065 48.066 30.9013C48.2772 30.9017 48.4845 30.8449 48.666 30.7371C48.8519 30.6294 49.0071 30.4762 49.1172 30.292C49.2294 30.1086 49.2882 29.8976 49.287 29.6826Z"/>
<path d="M52.3984 26.5145H53.853V27.0336H53.8751C54.0829 26.8099 54.3365 26.6335 54.6187 26.5165C54.9009 26.3995 55.205 26.3445 55.5104 26.3553C55.9691 26.3453 56.4166 26.4974 56.7739 26.7846C57.1387 27.0873 57.3988 27.4969 57.5172 27.9554L56.0945 28.4217C56.0305 28.2092 55.8955 28.0248 55.7119 27.8995C55.5284 27.7742 55.3073 27.7154 55.0856 27.7329C54.9248 27.7218 54.7636 27.7459 54.6132 27.8035C54.4628 27.8612 54.3269 27.9511 54.2151 28.0669C54.0047 28.3245 53.8985 28.6514 53.9176 28.9832V32.1303H52.3993L52.3984 26.5145Z"/>
<path d="M58.3019 30.6258C58.2899 30.395 58.3321 30.1646 58.4252 29.953C58.5183 29.7414 58.6598 29.5545 58.8382 29.4071C59.1956 29.1176 59.792 28.9056 60.6274 28.7713C60.9368 28.7375 61.2393 28.6571 61.5247 28.5329C61.5943 28.5027 61.6538 28.4532 61.6961 28.3903C61.7385 28.3275 61.762 28.2538 61.7637 28.1781C61.7645 28.0962 61.7432 28.0156 61.7021 27.9447C61.661 27.8739 61.6015 27.8154 61.53 27.7753C61.3359 27.6669 61.1151 27.6154 60.893 27.627C60.6048 27.6214 60.3241 27.7191 60.1019 27.9024C59.8775 28.0886 59.7254 28.3472 59.672 28.6336L58.2596 28.3158C58.3272 27.9409 58.4919 27.5902 58.7374 27.2986C58.9905 26.9978 59.3105 26.7601 59.672 26.6045C60.0568 26.4364 60.473 26.3515 60.893 26.3553C61.5268 26.3237 62.1478 26.5405 62.6236 26.9594C62.8405 27.1663 63.0104 27.4171 63.1221 27.695C63.2339 27.9729 63.2848 28.2714 63.2714 28.5705V32.1308H61.9121V31.5055H61.8911C61.7215 31.7585 61.4839 31.9587 61.2055 32.0831C60.894 32.2245 60.5549 32.2951 60.2127 32.2897C59.8716 32.2956 59.5337 32.2231 59.2252 32.0778C58.9473 31.9476 58.7118 31.7419 58.5456 31.4843C58.3822 31.228 58.2975 30.9296 58.3019 30.6258ZM61.8274 30.043V29.4071H61.8053C61.7289 29.5236 61.6172 29.6127 61.4866 29.6616C61.2597 29.7472 61.0251 29.811 60.786 29.8523C60.5006 29.8983 60.2243 29.9895 59.9677 30.1224C59.8984 30.1627 59.8411 30.2208 59.8019 30.2907C59.7627 30.3605 59.743 30.4396 59.7448 30.5197C59.7414 30.5933 59.7579 30.6666 59.7924 30.7318C59.827 30.797 59.8783 30.8518 59.9411 30.8907C60.1147 30.9858 60.3117 31.0299 60.5093 31.0178C60.7321 31.0185 60.9526 30.9735 61.1571 30.8854C61.3475 30.808 61.5154 30.6842 61.6454 30.5252C61.76 30.3902 61.8244 30.2198 61.8274 30.043Z"/>
<path d="M64.6624 26.5145H66.0002V27.002H66.0223C66.1355 26.8181 66.2946 26.6665 66.4841 26.5622C66.6746 26.4587 66.8884 26.4055 67.1053 26.4077C67.3237 26.4072 67.5382 26.4649 67.7268 26.5748C67.9154 26.6847 68.0711 26.8429 68.1779 27.0329H68.2001C68.3236 26.8365 68.4963 26.6755 68.7011 26.5659C68.906 26.4562 69.1359 26.4017 69.3682 26.4077C69.5565 26.4014 69.7439 26.4372 69.9165 26.5124C70.0892 26.5875 70.2429 26.7002 70.3663 26.8422C70.631 27.1594 70.7674 27.5638 70.7487 27.9762V32.1297H69.347V28.241C69.3517 28.1738 69.3429 28.1064 69.321 28.0427C69.2991 27.9789 69.2646 27.9202 69.2196 27.87C69.1711 27.8257 69.1141 27.7916 69.052 27.7698C68.99 27.7479 68.9241 27.7388 68.8585 27.7429C68.7923 27.7399 68.7263 27.7512 68.6649 27.7759C68.6035 27.8006 68.5482 27.8382 68.5026 27.8861C68.4099 27.993 68.3623 28.1316 68.3699 28.2728V32.1297H67.0429V28.241C67.0506 28.1081 67.0069 27.9773 66.9209 27.8755C66.8762 27.8301 66.8223 27.7947 66.7628 27.7719C66.7033 27.749 66.6395 27.7392 66.5759 27.7431C66.5073 27.7398 66.4388 27.7508 66.3748 27.7754C66.3107 27.8001 66.2526 27.8379 66.2041 27.8864C66.1566 27.9385 66.12 27.9996 66.0963 28.0659C66.0726 28.1323 66.0624 28.2027 66.0661 28.273V32.1299H64.6646L64.6624 26.5145Z"/>
</svg>
