<svg width="266" height="36" viewBox="0 0 266 36" fill="currentColor" xmlns="http://www.w3.org/2000/svg">
<path d="M10.2846 27.4327V35.907L0.0380859 20.8818L10.2846 27.4327Z" />
<path d="M20.5317 20.8818L10.2844 35.907V27.4327L20.5317 20.8818Z" />
<path d="M20.5317 18.7651L10.2844 12.9199V25.3167L20.5317 18.7651Z" />
<path d="M20.5317 18.765L10.2844 0.907227V12.9198L20.5317 18.765Z" />
<path d="M10.2846 0.907227V12.9198L0.0380859 18.765L10.2846 0.907227Z" />
<path d="M10.2846 12.9199V25.3167L0.0380859 18.7651L10.2846 12.9199Z" />
<path d="M30.9287 10.0286C30.9287 9.35308 31.0671 8.75491 31.3438 8.23406C31.6205 7.7132 32.007 7.31036 32.5035 7.02551C32.9999 6.74067 33.5737 6.59825 34.2247 6.59825C34.8514 6.59825 35.4089 6.74474 35.8972 7.03772C36.3936 7.3307 36.7802 7.74169 37.0569 8.27068C37.3336 8.79967 37.4719 9.40191 37.4719 10.0774V10.5901H32.6744C32.6988 10.997 32.8534 11.3266 33.1383 11.5789C33.4231 11.8312 33.7975 11.9574 34.2614 11.9574C34.5869 11.9574 34.888 11.8882 35.1647 11.7498C35.4414 11.6033 35.7425 11.3551 36.0681 11.0052L37.1546 12.1161C36.7802 12.5311 36.3489 12.8566 35.8606 13.0927C35.3723 13.3205 34.8392 13.4345 34.2614 13.4345C33.6022 13.4345 33.0203 13.292 32.5157 13.0072C32.0111 12.7224 31.6205 12.3236 31.3438 11.8109C31.0671 11.29 30.9287 10.6959 30.9287 10.0286ZM35.7141 9.32053C35.6815 8.96244 35.5228 8.66539 35.238 8.42938C34.9613 8.19337 34.6235 8.07536 34.2247 8.07536C33.8097 8.07536 33.4679 8.1893 33.1993 8.41717C32.9307 8.64505 32.7639 8.94616 32.6988 9.32053H35.7141Z" />
<path d="M43.1166 8.34393V10.9441C43.1166 11.1639 43.1654 11.3226 43.2631 11.4202C43.3689 11.5179 43.5398 11.5667 43.7758 11.5667H45.2529V13.2514H43.6171C42.9009 13.2514 42.3475 13.0845 41.9569 12.7508C41.5662 12.409 41.3709 11.9248 41.3709 11.2981V8.34393H39.7839V6.78136H41.3709V5.13335H43.1166V6.78136H45.6558V8.34393H43.1166Z" />
<path d="M48.2119 4.33986H49.9576V7.37953H49.982C50.4377 6.85868 51.0603 6.59825 51.8498 6.59825C52.3218 6.59825 52.7409 6.71219 53.1071 6.94006C53.4734 7.16793 53.7582 7.4894 53.9617 7.90446C54.1651 8.31951 54.2668 8.79967 54.2668 9.34494V13.2514H52.5212V9.57689C52.5212 9.14555 52.4113 8.80781 52.1916 8.56366C51.9718 8.31951 51.6707 8.19744 51.2882 8.19744C50.8732 8.19744 50.5476 8.31951 50.3116 8.56366C50.0756 8.79967 49.9576 9.12928 49.9576 9.55247V13.2514H48.2119V4.33986Z" />
<path d="M56.3957 10.0286C56.3957 9.35308 56.5341 8.75491 56.8108 8.23406C57.0875 7.7132 57.4741 7.31036 57.9705 7.02551C58.4669 6.74067 59.0407 6.59825 59.6918 6.59825C60.3184 6.59825 60.8759 6.74474 61.3642 7.03772C61.8606 7.3307 62.2472 7.74169 62.5239 8.27068C62.8006 8.79967 62.939 9.40191 62.939 10.0774V10.5901H58.1414C58.1658 10.997 58.3204 11.3266 58.6053 11.5789C58.8901 11.8312 59.2645 11.9574 59.7284 11.9574C60.0539 11.9574 60.355 11.8882 60.6317 11.7498C60.9084 11.6033 61.2096 11.3551 61.5351 11.0052L62.6216 12.1161C62.2472 12.5311 61.8159 12.8566 61.3276 13.0927C60.8393 13.3205 60.3062 13.4345 59.7284 13.4345C59.0692 13.4345 58.4873 13.292 57.9827 13.0072C57.4781 12.7224 57.0875 12.3236 56.8108 11.8109C56.5341 11.29 56.3957 10.6959 56.3957 10.0286ZM61.1811 9.32053C61.1485 8.96244 60.9898 8.66539 60.705 8.42938C60.4283 8.19337 60.0905 8.07536 59.6918 8.07536C59.2767 8.07536 58.9349 8.1893 58.6663 8.41717C58.3978 8.64505 58.2309 8.94616 58.1658 9.32053H61.1811Z" />
<path d="M65.666 6.78136H67.3384V7.37953H67.3629C67.6396 7.10283 67.9244 6.90344 68.2174 6.78136C68.5185 6.65929 68.8603 6.59825 69.2428 6.59825C69.8044 6.59825 70.2886 6.76509 70.6955 7.09876C71.1024 7.42429 71.3873 7.8719 71.55 8.44159L69.9142 8.97872C69.7271 8.44973 69.3405 8.18523 68.7545 8.18523C68.315 8.18523 67.9814 8.31544 67.7535 8.57587C67.5256 8.82816 67.4117 9.17811 67.4117 9.62572V13.2514H65.666V6.78136Z" />
<path d="M73.3737 10.0286C73.3737 9.35308 73.5121 8.75491 73.7888 8.23406C74.0655 7.7132 74.4521 7.31036 74.9485 7.02551C75.4449 6.74067 76.0187 6.59825 76.6698 6.59825C77.2964 6.59825 77.8539 6.74474 78.3422 7.03772C78.8386 7.3307 79.2252 7.74169 79.5019 8.27068C79.7786 8.79967 79.917 9.40191 79.917 10.0774V10.5901H75.1194C75.1438 10.997 75.2985 11.3266 75.5833 11.5789C75.8681 11.8312 76.2425 11.9574 76.7064 11.9574C77.0319 11.9574 77.333 11.8882 77.6097 11.7498C77.8865 11.6033 78.1876 11.3551 78.5131 11.0052L79.5996 12.1161C79.2252 12.5311 78.7939 12.8566 78.3056 13.0927C77.8173 13.3205 77.2842 13.4345 76.7064 13.4345C76.0472 13.4345 75.4653 13.292 74.9607 13.0072C74.4561 12.7224 74.0655 12.3236 73.7888 11.8109C73.5121 11.29 73.3737 10.6959 73.3737 10.0286ZM78.1591 9.32053C78.1265 8.96244 77.9678 8.66539 77.683 8.42938C77.4063 8.19337 77.0685 8.07536 76.6698 8.07536C76.2547 8.07536 75.9129 8.1893 75.6443 8.41717C75.3758 8.64505 75.2089 8.94616 75.1438 9.32053H78.1591Z" />
<path d="M82.229 11.054V6.78136H83.9746V10.6512C83.9746 11.4406 84.3653 11.8353 85.1466 11.8353C85.4965 11.8353 85.7732 11.7295 85.9767 11.5179C86.1883 11.2981 86.2941 11.0092 86.2941 10.6512V6.78136H88.0397V13.2514H86.3673V12.6776H86.3429C86.1639 12.9055 85.9156 13.0886 85.5982 13.2269C85.289 13.3653 84.9634 13.4345 84.6216 13.4345C83.8566 13.4345 83.2666 13.2269 82.8515 12.8119C82.4365 12.3887 82.229 11.8027 82.229 11.054Z" />
<path d="M90.1686 6.78136H91.7068V7.34291H91.7312C91.8695 7.12317 92.0445 6.95634 92.2561 6.8424C92.4758 6.72032 92.7159 6.65929 92.9764 6.65929C93.4891 6.65929 93.9001 6.89937 94.2093 7.37953H94.2337C94.5593 6.89937 95.0069 6.65929 95.5766 6.65929C96.0486 6.65929 96.4311 6.82612 96.7241 7.1598C97.0171 7.49347 97.1635 7.92887 97.1635 8.466V13.2514H95.5522V8.77119C95.5522 8.58401 95.5033 8.44159 95.4057 8.34393C95.308 8.24627 95.1696 8.19744 94.9906 8.19744C94.8197 8.19744 94.6813 8.2544 94.5755 8.36834C94.4779 8.47414 94.4291 8.62063 94.4291 8.80781V13.2514H92.9031V8.77119C92.9031 8.59215 92.8543 8.45379 92.7566 8.35613C92.6671 8.25034 92.5369 8.19744 92.366 8.19744C92.1869 8.19744 92.0445 8.2544 91.9387 8.36834C91.8329 8.47414 91.78 8.62063 91.78 8.80781V13.2514H90.1686V6.78136Z" />
<path d="M109.283 9.06417H107.574V7.50161H109.283V6.54942C109.283 5.97973 109.47 5.53212 109.845 5.20659C110.227 4.87292 110.752 4.70608 111.419 4.70608H113.299V6.25644H111.627C111.456 6.25644 111.326 6.3012 111.236 6.39072C111.147 6.48024 111.102 6.60639 111.102 6.76915V7.50161H113.69V9.06417H111.102V13.2514H109.283V9.06417Z" />
<path d="M115.819 10.0164C115.819 9.34901 115.957 8.75898 116.234 8.24627C116.511 7.72541 116.897 7.32256 117.394 7.03772C117.898 6.74474 118.472 6.59825 119.115 6.59825C119.766 6.59825 120.34 6.74474 120.836 7.03772C121.341 7.32256 121.731 7.72541 122.008 8.24627C122.285 8.75898 122.423 9.34901 122.423 10.0164C122.423 10.6837 122.285 11.2778 122.008 11.7987C121.731 12.3114 121.341 12.7142 120.836 13.0072C120.34 13.292 119.766 13.4345 119.115 13.4345C118.472 13.4345 117.898 13.292 117.394 13.0072C116.897 12.7142 116.511 12.3114 116.234 11.7987C115.957 11.2778 115.819 10.6837 115.819 10.0164ZM120.677 10.0164C120.677 9.44667 120.539 9.00313 120.262 8.68574C119.994 8.3602 119.611 8.19744 119.115 8.19744C118.626 8.19744 118.244 8.3602 117.967 8.68574C117.699 9.00313 117.564 9.44667 117.564 10.0164C117.564 10.586 117.699 11.0337 117.967 11.3592C118.244 11.6766 118.626 11.8353 119.115 11.8353C119.603 11.8353 119.986 11.6725 120.262 11.347C120.539 11.0214 120.677 10.5779 120.677 10.0164Z" />
<path d="M124.674 11.054V6.78136H126.42V10.6512C126.42 11.4406 126.81 11.8353 127.592 11.8353C127.942 11.8353 128.218 11.7295 128.422 11.5179C128.633 11.2981 128.739 11.0092 128.739 10.6512V6.78136H130.485V13.2514H128.812V12.6776H128.788C128.609 12.9055 128.361 13.0886 128.043 13.2269C127.734 13.3653 127.408 13.4345 127.067 13.4345C126.302 13.4345 125.712 13.2269 125.297 12.8119C124.882 12.3887 124.674 11.8027 124.674 11.054Z" />
<path d="M133.102 6.78136H134.848V7.39174H134.872C135.132 7.13131 135.413 6.93599 135.714 6.80578C136.015 6.66743 136.357 6.59825 136.74 6.59825C137.163 6.59825 137.558 6.69998 137.924 6.90344C138.29 7.09876 138.587 7.40395 138.815 7.819C139.043 8.22592 139.157 8.73457 139.157 9.34494V13.2514H137.411V9.57689C137.411 9.16183 137.305 8.82816 137.094 8.57587C136.882 8.32358 136.577 8.19744 136.178 8.19744C135.763 8.19744 135.438 8.31951 135.202 8.56366C134.966 8.79967 134.848 9.12928 134.848 9.55247V13.2514H133.102V6.78136Z" />
<path d="M141.151 10.0164C141.151 9.36529 141.278 8.77933 141.53 8.25847C141.782 7.73762 142.136 7.3307 142.592 7.03772C143.048 6.74474 143.565 6.59825 144.142 6.59825C144.875 6.59825 145.449 6.79357 145.864 7.18421H145.888V4.33986H147.634V13.2514H146.022V12.6898H145.998C145.518 13.1862 144.891 13.4345 144.118 13.4345C143.548 13.4345 143.036 13.292 142.58 13.0072C142.132 12.7224 141.782 12.3236 141.53 11.8109C141.278 11.29 141.151 10.6918 141.151 10.0164ZM145.888 10.4314V9.5891C145.888 9.34494 145.823 9.11707 145.693 8.90547C145.562 8.69388 145.379 8.52297 145.143 8.39276C144.915 8.26254 144.659 8.19744 144.374 8.19744C143.919 8.19744 143.556 8.36427 143.288 8.69794C143.027 9.02348 142.897 9.46295 142.897 10.0164C142.897 10.5616 143.031 11.0011 143.3 11.3348C143.569 11.6684 143.923 11.8353 144.362 11.8353C144.802 11.8353 145.164 11.701 145.449 11.4324C145.742 11.1557 145.888 10.8221 145.888 10.4314Z" />
<path d="M150.178 11.5179C150.178 10.9156 150.381 10.4477 150.788 10.114C151.203 9.78035 151.891 9.5362 152.851 9.38157C153.356 9.30018 153.697 9.21066 153.877 9.113C154.064 9.0072 154.157 8.86885 154.157 8.69794C154.157 8.50262 154.068 8.348 153.889 8.23406C153.71 8.12012 153.466 8.06315 153.156 8.06315C152.806 8.06315 152.501 8.16895 152.241 8.38055C151.988 8.59215 151.826 8.87292 151.752 9.22287L150.129 8.85664C150.21 8.41717 150.393 8.02653 150.678 7.68472C150.963 7.34291 151.321 7.07841 151.752 6.89123C152.184 6.69591 152.652 6.59825 153.156 6.59825C153.986 6.59825 154.65 6.83019 155.146 7.29408C155.643 7.75797 155.891 8.37648 155.891 9.14962V13.2514H154.328V12.5311H154.304C154.117 12.816 153.852 13.0398 153.51 13.2025C153.177 13.3572 152.798 13.4345 152.375 13.4345C151.952 13.4345 151.573 13.3531 151.24 13.1903C150.906 13.0276 150.646 12.7997 150.458 12.5067C150.271 12.2137 150.178 11.8841 150.178 11.5179ZM154.231 10.8465V10.114H154.206C154.133 10.2361 154.011 10.3338 153.84 10.407C153.669 10.4802 153.4 10.5535 153.034 10.6267C152.578 10.7244 152.265 10.8302 152.094 10.9441C151.923 11.0499 151.838 11.2005 151.838 11.3958C151.838 11.583 151.911 11.7254 152.058 11.8231C152.212 11.9207 152.432 11.9696 152.717 11.9696C152.977 11.9696 153.225 11.9207 153.461 11.8231C153.697 11.7173 153.885 11.5789 154.023 11.408C154.161 11.229 154.231 11.0418 154.231 10.8465Z" />
<path d="M161.963 8.34393V10.9441C161.963 11.1639 162.011 11.3226 162.109 11.4202C162.215 11.5179 162.386 11.5667 162.622 11.5667H164.099V13.2514H162.463C161.747 13.2514 161.194 13.0845 160.803 12.7508C160.412 12.409 160.217 11.9248 160.217 11.2981V8.34393H158.63V6.78136H160.217V5.13335H161.963V6.78136H164.502V8.34393H161.963Z" />
<path d="M173.235 11.6522V13.2514H166.875V11.6522H169.182V8.38055H166.997V6.78136H170.928V11.6522H173.235ZM169.145 4.04688H170.94V5.76814H169.145V4.04688Z" />
<path d="M175.242 10.0164C175.242 9.34901 175.38 8.75898 175.657 8.24627C175.934 7.72541 176.32 7.32256 176.817 7.03772C177.321 6.74474 177.895 6.59825 178.538 6.59825C179.189 6.59825 179.763 6.74474 180.259 7.03772C180.764 7.32256 181.154 7.72541 181.431 8.24627C181.708 8.75898 181.846 9.34901 181.846 10.0164C181.846 10.6837 181.708 11.2778 181.431 11.7987C181.154 12.3114 180.764 12.7142 180.259 13.0072C179.763 13.292 179.189 13.4345 178.538 13.4345C177.895 13.4345 177.321 13.292 176.817 13.0072C176.32 12.7142 175.934 12.3114 175.657 11.7987C175.38 11.2778 175.242 10.6837 175.242 10.0164ZM180.1 10.0164C180.1 9.44667 179.962 9.00313 179.685 8.68574C179.417 8.3602 179.034 8.19744 178.538 8.19744C178.05 8.19744 177.667 8.3602 177.39 8.68574C177.122 9.00313 176.987 9.44667 176.987 10.0164C176.987 10.586 177.122 11.0337 177.39 11.3592C177.667 11.6766 178.05 11.8353 178.538 11.8353C179.026 11.8353 179.409 11.6725 179.685 11.347C179.962 11.0214 180.1 10.5779 180.1 10.0164Z" />
<path d="M184.036 6.78136H185.782V7.39174H185.806C186.066 7.13131 186.347 6.93599 186.648 6.80578C186.95 6.66743 187.291 6.59825 187.674 6.59825C188.097 6.59825 188.492 6.69998 188.858 6.90344C189.224 7.09876 189.521 7.40395 189.749 7.819C189.977 8.22592 190.091 8.73457 190.091 9.34494V13.2514H188.345V9.57689C188.345 9.16183 188.239 8.82816 188.028 8.57587C187.816 8.32358 187.511 8.19744 187.112 8.19744C186.697 8.19744 186.372 8.31951 186.136 8.56366C185.9 8.79967 185.782 9.12928 185.782 9.55247V13.2514H184.036V6.78136Z" />
<path d="M31.1528 25.9962C31.1528 25.0954 31.3373 24.2977 31.7063 23.6032C32.0753 22.9086 32.5908 22.3714 33.2528 21.9915C33.9148 21.6117 34.68 21.4218 35.5482 21.4218C36.3838 21.4218 37.1272 21.6171 37.7784 22.0078C38.4404 22.3985 38.9559 22.9466 39.3249 23.652C39.6939 24.3574 39.8784 25.1605 39.8784 26.0613V26.745H33.4807C33.5133 27.2877 33.7195 27.7272 34.0993 28.0636C34.4792 28.4001 34.9784 28.5683 35.597 28.5683C36.0311 28.5683 36.4327 28.476 36.8017 28.2915C37.1706 28.0962 37.5722 27.7652 38.0063 27.2985L39.4551 28.7799C38.9559 29.3334 38.3807 29.7675 37.7296 30.0822C37.0784 30.3861 36.3675 30.538 35.597 30.538C34.7179 30.538 33.942 30.3481 33.2691 29.9683C32.5962 29.5884 32.0753 29.0566 31.7063 28.3729C31.3373 27.6784 31.1528 26.8861 31.1528 25.9962ZM37.5342 25.052C37.4908 24.5745 37.2792 24.1784 36.8993 23.8636C36.5303 23.5489 36.08 23.3915 35.5482 23.3915C34.9947 23.3915 34.5389 23.5435 34.1807 23.8474C33.8226 24.1512 33.6001 24.5528 33.5133 25.052H37.5342Z" />
<path d="M42.4731 25.9799C42.4731 25.09 42.6576 24.3032 43.0266 23.6194C43.3956 22.9249 43.9111 22.3877 44.5731 22.0078C45.246 21.6171 46.0111 21.4218 46.8685 21.4218C47.8778 21.4218 48.746 21.6985 49.4731 22.252C50.2002 22.8055 50.694 23.5489 50.9545 24.4822L48.708 25.1008C48.5995 24.6233 48.3933 24.2489 48.0894 23.9776C47.7855 23.6954 47.3785 23.5543 46.8685 23.5543C46.2173 23.5543 45.7072 23.7714 45.3382 24.2055C44.9801 24.6287 44.801 25.2202 44.801 25.9799C44.801 26.7396 44.9801 27.3365 45.3382 27.7706C45.7072 28.1939 46.2173 28.4055 46.8685 28.4055C47.3785 28.4055 47.7855 28.2698 48.0894 27.9985C48.3933 27.7163 48.5995 27.3365 48.708 26.859L50.9545 27.4776C50.694 28.4109 50.2002 29.1543 49.4731 29.7078C48.746 30.2613 47.8778 30.538 46.8685 30.538C46.0111 30.538 45.246 30.3481 44.5731 29.9683C43.9111 29.5776 43.3956 29.0404 43.0266 28.3566C42.6576 27.6621 42.4731 26.8698 42.4731 25.9799Z" />
<path d="M53.7934 25.9799C53.7934 25.09 53.9779 24.3032 54.3469 23.6194C54.7159 22.9249 55.2314 22.3877 55.8934 22.0078C56.5663 21.6171 57.3314 21.4218 58.1887 21.4218C59.057 21.4218 59.8221 21.6171 60.4841 22.0078C61.157 22.3877 61.6779 22.9249 62.0469 23.6194C62.4159 24.3032 62.6004 25.09 62.6004 25.9799C62.6004 26.8698 62.4159 27.6621 62.0469 28.3566C61.6779 29.0404 61.157 29.5776 60.4841 29.9683C59.8221 30.3481 59.057 30.538 58.1887 30.538C57.3314 30.538 56.5663 30.3481 55.8934 29.9683C55.2314 29.5776 54.7159 29.0404 54.3469 28.3566C53.9779 27.6621 53.7934 26.8698 53.7934 25.9799ZM60.2725 25.9799C60.2725 25.2202 60.088 24.6287 59.719 24.2055C59.3608 23.7714 58.8508 23.5543 58.1887 23.5543C57.5376 23.5543 57.0275 23.7714 56.6585 24.2055C56.3004 24.6287 56.1213 25.2202 56.1213 25.9799C56.1213 26.7396 56.3004 27.3365 56.6585 27.7706C57.0275 28.1939 57.5376 28.4055 58.1887 28.4055C58.8399 28.4055 59.35 28.1884 59.719 27.7543C60.088 27.3202 60.2725 26.7287 60.2725 25.9799Z" />
<path d="M65.3416 27.445L67.4579 26.9566C67.6098 27.4993 67.8811 27.9171 68.2718 28.2101C68.6734 28.4923 69.178 28.6334 69.7858 28.6334C70.3284 28.6334 70.7408 28.5683 71.023 28.438C71.316 28.3078 71.4625 28.1233 71.4625 27.8846C71.4625 27.6132 71.316 27.407 71.023 27.266C70.73 27.114 70.1928 26.9621 69.4114 26.8101C68.1307 26.5714 67.2137 26.2404 66.6602 25.8171C66.1176 25.3939 65.8462 24.8132 65.8462 24.0753C65.8462 23.5543 65.9982 23.0931 66.3021 22.6915C66.6059 22.29 67.0292 21.9807 67.5718 21.7636C68.1253 21.5357 68.7548 21.4218 69.4602 21.4218C70.4261 21.4218 71.2834 21.6605 72.0323 22.1381C72.7811 22.6156 73.2858 23.2505 73.5462 24.0427L71.5439 24.6939C71.3811 24.2598 71.1152 23.9233 70.7462 23.6846C70.3881 23.4458 69.954 23.3264 69.4439 23.3264C69.0207 23.3264 68.6842 23.397 68.4346 23.5381C68.185 23.6683 68.0602 23.8528 68.0602 24.0915C68.0602 24.3086 68.1959 24.4877 68.4672 24.6287C68.7493 24.759 69.254 24.8892 69.9811 25.0194C71.3052 25.2691 72.2493 25.6163 72.8137 26.0613C73.3889 26.4954 73.6765 27.1032 73.6765 27.8846C73.6765 28.4163 73.5137 28.883 73.1881 29.2846C72.8734 29.6861 72.4176 29.9954 71.8207 30.2125C71.2346 30.4295 70.5563 30.538 69.7858 30.538C68.6137 30.538 67.6369 30.2667 66.8556 29.7241C66.085 29.1815 65.5804 28.4218 65.3416 27.445Z" />
<path d="M79.6735 29.952L76.2386 21.666H78.6805L80.8293 27.1846H80.8619L82.9944 21.666H85.4363L80.4223 33.9566H77.9968L79.6735 29.952Z" />
<path d="M87.9822 27.445L90.0985 26.9566C90.2504 27.4993 90.5217 27.9171 90.9124 28.2101C91.314 28.4923 91.8186 28.6334 92.4264 28.6334C92.969 28.6334 93.3814 28.5683 93.6636 28.438C93.9566 28.3078 94.1031 28.1233 94.1031 27.8846C94.1031 27.6132 93.9566 27.407 93.6636 27.266C93.3705 27.114 92.8333 26.9621 92.0519 26.8101C90.7713 26.5714 89.8543 26.2404 89.3008 25.8171C88.7581 25.3939 88.4868 24.8132 88.4868 24.0753C88.4868 23.5543 88.6388 23.0931 88.9426 22.6915C89.2465 22.29 89.6698 21.9807 90.2124 21.7636C90.7659 21.5357 91.3953 21.4218 92.1008 21.4218C93.0667 21.4218 93.924 21.6605 94.6729 22.1381C95.4217 22.6156 95.9263 23.2505 96.1868 24.0427L94.1845 24.6939C94.0217 24.2598 93.7558 23.9233 93.3868 23.6846C93.0287 23.4458 92.5946 23.3264 92.0845 23.3264C91.6612 23.3264 91.3248 23.397 91.0752 23.5381C90.8256 23.6683 90.7008 23.8528 90.7008 24.0915C90.7008 24.3086 90.8364 24.4877 91.1078 24.6287C91.3899 24.759 91.8946 24.8892 92.6217 25.0194C93.9457 25.2691 94.8899 25.6163 95.4543 26.0613C96.0294 26.4954 96.317 27.1032 96.317 27.8846C96.317 28.4163 96.1543 28.883 95.8287 29.2846C95.5139 29.6861 95.0581 29.9954 94.4612 30.2125C93.8752 30.4295 93.1969 30.538 92.4264 30.538C91.2543 30.538 90.2775 30.2667 89.4961 29.7241C88.7256 29.1815 88.2209 28.4218 87.9822 27.445Z" />
<path d="M104.007 23.7497V27.2171C104.007 27.5101 104.072 27.7218 104.202 27.852C104.344 27.9822 104.571 28.0473 104.886 28.0473H106.856V30.2939H104.675C103.72 30.2939 102.982 30.0714 102.461 29.6264C101.94 29.1706 101.679 28.5249 101.679 27.6892V23.7497H99.5629V21.666H101.679V19.4683H104.007V21.666H107.393V23.7497H104.007Z" />
<path d="M110.395 25.9962C110.395 25.0954 110.579 24.2977 110.948 23.6032C111.317 22.9086 111.833 22.3714 112.495 21.9915C113.157 21.6117 113.922 21.4218 114.79 21.4218C115.626 21.4218 116.369 21.6171 117.02 22.0078C117.682 22.3985 118.198 22.9466 118.567 23.652C118.936 24.3574 119.12 25.1605 119.12 26.0613V26.745H112.723C112.755 27.2877 112.962 27.7272 113.341 28.0636C113.721 28.4001 114.22 28.5683 114.839 28.5683C115.273 28.5683 115.675 28.476 116.044 28.2915C116.413 28.0962 116.814 27.7652 117.248 27.2985L118.697 28.7799C118.198 29.3334 117.623 29.7675 116.972 30.0822C116.32 30.3861 115.61 30.538 114.839 30.538C113.96 30.538 113.184 30.3481 112.511 29.9683C111.838 29.5884 111.317 29.0566 110.948 28.3729C110.579 27.6784 110.395 26.8861 110.395 25.9962ZM116.776 25.052C116.733 24.5745 116.521 24.1784 116.141 23.8636C115.772 23.5489 115.322 23.3915 114.79 23.3915C114.237 23.3915 113.781 23.5435 113.423 23.8474C113.065 24.1512 112.842 24.5528 112.755 25.052H116.776Z" />
<path d="M121.471 21.666H123.522V22.4148H123.555C123.739 22.1218 123.972 21.8993 124.255 21.7474C124.548 21.5846 124.868 21.5032 125.215 21.5032C125.899 21.5032 126.447 21.8233 126.859 22.4636H126.892C127.326 21.8233 127.923 21.5032 128.683 21.5032C129.312 21.5032 129.822 21.7257 130.213 22.1706C130.603 22.6156 130.799 23.1962 130.799 23.9125V30.2939H128.65V24.3194C128.65 24.0698 128.585 23.8799 128.455 23.7497C128.324 23.6194 128.14 23.5543 127.901 23.5543C127.673 23.5543 127.489 23.6303 127.348 23.7822C127.217 23.9233 127.152 24.1187 127.152 24.3683V30.2939H125.117V24.3194C125.117 24.0807 125.052 23.8962 124.922 23.766C124.803 23.6249 124.629 23.5543 124.401 23.5543C124.162 23.5543 123.972 23.6303 123.831 23.7822C123.69 23.9233 123.62 24.1187 123.62 24.3683V30.2939H121.471V21.666Z" />
<path d="M144.177 25.9799C144.177 25.1117 144.345 24.3303 144.681 23.6357C145.018 22.9412 145.49 22.3985 146.098 22.0078C146.705 21.6171 147.394 21.4218 148.165 21.4218C149.142 21.4218 149.907 21.6822 150.46 22.2032H150.493V18.4102H152.821V30.2939H150.672V29.545H150.639C149.999 30.207 149.163 30.538 148.132 30.538C147.373 30.538 146.689 30.3481 146.081 29.9683C145.484 29.5884 145.018 29.0566 144.681 28.3729C144.345 27.6784 144.177 26.8807 144.177 25.9799ZM150.493 26.5334V25.4101C150.493 25.0846 150.406 24.7807 150.232 24.4985C150.059 24.2163 149.815 23.9884 149.5 23.8148C149.196 23.6412 148.854 23.5543 148.474 23.5543C147.867 23.5543 147.384 23.7768 147.025 24.2218C146.678 24.6559 146.505 25.2419 146.505 25.9799C146.505 26.707 146.684 27.2931 147.042 27.738C147.4 28.183 147.872 28.4055 148.458 28.4055C149.044 28.4055 149.527 28.2264 149.907 27.8683C150.298 27.4993 150.493 27.0543 150.493 26.5334Z" />
<path d="M155.676 25.9962C155.676 25.0954 155.86 24.2977 156.229 23.6032C156.598 22.9086 157.114 22.3714 157.776 21.9915C158.438 21.6117 159.203 21.4218 160.071 21.4218C160.907 21.4218 161.65 21.6171 162.302 22.0078C162.964 22.3985 163.479 22.9466 163.848 23.652C164.217 24.3574 164.402 25.1605 164.402 26.0613V26.745H158.004C158.036 27.2877 158.243 27.7272 158.623 28.0636C159.002 28.4001 159.502 28.5683 160.12 28.5683C160.554 28.5683 160.956 28.476 161.325 28.2915C161.694 28.0962 162.095 27.7652 162.529 27.2985L163.978 28.7799C163.479 29.3334 162.904 29.7675 162.253 30.0822C161.602 30.3861 160.891 30.538 160.12 30.538C159.241 30.538 158.465 30.3481 157.792 29.9683C157.119 29.5884 156.598 29.0566 156.229 28.3729C155.86 27.6784 155.676 26.8861 155.676 25.9962ZM162.057 25.052C162.014 24.5745 161.802 24.1784 161.422 23.8636C161.054 23.5489 160.603 23.3915 160.071 23.3915C159.518 23.3915 159.062 23.5435 158.704 23.8474C158.346 24.1512 158.123 24.5528 158.036 25.052H162.057Z" />
<path d="M166.508 21.666H169.129L171.375 27.2985H171.408L173.654 21.666H176.275L172.368 30.2939H170.415L166.508 21.666Z" />
<path d="M178.317 25.9962C178.317 25.0954 178.501 24.2977 178.87 23.6032C179.239 22.9086 179.755 22.3714 180.417 21.9915C181.079 21.6117 181.844 21.4218 182.712 21.4218C183.548 21.4218 184.291 21.6171 184.942 22.0078C185.604 22.3985 186.12 22.9466 186.489 23.652C186.858 24.3574 187.042 25.1605 187.042 26.0613V26.745H180.644C180.677 27.2877 180.883 27.7272 181.263 28.0636C181.643 28.4001 182.142 28.5683 182.761 28.5683C183.195 28.5683 183.596 28.476 183.965 28.2915C184.334 28.0962 184.736 27.7652 185.17 27.2985L186.619 28.7799C186.12 29.3334 185.544 29.7675 184.893 30.0822C184.242 30.3861 183.531 30.538 182.761 30.538C181.882 30.538 181.106 30.3481 180.433 29.9683C179.76 29.5884 179.239 29.0566 178.87 28.3729C178.501 27.6784 178.317 26.8861 178.317 25.9962ZM184.698 25.052C184.655 24.5745 184.443 24.1784 184.063 23.8636C183.694 23.5489 183.244 23.3915 182.712 23.3915C182.158 23.3915 181.703 23.5435 181.344 23.8474C180.986 24.1512 180.764 24.5528 180.677 25.052H184.698Z" />
<path d="M198.281 28.1613V30.2939H189.8V28.1613H192.876V21.0311H189.962V18.8985H195.204V28.1613H198.281Z" />
<path d="M200.957 25.9799C200.957 25.09 201.142 24.3032 201.511 23.6194C201.88 22.9249 202.395 22.3877 203.057 22.0078C203.73 21.6171 204.495 21.4218 205.352 21.4218C206.221 21.4218 206.986 21.6171 207.648 22.0078C208.321 22.3877 208.842 22.9249 209.211 23.6194C209.58 24.3032 209.764 25.09 209.764 25.9799C209.764 26.8698 209.58 27.6621 209.211 28.3566C208.842 29.0404 208.321 29.5776 207.648 29.9683C206.986 30.3481 206.221 30.538 205.352 30.538C204.495 30.538 203.73 30.3481 203.057 29.9683C202.395 29.5776 201.88 29.0404 201.511 28.3566C201.142 27.6621 200.957 26.8698 200.957 25.9799ZM207.436 25.9799C207.436 25.2202 207.252 24.6287 206.883 24.2055C206.525 23.7714 206.014 23.5543 205.352 23.5543C204.701 23.5543 204.191 23.7714 203.822 24.2055C203.464 24.6287 203.285 25.2202 203.285 25.9799C203.285 26.7396 203.464 27.3365 203.822 27.7706C204.191 28.1939 204.701 28.4055 205.352 28.4055C206.004 28.4055 206.514 28.1884 206.883 27.7543C207.252 27.3202 207.436 26.7287 207.436 25.9799Z" />
<path d="M212.603 21.666H214.833V22.4148H214.866C215.506 21.7528 216.315 21.4218 217.291 21.4218C218.051 21.4218 218.729 21.6117 219.326 21.9915C219.934 22.3714 220.406 22.9086 220.743 23.6032C221.079 24.2869 221.247 25.0791 221.247 25.9799C221.247 26.8481 221.079 27.6295 220.743 28.3241C220.406 29.0187 219.934 29.5613 219.326 29.952C218.719 30.3427 218.029 30.538 217.259 30.538C216.77 30.538 216.331 30.4621 215.94 30.3101C215.55 30.1582 215.224 29.952 214.963 29.6915H214.931V33.9566H212.603V21.666ZM218.919 25.9799C218.919 25.2419 218.735 24.6559 218.366 24.2218C217.997 23.7768 217.487 23.5543 216.836 23.5543C216.315 23.5543 215.864 23.7388 215.484 24.1078C215.115 24.466 214.931 24.9055 214.931 25.4264V26.5497C214.931 26.8753 215.018 27.1791 215.191 27.4613C215.365 27.7435 215.604 27.9714 215.908 28.145C216.222 28.3187 216.57 28.4055 216.95 28.4055C217.557 28.4055 218.035 28.1884 218.382 27.7543C218.74 27.3094 218.919 26.7179 218.919 25.9799Z" />
<path d="M223.354 21.666H225.405V22.4148H225.437C225.622 22.1218 225.855 21.8993 226.137 21.7474C226.43 21.5846 226.75 21.5032 227.098 21.5032C227.781 21.5032 228.329 21.8233 228.742 22.4636H228.774C229.209 21.8233 229.805 21.5032 230.565 21.5032C231.195 21.5032 231.705 21.7257 232.095 22.1706C232.486 22.6156 232.681 23.1962 232.681 23.9125V30.2939H230.533V24.3194C230.533 24.0698 230.467 23.8799 230.337 23.7497C230.207 23.6194 230.023 23.5543 229.784 23.5543C229.556 23.5543 229.371 23.6303 229.23 23.7822C229.1 23.9233 229.035 24.1187 229.035 24.3683V30.2939H227V24.3194C227 24.0807 226.935 23.8962 226.805 23.766C226.685 23.6249 226.512 23.5543 226.284 23.5543C226.045 23.5543 225.855 23.6303 225.714 23.7822C225.573 23.9233 225.502 24.1187 225.502 24.3683V30.2939H223.354V21.666Z" />
<path d="M234.918 25.9962C234.918 25.0954 235.102 24.2977 235.471 23.6032C235.84 22.9086 236.356 22.3714 237.018 21.9915C237.68 21.6117 238.445 21.4218 239.313 21.4218C240.149 21.4218 240.892 21.6171 241.544 22.0078C242.206 22.3985 242.721 22.9466 243.09 23.652C243.459 24.3574 243.644 25.1605 243.644 26.0613V26.745H237.246C237.278 27.2877 237.485 27.7272 237.865 28.0636C238.244 28.4001 238.744 28.5683 239.362 28.5683C239.796 28.5683 240.198 28.476 240.567 28.2915C240.936 28.0962 241.337 27.7652 241.771 27.2985L243.22 28.7799C242.721 29.3334 242.146 29.7675 241.495 30.0822C240.844 30.3861 240.133 30.538 239.362 30.538C238.483 30.538 237.707 30.3481 237.034 29.9683C236.361 29.5884 235.84 29.0566 235.471 28.3729C235.102 27.6784 234.918 26.8861 234.918 25.9962ZM241.299 25.052C241.256 24.5745 241.044 24.1784 240.665 23.8636C240.296 23.5489 239.845 23.3915 239.313 23.3915C238.76 23.3915 238.304 23.5435 237.946 23.8474C237.588 24.1512 237.365 24.5528 237.278 25.052H241.299Z" />
<path d="M246.645 21.666H248.973V22.4799H249.006C249.353 22.1326 249.727 21.8722 250.129 21.6985C250.531 21.514 250.986 21.4218 251.496 21.4218C252.061 21.4218 252.587 21.5574 253.075 21.8288C253.564 22.0892 253.96 22.4962 254.264 23.0497C254.568 23.5923 254.72 24.2706 254.72 25.0846V30.2939H252.392V25.3939C252.392 24.8404 252.251 24.3954 251.969 24.059C251.686 23.7225 251.279 23.5543 250.748 23.5543C250.194 23.5543 249.76 23.7171 249.445 24.0427C249.131 24.3574 248.973 24.797 248.973 25.3613V30.2939H246.645V21.666Z" />
<path d="M262.491 23.7497V27.2171C262.491 27.5101 262.556 27.7218 262.686 27.852C262.828 27.9822 263.055 28.0473 263.37 28.0473H265.34V30.2939H263.159C262.204 30.2939 261.466 30.0714 260.945 29.6264C260.424 29.1706 260.163 28.5249 260.163 27.6892V23.7497H258.047V21.666H260.163V19.4683H262.491V21.666H265.877V23.7497H262.491Z" />
</svg>
