<svg width="100%" height="100%" viewBox="0 0 418 74" fill="none" xmlns="http://www.w3.org/2000/svg">
<path d="M21.648 55.9428V73.8151L0.0379639 42.127L21.648 55.9428Z" fill="#0DAFD2"/>
<path d="M43.2595 42.127L21.6479 73.8151V55.9428L43.2595 42.127Z" fill="#667BBC"/>
<path d="M43.2595 37.662L21.6479 25.3345V51.4793L43.2595 37.662Z" fill="#9E69AC"/>
<path d="M43.2595 37.662L21.6479 0V25.3345L43.2595 37.662Z" fill="#F58B77"/>
<path d="M21.648 0V25.3345L0.0379639 37.662L21.648 0Z" fill="#F9EC7B"/>
<path d="M21.648 25.3345V51.4793L0.0379639 37.662L21.648 25.3345Z" fill="#54BC7A"/>
<path d="M65.1879 19.2365C65.1879 17.8119 65.4797 16.5504 66.0632 15.4519C66.6468 14.3534 67.4621 13.5038 68.5091 12.903C69.5561 12.3023 70.7661 12.0019 72.1392 12.0019C73.4608 12.0019 74.6365 12.3109 75.6664 12.9288C76.7134 13.5467 77.5286 14.4135 78.1122 15.5291C78.6958 16.6448 78.9876 17.9149 78.9876 19.3395V20.4208H68.8695C68.921 21.279 69.2471 21.9741 69.8478 22.5062C70.4486 23.0383 71.2381 23.3043 72.2164 23.3043C72.903 23.3043 73.5381 23.1584 74.1216 22.8666C74.7052 22.5577 75.3403 22.0342 76.0268 21.2962L78.3182 23.639C77.5286 24.5144 76.619 25.2009 75.5891 25.6987C74.5593 26.1793 73.4351 26.4196 72.2164 26.4196C70.8262 26.4196 69.599 26.1192 68.5348 25.5185C67.4707 24.9177 66.6468 24.0767 66.0632 22.9954C65.4797 21.8969 65.1879 20.6439 65.1879 19.2365ZM75.2802 17.7432C75.2115 16.988 74.8768 16.3616 74.2761 15.8638C73.6925 15.3661 72.9802 15.1172 72.1392 15.1172C71.2639 15.1172 70.543 15.3575 69.9766 15.8381C69.4102 16.3186 69.0583 16.9537 68.921 17.7432H75.2802Z" fill="#989898"/>
<path d="M90.8922 15.6836V21.1674C90.8922 21.6308 90.9951 21.9655 91.2011 22.1715C91.4242 22.3775 91.7847 22.4805 92.2824 22.4805H95.3977V26.0334H91.9477C90.4373 26.0334 89.2702 25.6815 88.4463 24.9778C87.6224 24.2569 87.2105 23.2357 87.2105 21.9141V15.6836H83.8636V12.3881H87.2105V8.91246H90.8922V12.3881H96.2473V15.6836H90.8922Z" fill="#989898"/>
<path d="M101.638 7.23899H105.32V13.6497H105.371C106.332 12.5512 107.646 12.0019 109.31 12.0019C110.306 12.0019 111.19 12.2422 111.962 12.7228C112.735 13.2034 113.335 13.8814 113.764 14.7567C114.194 15.6321 114.408 16.6448 114.408 17.7947V26.0334H110.726V18.2839C110.726 17.3742 110.495 16.6619 110.031 16.147C109.568 15.6321 108.933 15.3746 108.126 15.3746C107.251 15.3746 106.564 15.6321 106.066 16.147C105.569 16.6448 105.32 17.3399 105.32 18.2324V26.0334H101.638V7.23899Z" fill="#989898"/>
<path d="M118.898 19.2365C118.898 17.8119 119.19 16.5504 119.773 15.4519C120.357 14.3534 121.172 13.5038 122.219 12.903C123.266 12.3023 124.476 12.0019 125.849 12.0019C127.171 12.0019 128.347 12.3109 129.376 12.9288C130.423 13.5467 131.239 14.4135 131.822 15.5291C132.406 16.6448 132.698 17.9149 132.698 19.3395V20.4208H122.58C122.631 21.279 122.957 21.9741 123.558 22.5062C124.159 23.0383 124.948 23.3043 125.926 23.3043C126.613 23.3043 127.248 23.1584 127.832 22.8666C128.415 22.5577 129.05 22.0342 129.737 21.2962L132.028 23.639C131.239 24.5144 130.329 25.2009 129.299 25.6987C128.269 26.1793 127.145 26.4196 125.926 26.4196C124.536 26.4196 123.309 26.1192 122.245 25.5185C121.181 24.9177 120.357 24.0767 119.773 22.9954C119.19 21.8969 118.898 20.6439 118.898 19.2365ZM128.99 17.7432C128.922 16.988 128.587 16.3616 127.986 15.8638C127.403 15.3661 126.69 15.1172 125.849 15.1172C124.974 15.1172 124.253 15.3575 123.687 15.8381C123.12 16.3186 122.768 16.9537 122.631 17.7432H128.99Z" fill="#989898"/>
<path d="M138.449 12.3881H141.976V13.6497H142.028C142.611 13.0661 143.212 12.6456 143.83 12.3881C144.465 12.1307 145.186 12.0019 145.992 12.0019C147.177 12.0019 148.198 12.3538 149.056 13.0575C149.914 13.7441 150.515 14.6881 150.858 15.8896L147.408 17.0224C147.014 15.9067 146.198 15.3489 144.963 15.3489C144.036 15.3489 143.332 15.6235 142.851 16.1728C142.371 16.7048 142.131 17.4429 142.131 18.3869V26.0334H138.449V12.3881Z" fill="#989898"/>
<path d="M154.705 19.2365C154.705 17.8119 154.996 16.5504 155.58 15.4519C156.163 14.3534 156.979 13.5038 158.026 12.903C159.073 12.3023 160.283 12.0019 161.656 12.0019C162.978 12.0019 164.153 12.3109 165.183 12.9288C166.23 13.5467 167.045 14.4135 167.629 15.5291C168.212 16.6448 168.504 17.9149 168.504 19.3395V20.4208H158.386C158.438 21.279 158.764 21.9741 159.365 22.5062C159.965 23.0383 160.755 23.3043 161.733 23.3043C162.42 23.3043 163.055 23.1584 163.638 22.8666C164.222 22.5577 164.857 22.0342 165.543 21.2962L167.835 23.639C167.045 24.5144 166.136 25.2009 165.106 25.6987C164.076 26.1793 162.952 26.4196 161.733 26.4196C160.343 26.4196 159.116 26.1192 158.051 25.5185C156.987 24.9177 156.163 24.0767 155.58 22.9954C154.996 21.8969 154.705 20.6439 154.705 19.2365ZM164.797 17.7432C164.728 16.988 164.394 16.3616 163.793 15.8638C163.209 15.3661 162.497 15.1172 161.656 15.1172C160.781 15.1172 160.06 15.3575 159.493 15.8381C158.927 16.3186 158.575 16.9537 158.438 17.7432H164.797Z" fill="#989898"/>
<path d="M173.38 21.3991V12.3881H177.062V20.5495C177.062 22.2144 177.886 23.0469 179.533 23.0469C180.272 23.0469 180.855 22.8237 181.284 22.3775C181.73 21.9141 181.954 21.3047 181.954 20.5495V12.3881H185.635V26.0334H182.108V24.8233H182.057C181.679 25.3039 181.155 25.6901 180.486 25.9819C179.834 26.2737 179.147 26.4196 178.426 26.4196C176.813 26.4196 175.569 25.9819 174.693 25.1065C173.818 24.214 173.38 22.9782 173.38 21.3991Z" fill="#989898"/>
<path d="M190.125 12.3881H193.369V13.5724H193.42C193.712 13.109 194.081 12.7572 194.528 12.5169C194.991 12.2594 195.497 12.1307 196.047 12.1307C197.128 12.1307 197.995 12.637 198.647 13.6497H198.698C199.385 12.637 200.329 12.1307 201.53 12.1307C202.526 12.1307 203.333 12.4825 203.95 13.1863C204.568 13.89 204.877 14.8082 204.877 15.941V26.0334H201.479V16.5847C201.479 16.1899 201.376 15.8896 201.17 15.6836C200.964 15.4776 200.672 15.3746 200.295 15.3746C199.934 15.3746 199.642 15.4948 199.419 15.7351C199.213 15.9582 199.11 16.2672 199.11 16.6619V26.0334H195.892V16.5847C195.892 16.2071 195.789 15.9153 195.583 15.7093C195.394 15.4862 195.12 15.3746 194.759 15.3746C194.382 15.3746 194.081 15.4948 193.858 15.7351C193.635 15.9582 193.523 16.2672 193.523 16.6619V26.0334H190.125V12.3881Z" fill="#989898"/>
<path d="M230.437 17.2026H226.833V13.9071H230.437V11.899C230.437 10.6975 230.832 9.75349 231.621 9.06694C232.428 8.36322 233.535 8.01136 234.943 8.01136H238.908V11.2811H235.38C235.02 11.2811 234.745 11.3755 234.557 11.5643C234.368 11.7531 234.273 12.0191 234.273 12.3624V13.9071H239.731V17.2026H234.273V26.0334H230.437V17.2026Z" fill="#989898"/>
<path d="M244.221 19.2108C244.221 17.8033 244.513 16.5589 245.097 15.4776C245.68 14.3791 246.495 13.5295 247.542 12.9288C248.607 12.3109 249.817 12.0019 251.173 12.0019C252.546 12.0019 253.756 12.3109 254.803 12.9288C255.867 13.5295 256.691 14.3791 257.274 15.4776C257.858 16.5589 258.15 17.8033 258.15 19.2108C258.15 20.6182 257.858 21.8711 257.274 22.9696C256.691 24.0509 255.867 24.9006 254.803 25.5185C253.756 26.1192 252.546 26.4196 251.173 26.4196C249.817 26.4196 248.607 26.1192 247.542 25.5185C246.495 24.9006 245.68 24.0509 245.097 22.9696C244.513 21.8711 244.221 20.6182 244.221 19.2108ZM254.468 19.2108C254.468 18.0093 254.176 17.0739 253.593 16.4045C253.026 15.7179 252.22 15.3746 251.173 15.3746C250.143 15.3746 249.336 15.7179 248.752 16.4045C248.186 17.0739 247.903 18.0093 247.903 19.2108C247.903 20.4122 248.186 21.3562 248.752 22.0428C249.336 22.7122 250.143 23.0469 251.173 23.0469C252.202 23.0469 253.009 22.7036 253.593 22.017C254.176 21.3305 254.468 20.3951 254.468 19.2108Z" fill="#989898"/>
<path d="M262.897 21.3991V12.3881H266.579V20.5495C266.579 22.2144 267.402 23.0469 269.05 23.0469C269.788 23.0469 270.372 22.8237 270.801 22.3775C271.247 21.9141 271.47 21.3047 271.47 20.5495V12.3881H275.152V26.0334H271.625V24.8233H271.573C271.196 25.3039 270.672 25.6901 270.003 25.9819C269.35 26.2737 268.664 26.4196 267.943 26.4196C266.33 26.4196 265.085 25.9819 264.21 25.1065C263.335 24.214 262.897 22.9782 262.897 21.3991Z" fill="#989898"/>
<path d="M280.672 12.3881H284.353V13.6754H284.405C284.954 13.1262 285.546 12.7142 286.181 12.4396C286.816 12.1478 287.537 12.0019 288.344 12.0019C289.236 12.0019 290.069 12.2165 290.841 12.6456C291.613 13.0575 292.24 13.7012 292.721 14.5765C293.201 15.4347 293.441 16.5075 293.441 17.7947V26.0334H289.76V18.2839C289.76 17.4086 289.537 16.7048 289.09 16.1728C288.644 15.6407 288 15.3746 287.159 15.3746C286.284 15.3746 285.598 15.6321 285.1 16.147C284.602 16.6448 284.353 17.3399 284.353 18.2324V26.0334H280.672V12.3881Z" fill="#989898"/>
<path d="M297.648 19.2108C297.648 17.8376 297.914 16.6019 298.446 15.5034C298.978 14.4049 299.725 13.5467 300.686 12.9288C301.647 12.3109 302.737 12.0019 303.956 12.0019C305.5 12.0019 306.71 12.4139 307.586 13.2377H307.637V7.23899H311.319V26.0334H307.921V24.8491H307.869C306.856 25.8961 305.535 26.4196 303.904 26.4196C302.703 26.4196 301.621 26.1192 300.66 25.5185C299.716 24.9177 298.978 24.0767 298.446 22.9954C297.914 21.8969 297.648 20.6353 297.648 19.2108ZM307.637 20.0861V18.3097C307.637 17.7947 307.5 17.3142 307.225 16.8679C306.951 16.4216 306.565 16.0612 306.067 15.7866C305.586 15.5119 305.046 15.3746 304.445 15.3746C303.484 15.3746 302.72 15.7265 302.154 16.4302C301.604 17.1168 301.33 18.0436 301.33 19.2108C301.33 20.3607 301.613 21.2876 302.179 21.9913C302.746 22.695 303.492 23.0469 304.419 23.0469C305.346 23.0469 306.11 22.7637 306.71 22.1973C307.328 21.6137 307.637 20.91 307.637 20.0861Z" fill="#989898"/>
<path d="M316.684 22.3775C316.684 21.1074 317.113 20.1204 317.971 19.4167C318.847 18.713 320.297 18.1981 322.322 17.872C323.387 17.7003 324.108 17.5115 324.485 17.3056C324.88 17.0824 325.077 16.7907 325.077 16.4302C325.077 16.0183 324.888 15.6922 324.511 15.4519C324.133 15.2116 323.618 15.0914 322.966 15.0914C322.228 15.0914 321.584 15.3146 321.035 15.7608C320.503 16.2071 320.16 16.7992 320.005 17.5373L316.581 16.7649C316.753 15.8381 317.139 15.0142 317.74 14.2933C318.34 13.5724 319.096 13.0146 320.005 12.6198C320.915 12.2079 321.902 12.0019 322.966 12.0019C324.717 12.0019 326.116 12.4911 327.163 13.4695C328.21 14.4478 328.733 15.7522 328.733 17.3828V26.0334H325.438V24.5144H325.386C324.991 25.1151 324.434 25.5871 323.713 25.9304C323.009 26.2565 322.211 26.4196 321.318 26.4196C320.426 26.4196 319.628 26.2479 318.924 25.9046C318.22 25.5614 317.671 25.0808 317.276 24.4629C316.882 23.845 316.684 23.1498 316.684 22.3775ZM325.232 20.9615V19.4167H325.18C325.026 19.6742 324.768 19.8801 324.408 20.0346C324.047 20.1891 323.481 20.3436 322.709 20.498C321.747 20.704 321.087 20.9271 320.726 21.1674C320.366 21.3906 320.186 21.7081 320.186 22.12C320.186 22.5148 320.34 22.8152 320.649 23.0211C320.975 23.2271 321.439 23.3301 322.039 23.3301C322.589 23.3301 323.112 23.2271 323.61 23.0211C324.107 22.798 324.502 22.5062 324.794 22.1458C325.086 21.7682 325.232 21.3734 325.232 20.9615Z" fill="#989898"/>
<path d="M341.539 15.6836V21.1674C341.539 21.6308 341.642 21.9655 341.848 22.1715C342.071 22.3775 342.431 22.4805 342.929 22.4805H346.044V26.0334H342.594C341.084 26.0334 339.917 25.6815 339.093 24.9778C338.269 24.2569 337.857 23.2357 337.857 21.9141V15.6836H334.51V12.3881H337.857V8.91246H341.539V12.3881H346.894V15.6836H341.539Z" fill="#989898"/>
<path d="M365.312 22.6607V26.0334H351.899V22.6607H356.765V15.7608H352.156V12.3881H360.446V22.6607H365.312ZM356.687 6.62109H360.472V10.2512H356.687V6.62109Z" fill="#989898"/>
<path d="M369.545 19.2108C369.545 17.8033 369.836 16.5589 370.42 15.4776C371.003 14.3791 371.819 13.5295 372.866 12.9288C373.93 12.3109 375.14 12.0019 376.496 12.0019C377.869 12.0019 379.079 12.3109 380.126 12.9288C381.19 13.5295 382.014 14.3791 382.598 15.4776C383.181 16.5589 383.473 17.8033 383.473 19.2108C383.473 20.6182 383.181 21.8711 382.598 22.9696C382.014 24.0509 381.19 24.9006 380.126 25.5185C379.079 26.1192 377.869 26.4196 376.496 26.4196C375.14 26.4196 373.93 26.1192 372.866 25.5185C371.819 24.9006 371.003 24.0509 370.42 22.9696C369.836 21.8711 369.545 20.6182 369.545 19.2108ZM379.791 19.2108C379.791 18.0093 379.5 17.0739 378.916 16.4045C378.35 15.7179 377.543 15.3746 376.496 15.3746C375.466 15.3746 374.659 15.7179 374.076 16.4045C373.509 17.0739 373.226 18.0093 373.226 19.2108C373.226 20.4122 373.509 21.3562 374.076 22.0428C374.659 22.7122 375.466 23.0469 376.496 23.0469C377.526 23.0469 378.332 22.7036 378.916 22.017C379.5 21.3305 379.791 20.3951 379.791 19.2108Z" fill="#989898"/>
<path d="M388.092 12.3881H391.773V13.6754H391.825C392.374 13.1262 392.966 12.7142 393.601 12.4396C394.236 12.1478 394.957 12.0019 395.764 12.0019C396.656 12.0019 397.489 12.2165 398.261 12.6456C399.033 13.0575 399.66 13.7012 400.141 14.5765C400.621 15.4347 400.861 16.5075 400.861 17.7947V26.0334H397.18V18.2839C397.18 17.4086 396.957 16.7048 396.51 16.1728C396.064 15.6407 395.42 15.3746 394.579 15.3746C393.704 15.3746 393.018 15.6321 392.52 16.147C392.022 16.6448 391.773 17.3399 391.773 18.2324V26.0334H388.092V12.3881Z" fill="#989898"/>
<path d="M71.1533 50.2003H66.3467V45.8057H71.1533V43.1278C71.1533 41.5256 71.6797 40.2667 72.7326 39.3512C73.8083 38.4128 75.2846 37.9435 77.1615 37.9435H82.4487V42.3038H77.7451C77.2645 42.3038 76.8983 42.4297 76.6465 42.6814C76.3947 42.9332 76.2688 43.288 76.2688 43.7457V45.8057H83.5473V50.2003H76.2688V61.9763H71.1533V50.2003Z" fill="currentColor"/>
<path d="M89.5346 52.8782C89.5346 51.0014 89.9237 49.3419 90.7019 47.9C91.4801 46.4351 92.5673 45.3022 93.9635 44.5011C95.3826 43.6771 96.9962 43.2651 98.8044 43.2651C100.635 43.2651 102.249 43.6771 103.645 44.5011C105.064 45.3022 106.163 46.4351 106.941 47.9C107.719 49.3419 108.109 51.0014 108.109 52.8782C108.109 54.755 107.719 56.4259 106.941 57.8907C106.163 59.3327 105.064 60.4657 103.645 61.2897C102.249 62.0908 100.635 62.4913 98.8044 62.4913C96.9962 62.4913 95.3826 62.0908 93.9635 61.2897C92.5673 60.4657 91.4801 59.3327 90.7019 57.8907C89.9237 56.4259 89.5346 54.755 89.5346 52.8782ZM103.199 52.8782C103.199 51.276 102.81 50.0286 102.032 49.136C101.276 48.2204 100.201 47.7627 98.8044 47.7627C97.4311 47.7627 96.3553 48.2204 95.5771 49.136C94.8218 50.0286 94.4442 51.276 94.4442 52.8782C94.4442 54.4804 94.8218 55.7392 95.5771 56.6548C96.3553 57.5474 97.4311 57.9937 98.8044 57.9937C100.178 57.9937 101.253 57.536 102.032 56.6204C102.81 55.7049 103.199 54.4575 103.199 52.8782Z" fill="currentColor"/>
<path d="M114.439 55.7965V43.7801H119.349V54.6635C119.349 56.8837 120.447 57.9937 122.645 57.9937C123.629 57.9937 124.407 57.6962 124.979 57.1011C125.574 56.4831 125.872 55.6706 125.872 54.6635V43.7801H130.781V61.9763H126.078V60.3627H126.009C125.506 61.0036 124.808 61.5186 123.915 61.9077C123.045 62.2968 122.13 62.4913 121.168 62.4913C119.017 62.4913 117.357 61.9077 116.19 60.7403C115.023 59.5502 114.439 57.9022 114.439 55.7965Z" fill="currentColor"/>
<path d="M138.142 43.7801H143.052V45.4967H143.12C143.853 44.7643 144.642 44.215 145.489 43.8487C146.336 43.4596 147.297 43.2651 148.373 43.2651C149.563 43.2651 150.673 43.5512 151.703 44.1234C152.733 44.6727 153.569 45.531 154.21 46.6983C154.85 47.8428 155.171 49.2733 155.171 50.9899V61.9763H150.261V51.6422C150.261 50.4749 149.964 49.5365 149.369 48.827C148.774 48.1174 147.915 47.7627 146.794 47.7627C145.626 47.7627 144.711 48.106 144.047 48.7926C143.383 49.4564 143.052 50.3834 143.052 51.5736V61.9763H138.142V43.7801Z" fill="currentColor"/>
<path d="M160.781 52.8782C160.781 51.0471 161.135 49.3992 161.845 47.9343C162.554 46.4695 163.55 45.325 164.832 44.5011C166.113 43.6771 167.567 43.2651 169.192 43.2651C171.252 43.2651 172.866 43.8144 174.033 44.9131H174.102V36.9136H179.011V61.9763H174.479V60.397H174.411C173.06 61.7932 171.298 62.4913 169.123 62.4913C167.521 62.4913 166.079 62.0908 164.797 61.2897C163.539 60.4886 162.554 59.367 161.845 57.9251C161.135 56.4602 160.781 54.7779 160.781 52.8782ZM174.102 54.0455V51.6766C174.102 50.9899 173.918 50.349 173.552 49.7539C173.186 49.1588 172.671 48.6782 172.007 48.312C171.366 47.9458 170.645 47.7627 169.844 47.7627C168.563 47.7627 167.544 48.2319 166.789 49.1703C166.056 50.0858 165.69 51.3218 165.69 52.8782C165.69 54.4117 166.068 55.6477 166.823 56.5861C167.578 57.5245 168.574 57.9937 169.81 57.9937C171.046 57.9937 172.064 57.6161 172.866 56.8608C173.69 56.0826 174.102 55.1441 174.102 54.0455Z" fill="currentColor"/>
<path d="M185.033 52.9125C185.033 51.0128 185.422 49.3305 186.2 47.8657C186.978 46.4008 188.065 45.2678 189.462 44.4667C190.858 43.6656 192.471 43.2651 194.302 43.2651C196.065 43.2651 197.633 43.6771 199.006 44.5011C200.402 45.325 201.489 46.4809 202.268 47.9686C203.046 49.4564 203.435 51.1501 203.435 53.0499V54.4918H189.942C190.011 55.6362 190.446 56.5632 191.247 57.2728C192.048 57.9823 193.101 58.3371 194.405 58.3371C195.321 58.3371 196.168 58.1425 196.946 57.7534C197.724 57.3414 198.571 56.6433 199.487 55.6591L202.542 58.7834C201.489 59.9507 200.276 60.8662 198.903 61.53C197.53 62.1709 196.031 62.4913 194.405 62.4913C192.551 62.4913 190.915 62.0908 189.496 61.2897C188.077 60.4886 186.978 59.367 186.2 57.9251C185.422 56.4602 185.033 54.7894 185.033 52.9125ZM198.491 50.9212C198.399 49.9142 197.953 49.0787 197.152 48.415C196.374 47.7512 195.424 47.4193 194.302 47.4193C193.135 47.4193 192.174 47.7398 191.419 48.3806C190.663 49.0215 190.194 49.8684 190.011 50.9212H198.491Z" fill="currentColor"/>
<path d="M211.104 43.7801H215.808V45.4624H215.877C216.655 44.6842 217.456 44.1234 218.28 43.7801C219.127 43.4368 220.088 43.2651 221.164 43.2651C222.743 43.2651 224.105 43.7343 225.249 44.6727C226.394 45.5883 227.195 46.8471 227.653 48.4493L223.052 49.9599C222.526 48.4722 221.439 47.7283 219.791 47.7283C218.555 47.7283 217.616 48.0945 216.975 48.827C216.334 49.5365 216.014 50.5207 216.014 51.7796V61.9763H211.104V43.7801Z" fill="currentColor"/>
<path d="M257.137 55.9681L261.6 54.9382C261.921 56.0826 262.493 56.9638 263.317 57.5818C264.164 58.1769 265.228 58.4744 266.51 58.4744C267.654 58.4744 268.524 58.3371 269.119 58.0624C269.737 57.7878 270.046 57.3986 270.046 56.8951C270.046 56.3229 269.737 55.888 269.119 55.5905C268.501 55.27 267.368 54.9496 265.72 54.6292C263.019 54.1256 261.085 53.4275 259.918 52.5349C258.773 51.6422 258.201 50.4177 258.201 48.8613C258.201 47.7627 258.522 46.7899 259.163 45.943C259.803 45.0962 260.696 44.4438 261.84 43.9861C263.008 43.5054 264.335 43.2651 265.823 43.2651C267.86 43.2651 269.668 43.7686 271.248 44.7757C272.827 45.7828 273.891 47.1218 274.44 48.7926L270.218 50.1659C269.874 49.2504 269.313 48.5409 268.535 48.0373C267.78 47.5338 266.864 47.282 265.789 47.282C264.896 47.282 264.186 47.4308 263.66 47.7283C263.134 48.003 262.87 48.3921 262.87 48.8956C262.87 49.3534 263.157 49.7311 263.729 50.0286C264.324 50.3033 265.388 50.5779 266.922 50.8526C269.714 51.379 271.705 52.1114 272.896 53.0499C274.109 53.9654 274.715 55.2471 274.715 56.8951C274.715 58.0166 274.372 59.0008 273.685 59.8477C273.021 60.6946 272.06 61.3469 270.801 61.8047C269.565 62.2624 268.135 62.4913 266.51 62.4913C264.038 62.4913 261.978 61.9191 260.33 60.7747C258.705 59.6303 257.64 58.0281 257.137 55.9681Z" fill="currentColor"/>
<path d="M281.561 55.7965V43.7801H286.47V54.6635C286.47 56.8837 287.569 57.9937 289.766 57.9937C290.75 57.9937 291.529 57.6962 292.101 57.1011C292.696 56.4831 292.993 55.6706 292.993 54.6635V43.7801H297.903V61.9763H293.199V60.3627H293.131C292.627 61.0036 291.929 61.5186 291.036 61.9077C290.167 62.2968 289.251 62.4913 288.29 62.4913C286.138 62.4913 284.479 61.9077 283.312 60.7403C282.144 59.5502 281.561 57.9022 281.561 55.7965Z" fill="currentColor"/>
<path d="M304.405 52.8782C304.405 51.0014 304.794 49.3419 305.573 47.9C306.351 46.4351 307.438 45.3022 308.834 44.5011C310.253 43.6771 311.867 43.2651 313.675 43.2651C315.804 43.2651 317.635 43.8487 319.168 45.0161C320.702 46.1834 321.743 47.7512 322.293 49.7196L317.555 51.0242C317.326 50.0172 316.891 49.2275 316.25 48.6553C315.609 48.0602 314.751 47.7627 313.675 47.7627C312.302 47.7627 311.226 48.2204 310.448 49.136C309.692 50.0286 309.315 51.276 309.315 52.8782C309.315 54.4804 309.692 55.7392 310.448 56.6548C311.226 57.5474 312.302 57.9937 313.675 57.9937C314.751 57.9937 315.609 57.7076 316.25 57.1354C316.891 56.5403 317.326 55.7392 317.555 54.7322L322.293 56.0368C321.743 58.0052 320.702 59.573 319.168 60.7403C317.635 61.9077 315.804 62.4913 313.675 62.4913C311.867 62.4913 310.253 62.0908 308.834 61.2897C307.438 60.4657 306.351 59.3327 305.573 57.8907C304.794 56.4259 304.405 54.755 304.405 52.8782Z" fill="currentColor"/>
<path d="M328.28 52.8782C328.28 51.0014 328.669 49.3419 329.447 47.9C330.225 46.4351 331.312 45.3022 332.709 44.5011C334.128 43.6771 335.741 43.2651 337.55 43.2651C339.678 43.2651 341.509 43.8487 343.043 45.0161C344.576 46.1834 345.618 47.7512 346.167 49.7196L341.429 51.0242C341.2 50.0172 340.765 49.2275 340.125 48.6553C339.484 48.0602 338.625 47.7627 337.55 47.7627C336.176 47.7627 335.1 48.2204 334.322 49.136C333.567 50.0286 333.189 51.276 333.189 52.8782C333.189 54.4804 333.567 55.7392 334.322 56.6548C335.1 57.5474 336.176 57.9937 337.55 57.9937C338.625 57.9937 339.484 57.7076 340.125 57.1354C340.765 56.5403 341.2 55.7392 341.429 54.7322L346.167 56.0368C345.618 58.0052 344.576 59.573 343.043 60.7403C341.509 61.9077 339.678 62.4913 337.55 62.4913C335.741 62.4913 334.128 62.0908 332.709 61.2897C331.312 60.4657 330.225 59.3327 329.447 57.8907C328.669 56.4259 328.28 54.755 328.28 52.8782Z" fill="currentColor"/>
<path d="M352.154 52.9125C352.154 51.0128 352.543 49.3305 353.322 47.8657C354.1 46.4008 355.187 45.2678 356.583 44.4667C357.979 43.6656 359.593 43.2651 361.424 43.2651C363.186 43.2651 364.754 43.6771 366.128 44.5011C367.524 45.325 368.611 46.4809 369.389 47.9686C370.167 49.4564 370.557 51.1501 370.557 53.0499V54.4918H357.064C357.133 55.6362 357.567 56.5632 358.368 57.2728C359.17 57.9823 360.222 58.3371 361.527 58.3371C362.443 58.3371 363.289 58.1425 364.068 57.7534C364.846 57.3414 365.693 56.6433 366.608 55.6591L369.664 58.7834C368.611 59.9507 367.398 60.8662 366.025 61.53C364.651 62.1709 363.152 62.4913 361.527 62.4913C359.673 62.4913 358.037 62.0908 356.618 61.2897C355.198 60.4886 354.1 59.367 353.322 57.9251C352.543 56.4602 352.154 54.7894 352.154 52.9125ZM365.613 50.9212C365.521 49.9142 365.075 49.0787 364.274 48.415C363.495 47.7512 362.546 47.4193 361.424 47.4193C360.257 47.4193 359.295 47.7398 358.54 48.3806C357.785 49.0215 357.316 49.8684 357.133 50.9212H365.613Z" fill="currentColor"/>
<path d="M376.509 55.9681L380.973 54.9382C381.293 56.0826 381.865 56.9638 382.689 57.5818C383.536 58.1769 384.6 58.4744 385.882 58.4744C387.027 58.4744 387.896 58.3371 388.492 58.0624C389.109 57.7878 389.418 57.3986 389.418 56.8951C389.418 56.3229 389.109 55.888 388.492 55.5905C387.874 55.27 386.741 54.9496 385.093 54.6292C382.392 54.1256 380.458 53.4275 379.29 52.5349C378.146 51.6422 377.574 50.4177 377.574 48.8613C377.574 47.7627 377.894 46.7899 378.535 45.943C379.176 45.0962 380.069 44.4438 381.213 43.9861C382.38 43.5054 383.708 43.2651 385.196 43.2651C387.233 43.2651 389.041 43.7686 390.62 44.7757C392.199 45.7828 393.264 47.1218 393.813 48.7926L389.59 50.1659C389.247 49.2504 388.686 48.5409 387.908 48.0373C387.153 47.5338 386.237 47.282 385.161 47.282C384.269 47.282 383.559 47.4308 383.033 47.7283C382.506 48.003 382.243 48.3921 382.243 48.8956C382.243 49.3534 382.529 49.7311 383.101 50.0286C383.696 50.3033 384.761 50.5779 386.294 50.8526C389.087 51.379 391.078 52.1114 392.268 53.0499C393.481 53.9654 394.088 55.2471 394.088 56.8951C394.088 58.0166 393.744 59.0008 393.058 59.8477C392.394 60.6946 391.433 61.3469 390.174 61.8047C388.938 62.2624 387.507 62.4913 385.882 62.4913C383.41 62.4913 381.35 61.9191 379.702 60.7747C378.077 59.6303 377.013 58.0281 376.509 55.9681Z" fill="currentColor"/>
<path d="M400.384 55.9681L404.847 54.9382C405.168 56.0826 405.74 56.9638 406.564 57.5818C407.411 58.1769 408.475 58.4744 409.757 58.4744C410.901 58.4744 411.771 58.3371 412.366 58.0624C412.984 57.7878 413.293 57.3986 413.293 56.8951C413.293 56.3229 412.984 55.888 412.366 55.5905C411.748 55.27 410.615 54.9496 408.967 54.6292C406.266 54.1256 404.332 53.4275 403.165 52.5349C402.021 51.6422 401.448 50.4177 401.448 48.8613C401.448 47.7627 401.769 46.7899 402.41 45.943C403.05 45.0962 403.943 44.4438 405.088 43.9861C406.255 43.5054 407.582 43.2651 409.07 43.2651C411.107 43.2651 412.915 43.7686 414.495 44.7757C416.074 45.7828 417.138 47.1218 417.688 48.7926L413.465 50.1659C413.121 49.2504 412.561 48.5409 411.782 48.0373C411.027 47.5338 410.112 47.282 409.036 47.282C408.143 47.282 407.434 47.4308 406.907 47.7283C406.381 48.003 406.118 48.3921 406.118 48.8956C406.118 49.3534 406.404 49.7311 406.976 50.0286C407.571 50.3033 408.635 50.5779 410.169 50.8526C412.961 51.379 414.952 52.1114 416.143 53.0499C417.356 53.9654 417.962 55.2471 417.962 56.8951C417.962 58.0166 417.619 59.0008 416.932 59.8477C416.269 60.6946 415.307 61.3469 414.048 61.8047C412.812 62.2624 411.382 62.4913 409.757 62.4913C407.285 62.4913 405.225 61.9191 403.577 60.7747C401.952 59.6303 400.888 58.0281 400.384 55.9681Z" fill="currentColor"/>
</svg>
