<svg width="185" height="30" viewBox="0 0 185 30" fill="currentColor" xmlns="http://www.w3.org/2000/svg">
<path d="M3.65773 7.45916C3.93213 6.94883 4.32815 6.51376 4.81085 6.19233L12.9118 0.545898L4.6114 14.2457C4.6114 14.2457 3.88616 13.0224 3.60332 12.4034C3.25086 11.6251 3.0731 10.7794 3.08249 9.9253C3.09189 9.07123 3.28823 8.22956 3.65773 7.45916ZM0.314369 16.9097C0.405834 18.2198 0.776674 19.4953 1.40205 20.6507C2.02743 21.8062 2.89291 22.8149 3.94056 23.6094L12.9009 29.8458C12.9009 29.8458 7.29478 21.7816 2.56624 13.7572C2.08751 12.9094 1.76569 11.9824 1.61617 11.0208C1.54998 10.5853 1.54998 10.1424 1.61617 9.7069C1.49288 9.93496 1.25355 10.4018 1.25355 10.4018C0.774098 11.3778 0.447563 12.4216 0.28536 13.4966C0.191998 14.6328 0.201708 15.7752 0.314369 16.9097ZM23.1594 17.9955C22.8692 17.3766 22.1512 16.1532 22.1512 16.1532L13.8655 29.8458L21.9663 24.203C22.449 23.8816 22.845 23.4466 23.1195 22.9362C23.489 22.1658 23.6852 21.3241 23.6947 20.4701C23.7041 19.616 23.5263 18.7702 23.1738 17.9919L23.1594 17.9955ZM26.4483 13.4856C26.3568 12.1756 25.986 10.9 25.3606 9.74456C24.7352 8.58916 23.8697 7.58043 22.8221 6.78596L13.8763 0.545898C13.8763 0.545898 19.4788 8.61016 24.211 16.6346C24.6884 17.4826 25.0089 18.4096 25.1574 19.371C25.2235 19.8064 25.2235 20.2494 25.1574 20.6848C25.2807 20.4568 25.52 19.9899 25.52 19.9899C25.9995 19.0139 26.326 17.9702 26.4881 16.8952C26.5828 15.759 26.5742 14.6167 26.4628 13.482L26.4483 13.4856Z"/>
<path d="M41.6032 21.6871H33.1208V8.21875H41.6032V10.7589H35.0362L35.8571 9.99135V13.6828H40.9648V16.0951H35.8571V19.9145L35.0362 19.1469H41.6032V21.6871Z"/>
<path d="M46.5767 21.6871H43.8586V8.21875H46.5767L53.2896 18.3794H52.4687V8.21875H55.1685V21.6871H52.4687L45.7375 11.5447H46.5767V21.6871Z"/>
<path d="M56.948 12.0747C56.948 11.2706 57.1547 10.564 57.5682 9.95482C57.9939 9.33349 58.5715 8.84616 59.3012 8.49289C60.043 8.13956 60.8882 7.96289 61.8368 7.96289C62.7854 7.96289 63.6002 8.13349 64.2812 8.47462C64.9744 8.80356 65.5095 9.27262 65.8864 9.88176C66.2756 10.4909 66.4702 11.2158 66.4702 12.0564H63.7522C63.74 11.5448 63.5576 11.1427 63.2049 10.8503C62.8644 10.5579 62.3962 10.4117 61.8003 10.4117C61.1558 10.4117 60.6389 10.5518 60.2497 10.832C59.8727 11.1122 59.6842 11.496 59.6842 11.9834C59.6842 12.422 59.7998 12.763 60.0309 13.0067C60.2741 13.2382 60.645 13.4088 61.1436 13.5184L63.2049 13.957C64.3846 14.2007 65.2602 14.621 65.8317 15.218C66.4033 15.815 66.6891 16.6373 66.6891 17.685C66.6891 18.5378 66.4824 19.2871 66.0689 19.9328C65.6554 20.5664 65.0656 21.0598 64.2994 21.4131C63.5454 21.7542 62.6577 21.9248 61.6361 21.9248C60.6633 21.9248 59.8059 21.7603 59.064 21.4314C58.3344 21.0902 57.7689 20.6151 57.3675 20.0059C56.9663 19.3846 56.7595 18.6658 56.7473 17.8495H59.4836C59.4836 18.3612 59.6721 18.7632 60.0491 19.0556C60.4383 19.3358 60.9734 19.476 61.6543 19.476C62.3597 19.476 62.9191 19.342 63.3326 19.0739C63.7461 18.7937 63.9529 18.4221 63.9529 17.9592C63.9529 17.545 63.8495 17.2282 63.6427 17.0089C63.436 16.7774 63.0894 16.6129 62.603 16.5154L60.5234 16.0769C59.3437 15.8332 58.4499 15.3764 57.8418 14.7063C57.2459 14.0362 56.948 13.159 56.948 12.0747Z"/>
<path d="M74.7048 21.4956V8.66894H80.0339C82.6119 8.66894 84.1691 10.0209 84.1691 12.2223C84.1691 13.5916 83.5462 14.5969 82.387 15.0996C83.65 15.5156 84.3248 16.5036 84.3248 17.9596C84.3248 20.2303 82.8022 21.4956 80.0339 21.4956H74.7048ZM79.7398 11.1303H77.5078V13.9209H79.7398C80.7433 13.9209 81.297 13.4183 81.297 12.4996C81.297 11.5983 80.7606 11.1303 79.7398 11.1303ZM79.8782 16.2783H77.5078V19.0343H79.8782C80.9163 19.0343 81.4527 18.5663 81.4527 17.6129C81.4527 16.7463 80.899 16.2783 79.8782 16.2783ZM90.9349 12.8289H93.5994V21.4956H91.0906L90.9176 20.5249C90.3812 21.2356 89.3085 21.7209 88.2704 21.7209C86.2979 21.7209 85.0868 20.4036 85.0868 18.2716V12.8289H87.7513V17.3009C87.7513 18.7223 88.2358 19.3463 89.3258 19.3463C90.4678 19.3463 90.9349 18.7569 90.9349 17.3356V12.8289ZM96.2221 11.4769C95.3743 11.4769 94.6995 10.8009 94.6995 9.9516C94.6995 9.10227 95.3743 8.4436 96.2221 8.4436C97.0526 8.4436 97.7273 9.10227 97.7273 9.9516C97.7273 10.8009 97.0526 11.4769 96.2221 11.4769ZM94.9071 21.4956V12.8289H97.5716V21.4956H94.9071ZM101.543 21.4956H98.8786V8.42627H101.543V21.4956ZM106.483 21.7209C103.991 21.7209 102.382 19.9529 102.382 17.2143C102.382 14.4583 104.026 12.5516 106.656 12.5516C107.729 12.5516 108.749 12.9849 109.251 13.6263V8.42627H111.916V21.4956H109.407L109.269 20.3863C108.801 21.1836 107.729 21.7209 106.483 21.7209ZM107.123 19.2769C108.369 19.2769 109.234 18.4103 109.234 17.1103C109.234 15.8103 108.369 14.9436 107.123 14.9436C105.86 14.9436 105.064 15.8276 105.064 17.1103C105.064 18.3929 105.86 19.2769 107.123 19.2769ZM117.239 21.7209C114.626 21.7209 112.758 19.8143 112.758 17.1449C112.758 14.4409 114.574 12.5516 117.187 12.5516C119.903 12.5516 121.599 14.3369 121.599 17.1623V17.8383L115.318 17.8729C115.474 19.0169 116.114 19.5543 117.291 19.5543C118.294 19.5543 119.004 19.1903 119.194 18.5663H121.634C121.322 20.4903 119.609 21.7209 117.239 21.7209ZM117.204 14.7183C116.149 14.7183 115.561 15.1863 115.353 16.2263H118.952C118.952 15.3076 118.277 14.7183 117.204 14.7183ZM128.437 12.8289V15.3423H127.589C126.066 15.3423 125.149 16.0183 125.149 17.7343V21.4956H122.485V12.8463H124.994L125.132 14.1289C125.495 13.2796 126.257 12.7076 127.416 12.7076C127.727 12.7076 128.073 12.7423 128.437 12.8289ZM139.07 11.0956C136.751 11.0956 135.557 12.7249 135.557 15.2036C135.557 17.7863 137.011 19.0689 139.052 19.0689C141.163 19.0689 142.097 17.9249 142.219 16.5903H138.827V14.1289H144.848V21.4956H142.443L142.288 20.3343C141.596 21.1489 140.211 21.6863 138.689 21.6863C135.107 21.6863 132.599 19.0516 132.599 15.1169C132.599 11.2516 135.177 8.46094 139.139 8.46094C142.201 8.46094 144.554 10.2636 144.848 13.0369H141.907C141.578 11.6849 140.402 11.0956 139.07 11.0956ZM152.094 12.8289V15.3423H151.246C149.724 15.3423 148.807 16.0183 148.807 17.7343V21.4956H146.142V12.8463H148.651L148.789 14.1289C149.153 13.2796 149.914 12.7076 151.073 12.7076C151.385 12.7076 151.731 12.7423 152.094 12.8289ZM155.024 21.7209C153.19 21.7209 152.048 20.6463 152.048 18.9476C152.048 17.3529 153.173 16.3649 155.249 16.2089L157.671 16.0183V15.8796C157.671 15.0303 157.152 14.5796 156.201 14.5796C155.076 14.5796 154.47 15.0129 154.47 15.7929H152.256C152.256 13.8343 153.865 12.5516 156.339 12.5516C158.848 12.5516 160.267 13.9556 160.267 16.4343V21.4956H157.914L157.741 20.3516C157.464 21.1489 156.322 21.7209 155.024 21.7209ZM155.958 19.7449C156.979 19.7449 157.689 19.2423 157.689 18.2543V17.7863L156.339 17.9076C155.18 18.0116 154.765 18.2716 154.765 18.8263C154.765 19.4503 155.145 19.7449 155.958 19.7449ZM164.15 21.4956H161.486V12.8289H163.995L164.168 13.7303C164.704 12.9849 165.69 12.5516 166.815 12.5516C168.874 12.5516 170.068 13.8689 170.068 16.1396V21.4956H167.403V16.7809C167.403 15.6889 166.798 14.9783 165.881 14.9783C164.825 14.9783 164.15 15.6716 164.15 16.7463V21.4956ZM174.782 21.4956H172.117V15.0476H170.474V12.8289H172.117V10.1423H174.782V12.8289H176.426V15.0476H174.782V21.4956ZM176.308 18.7569H178.834C178.868 19.3636 179.318 19.7276 180.132 19.7276C180.962 19.7276 181.343 19.4329 181.343 18.9823C181.343 18.7223 181.204 18.4449 180.564 18.3063L178.972 17.9596C177.38 17.6129 176.602 16.9196 176.602 15.3943C176.602 13.5916 178.142 12.5516 180.218 12.5516C182.225 12.5516 183.627 13.7303 183.627 15.4809H181.1C181.1 14.8916 180.737 14.4929 180.097 14.4929C179.491 14.4929 179.111 14.8049 179.111 15.2729C179.111 15.6716 179.439 15.8969 180.045 16.0356L181.654 16.3823C183.073 16.6943 183.851 17.3529 183.851 18.7396C183.851 20.5943 182.277 21.7209 180.028 21.7209C177.744 21.7209 176.308 20.5076 176.308 18.7569Z"/>
</svg>
