<svg width="158" height="35" viewBox="0 0 158 35" fill="currentColor" xmlns="http://www.w3.org/2000/svg">
<path d="M11.5785 17.3154L17.4548 8.06738L23.3311 17.3154L17.4548 20.6784L11.5785 17.3154Z"/>
<path d="M11.5785 18.895L17.4548 22.258L23.3311 18.895L17.4548 26.882L11.5785 18.895Z"/>
<path d="M20.1272 4.31599C19.2145 4.74251 18.3259 5.21876 17.4654 5.74261C16.5994 5.21289 15.7033 4.73433 14.7815 4.30937C15.6419 3.72697 16.5311 3.18826 17.4455 2.69531C18.3438 3.17819 19.2377 3.71841 20.1272 4.31599Z"/>
<path d="M32.6744 2.23238C29.4489 -0.997888 23.5705 -0.612017 17.4454 2.69545C18.3438 3.17833 19.2376 3.71855 20.1271 4.31613C22.4983 3.21805 24.7572 2.62929 26.6705 2.62929C28.3811 2.62929 29.8166 3.09898 30.8118 4.09563C32.9231 6.21017 32.6722 10.3026 30.5938 14.7986C31.1883 15.6872 31.7276 16.5823 32.2121 17.4842C35.5145 11.3499 35.8999 5.46271 32.6744 2.23238Z"/>
<path d="M20.1271 4.31592C19.2145 4.74243 18.3258 5.21869 17.4652 5.74254C22.2221 8.68956 26.2272 12.7068 29.1627 17.4752C29.6874 16.6094 30.1651 15.7158 30.5937 14.7984C29.2033 12.7369 27.6174 10.8148 25.8579 9.05879C24.1062 7.29506 22.1867 5.70659 20.1271 4.31592Z"/>
<path d="M32.2121 17.484C31.7343 18.3726 31.1948 19.2677 30.596 20.1585C30.1676 19.2385 29.6891 18.3427 29.1627 17.4751C29.6875 16.6093 30.1652 15.7157 30.5938 14.7983C31.1883 15.6868 31.7277 16.5821 32.2121 17.484Z"/>
<path d="M30.5959 20.1585C30.1675 19.2385 29.689 18.3426 29.1627 17.4751C27.7079 19.8578 25.9731 22.0571 23.9953 24.0261C22.0333 26.0079 19.8409 27.7469 17.4652 29.2056C18.3249 29.7311 19.2136 30.2074 20.1271 30.6321C22.1867 29.2415 24.1062 27.653 25.8579 25.8893C27.6182 24.1366 29.2049 22.2174 30.5959 20.1585Z"/>
<path d="M34.0988 21.9071C33.6104 20.3764 32.9786 18.8955 32.2121 17.4839C31.7343 18.3725 31.1948 19.2676 30.596 20.1584C32.6722 24.6522 32.9231 28.7403 30.8118 30.8526C28.7004 32.9672 24.6163 32.7136 20.1271 30.6321C19.9422 30.7578 19.7572 30.8791 19.5723 30.9981C18.8678 31.4524 18.1566 31.8713 17.4454 32.2528C20.7062 34.0145 23.8964 34.9473 26.655 34.9473C29.0769 34.9473 31.1663 34.2284 32.6744 32.7181C35.0345 30.3543 35.5387 26.5155 34.0988 21.9071Z"/>
<path d="M20.1272 30.6321C19.9422 30.7579 19.7573 30.8791 19.5723 30.9982C18.8678 31.4524 18.1567 31.8714 17.4455 32.2529C16.5604 31.7766 15.6724 31.2385 14.7815 30.6388C15.7033 30.2138 16.5994 29.7352 17.4654 29.2056C18.325 29.731 19.2137 30.2074 20.1272 30.6321Z"/>
<path d="M12.2407 31.6269C8.62123 32.7624 5.72824 32.4868 4.09683 30.8528C2.46536 29.219 2.19016 26.3216 3.32404 22.6967C3.59787 21.8292 3.92659 20.98 4.30819 20.1543C3.71154 19.2657 3.17434 18.3727 2.69656 17.4863C1.93066 18.8972 1.29964 20.3774 0.811921 21.9073C-0.630151 26.5157 -0.123785 30.3545 2.23421 32.7183C3.71373 34.1979 5.77006 34.9497 8.23154 34.9497C9.8615 34.9251 11.4783 34.653 13.0267 34.1427C14.5558 33.6536 16.0353 33.0208 17.4455 32.2531C16.5604 31.7768 15.6724 31.2388 14.7815 30.6391C13.9566 31.0225 13.1079 31.3524 12.2407 31.6269Z"/>
<path d="M14.7815 30.6391C15.7033 30.2142 16.5994 29.7355 17.4654 29.2058C15.0817 27.7489 12.8818 26.0098 10.9132 24.0263C8.93269 22.0547 7.1963 19.8515 5.74151 17.4644C5.21272 18.3328 4.73417 19.231 4.30823 20.1544C5.70153 22.2148 7.29044 24.1354 9.0528 25.8896C10.8035 27.6557 12.7221 29.2464 14.7815 30.6391Z"/>
<path d="M5.74145 17.464C5.21266 18.3325 4.73411 19.2307 4.30816 20.1542C3.71151 19.2656 3.17431 18.3726 2.69653 17.4862C3.17868 16.5865 3.7203 15.6868 4.31697 14.7983C4.74114 15.7131 5.21673 16.6032 5.74145 17.464Z"/>
<path d="M4.0968 4.09542C5.72822 2.4615 8.6212 2.18589 12.2407 3.32368C13.1076 3.59828 13.9561 3.92748 14.7815 4.30931C15.6419 3.7269 16.531 3.1882 17.4455 2.69525C16.0357 1.92654 14.5561 1.2938 13.0267 0.805568C8.42745 -0.636442 4.59436 -0.131547 2.23418 2.23219C0.726043 3.74262 0.00830078 5.83514 0.00830078 8.26062C0.00830078 11.0234 0.939604 14.2206 2.69653 17.4863C3.17868 16.5866 3.72031 15.687 4.31698 14.7984C2.23859 10.3024 1.98539 6.20997 4.0968 4.09542Z"/>
<path d="M14.7815 4.30957C10.6637 7.11335 7.1131 10.6724 4.31702 14.7987C4.74119 15.7135 5.21676 16.6035 5.74149 17.4645C8.68468 12.6961 12.6993 8.68235 17.4653 5.74281C16.5994 5.21309 15.7032 4.73453 14.7815 4.30957Z"/>
<path fill-rule="evenodd" clip-rule="evenodd" d="M102.509 17.4698V16.9612H93.9775V18.6567H100.632C100.061 21.9644 97.2487 24.3728 93.9667 24.3649C90.6847 24.3569 87.8837 21.9348 87.3281 18.6245C86.7724 15.314 88.6232 12.0742 91.7144 10.9458C94.8057 9.81745 98.2421 11.1274 99.8588 14.0505L101.377 13.1745C99.2377 9.35057 94.6563 7.74738 90.6768 9.42995C86.6974 11.1125 84.5576 15.5576 85.6788 19.8121C86.8002 24.0666 90.8339 26.8073 95.1003 26.2136C99.3667 25.6199 102.539 21.8762 102.509 17.4698ZM134.279 25.8363C136.447 24.9156 137.859 22.7619 137.858 20.375C137.86 17.9883 136.447 15.8345 134.279 14.9139C132.109 13.9931 129.607 14.486 127.935 16.1634V8.76465H126.197V26.0664H127.935V24.5866C129.607 26.2641 132.109 26.7569 134.279 25.8363ZM156.079 9.12984H157.901V26.2942H156.079V9.12984ZM153.893 26.0686V24.608H153.194C152.578 24.608 152.046 24.1867 152.046 23.1473V14.8326H150.312V16.2933C149.227 15.2101 147.758 14.6039 146.228 14.6079C143.571 14.5971 141.246 16.4029 140.589 18.9889C139.933 21.5749 141.112 24.2782 143.449 25.5467C145.788 26.8153 148.686 26.3242 150.48 24.3552C150.787 25.5214 151.853 26.323 153.054 26.2934C153.348 26.296 153.638 26.2183 153.893 26.0686ZM146.228 16.3495C148.483 16.3495 150.313 18.1856 150.313 20.4506C150.309 22.7145 148.482 24.5492 146.228 24.5518C143.973 24.5518 142.144 22.7157 142.144 20.4507C142.144 18.1857 143.973 16.3495 146.228 16.3495ZM136.12 20.375C136.12 18.0804 134.288 16.2203 132.027 16.2203C129.767 16.2203 127.935 18.0804 127.935 20.375C127.935 22.6695 129.767 24.5297 132.027 24.5297C133.114 24.5332 134.157 24.0966 134.925 23.3167C135.694 22.5368 136.124 21.4779 136.12 20.375ZM117.086 14.6078C113.866 14.6078 111.256 17.224 111.256 20.451C111.255 22.0012 111.868 23.488 112.962 24.5841C114.056 25.6802 115.54 26.2954 117.086 26.2942C120.306 26.2942 122.917 23.6781 122.917 20.451C122.917 17.2239 120.306 14.6078 117.086 14.6078ZM121.179 20.451C121.179 18.1859 119.346 16.3496 117.086 16.3497C114.826 16.3497 112.994 18.1859 112.994 20.4511C112.994 22.7163 114.826 24.5526 117.086 24.5526C119.345 24.5498 121.177 22.7152 121.179 20.451ZM106.154 9.12984H107.976V26.2942H106.154V9.12984ZM82.4667 26.2942V9.12984H78.7944V16.0242H71.9546V9.12984H68.2544V26.2942H71.9546V19.3713H78.7944V26.2942H82.4667ZM66.7967 12.4769H62.6126V26.2942H58.9827V12.4769H54.7709V9.12984H66.7967V12.4769ZM47.2049 16.0528V12.4483H53.6777V9.12984H43.474V26.2942H53.6777V22.9758H47.2049V19.3713H52.7449V16.0528H47.2049Z"/>
</svg>
