<svg width="135" height="24" viewBox="0 0 135 24" fill="currentColor" xmlns="http://www.w3.org/2000/svg">
<path d="M41.6031 23.6006V5.68454H36.5257V0.43042H52.3745V5.68579H47.2972V23.6018H41.6043L41.6031 23.6006Z"/>
<path d="M0 12.1082C0 4.91695 5.50845 0 12.4635 0C16.6487 0 20.434 1.68958 22.8649 5.31633L17.8486 7.92784C16.4942 6.08398 14.7399 5.10109 12.5245 5.10109C8.61591 5.10109 5.87726 8.14308 5.87726 12.1381C5.87726 16.1331 8.86261 19.1142 12.3401 19.1142C15.2021 19.1142 17.2642 17.3935 17.633 15.1191V15.088H12.7712V10.7247H24.0037V11.7076C24.0037 19.2672 19.4796 24 12.2791 24C5.4773 24 0 19.1142 0 12.1082Z"/>
<path d="M27.9086 23.6006V0.43042H33.6014V23.6006H27.9086Z"/>
<path d="M102.552 23.6006V0.43042H108.245V23.6006H102.552Z"/>
<path d="M129.43 0.43042H135.001V23.6006H130.385L118.752 9.00398L118.845 23.6006H113.244V0.43042H117.984L129.616 14.9349L129.432 0.43042H129.43Z"/>
<path d="M66.1674 18.7458C62.6289 18.7458 59.6435 15.98 59.6435 12.0161C59.6435 8.2674 62.5055 5.28637 66.2297 5.28637C68.0638 5.28637 69.6649 5.97937 70.8299 7.1265C71.3918 5.33489 72.2665 3.659 73.429 2.16102C71.3931 0.803634 68.9161 0.0310059 66.2596 0.0310059C59.428 0.0310059 53.765 5.13209 53.765 11.985C53.765 19.1763 59.4579 23.9999 66.1674 23.9999C68.8463 23.9999 71.342 23.2509 73.3891 21.9197C72.2403 20.4229 71.3744 18.7371 70.8199 16.9231C69.6375 18.0652 68.0127 18.7458 66.1674 18.7458Z"/>
<path d="M86.574 0.0310059C82.2866 0.0310059 78.4602 2.04034 76.2037 5.23038C74.8656 7.12401 74.0793 9.43318 74.0793 11.985C74.0793 14.5368 74.8631 16.9927 76.1913 18.8839C78.4427 22.0901 82.2617 23.9999 86.4818 23.9999C93.3446 23.9999 99.0075 19.083 99.0075 12.0459C99.0075 5.00892 93.3757 0.0310059 86.574 0.0310059ZM86.4818 18.7458C82.9432 18.7458 79.9578 15.98 79.9578 12.0161C79.9578 8.2674 82.8199 5.28637 86.5441 5.28637C90.2683 5.28637 93.1303 8.23629 93.1303 12.0472C93.1303 15.8581 90.2683 18.7458 86.483 18.7458H86.4818Z"/>
</svg>
