<svg width="109" height="35" viewBox="0 0 109 35" fill="currentColor" xmlns="http://www.w3.org/2000/svg">
<path d="M45.2283 25.4505V10.0942H47.5523V16.2245L53.6277 10.0942H56.6246L49.6114 16.8966L56.6655 25.4505H53.648L47.9805 18.4241L47.5523 18.7907V25.4505H45.2283Z"/>
<path d="M63.7197 15.4912C64.4399 15.4912 65.0855 15.6134 65.6564 15.8578C66.2272 16.0886 66.703 16.428 67.0834 16.8761C67.4777 17.3242 67.7766 17.8673 67.9804 18.5054C68.1842 19.13 68.2863 19.8292 68.2863 20.6032V21.1327H61.3342C61.4023 21.9338 61.6537 22.5719 62.0886 23.0471C62.5235 23.5087 63.1149 23.7396 63.8623 23.7396C64.4059 23.7396 64.8681 23.6174 65.2487 23.373C65.6428 23.1286 66.0098 22.7213 66.3496 22.151L68.1842 23.2712C67.7088 24.0858 67.1106 24.7036 66.3902 25.1245C65.67 25.5318 64.8002 25.7355 63.7809 25.7355C63.0604 25.7355 62.4011 25.6133 61.8033 25.3689C61.2188 25.1245 60.7158 24.7783 60.2945 24.3302C59.8869 23.8821 59.5674 23.3458 59.3363 22.7213C59.1053 22.0831 58.9899 21.3839 58.9899 20.6235C58.9899 19.8632 59.0986 19.1707 59.316 18.5462C59.5471 17.908 59.8663 17.3649 60.2742 16.9169C60.6955 16.4688 61.1985 16.1225 61.7827 15.8782C62.3672 15.6202 63.0129 15.4912 63.7197 15.4912ZM61.4771 19.2997H65.9826C65.8875 18.7023 65.6361 18.2542 65.2282 17.9555C64.8342 17.6432 64.3381 17.4871 63.74 17.4871C63.1419 17.4871 62.6528 17.65 62.2721 17.9759C61.8914 18.3018 61.6264 18.743 61.4771 19.2997Z"/>
<path d="M72.0328 15.756H74.2754V16.6317H74.3163C74.6833 16.238 75.0231 15.9528 75.3357 15.7763C75.6618 15.5862 76.0628 15.4912 76.5385 15.4912C77.123 15.4912 77.7345 15.6881 78.3732 16.0818L77.3538 18.1185C76.9326 17.8197 76.518 17.6704 76.1103 17.6704C74.8871 17.6704 74.2754 18.5869 74.2754 20.4199V25.4503H72.0328V15.756Z"/>
<path d="M83.6196 15.756V16.7947H83.6605C84.0139 16.3873 84.4216 16.0682 84.8837 15.8374C85.3595 15.6066 85.9303 15.4912 86.5963 15.4912C87.7244 15.4912 88.5602 15.8442 89.1038 16.5502C89.6611 17.2427 89.9397 18.2271 89.9397 19.5034V25.4503H87.6971V20.0329C87.6971 19.096 87.5475 18.4443 87.2486 18.0777C86.9494 17.6975 86.4876 17.5075 85.8622 17.5075C85.169 17.5075 84.6187 17.7383 84.2108 18.1999C83.8168 18.6616 83.6196 19.4558 83.6196 20.5828V25.4503H81.3771V15.756H83.6196Z"/>
<path d="M98.2226 15.4912C98.9431 15.4912 99.5885 15.6134 100.159 15.8578C100.73 16.0886 101.206 16.428 101.587 16.8761C101.981 17.3242 102.28 17.8673 102.484 18.5054C102.687 19.13 102.79 19.8292 102.79 20.6032V21.1327H95.8374C95.9053 21.9338 96.1566 22.5719 96.5918 23.0471C97.0267 23.5087 97.6178 23.7396 98.3653 23.7396C98.9092 23.7396 99.371 23.6174 99.7517 23.373C100.146 23.1286 100.513 22.7213 100.853 22.151L102.687 23.2712C102.212 24.0858 101.614 24.7036 100.893 25.1245C100.173 25.5318 99.3032 25.7355 98.2838 25.7355C97.5633 25.7355 96.9043 25.6133 96.3062 25.3689C95.7217 25.1245 95.219 24.7783 94.7977 24.3302C94.3898 23.8821 94.0706 23.3458 93.8395 22.7213C93.6085 22.0831 93.4928 21.3839 93.4928 20.6235C93.4928 19.8632 93.6015 19.1707 93.819 18.5462C94.05 17.908 94.3695 17.3649 94.7772 16.9169C95.1984 16.4688 95.7014 16.1225 96.2859 15.8782C96.8704 15.6202 97.5158 15.4912 98.2226 15.4912ZM95.9801 19.2997H100.486C100.39 18.7023 100.139 18.2542 99.7314 17.9555C99.3371 17.6432 98.841 17.4871 98.2429 17.4871C97.6451 17.4871 97.1557 17.65 96.775 17.9759C96.3946 18.3018 96.1297 18.743 95.9801 19.2997Z"/>
<path d="M106.536 25.4504V8.75H108.779V25.4504H106.536Z"/>
<path d="M17.5744 2.84586e-05C19.1816 0.00702447 20.4807 1.30129 20.4737 2.88939C20.4667 4.47747 19.1606 5.76475 17.5499 5.75775C15.9426 5.75075 14.6435 4.4565 14.6505 2.86839C14.6575 1.2768 15.9671 -0.00696756 17.5744 2.84586e-05ZM19.3076 11.3511C18.4462 10.0463 16.6289 10.0393 15.757 11.3371C13.7611 14.3104 10.8023 19.1551 10.7918 21.7612C10.7778 25.6929 13.7646 28.8936 17.4658 28.9075C21.167 28.9217 24.1783 25.7454 24.1923 21.8101C24.2029 19.2041 21.2825 14.3384 19.3076 11.3511Z" fill="#121212"/>
<path d="M25.5232 2.29709C24.8053 1.93329 23.9264 2.20964 23.5588 2.91624C23.1876 3.62283 23.4712 4.49383 24.1855 4.86113C29.0844 7.35872 32.1166 12.2979 32.0955 17.7443C32.0852 20.1719 31.4654 22.4561 30.3835 24.4605C30.5339 23.6839 30.6179 22.8864 30.6215 22.0679C30.6321 18.9022 29.48 15.8484 27.372 13.4697C26.8397 12.8716 25.9188 12.8086 25.3131 13.3368C24.7073 13.8615 24.6478 14.7745 25.1765 15.3727C26.8152 17.2231 27.7151 19.5982 27.7046 22.0609C27.6836 27.4478 23.3697 31.8518 17.9807 32.1038C17.8057 32.1107 17.6306 32.114 17.4555 32.114C17.2804 32.114 17.1054 32.1071 16.9303 32.1002C11.5413 31.8099 7.2589 27.3743 7.27992 21.9804C7.28693 19.6577 8.07125 17.4785 9.54192 15.677C10.0497 15.0578 9.95162 14.1484 9.32484 13.6481C8.69806 13.1479 7.78063 13.2459 7.27291 13.865C5.40657 16.1492 4.3736 19.0281 4.36309 21.9699C4.35958 22.7884 4.43663 23.5895 4.5802 24.366C3.51222 22.3547 2.90994 20.0635 2.91695 17.6394C2.93794 12.1895 6.00534 7.27824 10.9251 4.81216C11.6429 4.45186 11.93 3.58436 11.5658 2.87427C11.2017 2.16416 10.3228 1.88083 9.60496 2.23762C3.7048 5.19344 0.0246338 11.0911 0.000122733 17.6254C-0.0348931 26.9476 7.42699 34.5943 16.7692 34.979C16.9933 34.9896 17.2174 34.9965 17.445 34.9999C27.0989 35.0349 34.9809 27.2974 35.016 17.7548C35.0404 11.217 31.4023 5.29488 25.5232 2.29709Z" fill="#121212"/>
\</svg>
