<svg width="170" height="15" viewBox="0 0 170 15" fill="currentColor" xmlns="http://www.w3.org/2000/svg">
<path d="M11.4293 0.537024C10.5539 0.179021 9.5639 0 8.45902 0C4.39801 0 1.87972 1.89336 0.904 5.68012C0.559676 7.07091 0.294065 8.26201 0.107676 9.25346C0.035779 9.69406 0 10.0658 0 10.3688C0 11.8147 0.538039 12.9301 1.61429 13.7149C2.70485 14.486 4.10395 14.8716 5.81142 14.8716C7.87771 14.8716 9.52795 14.4104 10.762 13.4877C11.996 12.5514 12.8642 11.1399 13.3665 9.25346C13.6676 8.09677 13.926 6.90564 14.1412 5.68012C14.213 5.23949 14.2489 4.87459 14.2489 4.58541C14.2489 3.62152 13.9979 2.79531 13.4956 2.10684C12.9934 1.40452 12.3047 0.881286 11.4293 0.537024ZM10.1379 5.7421C9.96564 6.70599 9.7145 7.83511 9.38449 9.12956C9.14051 10.0658 8.73162 10.7612 8.15764 11.2157C7.59796 11.6701 6.91646 11.8973 6.11281 11.8973C4.73535 11.8973 4.04654 11.2639 4.04654 9.99702C4.04654 9.69406 4.07515 9.40496 4.13257 9.12956C4.39085 7.79381 4.64914 6.66469 4.90742 5.7421C5.1514 4.80572 5.55314 4.11035 6.11281 3.65594C6.6868 3.20151 7.37545 2.97434 8.1791 2.97434C9.54226 2.97434 10.2239 3.60085 10.2239 4.85392C10.2239 5.15689 10.1951 5.45291 10.1379 5.7421ZM29.1752 1.15669C28.2137 0.523242 26.9366 0.206541 25.3439 0.206541H19.6185C19.475 0.206541 19.3387 0.254731 19.2096 0.351152C19.0804 0.447534 19.0015 0.571475 18.9727 0.722935L16.0025 14.1487C15.9739 14.2864 15.9952 14.4104 16.067 14.5205C16.1531 14.6169 16.275 14.665 16.4329 14.665H19.3601C19.5036 14.665 19.6399 14.6169 19.7691 14.5205C19.8982 14.4241 19.9772 14.3001 20.0059 14.1487L20.9961 9.62524H23.9019C25.7815 9.62524 27.2595 9.24657 28.3357 8.48919C29.4264 7.73187 30.1509 6.56141 30.5097 4.97786C30.5957 4.60607 30.6389 4.24804 30.6389 3.90381C30.6389 2.70582 30.1509 1.79009 29.1752 1.15669ZM26.5277 4.93656C26.3844 5.52866 26.0829 5.98305 25.6237 6.29979C25.1787 6.61649 24.655 6.77484 24.0524 6.77484H21.5772L22.395 3.07761H24.978C25.5662 3.07761 25.9824 3.18777 26.2264 3.40809C26.4702 3.61464 26.5921 3.91755 26.5921 4.3169C26.5921 4.49592 26.5707 4.70246 26.5277 4.93656ZM46.2505 0.351152C46.3079 0.433752 46.3365 0.516395 46.3365 0.598995C46.3365 0.640295 46.3294 0.681594 46.3151 0.722935L45.82 2.933C45.7911 3.0845 45.7122 3.2084 45.5834 3.30482C45.4685 3.4012 45.332 3.44939 45.1742 3.44939H41.3645L38.9752 14.1487C38.9466 14.3001 38.8677 14.4241 38.7386 14.5205C38.6095 14.6169 38.4731 14.665 38.3295 14.665H35.4884C35.3306 14.665 35.2086 14.6169 35.1226 14.5205C35.0365 14.4104 35.0077 14.2864 35.0365 14.1487L37.4255 3.44939H33.5944C33.4364 3.44939 33.3144 3.4012 33.2285 3.30482C33.1566 3.19466 33.1351 3.07072 33.1637 2.933L33.6589 0.722935C33.6875 0.571475 33.7666 0.447534 33.8957 0.351152C34.0249 0.254731 34.1611 0.206541 34.3046 0.206541H45.8845C46.0424 0.206541 46.1642 0.254731 46.2505 0.351152ZM53.3427 0.351152C53.4002 0.433752 53.429 0.516395 53.429 0.598995C53.429 0.640295 53.4216 0.681594 53.4074 0.722935L50.4371 14.1487C50.4082 14.3001 50.3294 14.4241 50.2004 14.5205C50.0711 14.6169 49.9349 14.665 49.7914 14.665H46.8856C46.7277 14.665 46.6057 14.6169 46.5197 14.5205C46.4336 14.4104 46.4049 14.2864 46.4336 14.1487L49.4254 0.722935C49.4542 0.571475 49.5331 0.447534 49.6622 0.351152C49.7914 0.254731 49.9276 0.206541 50.0711 0.206541H52.9769C53.1347 0.206541 53.2567 0.254731 53.3427 0.351152ZM72.3655 0.351152C72.4227 0.433752 72.4514 0.516395 72.4514 0.598995C72.4514 0.640295 72.4444 0.681594 72.4297 0.722935L69.4594 14.1487C69.4307 14.3001 69.3519 14.4241 69.2227 14.5205C69.0935 14.6169 68.9571 14.665 68.8137 14.665H66.2094C66.0515 14.665 65.9295 14.6169 65.8434 14.5205C65.7717 14.4104 65.75 14.2864 65.7789 14.1487L67.4577 6.527L64.1645 10.7199C64.0211 10.8714 63.8847 10.9885 63.7556 11.0711C63.6265 11.1537 63.4757 11.195 63.3035 11.195H62.1842C61.8829 11.195 61.6749 11.0367 61.5601 10.7199L60.032 6.34109L58.31 14.1487C58.2812 14.3001 58.2024 14.4241 58.0732 14.5205C57.9441 14.6169 57.8077 14.665 57.6642 14.665H55.0815C54.9235 14.665 54.8015 14.6169 54.7155 14.5205C54.6295 14.4241 54.6006 14.3001 54.6295 14.1487L57.5997 0.722935C57.6284 0.571475 57.7074 0.447534 57.8365 0.351152C57.9657 0.254731 58.1091 0.206541 58.2669 0.206541H60.5915C60.936 0.206541 61.1584 0.358001 61.2589 0.660964L63.605 7.1673L68.8351 0.660964C68.9071 0.550804 69.0076 0.447534 69.1365 0.351152C69.28 0.254731 69.4522 0.206541 69.6532 0.206541H71.999C72.1567 0.206541 72.2789 0.254731 72.3655 0.351152ZM80.5372 0.351152C80.5951 0.433752 80.6237 0.516395 80.6237 0.598995C80.6237 0.640295 80.6161 0.681594 80.6021 0.722935L77.6315 14.1487C77.6029 14.3001 77.5239 14.4241 77.3949 14.5205C77.2657 14.6169 77.1296 14.665 76.9859 14.665H74.0801C73.9224 14.665 73.8001 14.6169 73.7142 14.5205C73.6286 14.4104 73.5992 14.2864 73.6286 14.1487L76.6202 0.722935C76.6489 0.571475 76.7277 0.447534 76.8569 0.351152C76.9859 0.254731 77.122 0.206541 77.2657 0.206541H80.1716C80.3292 0.206541 80.4514 0.254731 80.5372 0.351152ZM94.975 1.98289C95.4489 2.54744 95.6855 3.11201 95.6855 3.6766C95.6855 3.84184 95.6785 3.9589 95.6637 4.02771C95.6351 4.15165 95.571 4.25492 95.4706 4.33756C95.384 4.42016 95.2765 4.46146 95.1474 4.46146H92.2631C91.9477 4.46146 91.7321 4.34446 91.6177 4.11035C91.6031 3.79365 91.4307 3.52515 91.1005 3.30482C90.7712 3.0845 90.3406 2.97434 89.8096 2.97434C89.178 2.97434 88.6546 3.0845 88.2379 3.30482C87.8367 3.52515 87.5856 3.84874 87.485 4.2756C87.4704 4.34446 87.4634 4.43395 87.4634 4.54411C87.4634 4.87459 87.6645 5.14999 88.0664 5.37031C88.4822 5.57685 89.2066 5.79029 90.2401 6.01061C91.8472 6.31357 93.0162 6.74732 93.7481 7.3119C94.4942 7.87649 94.8675 8.6269 94.8675 9.56327C94.8675 9.87997 94.8242 10.2242 94.7385 10.596C94.423 12.0006 93.6555 13.0677 92.4356 13.7975C91.2297 14.5136 89.6156 14.8716 87.5925 14.8716C86.3294 14.8716 85.2464 14.7064 84.3425 14.3759C83.4529 14.0454 82.7781 13.6047 82.3189 13.054C81.8744 12.5031 81.6516 11.8904 81.6516 11.2157C81.6516 11.1055 81.6662 10.9403 81.6949 10.7199C81.7235 10.596 81.7807 10.4927 81.8674 10.4101C81.9679 10.3275 82.0824 10.2862 82.2115 10.2862H84.9664C85.1389 10.2862 85.268 10.3137 85.3539 10.3688C85.4544 10.4239 85.5547 10.5203 85.6552 10.658C85.7557 11.016 85.9852 11.3121 86.3441 11.5462C86.7174 11.7802 87.227 11.8973 87.8724 11.8973C88.6902 11.8973 89.3505 11.7734 89.8529 11.5255C90.3546 11.2776 90.656 10.9403 90.7565 10.5134C90.7712 10.4583 90.7782 10.3757 90.7782 10.2655C90.7782 9.92131 90.5555 9.65276 90.111 9.45996C89.6659 9.25346 88.8479 9.01246 87.6566 8.73706C86.2651 8.44789 85.2107 8.01417 84.4932 7.43581C83.7751 6.8437 83.4165 6.07257 83.4165 5.12244C83.4165 4.79195 83.4599 4.45461 83.5457 4.11035C83.8331 2.82972 84.5429 1.82454 85.6769 1.09472C86.8249 0.364893 88.303 0 90.111 0C91.2011 0 92.1696 0.185912 93.0169 0.557694C93.8634 0.929476 94.5159 1.40452 94.975 1.98289ZM115.093 0.598995C115.093 0.640295 115.086 0.681594 115.072 0.722935L112.101 14.1487C112.072 14.3001 111.993 14.4241 111.864 14.5205C111.735 14.6169 111.599 14.665 111.455 14.665H108.851C108.693 14.665 108.571 14.6169 108.485 14.5205C108.413 14.4104 108.392 14.2864 108.42 14.1487L110.099 6.527L106.806 10.7199C106.663 10.8714 106.526 10.9885 106.397 11.0711C106.268 11.1537 106.118 11.195 105.945 11.195H104.826C104.524 11.195 104.316 11.0367 104.202 10.7199L102.674 6.34109L100.951 14.1487C100.923 14.3001 100.844 14.4241 100.715 14.5205C100.586 14.6169 100.45 14.665 100.306 14.665H97.7231C97.5655 14.665 97.4434 14.6169 97.3575 14.5205C97.271 14.4241 97.2424 14.3001 97.271 14.1487L100.242 0.722935C100.27 0.571475 100.349 0.447534 100.478 0.351152C100.607 0.254731 100.751 0.206541 100.909 0.206541H103.233C103.577 0.206541 103.8 0.358001 103.9 0.660964L106.247 7.1673L111.477 0.660964C111.549 0.550804 111.649 0.447534 111.778 0.351152C111.921 0.254731 112.094 0.206541 112.295 0.206541H114.641C114.799 0.206541 114.921 0.254731 115.007 0.351152C115.064 0.433752 115.093 0.516395 115.093 0.598995Z"/>
<path d="M164.873 10.1748C162.679 9.84623 161.079 8.90158 161.079 6.84802C161.079 5.02034 162.618 3.70605 165.488 3.70605C168.461 3.70605 169.693 5.32838 169.795 6.7864H167.868C167.805 5.8623 167.026 5.20517 165.448 5.20517C163.725 5.20517 163.028 5.8623 163.028 6.68373C163.028 7.73105 163.848 8.03909 165.221 8.26498L166.206 8.40873C168.318 8.73731 170 9.39444 170 11.715C170 13.6864 168.359 15.0006 165.488 15.0006C162.535 15.0006 160.935 13.6043 160.874 11.715H162.864C162.925 12.9471 163.848 13.481 165.488 13.481C167.19 13.481 168.051 12.865 168.051 11.8793C168.051 10.7703 167.129 10.4828 165.836 10.3185L164.873 10.1748Z"/>
<path d="M153.365 13.4605C155.231 13.4605 156.749 12.2284 156.749 10.0721V9.25069L153.263 9.55873C151.806 9.70248 151.109 10.3596 151.109 11.5096C151.109 12.9471 152.114 13.4605 153.365 13.4605ZM149.654 6.7864C149.879 5.08195 151.294 3.70605 154.185 3.70605C155.97 3.70605 157.446 4.15784 158.205 5.45159C158.554 6.02659 158.718 6.74534 158.718 7.60784V14.6926H156.749V13.3579C156.113 14.1793 154.903 15.0006 153.16 15.0006C150.966 15.0006 149.14 13.8713 149.14 11.5096C149.14 9.64087 150.371 8.34712 153.058 8.12123L156.749 7.81319V7.60784C156.749 6.17034 156.154 5.24623 154.185 5.24623C152.626 5.24623 151.786 5.8623 151.684 6.7864H149.654Z"/>
<path d="M144.913 0.322266H146.881V14.6973H144.913V0.322266Z"/>
<path d="M138.095 5.66231H135.533V4.01946H138.095V1.55518H140.064V4.01946H142.833V5.66231H140.064V12.1311C140.064 12.8498 140.269 13.0963 140.988 13.0963H142.833V14.698H140.578C138.711 14.698 138.095 13.7739 138.095 12.1311V5.66231Z"/>
<path d="M132.402 11.3089H125.635L124.302 14.6973H122.148L127.992 0.322266H130.044L135.887 14.6973H133.735L132.402 11.3089ZM128.977 2.58119C128.67 3.5053 128.197 4.94279 127.644 6.25708L126.331 9.56332H131.705L130.392 6.25708C129.839 4.94279 129.367 3.5053 129.059 2.58119H128.977Z"/>
</svg>
