<svg width="180" height="35" viewBox="0 0 180 35" fill="currentColor" xmlns="http://www.w3.org/2000/svg">
<path d="M28.1386 0L17.192 6.27165V25.8459L11.1522 29.3385L5.07544 25.843V18.8547L11.1522 15.393L15.0594 17.6536V11.9994L11.1181 9.76724L0.174316 16.1097V28.6559L11.155 34.9643L22.0988 28.6559V9.08457L28.1755 5.58898L34.2493 9.08457V16.0417L28.1755 19.5685L24.2342 17.2882V22.9139L28.1386 25.1602L39.1903 18.8886V6.27165L28.1386 0Z"/>
<path fill-rule="evenodd" clip-rule="evenodd" d="M92.3616 27.1744H97.2682V0.342773H92.3616V27.1744ZM60.8164 8.10161C63.1421 8.10161 65.0702 9.03359 66.595 10.8947C68.1228 12.7558 68.8838 15.0645 68.8838 17.8207C68.8838 20.577 68.12 22.8857 66.595 24.7468C65.0674 26.6078 63.1421 27.5398 60.8164 27.5398C59.1694 27.5398 57.7384 27.0328 56.5287 26.0159C55.3417 24.9761 54.47 23.5739 53.9106 21.8092V34.4261H49.0038V8.46422H53.9106V13.8294C54.4672 12.0646 55.3417 10.6737 56.5287 9.65963C57.7412 8.62 59.1694 8.10161 60.8164 8.10161ZM59.0332 23.0783C60.3649 23.0783 61.4922 22.5826 62.4123 21.5911C63.3323 20.577 63.7923 19.3192 63.7923 17.8207C63.7923 16.3222 63.3323 15.1126 62.4123 14.1212C61.4922 13.107 60.3649 12.5972 59.0332 12.5972C57.5538 12.5972 56.3328 13.0929 55.3615 14.0843C54.3933 15.0758 53.9078 16.3194 53.9078 17.8179C53.9078 19.3164 54.3933 20.5741 55.3615 21.5882C56.33 22.5798 57.5538 23.0755 59.0332 23.0755V23.0783ZM70.1871 17.8207C70.1871 20.577 71.144 22.8857 73.058 24.7468C74.9717 26.6078 77.3599 27.5398 80.2194 27.5398C83.0789 27.5398 85.4669 26.6078 87.3808 24.7468C89.2948 22.8857 90.2517 20.577 90.2517 17.8207C90.2517 15.0645 89.2948 12.7558 87.3808 10.8947C85.4669 9.03359 83.0789 8.10161 80.2194 8.10161C77.3599 8.10161 74.9717 9.03359 73.058 10.8947C71.144 12.7558 70.1871 15.0645 70.1871 17.8207ZM76.6926 21.5911C75.7471 20.577 75.2757 19.3192 75.2757 17.8207C75.2757 16.3222 75.7471 15.1126 76.6926 14.1212C77.6382 13.107 78.8138 12.5972 80.2194 12.5972C81.625 12.5972 82.8006 13.0929 83.7462 14.0843C84.6917 15.0758 85.1631 16.3194 85.1631 17.8179C85.1631 19.3164 84.6917 20.5741 83.7462 21.5882C82.8006 22.5798 81.625 23.0755 80.2194 23.0755C78.8138 23.0755 77.6382 22.5798 76.6926 21.5882V21.5911ZM142.599 24.7468C140.686 22.8857 139.729 20.577 139.729 17.8207C139.729 15.0645 140.686 12.7558 142.599 10.8947C144.513 9.03359 146.901 8.10161 149.761 8.10161C152.62 8.10161 155.009 9.03359 156.922 10.8947C158.836 12.7558 159.793 15.0645 159.793 17.8207C159.793 20.577 158.836 22.8857 156.922 24.7468C155.009 26.6078 152.62 27.5398 149.761 27.5398C146.901 27.5398 144.516 26.6078 142.599 24.7468ZM144.814 17.8207C144.814 19.3192 145.286 20.577 146.231 21.5911C147.177 22.5826 148.352 23.0783 149.758 23.0783C151.164 23.0783 152.339 22.5826 153.285 21.5911C154.23 20.577 154.702 19.3192 154.702 17.8207C154.702 16.3222 154.23 15.0758 153.285 14.0872C152.339 13.0957 151.164 12.6 149.758 12.6C148.352 12.6 147.177 13.107 146.231 14.124C145.286 15.1155 144.814 16.3477 144.814 17.8235V17.8207ZM172.853 8.10161C174.937 8.10161 176.609 8.8268 177.867 10.2772C179.151 11.7275 179.792 13.5773 179.792 15.8236V27.1715H174.886V16.6933C174.886 15.4837 174.499 14.4923 173.721 13.7189C172.946 12.9456 171.978 12.5575 170.814 12.5575C169.505 12.5575 168.44 12.9456 167.616 13.7189C166.793 14.4923 166.381 15.4837 166.381 16.6933V27.1715H161.474V8.46422H166.381V13.2515C166.867 11.6567 167.679 10.399 168.817 9.48115C169.982 8.56335 171.325 8.10446 172.853 8.10446V8.10161ZM109.055 22.1859L114.07 8.4812H119.051L108.729 34.4431H103.748L106.366 27.8428L98.6966 8.4812H104.004L109.055 22.1859ZM133.005 8.46422V13.1524C131.982 10.093 129.458 8.46422 126.099 8.46422C121.027 8.46422 118.029 12.8833 118.029 17.5289C118.029 22.1746 121.004 26.9563 126.099 26.9563C129.458 26.9563 131.982 24.54 133.005 21.4806V25.0696C133.005 26.5937 132.508 27.8485 131.514 28.84C130.52 29.8315 129.31 30.3272 127.879 30.3272C125.94 30.3272 124.5 29.3613 123.554 27.4265L119.156 29.7465C119.979 31.2705 121.155 32.4885 122.683 33.4092C124.21 34.327 125.942 34.7859 127.879 34.7859C130.739 34.7859 133.127 33.8568 135.041 31.9928C136.954 30.1318 137.911 27.8231 137.911 25.0668V8.46422H133.005ZM131.588 21.084C130.642 22.0274 129.455 22.4976 128.027 22.4976C126.598 22.4976 125.482 22.0274 124.537 21.084C123.591 20.1181 123.12 18.934 123.12 17.5318C123.12 16.1296 123.591 14.9568 124.537 14.0135C125.482 13.0702 126.644 12.6 128.027 12.6C129.41 12.6 130.645 13.0702 131.588 14.0135C132.533 14.9313 133.005 16.1041 133.005 17.5318C133.005 18.9595 132.533 20.1435 131.588 21.084Z"/>
</svg>
