<svg width="160" height="30" viewBox="0 0 160 30" fill="currentColor" xmlns="http://www.w3.org/2000/svg">
<path d="M154.995 8.46777H151.646V17.9144H154.995C158.321 17.9144 159.984 16.0776 159.984 13.1902C159.984 10.3027 158.321 8.46777 154.995 8.46777ZM154.994 16.929H153.656V9.45117H154.994C157.558 9.45117 157.765 10.567 157.765 13.1898C157.765 15.8125 157.557 16.929 154.994 16.929Z"/>
<path d="M143.079 8.46777H141.069V17.9144H143.079V8.46777Z"/>
<path d="M134.989 18.1231C138.279 18.1231 139.329 16.6846 139.329 14.2993V8.46729H137.319V14.2989C137.319 16.4674 137.069 17.0793 134.988 17.0793C132.907 17.0793 132.657 16.4674 132.657 14.2989V8.46729H130.648V14.2993C130.648 16.6846 131.697 18.1231 134.987 18.1231"/>
<path d="M150.938 16.9417H146.848V8.46777H144.839V17.9144H149.967L150.938 16.9417Z"/>
<path d="M125.171 8.25781C121.912 8.25781 120.249 10.0646 120.249 13.1214C120.249 16.1782 121.913 18.1228 125.171 18.1228C127.388 18.1216 129.186 17.0887 129.186 17.0887V12.9711H127.177V16.821C126.714 16.9732 125.857 17.0798 125.171 17.0798C122.607 17.0798 122.467 15.8992 122.467 13.1212C122.467 10.3431 122.607 9.16212 125.171 9.16212C127.111 9.16212 128.496 10.4437 128.635 10.6516V9.23112C128.635 9.23112 127.595 8.25781 125.171 8.25781Z"/>
<path d="M52.1613 17.9135H54.1714V9.50878H56.8039C57.5674 9.50878 57.9821 9.8558 57.9821 11.0367C57.9821 12.2175 57.5669 12.4945 56.6662 12.4945H55.0396L58.787 17.9127H61.0689L57.8118 13.3974C58.4681 13.4674 60.0621 12.9813 60.0621 11.0365C60.0621 9.50857 58.953 8.46582 57.1511 8.46582H52.1611L52.1613 17.9135Z"/>
<path d="M61.2415 13.1201C61.2415 16.1775 62.9035 18.1225 66.2314 18.1225C69.5593 18.1225 71.2213 16.1775 71.2213 13.1201C71.2213 10.0626 69.5576 8.25732 66.2314 8.25732C62.9051 8.25732 61.2415 10.0643 61.2415 13.1201ZM66.2303 9.16054C68.7941 9.16054 69.002 10.3422 69.002 13.1192C69.002 15.8963 68.7936 17.0787 66.2303 17.0787C63.6676 17.0787 63.4591 15.8984 63.4591 13.1192C63.4591 10.34 63.6654 9.16054 66.2303 9.16054Z"/>
<path d="M78.9453 13.1201C78.9453 16.1775 80.6079 18.1225 83.9352 18.1225C87.2631 18.1225 88.9257 16.1775 88.9257 13.1201C88.9257 10.0626 87.2615 8.25732 83.9352 8.25732C80.6095 8.25732 78.9453 10.0643 78.9453 13.1201ZM83.9347 9.16054C86.4985 9.16054 86.7059 10.3422 86.7059 13.1192C86.7059 15.8963 86.4974 17.0787 83.9347 17.0787C81.372 17.0787 81.1635 15.8984 81.1635 13.1192C81.1635 10.34 81.3698 9.16054 83.9347 9.16054Z"/>
<path d="M99.6414 13.1201C99.6414 16.1775 101.303 18.1225 104.631 18.1225C107.959 18.1225 109.621 16.1775 109.621 13.1201C109.621 10.0626 107.957 8.25732 104.631 8.25732C101.305 8.25732 99.6414 10.0643 99.6414 13.1201ZM104.63 9.16054C107.194 9.16054 107.402 10.3422 107.402 13.1192C107.402 15.8963 107.193 17.0787 104.63 17.0787C102.067 17.0787 101.859 15.8984 101.859 13.1192C101.859 10.34 102.065 9.16054 104.63 9.16054Z"/>
<path d="M98.5497 17.2186V15.8298C98.2035 16.1076 97.2326 17.0795 95.1537 17.0795C92.5899 17.0795 92.4506 15.8989 92.4506 13.1209C92.4506 10.3428 92.5899 9.16136 95.1537 9.16136C97.0944 9.16136 98.4103 10.4163 98.5497 10.6243L98.6182 9.23042C98.6182 9.23042 97.5782 8.25732 95.1537 8.25732C91.896 8.25732 90.2329 10.0643 90.2329 13.1209C90.2329 16.1775 91.896 18.1225 95.1537 18.1225C97.3714 18.1213 98.5497 17.2186 98.5497 17.2186Z"/>
<path d="M50.7201 11.3311C50.7201 9.49264 49.611 8.46582 47.8091 8.46582H42.5681V17.9135H44.4388V9.50862H47.4621C48.2251 9.50862 48.6403 9.91018 48.6403 11.3313C48.6403 12.7524 48.2251 13.0839 47.3243 13.0839H45.1948L46.0956 13.9867H48.4326C49.1257 14.0568 50.7201 13.6712 50.7201 11.3311Z"/>
<path d="M117.086 16.9417H112.997V8.46777H110.987V17.9144H116.115L117.086 16.9417Z"/>
<path d="M71.7975 8.46777L70.8267 9.44065H74.0784V17.9144H76.0882V9.44065H78.369L79.3399 8.46777H71.7975Z"/>
<path d="M30.9918 11.1722L26.9666 15.2066H33.9887C33.0841 18.8796 29.7701 21.612 25.8307 21.612C24.8542 21.612 23.9169 21.4426 23.0447 21.1345C24.7859 18.9545 25.8307 16.1926 25.8307 13.1895C25.8307 10.7838 25.1587 8.53376 23.9965 6.61272C23.0594 6.84857 21.3104 7.71246 20.4043 8.9981C21.1158 10.2334 21.5251 11.6638 21.5251 13.1895C21.5251 17.8413 17.7631 21.612 13.1222 21.612H13.1216C8.48799 21.612 4.71819 17.8336 4.71819 13.1895C4.71819 8.54543 8.48821 4.76707 13.1216 4.76707C14.0977 4.76707 15.0349 4.93665 15.9074 5.24474C14.1662 7.42474 13.1216 10.1862 13.1216 13.1895C13.1216 15.5954 13.7933 17.8455 14.9554 19.7661C15.8925 19.5303 17.6415 18.6666 18.5475 17.381C17.8361 16.1458 17.4268 14.7152 17.4268 13.1895C17.4268 8.53779 21.1895 4.76666 25.8307 4.76666C29.1761 4.76666 32.0685 6.73752 33.4197 9.58032H38.0164C36.4601 4.30898 31.5877 0.45166 25.8307 0.45166C23.5167 0.45166 21.3473 1.07772 19.4763 2.16531C17.6056 1.07772 15.4362 0.45166 13.1222 0.45166C6.11433 0.45166 0.413574 6.16577 0.413574 13.1891V25.9268L4.44222 29.9646V22.4805C6.71558 24.6155 9.7681 25.9268 13.1223 25.9268C15.4364 25.9268 17.6058 25.3009 19.4766 24.2131C21.3474 25.3007 23.5169 25.9268 25.8309 25.9268C29.1847 25.9268 32.2377 24.6155 34.5108 22.4805V29.9646L38.5395 25.9268V11.172L30.9918 11.1722Z"/>
</svg>
