<svg width="143" height="35" viewBox="0 0 143 35" fill="currentColor" xmlns="http://www.w3.org/2000/svg">
<path d="M35.0129 17.0418C25.7302 17.0418 18.213 9.54016 18.213 0.293457H17.5613V17.0418H0.761383V17.6915C10.0442 17.6915 17.5613 25.1931 17.5613 34.4398H18.213V17.6915H35.0129V17.0418Z"/>
<path d="M52.8922 26.6576C48.3984 26.6576 45.6583 24.1171 45.6583 19.4458V7.53564H48.508V19.2819C48.508 22.3142 49.9328 24.281 52.8922 24.281C56.0981 24.281 57.2764 22.3142 57.2764 19.2819V7.53564H60.1261V19.4458C60.1261 24.1171 57.386 26.6576 52.8922 26.6576ZM62.6193 26.3298V12.8351H65.3047V14.7473H65.3321C66.0993 13.5727 67.6064 12.5073 69.6615 12.5073C72.6756 12.5073 74.4567 14.3102 74.4567 17.5883V26.3298H71.7439V18.7629C71.7439 16.3317 71.1959 14.7746 68.9216 14.7746C66.6473 14.7746 65.3321 16.6049 65.3321 18.7902V26.3298H62.6193ZM76.9633 26.3298V12.8351H79.676V26.3298H76.9633ZM76.9633 10.7317V7.53564H79.676V10.7317H76.9633ZM88.1248 26.6576C84.152 26.6576 81.4667 23.7893 81.4667 19.5551C81.4667 15.4029 84.152 12.5073 88.1522 12.5073C91.6596 12.5073 93.6051 14.5561 94.3175 17.0966L91.5774 17.7522C91.2211 16.0585 90.1799 14.6654 88.1522 14.6654C85.9875 14.6654 84.3164 16.3863 84.3164 19.5551C84.3164 22.7785 85.9327 24.4995 88.207 24.4995C90.0977 24.4995 91.276 23.3249 91.7144 21.4127L94.4271 22.0683C93.605 24.6088 91.7144 26.6576 88.1248 26.6576ZM95.8836 26.3298V7.53564H98.5963V14.72H98.6238C99.4732 13.4088 100.871 12.5073 102.926 12.5073C105.94 12.5073 107.721 14.3102 107.721 17.5883V26.3298H105.008V18.7629C105.008 16.3317 104.46 14.7746 102.186 14.7746C99.9116 14.7746 98.5963 16.6049 98.5963 18.7902V26.3298H95.8836ZM114.174 26.6576C111.735 26.6576 109.543 25.1824 109.543 22.6693C109.543 20.2107 111.269 19.0907 114.201 18.5171L116.065 18.1346C117.517 17.8341 118.202 17.5336 118.202 16.4136C118.202 15.2936 117.27 14.5015 115.626 14.5015C113.845 14.5015 112.694 15.5941 112.585 17.3971L109.79 17.1512C109.982 14.2556 112.311 12.5073 115.654 12.5073C119.106 12.5073 120.942 14.1736 120.942 17.0146V26.3298H118.339V24.7454H118.312C117.681 25.7834 116.284 26.6576 114.174 26.6576ZM114.886 24.718C116.804 24.718 118.312 23.4615 118.312 21.2215V19.5824C115.462 20.0468 114.119 20.4293 113.297 20.9483C112.667 21.3307 112.311 21.8771 112.311 22.6146C112.311 23.8712 113.352 24.718 114.886 24.718ZM123.475 26.3298V12.8351H126.188V26.3298H123.475ZM123.475 10.7317V7.53564H126.188V10.7317H123.475ZM128.828 26.3298V12.8351H131.513V14.7473H131.54C132.308 13.5727 133.815 12.5073 135.87 12.5073C138.884 12.5073 140.665 14.3102 140.665 17.5883V26.3298H137.952V18.7629C137.952 16.3317 137.404 14.7746 135.13 14.7746C132.856 14.7746 131.54 16.6049 131.54 18.7902V26.3298H128.828Z"/>
<path opacity="0.7" d="M52.8922 26.6576C48.3984 26.6576 45.6583 24.1171 45.6583 19.4458V7.53564H48.508V19.2819C48.508 22.3142 49.9328 24.281 52.8922 24.281C56.0981 24.281 57.2764 22.3142 57.2764 19.2819V7.53564H60.1261V19.4458C60.1261 24.1171 57.386 26.6576 52.8922 26.6576ZM62.6193 26.3298V12.8351H65.3047V14.7473H65.3321C66.0993 13.5727 67.6064 12.5073 69.6615 12.5073C72.6756 12.5073 74.4567 14.3102 74.4567 17.5883V26.3298H71.7439V18.7629C71.7439 16.3317 71.1959 14.7746 68.9216 14.7746C66.6473 14.7746 65.3321 16.6049 65.3321 18.7902V26.3298H62.6193ZM76.9633 26.3298V12.8351H79.676V26.3298H76.9633ZM76.9633 10.7317V7.53564H79.676V10.7317H76.9633ZM88.1248 26.6576C84.152 26.6576 81.4667 23.7893 81.4667 19.5551C81.4667 15.4029 84.152 12.5073 88.1522 12.5073C91.6596 12.5073 93.6051 14.5561 94.3175 17.0966L91.5774 17.7522C91.2211 16.0585 90.1799 14.6654 88.1522 14.6654C85.9875 14.6654 84.3164 16.3863 84.3164 19.5551C84.3164 22.7785 85.9327 24.4995 88.207 24.4995C90.0977 24.4995 91.276 23.3249 91.7144 21.4127L94.4271 22.0683C93.605 24.6088 91.7144 26.6576 88.1248 26.6576ZM95.8836 26.3298V7.53564H98.5963V14.72H98.6238C99.4732 13.4088 100.871 12.5073 102.926 12.5073C105.94 12.5073 107.721 14.3102 107.721 17.5883V26.3298H105.008V18.7629C105.008 16.3317 104.46 14.7746 102.186 14.7746C99.9116 14.7746 98.5963 16.6049 98.5963 18.7902V26.3298H95.8836ZM114.174 26.6576C111.735 26.6576 109.543 25.1824 109.543 22.6693C109.543 20.2107 111.269 19.0907 114.201 18.5171L116.065 18.1346C117.517 17.8341 118.202 17.5336 118.202 16.4136C118.202 15.2936 117.27 14.5015 115.626 14.5015C113.845 14.5015 112.694 15.5941 112.585 17.3971L109.79 17.1512C109.982 14.2556 112.311 12.5073 115.654 12.5073C119.106 12.5073 120.942 14.1736 120.942 17.0146V26.3298H118.339V24.7454H118.312C117.681 25.7834 116.284 26.6576 114.174 26.6576ZM114.886 24.718C116.804 24.718 118.312 23.4615 118.312 21.2215V19.5824C115.462 20.0468 114.119 20.4293 113.297 20.9483C112.667 21.3307 112.311 21.8771 112.311 22.6146C112.311 23.8712 113.352 24.718 114.886 24.718ZM123.475 26.3298V12.8351H126.188V26.3298H123.475ZM123.475 10.7317V7.53564H126.188V10.7317H123.475ZM128.828 26.3298V12.8351H131.513V14.7473H131.54C132.308 13.5727 133.815 12.5073 135.87 12.5073C138.884 12.5073 140.665 14.3102 140.665 17.5883V26.3298H137.952V18.7629C137.952 16.3317 137.404 14.7746 135.13 14.7746C132.856 14.7746 131.54 16.6049 131.54 18.7902V26.3298H128.828Z"/>
</svg>
