<svg xmlns="http://www.w3.org/2000/svg" width="96" height="96" viewBox="0 0 96 96">
  <path fill="#555DBA" fill-rule="evenodd" d="M93.4736842,96 C92.0784385,96 90.9473684,94.8689299 90.9473684,93.4736842 C90.9473684,92.0784385 92.0784385,90.9473684 93.4736842,90.9473684 C94.8689299,90.9473684 96,92.0784385 96,93.4736842 C96,94.8689299 94.8689299,96 93.4736842,96 Z M78.3157895,96 C76.9205438,96 75.7894737,94.8689299 75.7894737,93.4736842 C75.7894737,92.0784385 76.9205438,90.9473684 78.3157895,90.9473684 C79.7110352,90.9473684 80.8421053,92.0784385 80.8421053,93.4736842 C80.8421053,94.8689299 79.7110352,96 78.3157895,96 Z M63.1578947,96 C61.7626491,96 60.6315789,94.8689299 60.6315789,93.4736842 C60.6315789,92.0784385 61.7626491,90.9473684 63.1578947,90.9473684 C64.5531404,90.9473684 65.6842105,92.0784385 65.6842105,93.4736842 C65.6842105,94.8689299 64.5531404,96 63.1578947,96 Z M48,96 C46.6047543,96 45.4736842,94.8689299 45.4736842,93.4736842 C45.4736842,92.0784385 46.6047543,90.9473684 48,90.9473684 C49.3952457,90.9473684 50.5263158,92.0784385 50.5263158,93.4736842 C50.5263158,94.8689299 49.3952457,96 48,96 Z M32.8421053,96 C31.4468596,96 30.3157895,94.8689299 30.3157895,93.4736842 C30.3157895,92.0784385 31.4468596,90.9473684 32.8421053,90.9473684 C34.2373509,90.9473684 35.3684211,92.0784385 35.3684211,93.4736842 C35.3684211,94.8689299 34.2373509,96 32.8421053,96 Z M17.6842105,96 C16.2889648,96 15.1578947,94.8689299 15.1578947,93.4736842 C15.1578947,92.0784385 16.2889648,90.9473684 17.6842105,90.9473684 C19.0794562,90.9473684 20.2105263,92.0784385 20.2105263,93.4736842 C20.2105263,94.8689299 19.0794562,96 17.6842105,96 Z M2.52631579,96 C1.13107011,96 -3.82804899e-13,94.8689299 -3.82804899e-13,93.4736842 C-3.82804899e-13,92.0784385 1.13107011,90.9473684 2.52631579,90.9473684 C3.92156147,90.9473684 5.05263158,92.0784385 5.05263158,93.4736842 C5.05263158,94.8689299 3.92156147,96 2.52631579,96 Z M93.4736842,80.8421053 C92.0784385,80.8421053 90.9473684,79.7110352 90.9473684,78.3157895 C90.9473684,76.9205438 92.0784385,75.7894737 93.4736842,75.7894737 C94.8689299,75.7894737 96,76.9205438 96,78.3157895 C96,79.7110352 94.8689299,80.8421053 93.4736842,80.8421053 Z M78.3157895,80.8421053 C76.9205438,80.8421053 75.7894737,79.7110352 75.7894737,78.3157895 C75.7894737,76.9205438 76.9205438,75.7894737 78.3157895,75.7894737 C79.7110352,75.7894737 80.8421053,76.9205438 80.8421053,78.3157895 C80.8421053,79.7110352 79.7110352,80.8421053 78.3157895,80.8421053 Z M63.1578947,80.8421053 C61.7626491,80.8421053 60.6315789,79.7110352 60.6315789,78.3157895 C60.6315789,76.9205438 61.7626491,75.7894737 63.1578947,75.7894737 C64.5531404,75.7894737 65.6842105,76.9205438 65.6842105,78.3157895 C65.6842105,79.7110352 64.5531404,80.8421053 63.1578947,80.8421053 Z M48,80.8421053 C46.6047543,80.8421053 45.4736842,79.7110352 45.4736842,78.3157895 C45.4736842,76.9205438 46.6047543,75.7894737 48,75.7894737 C49.3952457,75.7894737 50.5263158,76.9205438 50.5263158,78.3157895 C50.5263158,79.7110352 49.3952457,80.8421053 48,80.8421053 Z M32.8421053,80.8421053 C31.4468596,80.8421053 30.3157895,79.7110352 30.3157895,78.3157895 C30.3157895,76.9205438 31.4468596,75.7894737 32.8421053,75.7894737 C34.2373509,75.7894737 35.3684211,76.9205438 35.3684211,78.3157895 C35.3684211,79.7110352 34.2373509,80.8421053 32.8421053,80.8421053 Z M17.6842105,80.8421053 C16.2889648,80.8421053 15.1578947,79.7110352 15.1578947,78.3157895 C15.1578947,76.9205438 16.2889648,75.7894737 17.6842105,75.7894737 C19.0794562,75.7894737 20.2105263,76.9205438 20.2105263,78.3157895 C20.2105263,79.7110352 19.0794562,80.8421053 17.6842105,80.8421053 Z M2.52631579,80.8421053 C1.13107011,80.8421053 -3.82804899e-13,79.7110352 -3.82804899e-13,78.3157895 C-3.82804899e-13,76.9205438 1.13107011,75.7894737 2.52631579,75.7894737 C3.92156147,75.7894737 5.05263158,76.9205438 5.05263158,78.3157895 C5.05263158,79.7110352 3.92156147,80.8421053 2.52631579,80.8421053 Z M93.4736842,65.6842105 C92.0784385,65.6842105 90.9473684,64.5531404 90.9473684,63.1578947 C90.9473684,61.7626491 92.0784385,60.6315789 93.4736842,60.6315789 C94.8689299,60.6315789 96,61.7626491 96,63.1578947 C96,64.5531404 94.8689299,65.6842105 93.4736842,65.6842105 Z M78.3157895,65.6842105 C76.9205438,65.6842105 75.7894737,64.5531404 75.7894737,63.1578947 C75.7894737,61.7626491 76.9205438,60.6315789 78.3157895,60.6315789 C79.7110352,60.6315789 80.8421053,61.7626491 80.8421053,63.1578947 C80.8421053,64.5531404 79.7110352,65.6842105 78.3157895,65.6842105 Z M63.1578947,65.6842105 C61.7626491,65.6842105 60.6315789,64.5531404 60.6315789,63.1578947 C60.6315789,61.7626491 61.7626491,60.6315789 63.1578947,60.6315789 C64.5531404,60.6315789 65.6842105,61.7626491 65.6842105,63.1578947 C65.6842105,64.5531404 64.5531404,65.6842105 63.1578947,65.6842105 Z M48,65.6842105 C46.6047543,65.6842105 45.4736842,64.5531404 45.4736842,63.1578947 C45.4736842,61.7626491 46.6047543,60.6315789 48,60.6315789 C49.3952457,60.6315789 50.5263158,61.7626491 50.5263158,63.1578947 C50.5263158,64.5531404 49.3952457,65.6842105 48,65.6842105 Z M32.8421053,65.6842105 C31.4468596,65.6842105 30.3157895,64.5531404 30.3157895,63.1578947 C30.3157895,61.7626491 31.4468596,60.6315789 32.8421053,60.6315789 C34.2373509,60.6315789 35.3684211,61.7626491 35.3684211,63.1578947 C35.3684211,64.5531404 34.2373509,65.6842105 32.8421053,65.6842105 Z M17.6842105,65.6842105 C16.2889648,65.6842105 15.1578947,64.5531404 15.1578947,63.1578947 C15.1578947,61.7626491 16.2889648,60.6315789 17.6842105,60.6315789 C19.0794562,60.6315789 20.2105263,61.7626491 20.2105263,63.1578947 C20.2105263,64.5531404 19.0794562,65.6842105 17.6842105,65.6842105 Z M2.52631579,65.6842105 C1.13107011,65.6842105 -3.82804899e-13,64.5531404 -3.82804899e-13,63.1578947 C-3.82804899e-13,61.7626491 1.13107011,60.6315789 2.52631579,60.6315789 C3.92156147,60.6315789 5.05263158,61.7626491 5.05263158,63.1578947 C5.05263158,64.5531404 3.92156147,65.6842105 2.52631579,65.6842105 Z M93.4736842,50.5263158 C92.0784385,50.5263158 90.9473684,49.3952457 90.9473684,48 C90.9473684,46.6047543 92.0784385,45.4736842 93.4736842,45.4736842 C94.8689299,45.4736842 96,46.6047543 96,48 C96,49.3952457 94.8689299,50.5263158 93.4736842,50.5263158 Z M78.3157895,50.5263158 C76.9205438,50.5263158 75.7894737,49.3952457 75.7894737,48 C75.7894737,46.6047543 76.9205438,45.4736842 78.3157895,45.4736842 C79.7110352,45.4736842 80.8421053,46.6047543 80.8421053,48 C80.8421053,49.3952457 79.7110352,50.5263158 78.3157895,50.5263158 Z M63.1578947,50.5263158 C61.7626491,50.5263158 60.6315789,49.3952457 60.6315789,48 C60.6315789,46.6047543 61.7626491,45.4736842 63.1578947,45.4736842 C64.5531404,45.4736842 65.6842105,46.6047543 65.6842105,48 C65.6842105,49.3952457 64.5531404,50.5263158 63.1578947,50.5263158 Z M48,50.5263158 C46.6047543,50.5263158 45.4736842,49.3952457 45.4736842,48 C45.4736842,46.6047543 46.6047543,45.4736842 48,45.4736842 C49.3952457,45.4736842 50.5263158,46.6047543 50.5263158,48 C50.5263158,49.3952457 49.3952457,50.5263158 48,50.5263158 Z M32.8421053,50.5263158 C31.4468596,50.5263158 30.3157895,49.3952457 30.3157895,48 C30.3157895,46.6047543 31.4468596,45.4736842 32.8421053,45.4736842 C34.2373509,45.4736842 35.3684211,46.6047543 35.3684211,48 C35.3684211,49.3952457 34.2373509,50.5263158 32.8421053,50.5263158 Z M17.6842105,50.5263158 C16.2889648,50.5263158 15.1578947,49.3952457 15.1578947,48 C15.1578947,46.6047543 16.2889648,45.4736842 17.6842105,45.4736842 C19.0794562,45.4736842 20.2105263,46.6047543 20.2105263,48 C20.2105263,49.3952457 19.0794562,50.5263158 17.6842105,50.5263158 Z M2.52631579,50.5263158 C1.13107011,50.5263158 -3.82804899e-13,49.3952457 -3.82804899e-13,48 C-3.82804899e-13,46.6047543 1.13107011,45.4736842 2.52631579,45.4736842 C3.92156147,45.4736842 5.05263158,46.6047543 5.05263158,48 C5.05263158,49.3952457 3.92156147,50.5263158 2.52631579,50.5263158 Z M93.4736842,35.3684211 C92.0784385,35.3684211 90.9473684,34.2373509 90.9473684,32.8421053 C90.9473684,31.4468596 92.0784385,30.3157895 93.4736842,30.3157895 C94.8689299,30.3157895 96,31.4468596 96,32.8421053 C96,34.2373509 94.8689299,35.3684211 93.4736842,35.3684211 Z M78.3157895,35.3684211 C76.9205438,35.3684211 75.7894737,34.2373509 75.7894737,32.8421053 C75.7894737,31.4468596 76.9205438,30.3157895 78.3157895,30.3157895 C79.7110352,30.3157895 80.8421053,31.4468596 80.8421053,32.8421053 C80.8421053,34.2373509 79.7110352,35.3684211 78.3157895,35.3684211 Z M63.1578947,35.3684211 C61.7626491,35.3684211 60.6315789,34.2373509 60.6315789,32.8421053 C60.6315789,31.4468596 61.7626491,30.3157895 63.1578947,30.3157895 C64.5531404,30.3157895 65.6842105,31.4468596 65.6842105,32.8421053 C65.6842105,34.2373509 64.5531404,35.3684211 63.1578947,35.3684211 Z M48,35.3684211 C46.6047543,35.3684211 45.4736842,34.2373509 45.4736842,32.8421053 C45.4736842,31.4468596 46.6047543,30.3157895 48,30.3157895 C49.3952457,30.3157895 50.5263158,31.4468596 50.5263158,32.8421053 C50.5263158,34.2373509 49.3952457,35.3684211 48,35.3684211 Z M32.8421053,35.3684211 C31.4468596,35.3684211 30.3157895,34.2373509 30.3157895,32.8421053 C30.3157895,31.4468596 31.4468596,30.3157895 32.8421053,30.3157895 C34.2373509,30.3157895 35.3684211,31.4468596 35.3684211,32.8421053 C35.3684211,34.2373509 34.2373509,35.3684211 32.8421053,35.3684211 Z M17.6842105,35.3684211 C16.2889648,35.3684211 15.1578947,34.2373509 15.1578947,32.8421053 C15.1578947,31.4468596 16.2889648,30.3157895 17.6842105,30.3157895 C19.0794562,30.3157895 20.2105263,31.4468596 20.2105263,32.8421053 C20.2105263,34.2373509 19.0794562,35.3684211 17.6842105,35.3684211 Z M2.52631579,35.3684211 C1.13107011,35.3684211 -3.82804899e-13,34.2373509 -3.82804899e-13,32.8421053 C-3.82804899e-13,31.4468596 1.13107011,30.3157895 2.52631579,30.3157895 C3.92156147,30.3157895 5.05263158,31.4468596 5.05263158,32.8421053 C5.05263158,34.2373509 3.92156147,35.3684211 2.52631579,35.3684211 Z M93.4736842,20.2105263 C92.0784385,20.2105263 90.9473684,19.0794562 90.9473684,17.6842105 C90.9473684,16.2889648 92.0784385,15.1578947 93.4736842,15.1578947 C94.8689299,15.1578947 96,16.2889648 96,17.6842105 C96,19.0794562 94.8689299,20.2105263 93.4736842,20.2105263 Z M78.3157895,20.2105263 C76.9205438,20.2105263 75.7894737,19.0794562 75.7894737,17.6842105 C75.7894737,16.2889648 76.9205438,15.1578947 78.3157895,15.1578947 C79.7110352,15.1578947 80.8421053,16.2889648 80.8421053,17.6842105 C80.8421053,19.0794562 79.7110352,20.2105263 78.3157895,20.2105263 Z M63.1578947,20.2105263 C61.7626491,20.2105263 60.6315789,19.0794562 60.6315789,17.6842105 C60.6315789,16.2889648 61.7626491,15.1578947 63.1578947,15.1578947 C64.5531404,15.1578947 65.6842105,16.2889648 65.6842105,17.6842105 C65.6842105,19.0794562 64.5531404,20.2105263 63.1578947,20.2105263 Z M48,20.2105263 C46.6047543,20.2105263 45.4736842,19.0794562 45.4736842,17.6842105 C45.4736842,16.2889648 46.6047543,15.1578947 48,15.1578947 C49.3952457,15.1578947 50.5263158,16.2889648 50.5263158,17.6842105 C50.5263158,19.0794562 49.3952457,20.2105263 48,20.2105263 Z M32.8421053,20.2105263 C31.4468596,20.2105263 30.3157895,19.0794562 30.3157895,17.6842105 C30.3157895,16.2889648 31.4468596,15.1578947 32.8421053,15.1578947 C34.2373509,15.1578947 35.3684211,16.2889648 35.3684211,17.6842105 C35.3684211,19.0794562 34.2373509,20.2105263 32.8421053,20.2105263 Z M17.6842105,20.2105263 C16.2889648,20.2105263 15.1578947,19.0794562 15.1578947,17.6842105 C15.1578947,16.2889648 16.2889648,15.1578947 17.6842105,15.1578947 C19.0794562,15.1578947 20.2105263,16.2889648 20.2105263,17.6842105 C20.2105263,19.0794562 19.0794562,20.2105263 17.6842105,20.2105263 Z M2.52631579,20.2105263 C1.13107011,20.2105263 -3.82804899e-13,19.0794562 -3.82804899e-13,17.6842105 C-3.82804899e-13,16.2889648 1.13107011,15.1578947 2.52631579,15.1578947 C3.92156147,15.1578947 5.05263158,16.2889648 5.05263158,17.6842105 C5.05263158,19.0794562 3.92156147,20.2105263 2.52631579,20.2105263 Z M93.4736842,5.05263158 C92.0784385,5.05263158 90.9473684,3.92156147 90.9473684,2.52631579 C90.9473684,1.13107011 92.0784385,-4.17443857e-14 93.4736842,-4.17443857e-14 C94.8689299,-4.17443857e-14 96,1.13107011 96,2.52631579 C96,3.92156147 94.8689299,5.05263158 93.4736842,5.05263158 Z M78.3157895,5.05263158 C76.9205438,5.05263158 75.7894737,3.92156147 75.7894737,2.52631579 C75.7894737,1.13107011 76.9205438,-4.17443857e-14 78.3157895,-4.17443857e-14 C79.7110352,-4.17443857e-14 80.8421053,1.13107011 80.8421053,2.52631579 C80.8421053,3.92156147 79.7110352,5.05263158 78.3157895,5.05263158 Z M63.1578947,5.05263158 C61.7626491,5.05263158 60.6315789,3.92156147 60.6315789,2.52631579 C60.6315789,1.13107011 61.7626491,-4.17443857e-14 63.1578947,-4.17443857e-14 C64.5531404,-4.17443857e-14 65.6842105,1.13107011 65.6842105,2.52631579 C65.6842105,3.92156147 64.5531404,5.05263158 63.1578947,5.05263158 Z M48,5.05263158 C46.6047543,5.05263158 45.4736842,3.92156147 45.4736842,2.52631579 C45.4736842,1.13107011 46.6047543,-4.17443857e-14 48,-4.17443857e-14 C49.3952457,-4.17443857e-14 50.5263158,1.13107011 50.5263158,2.52631579 C50.5263158,3.92156147 49.3952457,5.05263158 48,5.05263158 Z M32.8421053,5.05263158 C31.4468596,5.05263158 30.3157895,3.92156147 30.3157895,2.52631579 C30.3157895,1.13107011 31.4468596,-4.17443857e-14 32.8421053,-4.17443857e-14 C34.2373509,-4.17443857e-14 35.3684211,1.13107011 35.3684211,2.52631579 C35.3684211,3.92156147 34.2373509,5.05263158 32.8421053,5.05263158 Z M17.6842105,5.05263158 C16.2889648,5.05263158 15.1578947,3.92156147 15.1578947,2.52631579 C15.1578947,1.13107011 16.2889648,-4.17443857e-14 17.6842105,-4.17443857e-14 C19.0794562,-4.17443857e-14 20.2105263,1.13107011 20.2105263,2.52631579 C20.2105263,3.92156147 19.0794562,5.05263158 17.6842105,5.05263158 Z M2.52631579,5.05263158 C1.13107011,5.05263158 -3.82804899e-13,3.92156147 -3.82804899e-13,2.52631579 C-3.82804899e-13,1.13107011 1.13107011,-4.17443857e-14 2.52631579,-4.17443857e-14 C3.92156147,-4.17443857e-14 5.05263158,1.13107011 5.05263158,2.52631579 C5.05263158,3.92156147 3.92156147,5.05263158 2.52631579,5.05263158 Z"/>
</svg>
