<svg xmlns="http://www.w3.org/2000/svg" width="400" height="400" viewBox="0 0 400 400">
  <g fill="#555DBA" fill-rule="evenodd" transform="translate(260 110)">
    <circle cx="137.5" cy="287.5" r="2.5"/>
    <circle cx="122.5" cy="287.5" r="2.5"/>
    <circle cx="107.5" cy="287.5" r="2.5"/>
    <circle cx="92.5" cy="287.5" r="2.5"/>
    <circle cx="77.5" cy="287.5" r="2.5"/>
    <circle cx="62.5" cy="287.5" r="2.5"/>
    <circle cx="47.5" cy="287.5" r="2.5"/>
    <circle cx="32.5" cy="287.5" r="2.5"/>
    <circle cx="17.5" cy="287.5" r="2.5"/>
    <circle cx="2.5" cy="287.5" r="2.5"/>
    <circle cx="137.5" cy="272.5" r="2.5"/>
    <circle cx="122.5" cy="272.5" r="2.5"/>
    <circle cx="107.5" cy="272.5" r="2.5"/>
    <circle cx="92.5" cy="272.5" r="2.5"/>
    <circle cx="77.5" cy="272.5" r="2.5"/>
    <circle cx="62.5" cy="272.5" r="2.5"/>
    <circle cx="47.5" cy="272.5" r="2.5"/>
    <circle cx="32.5" cy="272.5" r="2.5"/>
    <circle cx="17.5" cy="272.5" r="2.5"/>
    <circle cx="2.5" cy="272.5" r="2.5"/>
    <circle cx="137.5" cy="257.5" r="2.5"/>
    <circle cx="122.5" cy="257.5" r="2.5"/>
    <circle cx="107.5" cy="257.5" r="2.5"/>
    <circle cx="92.5" cy="257.5" r="2.5"/>
    <circle cx="77.5" cy="257.5" r="2.5"/>
    <circle cx="62.5" cy="257.5" r="2.5"/>
    <circle cx="47.5" cy="257.5" r="2.5"/>
    <circle cx="32.5" cy="257.5" r="2.5"/>
    <circle cx="17.5" cy="257.5" r="2.5"/>
    <circle cx="2.5" cy="257.5" r="2.5"/>
    <circle cx="137.5" cy="242.5" r="2.5"/>
    <circle cx="122.5" cy="242.5" r="2.5"/>
    <circle cx="107.5" cy="242.5" r="2.5"/>
    <circle cx="92.5" cy="242.5" r="2.5"/>
    <circle cx="77.5" cy="242.5" r="2.5"/>
    <circle cx="62.5" cy="242.5" r="2.5"/>
    <circle cx="47.5" cy="242.5" r="2.5"/>
    <circle cx="32.5" cy="242.5" r="2.5"/>
    <circle cx="17.5" cy="242.5" r="2.5"/>
    <circle cx="2.5" cy="242.5" r="2.5"/>
    <circle cx="137.5" cy="227.5" r="2.5"/>
    <circle cx="122.5" cy="227.5" r="2.5"/>
    <circle cx="107.5" cy="227.5" r="2.5"/>
    <circle cx="92.5" cy="227.5" r="2.5"/>
    <circle cx="77.5" cy="227.5" r="2.5"/>
    <circle cx="62.5" cy="227.5" r="2.5"/>
    <circle cx="47.5" cy="227.5" r="2.5"/>
    <circle cx="32.5" cy="227.5" r="2.5"/>
    <circle cx="17.5" cy="227.5" r="2.5"/>
    <circle cx="2.5" cy="227.5" r="2.5"/>
    <circle cx="137.5" cy="212.5" r="2.5"/>
    <circle cx="122.5" cy="212.5" r="2.5"/>
    <circle cx="107.5" cy="212.5" r="2.5"/>
    <circle cx="92.5" cy="212.5" r="2.5"/>
    <circle cx="77.5" cy="212.5" r="2.5"/>
    <circle cx="62.5" cy="212.5" r="2.5"/>
    <circle cx="47.5" cy="212.5" r="2.5"/>
    <circle cx="32.5" cy="212.5" r="2.5"/>
    <circle cx="17.5" cy="212.5" r="2.5"/>
    <circle cx="2.5" cy="212.5" r="2.5"/>
    <circle cx="137.5" cy="197.5" r="1.5"/>
    <circle cx="122.5" cy="197.5" r="1.5"/>
    <circle cx="107.5" cy="197.5" r="1.5"/>
    <circle cx="92.5" cy="197.5" r="1.5"/>
    <circle cx="77.5" cy="197.5" r="1.5"/>
    <circle cx="62.5" cy="197.5" r="1.5"/>
    <circle cx="47.5" cy="197.5" r="1.5"/>
    <circle cx="32.5" cy="197.5" r="1.5"/>
    <circle cx="17.5" cy="197.5" r="1.5"/>
    <circle cx="2.5" cy="197.5" r="1.5"/>
    <circle cx="137.5" cy="182.5" r="2.5"/>
    <circle cx="122.5" cy="182.5" r="2.5"/>
    <circle cx="107.5" cy="182.5" r="2.5"/>
    <circle cx="92.5" cy="182.5" r="2.5"/>
    <circle cx="77.5" cy="182.5" r="2.5"/>
    <circle cx="62.5" cy="182.5" r="2.5"/>
    <circle cx="47.5" cy="182.5" r="2.5"/>
    <circle cx="32.5" cy="182.5" r="2.5"/>
    <circle cx="17.5" cy="182.5" r="2.5"/>
    <circle cx="2.5" cy="182.5" r="2.5"/>
    <circle cx="137.5" cy="167.5" r="2.5"/>
    <circle cx="122.5" cy="167.5" r="2.5"/>
    <circle cx="107.5" cy="167.5" r="2.5"/>
    <circle cx="92.5" cy="167.5" r="2.5"/>
    <circle cx="77.5" cy="167.5" r="2.5"/>
    <circle cx="62.5" cy="167.5" r="2.5"/>
    <circle cx="47.5" cy="167.5" r="2.5"/>
    <circle cx="32.5" cy="167.5" r="2.5"/>
    <circle cx="17.5" cy="167.5" r="2.5"/>
    <circle cx="2.5" cy="167.5" r="2.5"/>
    <circle cx="137.5" cy="152.5" r="2.5"/>
    <circle cx="122.5" cy="152.5" r="2.5"/>
    <circle cx="107.5" cy="152.5" r="2.5"/>
    <circle cx="92.5" cy="152.5" r="2.5"/>
    <circle cx="77.5" cy="152.5" r="2.5"/>
    <circle cx="62.5" cy="152.5" r="2.5"/>
    <circle cx="47.5" cy="152.5" r="2.5"/>
    <circle cx="32.5" cy="152.5" r="2.5"/>
    <circle cx="17.5" cy="152.5" r="2.5"/>
    <circle cx="2.5" cy="152.5" r="2.5"/>
    <circle cx="137.5" cy="137.5" r="2.5"/>
    <circle cx="122.5" cy="137.5" r="2.5"/>
    <circle cx="107.5" cy="137.5" r="2.5"/>
    <circle cx="92.5" cy="137.5" r="2.5"/>
    <circle cx="77.5" cy="137.5" r="2.5"/>
    <circle cx="62.5" cy="137.5" r="2.5"/>
    <circle cx="47.5" cy="137.5" r="2.5"/>
    <circle cx="32.5" cy="137.5" r="2.5"/>
    <circle cx="17.5" cy="137.5" r="2.5"/>
    <circle cx="2.5" cy="137.5" r="2.5"/>
    <circle cx="137.5" cy="122.5" r="2.5"/>
    <circle cx="122.5" cy="122.5" r="2.5"/>
    <circle cx="107.5" cy="122.5" r="2.5"/>
    <circle cx="92.5" cy="122.5" r="2.5"/>
    <circle cx="77.5" cy="122.5" r="2.5"/>
    <circle cx="62.5" cy="122.5" r="2.5"/>
    <circle cx="47.5" cy="122.5" r="2.5"/>
    <circle cx="32.5" cy="122.5" r="2.5"/>
    <circle cx="17.5" cy="122.5" r="2.5"/>
    <circle cx="2.5" cy="122.5" r="2.5"/>
    <circle cx="137.5" cy="107.5" r="2.5"/>
    <circle cx="122.5" cy="107.5" r="2.5"/>
    <circle cx="107.5" cy="107.5" r="2.5"/>
    <circle cx="92.5" cy="107.5" r="2.5"/>
    <circle cx="77.5" cy="107.5" r="2.5"/>
    <circle cx="62.5" cy="107.5" r="2.5"/>
    <circle cx="47.5" cy="107.5" r="2.5"/>
    <circle cx="32.5" cy="107.5" r="2.5"/>
    <circle cx="17.5" cy="107.5" r="2.5"/>
    <circle cx="2.5" cy="107.5" r="2.5"/>
    <circle cx="137.5" cy="92.5" r="2.5"/>
    <circle cx="122.5" cy="92.5" r="2.5"/>
    <circle cx="107.5" cy="92.5" r="2.5"/>
    <circle cx="92.5" cy="92.5" r="2.5"/>
    <circle cx="77.5" cy="92.5" r="2.5"/>
    <circle cx="62.5" cy="92.5" r="2.5"/>
    <circle cx="47.5" cy="92.5" r="2.5"/>
    <circle cx="32.5" cy="92.5" r="2.5"/>
    <circle cx="17.5" cy="92.5" r="2.5"/>
    <circle cx="2.5" cy="92.5" r="2.5"/>
    <circle cx="137.5" cy="77.5" r="2.5"/>
    <circle cx="122.5" cy="77.5" r="2.5"/>
    <circle cx="107.5" cy="77.5" r="2.5"/>
    <circle cx="92.5" cy="77.5" r="2.5"/>
    <circle cx="77.5" cy="77.5" r="2.5"/>
    <circle cx="62.5" cy="77.5" r="2.5"/>
    <circle cx="47.5" cy="77.5" r="2.5"/>
    <circle cx="32.5" cy="77.5" r="2.5"/>
    <circle cx="17.5" cy="77.5" r="2.5"/>
    <circle cx="2.5" cy="77.5" r="2.5"/>
    <circle cx="137.5" cy="62.5" r="2.5"/>
    <circle cx="122.5" cy="62.5" r="2.5"/>
    <circle cx="107.5" cy="62.5" r="2.5"/>
    <circle cx="92.5" cy="62.5" r="2.5"/>
    <circle cx="77.5" cy="62.5" r="2.5"/>
    <circle cx="62.5" cy="62.5" r="2.5"/>
    <circle cx="47.5" cy="62.5" r="2.5"/>
    <circle cx="32.5" cy="62.5" r="2.5"/>
    <circle cx="17.5" cy="62.5" r="2.5"/>
    <circle cx="2.5" cy="62.5" r="2.5"/>
    <circle cx="137.5" cy="47.5" r="2.5"/>
    <circle cx="122.5" cy="47.5" r="2.5"/>
    <circle cx="107.5" cy="47.5" r="2.5"/>
    <circle cx="92.5" cy="47.5" r="2.5"/>
    <circle cx="77.5" cy="47.5" r="2.5"/>
    <circle cx="62.5" cy="47.5" r="2.5"/>
    <circle cx="47.5" cy="47.5" r="2.5"/>
    <circle cx="32.5" cy="47.5" r="2.5"/>
    <circle cx="17.5" cy="47.5" r="2.5"/>
    <circle cx="2.5" cy="47.5" r="2.5"/>
    <circle cx="137.5" cy="32.5" r="2.5"/>
    <circle cx="122.5" cy="32.5" r="2.5"/>
    <circle cx="107.5" cy="32.5" r="2.5"/>
    <circle cx="92.5" cy="32.5" r="2.5"/>
    <circle cx="77.5" cy="32.5" r="2.5"/>
    <circle cx="62.5" cy="32.5" r="2.5"/>
    <circle cx="47.5" cy="32.5" r="2.5"/>
    <circle cx="32.5" cy="32.5" r="2.5"/>
    <circle cx="17.5" cy="32.5" r="2.5"/>
    <circle cx="2.5" cy="32.5" r="2.5"/>
    <circle cx="137.5" cy="17.5" r="2.5"/>
    <circle cx="122.5" cy="17.5" r="2.5"/>
    <circle cx="107.5" cy="17.5" r="2.5"/>
    <circle cx="92.5" cy="17.5" r="2.5"/>
    <circle cx="77.5" cy="17.5" r="2.5"/>
    <circle cx="62.5" cy="17.5" r="2.5"/>
    <circle cx="47.5" cy="17.5" r="2.5"/>
    <circle cx="32.5" cy="17.5" r="2.5"/>
    <circle cx="17.5" cy="17.5" r="2.5"/>
    <circle cx="2.5" cy="17.5" r="2.5"/>
    <circle cx="137.5" cy="2.5" r="2.5"/>
    <circle cx="122.5" cy="2.5" r="2.5"/>
    <circle cx="107.5" cy="2.5" r="2.5"/>
    <circle cx="92.5" cy="2.5" r="2.5"/>
    <circle cx="77.5" cy="2.5" r="2.5"/>
    <circle cx="62.5" cy="2.5" r="2.5"/>
    <circle cx="47.5" cy="2.5" r="2.5"/>
    <circle cx="32.5" cy="2.5" r="2.5"/>
    <circle cx="17.5" cy="2.5" r="2.5"/>
    <circle cx="2.5" cy="2.5" r="2.5"/>
  </g>
</svg>
