<svg xmlns="http://www.w3.org/2000/svg" width="190" height="56" viewBox="0 0 190 56">
  <g fill="none" fill-rule="evenodd">
    <path fill="#FFF" fill-rule="nonzero" d="M71.0021245,32.1056221 C71.0021245,32.3956565 70.7607767,32.6317311 70.4725002,32.6317311 L60.2688514,32.6317311 C60.5236074,35.1678464 62.4208693,37.4813772 65.0891033,37.4813772 C66.9126201,37.4813772 68.2668494,36.7798985 69.2858735,35.3162361 C69.4333638,35.1138865 69.6545993,34.9857318 69.9361717,35.1071415 C70.0903661,35.1745914 70.1976318,35.3162361 70.2244483,35.4781159 C70.2512647,35.6467405 70.2043359,35.7411704 70.1574072,35.8356002 C69.131679,37.6365119 67.0869268,38.5201053 65.0823992,38.5201053 C61.6498971,38.5201053 59.2028986,35.4309009 59.2028986,32.125857 C59.2028986,28.8208131 61.6498971,25.7316088 65.0823992,25.7316088 C68.5149013,25.7248638 70.9954204,28.8073231 71.0021245,32.1056221 L71.0021245,32.1056221 Z M69.9093553,31.606493 C69.6881198,29.0703776 67.7573374,26.7568469 65.0891033,26.7568469 C62.4208693,26.7568469 60.5236074,29.0703776 60.2688514,31.606493 L69.9093553,31.606493 Z M83.3846077,25.9811733 C83.6795883,25.9811733 83.8941197,26.2374829 83.8941197,26.4937924 C83.8941197,26.7905718 83.6728842,27.0064114 83.3846077,27.0064114 L80.6493326,27.0064114 L80.6493326,37.8051366 C80.6493326,38.0614461 80.4280971,38.3177556 80.1398205,38.3177556 C79.8448399,38.3177556 79.6303085,38.0614461 79.6303085,37.8051366 L79.6303085,27.0064114 L77.0022991,27.0064114 C76.7073184,27.0064114 76.4927871,26.7838269 76.4927871,26.4937924 C76.4927871,26.2374829 76.7140225,25.9811733 77.0022991,25.9811733 L79.6303085,25.9811733 L79.6303085,22.0286106 C79.6303085,21.7790461 79.7979111,21.5497165 80.0392589,21.5092466 C80.3811683,21.4552867 80.6493326,21.6913612 80.6493326,22.0151206 L80.6493326,25.9811733 L83.3846077,25.9811733 Z M100.071127,31.2017937 L100.071127,37.7444317 C100.071127,38.0412111 99.8163706,38.2570507 99.5616146,38.2570507 C99.266634,38.2570507 99.0521026,38.0344661 99.0521026,37.7444317 L99.0521026,31.2017937 C99.0521026,28.9961828 97.8118431,26.7905718 95.3648445,26.7905718 C92.227323,26.7905718 90.8730937,29.5492718 91.0541045,32.3754216 C91.0541045,32.4496164 91.0876251,32.7801208 91.0876251,32.8138458 L91.0876251,37.7241967 C91.0876251,37.9737613 90.9200224,38.2030908 90.6786746,38.2435608 C90.3367652,38.2975207 90.068601,38.0614461 90.068601,37.7376867 L90.068601,16.2481562 C90.068601,15.9918467 90.2898365,15.7355372 90.578113,15.7355372 C90.8730937,15.7355372 91.0876251,15.9918467 91.0876251,16.2481562 L91.0876251,28.4093689 C91.9658629,26.8310418 93.5346236,25.7653337 95.3581404,25.7653337 C98.3548756,25.7653337 100.071127,28.4093689 100.071127,31.2017937 L100.071127,31.2017937 Z M118.366631,32.1056221 C118.366631,32.3956565 118.125283,32.6317311 117.837007,32.6317311 L107.626654,32.6317311 C107.88141,35.1678464 109.778672,37.4813772 112.446906,37.4813772 C114.270422,37.4813772 115.624652,36.7798985 116.643676,35.3162361 C116.791166,35.1138865 117.012402,34.9857318 117.293974,35.1071415 C117.448169,35.1745914 117.555434,35.3162361 117.582251,35.4781159 C117.609067,35.6467405 117.562138,35.7411704 117.51521,35.8356002 C116.489481,37.6365119 114.444729,38.5201053 112.440202,38.5201053 C109.0077,38.5201053 106.560701,35.4309009 106.560701,32.125857 C106.560701,28.8208131 109.0077,25.7316088 112.440202,25.7316088 C115.879408,25.7248638 118.359927,28.8073231 118.366631,32.1056221 L118.366631,32.1056221 Z M117.267158,31.606493 C117.045922,29.0703776 115.11514,26.7568469 112.446906,26.7568469 C109.778672,26.7568469 107.88141,29.0703776 107.626654,31.606493 L117.267158,31.606493 Z M130.8899,26.4600674 C130.8899,26.7905718 130.70889,26.9726865 130.413909,27.0131564 C127.417174,27.4515806 126.069648,29.9135011 126.069648,32.7801208 L126.069648,37.6904718 C126.069648,37.9400363 125.902046,38.1693659 125.660698,38.2098358 C125.318789,38.2637957 125.050624,38.0277212 125.050624,37.7039618 L125.050624,26.5140274 C125.050624,26.2644628 125.218227,26.0351332 125.459575,25.9946633 C125.801484,25.9407034 126.069648,26.176778 126.069648,26.5005374 L126.069648,28.7803432 C126.907662,27.3504058 128.590392,25.9879183 130.340164,25.9879183 C130.59492,25.9811733 130.8899,26.170033 130.8899,26.4600674 L130.8899,26.4600674 Z M147.650165,32.1056221 C147.650165,32.3956565 147.408817,32.6317311 147.12054,32.6317311 L136.916891,32.6317311 C137.171647,35.1678464 139.068909,37.4813772 141.737143,37.4813772 C143.56066,37.4813772 144.914889,36.7798985 145.933913,35.3162361 C146.081404,35.1138865 146.302639,34.9857318 146.584212,35.1071415 C146.738406,35.1745914 146.845672,35.3162361 146.872488,35.4781159 C146.899305,35.6467405 146.852376,35.7411704 146.805447,35.8356002 C145.779719,37.6365119 143.734967,38.5201053 141.730439,38.5201053 C138.297937,38.5201053 135.850939,35.4309009 135.850939,32.125857 C135.850939,28.8208131 138.297937,25.7316088 141.730439,25.7316088 C145.162941,25.7248638 147.64346,28.8073231 147.650165,32.1056221 L147.650165,32.1056221 Z M146.557395,31.606493 C146.33616,29.0703776 144.405377,26.7568469 141.737143,26.7568469 C139.068909,26.7568469 137.171647,29.0703776 136.916891,31.606493 L146.557395,31.606493 L146.557395,31.606493 Z M164.122152,26.5882222 L164.122152,37.8051366 C164.122152,38.101916 163.867396,38.3177556 163.61264,38.3177556 C163.317659,38.3177556 163.103128,38.095171 163.103128,37.8051366 L163.103128,35.6737205 C162.265115,37.3667124 160.763395,38.5740652 158.866133,38.5740652 C155.835878,38.5740652 154.153147,35.93003 154.153147,33.1376052 L154.153147,26.5612423 C154.153147,26.3049327 154.374383,26.0486232 154.662659,26.0486232 C154.95764,26.0486232 155.172171,26.3049327 155.172171,26.5612423 L155.172171,33.1376052 C155.172171,35.3432161 156.412431,37.548827 158.859429,37.548827 C162.291931,37.548827 163.096424,34.317978 163.096424,30.7498796 L163.096424,26.5612423 C163.096424,26.2644628 163.391405,25.9609384 163.753426,26.0688582 C163.974662,26.143053 164.122152,26.3588926 164.122152,26.5882222 L164.122152,26.5882222 Z M189.932959,31.1613238 L189.932959,37.7376867 C189.932959,38.0344661 189.678203,38.2503057 189.423447,38.2503057 C189.128466,38.2503057 188.913935,38.0277212 188.913935,37.7376867 L188.913935,31.1613238 C188.913935,28.9557129 187.673675,26.7905718 185.226677,26.7905718 C182.156196,26.7905718 180.989682,30.0956158 180.989682,32.665456 L180.989682,37.7376867 C180.989682,38.0344661 180.734926,38.2503057 180.48017,38.2503057 C180.185189,38.2503057 179.970658,38.0277212 179.970658,37.7376867 L179.970658,31.1613238 C179.970658,28.9557129 178.730398,26.7905718 176.2834,26.7905718 C173.179399,26.7905718 171.898915,29.2524923 172.012885,32.5238113 C172.012885,32.5980062 172.046405,32.7463959 172.012885,32.7801208 L172.012885,37.7241967 C172.012885,37.9737613 171.845282,38.2030908 171.59723,38.2435608 C171.255321,38.2975207 170.987156,38.0614461 170.987156,37.7376867 L170.987156,26.5140274 C170.987156,26.2644628 171.154759,26.0351332 171.396107,25.9946633 C171.738016,25.9407034 172.00618,26.176778 172.00618,26.5005374 L172.00618,28.3756439 C172.884418,26.7973168 174.453179,25.7653337 176.276696,25.7653337 C178.354968,25.7653337 179.963954,27.0873513 180.620956,29.0366527 C181.458969,27.1278212 183.101475,25.7653337 185.219973,25.7653337 C188.216708,25.7653337 189.932959,28.3688989 189.932959,31.1613238 L189.932959,31.1613238 Z"/>
    <polygon fill="#FFF" points="17.244 20.667 .188 28.471 17.244 38.608 34.292 28.471"/>
    <polygon fill="#B5B5B5" points=".188 28.471 17.244 38.608 17.244 0"/>
    <polygon fill="#EBECF3" points="17.244 0 17.244 38.608 34.292 28.471"/>
    <polygon fill="#FFF" points=".188 31.722 17.244 55.896 17.244 41.859"/>
    <polygon fill="#B5B5B5" points="17.244 41.859 17.244 55.896 34.306 31.722"/>
  </g>
</svg>
