<svg xmlns="http://www.w3.org/2000/svg" width="183" height="56" viewBox="0 0 183 56">
  <g fill="#FFF" fill-rule="evenodd">
    <path fill-rule="nonzero" d="M58,37.76 L58,21.008 L68.32,21.008 L68.32,22.76 L60.016,22.76 L60.016,28.4 L68.032,28.4 L68.032,30.152 L60.016,30.152 L60.016,36.008 L68.32,36.008 L68.32,37.76 L58,37.76 Z M79.84,37.76 C78.8959952,37.76 78.2040022,37.4960026 77.764,36.968 C77.3239978,36.4399974 77.104,35.7600042 77.104,34.928 L77.104,27.008 L72.976,27.008 L72.976,25.376 L76.048,25.376 C76.464002,25.376 76.7559991,25.2920008 76.924,25.124 C77.0920008,24.9559992 77.176,24.6640021 77.176,24.248 L77.176,21.008 L79.024,21.008 L79.024,25.376 L84.664,25.376 L84.664,27.008 L79.024,27.008 L79.024,36.128 L84.664,36.128 L84.664,37.76 L79.84,37.76 Z M90.5919999,20 L92.5119999,20 L92.5119999,27.392 L92.6079999,27.392 C92.7360005,27.0879985 92.8959989,26.7960014 93.0879999,26.516 C93.2800009,26.2359986 93.5159985,25.992001 93.7959999,25.784 C94.0760013,25.575999 94.407998,25.4080006 94.7919999,25.28 C95.1760018,25.1519994 95.6239973,25.088 96.1359999,25.088 C97.4320064,25.088 98.471996,25.4999959 99.2559999,26.324 C100.040004,27.1480041 100.432,28.3119925 100.432,29.816 L100.432,37.76 L98.5119999,37.76 L98.5119999,30.152 C98.5119999,29.0159943 98.2640024,28.1720028 97.7679999,27.62 C97.2719974,27.0679972 96.5440047,26.792 95.5839999,26.792 C95.199998,26.792 94.8240017,26.8399995 94.4559999,26.936 C94.0879981,27.0320005 93.7600013,27.175999 93.4719999,27.368 C93.1839985,27.560001 92.9520008,27.8079985 92.7759999,28.112 C92.599999,28.4160015 92.5119999,28.767998 92.5119999,29.168 L92.5119999,37.76 L90.5919999,37.76 L90.5919999,20 Z M111.856,38.048 C110.959995,38.048 110.156003,37.8960015 109.444,37.592 C108.731996,37.2879985 108.124002,36.8520028 107.62,36.284 C107.115997,35.7159972 106.728001,35.036004 106.456,34.244 C106.183998,33.451996 106.048,32.5680049 106.048,31.592 C106.048,30.599995 106.187998,29.704004 106.468,28.904 C106.748001,28.103996 107.135997,27.4200028 107.632,26.852 C108.128002,26.2839972 108.723996,25.8480015 109.42,25.544 C110.116003,25.2399985 110.887996,25.088 111.736,25.088 C112.568004,25.088 113.323996,25.2399985 114.004,25.544 C114.684003,25.8480015 115.263997,26.2679973 115.744,26.804 C116.224002,27.3400027 116.591999,27.9759963 116.848,28.712 C117.104001,29.4480037 117.232,30.2559956 117.232,31.136 L117.232,32.048 L108.064,32.048 L108.064,32.624 C108.064,33.1680027 108.151999,33.6719977 108.328,34.136 C108.504001,34.6000023 108.755998,34.9999983 109.084,35.336 C109.412001,35.6720017 109.811997,35.9319991 110.284,36.116 C110.756002,36.3000009 111.279997,36.392 111.856,36.392 C112.688004,36.392 113.407997,36.2000019 114.016,35.816 C114.624003,35.4319981 115.087998,34.9040034 115.408,34.232 L116.824,35.192 C116.455998,36.0240042 115.844004,36.7079973 114.988,37.244 C114.131996,37.7800027 113.088006,38.048 111.856,38.048 Z M111.736,26.672 C111.207997,26.672 110.720002,26.767999 110.272,26.96 C109.823998,27.152001 109.436001,27.4159983 109.108,27.752 C108.779998,28.0880017 108.524001,28.4839977 108.34,28.94 C108.155999,29.3960023 108.064,29.8959973 108.064,30.44 L108.064,30.608 L115.168,30.608 L115.168,30.344 C115.168,29.7999973 115.084001,29.3040022 114.916,28.856 C114.747999,28.4079978 114.516001,28.0200016 114.22,27.692 C113.923998,27.3639984 113.564002,27.1120009 113.14,26.936 C112.715998,26.7599991 112.248002,26.672 111.736,26.672 Z M122.488,36.128 L126.112,36.128 L126.112,27.008 L122.488,27.008 L122.488,25.376 L128.032,25.376 L128.032,28.496 L128.152,28.496 C128.408001,27.5199951 128.891996,26.7560028 129.604,26.204 C130.316003,25.6519972 131.223994,25.376 132.328,25.376 L134.056,25.376 L134.056,27.296 L131.728,27.296 C130.623994,27.296 129.732003,27.6159968 129.052,28.256 C128.371996,28.8960032 128.032,29.7359948 128.032,30.776 L128.032,36.128 L132.832,36.128 L132.832,37.76 L122.488,37.76 L122.488,36.128 Z M144.256,38.048 C143.359995,38.048 142.556003,37.8960015 141.844,37.592 C141.131996,37.2879985 140.524002,36.8520028 140.02,36.284 C139.515997,35.7159972 139.128001,35.036004 138.856,34.244 C138.583998,33.451996 138.448,32.5680049 138.448,31.592 C138.448,30.599995 138.587998,29.704004 138.868,28.904 C139.148001,28.103996 139.535997,27.4200028 140.032,26.852 C140.528002,26.2839972 141.123996,25.8480015 141.82,25.544 C142.516003,25.2399985 143.287996,25.088 144.136,25.088 C144.968004,25.088 145.723996,25.2399985 146.404,25.544 C147.084003,25.8480015 147.663997,26.2679973 148.144,26.804 C148.624002,27.3400027 148.991998,27.9759963 149.248,28.712 C149.504001,29.4480037 149.632,30.2559956 149.632,31.136 L149.632,32.048 L140.464,32.048 L140.464,32.624 C140.464,33.1680027 140.551999,33.6719977 140.728,34.136 C140.904001,34.6000023 141.155998,34.9999983 141.484,35.336 C141.812001,35.6720017 142.211997,35.9319991 142.684,36.116 C143.156002,36.3000009 143.679997,36.392 144.256,36.392 C145.088004,36.392 145.807997,36.2000019 146.416,35.816 C147.024003,35.4319981 147.487998,34.9040034 147.808,34.232 L149.224,35.192 C148.855998,36.0240042 148.244004,36.7079973 147.388,37.244 C146.531995,37.7800027 145.488006,38.048 144.256,38.048 Z M144.136,26.672 C143.607997,26.672 143.120002,26.767999 142.672,26.96 C142.223998,27.152001 141.836001,27.4159983 141.508,27.752 C141.179998,28.0880017 140.924001,28.4839977 140.74,28.94 C140.555999,29.3960023 140.464,29.8959973 140.464,30.44 L140.464,30.608 L147.568,30.608 L147.568,30.344 C147.568,29.7999973 147.484001,29.3040022 147.316,28.856 C147.147999,28.4079978 146.916001,28.0200016 146.62,27.692 C146.323998,27.3639984 145.964002,27.1120009 145.54,26.936 C145.115998,26.7599991 144.648002,26.672 144.136,26.672 Z M163.168,35.744 L163.072,35.744 C162.943999,36.0480015 162.784001,36.3399986 162.592,36.62 C162.399999,36.9000014 162.164001,37.143999 161.884,37.352 C161.603998,37.560001 161.272002,37.7279994 160.888,37.856 C160.503998,37.9840006 160.056002,38.048 159.544,38.048 C158.247993,38.048 157.208004,37.6360041 156.424,36.812 C155.639996,35.9879959 155.248,34.8240075 155.248,33.32 L155.248,25.376 L157.168,25.376 L157.168,32.984 C157.168,34.1200057 157.415997,34.9639972 157.912,35.516 C158.408002,36.0680028 159.135995,36.344 160.096,36.344 C160.480002,36.344 160.855998,36.2960005 161.224,36.2 C161.592002,36.1039995 161.919998,35.960001 162.208,35.768 C162.496001,35.575999 162.727999,35.3320015 162.904,35.036 C163.080001,34.7399985 163.168,34.3840021 163.168,33.968 L163.168,25.376 L165.088,25.376 L165.088,37.76 L163.168,37.76 L163.168,35.744 Z M170.536,37.76 L170.536,25.376 L172.312,25.376 L172.312,26.816 L172.408,26.816 C172.600001,26.3359976 172.871998,25.9280017 173.224,25.592 C173.576001,25.2559983 174.095996,25.088 174.784,25.088 C175.504003,25.088 176.039998,25.2679982 176.392,25.628 C176.744001,25.9880018 176.959999,26.4559971 177.04,27.032 L177.112,27.032 C177.336001,26.4719972 177.655998,26.0080018 178.072,25.64 C178.488002,25.2719982 179.063996,25.088 179.8,25.088 C180.808005,25.088 181.483998,25.4399965 181.828,26.144 C182.172001,26.8480035 182.344,27.8559934 182.344,29.168 L182.344,37.76 L180.568,37.76 L180.568,29.48 C180.568,28.4239947 180.460001,27.692002 180.244,27.284 C180.027999,26.875998 179.632003,26.672 179.056,26.672 C178.543997,26.672 178.128001,26.8359984 177.808,27.164 C177.487998,27.4920016 177.328,27.9919966 177.328,28.664 L177.328,37.76 L175.552,37.76 L175.552,29.48 C175.552,28.4239947 175.444001,27.692002 175.228,27.284 C175.011999,26.875998 174.624002,26.672 174.064,26.672 C173.551997,26.672 173.132001,26.8359984 172.804,27.164 C172.475998,27.4920016 172.312,27.9919966 172.312,28.664 L172.312,37.76 L170.536,37.76 Z"/>
    <path d="M17.0552448,41.859393 L34.1171937,31.7216766 L17.0552448,55.8957121 L1.81188398e-13,31.7216766 L17.0552448,41.859393 Z M17.0552448,0 L34.1037855,28.4705926 L17.0552448,38.6083089 L1.81188398e-13,28.4705926 L17.0552448,0 Z"/>
  </g>
</svg>
