<svg xmlns="http://www.w3.org/2000/svg" width="96" height="96" viewBox="0 0 96 96">
  <path fill="#31A28A" fill-rule="evenodd" d="M93.4736842,96 C92.0784385,96 90.9473684,94.8689299 90.9473684,93.4736842 C90.9473684,92.0784385 92.0784385,90.9473684 93.4736842,90.9473684 C94.8689299,90.9473684 96,92.0784385 96,93.4736842 C96,94.8689299 94.8689299,96 93.4736842,96 Z M2.52631579,96 C1.13107011,96 -3.82804899e-13,94.8689299 -3.82804899e-13,93.4736842 C-3.82804899e-13,92.0784385 1.13107011,90.9473684 2.52631579,90.9473684 C3.92156147,90.9473684 5.05263158,92.0784385 5.05263158,93.4736842 C5.05263158,94.8689299 3.92156147,96 2.52631579,96 Z M93.4736842,80.8421053 C92.0784385,80.8421053 90.9473684,79.7110352 90.9473684,78.3157895 C90.9473684,76.9205438 92.0784385,75.7894737 93.4736842,75.7894737 C94.8689299,75.7894737 96,76.9205438 96,78.3157895 C96,79.7110352 94.8689299,80.8421053 93.4736842,80.8421053 Z M78.3157895,80.8421053 C76.9205438,80.8421053 75.7894737,79.7110352 75.7894737,78.3157895 C75.7894737,76.9205438 76.9205438,75.7894737 78.3157895,75.7894737 C79.7110352,75.7894737 80.8421053,76.9205438 80.8421053,78.3157895 C80.8421053,79.7110352 79.7110352,80.8421053 78.3157895,80.8421053 Z M17.6842105,80.8421053 C16.2889648,80.8421053 15.1578947,79.7110352 15.1578947,78.3157895 C15.1578947,76.9205438 16.2889648,75.7894737 17.6842105,75.7894737 C19.0794562,75.7894737 20.2105263,76.9205438 20.2105263,78.3157895 C20.2105263,79.7110352 19.0794562,80.8421053 17.6842105,80.8421053 Z M2.52631579,80.8421053 C1.13107011,80.8421053 -3.82804899e-13,79.7110352 -3.82804899e-13,78.3157895 C-3.82804899e-13,76.9205438 1.13107011,75.7894737 2.52631579,75.7894737 C3.92156147,75.7894737 5.05263158,76.9205438 5.05263158,78.3157895 C5.05263158,79.7110352 3.92156147,80.8421053 2.52631579,80.8421053 Z M93.4736842,65.6842105 C92.0784385,65.6842105 90.9473684,64.5531404 90.9473684,63.1578947 C90.9473684,61.7626491 92.0784385,60.6315789 93.4736842,60.6315789 C94.8689299,60.6315789 96,61.7626491 96,63.1578947 C96,64.5531404 94.8689299,65.6842105 93.4736842,65.6842105 Z M78.3157895,65.6842105 C76.9205438,65.6842105 75.7894737,64.5531404 75.7894737,63.1578947 C75.7894737,61.7626491 76.9205438,60.6315789 78.3157895,60.6315789 C79.7110352,60.6315789 80.8421053,61.7626491 80.8421053,63.1578947 C80.8421053,64.5531404 79.7110352,65.6842105 78.3157895,65.6842105 Z M63.1578947,65.6842105 C61.7626491,65.6842105 60.6315789,64.5531404 60.6315789,63.1578947 C60.6315789,61.7626491 61.7626491,60.6315789 63.1578947,60.6315789 C64.5531404,60.6315789 65.6842105,61.7626491 65.6842105,63.1578947 C65.6842105,64.5531404 64.5531404,65.6842105 63.1578947,65.6842105 Z M32.8421053,65.6842105 C31.4468596,65.6842105 30.3157895,64.5531404 30.3157895,63.1578947 C30.3157895,61.7626491 31.4468596,60.6315789 32.8421053,60.6315789 C34.2373509,60.6315789 35.3684211,61.7626491 35.3684211,63.1578947 C35.3684211,64.5531404 34.2373509,65.6842105 32.8421053,65.6842105 Z M17.6842105,65.6842105 C16.2889648,65.6842105 15.1578947,64.5531404 15.1578947,63.1578947 C15.1578947,61.7626491 16.2889648,60.6315789 17.6842105,60.6315789 C19.0794562,60.6315789 20.2105263,61.7626491 20.2105263,63.1578947 C20.2105263,64.5531404 19.0794562,65.6842105 17.6842105,65.6842105 Z M2.52631579,65.6842105 C1.13107011,65.6842105 -3.82804899e-13,64.5531404 -3.82804899e-13,63.1578947 C-3.82804899e-13,61.7626491 1.13107011,60.6315789 2.52631579,60.6315789 C3.92156147,60.6315789 5.05263158,61.7626491 5.05263158,63.1578947 C5.05263158,64.5531404 3.92156147,65.6842105 2.52631579,65.6842105 Z M93.4736842,50.5263158 C92.0784385,50.5263158 90.9473684,49.3952457 90.9473684,48 C90.9473684,46.6047543 92.0784385,45.4736842 93.4736842,45.4736842 C94.8689299,45.4736842 96,46.6047543 96,48 C96,49.3952457 94.8689299,50.5263158 93.4736842,50.5263158 Z M78.3157895,50.5263158 C76.9205438,50.5263158 75.7894737,49.3952457 75.7894737,48 C75.7894737,46.6047543 76.9205438,45.4736842 78.3157895,45.4736842 C79.7110352,45.4736842 80.8421053,46.6047543 80.8421053,48 C80.8421053,49.3952457 79.7110352,50.5263158 78.3157895,50.5263158 Z M63.1578947,50.5263158 C61.7626491,50.5263158 60.6315789,49.3952457 60.6315789,48 C60.6315789,46.6047543 61.7626491,45.4736842 63.1578947,45.4736842 C64.5531404,45.4736842 65.6842105,46.6047543 65.6842105,48 C65.6842105,49.3952457 64.5531404,50.5263158 63.1578947,50.5263158 Z M48,50.5263158 C46.6047543,50.5263158 45.4736842,49.3952457 45.4736842,48 C45.4736842,46.6047543 46.6047543,45.4736842 48,45.4736842 C49.3952457,45.4736842 50.5263158,46.6047543 50.5263158,48 C50.5263158,49.3952457 49.3952457,50.5263158 48,50.5263158 Z M32.8421053,50.5263158 C31.4468596,50.5263158 30.3157895,49.3952457 30.3157895,48 C30.3157895,46.6047543 31.4468596,45.4736842 32.8421053,45.4736842 C34.2373509,45.4736842 35.3684211,46.6047543 35.3684211,48 C35.3684211,49.3952457 34.2373509,50.5263158 32.8421053,50.5263158 Z M17.6842105,50.5263158 C16.2889648,50.5263158 15.1578947,49.3952457 15.1578947,48 C15.1578947,46.6047543 16.2889648,45.4736842 17.6842105,45.4736842 C19.0794562,45.4736842 20.2105263,46.6047543 20.2105263,48 C20.2105263,49.3952457 19.0794562,50.5263158 17.6842105,50.5263158 Z M2.52631579,50.5263158 C1.13107011,50.5263158 -3.82804899e-13,49.3952457 -3.82804899e-13,48 C-3.82804899e-13,46.6047543 1.13107011,45.4736842 2.52631579,45.4736842 C3.92156147,45.4736842 5.05263158,46.6047543 5.05263158,48 C5.05263158,49.3952457 3.92156147,50.5263158 2.52631579,50.5263158 Z M78.3157895,35.3684211 C76.9205438,35.3684211 75.7894737,34.2373509 75.7894737,32.8421053 C75.7894737,31.4468596 76.9205438,30.3157895 78.3157895,30.3157895 C79.7110352,30.3157895 80.8421053,31.4468596 80.8421053,32.8421053 C80.8421053,34.2373509 79.7110352,35.3684211 78.3157895,35.3684211 Z M63.1578947,35.3684211 C61.7626491,35.3684211 60.6315789,34.2373509 60.6315789,32.8421053 C60.6315789,31.4468596 61.7626491,30.3157895 63.1578947,30.3157895 C64.5531404,30.3157895 65.6842105,31.4468596 65.6842105,32.8421053 C65.6842105,34.2373509 64.5531404,35.3684211 63.1578947,35.3684211 Z M48,35.3684211 C46.6047543,35.3684211 45.4736842,34.2373509 45.4736842,32.8421053 C45.4736842,31.4468596 46.6047543,30.3157895 48,30.3157895 C49.3952457,30.3157895 50.5263158,31.4468596 50.5263158,32.8421053 C50.5263158,34.2373509 49.3952457,35.3684211 48,35.3684211 Z M32.8421053,35.3684211 C31.4468596,35.3684211 30.3157895,34.2373509 30.3157895,32.8421053 C30.3157895,31.4468596 31.4468596,30.3157895 32.8421053,30.3157895 C34.2373509,30.3157895 35.3684211,31.4468596 35.3684211,32.8421053 C35.3684211,34.2373509 34.2373509,35.3684211 32.8421053,35.3684211 Z M17.6842105,35.3684211 C16.2889648,35.3684211 15.1578947,34.2373509 15.1578947,32.8421053 C15.1578947,31.4468596 16.2889648,30.3157895 17.6842105,30.3157895 C19.0794562,30.3157895 20.2105263,31.4468596 20.2105263,32.8421053 C20.2105263,34.2373509 19.0794562,35.3684211 17.6842105,35.3684211 Z M63.1578947,20.2105263 C61.7626491,20.2105263 60.6315789,19.0794562 60.6315789,17.6842105 C60.6315789,16.2889648 61.7626491,15.1578947 63.1578947,15.1578947 C64.5531404,15.1578947 65.6842105,16.2889648 65.6842105,17.6842105 C65.6842105,19.0794562 64.5531404,20.2105263 63.1578947,20.2105263 Z M48,20.2105263 C46.6047543,20.2105263 45.4736842,19.0794562 45.4736842,17.6842105 C45.4736842,16.2889648 46.6047543,15.1578947 48,15.1578947 C49.3952457,15.1578947 50.5263158,16.2889648 50.5263158,17.6842105 C50.5263158,19.0794562 49.3952457,20.2105263 48,20.2105263 Z M32.8421053,20.2105263 C31.4468596,20.2105263 30.3157895,19.0794562 30.3157895,17.6842105 C30.3157895,16.2889648 31.4468596,15.1578947 32.8421053,15.1578947 C34.2373509,15.1578947 35.3684211,16.2889648 35.3684211,17.6842105 C35.3684211,19.0794562 34.2373509,20.2105263 32.8421053,20.2105263 Z M48,5.05263158 C46.6047543,5.05263158 45.4736842,3.92156147 45.4736842,2.52631579 C45.4736842,1.13107011 46.6047543,-4.17443857e-14 48,-4.17443857e-14 C49.3952457,-4.17443857e-14 50.5263158,1.13107011 50.5263158,2.52631579 C50.5263158,3.92156147 49.3952457,5.05263158 48,5.05263158 Z"/>
</svg>
