<svg xmlns="http://www.w3.org/2000/svg" width="96" height="96" viewBox="0 0 96 96">
  <path fill="#A8627D" fill-rule="evenodd" d="M48,96 C46.6047543,96 45.4736842,94.8689299 45.4736842,93.4736842 C45.4736842,92.0784385 46.6047543,90.9473684 48,90.9473684 C49.3952457,90.9473684 50.5263158,92.0784385 50.5263158,93.4736842 C50.5263158,94.8689299 49.3952457,96 48,96 Z M63.1578947,80.8421053 C61.7626491,80.8421053 60.6315789,79.7110352 60.6315789,78.3157895 C60.6315789,76.9205438 61.7626491,75.7894737 63.1578947,75.7894737 C64.5531404,75.7894737 65.6842105,76.9205438 65.6842105,78.3157895 C65.6842105,79.7110352 64.5531404,80.8421053 63.1578947,80.8421053 Z M48,80.8421053 C46.6047543,80.8421053 45.4736842,79.7110352 45.4736842,78.3157895 C45.4736842,76.9205438 46.6047543,75.7894737 48,75.7894737 C49.3952457,75.7894737 50.5263158,76.9205438 50.5263158,78.3157895 C50.5263158,79.7110352 49.3952457,80.8421053 48,80.8421053 Z M32.8421053,80.8421053 C31.4468596,80.8421053 30.3157895,79.7110352 30.3157895,78.3157895 C30.3157895,76.9205438 31.4468596,75.7894737 32.8421053,75.7894737 C34.2373509,75.7894737 35.3684211,76.9205438 35.3684211,78.3157895 C35.3684211,79.7110352 34.2373509,80.8421053 32.8421053,80.8421053 Z M78.3157895,65.6842105 C76.9205438,65.6842105 75.7894737,64.5531404 75.7894737,63.1578947 C75.7894737,61.7626491 76.9205438,60.6315789 78.3157895,60.6315789 C79.7110352,60.6315789 80.8421053,61.7626491 80.8421053,63.1578947 C80.8421053,64.5531404 79.7110352,65.6842105 78.3157895,65.6842105 Z M63.1578947,65.6842105 C61.7626491,65.6842105 60.6315789,64.5531404 60.6315789,63.1578947 C60.6315789,61.7626491 61.7626491,60.6315789 63.1578947,60.6315789 C64.5531404,60.6315789 65.6842105,61.7626491 65.6842105,63.1578947 C65.6842105,64.5531404 64.5531404,65.6842105 63.1578947,65.6842105 Z M32.8421053,65.6842105 C31.4468596,65.6842105 30.3157895,64.5531404 30.3157895,63.1578947 C30.3157895,61.7626491 31.4468596,60.6315789 32.8421053,60.6315789 C34.2373509,60.6315789 35.3684211,61.7626491 35.3684211,63.1578947 C35.3684211,64.5531404 34.2373509,65.6842105 32.8421053,65.6842105 Z M17.6842105,65.6842105 C16.2889648,65.6842105 15.1578947,64.5531404 15.1578947,63.1578947 C15.1578947,61.7626491 16.2889648,60.6315789 17.6842105,60.6315789 C19.0794562,60.6315789 20.2105263,61.7626491 20.2105263,63.1578947 C20.2105263,64.5531404 19.0794562,65.6842105 17.6842105,65.6842105 Z M93.4736842,50.5263158 C92.0784385,50.5263158 90.9473684,49.3952457 90.9473684,48 C90.9473684,46.6047543 92.0784385,45.4736842 93.4736842,45.4736842 C94.8689299,45.4736842 96,46.6047543 96,48 C96,49.3952457 94.8689299,50.5263158 93.4736842,50.5263158 Z M78.3157895,50.5263158 C76.9205438,50.5263158 75.7894737,49.3952457 75.7894737,48 C75.7894737,46.6047543 76.9205438,45.4736842 78.3157895,45.4736842 C79.7110352,45.4736842 80.8421053,46.6047543 80.8421053,48 C80.8421053,49.3952457 79.7110352,50.5263158 78.3157895,50.5263158 Z M17.6842105,50.5263158 C16.2889648,50.5263158 15.1578947,49.3952457 15.1578947,48 C15.1578947,46.6047543 16.2889648,45.4736842 17.6842105,45.4736842 C19.0794562,45.4736842 20.2105263,46.6047543 20.2105263,48 C20.2105263,49.3952457 19.0794562,50.5263158 17.6842105,50.5263158 Z M2.52631579,50.5263158 C1.13107011,50.5263158 -3.82804899e-13,49.3952457 -3.82804899e-13,48 C-3.82804899e-13,46.6047543 1.13107011,45.4736842 2.52631579,45.4736842 C3.92156147,45.4736842 5.05263158,46.6047543 5.05263158,48 C5.05263158,49.3952457 3.92156147,50.5263158 2.52631579,50.5263158 Z M78.3157895,35.3684211 C76.9205438,35.3684211 75.7894737,34.2373509 75.7894737,32.8421053 C75.7894737,31.4468596 76.9205438,30.3157895 78.3157895,30.3157895 C79.7110352,30.3157895 80.8421053,31.4468596 80.8421053,32.8421053 C80.8421053,34.2373509 79.7110352,35.3684211 78.3157895,35.3684211 Z M63.1578947,35.3684211 C61.7626491,35.3684211 60.6315789,34.2373509 60.6315789,32.8421053 C60.6315789,31.4468596 61.7626491,30.3157895 63.1578947,30.3157895 C64.5531404,30.3157895 65.6842105,31.4468596 65.6842105,32.8421053 C65.6842105,34.2373509 64.5531404,35.3684211 63.1578947,35.3684211 Z M32.8421053,35.3684211 C31.4468596,35.3684211 30.3157895,34.2373509 30.3157895,32.8421053 C30.3157895,31.4468596 31.4468596,30.3157895 32.8421053,30.3157895 C34.2373509,30.3157895 35.3684211,31.4468596 35.3684211,32.8421053 C35.3684211,34.2373509 34.2373509,35.3684211 32.8421053,35.3684211 Z M17.6842105,35.3684211 C16.2889648,35.3684211 15.1578947,34.2373509 15.1578947,32.8421053 C15.1578947,31.4468596 16.2889648,30.3157895 17.6842105,30.3157895 C19.0794562,30.3157895 20.2105263,31.4468596 20.2105263,32.8421053 C20.2105263,34.2373509 19.0794562,35.3684211 17.6842105,35.3684211 Z M63.1578947,20.2105263 C61.7626491,20.2105263 60.6315789,19.0794562 60.6315789,17.6842105 C60.6315789,16.2889648 61.7626491,15.1578947 63.1578947,15.1578947 C64.5531404,15.1578947 65.6842105,16.2889648 65.6842105,17.6842105 C65.6842105,19.0794562 64.5531404,20.2105263 63.1578947,20.2105263 Z M48,20.2105263 C46.6047543,20.2105263 45.4736842,19.0794562 45.4736842,17.6842105 C45.4736842,16.2889648 46.6047543,15.1578947 48,15.1578947 C49.3952457,15.1578947 50.5263158,16.2889648 50.5263158,17.6842105 C50.5263158,19.0794562 49.3952457,20.2105263 48,20.2105263 Z M32.8421053,20.2105263 C31.4468596,20.2105263 30.3157895,19.0794562 30.3157895,17.6842105 C30.3157895,16.2889648 31.4468596,15.1578947 32.8421053,15.1578947 C34.2373509,15.1578947 35.3684211,16.2889648 35.3684211,17.6842105 C35.3684211,19.0794562 34.2373509,20.2105263 32.8421053,20.2105263 Z M48,5.05263158 C46.6047543,5.05263158 45.4736842,3.92156147 45.4736842,2.52631579 C45.4736842,1.13107011 46.6047543,-4.17443857e-14 48,-4.17443857e-14 C49.3952457,-4.17443857e-14 50.5263158,1.13107011 50.5263158,2.52631579 C50.5263158,3.92156147 49.3952457,5.05263158 48,5.05263158 Z"/>
</svg>
