<svg xmlns="http://www.w3.org/2000/svg" width="120" height="120" viewBox="0 0 120 120">
  <path fill="#0E0F15" fill-rule="evenodd" d="M278,1777 C244.862667,1777 218,1803.86267 218,1837 C218,1848.21467 221.085333,1858.70667 226.442667,1867.68667 L245.589333,1848.54 C241.053333,1836.36533 243.677333,1822.128 253.464,1812.34267 C263.252,1802.55467 269.882812,1801.36068 282.385417,1802.97917 L267.626667,1826.50267 L289.470052,1839.23307 L310.180339,1826.50267 C314.716339,1838.67867 311.686667,1850.99067 301.9,1860.77867 C292.126667,1870.552 277.914667,1873.18267 265.750667,1868.67067 L246.413333,1888.00933 C255.589333,1893.70267 266.406667,1897 278,1897 C311.137333,1897 338,1870.13733 338,1837 C338,1803.86267 311.137333,1777 278,1777 Z" transform="translate(-218 -1777)"/>
</svg>
