<svg xmlns="http://www.w3.org/2000/svg" width="120" height="120" viewBox="0 0 120 120">
  <path fill="#0E0F15" fill-rule="evenodd" d="M757,1897 C723.862915,1897 697,1870.13708 697,1837 C697,1803.86292 723.862915,1777 757,1777 C790.137085,1777 817,1803.86292 817,1837 C817,1870.13708 790.137085,1897 757,1897 Z M756.843589,1855.85329 L756.62118,1855.85329 L756.537672,1855.9999 L756.453676,1855.85329 L727.743802,1855.85329 L742.098739,1880.9094 L742.349702,1880.9094 L770.892658,1880.9094 L770.914256,1880.87155 L770.934315,1880.90722 L774.106436,1875.27694 L785.189218,1855.85329 L785.049806,1855.85329 L785.189436,1855.60546 L770.934315,1830.3037 L756.704204,1855.60546 L756.843589,1855.85329 Z M756.189439,1817.15497 L756.412166,1817.15497 L756.453932,1817.08165 L756.495772,1817.15497 L785.038728,1817.15497 L770.76725,1792.09886 L770.683644,1792.09886 L742.115606,1792.09886 L742.094045,1792.13672 L742.073949,1792.10105 L738.901657,1797.74152 L727.844128,1817.15497 L727.983223,1817.15497 L727.843838,1817.40281 L742.073949,1842.70456 L756.329069,1817.40281 L756.189439,1817.15497 Z" transform="translate(-697 -1777)"/>
</svg>
