<svg xmlns="http://www.w3.org/2000/svg" width="1em" height="1em" viewBox="0 0 28 28" fill="currentColor">
  <path d="M16.3337 2.33203C15.3979 2.33203 14.5199 2.69661 13.859 3.35742L3.35905 13.8574C1.9949 15.2216 1.9949 17.4425 3.35905 18.8066L9.19238 24.64C9.85319 25.3008 10.7312 25.6654 11.667 25.6654C12.5967 25.6654 13.4717 25.3053 14.1294 24.6521C13.7877 24.1447 13.5127 23.5903 13.3 23.0069L12.9051 23.4034C12.2427 24.0642 11.0913 24.0642 10.4289 23.4034L4.59559 17.5701C3.91504 16.8865 3.91504 15.7776 4.59559 15.094L15.0956 4.59397C15.4268 4.26432 15.8658 4.08203 16.3337 4.08203H22.7503C23.3944 4.08203 23.917 4.6046 23.917 5.2487V11.6638C23.917 12.1317 23.7347 12.5723 23.4051 12.9034L23.0086 13.2984C23.5919 13.5111 24.1464 13.786 24.6538 14.1278C25.307 13.4685 25.667 12.5935 25.667 11.6638V5.2487C25.667 3.63997 24.3591 2.33203 22.7503 2.33203H16.3337ZM19.8337 6.41536C18.8675 6.41536 18.0837 7.19922 18.0837 8.16536C18.0837 9.13151 18.8675 9.91536 19.8337 9.91536C20.7998 9.91536 21.5837 9.13151 21.5837 8.16536C21.5837 7.19922 20.7998 6.41536 19.8337 6.41536ZM20.417 13.9987C16.8729 13.9987 14.0003 16.8713 14.0003 20.4154C14.0003 23.9594 16.8729 26.832 20.417 26.832C23.961 26.832 26.8337 23.9594 26.8337 20.4154C26.8337 16.8713 23.961 13.9987 20.417 13.9987ZM20.417 16.332C20.5659 16.332 20.7147 16.3882 20.8287 16.5037L23.7453 19.4204C23.9747 19.6482 23.9747 20.0158 23.7453 20.2437C23.6329 20.3576 23.4825 20.4154 23.3337 20.4154C23.1848 20.4154 23.0344 20.3576 22.922 20.2437L21.0003 18.3236V24.4987C21.0003 24.8207 20.739 25.082 20.417 25.082C20.0949 25.082 19.8337 24.8207 19.8337 24.4987V18.3236L17.912 20.2437C17.6841 20.4731 17.3165 20.4731 17.0887 20.2437C16.8593 20.0158 16.8593 19.6482 17.0887 19.4204L20.0053 16.5037C20.1192 16.3882 20.2681 16.332 20.417 16.332Z" fill="currentColor"/>
</svg>