<svg xmlns="http://www.w3.org/2000/svg" width="1em" height="1em" viewBox="0 0 28 28" fill="currentColor">
  <path d="M6.69589 1.75007C6.46802 1.75311 6.25079 1.84578 6.08977 2.0068L2.58977 5.5068C2.36038 5.72555 2.26924 6.05216 2.34823 6.35901C2.42874 6.66435 2.66876 6.90437 2.9741 6.98488C3.28096 7.06387 3.60756 6.97273 3.82631 6.74334L5.83304 4.73814V11.9584C5.83304 14.3647 7.80179 16.3334 10.208 16.3334H13.1247V25.3751C13.1202 25.691 13.2857 25.9842 13.5592 26.1437C13.8311 26.3017 14.1683 26.3017 14.4402 26.1437C14.7137 25.9842 14.8793 25.691 14.8747 25.3751V16.3334H17.7914C20.1976 16.3334 22.1664 14.3647 22.1664 11.9584V4.73814L24.1731 6.74334C24.3919 6.97273 24.7185 7.06387 25.0253 6.98488C25.3307 6.90437 25.5707 6.66435 25.6512 6.35901C25.7302 6.05216 25.639 5.72555 25.4096 5.5068L21.9096 2.0068C21.7425 1.8397 21.5147 1.74703 21.2792 1.75007C21.0514 1.75311 20.8341 1.84578 20.6731 2.0068L17.1731 5.5068C16.9437 5.72555 16.8526 6.05216 16.9316 6.35901C17.0121 6.66435 17.2521 6.90437 17.5574 6.98488C17.8643 7.06387 18.1909 6.97273 18.4096 6.74334L20.4164 4.73814V11.9584C20.4164 13.4183 19.2512 14.5834 17.7914 14.5834H10.208C8.74819 14.5834 7.58304 13.4183 7.58304 11.9584V4.73814L9.58977 6.74334C9.80852 6.97273 10.1351 7.06387 10.442 6.98488C10.7473 6.90437 10.9873 6.66435 11.0679 6.35901C11.1468 6.05216 11.0557 5.72555 10.8263 5.5068L7.32631 2.0068C7.15921 1.8397 6.93135 1.74703 6.69589 1.75007Z" fill="currentColor"/>
</svg>