<svg xmlns="http://www.w3.org/2000/svg" width="1em" height="1em" viewBox="0 0 28 28" fill="currentColor">
  <path d="M13.9948 2.33398C9.81727 2.33398 6.77908 3.77865 5.34353 4.6339C4.54905 5.10786 4.07812 5.96918 4.07812 6.88064V14.5916C4.07812 16.1775 4.82704 18.6506 6.38715 21.1146C7.94727 23.5786 10.3717 25.9742 13.7836 26.8264C13.9219 26.8613 14.0677 26.8613 14.2059 26.8264C17.6178 25.9742 20.0423 23.5786 21.6024 21.1146C23.1625 18.6506 23.9115 16.1775 23.9115 14.5916V6.88064C23.9115 5.96918 23.4421 5.10786 22.646 4.6339C21.2105 3.77865 18.1723 2.33398 13.9948 2.33398ZM13.9948 4.08398C17.7682 4.08398 20.5041 5.39497 21.7498 6.13628C22.0035 6.28819 22.1615 6.56923 22.1615 6.88064V14.5916C22.1615 15.5365 21.5189 17.9731 20.1228 20.1788C18.9136 22.0883 17.1667 23.852 14.8698 24.7543V21.8757C14.8728 21.6387 14.7802 21.4108 14.6131 21.2437C14.446 21.0766 14.2181 20.9839 13.9811 20.9885C13.498 20.9961 13.1122 21.3926 13.1198 21.8757V24.7543C10.8229 23.852 9.07595 22.0883 7.86675 20.1788C6.4707 17.9731 5.82812 15.5365 5.82812 14.5916V6.88064C5.82812 6.57075 5.98611 6.28819 6.2398 6.13628C7.48546 5.39345 10.2214 4.08398 13.9948 4.08398ZM9.62739 7.02951C8.89366 6.99306 8.07791 7.21029 7.34418 7.75868C7.08442 7.94401 6.94618 8.25391 6.98112 8.56988C7.01606 8.88737 7.22114 9.15929 7.51432 9.28082C7.80903 9.40386 8.14627 9.35677 8.3954 9.15929C8.82834 8.83268 9.17925 8.75825 9.53928 8.77648C9.90082 8.7947 10.2836 8.93446 10.6376 9.14106C11.3455 9.55425 11.8529 10.1725 11.8529 10.1725C12.1552 10.5508 12.7051 10.6115 13.0833 10.3092C13.4616 10.0069 13.5224 9.45703 13.2201 9.07878C13.2201 9.07878 12.5608 8.23872 11.5187 7.63108C10.9976 7.32726 10.3596 7.06597 9.62739 7.02951ZM18.3622 7.02951C17.63 7.06597 16.992 7.32726 16.4709 7.63108C15.4288 8.23872 14.7695 9.07878 14.7695 9.07878C14.4672 9.45703 14.528 10.0069 14.9062 10.3092C15.2845 10.6115 15.8344 10.5508 16.1367 10.1725C16.1367 10.1725 16.6441 9.55425 17.352 9.14106C17.7059 8.93446 18.0888 8.7947 18.4503 8.77648C18.8103 8.75825 19.1612 8.83268 19.5942 9.15929C19.8433 9.35677 20.1806 9.40386 20.4753 9.28082C20.7684 9.15929 20.9735 8.88737 21.0085 8.56988C21.0434 8.25391 20.9052 7.94401 20.6454 7.75868C19.9117 7.21029 19.0959 6.99306 18.3622 7.02951ZM9.61979 10.5007C8.91037 10.5007 8.27387 10.7498 7.81055 11.1463C7.66927 11.2678 7.66927 11.4835 7.81055 11.605C8.27387 12.0015 8.91037 12.2507 9.61979 12.2507C10.3292 12.2507 10.9657 12.0015 11.429 11.605C11.5703 11.4835 11.5703 11.2678 11.429 11.1463C10.9657 10.7498 10.3292 10.5007 9.61979 10.5007ZM18.3698 10.5007C17.6604 10.5007 17.0239 10.7498 16.5605 11.1463C16.4193 11.2678 16.4193 11.4835 16.5605 11.605C17.0239 12.0015 17.6604 12.2507 18.3698 12.2507C19.0792 12.2507 19.7157 12.0015 20.179 11.605C20.3203 11.4835 20.3203 11.2678 20.179 11.1463C19.7157 10.7498 19.0792 10.5007 18.3698 10.5007ZM19.5076 15.7339C19.1825 15.7476 18.8924 15.9405 18.7541 16.2352L18.2756 17.1923C18.0007 17.7407 17.4447 18.084 16.8309 18.084C16.275 18.084 15.76 17.7984 15.4638 17.326C15.4653 17.326 15.4653 17.326 15.4638 17.326L14.7361 16.1623C14.5766 15.9071 14.2956 15.7507 13.9948 15.7507C13.694 15.7507 13.413 15.9071 13.2535 16.1623L12.5258 17.326C12.2296 17.7984 11.7146 18.084 11.1586 18.084C10.5449 18.084 9.98741 17.7391 9.71398 17.1923L9.23546 16.2352C9.09266 15.9375 8.79492 15.7461 8.46528 15.74C8.1569 15.7324 7.86827 15.8889 7.70421 16.1517C7.54167 16.413 7.52799 16.7426 7.67079 17.0161L8.14931 17.9746C8.71745 19.1124 9.88563 19.834 11.1586 19.834C12.3101 19.834 13.3796 19.2385 13.9963 18.2678C14.6115 19.2385 15.681 19.834 16.8309 19.834C18.1039 19.834 19.2706 19.1124 19.8388 17.9746C19.8403 17.9746 19.8403 17.9746 19.8403 17.9746L20.3188 17.0161C20.4661 16.7396 20.4525 16.4054 20.2854 16.1395C20.1168 15.8752 19.8205 15.7203 19.5076 15.7339Z" fill="currentColor"/>
</svg>