<svg xmlns="http://www.w3.org/2000/svg" width="1em" height="1em" viewBox="0 0 28 28" fill="currentColor">
  <path d="M4.96354 3.5C3.84701 3.5 2.92188 4.42513 2.92188 5.54167V15.4583C2.92188 16.5749 3.84701 17.5 4.96354 17.5H23.0469C24.1634 17.5 25.0885 16.5749 25.0885 15.4583V5.54167C25.0885 4.42513 24.1634 3.5 23.0469 3.5H4.96354ZM6.42188 5.25H21.5885C21.5885 6.21766 22.3709 7 23.3385 7V14C22.3709 14 21.5885 14.7823 21.5885 15.75H6.42188C6.42188 14.7823 5.63954 14 4.67188 14V7C5.63954 7 6.42188 6.21766 6.42188 5.25ZM14.0052 6.41667C12.8628 6.41667 11.9028 6.99089 11.3286 7.7793C10.7559 8.56771 10.5052 9.53841 10.5052 10.5C10.5052 11.4616 10.7559 12.4323 11.3286 13.2207C11.9028 14.0091 12.8628 14.5833 14.0052 14.5833C15.1476 14.5833 16.1076 14.0091 16.6819 13.2207C17.2546 12.4323 17.5052 11.4616 17.5052 10.5C17.5052 9.53841 17.2546 8.56771 16.6819 7.7793C16.1076 6.99089 15.1476 6.41667 14.0052 6.41667ZM14.0052 8.16667C14.6128 8.16667 14.9653 8.39453 15.2661 8.80925C15.5684 9.22396 15.7552 9.85742 15.7552 10.5C15.7552 11.1426 15.5684 11.776 15.2661 12.1908C14.9653 12.6055 14.6128 12.8333 14.0052 12.8333C13.3976 12.8333 13.0451 12.6055 12.7444 12.1908C12.4421 11.776 12.2552 11.1426 12.2552 10.5C12.2552 9.85742 12.4421 9.22396 12.7444 8.80925C13.0451 8.39453 13.3976 8.16667 14.0052 8.16667ZM7.00521 9.33333C6.36111 9.33333 5.83854 9.8559 5.83854 10.5C5.83854 11.1441 6.36111 11.6667 7.00521 11.6667C7.64931 11.6667 8.17188 11.1441 8.17188 10.5C8.17188 9.8559 7.64931 9.33333 7.00521 9.33333ZM21.0052 9.33333C20.3611 9.33333 19.8385 9.8559 19.8385 10.5C19.8385 11.1441 20.3611 11.6667 21.0052 11.6667C21.6493 11.6667 22.1719 11.1441 22.1719 10.5C22.1719 9.8559 21.6493 9.33333 21.0052 9.33333ZM13.9915 18.6545C13.5085 18.6621 13.1226 19.0586 13.1302 19.5417V22.6786L12.2901 21.8401C12.0714 21.6107 11.7448 21.5195 11.4379 21.5985C11.1326 21.679 10.8926 21.9191 10.8121 22.2244C10.7331 22.5312 10.8242 22.8579 11.0536 23.0766L13.311 25.3355C13.4781 25.5512 13.7348 25.6788 14.0082 25.6773C14.2817 25.6773 14.5384 25.5482 14.704 25.3309L16.9568 23.0766C17.1862 22.8579 17.2773 22.5312 17.1984 22.2244C17.1178 21.9191 16.8778 21.679 16.5725 21.5985C16.2656 21.5195 15.939 21.6107 15.7203 21.8401L14.8802 22.6786V19.5417C14.8832 19.3047 14.7906 19.0768 14.6235 18.9097C14.4564 18.7426 14.2285 18.65 13.9915 18.6545Z" fill="#6C24DF"/>
</svg>