<svg width="24" height="24" viewBox="0 0 24 24" fill="none" stroke="currentcolor" stroke-width="0.75" xmlns="http://www.w3.org/2000/svg">
<path d="M9.67,1.04L9.88,1.09L9.73,2.10L9.98,2.39L12.04,3.30L12.29,3.28L12.35,2.75L12.69,2.49L13.85,2.99L15.75,3.02L17.07,5.85L17.11,6.73L17.85,7.88L18.83,8.97L19.45,9.29L20.83,8.99L21.28,9.21L20.36,11.14L17.76,13.54L17.78,14.49L18.08,15.20L17.97,16.49L16.46,17.80L16.67,19.14L15.90,19.67L15.74,20.63L14.21,22.36L13.63,22.69L12.04,22.99L11.70,22.75L11.61,21.69L10.88,20.39L9.97,17.23L10.58,15.47L10.23,13.80L9.28,12.32L9.30,11.15L8.92,10.91L8.39,11.09L7.67,10.49L6.21,10.95L5.46,10.79L4.21,10.94L3.02,10.08L2.89,9.53L2.17,8.89L1.96,8.18L2.17,7.59L1.97,6.10L2.20,5.55L3.20,4.07L3.93,3.66L4.34,2.43L5.17,1.81L9.64,1.01Z" />
</svg>