<svg width="24" height="24" viewBox="0 0 24 24" fill="none" xmlns="http://www.w3.org/2000/svg">
<mask id="path-1-inside-1_998_14038" fill="white">
<path d="M10.0996 1.04193C10.0996 1.06704 10.1261 1.08333 10.1485 1.07202L10.1827 1.05477C10.2008 1.04564 10.2224 1.04677 10.2396 1.05741C10.2589 1.06928 10.2787 1.08127 10.2987 1.09399C10.2994 1.09445 10.2998 1.09524 10.2998 1.09609C10.2998 1.09648 10.2997 1.09686 10.2995 1.0972L10.2172 1.26277C10.206 1.2852 10.2002 1.30992 10.2002 1.33497V1.44727C10.2002 1.47477 10.2225 1.49707 10.25 1.49707C10.2775 1.49707 10.2998 1.51937 10.2998 1.54687V1.70906C10.2998 1.76529 10.2775 1.81921 10.2377 1.85897L10.1851 1.91161C10.1341 1.96263 10.1215 2.04059 10.1539 2.10506L10.1831 2.16331C10.1936 2.18413 10.2149 2.19727 10.2382 2.19727C10.2722 2.19727 10.2998 2.22485 10.2998 2.25888V2.29736C10.2998 2.35265 10.3446 2.39746 10.3999 2.39746H10.4721C10.4906 2.39746 10.5089 2.40043 10.5265 2.40625L10.7613 2.48427C10.7868 2.49275 10.8135 2.49707 10.8404 2.49707C10.8792 2.49707 10.9175 2.50607 10.9522 2.52335L11.0387 2.56639C11.0792 2.58653 11.1217 2.60223 11.1655 2.61324L11.3399 2.65703C11.4396 2.68209 11.5196 2.75637 11.5521 2.85397C11.582 2.94403 11.6527 3.01469 11.7427 3.04462L11.8994 3.09668L12.2389 3.18197C12.2792 3.19209 12.3175 3.20906 12.352 3.23213L12.4653 3.30775C12.5434 3.3599 12.6474 3.34964 12.7138 3.28323C12.7665 3.23054 12.785 3.15262 12.7615 3.0819L12.7401 3.01754C12.7145 2.94063 12.7205 2.85673 12.7566 2.78417L12.7716 2.75404C12.7903 2.71644 12.8149 2.68212 12.8446 2.65243L12.9183 2.5788C12.9706 2.52647 13.0416 2.49707 13.1156 2.49707C13.1708 2.49707 13.2247 2.51342 13.2706 2.54405L13.4775 2.68222C13.4925 2.69223 13.5064 2.70368 13.5192 2.71642L13.5642 2.76143C13.5869 2.78413 13.6176 2.79688 13.6497 2.79688C13.682 2.79688 13.713 2.80979 13.7357 2.83273L13.75 2.84717C13.7819 2.87935 13.8253 2.89746 13.8706 2.89746H14.0288C14.0742 2.89746 14.1177 2.91536 14.1499 2.94727C14.1821 2.97917 14.2256 2.99707 14.271 2.99707H14.5996C14.7746 2.99707 14.9157 3.03117 15.0425 3.07944C15.2006 3.13956 15.3804 3.11662 15.5 2.99707C15.5572 2.93925 15.6399 2.91452 15.7195 2.93141C15.8262 2.95407 15.9285 2.97576 16.0252 2.9963C16.042 2.99987 16.0563 3.01087 16.064 3.02621L16.0677 3.03343C16.0834 3.0645 16.1249 3.07101 16.1494 3.04622L16.1666 3.02869C16.1681 3.02724 16.1701 3.02666 16.172 3.02741C16.1738 3.02809 16.1753 3.02929 16.1761 3.03094L16.6834 4.07318C16.6911 4.089 16.6879 4.10795 16.6755 4.12039C16.6638 4.13207 16.6602 4.14959 16.6664 4.16492L16.7998 4.49707L16.8994 4.69727L16.9697 4.83716C16.9898 4.8771 17.0161 4.91357 17.0477 4.94518L17.0574 4.95481C17.0885 4.98596 17.1134 5.02274 17.1308 5.0632L17.214 5.25664C17.2187 5.26742 17.2164 5.27992 17.2083 5.2884C17.2031 5.29384 17.2002 5.30108 17.2002 5.30861V5.39538C17.2002 5.46049 17.2261 5.52294 17.2721 5.56897L17.3733 5.67013C17.4035 5.70042 17.4292 5.73504 17.4493 5.77286L17.4917 5.85247C17.4971 5.86278 17.5 5.87427 17.5 5.88594C17.5 5.89357 17.5012 5.90115 17.5036 5.9084L17.573 6.11726C17.5893 6.1663 17.5765 6.22034 17.54 6.25688C17.5144 6.28249 17.5 6.31722 17.5 6.35344V6.52824C17.5 6.5737 17.5055 6.61898 17.5165 6.66309L17.5351 6.73782C17.5773 6.90745 17.677 7.04531 17.825 7.13826C17.8268 7.1394 17.8287 7.14056 17.8305 7.14174C17.88 7.17377 17.9159 7.22196 17.9487 7.271L18.0447 7.41489C18.0805 7.46847 18.0996 7.53146 18.0996 7.59588C18.0996 7.7191 18.1691 7.83179 18.2792 7.88711L18.2998 7.89746L18.4877 8.01009C18.6248 8.09228 18.7367 8.21047 18.8114 8.35182C18.8323 8.3913 18.8562 8.42913 18.8828 8.46498L19.2593 8.97164C19.3334 9.0713 19.4403 9.14154 19.5612 9.1699L19.655 9.19189C19.689 9.19987 19.7201 9.21719 19.7448 9.2419L19.7492 9.24627C19.7816 9.27867 19.8255 9.29688 19.8714 9.29688C19.8899 9.29688 19.9084 9.29388 19.926 9.28801L19.9621 9.27599C19.9747 9.27177 19.9883 9.27116 20.0013 9.27424C20.0126 9.27692 20.0244 9.27681 20.0357 9.27393C20.1087 9.25534 20.1948 9.23403 20.2877 9.21067C20.323 9.20179 20.3592 9.19727 20.3956 9.19727C20.4643 9.19727 20.5319 9.1812 20.5933 9.15036L20.6311 9.13134C20.6524 9.12063 20.6747 9.11231 20.6979 9.10686C20.7062 9.10491 20.7144 9.10298 20.7226 9.10101C20.7317 9.09881 20.7411 9.09766 20.7505 9.09766H20.7821C20.7934 9.09766 20.8042 9.09303 20.812 9.08487C20.8174 9.07919 20.8244 9.07517 20.832 9.0733C20.9121 9.05363 20.9896 9.03603 21.061 9.01967C21.1256 9.00485 21.1917 8.99707 21.258 8.99707H21.4829C21.5315 8.99707 21.5733 9.00749 21.6116 9.03737C21.6655 9.07936 21.7002 9.14959 21.7002 9.21785V9.30749C21.7002 9.36507 21.6772 9.42025 21.6363 9.46077C21.6122 9.48463 21.594 9.51384 21.5833 9.54603L21.5 9.79688C21.4 10.0968 21.3002 10.2971 21.2002 10.4971L21.1451 10.6072C21.049 10.7995 20.9213 10.9742 20.7856 11.1409C20.7017 11.2439 20.6178 11.352 20.5339 11.4504C20.4479 11.5513 20.3437 11.6347 20.2332 11.7081L20.0996 11.7969L19.7002 12.0977L19.5684 12.1849C19.456 12.2594 19.3515 12.345 19.2563 12.4404L19.0996 12.5977L19 12.6973L18.9787 12.7184C18.9262 12.7704 18.8658 12.8138 18.7998 12.8472L18.7352 12.8798C18.712 12.8915 18.6908 12.9068 18.6723 12.9251L18.6202 12.9766C18.607 12.9897 18.5892 12.9971 18.5706 12.9971C18.5316 12.9971 18.5 13.0287 18.5 13.0676V13.1383C18.5 13.1761 18.4849 13.2122 18.4581 13.2387L18.428 13.2685C18.4091 13.2873 18.3934 13.3091 18.3815 13.3329L18.3203 13.4558C18.3078 13.4811 18.282 13.4971 18.2537 13.4971C18.2217 13.4971 18.1933 13.5175 18.1832 13.5478L18.1129 13.7571C18.1041 13.7835 18.0996 13.811 18.0996 13.8388V13.885C18.0996 13.9537 18.1383 14.0165 18.1997 14.0474L18.2354 14.0653C18.2749 14.0851 18.2998 14.1256 18.2998 14.1698C18.2998 14.1879 18.2956 14.2057 18.2876 14.2219L18.2447 14.308C18.2154 14.3669 18.2002 14.4316 18.2002 14.4973C18.2002 14.5633 18.2156 14.6284 18.2451 14.6874L18.2998 14.7969L18.3815 14.9611C18.3934 14.9849 18.409 15.0067 18.4279 15.0255C18.474 15.0717 18.5 15.1344 18.5 15.1997V16.0728C18.5 16.2202 18.4656 16.3654 18.3994 16.4971L18.3631 16.5701C18.3212 16.6543 18.2659 16.7312 18.1994 16.7977C18.1333 16.8638 18.057 16.9188 17.9734 16.9606L17.7903 17.0521C17.598 17.1483 17.4225 17.2748 17.2705 17.4268L17.0996 17.5977L16.8994 17.7969L16.8893 17.8071C16.832 17.865 16.7998 17.9432 16.7998 18.0247C16.7998 18.0727 16.811 18.12 16.8324 18.1629L16.8994 18.2969L16.9179 18.3337C16.9719 18.4411 17 18.5597 17 18.6799V18.9263C17 18.9716 17.0179 19.0151 17.0498 19.0474L17.0647 19.0624C17.0871 19.085 17.0996 19.1155 17.0996 19.1473C17.0996 19.1793 17.0869 19.21 17.0643 19.2326L17.028 19.2688C17.0095 19.2874 16.988 19.3029 16.9645 19.3146C16.7881 19.4029 16.6113 19.4917 16.4349 19.5799C16.4114 19.5917 16.3899 19.6071 16.3714 19.6257L16.3204 19.6766C16.3072 19.6898 16.2998 19.7078 16.2998 19.7264V19.7471C16.2998 19.7746 16.3221 19.7969 16.3496 19.7969C16.3771 19.7969 16.3994 19.8192 16.3994 19.8467V19.959C16.3994 19.984 16.3936 20.0087 16.3824 20.0312L16.3482 20.1001C16.3164 20.164 16.2998 20.2344 16.2998 20.3058C16.2998 20.4283 16.2512 20.5457 16.1646 20.6323L15.9493 20.8476C15.8536 20.9433 15.7959 21.0584 15.6822 21.1319C15.6359 21.1618 15.5871 21.2225 15.5625 21.2719L15.5 21.3975L15.4625 21.4722C15.4207 21.5553 15.3659 21.6312 15.3001 21.697C15.2339 21.7631 15.1545 21.8147 15.0826 21.8747C14.9523 21.9833 14.8568 22.1402 14.7002 22.2969L14.6319 22.3651C14.5452 22.4519 14.4394 22.5174 14.3231 22.5564L14.2136 22.5932C14.2047 22.5961 14.1954 22.5977 14.1861 22.5977H14.1494C14.1219 22.5977 14.0996 22.62 14.0996 22.6475C14.0996 22.675 14.0773 22.6973 14.0498 22.6973H13.956C13.9198 22.6973 13.885 22.7117 13.8594 22.7373C13.8229 22.7738 13.7688 22.7866 13.7198 22.7703L13.5623 22.7179C13.521 22.7042 13.4779 22.6973 13.4344 22.6973H13.3499C13.2507 22.6973 13.1522 22.7132 13.0581 22.7443L12.994 22.7655C12.931 22.7864 12.8697 22.8119 12.8104 22.8418L12.7002 22.8975L12.5326 22.9808C12.5112 22.9915 12.4875 22.9971 12.4636 22.9971C12.4225 22.9971 12.3831 22.9807 12.354 22.9517L12.3281 22.9258C12.31 22.9076 12.2854 22.8975 12.2598 22.8975C12.2233 22.8975 12.1898 22.8769 12.1734 22.8442L12.1275 22.7529C12.1092 22.7163 12.0996 22.676 12.0996 22.635V22.4525C12.0996 22.4163 12.0912 22.3806 12.0751 22.3482L12.0398 22.2773C12.016 22.2295 12.0254 22.1718 12.0632 22.1341C12.0865 22.1107 12.0996 22.0791 12.0996 22.0462V21.9239C12.0996 21.8411 12.074 21.7607 12.0336 21.6885C11.8927 21.4366 11.799 21.1374 11.6558 20.8878C11.6204 20.8262 11.5742 20.7716 11.5238 20.7214C11.4414 20.6395 11.373 20.5446 11.3212 20.4405L11.2998 20.3975L11.2249 20.1719C11.2084 20.1225 11.1885 20.0743 11.1651 20.0278C11.1216 19.9413 11.09 19.8493 11.0711 19.7544L11.0224 19.5101C11.0075 19.4352 11 19.359 11 19.2826V18.8982C11 18.8333 10.9741 18.7712 10.928 18.7256C10.9091 18.7068 10.8934 18.6851 10.8815 18.6612L10.8393 18.5765C10.8131 18.5237 10.7926 18.4682 10.7783 18.411L10.7504 18.2992C10.717 18.1652 10.6689 18.0354 10.607 17.9121L10.5996 17.8975C10.4691 17.702 10.3994 17.4722 10.3994 17.2372V17.0556C10.3994 16.9509 10.4164 16.8468 10.4497 16.7476L10.4839 16.6456C10.4946 16.6138 10.5 16.5806 10.5 16.5471C10.5 16.514 10.5053 16.481 10.5158 16.4496L10.555 16.3316C10.5843 16.2433 10.6341 16.1631 10.7002 16.0977L10.8994 15.8975C10.9638 15.8331 11 15.7457 11 15.6546V15.4687C11 15.4231 10.9819 15.3793 10.9496 15.3471C10.9175 15.3149 10.901 15.2704 10.8858 15.2275C10.8585 15.1507 10.7998 15.0739 10.7998 14.9971V14.9682C10.7998 14.9229 10.8177 14.8794 10.8496 14.8472C10.8815 14.815 10.9006 14.7713 10.8951 14.7262C10.8804 14.6065 10.832 14.5205 10.8104 14.4076C10.7966 14.3357 10.7828 14.2628 10.75 14.1973L10.7449 14.187C10.7155 14.1282 10.7002 14.0635 10.7002 13.9978C10.7002 13.9318 10.6848 13.8668 10.6552 13.8078L10.5996 13.6973L10.509 13.5615C10.4361 13.4524 10.3527 13.3507 10.2599 13.258L9.96263 12.9607C9.92059 12.9186 9.88284 12.8725 9.84993 12.823C9.75229 12.676 9.7002 12.5035 9.7002 12.3271V12.1973C9.7002 12.1097 9.77662 11.9451 9.79558 11.8384C9.79962 11.8157 9.78111 11.7969 9.75806 11.7969C9.72958 11.7969 9.70946 11.769 9.71844 11.742L9.78939 11.5284C9.79629 11.5077 9.7998 11.4859 9.7998 11.464V11.3584C9.7998 11.318 9.79038 11.278 9.77227 11.2418L9.72705 11.1514C9.71059 11.1185 9.67695 11.0977 9.64014 11.0977C9.6142 11.0977 9.58934 11.0873 9.57109 11.0689L9.52083 11.0181C9.5075 11.0046 9.48934 10.9971 9.4704 10.9971H9.44116C9.41811 10.9971 9.39941 10.9784 9.39941 10.9553C9.39941 10.9268 9.37153 10.9067 9.3445 10.9157L9.12616 10.9882C9.10857 10.9941 9.09002 10.9971 9.07149 10.9971C9.02595 10.9971 8.98191 11.0152 8.94971 11.0474C8.9175 11.0796 8.87383 11.0977 8.82829 11.0977H8.81937C8.74631 11.0977 8.67949 11.0565 8.64669 10.9912L8.59961 10.8975L8.53566 10.7689C8.51204 10.7215 8.48088 10.6781 8.4434 10.6407C8.35146 10.5487 8.22676 10.4971 8.09673 10.4971H7.82365C7.67633 10.4971 7.53105 10.5315 7.39941 10.5977L7 10.7969L6.84202 10.8762C6.81391 10.8904 6.78482 10.9024 6.75497 10.9124L6.63518 10.9522C6.5486 10.9809 6.45415 10.9743 6.37247 10.9336L6.3442 10.9196C6.315 10.905 6.28283 10.8975 6.25022 10.8975C6.21733 10.8975 6.18489 10.8898 6.1555 10.875L6.1001 10.8472C6.03428 10.8141 5.96164 10.7969 5.88798 10.7969H5.74946C5.58541 10.7969 5.42459 10.8384 5.26907 10.8906C5.21717 10.908 5.16628 10.9244 5.1082 10.948C5.03583 10.9774 4.95934 10.9971 4.88122 10.9971C4.8273 10.9971 4.77372 10.9884 4.72254 10.9714L4.63627 10.9427C4.54583 10.9127 4.45984 10.8706 4.38059 10.8177L4.29077 10.7577C4.23053 10.7175 4.1744 10.6715 4.12319 10.6203L3.84474 10.3418C3.81597 10.313 3.77695 10.2969 3.73626 10.2969C3.71254 10.2969 3.68914 10.2914 3.66791 10.2808L3.61721 10.2556C3.54113 10.2177 3.47938 10.1562 3.44122 10.0803C3.41373 10.0256 3.39941 9.96518 3.39941 9.90395V9.82921C3.39941 9.74243 3.3793 9.65683 3.34064 9.57914L3.31755 9.53273C3.3058 9.50911 3.29029 9.48756 3.27164 9.46891L3.23564 9.4329C3.21294 9.41021 3.18217 9.39746 3.15008 9.39746C3.11778 9.39746 3.08682 9.38455 3.0641 9.3616L3.04086 9.33813C3.01468 9.3117 3 9.27601 3 9.23881V9.16864C3 9.12944 2.96822 9.09766 2.92902 9.09766C2.91007 9.09766 2.89191 9.09008 2.87858 9.07662L2.83509 9.0327C2.81251 9.0099 2.78175 8.99707 2.74966 8.99707C2.71797 8.99707 2.68757 8.98456 2.66505 8.96227L2.59961 8.89746C2.5358 8.83302 2.5 8.746 2.5 8.65531V8.53165C2.5 8.44341 2.47937 8.3564 2.43976 8.27756L2.40816 8.21467C2.40237 8.20314 2.3947 8.19251 2.38562 8.18334C2.33845 8.1357 2.33811 8.05837 2.38552 8.01096C2.39472 8.00176 2.40239 7.99114 2.40823 7.97952L2.48228 7.83215C2.49402 7.80878 2.50942 7.78745 2.52791 7.76896C2.57382 7.72305 2.59961 7.66079 2.59961 7.59587V6.63863C2.59961 6.54799 2.5636 6.46106 2.49951 6.39697C2.43542 6.33288 2.39941 6.24595 2.39941 6.15532V6.09837C2.39941 6.03354 2.42533 5.97141 2.47139 5.92579C2.49033 5.90703 2.50606 5.88528 2.51794 5.86141L2.57735 5.742C2.59199 5.71258 2.59961 5.68016 2.59961 5.6473C2.59961 5.61402 2.60742 5.5812 2.62243 5.55149L2.66497 5.46722C2.68831 5.42101 2.7188 5.37876 2.75532 5.34206L2.87092 5.2259C2.88916 5.20757 2.91395 5.19727 2.93981 5.19727C2.97669 5.19727 3.01039 5.17639 3.02681 5.14338L3.07221 5.05214C3.09023 5.01592 3.09961 4.97602 3.09961 4.93556V4.89018C3.09961 4.82883 3.11395 4.76833 3.1415 4.71351L3.15028 4.69603C3.18269 4.63153 3.23508 4.57924 3.29964 4.54696C3.36441 4.51457 3.41692 4.46206 3.4493 4.3973L3.5815 4.13289C3.59349 4.10891 3.60933 4.08706 3.62838 4.06819C3.67439 4.02263 3.73652 3.99707 3.80127 3.99707H3.84958C3.94589 3.99707 4.03826 3.95881 4.10636 3.89071L4.26845 3.72862C4.2893 3.70777 4.31216 3.68902 4.33668 3.67264L4.35667 3.65929C4.50241 3.56197 4.57139 3.38365 4.52909 3.21359C4.51009 3.13722 4.51317 3.05703 4.53799 2.98235L4.58192 2.8501C4.59364 2.81485 4.59961 2.77794 4.59961 2.74079C4.59961 2.64854 4.63637 2.5601 4.70176 2.49503L4.7618 2.43528C4.78708 2.41013 4.81474 2.38749 4.8444 2.36768L5.09961 2.19727L5.1999 2.14688C5.26475 2.11429 5.31729 2.06157 5.34965 1.9966C5.39694 1.90165 5.48633 1.83465 5.59072 1.81589L5.7998 1.77832C5.89429 1.75621 6.00839 1.73051 6.13159 1.70187C6.14473 1.69882 6.15818 1.69727 6.17166 1.69727C6.19056 1.69727 6.20934 1.7003 6.22727 1.70626L6.46711 1.78595C6.4889 1.79319 6.5117 1.79688 6.53466 1.79688C6.57701 1.79688 6.61841 1.78432 6.65363 1.76081L6.80691 1.65845C6.8683 1.61746 6.93493 1.58492 7.00501 1.56171L7.16733 1.50795C7.18893 1.5008 7.20851 1.4886 7.22445 1.47237C7.24368 1.45279 7.26816 1.43917 7.2949 1.43301C7.35855 1.41837 7.40393 1.4075 7.4248 1.40332C7.54593 1.3791 9.18304 1.13718 10.0616 1.0085C10.0819 1.00552 10.0996 1.02137 10.0996 1.04193Z"/>
</mask>
<path d="M10.0996 1.04193C10.0996 1.06704 10.1261 1.08333 10.1485 1.07202L10.1827 1.05477C10.2008 1.04564 10.2224 1.04677 10.2396 1.05741C10.2589 1.06928 10.2787 1.08127 10.2987 1.09399C10.2994 1.09445 10.2998 1.09524 10.2998 1.09609C10.2998 1.09648 10.2997 1.09686 10.2995 1.0972L10.2172 1.26277C10.206 1.2852 10.2002 1.30992 10.2002 1.33497V1.44727C10.2002 1.47477 10.2225 1.49707 10.25 1.49707C10.2775 1.49707 10.2998 1.51937 10.2998 1.54687V1.70906C10.2998 1.76529 10.2775 1.81921 10.2377 1.85897L10.1851 1.91161C10.1341 1.96263 10.1215 2.04059 10.1539 2.10506L10.1831 2.16331C10.1936 2.18413 10.2149 2.19727 10.2382 2.19727C10.2722 2.19727 10.2998 2.22485 10.2998 2.25888V2.29736C10.2998 2.35265 10.3446 2.39746 10.3999 2.39746H10.4721C10.4906 2.39746 10.5089 2.40043 10.5265 2.40625L10.7613 2.48427C10.7868 2.49275 10.8135 2.49707 10.8404 2.49707C10.8792 2.49707 10.9175 2.50607 10.9522 2.52335L11.0387 2.56639C11.0792 2.58653 11.1217 2.60223 11.1655 2.61324L11.3399 2.65703C11.4396 2.68209 11.5196 2.75637 11.5521 2.85397C11.582 2.94403 11.6527 3.01469 11.7427 3.04462L11.8994 3.09668L12.2389 3.18197C12.2792 3.19209 12.3175 3.20906 12.352 3.23213L12.4653 3.30775C12.5434 3.3599 12.6474 3.34964 12.7138 3.28323C12.7665 3.23054 12.785 3.15262 12.7615 3.0819L12.7401 3.01754C12.7145 2.94063 12.7205 2.85673 12.7566 2.78417L12.7716 2.75404C12.7903 2.71644 12.8149 2.68212 12.8446 2.65243L12.9183 2.5788C12.9706 2.52647 13.0416 2.49707 13.1156 2.49707C13.1708 2.49707 13.2247 2.51342 13.2706 2.54405L13.4775 2.68222C13.4925 2.69223 13.5064 2.70368 13.5192 2.71642L13.5642 2.76143C13.5869 2.78413 13.6176 2.79688 13.6497 2.79688C13.682 2.79688 13.713 2.80979 13.7357 2.83273L13.75 2.84717C13.7819 2.87935 13.8253 2.89746 13.8706 2.89746H14.0288C14.0742 2.89746 14.1177 2.91536 14.1499 2.94727C14.1821 2.97917 14.2256 2.99707 14.271 2.99707H14.5996C14.7746 2.99707 14.9157 3.03117 15.0425 3.07944C15.2006 3.13956 15.3804 3.11662 15.5 2.99707C15.5572 2.93925 15.6399 2.91452 15.7195 2.93141C15.8262 2.95407 15.9285 2.97576 16.0252 2.9963C16.042 2.99987 16.0563 3.01087 16.064 3.02621L16.0677 3.03343C16.0834 3.0645 16.1249 3.07101 16.1494 3.04622L16.1666 3.02869C16.1681 3.02724 16.1701 3.02666 16.172 3.02741C16.1738 3.02809 16.1753 3.02929 16.1761 3.03094L16.6834 4.07318C16.6911 4.089 16.6879 4.10795 16.6755 4.12039C16.6638 4.13207 16.6602 4.14959 16.6664 4.16492L16.7998 4.49707L16.8994 4.69727L16.9697 4.83716C16.9898 4.8771 17.0161 4.91357 17.0477 4.94518L17.0574 4.95481C17.0885 4.98596 17.1134 5.02274 17.1308 5.0632L17.214 5.25664C17.2187 5.26742 17.2164 5.27992 17.2083 5.2884C17.2031 5.29384 17.2002 5.30108 17.2002 5.30861V5.39538C17.2002 5.46049 17.2261 5.52294 17.2721 5.56897L17.3733 5.67013C17.4035 5.70042 17.4292 5.73504 17.4493 5.77286L17.4917 5.85247C17.4971 5.86278 17.5 5.87427 17.5 5.88594C17.5 5.89357 17.5012 5.90115 17.5036 5.9084L17.573 6.11726C17.5893 6.1663 17.5765 6.22034 17.54 6.25688C17.5144 6.28249 17.5 6.31722 17.5 6.35344V6.52824C17.5 6.5737 17.5055 6.61898 17.5165 6.66309L17.5351 6.73782C17.5773 6.90745 17.677 7.04531 17.825 7.13826C17.8268 7.1394 17.8287 7.14056 17.8305 7.14174C17.88 7.17377 17.9159 7.22196 17.9487 7.271L18.0447 7.41489C18.0805 7.46847 18.0996 7.53146 18.0996 7.59588C18.0996 7.7191 18.1691 7.83179 18.2792 7.88711L18.2998 7.89746L18.4877 8.01009C18.6248 8.09228 18.7367 8.21047 18.8114 8.35182C18.8323 8.3913 18.8562 8.42913 18.8828 8.46498L19.2593 8.97164C19.3334 9.0713 19.4403 9.14154 19.5612 9.1699L19.655 9.19189C19.689 9.19987 19.7201 9.21719 19.7448 9.2419L19.7492 9.24627C19.7816 9.27867 19.8255 9.29688 19.8714 9.29688C19.8899 9.29688 19.9084 9.29388 19.926 9.28801L19.9621 9.27599C19.9747 9.27177 19.9883 9.27116 20.0013 9.27424C20.0126 9.27692 20.0244 9.27681 20.0357 9.27393C20.1087 9.25534 20.1948 9.23403 20.2877 9.21067C20.323 9.20179 20.3592 9.19727 20.3956 9.19727C20.4643 9.19727 20.5319 9.1812 20.5933 9.15036L20.6311 9.13134C20.6524 9.12063 20.6747 9.11231 20.6979 9.10686C20.7062 9.10491 20.7144 9.10298 20.7226 9.10101C20.7317 9.09881 20.7411 9.09766 20.7505 9.09766H20.7821C20.7934 9.09766 20.8042 9.09303 20.812 9.08487C20.8174 9.07919 20.8244 9.07517 20.832 9.0733C20.9121 9.05363 20.9896 9.03603 21.061 9.01967C21.1256 9.00485 21.1917 8.99707 21.258 8.99707H21.4829C21.5315 8.99707 21.5733 9.00749 21.6116 9.03737C21.6655 9.07936 21.7002 9.14959 21.7002 9.21785V9.30749C21.7002 9.36507 21.6772 9.42025 21.6363 9.46077C21.6122 9.48463 21.594 9.51384 21.5833 9.54603L21.5 9.79688C21.4 10.0968 21.3002 10.2971 21.2002 10.4971L21.1451 10.6072C21.049 10.7995 20.9213 10.9742 20.7856 11.1409C20.7017 11.2439 20.6178 11.352 20.5339 11.4504C20.4479 11.5513 20.3437 11.6347 20.2332 11.7081L20.0996 11.7969L19.7002 12.0977L19.5684 12.1849C19.456 12.2594 19.3515 12.345 19.2563 12.4404L19.0996 12.5977L19 12.6973L18.9787 12.7184C18.9262 12.7704 18.8658 12.8138 18.7998 12.8472L18.7352 12.8798C18.712 12.8915 18.6908 12.9068 18.6723 12.9251L18.6202 12.9766C18.607 12.9897 18.5892 12.9971 18.5706 12.9971C18.5316 12.9971 18.5 13.0287 18.5 13.0676V13.1383C18.5 13.1761 18.4849 13.2122 18.4581 13.2387L18.428 13.2685C18.4091 13.2873 18.3934 13.3091 18.3815 13.3329L18.3203 13.4558C18.3078 13.4811 18.282 13.4971 18.2537 13.4971C18.2217 13.4971 18.1933 13.5175 18.1832 13.5478L18.1129 13.7571C18.1041 13.7835 18.0996 13.811 18.0996 13.8388V13.885C18.0996 13.9537 18.1383 14.0165 18.1997 14.0474L18.2354 14.0653C18.2749 14.0851 18.2998 14.1256 18.2998 14.1698C18.2998 14.1879 18.2956 14.2057 18.2876 14.2219L18.2447 14.308C18.2154 14.3669 18.2002 14.4316 18.2002 14.4973C18.2002 14.5633 18.2156 14.6284 18.2451 14.6874L18.2998 14.7969L18.3815 14.9611C18.3934 14.9849 18.409 15.0067 18.4279 15.0255C18.474 15.0717 18.5 15.1344 18.5 15.1997V16.0728C18.5 16.2202 18.4656 16.3654 18.3994 16.4971L18.3631 16.5701C18.3212 16.6543 18.2659 16.7312 18.1994 16.7977C18.1333 16.8638 18.057 16.9188 17.9734 16.9606L17.7903 17.0521C17.598 17.1483 17.4225 17.2748 17.2705 17.4268L17.0996 17.5977L16.8994 17.7969L16.8893 17.8071C16.832 17.865 16.7998 17.9432 16.7998 18.0247C16.7998 18.0727 16.811 18.12 16.8324 18.1629L16.8994 18.2969L16.9179 18.3337C16.9719 18.4411 17 18.5597 17 18.6799V18.9263C17 18.9716 17.0179 19.0151 17.0498 19.0474L17.0647 19.0624C17.0871 19.085 17.0996 19.1155 17.0996 19.1473C17.0996 19.1793 17.0869 19.21 17.0643 19.2326L17.028 19.2688C17.0095 19.2874 16.988 19.3029 16.9645 19.3146C16.7881 19.4029 16.6113 19.4917 16.4349 19.5799C16.4114 19.5917 16.3899 19.6071 16.3714 19.6257L16.3204 19.6766C16.3072 19.6898 16.2998 19.7078 16.2998 19.7264V19.7471C16.2998 19.7746 16.3221 19.7969 16.3496 19.7969C16.3771 19.7969 16.3994 19.8192 16.3994 19.8467V19.959C16.3994 19.984 16.3936 20.0087 16.3824 20.0312L16.3482 20.1001C16.3164 20.164 16.2998 20.2344 16.2998 20.3058C16.2998 20.4283 16.2512 20.5457 16.1646 20.6323L15.9493 20.8476C15.8536 20.9433 15.7959 21.0584 15.6822 21.1319C15.6359 21.1618 15.5871 21.2225 15.5625 21.2719L15.5 21.3975L15.4625 21.4722C15.4207 21.5553 15.3659 21.6312 15.3001 21.697C15.2339 21.7631 15.1545 21.8147 15.0826 21.8747C14.9523 21.9833 14.8568 22.1402 14.7002 22.2969L14.6319 22.3651C14.5452 22.4519 14.4394 22.5174 14.3231 22.5564L14.2136 22.5932C14.2047 22.5961 14.1954 22.5977 14.1861 22.5977H14.1494C14.1219 22.5977 14.0996 22.62 14.0996 22.6475C14.0996 22.675 14.0773 22.6973 14.0498 22.6973H13.956C13.9198 22.6973 13.885 22.7117 13.8594 22.7373C13.8229 22.7738 13.7688 22.7866 13.7198 22.7703L13.5623 22.7179C13.521 22.7042 13.4779 22.6973 13.4344 22.6973H13.3499C13.2507 22.6973 13.1522 22.7132 13.0581 22.7443L12.994 22.7655C12.931 22.7864 12.8697 22.8119 12.8104 22.8418L12.7002 22.8975L12.5326 22.9808C12.5112 22.9915 12.4875 22.9971 12.4636 22.9971C12.4225 22.9971 12.3831 22.9807 12.354 22.9517L12.3281 22.9258C12.31 22.9076 12.2854 22.8975 12.2598 22.8975C12.2233 22.8975 12.1898 22.8769 12.1734 22.8442L12.1275 22.7529C12.1092 22.7163 12.0996 22.676 12.0996 22.635V22.4525C12.0996 22.4163 12.0912 22.3806 12.0751 22.3482L12.0398 22.2773C12.016 22.2295 12.0254 22.1718 12.0632 22.1341C12.0865 22.1107 12.0996 22.0791 12.0996 22.0462V21.9239C12.0996 21.8411 12.074 21.7607 12.0336 21.6885C11.8927 21.4366 11.799 21.1374 11.6558 20.8878C11.6204 20.8262 11.5742 20.7716 11.5238 20.7214C11.4414 20.6395 11.373 20.5446 11.3212 20.4405L11.2998 20.3975L11.2249 20.1719C11.2084 20.1225 11.1885 20.0743 11.1651 20.0278C11.1216 19.9413 11.09 19.8493 11.0711 19.7544L11.0224 19.5101C11.0075 19.4352 11 19.359 11 19.2826V18.8982C11 18.8333 10.9741 18.7712 10.928 18.7256C10.9091 18.7068 10.8934 18.6851 10.8815 18.6612L10.8393 18.5765C10.8131 18.5237 10.7926 18.4682 10.7783 18.411L10.7504 18.2992C10.717 18.1652 10.6689 18.0354 10.607 17.9121L10.5996 17.8975C10.4691 17.702 10.3994 17.4722 10.3994 17.2372V17.0556C10.3994 16.9509 10.4164 16.8468 10.4497 16.7476L10.4839 16.6456C10.4946 16.6138 10.5 16.5806 10.5 16.5471C10.5 16.514 10.5053 16.481 10.5158 16.4496L10.555 16.3316C10.5843 16.2433 10.6341 16.1631 10.7002 16.0977L10.8994 15.8975C10.9638 15.8331 11 15.7457 11 15.6546V15.4687C11 15.4231 10.9819 15.3793 10.9496 15.3471C10.9175 15.3149 10.901 15.2704 10.8858 15.2275C10.8585 15.1507 10.7998 15.0739 10.7998 14.9971V14.9682C10.7998 14.9229 10.8177 14.8794 10.8496 14.8472C10.8815 14.815 10.9006 14.7713 10.8951 14.7262C10.8804 14.6065 10.832 14.5205 10.8104 14.4076C10.7966 14.3357 10.7828 14.2628 10.75 14.1973L10.7449 14.187C10.7155 14.1282 10.7002 14.0635 10.7002 13.9978C10.7002 13.9318 10.6848 13.8668 10.6552 13.8078L10.5996 13.6973L10.509 13.5615C10.4361 13.4524 10.3527 13.3507 10.2599 13.258L9.96263 12.9607C9.92059 12.9186 9.88284 12.8725 9.84993 12.823C9.75229 12.676 9.7002 12.5035 9.7002 12.3271V12.1973C9.7002 12.1097 9.77662 11.9451 9.79558 11.8384C9.79962 11.8157 9.78111 11.7969 9.75806 11.7969C9.72958 11.7969 9.70946 11.769 9.71844 11.742L9.78939 11.5284C9.79629 11.5077 9.7998 11.4859 9.7998 11.464V11.3584C9.7998 11.318 9.79038 11.278 9.77227 11.2418L9.72705 11.1514C9.71059 11.1185 9.67695 11.0977 9.64014 11.0977C9.6142 11.0977 9.58934 11.0873 9.57109 11.0689L9.52083 11.0181C9.5075 11.0046 9.48934 10.9971 9.4704 10.9971H9.44116C9.41811 10.9971 9.39941 10.9784 9.39941 10.9553C9.39941 10.9268 9.37153 10.9067 9.3445 10.9157L9.12616 10.9882C9.10857 10.9941 9.09002 10.9971 9.07149 10.9971C9.02595 10.9971 8.98191 11.0152 8.94971 11.0474C8.9175 11.0796 8.87383 11.0977 8.82829 11.0977H8.81937C8.74631 11.0977 8.67949 11.0565 8.64669 10.9912L8.59961 10.8975L8.53566 10.7689C8.51204 10.7215 8.48088 10.6781 8.4434 10.6407C8.35146 10.5487 8.22676 10.4971 8.09673 10.4971H7.82365C7.67633 10.4971 7.53105 10.5315 7.39941 10.5977L7 10.7969L6.84202 10.8762C6.81391 10.8904 6.78482 10.9024 6.75497 10.9124L6.63518 10.9522C6.5486 10.9809 6.45415 10.9743 6.37247 10.9336L6.3442 10.9196C6.315 10.905 6.28283 10.8975 6.25022 10.8975C6.21733 10.8975 6.18489 10.8898 6.1555 10.875L6.1001 10.8472C6.03428 10.8141 5.96164 10.7969 5.88798 10.7969H5.74946C5.58541 10.7969 5.42459 10.8384 5.26907 10.8906C5.21717 10.908 5.16628 10.9244 5.1082 10.948C5.03583 10.9774 4.95934 10.9971 4.88122 10.9971C4.8273 10.9971 4.77372 10.9884 4.72254 10.9714L4.63627 10.9427C4.54583 10.9127 4.45984 10.8706 4.38059 10.8177L4.29077 10.7577C4.23053 10.7175 4.1744 10.6715 4.12319 10.6203L3.84474 10.3418C3.81597 10.313 3.77695 10.2969 3.73626 10.2969C3.71254 10.2969 3.68914 10.2914 3.66791 10.2808L3.61721 10.2556C3.54113 10.2177 3.47938 10.1562 3.44122 10.0803C3.41373 10.0256 3.39941 9.96518 3.39941 9.90395V9.82921C3.39941 9.74243 3.3793 9.65683 3.34064 9.57914L3.31755 9.53273C3.3058 9.50911 3.29029 9.48756 3.27164 9.46891L3.23564 9.4329C3.21294 9.41021 3.18217 9.39746 3.15008 9.39746C3.11778 9.39746 3.08682 9.38455 3.0641 9.3616L3.04086 9.33813C3.01468 9.3117 3 9.27601 3 9.23881V9.16864C3 9.12944 2.96822 9.09766 2.92902 9.09766C2.91007 9.09766 2.89191 9.09008 2.87858 9.07662L2.83509 9.0327C2.81251 9.0099 2.78175 8.99707 2.74966 8.99707C2.71797 8.99707 2.68757 8.98456 2.66505 8.96227L2.59961 8.89746C2.5358 8.83302 2.5 8.746 2.5 8.65531V8.53165C2.5 8.44341 2.47937 8.3564 2.43976 8.27756L2.40816 8.21467C2.40237 8.20314 2.3947 8.19251 2.38562 8.18334C2.33845 8.1357 2.33811 8.05837 2.38552 8.01096C2.39472 8.00176 2.40239 7.99114 2.40823 7.97952L2.48228 7.83215C2.49402 7.80878 2.50942 7.78745 2.52791 7.76896C2.57382 7.72305 2.59961 7.66079 2.59961 7.59587V6.63863C2.59961 6.54799 2.5636 6.46106 2.49951 6.39697C2.43542 6.33288 2.39941 6.24595 2.39941 6.15532V6.09837C2.39941 6.03354 2.42533 5.97141 2.47139 5.92579C2.49033 5.90703 2.50606 5.88528 2.51794 5.86141L2.57735 5.742C2.59199 5.71258 2.59961 5.68016 2.59961 5.6473C2.59961 5.61402 2.60742 5.5812 2.62243 5.55149L2.66497 5.46722C2.68831 5.42101 2.7188 5.37876 2.75532 5.34206L2.87092 5.2259C2.88916 5.20757 2.91395 5.19727 2.93981 5.19727C2.97669 5.19727 3.01039 5.17639 3.02681 5.14338L3.07221 5.05214C3.09023 5.01592 3.09961 4.97602 3.09961 4.93556V4.89018C3.09961 4.82883 3.11395 4.76833 3.1415 4.71351L3.15028 4.69603C3.18269 4.63153 3.23508 4.57924 3.29964 4.54696C3.36441 4.51457 3.41692 4.46206 3.4493 4.3973L3.5815 4.13289C3.59349 4.10891 3.60933 4.08706 3.62838 4.06819C3.67439 4.02263 3.73652 3.99707 3.80127 3.99707H3.84958C3.94589 3.99707 4.03826 3.95881 4.10636 3.89071L4.26845 3.72862C4.2893 3.70777 4.31216 3.68902 4.33668 3.67264L4.35667 3.65929C4.50241 3.56197 4.57139 3.38365 4.52909 3.21359C4.51009 3.13722 4.51317 3.05703 4.53799 2.98235L4.58192 2.8501C4.59364 2.81485 4.59961 2.77794 4.59961 2.74079C4.59961 2.64854 4.63637 2.5601 4.70176 2.49503L4.7618 2.43528C4.78708 2.41013 4.81474 2.38749 4.8444 2.36768L5.09961 2.19727L5.1999 2.14688C5.26475 2.11429 5.31729 2.06157 5.34965 1.9966C5.39694 1.90165 5.48633 1.83465 5.59072 1.81589L5.7998 1.77832C5.89429 1.75621 6.00839 1.73051 6.13159 1.70187C6.14473 1.69882 6.15818 1.69727 6.17166 1.69727C6.19056 1.69727 6.20934 1.7003 6.22727 1.70626L6.46711 1.78595C6.4889 1.79319 6.5117 1.79688 6.53466 1.79688C6.57701 1.79688 6.61841 1.78432 6.65363 1.76081L6.80691 1.65845C6.8683 1.61746 6.93493 1.58492 7.00501 1.56171L7.16733 1.50795C7.18893 1.5008 7.20851 1.4886 7.22445 1.47237C7.24368 1.45279 7.26816 1.43917 7.2949 1.43301C7.35855 1.41837 7.40393 1.4075 7.4248 1.40332C7.54593 1.3791 9.18304 1.13718 10.0616 1.0085C10.0819 1.00552 10.0996 1.02137 10.0996 1.04193Z" stroke="currentcolor" stroke-width="1.2" mask="url(#path-1-inside-1_998_14038)"/>
</svg>
