<svg width="24" height="24" viewBox="0 0 24 24" fill="none" xmlns="http://www.w3.org/2000/svg">
<mask id="path-1-inside-1_998_14035" fill="white">
<path d="M17.9929 18.9351C17.9572 18.9886 17.8814 18.9961 17.8359 18.9506L17.7639 18.8787C17.7316 18.8464 17.7161 18.801 17.7217 18.7556C17.7302 18.6877 17.7842 18.6345 17.8522 18.6269L17.9474 18.6163L18.2592 18.598C18.317 18.5946 18.3749 18.5986 18.4316 18.61L18.505 18.6246C18.5549 18.6346 18.6064 18.6334 18.6558 18.621L18.6887 18.6128C18.7404 18.5999 18.7865 18.5703 18.8199 18.5286L18.9348 18.385C18.947 18.3698 18.9457 18.3478 18.932 18.334C18.9188 18.3209 18.8982 18.3191 18.883 18.3297L18.7387 18.4307C18.697 18.4599 18.6473 18.4756 18.5964 18.4756H18.3931L18.1286 18.4552C18.1017 18.4531 18.0753 18.4473 18.0501 18.4379C17.9571 18.403 17.8527 18.4189 17.7742 18.4799L17.7582 18.4923C17.7131 18.5274 17.6781 18.5739 17.6569 18.627L17.6424 18.6633L17.5449 18.9557C17.5317 18.9953 17.5225 19.036 17.5173 19.0773L17.5083 19.1491C17.5039 19.1846 17.4925 19.2188 17.4747 19.2499L17.4459 19.3003C17.4219 19.3424 17.419 19.3932 17.438 19.4377L17.4617 19.4929C17.4717 19.5162 17.4946 19.5313 17.52 19.5313C17.5502 19.5313 17.5762 19.5527 17.5822 19.5823L17.6074 19.7085C17.6149 19.7461 17.6125 19.7851 17.6004 19.8215L17.5718 19.9072C17.5579 19.9489 17.5722 19.9949 17.6074 20.0212C17.6297 20.038 17.6579 20.0448 17.6855 20.0403L17.6896 20.0396C17.7436 20.0306 17.7833 19.9839 17.7817 19.9292C17.7771 19.7686 17.763 19.6101 17.7602 19.464C17.7596 19.4337 17.7778 19.4062 17.8057 19.3943C17.8588 19.3715 17.9168 19.4141 17.9111 19.4716L17.906 19.523C17.9025 19.5576 17.9162 19.5917 17.9426 19.6144L18.0263 19.6861C18.0498 19.7063 18.0599 19.7381 18.0524 19.7681C18.0455 19.7958 18.0535 19.8252 18.0737 19.8454L18.0799 19.8515C18.0991 19.8708 18.1279 19.8767 18.1532 19.8666L18.1831 19.8546C18.2346 19.834 18.2825 19.8913 18.2531 19.9383C18.2389 19.961 18.2423 19.9905 18.2612 20.0094L18.2762 20.0244C18.3036 20.0517 18.346 20.057 18.3791 20.0371L18.3907 20.0301C18.4213 20.0118 18.44 19.9787 18.44 19.943V19.8947C18.44 19.8567 18.4284 19.8196 18.4068 19.7883L18.2523 19.5652C18.2382 19.5447 18.2379 19.5177 18.2517 19.4971C18.2661 19.4755 18.2652 19.4471 18.2493 19.4265L18.1559 19.305C18.0975 19.2291 18.1255 19.1184 18.2131 19.0795C18.2387 19.0681 18.2606 19.0497 18.2762 19.0264L18.3246 18.9537C18.3376 18.9343 18.3613 18.9251 18.3839 18.9307L18.391 18.9325C18.4177 18.9392 18.4445 18.9222 18.4499 18.8953C18.4565 18.8624 18.4283 18.833 18.3952 18.8383L18.0619 18.8909C18.0338 18.8953 18.0087 18.9114 17.9929 18.9351ZM18.0919 20.7154C18.0437 20.7235 17.9942 20.716 17.9504 20.6942L17.9363 20.6871C17.8979 20.6679 17.8541 20.6625 17.8122 20.6718L17.7083 20.6949C17.6835 20.7004 17.6658 20.7225 17.6658 20.7479C17.6658 20.7763 17.6877 20.7999 17.716 20.8021L17.9313 20.8186C17.9575 20.8206 17.9839 20.819 18.0097 20.8139L18.2863 20.7586C18.3082 20.7542 18.3252 20.7367 18.3288 20.7147C18.3361 20.6713 18.2911 20.6381 18.2517 20.6577L18.1719 20.6977C18.163 20.7021 18.1535 20.7052 18.1438 20.7068L18.0919 20.7154ZM17.9651 13.1603C17.9689 13.1534 17.9721 13.1462 17.9746 13.1387L18.1116 12.7276L18.1399 12.6286C18.1509 12.5901 18.1347 12.5491 18.1004 12.5285C18.0656 12.5077 18.0211 12.5131 17.9924 12.5418L17.8858 12.6484C17.8644 12.6698 17.8466 12.6945 17.8331 12.7216L17.7643 12.8591C17.7307 12.9263 17.7177 13.0021 17.7271 13.0767L17.7333 13.1266C17.7352 13.142 17.7401 13.1569 17.7476 13.1704C17.7938 13.2535 17.9133 13.2535 17.9594 13.1704L17.9651 13.1603ZM19.0103 15.8321C19.0055 15.8116 18.9966 15.7923 18.984 15.7755L18.9609 15.7447C18.9431 15.7211 18.9153 15.7072 18.8858 15.7072C18.8085 15.7072 18.7643 15.7955 18.8107 15.8573L18.8265 15.8783C18.8345 15.8891 18.8389 15.9021 18.8389 15.9155V15.9294C18.8389 15.9604 18.811 15.9841 18.7804 15.979C18.7431 15.9727 18.7125 16.0085 18.7245 16.0444L18.7354 16.0772C18.7415 16.0953 18.7557 16.1096 18.7739 16.1156C18.7987 16.1239 18.8154 16.1471 18.8154 16.1733V16.2166C18.8154 16.2535 18.8527 16.2788 18.887 16.2651C18.9127 16.2548 18.9259 16.2263 18.9171 16.2001L18.888 16.1128C18.8866 16.1083 18.8858 16.1036 18.8858 16.0989C18.8858 16.0683 18.9164 16.0471 18.945 16.0578L18.9677 16.0663C19.013 16.0833 19.059 16.0431 19.0481 15.9959L19.0103 15.8321ZM17.6736 14.9683C17.6685 14.9911 17.6705 15.015 17.6792 15.0367L17.7077 15.108C17.711 15.1164 17.7157 15.1242 17.7215 15.1311L17.7941 15.2182C17.809 15.2362 17.838 15.2295 17.8437 15.2069C17.8485 15.1877 17.8708 15.1791 17.8872 15.19L17.8914 15.1928C17.9082 15.204 17.9105 15.2278 17.8962 15.2421L17.8665 15.2718C17.858 15.2804 17.852 15.291 17.849 15.3027L17.8479 15.3075C17.8377 15.3483 17.8592 15.3904 17.8982 15.406L17.9167 15.4134C17.9367 15.4214 17.9586 15.4231 17.9796 15.4185L18.0958 15.3926C18.1349 15.384 18.1756 15.3958 18.2039 15.4241L18.2601 15.4803C18.2808 15.501 18.3149 15.4986 18.3325 15.4752C18.3513 15.4501 18.3888 15.4495 18.4084 15.474L18.4526 15.5293C18.4598 15.5383 18.4685 15.5461 18.4783 15.5522L18.5961 15.6258C18.6227 15.6425 18.6578 15.6274 18.6639 15.5966L18.6676 15.578C18.6713 15.5599 18.6574 15.5429 18.6389 15.5429C18.6208 15.5429 18.607 15.5267 18.61 15.5088L18.6185 15.4574C18.6239 15.4248 18.6069 15.3926 18.5769 15.3787L18.372 15.2841C18.3408 15.2698 18.3049 15.2703 18.2742 15.2857C18.2454 15.3001 18.2118 15.3015 18.1818 15.2895L18.1697 15.2847C18.1327 15.2699 18.1036 15.2401 18.0896 15.2028L18.0686 15.1469C18.0508 15.0992 18.0478 15.0473 18.0601 14.998L18.068 14.9664C18.0808 14.9154 18.1152 14.8725 18.1622 14.849C18.2049 14.8276 18.2374 14.7902 18.2525 14.7449L18.2709 14.6897C18.2892 14.6346 18.2881 14.5748 18.2677 14.5204L18.2478 14.4672C18.2357 14.4351 18.2376 14.3994 18.2529 14.3687L18.269 14.3365C18.2734 14.3278 18.2741 14.3178 18.271 14.3086C18.2624 14.2829 18.2298 14.2752 18.2106 14.2944L18.2037 14.3013C18.1907 14.3142 18.1709 14.3174 18.1545 14.3093L18.0715 14.2678C18.0516 14.2578 18.0296 14.2526 18.0073 14.2526C17.9439 14.2526 17.888 14.2942 17.8697 14.3549L17.8364 14.4661C17.8322 14.4801 17.8296 14.4946 17.8287 14.5091L17.8106 14.7988C17.8089 14.8262 17.7774 14.8407 17.7555 14.8242C17.7355 14.8092 17.7066 14.8199 17.7012 14.8443L17.6736 14.9683ZM17.4494 20.7029C17.4388 20.6763 17.4111 20.6608 17.3829 20.6655L17.3251 20.6751C17.303 20.6788 17.2803 20.6733 17.2623 20.6598L17.2592 20.6574C17.2246 20.6315 17.1756 20.6385 17.1497 20.6731C17.1349 20.6928 17.1117 20.7044 17.0871 20.7044H17.029C17.0023 20.7044 16.9779 20.7194 16.966 20.7433L16.965 20.7453C16.942 20.7912 16.9754 20.8451 17.0267 20.8451C17.0305 20.8451 17.0343 20.8448 17.038 20.8442C17.1545 20.8248 17.2713 20.8053 17.4016 20.7859C17.4405 20.7801 17.464 20.7395 17.4494 20.7029ZM14.3372 19.7617C14.3353 19.7334 14.3376 19.7049 14.344 19.6773L14.3815 19.5146C14.3962 19.4512 14.3803 19.3847 14.3386 19.3347L14.3365 19.3322C14.3049 19.2942 14.2604 19.2694 14.2115 19.2624C14.1553 19.2544 14.1052 19.2228 14.0737 19.1756L14.0456 19.1334C14.0349 19.1172 14.0267 19.0995 14.0213 19.0808L14.0008 19.0092C13.99 18.9711 13.9551 18.9448 13.9155 18.9448C13.898 18.9448 13.8808 18.9396 13.8662 18.9299L13.8338 18.9083C13.7847 18.8755 13.7677 18.8113 13.7941 18.7585C13.8211 18.7045 13.8026 18.6388 13.7514 18.6068L13.6984 18.5737C13.6693 18.5555 13.6459 18.5298 13.6306 18.4992L13.5985 18.4349C13.5732 18.3843 13.5383 18.3391 13.4957 18.3018L13.4536 18.265C13.4013 18.2192 13.3342 18.194 13.2647 18.194C13.1839 18.194 13.1069 18.1599 13.0525 18.1002L12.9543 17.9921C12.9204 17.9548 12.882 17.9218 12.8401 17.8938L12.7625 17.8421L12.5748 17.6779L12.4432 17.5317C12.3918 17.4746 12.322 17.437 12.2458 17.4272C12.1462 17.4144 12.0423 17.4034 11.9433 17.3987C11.8938 17.3964 11.8566 17.4417 11.8663 17.4903C11.8693 17.5055 11.8768 17.5195 11.8878 17.5305L12.0876 17.7303C12.1152 17.7579 12.1447 17.7835 12.176 17.8069L12.2263 17.8447C12.2859 17.8894 12.3354 17.9462 12.3716 18.0113L12.3752 18.0178C12.4139 18.0874 12.4686 18.1467 12.5348 18.1908C12.6071 18.239 12.6656 18.3053 12.7045 18.3831L12.7192 18.4125C12.7324 18.4389 12.7437 18.4661 12.753 18.4941L12.754 18.4971C12.7903 18.606 12.8545 18.7034 12.9403 18.7796C12.9934 18.8268 13.0385 18.8824 13.0738 18.9442L13.2082 19.1794L13.2503 19.2467C13.3003 19.3267 13.3592 19.4008 13.4259 19.4675L13.476 19.5175C13.5008 19.5423 13.523 19.5694 13.5425 19.5986C13.585 19.6625 13.6409 19.7164 13.7063 19.7566L13.8621 19.8525C13.8953 19.8729 13.926 19.8971 13.9535 19.9247L14.0488 20.0199C14.0814 20.0526 14.1257 20.0709 14.1718 20.0709C14.2725 20.0709 14.3521 19.9858 14.3455 19.8853L14.3372 19.7617ZM18.5747 16.7099C18.5369 16.6721 18.4783 16.6649 18.4325 16.6924L18.3931 16.716L18.3339 16.7456C18.2812 16.772 18.2393 16.8158 18.2153 16.8697L18.1698 16.9722C18.1628 16.988 18.1643 17.0062 18.1739 17.0206C18.1907 17.0457 18.2256 17.0506 18.2486 17.0309L18.3318 16.9596C18.3562 16.9387 18.3873 16.9271 18.4195 16.9271H18.4492C18.473 16.9271 18.4954 16.9159 18.5096 16.8969C18.5356 16.8623 18.5852 16.8565 18.6184 16.8842L18.635 16.898C18.6713 16.9283 18.6802 16.9805 18.6558 17.0211L18.654 17.0241C18.6375 17.0516 18.6352 17.0854 18.6479 17.1149L18.6687 17.1636C18.6877 17.2078 18.7217 17.2439 18.7648 17.2655L18.9008 17.3335C18.9453 17.3557 18.9994 17.34 19.025 17.2973C19.0407 17.2711 19.0429 17.239 19.0308 17.2109L18.9998 17.1384C18.9876 17.11 18.994 17.077 19.0158 17.0552L19.0331 17.0379C19.0633 17.0077 19.1146 17.0182 19.1305 17.0578C19.151 17.1093 19.2246 17.1072 19.2422 17.0546L19.2556 17.0143C19.2592 17.0033 19.2603 16.9915 19.2587 16.98C19.2379 16.8348 19.2172 16.6897 19.1965 16.5445C19.1929 16.5194 19.1783 16.4971 19.1568 16.4836L19.1073 16.4527C19.0656 16.4266 19.0122 16.4606 19.0183 16.5095C19.0227 16.5444 18.9955 16.5752 18.9603 16.5752H18.9238C18.8867 16.5752 18.8533 16.5978 18.8395 16.6323L18.8339 16.6462C18.8221 16.6757 18.7985 16.6989 18.7687 16.71L18.6979 16.7366C18.6552 16.7526 18.607 16.7422 18.5747 16.7099ZM16.1176 20.512C16.0579 20.5001 16.0062 20.4628 15.976 20.4099C15.9465 20.3584 15.8967 20.3216 15.8387 20.3088L15.5631 20.2475C15.5304 20.2402 15.4969 20.2562 15.4819 20.2862C15.4689 20.3122 15.4417 20.328 15.4127 20.3265L15.0624 20.308C15.0324 20.3064 15.0049 20.2908 14.9882 20.2658C14.9751 20.2461 14.9551 20.232 14.9321 20.2262L14.8947 20.2169C14.8809 20.2134 14.8676 20.2085 14.8548 20.2021L14.7497 20.1495C14.7078 20.1286 14.6623 20.1158 14.6156 20.1119L14.4773 20.1004C14.4324 20.0967 14.3888 20.1171 14.363 20.154L14.3326 20.1974C14.2911 20.2567 14.3283 20.3387 14.4002 20.3467C14.4323 20.3503 14.4604 20.3699 14.4748 20.3988L14.4767 20.4025C14.4905 20.4302 14.5161 20.4502 14.5464 20.4569L14.8693 20.5287C14.9032 20.5362 14.9384 20.5357 14.9722 20.5273C15.0003 20.5203 15.0295 20.5188 15.0582 20.5229L15.1272 20.5327C15.1616 20.5377 15.1956 20.5457 15.2286 20.5567L15.4605 20.634L15.6716 20.6809L15.9062 20.7044H16.0252C16.0862 20.7044 16.1467 20.715 16.2041 20.7359L16.3403 20.7854C16.3631 20.7937 16.388 20.794 16.411 20.7864C16.5018 20.7561 16.5106 20.6312 16.425 20.5884L16.3903 20.571C16.3804 20.5661 16.37 20.5625 16.3592 20.5603L16.1176 20.512ZM17.434 16.3461C17.4477 16.3269 17.4637 16.3094 17.4817 16.294L17.5916 16.1998C17.6083 16.1855 17.6155 16.1629 17.6102 16.1415C17.5971 16.089 17.5257 16.0812 17.5016 16.1295L17.4598 16.2131C17.4564 16.2199 17.4522 16.2262 17.4472 16.232L17.361 16.3326C17.3297 16.3692 17.2955 16.4033 17.259 16.4346L17.1542 16.5244C17.1512 16.527 17.1486 16.53 17.1465 16.5333C17.1236 16.57 17.1688 16.611 17.2031 16.5847L17.3294 16.4875C17.3347 16.4834 17.3393 16.4786 17.3432 16.4732L17.434 16.3461ZM8.43137 16.5177C8.42528 16.5091 8.41818 16.5014 8.41023 16.4946C8.33878 16.4333 8.22795 16.4662 8.20139 16.5565L8.15484 16.7147C8.1455 16.7465 8.14293 16.7799 8.14731 16.8127L8.18074 17.0634C8.18526 17.0973 8.19696 17.1298 8.21507 17.1588L8.21706 17.162C8.2697 17.2462 8.36972 17.2881 8.46669 17.2666L8.47541 17.2646C8.50219 17.2587 8.5274 17.2471 8.54935 17.2306C8.58827 17.2014 8.61473 17.1586 8.62343 17.1107L8.63599 17.0417C8.64955 16.9671 8.64001 16.8902 8.60864 16.8212L8.56729 16.7302C8.54881 16.6895 8.52644 16.6508 8.50048 16.6144L8.43137 16.5177ZM17.1028 18.7322C17.1028 18.7022 17.1089 18.6725 17.1207 18.6449L17.1514 18.5733C17.1648 18.542 17.1943 18.5207 17.2282 18.5179C17.3106 18.511 17.3428 18.4075 17.2788 18.3551L17.2529 18.3339C17.2194 18.3065 17.2075 18.2605 17.2236 18.2203C17.236 18.1893 17.232 18.1541 17.2128 18.1266L17.171 18.0669C17.1157 17.988 17.1145 17.8832 17.168 17.8029L17.1969 17.7595C17.212 17.7369 17.2334 17.7191 17.2584 17.7084L17.3339 17.676C17.3619 17.664 17.3753 17.6318 17.3639 17.6035C17.3504 17.5697 17.3721 17.5322 17.4082 17.527L17.4599 17.5196C17.4851 17.516 17.5056 17.4975 17.5118 17.4728C17.5194 17.4425 17.5034 17.4112 17.4743 17.3995C17.3919 17.3666 17.3096 17.3336 17.2272 17.3007C17.1946 17.2876 17.1731 17.256 17.1731 17.2208C17.1731 17.198 17.1641 17.1761 17.148 17.16L17.0842 17.0963C17.066 17.0781 17.0414 17.0679 17.0157 17.0679C16.9823 17.0679 16.9512 17.0851 16.9335 17.1134L16.8762 17.2052C16.8554 17.2385 16.8281 17.2672 16.796 17.2897L16.6101 17.4198L16.5094 17.487C16.4359 17.5359 16.3675 17.592 16.3051 17.6544L16.1878 17.7952L16.1559 17.8317C16.0703 17.9294 15.9535 17.9946 15.8254 18.0159L15.7669 18.0257C15.7504 18.0284 15.7344 18.0336 15.7195 18.0411C15.6744 18.0636 15.6418 18.1053 15.6309 18.1546L15.6278 18.1686C15.6115 18.2417 15.5554 18.2993 15.4827 18.3175L15.4681 18.3212C15.4327 18.33 15.3954 18.327 15.3619 18.3127C15.2949 18.284 15.2171 18.3021 15.1696 18.3574L15.1485 18.382C15.1224 18.4125 15.1056 18.4497 15.0999 18.4894L15.0922 18.543C15.0875 18.5761 15.087 18.6097 15.0907 18.6429L15.0971 18.7011C15.1047 18.769 15.1257 18.8348 15.1589 18.8945L15.202 18.9721C15.2176 19.0003 15.2404 19.0239 15.2681 19.0405C15.3156 19.069 15.3477 19.1174 15.3556 19.1722L15.3673 19.2547C15.3808 19.3487 15.4555 19.4222 15.5498 19.434C15.5684 19.4363 15.5872 19.4361 15.6057 19.4335L15.6751 19.4236C15.7166 19.4176 15.7581 19.4341 15.7843 19.4668C15.8153 19.5056 15.8671 19.5209 15.9142 19.5052L16.0272 19.4675C16.0845 19.4484 16.1472 19.4553 16.1989 19.4864C16.2225 19.5005 16.2488 19.5099 16.276 19.5137L16.3412 19.5231C16.3779 19.5283 16.4107 19.5489 16.4313 19.5798C16.4667 19.633 16.5355 19.6526 16.5937 19.6262L16.73 19.5642C16.7408 19.5593 16.7535 19.5654 16.7564 19.577C16.7612 19.5961 16.7883 19.5963 16.7933 19.5773L16.8651 19.3082C16.8671 19.3006 16.8681 19.2927 16.8681 19.2848V19.2053C16.8681 19.1155 16.9119 19.0314 16.9855 18.98C17.059 18.9285 17.1028 18.8444 17.1028 18.7547V18.7322ZM15.4509 14.0605C15.4573 14.0478 15.465 14.0359 15.4738 14.0248L15.521 13.9658C15.5413 13.9404 15.545 13.9055 15.5305 13.8764C15.5163 13.8481 15.4875 13.8303 15.4559 13.8303H15.3917C15.3751 13.8303 15.3585 13.8325 15.3425 13.8369L15.1711 13.8836C15.1301 13.8948 15.0928 13.9165 15.0628 13.9465L15.0471 13.9621C15.0114 13.9979 14.9913 14.0464 14.9913 14.097V14.1089C14.9913 14.1812 15.0361 14.246 15.1039 14.2714C15.1515 14.2892 15.2046 14.2853 15.2491 14.2606L15.3054 14.2292C15.3606 14.1986 15.4052 14.152 15.4334 14.0956L15.4509 14.0605ZM17.6898 20.9299C17.6744 20.9207 17.6561 20.9177 17.6385 20.9216C17.5751 20.9357 17.5633 21.0209 17.6205 21.0517L17.7383 21.1151C17.7523 21.1227 17.768 21.1267 17.784 21.1267H17.8164C17.8386 21.1267 17.8582 21.1125 17.8652 21.0915C17.8722 21.0704 17.865 21.0473 17.8473 21.034L17.7831 20.9859L17.6898 20.9299ZM20.8173 10.3714C20.8275 10.3475 20.8451 10.3274 20.8674 10.314L20.9026 10.2929C20.9307 10.276 20.9666 10.2805 20.9897 10.3036C21.0191 10.333 21.0673 10.3311 21.0943 10.2996L21.1475 10.2375C21.1712 10.2099 21.1808 10.1731 21.1737 10.1375C21.1661 10.0993 21.1401 10.0674 21.1044 10.0521L21.0925 10.047C21.036 10.0227 20.9703 10.0385 20.931 10.0857L20.926 10.0917C20.8975 10.1259 20.853 10.1424 20.809 10.1351C20.7657 10.1279 20.7217 10.1438 20.6931 10.1772L20.6314 10.2493C20.6101 10.2741 20.5984 10.3056 20.5984 10.3383V10.3575C20.5984 10.4005 20.6241 10.4395 20.6637 10.4564C20.7184 10.4798 20.7817 10.4545 20.8051 10.3999L20.8173 10.3714ZM22.663 19.5354C22.663 19.4108 22.5739 19.3039 22.4512 19.2816C22.4206 19.2761 22.3914 19.2647 22.364 19.2501C22.2854 19.2079 22.1992 19.1745 22.118 19.1433C22.0595 19.1209 21.9974 19.109 21.9347 19.109C21.8582 19.109 21.7828 19.1268 21.7144 19.161L21.5969 19.2198C21.5575 19.2395 21.5233 19.2684 21.4974 19.3041L21.4571 19.3595C21.396 19.4434 21.2809 19.4669 21.1919 19.4134C21.1427 19.384 21.1085 19.3348 21.098 19.2785L21.0487 19.0158C21.0457 18.9998 21.0405 18.9843 21.0332 18.9698C21.0104 18.9241 20.9688 18.8907 20.9193 18.8784L20.7111 18.8263C20.654 18.812 20.5935 18.821 20.543 18.8513L20.534 18.8567C20.5146 18.8684 20.493 18.876 20.4706 18.8793L20.2999 18.9036C20.2452 18.9115 20.2197 18.9758 20.2543 19.019C20.2644 19.0317 20.2787 19.0406 20.2946 19.0441L20.4103 19.0698C20.4558 19.0799 20.4956 19.1072 20.5214 19.1459C20.5549 19.1961 20.6112 19.2263 20.6716 19.2263H20.9015C20.9167 19.2263 20.9301 19.236 20.9349 19.2504C20.9425 19.2732 20.9256 19.2967 20.9015 19.2967H20.8046C20.7924 19.2967 20.7802 19.2988 20.7687 19.303L20.6918 19.331C20.6253 19.3552 20.6158 19.4454 20.6758 19.4829C20.7007 19.4984 20.7157 19.5256 20.7157 19.5549V19.5778C20.7157 19.5935 20.7194 19.609 20.7264 19.623L20.7352 19.6405C20.7512 19.6727 20.7875 19.6893 20.8223 19.6806C20.844 19.6752 20.8623 19.6606 20.8723 19.6405L20.8775 19.63C20.9042 19.5768 20.9705 19.5575 21.0215 19.5881L21.2213 19.7079C21.2592 19.7307 21.3015 19.7453 21.3454 19.7508L21.3884 19.7562C21.4402 19.7626 21.4907 19.7768 21.5383 19.7982L21.7743 19.9044C21.8791 19.9516 21.9659 20.0313 22.0217 20.1318L22.0363 20.1581C22.0474 20.1781 22.0561 20.1994 22.0621 20.2214L22.0926 20.3332C22.1105 20.399 22.0795 20.4682 22.0186 20.4987L22.0093 20.5033C21.9919 20.512 21.9772 20.5254 21.9668 20.542C21.9226 20.6127 21.9735 20.7044 22.0568 20.7044H22.1328C22.1562 20.7044 22.1781 20.6926 22.1912 20.6731C22.2069 20.6494 22.2355 20.6376 22.2634 20.6432L22.4218 20.6749C22.4415 20.6788 22.4598 20.6879 22.4748 20.7013C22.5477 20.7661 22.663 20.7143 22.663 20.6167C22.663 20.2563 22.663 19.8959 22.663 19.5354ZM19.9467 19.3718C19.9276 19.3687 19.9084 19.3671 19.8891 19.3671H19.6873C19.657 19.3671 19.6301 19.3865 19.6205 19.4152C19.6053 19.4608 19.6392 19.5078 19.6873 19.5078H19.7446C19.7508 19.5078 19.7569 19.5073 19.763 19.5063L19.8048 19.4993C19.8644 19.4894 19.925 19.4882 19.9849 19.4957L20.0707 19.5064C20.0784 19.5074 20.0859 19.5094 20.0929 19.5126L20.1313 19.5296C20.1859 19.5539 20.2408 19.4964 20.2141 19.443C20.205 19.4248 20.1877 19.412 20.1676 19.4087L19.9467 19.3718ZM21.0741 20.0645C21.0698 20.0687 21.0663 20.0736 21.0636 20.079L21.0297 20.1469C21.0239 20.1585 21.0216 20.1717 21.0232 20.1846C21.0307 20.2443 21.1076 20.2637 21.1425 20.2148L21.1485 20.2065C21.1569 20.1946 21.1615 20.1804 21.1615 20.1658V20.0777C21.1615 20.0732 21.1608 20.0687 21.1594 20.0645C21.1496 20.0351 21.1123 20.0263 21.0904 20.0482L21.0741 20.0645ZM22.5711 7.96683C22.5249 7.98067 22.4866 8.01294 22.465 8.05602L22.4439 8.0982C22.4185 8.14903 22.409 8.20631 22.4165 8.26264L22.4308 8.36998C22.4446 8.4738 22.4326 8.57942 22.3958 8.67749L22.3637 8.76327C22.3292 8.85526 22.272 8.93702 22.1974 9.00095C22.093 9.09042 21.9886 9.17988 21.8843 9.26935C21.8464 9.30183 21.7905 9.30183 21.7526 9.26935C21.7026 9.22652 21.6257 9.24205 21.5962 9.30092L21.4806 9.53219C21.4318 9.62986 21.3198 9.67826 21.2152 9.64688C21.1799 9.63631 21.1426 9.63455 21.1066 9.64177L20.8773 9.68762C20.7567 9.71175 20.6459 9.77105 20.5589 9.85806C20.5228 9.89409 20.4825 9.92557 20.4388 9.95179L20.3504 10.0048C20.2976 10.0365 20.253 10.0803 20.2203 10.1326L20.1836 10.1912C20.1635 10.2234 20.1337 10.2484 20.0984 10.2625L20.0672 10.275C19.9869 10.3071 19.9515 10.4015 19.9902 10.4788C20.0042 10.5069 20.0271 10.5299 20.0552 10.544C20.113 10.5728 20.1447 10.6364 20.1332 10.6999L20.1171 10.7884C20.11 10.8274 20.1225 10.8675 20.1506 10.8956C20.1924 10.9374 20.2583 10.9429 20.3065 10.9085L20.3426 10.8827C20.3717 10.8619 20.3936 10.8326 20.4054 10.7989L20.5303 10.4421C20.5432 10.4054 20.5327 10.3646 20.5038 10.3386C20.4381 10.2794 20.4799 10.1704 20.5683 10.1704H20.5751C20.5904 10.1704 20.6056 10.1668 20.6194 10.1599L20.8367 10.0512C20.8654 10.0369 20.8961 10.0269 20.9277 10.0217L21.1572 9.98341C21.2332 9.97075 21.3023 10.0293 21.3023 10.1063C21.3023 10.1465 21.3217 10.1843 21.3544 10.2076L21.3643 10.2147C21.4233 10.2568 21.504 10.2501 21.5553 10.1989L21.6929 10.0613C21.7586 9.99558 21.8463 9.95638 21.9391 9.95122L22.0936 9.94264C22.1753 9.9381 22.2554 9.91816 22.3297 9.88387L22.4384 9.83371C22.4929 9.80856 22.538 9.76673 22.5671 9.71427L22.5983 9.65817C22.6241 9.61166 22.6253 9.55541 22.6015 9.50782C22.5809 9.46665 22.5789 9.41864 22.596 9.3759L22.6348 9.2789C22.6534 9.23238 22.663 9.18274 22.663 9.13264V9.08897C22.663 8.96819 22.6998 8.85029 22.7686 8.75099L22.7775 8.73814C22.8404 8.64721 22.8742 8.53925 22.8742 8.42866V8.40422C22.8742 8.36197 22.8673 8.31999 22.854 8.27991L22.787 8.0789C22.7571 7.98933 22.6615 7.9397 22.5711 7.96683ZM23.7063 7.12076C23.7017 7.0529 23.6217 7.01928 23.5701 7.06354C23.5462 7.08402 23.5127 7.08914 23.4838 7.07674L23.3849 7.03436C23.3729 7.0292 23.3613 7.02313 23.3502 7.01619L23.2096 6.92835C23.1894 6.91575 23.1716 6.89982 23.1567 6.88125L23.0647 6.76627C22.9952 6.6794 22.8565 6.70813 22.8272 6.81546L22.78 7.11467C22.7664 7.20084 22.696 7.26676 22.6091 7.27466C22.5409 7.28085 22.4813 7.32319 22.4529 7.38553L22.4107 7.47846C22.3915 7.52065 22.3832 7.56697 22.3865 7.6132L22.3946 7.72611C22.4004 7.80787 22.4684 7.87121 22.5504 7.87121C22.6176 7.87121 22.6773 7.82818 22.6986 7.76438L22.7068 7.73993C22.7449 7.6255 22.8779 7.57418 22.983 7.63332L22.9914 7.63804C23.0837 7.68993 23.2004 7.66093 23.2576 7.5719L23.3054 7.49762C23.3449 7.43609 23.406 7.39154 23.4767 7.3727L23.6193 7.33466C23.6771 7.31926 23.7159 7.26512 23.7119 7.20545L23.7063 7.12076ZM19.6561 18.8881C19.6702 18.881 19.6742 18.8628 19.6643 18.8505L19.6183 18.7929C19.6004 18.7706 19.5951 18.7407 19.6041 18.7136L19.6196 18.6671C19.6293 18.6381 19.659 18.6208 19.689 18.6268C19.7239 18.6338 19.7572 18.6094 19.7611 18.5741L19.775 18.4493C19.7765 18.4356 19.7756 18.4218 19.7723 18.4085L19.7704 18.4011C19.7604 18.3608 19.7274 18.3304 19.6865 18.3236L19.646 18.3168C19.6263 18.3135 19.6108 18.2978 19.6075 18.2781C19.6009 18.238 19.5492 18.2244 19.5248 18.2569C19.5211 18.2619 19.5185 18.2675 19.517 18.2735L19.4978 18.3501C19.4811 18.4171 19.4804 18.4872 19.496 18.5545L19.5362 18.7288C19.5405 18.7475 19.5481 18.7653 19.5588 18.7812L19.6244 18.8797C19.6313 18.8901 19.6449 18.8937 19.6561 18.8881ZM17.9004 15.6602C17.9409 15.7108 18.0213 15.6965 18.0418 15.635L18.0469 15.6195C18.0578 15.587 18.0493 15.5511 18.0251 15.5268L17.9964 15.4982C17.98 15.4818 17.9578 15.4726 17.9346 15.4726C17.8625 15.4726 17.8214 15.5548 17.8646 15.6125L17.9004 15.6602ZM19.1573 19.5347C19.1637 19.5475 19.1751 19.557 19.1889 19.5609L19.2976 19.592C19.319 19.5981 19.342 19.5938 19.3598 19.5805L19.3668 19.5752C19.3977 19.5521 19.4009 19.5069 19.3736 19.4795C19.3617 19.4676 19.3455 19.4609 19.3287 19.4609H19.2029C19.165 19.4609 19.1403 19.5008 19.1573 19.5347ZM18.448 16.106C18.4163 16.106 18.3893 16.1289 18.3841 16.1601L18.3761 16.2081C18.3719 16.2333 18.36 16.2565 18.342 16.2745L18.3062 16.3102C18.3016 16.3148 18.2975 16.3199 18.2938 16.3253C18.2693 16.3621 18.2722 16.4107 18.301 16.4443L18.3368 16.4861C18.3672 16.5215 18.4213 16.5236 18.4543 16.4906C18.4604 16.4845 18.4655 16.4775 18.4693 16.4697L18.5155 16.3773C18.5276 16.3532 18.5451 16.3322 18.5667 16.316L18.6083 16.2848C18.6207 16.2755 18.6286 16.2615 18.6301 16.2461L18.64 16.1471C18.643 16.1171 18.6042 16.1027 18.587 16.1274L18.5671 16.1558C18.5519 16.1774 18.5181 16.1613 18.5253 16.1359C18.5296 16.1209 18.5184 16.106 18.5028 16.106H18.448ZM18.2313 15.9356C18.2019 15.916 18.1649 15.946 18.178 15.9788C18.1806 15.9853 18.1812 15.9923 18.1799 15.9992L18.1598 16.0994C18.1589 16.1038 18.1585 16.1083 18.1585 16.1128C18.1585 16.1636 18.2119 16.1966 18.2574 16.1739L18.2906 16.1573C18.2964 16.1544 18.3018 16.1509 18.3068 16.1469L18.3928 16.0781C18.4078 16.0661 18.4166 16.0479 18.4166 16.0286C18.4166 15.9936 18.3882 15.9652 18.3532 15.9652H18.2903C18.2809 15.9652 18.2716 15.9624 18.2637 15.9572L18.2313 15.9356ZM19.7323 9.84411C19.8058 9.82778 19.869 9.78121 19.9063 9.71585C19.9294 9.67548 19.9415 9.62978 19.9415 9.58329V9.41338C19.9415 9.3552 19.9344 9.29725 19.9203 9.24081C19.9033 9.17271 19.8763 9.10751 19.8401 9.04732L19.7276 8.85982C19.6983 8.81091 19.6631 8.76579 19.6227 8.72547L19.5505 8.65319C19.5453 8.64804 19.5394 8.64376 19.5329 8.64051L19.4717 8.60993C19.4605 8.6043 19.458 8.58932 19.4669 8.58043C19.4704 8.57698 19.4723 8.57229 19.4723 8.56741V8.50465C19.4723 8.45959 19.4902 8.41637 19.5221 8.3845L19.53 8.37654C19.5537 8.35286 19.5831 8.3356 19.6153 8.3264L19.6483 8.31697C19.7021 8.30158 19.7512 8.27272 19.7908 8.23312L19.8242 8.19966L19.8539 8.17002C19.8653 8.15854 19.8782 8.14852 19.8921 8.14017C19.9519 8.1043 19.9885 8.0397 19.9885 7.96999V7.92482C19.9885 7.87439 20.0022 7.8249 20.0281 7.78166L20.0588 7.73044L20.1389 7.63035C20.1473 7.61986 20.161 7.61523 20.1741 7.61848L20.2006 7.62512C20.2187 7.62963 20.2337 7.6109 20.2254 7.59427C20.2239 7.59125 20.2231 7.58793 20.2231 7.58455C20.2231 7.55602 20.2231 7.51998 20.2231 7.48593C20.2231 7.45253 20.2501 7.42545 20.2835 7.42545C20.3155 7.42545 20.3419 7.40062 20.3439 7.36874L20.3608 7.09874C20.3628 7.06649 20.3598 7.03412 20.352 7.00277L20.3321 6.92325C20.3093 6.83199 20.3506 6.73678 20.4328 6.6911C20.4789 6.66549 20.5331 6.65835 20.5842 6.67115L20.5975 6.67445C20.7077 6.70201 20.8223 6.64931 20.8731 6.54768L20.9259 6.44199C20.9421 6.4096 20.9537 6.37511 20.9604 6.33952L21.0042 6.10618C21.015 6.04815 21.04 5.99368 21.0769 5.94757L21.0964 5.92322C21.1084 5.90817 21.1179 5.89122 21.1244 5.87307C21.1707 5.74326 21.0549 5.61368 20.9207 5.64525L20.8687 5.65749C20.8451 5.66304 20.8227 5.67276 20.8026 5.68619L20.7009 5.75399C20.6494 5.78832 20.5888 5.80664 20.5269 5.80664C20.3777 5.80664 20.2489 5.70132 20.2197 5.555C20.2066 5.48985 20.1732 5.43053 20.1242 5.38563L20.0135 5.28417C19.9508 5.22665 19.8753 5.18478 19.7933 5.16199C19.609 5.11079 19.4655 4.96585 19.4162 4.78101L19.4019 4.72744L19.3081 4.49283L19.2589 4.40679C19.2292 4.35477 19.2042 4.30018 19.1843 4.24368L19.1337 4.10048C19.0946 3.98967 19.0206 3.89453 18.9228 3.82935C18.8827 3.80257 18.8391 3.78127 18.7933 3.766L18.6804 3.72837C18.5678 3.69083 18.4499 3.6717 18.3312 3.6717H18.2944C18.2353 3.6717 18.1763 3.67841 18.1187 3.6917L17.951 3.73041C17.9179 3.73804 17.8877 3.75479 17.8637 3.77877L17.8121 3.83038C17.7601 3.88241 17.7672 3.96869 17.8271 4.01146C17.8584 4.03381 17.877 4.06989 17.877 4.10834V4.15761C17.877 4.22136 17.8487 4.28182 17.7997 4.32263L17.7779 4.34078C17.7504 4.36372 17.7276 4.39182 17.7108 4.42348L17.5501 4.72711C17.5336 4.75814 17.5251 4.79271 17.5251 4.82782C17.5251 4.89733 17.4915 4.96257 17.4349 5.00297L17.3713 5.04838C17.2638 5.12517 17.1227 5.13624 17.0045 5.07716C16.946 5.04791 16.8806 5.03531 16.8154 5.04074L16.7431 5.04676C16.6736 5.05255 16.6051 5.02746 16.5558 4.97816L16.5491 4.97147C16.5275 4.94985 16.5011 4.93355 16.4721 4.92388C16.4115 4.90368 16.3448 4.91412 16.2933 4.95191L16.1266 5.0742C16.0587 5.12399 15.981 5.15886 15.8987 5.1765L15.7487 5.20863C15.7131 5.21627 15.6783 5.22758 15.645 5.24238C15.5405 5.28884 15.4237 5.30005 15.3122 5.27433L15.2171 5.25239C15.1918 5.24654 15.1658 5.24358 15.1398 5.24358C15.0315 5.24358 14.9296 5.19261 14.8646 5.106L14.8555 5.0939C14.8366 5.06866 14.8146 5.04592 14.7899 5.02622L14.7006 4.95476C14.6295 4.89789 14.5458 4.85889 14.4566 4.84103C14.3912 4.82797 14.3241 4.82647 14.2583 4.8366L14.0528 4.86821L13.9738 4.89191C13.8739 4.92189 13.7663 4.91261 13.6729 4.86595L13.5972 4.82807C13.5296 4.79426 13.4818 4.73059 13.4683 4.65621C13.4526 4.56993 13.3911 4.49905 13.3079 4.47132L13.1613 4.42245L12.9935 4.38515C12.9648 4.37878 12.9375 4.36746 12.9127 4.35169C12.7921 4.27496 12.632 4.31351 12.5595 4.43669L12.5091 4.52234C12.4767 4.57744 12.4729 4.6448 12.4989 4.70321C12.5307 4.77497 12.5172 4.85879 12.4644 4.91689L12.43 4.95478C12.3604 5.0313 12.254 5.06262 12.1541 5.03598L12.006 4.99649C11.9786 4.98918 11.9506 4.98409 11.9224 4.98127L11.8372 4.97275C11.768 4.96583 11.7033 4.93519 11.6542 4.88603C11.5977 4.82955 11.5211 4.79782 11.4412 4.79782H11.3892C11.3359 4.79782 11.2834 4.78423 11.2368 4.75832C11.1488 4.70945 11.0428 4.70571 10.9516 4.74826L10.7935 4.82203C10.7611 4.83715 10.73 4.85489 10.7005 4.87507L10.3537 5.11234C10.3177 5.13702 10.277 5.15402 10.2342 5.16287C10.1848 5.17308 10.1354 5.18406 10.086 5.19756C10.0062 5.21937 9.91871 5.18667 9.88171 5.11268C9.85081 5.05088 9.78355 5.0161 9.71526 5.0266L9.62845 5.03996C9.56437 5.04982 9.4999 5.02468 9.4594 4.97405C9.44077 4.95077 9.41669 4.93244 9.38928 4.9207L9.36155 4.90881C9.30013 4.88249 9.24919 4.83651 9.21673 4.77809L9.18385 4.7189C9.16147 4.67861 9.12744 4.64603 9.08622 4.62542C9.03629 4.60045 8.97895 4.59461 8.92502 4.609L8.77139 4.64996C8.69841 4.66943 8.6206 4.65724 8.55706 4.61639L8.39768 4.51393C8.35954 4.48941 8.30871 4.5008 8.28468 4.53925C8.25173 4.59198 8.17419 4.58975 8.14433 4.53521L7.70002 3.72386C7.68107 3.68926 7.65729 3.65754 7.6294 3.62964L7.38012 3.38036C7.37234 3.37259 7.37166 3.36021 7.37853 3.35162C7.39378 3.33255 7.37061 3.3068 7.35004 3.31997L6.89603 3.61053C6.8814 3.61989 6.86477 3.62567 6.84749 3.6274L6.77432 3.63472C6.70474 3.64168 6.64645 3.58274 6.65417 3.51324C6.65925 3.46748 6.63528 3.42341 6.5941 3.40282L6.4458 3.32867C6.40449 3.30802 6.35652 3.30526 6.31312 3.32104C6.21428 3.35698 6.10707 3.29439 6.08978 3.19065L6.07794 3.11961C6.06265 3.02791 5.99323 2.95466 5.90247 2.9345L5.80388 2.91259C5.69397 2.88816 5.5789 2.91404 5.49003 2.98316L5.48563 2.98658C5.44185 3.02063 5.3913 3.04495 5.33737 3.05789L4.89946 3.16299C4.85548 3.17354 4.81437 3.19366 4.77905 3.22192C4.73732 3.2553 4.68761 3.27724 4.63482 3.28558L3.90225 3.40125C3.8521 3.40917 3.80723 3.43689 3.77773 3.47821L3.77438 3.48288C3.7331 3.54068 3.72957 3.61731 3.76536 3.67866L3.80241 3.74219C3.83842 3.80392 3.81116 3.88323 3.7448 3.90977L3.70351 3.92629C3.66632 3.94117 3.64823 3.98338 3.6631 4.02057C3.67497 4.05024 3.66602 4.08418 3.64107 4.10415L3.59978 4.13718C3.52444 4.19745 3.52864 4.31333 3.60814 4.36799L3.76922 4.47873C3.80269 4.50174 3.82022 4.54172 3.81448 4.58192C3.80654 4.63747 3.75702 4.67742 3.70105 4.67342L3.5235 4.66074C3.49187 4.65848 3.46166 4.67419 3.44534 4.70138C3.42124 4.74155 3.36897 4.75431 3.32908 4.72976L3.16326 4.62772C3.11965 4.60088 3.06946 4.58667 3.01825 4.58667H2.82227C2.75626 4.58667 2.69161 4.6055 2.63591 4.64094C2.5293 4.70878 2.39433 4.71319 2.28261 4.65415C2.12305 4.56982 1.95892 4.4855 1.80032 4.40117C1.71158 4.35399 1.61278 4.3286 1.51228 4.3286C1.36889 4.3286 1.23023 4.3799 1.12136 4.47321L0.833684 4.71979C0.81043 4.73972 0.795965 4.76801 0.793421 4.79854L0.789646 4.84384C0.783198 4.92121 0.690976 4.95777 0.633268 4.90584C0.586475 4.86372 0.512308 4.87868 0.485503 4.93565L0.372557 5.17566C0.360003 5.20233 0.365533 5.23402 0.386381 5.25487C0.407662 5.27615 0.412937 5.30866 0.399478 5.33558L0.349665 5.4352C0.308392 5.51775 0.32185 5.61715 0.383588 5.68574L0.444029 5.7529C0.474818 5.78711 0.518679 5.80664 0.564704 5.80664C0.621732 5.80664 0.674578 5.83656 0.703919 5.88547L0.767317 5.99113C0.786802 6.02361 0.794838 6.06167 0.790141 6.09925L0.784557 6.14392C0.778296 6.19401 0.806615 6.24201 0.85348 6.26076C0.877858 6.27051 0.904903 6.27131 0.929811 6.263L1.06807 6.21692C1.09092 6.2093 1.11319 6.20008 1.13473 6.18931L1.25155 6.1309C1.33536 6.08899 1.43352 6.08676 1.51915 6.12482L1.54554 6.13655C1.578 6.15097 1.61414 6.15665 1.64948 6.15312C1.75135 6.14293 1.84639 6.21033 1.8686 6.31027C1.87389 6.33406 1.87483 6.3586 1.87138 6.38273L1.85504 6.49712C1.84136 6.59291 1.74902 6.65678 1.65456 6.63579C1.63083 6.63051 1.60622 6.63051 1.58249 6.63579L1.50371 6.65329C1.44742 6.6658 1.40738 6.71572 1.40738 6.77338V6.79142C1.40738 6.85454 1.35288 6.90386 1.29007 6.89758L1.2514 6.89371C1.2093 6.8895 1.17277 6.92256 1.17277 6.96488C1.17277 6.98879 1.18472 7.01112 1.20461 7.02438L1.26107 7.06202C1.2952 7.08478 1.32144 7.11756 1.33616 7.15584L1.37559 7.25834C1.41087 7.35008 1.48217 7.42338 1.57291 7.46118L1.66698 7.50038C1.69601 7.51248 1.71895 7.53575 1.73063 7.56495L1.7394 7.58688C1.75147 7.61704 1.7444 7.65149 1.72142 7.67447C1.70125 7.69464 1.69314 7.72392 1.70006 7.75159L1.71237 7.80083L1.71694 7.81454C1.73212 7.86008 1.79868 7.85266 1.80346 7.8049C1.80515 7.78804 1.81626 7.7736 1.83212 7.76765L1.87816 7.75038C1.94208 7.72641 2.01333 7.7588 2.0373 7.82272L2.05393 7.86705C2.06077 7.88531 2.07086 7.90219 2.0837 7.91687L2.10899 7.94576C2.16833 8.01358 2.14499 8.11947 2.06265 8.15607C2.03343 8.16906 2.00052 8.17115 1.96989 8.16196L1.90404 8.1422C1.83936 8.1228 1.77218 8.16396 1.7601 8.2304L1.75139 8.27831C1.74329 8.32287 1.77752 8.36389 1.82281 8.36389C1.87235 8.36389 1.90734 8.41243 1.89167 8.45943L1.88021 8.49382C1.86467 8.54042 1.88577 8.59135 1.92971 8.61332L1.95886 8.6279C2.00842 8.65268 2.03804 8.705 2.03379 8.76025L2.01868 8.95676C2.0178 8.96815 2.01793 8.97959 2.01907 8.99095L2.02415 9.04175C2.03302 9.13044 2.11738 9.19147 2.2044 9.17213C2.2353 9.16526 2.26321 9.14871 2.28406 9.12489L2.34506 9.05517C2.39027 9.00351 2.45557 8.97387 2.52422 8.97387H2.53526C2.56496 8.97387 2.59425 8.96696 2.62082 8.95368C2.65562 8.93627 2.69491 8.9299 2.73343 8.9354L2.77832 8.94182C2.81811 8.9475 2.85657 8.96027 2.89186 8.97952L3.03464 9.0574C3.07556 9.07972 3.12031 9.09415 3.16656 9.09993C3.24312 9.1095 3.31481 9.14265 3.37168 9.19478L3.52446 9.33483C3.55104 9.35919 3.58579 9.37271 3.62185 9.37271C3.69639 9.37271 3.75864 9.42955 3.76539 9.50379L3.77326 9.5904C3.77569 9.61713 3.77362 9.64408 3.76709 9.67012C3.72713 9.82958 3.68598 9.98905 3.62926 10.1485C3.62007 10.1744 3.63133 10.2032 3.65587 10.2154C3.68339 10.2292 3.6937 10.2632 3.67844 10.29L3.6398 10.3576C3.6225 10.3879 3.61838 10.4239 3.6284 10.4573L3.67717 10.6199C3.68111 10.633 3.68394 10.6464 3.68564 10.66L3.69455 10.7313C3.70178 10.7892 3.74383 10.8366 3.80039 10.8507C3.85695 10.8649 3.899 10.9123 3.90624 10.9702L3.90867 10.9897C3.91444 11.0358 3.90104 11.0823 3.8716 11.1182L3.8114 11.1918C3.75054 11.2662 3.75102 11.3733 3.81255 11.4472C3.82007 11.4562 3.82679 11.4659 3.83261 11.4761L3.87491 11.5501C3.90281 11.5989 3.94454 11.6384 3.99484 11.6635L4.05217 11.6922C4.11354 11.7229 4.15231 11.7856 4.15231 11.8542V11.9067C4.15231 11.9491 4.17812 11.9872 4.21747 12.0029L4.22738 12.0069C4.25373 12.0174 4.27297 12.0406 4.27853 12.0684C4.28684 12.1099 4.26292 12.1512 4.22274 12.1645L4.01565 12.2336C3.9689 12.2492 3.93256 12.2864 3.91807 12.3335C3.88517 12.4404 3.97472 12.5452 4.08548 12.5294L4.1616 12.5185C4.17104 12.5172 4.18055 12.5165 4.19008 12.5165H4.55114L4.81536 12.4887C4.93019 12.4766 5.04434 12.517 5.12598 12.5986L5.13689 12.6095C5.16833 12.641 5.19267 12.6788 5.20828 12.7204C5.23811 12.8 5.29913 12.8639 5.37721 12.8973L5.3832 12.8999C5.40712 12.9101 5.42972 12.9232 5.45053 12.9388L5.68868 13.1174C5.69667 13.1234 5.70378 13.1305 5.70977 13.1385L5.72924 13.1645C5.75258 13.1956 5.74699 13.2396 5.71662 13.2639C5.68312 13.2907 5.68035 13.3407 5.71069 13.371L5.8937 13.554C5.93596 13.5963 5.99078 13.6237 6.04994 13.6322L6.05478 13.6329C6.09949 13.6392 6.1451 13.6338 6.18704 13.617L6.2697 13.5839C6.37644 13.5412 6.49575 13.6059 6.51829 13.7186C6.52067 13.7305 6.52187 13.7425 6.52187 13.7547V13.8661C6.52187 13.9825 6.53829 14.0981 6.56444 14.2115C6.59542 14.3459 6.62172 14.4837 6.64634 14.6188C6.67284 14.7642 6.72722 14.9031 6.80714 15.0274C6.86689 15.1203 6.91266 15.2215 6.94301 15.3278L6.94416 15.3318L6.98335 15.5016C7.00407 15.5914 7.03538 15.6784 7.0766 15.7609L7.10502 15.8177C7.12286 15.8534 7.14441 15.8871 7.16933 15.9182C7.20667 15.9649 7.23641 16.0172 7.25735 16.0732C7.30962 16.213 7.36189 16.3547 7.41416 16.5079C7.42922 16.5521 7.45403 16.5924 7.48704 16.6254L7.60805 16.7464C7.64443 16.7828 7.70203 16.7869 7.74319 16.756C7.75767 16.7452 7.76905 16.7307 7.77618 16.714L7.81663 16.6197C7.82875 16.5914 7.85237 16.5697 7.88155 16.5599L7.98352 16.5259C8.01261 16.5162 8.02132 16.4793 7.99964 16.4577C7.98606 16.4441 7.98365 16.4229 7.99383 16.4066L8.07158 16.2822C8.08537 16.2602 8.10956 16.2468 8.13558 16.2468C8.17726 16.2468 8.21105 16.213 8.21105 16.1713V15.9123C8.21105 15.8698 8.21917 15.8276 8.23497 15.7881L8.25183 15.746C8.28667 15.6589 8.29948 15.5645 8.28912 15.4713L8.28144 15.4022L8.24345 15.1362C8.23759 15.0952 8.24214 15.0534 8.25669 15.0146L8.26988 14.9794C8.29166 14.9213 8.34188 14.8786 8.4027 14.8665C8.41566 14.8639 8.4283 14.8599 8.44038 14.8545L8.63335 14.7687L8.69826 14.7298C8.73076 14.7103 8.75066 14.6752 8.75066 14.6372C8.75066 14.602 8.76784 14.569 8.79669 14.5488L8.98527 14.4168L9.09635 14.3196C9.14735 14.275 9.19493 14.2266 9.2387 14.1749L9.30672 14.0945C9.38861 13.9977 9.49052 13.9198 9.60541 13.8662L9.72653 13.8097C9.76368 13.7924 9.79654 13.767 9.82279 13.7356L9.86254 13.6879C9.88659 13.659 9.8976 13.6214 9.89294 13.5842C9.88391 13.5119 9.93347 13.4455 10.0053 13.4335L10.1428 13.4106C10.1531 13.4089 10.1636 13.408 10.1741 13.408H10.2801C10.3051 13.408 10.3268 13.391 10.3328 13.3668C10.3401 13.3377 10.3696 13.32 10.3987 13.3273L10.4398 13.3376L10.4871 13.3534C10.5004 13.3578 10.5149 13.3518 10.5211 13.3393C10.5281 13.3254 10.5449 13.3198 10.5588 13.3267L10.5806 13.3376C10.6065 13.3506 10.638 13.3401 10.651 13.3142L10.6862 13.2438C10.6938 13.2286 10.6961 13.2112 10.6928 13.1946C10.6833 13.1472 10.7195 13.103 10.7678 13.103H10.8212C10.8614 13.103 10.899 13.1231 10.9213 13.1566L10.9794 13.2438L11.0414 13.3676C11.0625 13.4099 11.0772 13.4552 11.085 13.5018C11.0928 13.5485 11.1075 13.5937 11.1287 13.636L11.1479 13.6744C11.1607 13.7001 11.1758 13.7245 11.193 13.7475L11.2848 13.8698C11.2996 13.8896 11.3215 13.9029 11.3459 13.907L11.3809 13.9128C11.4174 13.9189 11.441 13.9549 11.432 13.9908C11.4277 14.0081 11.4309 14.0265 11.4408 14.0413L11.5549 14.2125C11.5932 14.27 11.6199 14.3343 11.6334 14.402L11.6481 14.4754C11.6558 14.5141 11.6552 14.554 11.6463 14.5925L11.6201 14.706C11.6027 14.7815 11.6455 14.8578 11.719 14.8823C11.7265 14.8848 11.7341 14.8867 11.7418 14.888L11.7541 14.89C11.8294 14.9026 11.9066 14.8868 11.9709 14.8459L12.129 14.7453C12.2138 14.6847 12.3329 14.7171 12.3752 14.8124L12.3779 14.8184C12.384 14.8321 12.3883 14.8467 12.3906 14.8616L12.434 15.1441L12.4916 15.3744C12.5 15.4082 12.5157 15.4397 12.5374 15.4669C12.5764 15.5157 12.5951 15.5777 12.5894 15.64L12.5804 15.7391C12.5767 15.7796 12.5844 15.8203 12.6026 15.8566C12.6297 15.9109 12.6331 15.9741 12.6117 16.031L12.6002 16.0617C12.5835 16.1062 12.5779 16.1541 12.5838 16.2013L12.5874 16.2306C12.5946 16.2877 12.5897 16.3456 12.5732 16.4007L12.5503 16.4771C12.5354 16.5266 12.5279 16.578 12.5279 16.6298V16.7084C12.5279 16.7134 12.5287 16.7184 12.5303 16.7232L12.5427 16.7605C12.553 16.7913 12.5966 16.7913 12.6069 16.7605C12.6142 16.7386 12.6408 16.7304 12.6582 16.7455C12.7268 16.8049 12.783 16.8767 12.838 16.9497C12.8502 16.9659 12.8601 16.9836 12.8676 17.0023L12.8757 17.0225C12.8939 17.068 12.9211 17.1092 12.9557 17.1438L12.9717 17.1598C12.9885 17.1766 13.0025 17.196 13.0131 17.2173C13.0332 17.2575 13.0406 17.3029 13.0342 17.3474L13.0335 17.3529C13.0251 17.4111 13.0386 17.4703 13.0712 17.5192L13.0786 17.5303C13.1021 17.5656 13.1171 17.606 13.1224 17.6482L13.1247 17.6666C13.1333 17.7352 13.1618 17.7997 13.2068 17.8522L13.2485 17.9008C13.2683 17.9239 13.2817 17.9516 13.2877 17.9813C13.2969 18.0274 13.324 18.0679 13.3631 18.094L13.5836 18.241L13.7757 18.3754C13.803 18.3945 13.8366 18.4026 13.8696 18.3978L13.9265 18.3897C13.9586 18.3851 13.9825 18.3576 13.9825 18.3252C13.9825 18.316 13.9805 18.307 13.9768 18.2987L13.9074 18.1424C13.8951 18.1147 13.8759 18.0906 13.8517 18.0725C13.8151 18.0451 13.7906 18.0047 13.7831 17.9596L13.7741 17.9057C13.7722 17.8946 13.7695 17.8837 13.766 17.873C13.7541 17.8374 13.7517 17.7993 13.7591 17.7625L13.7621 17.7473C13.7682 17.7169 13.7691 17.6856 13.7647 17.6549L13.7612 17.6307C13.7524 17.5691 13.7299 17.5103 13.6954 17.4585L13.6825 17.4391C13.6635 17.4107 13.6418 17.3842 13.6176 17.36L13.5318 17.2741C13.5195 17.2619 13.5053 17.2516 13.4898 17.2439C13.4742 17.2361 13.46 17.2259 13.4478 17.2136L13.3995 17.1653C13.3666 17.1325 13.3244 17.1107 13.2786 17.1031C13.2328 17.0955 13.1906 17.0737 13.1578 17.0409L13.1345 17.0176C13.0907 16.9738 13.0603 16.9185 13.0469 16.8581L13.0272 16.7696C13.0228 16.7495 13.0164 16.73 13.008 16.7113L12.9553 16.5926C12.9379 16.5535 12.8991 16.5283 12.8564 16.5283C12.8025 16.5283 12.7568 16.4887 12.7492 16.4354L12.7444 16.4015C12.7409 16.3769 12.7436 16.3519 12.7523 16.3287C12.8143 16.1632 12.8764 15.9977 12.9385 15.8322C12.9462 15.8115 12.9512 15.7898 12.9532 15.7678L12.9651 15.6368C12.9699 15.5836 13.0145 15.5429 13.0679 15.5429H13.0902C13.1404 15.5429 13.1793 15.587 13.173 15.6368C13.1668 15.6866 13.2057 15.7306 13.2559 15.7306H13.3332C13.3589 15.7306 13.3843 15.7372 13.4068 15.7497L13.4654 15.7822C13.5422 15.8249 13.6032 15.8911 13.6396 15.9711L13.6863 16.0739C13.696 16.0952 13.7083 16.1153 13.723 16.1336L13.7269 16.1384C13.7704 16.1929 13.8335 16.2281 13.9026 16.2368L13.9201 16.239C13.9608 16.2441 13.999 16.261 14.0302 16.2877L14.0658 16.3182C14.1139 16.3595 14.1297 16.4272 14.1047 16.4854L14.0989 16.4991C14.0846 16.5323 14.0868 16.5702 14.1047 16.6015C14.1393 16.662 14.2194 16.6781 14.2747 16.6356L14.4519 16.4992C14.4674 16.4874 14.4816 16.474 14.4946 16.4595L14.545 16.4028C14.6231 16.315 14.7145 16.2401 14.816 16.1809L14.9044 16.1293C14.931 16.1138 14.956 16.0958 14.9791 16.0756C15.0769 15.99 15.1361 15.8686 15.1433 15.7389L15.1501 15.6175C15.1537 15.5524 15.149 15.4871 15.1363 15.4232L15.0864 15.174C15.0701 15.0923 15.0379 15.0146 14.9917 14.9453C14.9449 14.8752 14.8848 14.8151 14.8147 14.7683L14.8072 14.7633C14.7427 14.7203 14.6855 14.667 14.6414 14.6033C14.5526 14.4747 14.4705 14.3393 14.3818 14.2106C14.3383 14.1476 14.3233 14.0686 14.3443 13.9949C14.3532 13.9637 14.3683 13.9345 14.3886 13.9092L14.4664 13.8119C14.5189 13.7463 14.5806 13.6887 14.6496 13.6409L14.8224 13.5213C14.8411 13.5084 14.8611 13.4976 14.8822 13.4891L14.9082 13.4787C14.9471 13.4632 14.9896 13.4596 15.0305 13.4684L15.2196 13.5089C15.2584 13.5172 15.279 13.5599 15.2612 13.5954C15.2536 13.6106 15.2527 13.6281 15.2586 13.644L15.2915 13.7317C15.3079 13.7753 15.3529 13.8013 15.3989 13.7936C15.4364 13.7874 15.4669 13.7598 15.4769 13.7231L15.496 13.6533C15.5173 13.5751 15.5816 13.5161 15.6614 13.5016L15.7593 13.4838C15.779 13.4802 15.7984 13.475 15.8173 13.4682L16.0925 13.37C16.109 13.3641 16.1243 13.3553 16.1377 13.3441L16.2131 13.2813C16.2376 13.2609 16.2742 13.2652 16.2934 13.2907C16.3125 13.3162 16.3491 13.3205 16.3736 13.3001L16.4372 13.2471C16.4581 13.2297 16.4838 13.219 16.511 13.2165L16.6181 13.2068C16.69 13.2002 16.7598 13.1779 16.8206 13.139C16.9125 13.0803 17.0011 13.0188 17.0879 12.9576C17.283 12.82 17.4541 12.6503 17.5899 12.4541L17.5954 12.4461C17.7035 12.2516 17.8116 12.0571 17.938 11.8625C17.9587 11.8306 17.9921 11.8091 18.0297 11.8028C18.0801 11.7944 18.1217 11.7589 18.1378 11.7105L18.182 11.578L18.2044 11.4769C18.2192 11.4106 18.1916 11.342 18.1351 11.3044L18.1231 11.2964C18.1004 11.2813 18.0834 11.259 18.0748 11.2331L18.0703 11.2195C18.0536 11.1694 18.0762 11.1148 18.1234 11.0912C18.1593 11.0732 18.182 11.0365 18.182 10.9964V10.9261C18.182 10.8773 18.1657 10.8298 18.1357 10.7913L18.0491 10.6799C18.0282 10.6531 18.0096 10.6246 17.9933 10.5947L17.9055 10.4338C17.8865 10.399 17.8707 10.3626 17.8582 10.3251L17.8096 10.1794C17.7925 10.128 17.7582 10.0841 17.7125 10.055L17.6837 10.0368C17.5946 9.98003 17.5651 9.8637 17.6164 9.77136C17.6334 9.74074 17.6582 9.71514 17.6882 9.69712L17.8124 9.6226C17.855 9.59705 17.8919 9.563 17.9207 9.52258L17.9429 9.4916C17.9762 9.445 18.0243 9.41107 18.0793 9.39533L18.2291 9.35253C18.2808 9.33776 18.3108 9.28387 18.296 9.23217C18.284 9.19038 18.2458 9.16156 18.2024 9.16156H18.16C18.1285 9.16156 18.0977 9.15187 18.0719 9.1338L18.0242 9.10041C17.9371 9.03945 17.8201 9.04384 17.7379 9.11116L17.702 9.14049C17.6514 9.18186 17.5813 9.18968 17.5229 9.16046L17.4868 9.14245C17.4527 9.12541 17.4312 9.09056 17.4312 9.05244C17.4312 9.00627 17.3998 8.96602 17.355 8.95482L17.3022 8.94162C17.2642 8.93213 17.2307 8.90987 17.2072 8.87857L17.1752 8.83589C17.1328 8.77926 17.1348 8.70086 17.1801 8.64648C17.2057 8.61573 17.2424 8.59627 17.2822 8.59228L17.3332 8.58719C17.4106 8.57944 17.4812 8.53961 17.5279 8.47736L17.565 8.42799C17.5852 8.40099 17.6086 8.37655 17.6348 8.35518L17.8365 8.19014C17.8478 8.18087 17.86 8.17262 17.8728 8.16551L17.9715 8.11065C18.0246 8.08117 18.0913 8.09622 18.1266 8.14562C18.159 8.19096 18.1557 8.25267 18.1187 8.29431L18.037 8.38621C18.0108 8.41566 18.0035 8.45739 18.0182 8.49398L18.0318 8.52799C18.0376 8.54252 18.035 8.55907 18.0249 8.57109C17.9971 8.60451 18.0313 8.65327 18.0722 8.6384L18.1699 8.60289C18.1779 8.59999 18.1853 8.59566 18.1917 8.59013L18.269 8.52386C18.3199 8.48029 18.3795 8.44821 18.4439 8.42982L18.5786 8.39132C18.6389 8.37411 18.7037 8.38713 18.7526 8.42626L18.7542 8.42756C18.779 8.44735 18.8083 8.46047 18.8396 8.46567L18.9056 8.47668C18.9226 8.47952 18.9373 8.49032 18.945 8.50575C18.9521 8.51993 18.9526 8.53652 18.9463 8.5511L18.8939 8.67346C18.8888 8.68544 18.8892 8.69906 18.895 8.71071C18.9035 8.72776 18.9002 8.74836 18.8867 8.76183L18.8739 8.77461C18.8663 8.78222 18.8606 8.7915 18.8572 8.80172L18.8382 8.85867C18.8247 8.89898 18.8399 8.9433 18.8753 8.96687L18.8761 8.96743C18.8825 8.9717 18.8895 8.97511 18.8968 8.97755L18.941 8.99226C18.95 8.99529 18.9562 9.0038 18.9562 9.01338C18.9562 9.02857 18.9711 9.03929 18.9855 9.03449L19.0111 9.02594C19.021 9.02265 19.0292 9.01556 19.0338 9.00623C19.043 8.98794 19.0646 8.97971 19.0836 8.98731L19.1369 9.00862C19.1567 9.01654 19.1735 9.03047 19.1849 9.04844L19.2795 9.19707C19.3055 9.23789 19.2848 9.29221 19.2383 9.3055C19.1993 9.31664 19.1771 9.35762 19.189 9.39636L19.2418 9.56799C19.2545 9.60914 19.2563 9.65288 19.2469 9.69491L19.2199 9.8163C19.2162 9.83324 19.2155 9.85074 19.218 9.86792C19.229 9.94496 19.2991 9.99933 19.3765 9.99074L19.4087 9.98716C19.4351 9.98422 19.4606 9.97537 19.4831 9.96127L19.5853 9.89743C19.6192 9.87623 19.6565 9.86095 19.6956 9.85227L19.7323 9.84411ZM19.2998 20.6754C19.2747 20.6942 19.2442 20.7044 19.2129 20.7044H19.1375C19.1105 20.7044 19.0837 20.7073 19.0574 20.7131L18.9143 20.7449C18.8963 20.749 18.881 20.7609 18.8727 20.7774C18.866 20.7908 18.8546 20.8013 18.8407 20.8068L18.7332 20.8498C18.6645 20.8773 18.6057 20.925 18.5647 20.9866L18.5412 21.0218C18.5363 21.0291 18.5325 21.037 18.5297 21.0453L18.516 21.0865C18.5126 21.0967 18.5152 21.108 18.5228 21.1156C18.5297 21.1225 18.5396 21.1254 18.5491 21.1233L18.6661 21.0973C18.7174 21.0859 18.7637 21.0584 18.7983 21.0189L18.8348 20.9771C18.8836 20.9214 18.9464 20.88 19.0157 20.8542C19.1259 20.8132 19.2426 20.7657 19.3471 20.7305C19.3523 20.7287 19.3573 20.7261 19.3617 20.7228L19.3858 20.7048C19.411 20.6858 19.403 20.646 19.3723 20.6383C19.3614 20.6356 19.3498 20.6379 19.3407 20.6447L19.2998 20.6754Z"/>
</mask>
<path d="M17.9929 18.9351C17.9572 18.9886 17.8814 18.9961 17.8359 18.9506L17.7639 18.8787C17.7316 18.8464 17.7161 18.801 17.7217 18.7556C17.7302 18.6877 17.7842 18.6345 17.8522 18.6269L17.9474 18.6163L18.2592 18.598C18.317 18.5946 18.3749 18.5986 18.4316 18.61L18.505 18.6246C18.5549 18.6346 18.6064 18.6334 18.6558 18.621L18.6887 18.6128C18.7404 18.5999 18.7865 18.5703 18.8199 18.5286L18.9348 18.385C18.947 18.3698 18.9457 18.3478 18.932 18.334C18.9188 18.3209 18.8982 18.3191 18.883 18.3297L18.7387 18.4307C18.697 18.4599 18.6473 18.4756 18.5964 18.4756H18.3931L18.1286 18.4552C18.1017 18.4531 18.0753 18.4473 18.0501 18.4379C17.9571 18.403 17.8527 18.4189 17.7742 18.4799L17.7582 18.4923C17.7131 18.5274 17.6781 18.5739 17.6569 18.627L17.6424 18.6633L17.5449 18.9557C17.5317 18.9953 17.5225 19.036 17.5173 19.0773L17.5083 19.1491C17.5039 19.1846 17.4925 19.2188 17.4747 19.2499L17.4459 19.3003C17.4219 19.3424 17.419 19.3932 17.438 19.4377L17.4617 19.4929C17.4717 19.5162 17.4946 19.5313 17.52 19.5313C17.5502 19.5313 17.5762 19.5527 17.5822 19.5823L17.6074 19.7085C17.6149 19.7461 17.6125 19.7851 17.6004 19.8215L17.5718 19.9072C17.5579 19.9489 17.5722 19.9949 17.6074 20.0212C17.6297 20.038 17.6579 20.0448 17.6855 20.0403L17.6896 20.0396C17.7436 20.0306 17.7833 19.9839 17.7817 19.9292C17.7771 19.7686 17.763 19.6101 17.7602 19.464C17.7596 19.4337 17.7778 19.4062 17.8057 19.3943C17.8588 19.3715 17.9168 19.4141 17.9111 19.4716L17.906 19.523C17.9025 19.5576 17.9162 19.5917 17.9426 19.6144L18.0263 19.6861C18.0498 19.7063 18.0599 19.7381 18.0524 19.7681C18.0455 19.7958 18.0535 19.8252 18.0737 19.8454L18.0799 19.8515C18.0991 19.8708 18.1279 19.8767 18.1532 19.8666L18.1831 19.8546C18.2346 19.834 18.2825 19.8913 18.2531 19.9383C18.2389 19.961 18.2423 19.9905 18.2612 20.0094L18.2762 20.0244C18.3036 20.0517 18.346 20.057 18.3791 20.0371L18.3907 20.0301C18.4213 20.0118 18.44 19.9787 18.44 19.943V19.8947C18.44 19.8567 18.4284 19.8196 18.4068 19.7883L18.2523 19.5652C18.2382 19.5447 18.2379 19.5177 18.2517 19.4971C18.2661 19.4755 18.2652 19.4471 18.2493 19.4265L18.1559 19.305C18.0975 19.2291 18.1255 19.1184 18.2131 19.0795C18.2387 19.0681 18.2606 19.0497 18.2762 19.0264L18.3246 18.9537C18.3376 18.9343 18.3613 18.9251 18.3839 18.9307L18.391 18.9325C18.4177 18.9392 18.4445 18.9222 18.4499 18.8953C18.4565 18.8624 18.4283 18.833 18.3952 18.8383L18.0619 18.8909C18.0338 18.8953 18.0087 18.9114 17.9929 18.9351ZM18.0919 20.7154C18.0437 20.7235 17.9942 20.716 17.9504 20.6942L17.9363 20.6871C17.8979 20.6679 17.8541 20.6625 17.8122 20.6718L17.7083 20.6949C17.6835 20.7004 17.6658 20.7225 17.6658 20.7479C17.6658 20.7763 17.6877 20.7999 17.716 20.8021L17.9313 20.8186C17.9575 20.8206 17.9839 20.819 18.0097 20.8139L18.2863 20.7586C18.3082 20.7542 18.3252 20.7367 18.3288 20.7147C18.3361 20.6713 18.2911 20.6381 18.2517 20.6577L18.1719 20.6977C18.163 20.7021 18.1535 20.7052 18.1438 20.7068L18.0919 20.7154ZM17.9651 13.1603C17.9689 13.1534 17.9721 13.1462 17.9746 13.1387L18.1116 12.7276L18.1399 12.6286C18.1509 12.5901 18.1347 12.5491 18.1004 12.5285C18.0656 12.5077 18.0211 12.5131 17.9924 12.5418L17.8858 12.6484C17.8644 12.6698 17.8466 12.6945 17.8331 12.7216L17.7643 12.8591C17.7307 12.9263 17.7177 13.0021 17.7271 13.0767L17.7333 13.1266C17.7352 13.142 17.7401 13.1569 17.7476 13.1704C17.7938 13.2535 17.9133 13.2535 17.9594 13.1704L17.9651 13.1603ZM19.0103 15.8321C19.0055 15.8116 18.9966 15.7923 18.984 15.7755L18.9609 15.7447C18.9431 15.7211 18.9153 15.7072 18.8858 15.7072C18.8085 15.7072 18.7643 15.7955 18.8107 15.8573L18.8265 15.8783C18.8345 15.8891 18.8389 15.9021 18.8389 15.9155V15.9294C18.8389 15.9604 18.811 15.9841 18.7804 15.979C18.7431 15.9727 18.7125 16.0085 18.7245 16.0444L18.7354 16.0772C18.7415 16.0953 18.7557 16.1096 18.7739 16.1156C18.7987 16.1239 18.8154 16.1471 18.8154 16.1733V16.2166C18.8154 16.2535 18.8527 16.2788 18.887 16.2651C18.9127 16.2548 18.9259 16.2263 18.9171 16.2001L18.888 16.1128C18.8866 16.1083 18.8858 16.1036 18.8858 16.0989C18.8858 16.0683 18.9164 16.0471 18.945 16.0578L18.9677 16.0663C19.013 16.0833 19.059 16.0431 19.0481 15.9959L19.0103 15.8321ZM17.6736 14.9683C17.6685 14.9911 17.6705 15.015 17.6792 15.0367L17.7077 15.108C17.711 15.1164 17.7157 15.1242 17.7215 15.1311L17.7941 15.2182C17.809 15.2362 17.838 15.2295 17.8437 15.2069C17.8485 15.1877 17.8708 15.1791 17.8872 15.19L17.8914 15.1928C17.9082 15.204 17.9105 15.2278 17.8962 15.2421L17.8665 15.2718C17.858 15.2804 17.852 15.291 17.849 15.3027L17.8479 15.3075C17.8377 15.3483 17.8592 15.3904 17.8982 15.406L17.9167 15.4134C17.9367 15.4214 17.9586 15.4231 17.9796 15.4185L18.0958 15.3926C18.1349 15.384 18.1756 15.3958 18.2039 15.4241L18.2601 15.4803C18.2808 15.501 18.3149 15.4986 18.3325 15.4752C18.3513 15.4501 18.3888 15.4495 18.4084 15.474L18.4526 15.5293C18.4598 15.5383 18.4685 15.5461 18.4783 15.5522L18.5961 15.6258C18.6227 15.6425 18.6578 15.6274 18.6639 15.5966L18.6676 15.578C18.6713 15.5599 18.6574 15.5429 18.6389 15.5429C18.6208 15.5429 18.607 15.5267 18.61 15.5088L18.6185 15.4574C18.6239 15.4248 18.6069 15.3926 18.5769 15.3787L18.372 15.2841C18.3408 15.2698 18.3049 15.2703 18.2742 15.2857C18.2454 15.3001 18.2118 15.3015 18.1818 15.2895L18.1697 15.2847C18.1327 15.2699 18.1036 15.2401 18.0896 15.2028L18.0686 15.1469C18.0508 15.0992 18.0478 15.0473 18.0601 14.998L18.068 14.9664C18.0808 14.9154 18.1152 14.8725 18.1622 14.849C18.2049 14.8276 18.2374 14.7902 18.2525 14.7449L18.2709 14.6897C18.2892 14.6346 18.2881 14.5748 18.2677 14.5204L18.2478 14.4672C18.2357 14.4351 18.2376 14.3994 18.2529 14.3687L18.269 14.3365C18.2734 14.3278 18.2741 14.3178 18.271 14.3086C18.2624 14.2829 18.2298 14.2752 18.2106 14.2944L18.2037 14.3013C18.1907 14.3142 18.1709 14.3174 18.1545 14.3093L18.0715 14.2678C18.0516 14.2578 18.0296 14.2526 18.0073 14.2526C17.9439 14.2526 17.888 14.2942 17.8697 14.3549L17.8364 14.4661C17.8322 14.4801 17.8296 14.4946 17.8287 14.5091L17.8106 14.7988C17.8089 14.8262 17.7774 14.8407 17.7555 14.8242C17.7355 14.8092 17.7066 14.8199 17.7012 14.8443L17.6736 14.9683ZM17.4494 20.7029C17.4388 20.6763 17.4111 20.6608 17.3829 20.6655L17.3251 20.6751C17.303 20.6788 17.2803 20.6733 17.2623 20.6598L17.2592 20.6574C17.2246 20.6315 17.1756 20.6385 17.1497 20.6731C17.1349 20.6928 17.1117 20.7044 17.0871 20.7044H17.029C17.0023 20.7044 16.9779 20.7194 16.966 20.7433L16.965 20.7453C16.942 20.7912 16.9754 20.8451 17.0267 20.8451C17.0305 20.8451 17.0343 20.8448 17.038 20.8442C17.1545 20.8248 17.2713 20.8053 17.4016 20.7859C17.4405 20.7801 17.464 20.7395 17.4494 20.7029ZM14.3372 19.7617C14.3353 19.7334 14.3376 19.7049 14.344 19.6773L14.3815 19.5146C14.3962 19.4512 14.3803 19.3847 14.3386 19.3347L14.3365 19.3322C14.3049 19.2942 14.2604 19.2694 14.2115 19.2624C14.1553 19.2544 14.1052 19.2228 14.0737 19.1756L14.0456 19.1334C14.0349 19.1172 14.0267 19.0995 14.0213 19.0808L14.0008 19.0092C13.99 18.9711 13.9551 18.9448 13.9155 18.9448C13.898 18.9448 13.8808 18.9396 13.8662 18.9299L13.8338 18.9083C13.7847 18.8755 13.7677 18.8113 13.7941 18.7585C13.8211 18.7045 13.8026 18.6388 13.7514 18.6068L13.6984 18.5737C13.6693 18.5555 13.6459 18.5298 13.6306 18.4992L13.5985 18.4349C13.5732 18.3843 13.5383 18.3391 13.4957 18.3018L13.4536 18.265C13.4013 18.2192 13.3342 18.194 13.2647 18.194C13.1839 18.194 13.1069 18.1599 13.0525 18.1002L12.9543 17.9921C12.9204 17.9548 12.882 17.9218 12.8401 17.8938L12.7625 17.8421L12.5748 17.6779L12.4432 17.5317C12.3918 17.4746 12.322 17.437 12.2458 17.4272C12.1462 17.4144 12.0423 17.4034 11.9433 17.3987C11.8938 17.3964 11.8566 17.4417 11.8663 17.4903C11.8693 17.5055 11.8768 17.5195 11.8878 17.5305L12.0876 17.7303C12.1152 17.7579 12.1447 17.7835 12.176 17.8069L12.2263 17.8447C12.2859 17.8894 12.3354 17.9462 12.3716 18.0113L12.3752 18.0178C12.4139 18.0874 12.4686 18.1467 12.5348 18.1908C12.6071 18.239 12.6656 18.3053 12.7045 18.3831L12.7192 18.4125C12.7324 18.4389 12.7437 18.4661 12.753 18.4941L12.754 18.4971C12.7903 18.606 12.8545 18.7034 12.9403 18.7796C12.9934 18.8268 13.0385 18.8824 13.0738 18.9442L13.2082 19.1794L13.2503 19.2467C13.3003 19.3267 13.3592 19.4008 13.4259 19.4675L13.476 19.5175C13.5008 19.5423 13.523 19.5694 13.5425 19.5986C13.585 19.6625 13.6409 19.7164 13.7063 19.7566L13.8621 19.8525C13.8953 19.8729 13.926 19.8971 13.9535 19.9247L14.0488 20.0199C14.0814 20.0526 14.1257 20.0709 14.1718 20.0709C14.2725 20.0709 14.3521 19.9858 14.3455 19.8853L14.3372 19.7617ZM18.5747 16.7099C18.5369 16.6721 18.4783 16.6649 18.4325 16.6924L18.3931 16.716L18.3339 16.7456C18.2812 16.772 18.2393 16.8158 18.2153 16.8697L18.1698 16.9722C18.1628 16.988 18.1643 17.0062 18.1739 17.0206C18.1907 17.0457 18.2256 17.0506 18.2486 17.0309L18.3318 16.9596C18.3562 16.9387 18.3873 16.9271 18.4195 16.9271H18.4492C18.473 16.9271 18.4954 16.9159 18.5096 16.8969C18.5356 16.8623 18.5852 16.8565 18.6184 16.8842L18.635 16.898C18.6713 16.9283 18.6802 16.9805 18.6558 17.0211L18.654 17.0241C18.6375 17.0516 18.6352 17.0854 18.6479 17.1149L18.6687 17.1636C18.6877 17.2078 18.7217 17.2439 18.7648 17.2655L18.9008 17.3335C18.9453 17.3557 18.9994 17.34 19.025 17.2973C19.0407 17.2711 19.0429 17.239 19.0308 17.2109L18.9998 17.1384C18.9876 17.11 18.994 17.077 19.0158 17.0552L19.0331 17.0379C19.0633 17.0077 19.1146 17.0182 19.1305 17.0578C19.151 17.1093 19.2246 17.1072 19.2422 17.0546L19.2556 17.0143C19.2592 17.0033 19.2603 16.9915 19.2587 16.98C19.2379 16.8348 19.2172 16.6897 19.1965 16.5445C19.1929 16.5194 19.1783 16.4971 19.1568 16.4836L19.1073 16.4527C19.0656 16.4266 19.0122 16.4606 19.0183 16.5095C19.0227 16.5444 18.9955 16.5752 18.9603 16.5752H18.9238C18.8867 16.5752 18.8533 16.5978 18.8395 16.6323L18.8339 16.6462C18.8221 16.6757 18.7985 16.6989 18.7687 16.71L18.6979 16.7366C18.6552 16.7526 18.607 16.7422 18.5747 16.7099ZM16.1176 20.512C16.0579 20.5001 16.0062 20.4628 15.976 20.4099C15.9465 20.3584 15.8967 20.3216 15.8387 20.3088L15.5631 20.2475C15.5304 20.2402 15.4969 20.2562 15.4819 20.2862C15.4689 20.3122 15.4417 20.328 15.4127 20.3265L15.0624 20.308C15.0324 20.3064 15.0049 20.2908 14.9882 20.2658C14.9751 20.2461 14.9551 20.232 14.9321 20.2262L14.8947 20.2169C14.8809 20.2134 14.8676 20.2085 14.8548 20.2021L14.7497 20.1495C14.7078 20.1286 14.6623 20.1158 14.6156 20.1119L14.4773 20.1004C14.4324 20.0967 14.3888 20.1171 14.363 20.154L14.3326 20.1974C14.2911 20.2567 14.3283 20.3387 14.4002 20.3467C14.4323 20.3503 14.4604 20.3699 14.4748 20.3988L14.4767 20.4025C14.4905 20.4302 14.5161 20.4502 14.5464 20.4569L14.8693 20.5287C14.9032 20.5362 14.9384 20.5357 14.9722 20.5273C15.0003 20.5203 15.0295 20.5188 15.0582 20.5229L15.1272 20.5327C15.1616 20.5377 15.1956 20.5457 15.2286 20.5567L15.4605 20.634L15.6716 20.6809L15.9062 20.7044H16.0252C16.0862 20.7044 16.1467 20.715 16.2041 20.7359L16.3403 20.7854C16.3631 20.7937 16.388 20.794 16.411 20.7864C16.5018 20.7561 16.5106 20.6312 16.425 20.5884L16.3903 20.571C16.3804 20.5661 16.37 20.5625 16.3592 20.5603L16.1176 20.512ZM17.434 16.3461C17.4477 16.3269 17.4637 16.3094 17.4817 16.294L17.5916 16.1998C17.6083 16.1855 17.6155 16.1629 17.6102 16.1415C17.5971 16.089 17.5257 16.0812 17.5016 16.1295L17.4598 16.2131C17.4564 16.2199 17.4522 16.2262 17.4472 16.232L17.361 16.3326C17.3297 16.3692 17.2955 16.4033 17.259 16.4346L17.1542 16.5244C17.1512 16.527 17.1486 16.53 17.1465 16.5333C17.1236 16.57 17.1688 16.611 17.2031 16.5847L17.3294 16.4875C17.3347 16.4834 17.3393 16.4786 17.3432 16.4732L17.434 16.3461ZM8.43137 16.5177C8.42528 16.5091 8.41818 16.5014 8.41023 16.4946C8.33878 16.4333 8.22795 16.4662 8.20139 16.5565L8.15484 16.7147C8.1455 16.7465 8.14293 16.7799 8.14731 16.8127L8.18074 17.0634C8.18526 17.0973 8.19696 17.1298 8.21507 17.1588L8.21706 17.162C8.2697 17.2462 8.36972 17.2881 8.46669 17.2666L8.47541 17.2646C8.50219 17.2587 8.5274 17.2471 8.54935 17.2306C8.58827 17.2014 8.61473 17.1586 8.62343 17.1107L8.63599 17.0417C8.64955 16.9671 8.64001 16.8902 8.60864 16.8212L8.56729 16.7302C8.54881 16.6895 8.52644 16.6508 8.50048 16.6144L8.43137 16.5177ZM17.1028 18.7322C17.1028 18.7022 17.1089 18.6725 17.1207 18.6449L17.1514 18.5733C17.1648 18.542 17.1943 18.5207 17.2282 18.5179C17.3106 18.511 17.3428 18.4075 17.2788 18.3551L17.2529 18.3339C17.2194 18.3065 17.2075 18.2605 17.2236 18.2203C17.236 18.1893 17.232 18.1541 17.2128 18.1266L17.171 18.0669C17.1157 17.988 17.1145 17.8832 17.168 17.8029L17.1969 17.7595C17.212 17.7369 17.2334 17.7191 17.2584 17.7084L17.3339 17.676C17.3619 17.664 17.3753 17.6318 17.3639 17.6035C17.3504 17.5697 17.3721 17.5322 17.4082 17.527L17.4599 17.5196C17.4851 17.516 17.5056 17.4975 17.5118 17.4728C17.5194 17.4425 17.5034 17.4112 17.4743 17.3995C17.3919 17.3666 17.3096 17.3336 17.2272 17.3007C17.1946 17.2876 17.1731 17.256 17.1731 17.2208C17.1731 17.198 17.1641 17.1761 17.148 17.16L17.0842 17.0963C17.066 17.0781 17.0414 17.0679 17.0157 17.0679C16.9823 17.0679 16.9512 17.0851 16.9335 17.1134L16.8762 17.2052C16.8554 17.2385 16.8281 17.2672 16.796 17.2897L16.6101 17.4198L16.5094 17.487C16.4359 17.5359 16.3675 17.592 16.3051 17.6544L16.1878 17.7952L16.1559 17.8317C16.0703 17.9294 15.9535 17.9946 15.8254 18.0159L15.7669 18.0257C15.7504 18.0284 15.7344 18.0336 15.7195 18.0411C15.6744 18.0636 15.6418 18.1053 15.6309 18.1546L15.6278 18.1686C15.6115 18.2417 15.5554 18.2993 15.4827 18.3175L15.4681 18.3212C15.4327 18.33 15.3954 18.327 15.3619 18.3127C15.2949 18.284 15.2171 18.3021 15.1696 18.3574L15.1485 18.382C15.1224 18.4125 15.1056 18.4497 15.0999 18.4894L15.0922 18.543C15.0875 18.5761 15.087 18.6097 15.0907 18.6429L15.0971 18.7011C15.1047 18.769 15.1257 18.8348 15.1589 18.8945L15.202 18.9721C15.2176 19.0003 15.2404 19.0239 15.2681 19.0405C15.3156 19.069 15.3477 19.1174 15.3556 19.1722L15.3673 19.2547C15.3808 19.3487 15.4555 19.4222 15.5498 19.434C15.5684 19.4363 15.5872 19.4361 15.6057 19.4335L15.6751 19.4236C15.7166 19.4176 15.7581 19.4341 15.7843 19.4668C15.8153 19.5056 15.8671 19.5209 15.9142 19.5052L16.0272 19.4675C16.0845 19.4484 16.1472 19.4553 16.1989 19.4864C16.2225 19.5005 16.2488 19.5099 16.276 19.5137L16.3412 19.5231C16.3779 19.5283 16.4107 19.5489 16.4313 19.5798C16.4667 19.633 16.5355 19.6526 16.5937 19.6262L16.73 19.5642C16.7408 19.5593 16.7535 19.5654 16.7564 19.577C16.7612 19.5961 16.7883 19.5963 16.7933 19.5773L16.8651 19.3082C16.8671 19.3006 16.8681 19.2927 16.8681 19.2848V19.2053C16.8681 19.1155 16.9119 19.0314 16.9855 18.98C17.059 18.9285 17.1028 18.8444 17.1028 18.7547V18.7322ZM15.4509 14.0605C15.4573 14.0478 15.465 14.0359 15.4738 14.0248L15.521 13.9658C15.5413 13.9404 15.545 13.9055 15.5305 13.8764C15.5163 13.8481 15.4875 13.8303 15.4559 13.8303H15.3917C15.3751 13.8303 15.3585 13.8325 15.3425 13.8369L15.1711 13.8836C15.1301 13.8948 15.0928 13.9165 15.0628 13.9465L15.0471 13.9621C15.0114 13.9979 14.9913 14.0464 14.9913 14.097V14.1089C14.9913 14.1812 15.0361 14.246 15.1039 14.2714C15.1515 14.2892 15.2046 14.2853 15.2491 14.2606L15.3054 14.2292C15.3606 14.1986 15.4052 14.152 15.4334 14.0956L15.4509 14.0605ZM17.6898 20.9299C17.6744 20.9207 17.6561 20.9177 17.6385 20.9216C17.5751 20.9357 17.5633 21.0209 17.6205 21.0517L17.7383 21.1151C17.7523 21.1227 17.768 21.1267 17.784 21.1267H17.8164C17.8386 21.1267 17.8582 21.1125 17.8652 21.0915C17.8722 21.0704 17.865 21.0473 17.8473 21.034L17.7831 20.9859L17.6898 20.9299ZM20.8173 10.3714C20.8275 10.3475 20.8451 10.3274 20.8674 10.314L20.9026 10.2929C20.9307 10.276 20.9666 10.2805 20.9897 10.3036C21.0191 10.333 21.0673 10.3311 21.0943 10.2996L21.1475 10.2375C21.1712 10.2099 21.1808 10.1731 21.1737 10.1375C21.1661 10.0993 21.1401 10.0674 21.1044 10.0521L21.0925 10.047C21.036 10.0227 20.9703 10.0385 20.931 10.0857L20.926 10.0917C20.8975 10.1259 20.853 10.1424 20.809 10.1351C20.7657 10.1279 20.7217 10.1438 20.6931 10.1772L20.6314 10.2493C20.6101 10.2741 20.5984 10.3056 20.5984 10.3383V10.3575C20.5984 10.4005 20.6241 10.4395 20.6637 10.4564C20.7184 10.4798 20.7817 10.4545 20.8051 10.3999L20.8173 10.3714ZM22.663 19.5354C22.663 19.4108 22.5739 19.3039 22.4512 19.2816C22.4206 19.2761 22.3914 19.2647 22.364 19.2501C22.2854 19.2079 22.1992 19.1745 22.118 19.1433C22.0595 19.1209 21.9974 19.109 21.9347 19.109C21.8582 19.109 21.7828 19.1268 21.7144 19.161L21.5969 19.2198C21.5575 19.2395 21.5233 19.2684 21.4974 19.3041L21.4571 19.3595C21.396 19.4434 21.2809 19.4669 21.1919 19.4134C21.1427 19.384 21.1085 19.3348 21.098 19.2785L21.0487 19.0158C21.0457 18.9998 21.0405 18.9843 21.0332 18.9698C21.0104 18.9241 20.9688 18.8907 20.9193 18.8784L20.7111 18.8263C20.654 18.812 20.5935 18.821 20.543 18.8513L20.534 18.8567C20.5146 18.8684 20.493 18.876 20.4706 18.8793L20.2999 18.9036C20.2452 18.9115 20.2197 18.9758 20.2543 19.019C20.2644 19.0317 20.2787 19.0406 20.2946 19.0441L20.4103 19.0698C20.4558 19.0799 20.4956 19.1072 20.5214 19.1459C20.5549 19.1961 20.6112 19.2263 20.6716 19.2263H20.9015C20.9167 19.2263 20.9301 19.236 20.9349 19.2504C20.9425 19.2732 20.9256 19.2967 20.9015 19.2967H20.8046C20.7924 19.2967 20.7802 19.2988 20.7687 19.303L20.6918 19.331C20.6253 19.3552 20.6158 19.4454 20.6758 19.4829C20.7007 19.4984 20.7157 19.5256 20.7157 19.5549V19.5778C20.7157 19.5935 20.7194 19.609 20.7264 19.623L20.7352 19.6405C20.7512 19.6727 20.7875 19.6893 20.8223 19.6806C20.844 19.6752 20.8623 19.6606 20.8723 19.6405L20.8775 19.63C20.9042 19.5768 20.9705 19.5575 21.0215 19.5881L21.2213 19.7079C21.2592 19.7307 21.3015 19.7453 21.3454 19.7508L21.3884 19.7562C21.4402 19.7626 21.4907 19.7768 21.5383 19.7982L21.7743 19.9044C21.8791 19.9516 21.9659 20.0313 22.0217 20.1318L22.0363 20.1581C22.0474 20.1781 22.0561 20.1994 22.0621 20.2214L22.0926 20.3332C22.1105 20.399 22.0795 20.4682 22.0186 20.4987L22.0093 20.5033C21.9919 20.512 21.9772 20.5254 21.9668 20.542C21.9226 20.6127 21.9735 20.7044 22.0568 20.7044H22.1328C22.1562 20.7044 22.1781 20.6926 22.1912 20.6731C22.2069 20.6494 22.2355 20.6376 22.2634 20.6432L22.4218 20.6749C22.4415 20.6788 22.4598 20.6879 22.4748 20.7013C22.5477 20.7661 22.663 20.7143 22.663 20.6167C22.663 20.2563 22.663 19.8959 22.663 19.5354ZM19.9467 19.3718C19.9276 19.3687 19.9084 19.3671 19.8891 19.3671H19.6873C19.657 19.3671 19.6301 19.3865 19.6205 19.4152C19.6053 19.4608 19.6392 19.5078 19.6873 19.5078H19.7446C19.7508 19.5078 19.7569 19.5073 19.763 19.5063L19.8048 19.4993C19.8644 19.4894 19.925 19.4882 19.9849 19.4957L20.0707 19.5064C20.0784 19.5074 20.0859 19.5094 20.0929 19.5126L20.1313 19.5296C20.1859 19.5539 20.2408 19.4964 20.2141 19.443C20.205 19.4248 20.1877 19.412 20.1676 19.4087L19.9467 19.3718ZM21.0741 20.0645C21.0698 20.0687 21.0663 20.0736 21.0636 20.079L21.0297 20.1469C21.0239 20.1585 21.0216 20.1717 21.0232 20.1846C21.0307 20.2443 21.1076 20.2637 21.1425 20.2148L21.1485 20.2065C21.1569 20.1946 21.1615 20.1804 21.1615 20.1658V20.0777C21.1615 20.0732 21.1608 20.0687 21.1594 20.0645C21.1496 20.0351 21.1123 20.0263 21.0904 20.0482L21.0741 20.0645ZM22.5711 7.96683C22.5249 7.98067 22.4866 8.01294 22.465 8.05602L22.4439 8.0982C22.4185 8.14903 22.409 8.20631 22.4165 8.26264L22.4308 8.36998C22.4446 8.4738 22.4326 8.57942 22.3958 8.67749L22.3637 8.76327C22.3292 8.85526 22.272 8.93702 22.1974 9.00095C22.093 9.09042 21.9886 9.17988 21.8843 9.26935C21.8464 9.30183 21.7905 9.30183 21.7526 9.26935C21.7026 9.22652 21.6257 9.24205 21.5962 9.30092L21.4806 9.53219C21.4318 9.62986 21.3198 9.67826 21.2152 9.64688C21.1799 9.63631 21.1426 9.63455 21.1066 9.64177L20.8773 9.68762C20.7567 9.71175 20.6459 9.77105 20.5589 9.85806C20.5228 9.89409 20.4825 9.92557 20.4388 9.95179L20.3504 10.0048C20.2976 10.0365 20.253 10.0803 20.2203 10.1326L20.1836 10.1912C20.1635 10.2234 20.1337 10.2484 20.0984 10.2625L20.0672 10.275C19.9869 10.3071 19.9515 10.4015 19.9902 10.4788C20.0042 10.5069 20.0271 10.5299 20.0552 10.544C20.113 10.5728 20.1447 10.6364 20.1332 10.6999L20.1171 10.7884C20.11 10.8274 20.1225 10.8675 20.1506 10.8956C20.1924 10.9374 20.2583 10.9429 20.3065 10.9085L20.3426 10.8827C20.3717 10.8619 20.3936 10.8326 20.4054 10.7989L20.5303 10.4421C20.5432 10.4054 20.5327 10.3646 20.5038 10.3386C20.4381 10.2794 20.4799 10.1704 20.5683 10.1704H20.5751C20.5904 10.1704 20.6056 10.1668 20.6194 10.1599L20.8367 10.0512C20.8654 10.0369 20.8961 10.0269 20.9277 10.0217L21.1572 9.98341C21.2332 9.97075 21.3023 10.0293 21.3023 10.1063C21.3023 10.1465 21.3217 10.1843 21.3544 10.2076L21.3643 10.2147C21.4233 10.2568 21.504 10.2501 21.5553 10.1989L21.6929 10.0613C21.7586 9.99558 21.8463 9.95638 21.9391 9.95122L22.0936 9.94264C22.1753 9.9381 22.2554 9.91816 22.3297 9.88387L22.4384 9.83371C22.4929 9.80856 22.538 9.76673 22.5671 9.71427L22.5983 9.65817C22.6241 9.61166 22.6253 9.55541 22.6015 9.50782C22.5809 9.46665 22.5789 9.41864 22.596 9.3759L22.6348 9.2789C22.6534 9.23238 22.663 9.18274 22.663 9.13264V9.08897C22.663 8.96819 22.6998 8.85029 22.7686 8.75099L22.7775 8.73814C22.8404 8.64721 22.8742 8.53925 22.8742 8.42866V8.40422C22.8742 8.36197 22.8673 8.31999 22.854 8.27991L22.787 8.0789C22.7571 7.98933 22.6615 7.9397 22.5711 7.96683ZM23.7063 7.12076C23.7017 7.0529 23.6217 7.01928 23.5701 7.06354C23.5462 7.08402 23.5127 7.08914 23.4838 7.07674L23.3849 7.03436C23.3729 7.0292 23.3613 7.02313 23.3502 7.01619L23.2096 6.92835C23.1894 6.91575 23.1716 6.89982 23.1567 6.88125L23.0647 6.76627C22.9952 6.6794 22.8565 6.70813 22.8272 6.81546L22.78 7.11467C22.7664 7.20084 22.696 7.26676 22.6091 7.27466C22.5409 7.28085 22.4813 7.32319 22.4529 7.38553L22.4107 7.47846C22.3915 7.52065 22.3832 7.56697 22.3865 7.6132L22.3946 7.72611C22.4004 7.80787 22.4684 7.87121 22.5504 7.87121C22.6176 7.87121 22.6773 7.82818 22.6986 7.76438L22.7068 7.73993C22.7449 7.6255 22.8779 7.57418 22.983 7.63332L22.9914 7.63804C23.0837 7.68993 23.2004 7.66093 23.2576 7.5719L23.3054 7.49762C23.3449 7.43609 23.406 7.39154 23.4767 7.3727L23.6193 7.33466C23.6771 7.31926 23.7159 7.26512 23.7119 7.20545L23.7063 7.12076ZM19.6561 18.8881C19.6702 18.881 19.6742 18.8628 19.6643 18.8505L19.6183 18.7929C19.6004 18.7706 19.5951 18.7407 19.6041 18.7136L19.6196 18.6671C19.6293 18.6381 19.659 18.6208 19.689 18.6268C19.7239 18.6338 19.7572 18.6094 19.7611 18.5741L19.775 18.4493C19.7765 18.4356 19.7756 18.4218 19.7723 18.4085L19.7704 18.4011C19.7604 18.3608 19.7274 18.3304 19.6865 18.3236L19.646 18.3168C19.6263 18.3135 19.6108 18.2978 19.6075 18.2781C19.6009 18.238 19.5492 18.2244 19.5248 18.2569C19.5211 18.2619 19.5185 18.2675 19.517 18.2735L19.4978 18.3501C19.4811 18.4171 19.4804 18.4872 19.496 18.5545L19.5362 18.7288C19.5405 18.7475 19.5481 18.7653 19.5588 18.7812L19.6244 18.8797C19.6313 18.8901 19.6449 18.8937 19.6561 18.8881ZM17.9004 15.6602C17.9409 15.7108 18.0213 15.6965 18.0418 15.635L18.0469 15.6195C18.0578 15.587 18.0493 15.5511 18.0251 15.5268L17.9964 15.4982C17.98 15.4818 17.9578 15.4726 17.9346 15.4726C17.8625 15.4726 17.8214 15.5548 17.8646 15.6125L17.9004 15.6602ZM19.1573 19.5347C19.1637 19.5475 19.1751 19.557 19.1889 19.5609L19.2976 19.592C19.319 19.5981 19.342 19.5938 19.3598 19.5805L19.3668 19.5752C19.3977 19.5521 19.4009 19.5069 19.3736 19.4795C19.3617 19.4676 19.3455 19.4609 19.3287 19.4609H19.2029C19.165 19.4609 19.1403 19.5008 19.1573 19.5347ZM18.448 16.106C18.4163 16.106 18.3893 16.1289 18.3841 16.1601L18.3761 16.2081C18.3719 16.2333 18.36 16.2565 18.342 16.2745L18.3062 16.3102C18.3016 16.3148 18.2975 16.3199 18.2938 16.3253C18.2693 16.3621 18.2722 16.4107 18.301 16.4443L18.3368 16.4861C18.3672 16.5215 18.4213 16.5236 18.4543 16.4906C18.4604 16.4845 18.4655 16.4775 18.4693 16.4697L18.5155 16.3773C18.5276 16.3532 18.5451 16.3322 18.5667 16.316L18.6083 16.2848C18.6207 16.2755 18.6286 16.2615 18.6301 16.2461L18.64 16.1471C18.643 16.1171 18.6042 16.1027 18.587 16.1274L18.5671 16.1558C18.5519 16.1774 18.5181 16.1613 18.5253 16.1359C18.5296 16.1209 18.5184 16.106 18.5028 16.106H18.448ZM18.2313 15.9356C18.2019 15.916 18.1649 15.946 18.178 15.9788C18.1806 15.9853 18.1812 15.9923 18.1799 15.9992L18.1598 16.0994C18.1589 16.1038 18.1585 16.1083 18.1585 16.1128C18.1585 16.1636 18.2119 16.1966 18.2574 16.1739L18.2906 16.1573C18.2964 16.1544 18.3018 16.1509 18.3068 16.1469L18.3928 16.0781C18.4078 16.0661 18.4166 16.0479 18.4166 16.0286C18.4166 15.9936 18.3882 15.9652 18.3532 15.9652H18.2903C18.2809 15.9652 18.2716 15.9624 18.2637 15.9572L18.2313 15.9356ZM19.7323 9.84411C19.8058 9.82778 19.869 9.78121 19.9063 9.71585C19.9294 9.67548 19.9415 9.62978 19.9415 9.58329V9.41338C19.9415 9.3552 19.9344 9.29725 19.9203 9.24081C19.9033 9.17271 19.8763 9.10751 19.8401 9.04732L19.7276 8.85982C19.6983 8.81091 19.6631 8.76579 19.6227 8.72547L19.5505 8.65319C19.5453 8.64804 19.5394 8.64376 19.5329 8.64051L19.4717 8.60993C19.4605 8.6043 19.458 8.58932 19.4669 8.58043C19.4704 8.57698 19.4723 8.57229 19.4723 8.56741V8.50465C19.4723 8.45959 19.4902 8.41637 19.5221 8.3845L19.53 8.37654C19.5537 8.35286 19.5831 8.3356 19.6153 8.3264L19.6483 8.31697C19.7021 8.30158 19.7512 8.27272 19.7908 8.23312L19.8242 8.19966L19.8539 8.17002C19.8653 8.15854 19.8782 8.14852 19.8921 8.14017C19.9519 8.1043 19.9885 8.0397 19.9885 7.96999V7.92482C19.9885 7.87439 20.0022 7.8249 20.0281 7.78166L20.0588 7.73044L20.1389 7.63035C20.1473 7.61986 20.161 7.61523 20.1741 7.61848L20.2006 7.62512C20.2187 7.62963 20.2337 7.6109 20.2254 7.59427C20.2239 7.59125 20.2231 7.58793 20.2231 7.58455C20.2231 7.55602 20.2231 7.51998 20.2231 7.48593C20.2231 7.45253 20.2501 7.42545 20.2835 7.42545C20.3155 7.42545 20.3419 7.40062 20.3439 7.36874L20.3608 7.09874C20.3628 7.06649 20.3598 7.03412 20.352 7.00277L20.3321 6.92325C20.3093 6.83199 20.3506 6.73678 20.4328 6.6911C20.4789 6.66549 20.5331 6.65835 20.5842 6.67115L20.5975 6.67445C20.7077 6.70201 20.8223 6.64931 20.8731 6.54768L20.9259 6.44199C20.9421 6.4096 20.9537 6.37511 20.9604 6.33952L21.0042 6.10618C21.015 6.04815 21.04 5.99368 21.0769 5.94757L21.0964 5.92322C21.1084 5.90817 21.1179 5.89122 21.1244 5.87307C21.1707 5.74326 21.0549 5.61368 20.9207 5.64525L20.8687 5.65749C20.8451 5.66304 20.8227 5.67276 20.8026 5.68619L20.7009 5.75399C20.6494 5.78832 20.5888 5.80664 20.5269 5.80664C20.3777 5.80664 20.2489 5.70132 20.2197 5.555C20.2066 5.48985 20.1732 5.43053 20.1242 5.38563L20.0135 5.28417C19.9508 5.22665 19.8753 5.18478 19.7933 5.16199C19.609 5.11079 19.4655 4.96585 19.4162 4.78101L19.4019 4.72744L19.3081 4.49283L19.2589 4.40679C19.2292 4.35477 19.2042 4.30018 19.1843 4.24368L19.1337 4.10048C19.0946 3.98967 19.0206 3.89453 18.9228 3.82935C18.8827 3.80257 18.8391 3.78127 18.7933 3.766L18.6804 3.72837C18.5678 3.69083 18.4499 3.6717 18.3312 3.6717H18.2944C18.2353 3.6717 18.1763 3.67841 18.1187 3.6917L17.951 3.73041C17.9179 3.73804 17.8877 3.75479 17.8637 3.77877L17.8121 3.83038C17.7601 3.88241 17.7672 3.96869 17.8271 4.01146C17.8584 4.03381 17.877 4.06989 17.877 4.10834V4.15761C17.877 4.22136 17.8487 4.28182 17.7997 4.32263L17.7779 4.34078C17.7504 4.36372 17.7276 4.39182 17.7108 4.42348L17.5501 4.72711C17.5336 4.75814 17.5251 4.79271 17.5251 4.82782C17.5251 4.89733 17.4915 4.96257 17.4349 5.00297L17.3713 5.04838C17.2638 5.12517 17.1227 5.13624 17.0045 5.07716C16.946 5.04791 16.8806 5.03531 16.8154 5.04074L16.7431 5.04676C16.6736 5.05255 16.6051 5.02746 16.5558 4.97816L16.5491 4.97147C16.5275 4.94985 16.5011 4.93355 16.4721 4.92388C16.4115 4.90368 16.3448 4.91412 16.2933 4.95191L16.1266 5.0742C16.0587 5.12399 15.981 5.15886 15.8987 5.1765L15.7487 5.20863C15.7131 5.21627 15.6783 5.22758 15.645 5.24238C15.5405 5.28884 15.4237 5.30005 15.3122 5.27433L15.2171 5.25239C15.1918 5.24654 15.1658 5.24358 15.1398 5.24358C15.0315 5.24358 14.9296 5.19261 14.8646 5.106L14.8555 5.0939C14.8366 5.06866 14.8146 5.04592 14.7899 5.02622L14.7006 4.95476C14.6295 4.89789 14.5458 4.85889 14.4566 4.84103C14.3912 4.82797 14.3241 4.82647 14.2583 4.8366L14.0528 4.86821L13.9738 4.89191C13.8739 4.92189 13.7663 4.91261 13.6729 4.86595L13.5972 4.82807C13.5296 4.79426 13.4818 4.73059 13.4683 4.65621C13.4526 4.56993 13.3911 4.49905 13.3079 4.47132L13.1613 4.42245L12.9935 4.38515C12.9648 4.37878 12.9375 4.36746 12.9127 4.35169C12.7921 4.27496 12.632 4.31351 12.5595 4.43669L12.5091 4.52234C12.4767 4.57744 12.4729 4.6448 12.4989 4.70321C12.5307 4.77497 12.5172 4.85879 12.4644 4.91689L12.43 4.95478C12.3604 5.0313 12.254 5.06262 12.1541 5.03598L12.006 4.99649C11.9786 4.98918 11.9506 4.98409 11.9224 4.98127L11.8372 4.97275C11.768 4.96583 11.7033 4.93519 11.6542 4.88603C11.5977 4.82955 11.5211 4.79782 11.4412 4.79782H11.3892C11.3359 4.79782 11.2834 4.78423 11.2368 4.75832C11.1488 4.70945 11.0428 4.70571 10.9516 4.74826L10.7935 4.82203C10.7611 4.83715 10.73 4.85489 10.7005 4.87507L10.3537 5.11234C10.3177 5.13702 10.277 5.15402 10.2342 5.16287C10.1848 5.17308 10.1354 5.18406 10.086 5.19756C10.0062 5.21937 9.91871 5.18667 9.88171 5.11268C9.85081 5.05088 9.78355 5.0161 9.71526 5.0266L9.62845 5.03996C9.56437 5.04982 9.4999 5.02468 9.4594 4.97405C9.44077 4.95077 9.41669 4.93244 9.38928 4.9207L9.36155 4.90881C9.30013 4.88249 9.24919 4.83651 9.21673 4.77809L9.18385 4.7189C9.16147 4.67861 9.12744 4.64603 9.08622 4.62542C9.03629 4.60045 8.97895 4.59461 8.92502 4.609L8.77139 4.64996C8.69841 4.66943 8.6206 4.65724 8.55706 4.61639L8.39768 4.51393C8.35954 4.48941 8.30871 4.5008 8.28468 4.53925C8.25173 4.59198 8.17419 4.58975 8.14433 4.53521L7.70002 3.72386C7.68107 3.68926 7.65729 3.65754 7.6294 3.62964L7.38012 3.38036C7.37234 3.37259 7.37166 3.36021 7.37853 3.35162C7.39378 3.33255 7.37061 3.3068 7.35004 3.31997L6.89603 3.61053C6.8814 3.61989 6.86477 3.62567 6.84749 3.6274L6.77432 3.63472C6.70474 3.64168 6.64645 3.58274 6.65417 3.51324C6.65925 3.46748 6.63528 3.42341 6.5941 3.40282L6.4458 3.32867C6.40449 3.30802 6.35652 3.30526 6.31312 3.32104C6.21428 3.35698 6.10707 3.29439 6.08978 3.19065L6.07794 3.11961C6.06265 3.02791 5.99323 2.95466 5.90247 2.9345L5.80388 2.91259C5.69397 2.88816 5.5789 2.91404 5.49003 2.98316L5.48563 2.98658C5.44185 3.02063 5.3913 3.04495 5.33737 3.05789L4.89946 3.16299C4.85548 3.17354 4.81437 3.19366 4.77905 3.22192C4.73732 3.2553 4.68761 3.27724 4.63482 3.28558L3.90225 3.40125C3.8521 3.40917 3.80723 3.43689 3.77773 3.47821L3.77438 3.48288C3.7331 3.54068 3.72957 3.61731 3.76536 3.67866L3.80241 3.74219C3.83842 3.80392 3.81116 3.88323 3.7448 3.90977L3.70351 3.92629C3.66632 3.94117 3.64823 3.98338 3.6631 4.02057C3.67497 4.05024 3.66602 4.08418 3.64107 4.10415L3.59978 4.13718C3.52444 4.19745 3.52864 4.31333 3.60814 4.36799L3.76922 4.47873C3.80269 4.50174 3.82022 4.54172 3.81448 4.58192C3.80654 4.63747 3.75702 4.67742 3.70105 4.67342L3.5235 4.66074C3.49187 4.65848 3.46166 4.67419 3.44534 4.70138C3.42124 4.74155 3.36897 4.75431 3.32908 4.72976L3.16326 4.62772C3.11965 4.60088 3.06946 4.58667 3.01825 4.58667H2.82227C2.75626 4.58667 2.69161 4.6055 2.63591 4.64094C2.5293 4.70878 2.39433 4.71319 2.28261 4.65415C2.12305 4.56982 1.95892 4.4855 1.80032 4.40117C1.71158 4.35399 1.61278 4.3286 1.51228 4.3286C1.36889 4.3286 1.23023 4.3799 1.12136 4.47321L0.833684 4.71979C0.81043 4.73972 0.795965 4.76801 0.793421 4.79854L0.789646 4.84384C0.783198 4.92121 0.690976 4.95777 0.633268 4.90584C0.586475 4.86372 0.512308 4.87868 0.485503 4.93565L0.372557 5.17566C0.360003 5.20233 0.365533 5.23402 0.386381 5.25487C0.407662 5.27615 0.412937 5.30866 0.399478 5.33558L0.349665 5.4352C0.308392 5.51775 0.32185 5.61715 0.383588 5.68574L0.444029 5.7529C0.474818 5.78711 0.518679 5.80664 0.564704 5.80664C0.621732 5.80664 0.674578 5.83656 0.703919 5.88547L0.767317 5.99113C0.786802 6.02361 0.794838 6.06167 0.790141 6.09925L0.784557 6.14392C0.778296 6.19401 0.806615 6.24201 0.85348 6.26076C0.877858 6.27051 0.904903 6.27131 0.929811 6.263L1.06807 6.21692C1.09092 6.2093 1.11319 6.20008 1.13473 6.18931L1.25155 6.1309C1.33536 6.08899 1.43352 6.08676 1.51915 6.12482L1.54554 6.13655C1.578 6.15097 1.61414 6.15665 1.64948 6.15312C1.75135 6.14293 1.84639 6.21033 1.8686 6.31027C1.87389 6.33406 1.87483 6.3586 1.87138 6.38273L1.85504 6.49712C1.84136 6.59291 1.74902 6.65678 1.65456 6.63579C1.63083 6.63051 1.60622 6.63051 1.58249 6.63579L1.50371 6.65329C1.44742 6.6658 1.40738 6.71572 1.40738 6.77338V6.79142C1.40738 6.85454 1.35288 6.90386 1.29007 6.89758L1.2514 6.89371C1.2093 6.8895 1.17277 6.92256 1.17277 6.96488C1.17277 6.98879 1.18472 7.01112 1.20461 7.02438L1.26107 7.06202C1.2952 7.08478 1.32144 7.11756 1.33616 7.15584L1.37559 7.25834C1.41087 7.35008 1.48217 7.42338 1.57291 7.46118L1.66698 7.50038C1.69601 7.51248 1.71895 7.53575 1.73063 7.56495L1.7394 7.58688C1.75147 7.61704 1.7444 7.65149 1.72142 7.67447C1.70125 7.69464 1.69314 7.72392 1.70006 7.75159L1.71237 7.80083L1.71694 7.81454C1.73212 7.86008 1.79868 7.85266 1.80346 7.8049C1.80515 7.78804 1.81626 7.7736 1.83212 7.76765L1.87816 7.75038C1.94208 7.72641 2.01333 7.7588 2.0373 7.82272L2.05393 7.86705C2.06077 7.88531 2.07086 7.90219 2.0837 7.91687L2.10899 7.94576C2.16833 8.01358 2.14499 8.11947 2.06265 8.15607C2.03343 8.16906 2.00052 8.17115 1.96989 8.16196L1.90404 8.1422C1.83936 8.1228 1.77218 8.16396 1.7601 8.2304L1.75139 8.27831C1.74329 8.32287 1.77752 8.36389 1.82281 8.36389C1.87235 8.36389 1.90734 8.41243 1.89167 8.45943L1.88021 8.49382C1.86467 8.54042 1.88577 8.59135 1.92971 8.61332L1.95886 8.6279C2.00842 8.65268 2.03804 8.705 2.03379 8.76025L2.01868 8.95676C2.0178 8.96815 2.01793 8.97959 2.01907 8.99095L2.02415 9.04175C2.03302 9.13044 2.11738 9.19147 2.2044 9.17213C2.2353 9.16526 2.26321 9.14871 2.28406 9.12489L2.34506 9.05517C2.39027 9.00351 2.45557 8.97387 2.52422 8.97387H2.53526C2.56496 8.97387 2.59425 8.96696 2.62082 8.95368C2.65562 8.93627 2.69491 8.9299 2.73343 8.9354L2.77832 8.94182C2.81811 8.9475 2.85657 8.96027 2.89186 8.97952L3.03464 9.0574C3.07556 9.07972 3.12031 9.09415 3.16656 9.09993C3.24312 9.1095 3.31481 9.14265 3.37168 9.19478L3.52446 9.33483C3.55104 9.35919 3.58579 9.37271 3.62185 9.37271C3.69639 9.37271 3.75864 9.42955 3.76539 9.50379L3.77326 9.5904C3.77569 9.61713 3.77362 9.64408 3.76709 9.67012C3.72713 9.82958 3.68598 9.98905 3.62926 10.1485C3.62007 10.1744 3.63133 10.2032 3.65587 10.2154C3.68339 10.2292 3.6937 10.2632 3.67844 10.29L3.6398 10.3576C3.6225 10.3879 3.61838 10.4239 3.6284 10.4573L3.67717 10.6199C3.68111 10.633 3.68394 10.6464 3.68564 10.66L3.69455 10.7313C3.70178 10.7892 3.74383 10.8366 3.80039 10.8507C3.85695 10.8649 3.899 10.9123 3.90624 10.9702L3.90867 10.9897C3.91444 11.0358 3.90104 11.0823 3.8716 11.1182L3.8114 11.1918C3.75054 11.2662 3.75102 11.3733 3.81255 11.4472C3.82007 11.4562 3.82679 11.4659 3.83261 11.4761L3.87491 11.5501C3.90281 11.5989 3.94454 11.6384 3.99484 11.6635L4.05217 11.6922C4.11354 11.7229 4.15231 11.7856 4.15231 11.8542V11.9067C4.15231 11.9491 4.17812 11.9872 4.21747 12.0029L4.22738 12.0069C4.25373 12.0174 4.27297 12.0406 4.27853 12.0684C4.28684 12.1099 4.26292 12.1512 4.22274 12.1645L4.01565 12.2336C3.9689 12.2492 3.93256 12.2864 3.91807 12.3335C3.88517 12.4404 3.97472 12.5452 4.08548 12.5294L4.1616 12.5185C4.17104 12.5172 4.18055 12.5165 4.19008 12.5165H4.55114L4.81536 12.4887C4.93019 12.4766 5.04434 12.517 5.12598 12.5986L5.13689 12.6095C5.16833 12.641 5.19267 12.6788 5.20828 12.7204C5.23811 12.8 5.29913 12.8639 5.37721 12.8973L5.3832 12.8999C5.40712 12.9101 5.42972 12.9232 5.45053 12.9388L5.68868 13.1174C5.69667 13.1234 5.70378 13.1305 5.70977 13.1385L5.72924 13.1645C5.75258 13.1956 5.74699 13.2396 5.71662 13.2639C5.68312 13.2907 5.68035 13.3407 5.71069 13.371L5.8937 13.554C5.93596 13.5963 5.99078 13.6237 6.04994 13.6322L6.05478 13.6329C6.09949 13.6392 6.1451 13.6338 6.18704 13.617L6.2697 13.5839C6.37644 13.5412 6.49575 13.6059 6.51829 13.7186C6.52067 13.7305 6.52187 13.7425 6.52187 13.7547V13.8661C6.52187 13.9825 6.53829 14.0981 6.56444 14.2115C6.59542 14.3459 6.62172 14.4837 6.64634 14.6188C6.67284 14.7642 6.72722 14.9031 6.80714 15.0274C6.86689 15.1203 6.91266 15.2215 6.94301 15.3278L6.94416 15.3318L6.98335 15.5016C7.00407 15.5914 7.03538 15.6784 7.0766 15.7609L7.10502 15.8177C7.12286 15.8534 7.14441 15.8871 7.16933 15.9182C7.20667 15.9649 7.23641 16.0172 7.25735 16.0732C7.30962 16.213 7.36189 16.3547 7.41416 16.5079C7.42922 16.5521 7.45403 16.5924 7.48704 16.6254L7.60805 16.7464C7.64443 16.7828 7.70203 16.7869 7.74319 16.756C7.75767 16.7452 7.76905 16.7307 7.77618 16.714L7.81663 16.6197C7.82875 16.5914 7.85237 16.5697 7.88155 16.5599L7.98352 16.5259C8.01261 16.5162 8.02132 16.4793 7.99964 16.4577C7.98606 16.4441 7.98365 16.4229 7.99383 16.4066L8.07158 16.2822C8.08537 16.2602 8.10956 16.2468 8.13558 16.2468C8.17726 16.2468 8.21105 16.213 8.21105 16.1713V15.9123C8.21105 15.8698 8.21917 15.8276 8.23497 15.7881L8.25183 15.746C8.28667 15.6589 8.29948 15.5645 8.28912 15.4713L8.28144 15.4022L8.24345 15.1362C8.23759 15.0952 8.24214 15.0534 8.25669 15.0146L8.26988 14.9794C8.29166 14.9213 8.34188 14.8786 8.4027 14.8665C8.41566 14.8639 8.4283 14.8599 8.44038 14.8545L8.63335 14.7687L8.69826 14.7298C8.73076 14.7103 8.75066 14.6752 8.75066 14.6372C8.75066 14.602 8.76784 14.569 8.79669 14.5488L8.98527 14.4168L9.09635 14.3196C9.14735 14.275 9.19493 14.2266 9.2387 14.1749L9.30672 14.0945C9.38861 13.9977 9.49052 13.9198 9.60541 13.8662L9.72653 13.8097C9.76368 13.7924 9.79654 13.767 9.82279 13.7356L9.86254 13.6879C9.88659 13.659 9.8976 13.6214 9.89294 13.5842C9.88391 13.5119 9.93347 13.4455 10.0053 13.4335L10.1428 13.4106C10.1531 13.4089 10.1636 13.408 10.1741 13.408H10.2801C10.3051 13.408 10.3268 13.391 10.3328 13.3668C10.3401 13.3377 10.3696 13.32 10.3987 13.3273L10.4398 13.3376L10.4871 13.3534C10.5004 13.3578 10.5149 13.3518 10.5211 13.3393C10.5281 13.3254 10.5449 13.3198 10.5588 13.3267L10.5806 13.3376C10.6065 13.3506 10.638 13.3401 10.651 13.3142L10.6862 13.2438C10.6938 13.2286 10.6961 13.2112 10.6928 13.1946C10.6833 13.1472 10.7195 13.103 10.7678 13.103H10.8212C10.8614 13.103 10.899 13.1231 10.9213 13.1566L10.9794 13.2438L11.0414 13.3676C11.0625 13.4099 11.0772 13.4552 11.085 13.5018C11.0928 13.5485 11.1075 13.5937 11.1287 13.636L11.1479 13.6744C11.1607 13.7001 11.1758 13.7245 11.193 13.7475L11.2848 13.8698C11.2996 13.8896 11.3215 13.9029 11.3459 13.907L11.3809 13.9128C11.4174 13.9189 11.441 13.9549 11.432 13.9908C11.4277 14.0081 11.4309 14.0265 11.4408 14.0413L11.5549 14.2125C11.5932 14.27 11.6199 14.3343 11.6334 14.402L11.6481 14.4754C11.6558 14.5141 11.6552 14.554 11.6463 14.5925L11.6201 14.706C11.6027 14.7815 11.6455 14.8578 11.719 14.8823C11.7265 14.8848 11.7341 14.8867 11.7418 14.888L11.7541 14.89C11.8294 14.9026 11.9066 14.8868 11.9709 14.8459L12.129 14.7453C12.2138 14.6847 12.3329 14.7171 12.3752 14.8124L12.3779 14.8184C12.384 14.8321 12.3883 14.8467 12.3906 14.8616L12.434 15.1441L12.4916 15.3744C12.5 15.4082 12.5157 15.4397 12.5374 15.4669C12.5764 15.5157 12.5951 15.5777 12.5894 15.64L12.5804 15.7391C12.5767 15.7796 12.5844 15.8203 12.6026 15.8566C12.6297 15.9109 12.6331 15.9741 12.6117 16.031L12.6002 16.0617C12.5835 16.1062 12.5779 16.1541 12.5838 16.2013L12.5874 16.2306C12.5946 16.2877 12.5897 16.3456 12.5732 16.4007L12.5503 16.4771C12.5354 16.5266 12.5279 16.578 12.5279 16.6298V16.7084C12.5279 16.7134 12.5287 16.7184 12.5303 16.7232L12.5427 16.7605C12.553 16.7913 12.5966 16.7913 12.6069 16.7605C12.6142 16.7386 12.6408 16.7304 12.6582 16.7455C12.7268 16.8049 12.783 16.8767 12.838 16.9497C12.8502 16.9659 12.8601 16.9836 12.8676 17.0023L12.8757 17.0225C12.8939 17.068 12.9211 17.1092 12.9557 17.1438L12.9717 17.1598C12.9885 17.1766 13.0025 17.196 13.0131 17.2173C13.0332 17.2575 13.0406 17.3029 13.0342 17.3474L13.0335 17.3529C13.0251 17.4111 13.0386 17.4703 13.0712 17.5192L13.0786 17.5303C13.1021 17.5656 13.1171 17.606 13.1224 17.6482L13.1247 17.6666C13.1333 17.7352 13.1618 17.7997 13.2068 17.8522L13.2485 17.9008C13.2683 17.9239 13.2817 17.9516 13.2877 17.9813C13.2969 18.0274 13.324 18.0679 13.3631 18.094L13.5836 18.241L13.7757 18.3754C13.803 18.3945 13.8366 18.4026 13.8696 18.3978L13.9265 18.3897C13.9586 18.3851 13.9825 18.3576 13.9825 18.3252C13.9825 18.316 13.9805 18.307 13.9768 18.2987L13.9074 18.1424C13.8951 18.1147 13.8759 18.0906 13.8517 18.0725C13.8151 18.0451 13.7906 18.0047 13.7831 17.9596L13.7741 17.9057C13.7722 17.8946 13.7695 17.8837 13.766 17.873C13.7541 17.8374 13.7517 17.7993 13.7591 17.7625L13.7621 17.7473C13.7682 17.7169 13.7691 17.6856 13.7647 17.6549L13.7612 17.6307C13.7524 17.5691 13.7299 17.5103 13.6954 17.4585L13.6825 17.4391C13.6635 17.4107 13.6418 17.3842 13.6176 17.36L13.5318 17.2741C13.5195 17.2619 13.5053 17.2516 13.4898 17.2439C13.4742 17.2361 13.46 17.2259 13.4478 17.2136L13.3995 17.1653C13.3666 17.1325 13.3244 17.1107 13.2786 17.1031C13.2328 17.0955 13.1906 17.0737 13.1578 17.0409L13.1345 17.0176C13.0907 16.9738 13.0603 16.9185 13.0469 16.8581L13.0272 16.7696C13.0228 16.7495 13.0164 16.73 13.008 16.7113L12.9553 16.5926C12.9379 16.5535 12.8991 16.5283 12.8564 16.5283C12.8025 16.5283 12.7568 16.4887 12.7492 16.4354L12.7444 16.4015C12.7409 16.3769 12.7436 16.3519 12.7523 16.3287C12.8143 16.1632 12.8764 15.9977 12.9385 15.8322C12.9462 15.8115 12.9512 15.7898 12.9532 15.7678L12.9651 15.6368C12.9699 15.5836 13.0145 15.5429 13.0679 15.5429H13.0902C13.1404 15.5429 13.1793 15.587 13.173 15.6368C13.1668 15.6866 13.2057 15.7306 13.2559 15.7306H13.3332C13.3589 15.7306 13.3843 15.7372 13.4068 15.7497L13.4654 15.7822C13.5422 15.8249 13.6032 15.8911 13.6396 15.9711L13.6863 16.0739C13.696 16.0952 13.7083 16.1153 13.723 16.1336L13.7269 16.1384C13.7704 16.1929 13.8335 16.2281 13.9026 16.2368L13.9201 16.239C13.9608 16.2441 13.999 16.261 14.0302 16.2877L14.0658 16.3182C14.1139 16.3595 14.1297 16.4272 14.1047 16.4854L14.0989 16.4991C14.0846 16.5323 14.0868 16.5702 14.1047 16.6015C14.1393 16.662 14.2194 16.6781 14.2747 16.6356L14.4519 16.4992C14.4674 16.4874 14.4816 16.474 14.4946 16.4595L14.545 16.4028C14.6231 16.315 14.7145 16.2401 14.816 16.1809L14.9044 16.1293C14.931 16.1138 14.956 16.0958 14.9791 16.0756C15.0769 15.99 15.1361 15.8686 15.1433 15.7389L15.1501 15.6175C15.1537 15.5524 15.149 15.4871 15.1363 15.4232L15.0864 15.174C15.0701 15.0923 15.0379 15.0146 14.9917 14.9453C14.9449 14.8752 14.8848 14.8151 14.8147 14.7683L14.8072 14.7633C14.7427 14.7203 14.6855 14.667 14.6414 14.6033C14.5526 14.4747 14.4705 14.3393 14.3818 14.2106C14.3383 14.1476 14.3233 14.0686 14.3443 13.9949C14.3532 13.9637 14.3683 13.9345 14.3886 13.9092L14.4664 13.8119C14.5189 13.7463 14.5806 13.6887 14.6496 13.6409L14.8224 13.5213C14.8411 13.5084 14.8611 13.4976 14.8822 13.4891L14.9082 13.4787C14.9471 13.4632 14.9896 13.4596 15.0305 13.4684L15.2196 13.5089C15.2584 13.5172 15.279 13.5599 15.2612 13.5954C15.2536 13.6106 15.2527 13.6281 15.2586 13.644L15.2915 13.7317C15.3079 13.7753 15.3529 13.8013 15.3989 13.7936C15.4364 13.7874 15.4669 13.7598 15.4769 13.7231L15.496 13.6533C15.5173 13.5751 15.5816 13.5161 15.6614 13.5016L15.7593 13.4838C15.779 13.4802 15.7984 13.475 15.8173 13.4682L16.0925 13.37C16.109 13.3641 16.1243 13.3553 16.1377 13.3441L16.2131 13.2813C16.2376 13.2609 16.2742 13.2652 16.2934 13.2907C16.3125 13.3162 16.3491 13.3205 16.3736 13.3001L16.4372 13.2471C16.4581 13.2297 16.4838 13.219 16.511 13.2165L16.6181 13.2068C16.69 13.2002 16.7598 13.1779 16.8206 13.139C16.9125 13.0803 17.0011 13.0188 17.0879 12.9576C17.283 12.82 17.4541 12.6503 17.5899 12.4541L17.5954 12.4461C17.7035 12.2516 17.8116 12.0571 17.938 11.8625C17.9587 11.8306 17.9921 11.8091 18.0297 11.8028C18.0801 11.7944 18.1217 11.7589 18.1378 11.7105L18.182 11.578L18.2044 11.4769C18.2192 11.4106 18.1916 11.342 18.1351 11.3044L18.1231 11.2964C18.1004 11.2813 18.0834 11.259 18.0748 11.2331L18.0703 11.2195C18.0536 11.1694 18.0762 11.1148 18.1234 11.0912C18.1593 11.0732 18.182 11.0365 18.182 10.9964V10.9261C18.182 10.8773 18.1657 10.8298 18.1357 10.7913L18.0491 10.6799C18.0282 10.6531 18.0096 10.6246 17.9933 10.5947L17.9055 10.4338C17.8865 10.399 17.8707 10.3626 17.8582 10.3251L17.8096 10.1794C17.7925 10.128 17.7582 10.0841 17.7125 10.055L17.6837 10.0368C17.5946 9.98003 17.5651 9.8637 17.6164 9.77136C17.6334 9.74074 17.6582 9.71514 17.6882 9.69712L17.8124 9.6226C17.855 9.59705 17.8919 9.563 17.9207 9.52258L17.9429 9.4916C17.9762 9.445 18.0243 9.41107 18.0793 9.39533L18.2291 9.35253C18.2808 9.33776 18.3108 9.28387 18.296 9.23217C18.284 9.19038 18.2458 9.16156 18.2024 9.16156H18.16C18.1285 9.16156 18.0977 9.15187 18.0719 9.1338L18.0242 9.10041C17.9371 9.03945 17.8201 9.04384 17.7379 9.11116L17.702 9.14049C17.6514 9.18186 17.5813 9.18968 17.5229 9.16046L17.4868 9.14245C17.4527 9.12541 17.4312 9.09056 17.4312 9.05244C17.4312 9.00627 17.3998 8.96602 17.355 8.95482L17.3022 8.94162C17.2642 8.93213 17.2307 8.90987 17.2072 8.87857L17.1752 8.83589C17.1328 8.77926 17.1348 8.70086 17.1801 8.64648C17.2057 8.61573 17.2424 8.59627 17.2822 8.59228L17.3332 8.58719C17.4106 8.57944 17.4812 8.53961 17.5279 8.47736L17.565 8.42799C17.5852 8.40099 17.6086 8.37655 17.6348 8.35518L17.8365 8.19014C17.8478 8.18087 17.86 8.17262 17.8728 8.16551L17.9715 8.11065C18.0246 8.08117 18.0913 8.09622 18.1266 8.14562C18.159 8.19096 18.1557 8.25267 18.1187 8.29431L18.037 8.38621C18.0108 8.41566 18.0035 8.45739 18.0182 8.49398L18.0318 8.52799C18.0376 8.54252 18.035 8.55907 18.0249 8.57109C17.9971 8.60451 18.0313 8.65327 18.0722 8.6384L18.1699 8.60289C18.1779 8.59999 18.1853 8.59566 18.1917 8.59013L18.269 8.52386C18.3199 8.48029 18.3795 8.44821 18.4439 8.42982L18.5786 8.39132C18.6389 8.37411 18.7037 8.38713 18.7526 8.42626L18.7542 8.42756C18.779 8.44735 18.8083 8.46047 18.8396 8.46567L18.9056 8.47668C18.9226 8.47952 18.9373 8.49032 18.945 8.50575C18.9521 8.51993 18.9526 8.53652 18.9463 8.5511L18.8939 8.67346C18.8888 8.68544 18.8892 8.69906 18.895 8.71071C18.9035 8.72776 18.9002 8.74836 18.8867 8.76183L18.8739 8.77461C18.8663 8.78222 18.8606 8.7915 18.8572 8.80172L18.8382 8.85867C18.8247 8.89898 18.8399 8.9433 18.8753 8.96687L18.8761 8.96743C18.8825 8.9717 18.8895 8.97511 18.8968 8.97755L18.941 8.99226C18.95 8.99529 18.9562 9.0038 18.9562 9.01338C18.9562 9.02857 18.9711 9.03929 18.9855 9.03449L19.0111 9.02594C19.021 9.02265 19.0292 9.01556 19.0338 9.00623C19.043 8.98794 19.0646 8.97971 19.0836 8.98731L19.1369 9.00862C19.1567 9.01654 19.1735 9.03047 19.1849 9.04844L19.2795 9.19707C19.3055 9.23789 19.2848 9.29221 19.2383 9.3055C19.1993 9.31664 19.1771 9.35762 19.189 9.39636L19.2418 9.56799C19.2545 9.60914 19.2563 9.65288 19.2469 9.69491L19.2199 9.8163C19.2162 9.83324 19.2155 9.85074 19.218 9.86792C19.229 9.94496 19.2991 9.99933 19.3765 9.99074L19.4087 9.98716C19.4351 9.98422 19.4606 9.97537 19.4831 9.96127L19.5853 9.89743C19.6192 9.87623 19.6565 9.86095 19.6956 9.85227L19.7323 9.84411ZM19.2998 20.6754C19.2747 20.6942 19.2442 20.7044 19.2129 20.7044H19.1375C19.1105 20.7044 19.0837 20.7073 19.0574 20.7131L18.9143 20.7449C18.8963 20.749 18.881 20.7609 18.8727 20.7774C18.866 20.7908 18.8546 20.8013 18.8407 20.8068L18.7332 20.8498C18.6645 20.8773 18.6057 20.925 18.5647 20.9866L18.5412 21.0218C18.5363 21.0291 18.5325 21.037 18.5297 21.0453L18.516 21.0865C18.5126 21.0967 18.5152 21.108 18.5228 21.1156C18.5297 21.1225 18.5396 21.1254 18.5491 21.1233L18.6661 21.0973C18.7174 21.0859 18.7637 21.0584 18.7983 21.0189L18.8348 20.9771C18.8836 20.9214 18.9464 20.88 19.0157 20.8542C19.1259 20.8132 19.2426 20.7657 19.3471 20.7305C19.3523 20.7287 19.3573 20.7261 19.3617 20.7228L19.3858 20.7048C19.411 20.6858 19.403 20.646 19.3723 20.6383C19.3614 20.6356 19.3498 20.6379 19.3407 20.6447L19.2998 20.6754Z" stroke="currentcolor" stroke-width="1.2" mask="url(#path-1-inside-1_998_14035)"/>
</svg>
