<svg width="24" height="24" viewBox="0 0 24 24" fill="none" stroke="currentcolor" stroke-width="0.75" xmlns="http://www.w3.org/2000/svg">
<path d="M17.99,19.79L17.76,19.73L17.85,19.48L18.69,19.46L18.93,19.19L17.77,19.33L17.54,19.81L17.61,20.87L17.81,20.25L18.38,20.89L18.16,20.16L18.45,19.75L18.06,19.74ZM18.09,21.57L17.67,21.60L18.33,21.57L18.14,21.56ZM17.97,14.01L18.10,13.38L17.76,13.71L17.75,14.02L17.96,14.02ZM19.01,16.68L18.89,16.56L18.72,16.90L18.89,17.12L19.05,16.85ZM17.67,15.82L17.90,16.26L18.66,16.45L18.07,16.00L18.27,15.16L17.87,15.21L17.70,15.70ZM17.45,21.55L16.96,21.60L17.40,21.64ZM14.34,20.61L14.34,20.19L13.50,19.15L11.94,18.25L13.54,20.45L14.17,20.92L14.35,20.74ZM18.57,17.56L18.17,17.87L18.62,17.74L18.76,18.12L19.02,18.15L19.02,17.91L19.26,17.87L19.20,17.40L18.70,17.59ZM16.12,21.36L15.56,21.10L14.33,21.05L14.55,21.31L15.67,21.53L16.41,21.64L16.36,21.41ZM17.43,17.20L17.61,16.99L17.15,17.38L17.34,17.32ZM8.43,17.37L8.15,17.66L8.47,18.12L8.64,17.89L8.50,17.47ZM17.10,19.58L17.17,18.65L17.51,18.32L17.02,17.92L15.09,19.39L15.55,20.29L16.59,20.48L17.10,19.61ZM15.45,14.91L15.39,14.68L14.99,14.96L15.10,15.12L15.43,14.95ZM17.69,21.78L17.78,21.84ZM20.82,11.22L21.09,11.15L21.10,10.90L20.69,11.03L20.60,11.21L20.81,11.25ZM22.66,20.39L21.93,19.96L21.19,20.27L21.03,19.82L20.71,19.68L20.25,19.87L20.93,20.10L20.69,20.18L20.74,20.49L21.02,20.44L22.02,20.98L22.06,21.56L22.66,21.47ZM19.95,20.22L19.62,20.27L20.17,20.26ZM21.07,20.92L21.14,21.07L21.09,20.90ZM22.57,8.82L22.20,9.85L20.07,11.13L20.15,11.75L20.41,11.65L20.57,11.02L21.16,10.84L21.56,11.05L22.57,10.57L22.79,8.93ZM23.71,7.97L22.83,7.67L22.39,8.58L22.55,8.72L23.71,8.06ZM19.66,19.74L19.77,19.26L19.52,19.11L19.62,19.73ZM17.90,16.51L18.03,16.38L17.86,16.46ZM19.16,20.39L19.37,20.43L19.20,20.31ZM18.45,16.96L18.34,17.34L18.63,17.10L18.50,16.96ZM18.23,16.79L18.26,17.03L18.42,16.88L18.26,16.81ZM19.73,10.70L19.92,10.09L19.47,9.36L19.89,8.99L20.34,8.22L20.43,7.54L20.87,7.40L21.12,6.72L20.22,6.41L18.68,4.58L17.81,4.68L17.88,5.01L17.37,5.90L16.47,5.78L15.31,6.13L14.46,5.69L13.67,5.72L12.91,5.20L12.56,5.29L12.43,5.81L10.95,5.60L10.09,6.05L9.09,5.48L8.14,5.39L7.35,4.17L6.77,4.49L5.80,3.76L3.78,4.33L3.70,5.52L2.28,5.51L1.51,5.18L0.37,6.03L0.38,6.54L0.85,7.11L1.52,6.98L1.87,7.16L1.17,7.82L1.72,8.67L2.11,8.80L1.75,9.13L2.02,9.89L2.20,10.02L2.78,9.79L3.77,10.36L3.63,11.31L3.91,11.82L3.81,12.30L4.28,12.92L3.92,13.19L4.09,13.38L5.13,13.45L5.89,14.41L6.52,14.57L6.65,15.47L7.61,17.60L8.21,17.02L8.27,15.83L10.01,14.29L10.82,13.95L11.55,15.06L11.72,15.73L12.38,15.66L12.54,17.61L13.01,18.07L13.36,18.95L13.78,19.23L13.98,19.18L13.70,18.31L12.75,17.29L12.97,16.49L13.47,16.63L14.27,17.49L14.98,16.93L15.15,16.47L14.39,14.76L14.91,14.33L15.40,14.65L15.66,14.35L16.82,13.99L18.14,12.56L18.18,11.78L17.62,10.62L18.30,10.08L17.49,9.99L17.18,9.50L17.97,8.96L18.07,9.49L18.91,9.33L18.88,9.82L19.28,10.05L19.22,10.72L19.70,10.70ZM19.30,21.53L18.52,21.97L19.34,21.50Z"/>
</svg>