<svg width="24" height="24" viewBox="0 0 24 24" fill="none" stroke="currentcolor" stroke-width="0.75" xmlns="http://www.w3.org/2000/svg">
<path fill-rule="evenodd" clip-rule="evenodd" d="M11.37,12.95L11.31,13.36L11.77,13.26L11.80,13.04L11.48,12.90ZM10.47,20.72L10.70,20.39L10.46,20.19L10.43,20.66ZM5.35,13.08L5.62,13.12L5.59,13.55L6.30,14.21L5.67,14.68L5.54,15.44L5.84,15.75L5.43,16.42L7.66,15.91L7.91,15.15L6.37,12.67L6.59,12.15L5.89,11.21L5.33,11.62L5.33,12.75ZM15.54,22.54L15.81,22.33L15.34,21.31L15.76,21.48L15.90,21.09L16.85,21.28L17.57,20.95L17.19,20.01L18.14,18.38L18.38,18.23L19.08,18.55L18.84,18.95L19.33,19.36L20.15,18.97L19.66,18.63L19.80,18.33L20.68,18.01L21.37,17.45L21.34,16.60L19.91,16.13L19.41,15.63L19.37,15.26L18.56,15.16L18.45,14.63L18.82,14.60L18.84,14.41L18.43,14.04L18.06,13.09L17.49,12.87L17.20,12.49L17.15,10.59L15.83,10.67L15.61,11.04L15.95,11.44L15.88,12.08L15.70,12.26L15.04,11.95L14.80,13.07L14.14,13.86L13.47,13.66L12.53,14.14L11.95,13.94L11.34,14.08L10.83,13.56L10.80,13.10L11.13,12.69L11.05,12.06L10.78,11.93L10.25,12.44L10.43,13.97L10.28,14.29L9.32,14.50L8.58,15.61L7.63,16.45L6.54,17.07L5.93,17.05L5.74,17.32L6.63,18.08L6.80,19.58L6.43,19.78L4.37,19.75L4.15,20.15L4.26,21.01L3.99,21.95L4.20,22.70L4.86,22.79L5.33,23.22L6.92,22.54L7.42,21.28L8.25,20.67L8.67,19.90L9.86,19.77L10.37,19.41L10.81,19.53L11.64,20.65L12.82,21.48L12.98,22.37L13.39,21.86L13.25,21.38L13.89,21.31L12.64,20.41L11.74,19.41L11.70,19.05L12.03,18.71L12.19,19.02L12.49,18.98L12.93,19.75L14.17,20.62L14.14,21.25L15.09,22.98L15.27,23.07L15.48,22.65ZM4.21,15.48L5.11,14.83L5.08,13.53L4.81,13.43L4.20,13.93L3.99,15.06ZM4.58,7.18L4.23,6.72L3.67,7.01L2.21,7.09L1.65,6.88L1.35,7.11L1.92,7.81L1.73,8.35L1.99,8.97L2.90,9.20L3.40,9.14L4.59,8.40L4.64,7.47ZM12.54,22.29L11.73,22.40L12.48,22.85L12.70,22.47ZM10.45,20.99L10.26,21.14L10.35,21.86L10.77,21.70L10.75,21.13L10.46,20.98ZM9.30,10.92L9.57,11.36L10.13,11.44L10.70,10.93L11.22,10.99L11.88,13.06L12.17,13.28L13.05,12.64L13.29,11.33L13.80,10.56L13.55,8.67L15.45,5.67L16.11,5.78L16.32,6.08L14.94,7.96L14.94,9.41L15.15,9.88L15.77,10.26L17.56,9.52L18.38,8.42L17.40,3.12L18.02,2.40L18.14,1.11L17.58,0.71L16.51,0.73L13.92,2.25L12.46,4.15L10.94,7.01L9.32,8.51L9.24,10.51ZM23.02,22.28L23.04,21.45L22.63,20.86L22.20,20.71L20.66,20.91L19.41,20.48L17.88,20.89L16.71,21.57L17.02,22.72L17.98,23.17L18.29,22.98L19.08,23.22L19.85,23.01L20.21,23.22L20.72,22.89L22.59,22.62L23.09,22.75L23.03,22.39Z" />
</svg>