<svg width="24" height="24" viewBox="0 0 24 24" fill="none" xmlns="http://www.w3.org/2000/svg">
<mask id="path-1-inside-1_998_14041" fill="white">
<path fill-rule="evenodd" clip-rule="evenodd" d="M11.1376 13.0298C11.0338 13.0743 10.9745 13.1846 10.9947 13.2956C11.004 13.3469 11.0296 13.3938 11.0677 13.4293L11.0783 13.4392C11.223 13.5742 11.4578 13.5247 11.5357 13.3429L11.5577 13.2915C11.5819 13.2351 11.5831 13.1715 11.5611 13.1142C11.5131 12.9896 11.3712 12.9297 11.2485 12.9823L11.1376 13.0298ZM10.2369 20.8C10.2936 20.8378 10.3706 20.8113 10.3922 20.7467L10.4578 20.5498C10.4669 20.5226 10.4698 20.4937 10.4665 20.4653L10.4535 20.3549C10.4405 20.2446 10.3088 20.1945 10.2258 20.2683C10.2107 20.2817 10.1987 20.2983 10.1908 20.3168L10.1731 20.358C10.1448 20.4241 10.1382 20.4974 10.1544 20.5674L10.1936 20.7373C10.1995 20.763 10.215 20.7854 10.2369 20.8ZM5.11154 13.1596C5.11456 13.2349 5.21222 13.2624 5.25403 13.1996C5.28424 13.1543 5.35045 13.1532 5.3821 13.1976L5.40393 13.2281C5.42546 13.2583 5.42928 13.2976 5.41395 13.3313L5.3522 13.4672C5.3295 13.5171 5.32888 13.5743 5.35049 13.6247C5.37521 13.6824 5.42618 13.7247 5.48744 13.7383L5.62907 13.7698C5.75711 13.7982 5.86907 13.8773 5.94214 13.9862C5.97363 14.0331 6.00536 14.0816 6.0349 14.1329C6.06165 14.1792 6.06988 14.2336 6.06231 14.2866C6.04175 14.4306 5.90808 14.5327 5.76302 14.5227C5.75809 14.5223 5.75314 14.522 5.74819 14.5216C5.60151 14.5115 5.46646 14.6111 5.43937 14.7556L5.43189 14.7955C5.42057 14.8559 5.43213 14.9183 5.46433 14.9706L5.4967 15.0232C5.55691 15.1211 5.5184 15.2495 5.41428 15.2981L5.3817 15.3133C5.30484 15.3492 5.27087 15.44 5.30531 15.5175L5.3088 15.5254C5.32878 15.5703 5.3709 15.6013 5.4195 15.609C5.47351 15.6176 5.52608 15.6276 5.57833 15.638C5.6713 15.6564 5.68958 15.794 5.60353 15.8337C5.59152 15.8393 5.58081 15.8473 5.5721 15.8572L5.16472 16.3228C5.11623 16.3782 5.12889 16.4639 5.19133 16.5029C5.23655 16.5312 5.29502 16.5261 5.33466 16.4904L5.41222 16.4206C5.47477 16.3643 5.56085 16.342 5.64285 16.361L5.68027 16.3696C5.77251 16.3909 5.86906 16.3607 5.93274 16.2906L5.98526 16.2329C6.03707 16.1759 6.12152 16.1625 6.1884 16.2007C6.22473 16.2215 6.26761 16.2276 6.3083 16.2178L6.75088 16.1116C6.82054 16.0949 6.89194 16.0864 6.96358 16.0864H7.17203C7.26713 16.0864 7.35874 16.0506 7.42862 15.9861L7.51459 15.9068C7.58742 15.8395 7.60704 15.7323 7.56271 15.6436C7.51986 15.5579 7.53666 15.4544 7.60442 15.3866L7.60732 15.3837C7.64277 15.3483 7.66556 15.3021 7.67219 15.2525L7.67566 15.2265C7.69583 15.0752 7.6014 14.9322 7.45437 14.8914L7.43051 14.8847C7.33004 14.8568 7.24834 14.7836 7.20962 14.6868L7.17335 14.5961L6.9969 14.0472C6.96939 13.9616 6.90515 13.8927 6.82167 13.8593C6.74946 13.8305 6.69095 13.7749 6.66005 13.7035C6.57291 13.5023 6.49571 13.301 6.40792 13.0998C6.38321 13.0431 6.32864 13.0055 6.26697 13.0014C6.1436 12.9932 6.07114 12.8589 6.13199 12.7513L6.28776 12.4757C6.30794 12.44 6.322 12.4011 6.32934 12.3608L6.35294 12.2309C6.38577 12.0504 6.24709 11.8843 6.06361 11.8843H6.04622C6.03218 11.8843 6.01821 11.8861 6.00465 11.8897C5.87031 11.9255 5.75659 11.786 5.81877 11.6617L5.85837 11.5824C5.92996 11.4393 5.81384 11.2739 5.65487 11.2926L5.63933 11.2944C5.61971 11.2967 5.59985 11.2963 5.58036 11.293L5.56245 11.29C5.4163 11.2657 5.27135 11.3395 5.20509 11.472L5.09179 11.6986C5.06263 11.7569 5.042 11.8191 5.03054 11.8833L4.96381 12.257C4.93911 12.3953 4.96192 12.5379 5.02852 12.6616L5.07647 12.7507C5.08977 12.7754 5.09727 12.8028 5.09839 12.8308L5.11154 13.1596ZM15.3081 22.6229C15.2886 22.5577 15.3524 22.4985 15.416 22.523L15.4454 22.5343C15.5092 22.5588 15.5777 22.5117 15.5777 22.4434V22.4047C15.5777 22.3646 15.5584 22.3271 15.5258 22.3038L15.4298 22.2352C15.4145 22.2242 15.4004 22.2116 15.3879 22.1975L15.2649 22.0592C15.2358 22.0264 15.2401 21.9758 15.2744 21.9484C15.3071 21.9222 15.3127 21.8745 15.287 21.8414L15.1912 21.7183C15.1722 21.6938 15.1582 21.6658 15.1501 21.6359L15.098 21.4449C15.0924 21.4244 15.0966 21.4026 15.1093 21.3856C15.1362 21.3497 15.1897 21.3489 15.2178 21.3839L15.3048 21.4928C15.3384 21.5347 15.3891 21.5591 15.4428 21.5591H15.5296C15.5452 21.5591 15.5607 21.5559 15.5751 21.5497C15.6482 21.5184 15.6686 21.4245 15.6151 21.3657L15.6111 21.3612C15.551 21.2951 15.5816 21.1888 15.6677 21.1649L15.8583 21.1119C15.8986 21.1008 15.9411 21.1002 15.9817 21.1103L16.1152 21.1437L16.2598 21.1598C16.3027 21.1646 16.3351 21.2008 16.3351 21.2439C16.3351 21.2583 16.3388 21.2725 16.3458 21.2851L16.3567 21.3047C16.4089 21.3987 16.5347 21.4231 16.6182 21.3555C16.6771 21.3079 16.7357 21.259 16.79 21.2076C16.8621 21.1394 16.9532 21.0916 17.0523 21.0857L17.2666 21.0731C17.2953 21.0714 17.3212 21.0557 17.3359 21.0312C17.3625 20.9869 17.3448 20.9294 17.2979 20.9078L17.1607 20.8444C17.1019 20.8173 17.0578 20.7659 17.04 20.7036L17.0262 20.6553C17.0215 20.6389 17.0156 20.6229 17.0085 20.6074L16.9708 20.5257C16.9078 20.3894 16.9009 20.2339 16.9514 20.0925L16.9564 20.0784C16.9817 20.0077 17.0223 19.9435 17.0754 19.8904L17.1098 19.856C17.1621 19.8037 17.1967 19.7363 17.2089 19.6634L17.2751 19.2665C17.2815 19.2281 17.3232 19.2068 17.358 19.2242C17.3753 19.2329 17.3957 19.2323 17.4125 19.2227L17.4889 19.1791C17.5308 19.1551 17.5567 19.1106 17.5567 19.0623C17.5567 19.0336 17.5658 19.0058 17.5827 18.9827L17.79 18.7001C17.8135 18.668 17.8332 18.6332 17.8485 18.5964L17.9079 18.4539C17.9328 18.394 17.985 18.3499 18.0482 18.3353L18.1476 18.3124C18.2105 18.2979 18.2721 18.3409 18.2802 18.405C18.2858 18.4504 18.3194 18.4875 18.3641 18.4976L18.7935 18.5952C18.8153 18.6002 18.8347 18.6124 18.8486 18.6298C18.8879 18.6788 18.8719 18.7515 18.8157 18.7796L18.5992 18.8878C18.5884 18.8932 18.579 18.9011 18.5718 18.9107C18.5406 18.9522 18.5581 19.012 18.6067 19.0302L18.7747 19.0932C18.8454 19.1198 18.8835 19.1966 18.8618 19.269C18.8418 19.3358 18.8727 19.4075 18.9352 19.4387L18.9454 19.4438C18.9934 19.4678 19.0505 19.4657 19.0966 19.438L19.4315 19.2371C19.4843 19.2053 19.5416 19.1816 19.6014 19.1667L19.86 19.102C19.8865 19.0954 19.9084 19.0768 19.9192 19.0516C19.9449 18.9916 19.8981 18.9256 19.833 18.93L19.6748 18.9405C19.6322 18.9434 19.5899 18.9314 19.5552 18.9065L19.5347 18.8919C19.4734 18.8481 19.4345 18.7793 19.4288 18.7041L19.4271 18.6819C19.4187 18.5727 19.4698 18.4676 19.5609 18.4068L19.6155 18.3705C19.6752 18.3306 19.7443 18.307 19.8159 18.3019L19.8852 18.2969C19.9922 18.2893 20.0951 18.2528 20.1829 18.1913L20.2416 18.1502C20.2754 18.1265 20.3141 18.1107 20.3548 18.1039L20.4456 18.0888C20.5267 18.0753 20.5862 18.0051 20.5862 17.9229C20.5862 17.8738 20.6076 17.8271 20.6449 17.7951L20.6909 17.7557C20.7342 17.7186 20.7872 17.6946 20.8436 17.6866L20.9746 17.6679C21.0504 17.657 21.1128 17.6026 21.1338 17.529C21.1432 17.4963 21.1437 17.4616 21.1355 17.4286L21.1173 17.3559C21.0899 17.2462 21.1026 17.1302 21.1532 17.0291L21.2023 16.9309C21.2148 16.9058 21.2214 16.8781 21.2214 16.85C21.2214 16.7731 21.1728 16.7047 21.1003 16.6793L20.7814 16.5677C20.7492 16.5564 20.7153 16.5506 20.6812 16.5506H20.6764C20.5883 16.5506 20.505 16.5111 20.4492 16.443L20.4328 16.423C20.3637 16.3385 20.2487 16.3069 20.1461 16.3442C20.0836 16.3669 20.0147 16.3645 19.9539 16.3375L19.6744 16.2133C19.6346 16.1956 19.6089 16.1561 19.6089 16.1125C19.6089 16.0954 19.6049 16.0785 19.5973 16.0632L19.5412 15.9509C19.5074 15.8834 19.4408 15.8383 19.3655 15.832L19.3052 15.827C19.2399 15.8216 19.187 15.7717 19.1777 15.7069L19.1772 15.703C19.1721 15.6671 19.182 15.6306 19.2047 15.6022C19.2415 15.5563 19.2432 15.4915 19.209 15.4435L19.1308 15.334C19.0642 15.2408 18.9515 15.192 18.838 15.2071L18.679 15.2283C18.6639 15.2303 18.6485 15.2294 18.6337 15.2257C18.5878 15.2143 18.5394 15.2306 18.5099 15.2675L18.4991 15.281C18.4755 15.3105 18.4373 15.3244 18.4002 15.317C18.3624 15.3094 18.3322 15.2811 18.3223 15.2438L18.2408 14.9382L18.1889 14.8C18.1764 14.7665 18.1886 14.7287 18.2184 14.7088C18.2329 14.6991 18.2502 14.6946 18.2676 14.6961L18.4744 14.7133C18.5125 14.7165 18.5504 14.7045 18.5799 14.68C18.6371 14.6323 18.6492 14.5492 18.6079 14.4872C18.5915 14.4627 18.5681 14.4437 18.5408 14.4327L18.3902 14.3725C18.3606 14.3607 18.3443 14.3287 18.352 14.2978C18.3585 14.2716 18.3479 14.2441 18.3255 14.2291L18.2538 14.1814C18.2292 14.1649 18.2088 14.1429 18.1944 14.1169L18.0319 13.8245C17.9941 13.7564 17.99 13.6747 18.0206 13.6032C18.0368 13.5654 18.0435 13.5242 18.0401 13.4832L18.0382 13.4597C18.0275 13.3322 17.9473 13.2209 17.8296 13.1705L17.7324 13.1288C17.698 13.114 17.6593 13.1131 17.6243 13.1263L17.5857 13.1408C17.5298 13.1617 17.4677 13.1321 17.4488 13.0755C17.4397 13.0481 17.4197 13.0256 17.3935 13.0134L17.2513 12.947C17.1343 12.8924 17.0449 12.7921 17.0041 12.6697L16.969 12.5643C16.9536 12.5183 16.944 12.4706 16.9403 12.4223L16.927 12.249C16.9234 12.2032 16.9019 12.1606 16.867 12.1307C16.8005 12.0737 16.787 11.976 16.8356 11.9031L16.8524 11.878C16.8811 11.8349 16.8927 11.7826 16.8848 11.7314L16.8289 11.3683C16.8098 11.2441 16.836 11.1171 16.9026 11.0105L17.015 10.8307C17.033 10.8019 17.0362 10.7662 17.0235 10.7346C17.0064 10.6917 16.9635 10.6647 16.9175 10.6678L16.7032 10.6821C16.6537 10.6854 16.604 10.6795 16.5566 10.6647L16.4673 10.6368C16.3167 10.5897 16.1563 10.5829 16.0022 10.6172L15.8568 10.6495C15.8174 10.6583 15.7791 10.6709 15.7423 10.6873L15.5963 10.7522C15.453 10.8159 15.3644 10.962 15.3741 11.1186L15.3762 11.1516C15.3801 11.2147 15.4053 11.2746 15.4476 11.3216L15.5739 11.4619C15.5903 11.4802 15.6174 11.4842 15.6384 11.4716C15.6743 11.4501 15.7193 11.4782 15.7152 11.5198C15.6947 11.7289 15.6648 11.9474 15.6425 12.1583C15.6323 12.2538 15.5565 12.3299 15.4607 12.3378C15.3833 12.3443 15.3093 12.3046 15.2719 12.2366L15.2162 12.1353C15.1343 11.9863 14.9433 11.9379 14.8002 12.0298C14.7497 12.0623 14.7104 12.1095 14.6875 12.165L14.6121 12.3481C14.5721 12.4454 14.5489 12.5487 14.5437 12.6537L14.5304 12.919C14.5283 12.9619 14.5315 13.005 14.5399 13.0472L14.5604 13.1495C14.5978 13.3366 14.4964 13.5237 14.3193 13.5946L14.2384 13.6269C14.1741 13.6526 14.1256 13.707 14.1074 13.7738L14.1057 13.78C14.0805 13.8724 13.9966 13.9365 13.9008 13.9365H13.8061C13.757 13.9365 13.7151 13.901 13.707 13.8525C13.7006 13.8143 13.6728 13.7831 13.6355 13.7725L13.4776 13.7274C13.398 13.7046 13.3128 13.7097 13.2373 13.7437C12.9457 13.8751 12.6681 14.0227 12.3731 14.1707C12.3596 14.1774 12.3466 14.1851 12.3343 14.1938L12.2912 14.2239C12.1873 14.2967 12.0452 14.2795 11.9617 14.184C11.9456 14.1657 11.927 14.1498 11.9063 14.1369L11.7181 14.0192C11.6162 13.9556 11.4833 13.9674 11.3929 14.0465C11.3656 14.0704 11.3333 14.0887 11.2986 14.0995L11.1004 14.1614C11.0308 14.1832 10.9602 14.1312 10.9602 14.0584C10.9602 14.0143 10.9333 13.9746 10.8924 13.9582L10.7767 13.912C10.6662 13.8678 10.5937 13.7607 10.5937 13.6417C10.5937 13.6104 10.5887 13.5793 10.5788 13.5496L10.5402 13.434C10.512 13.3492 10.5195 13.2566 10.5611 13.1775L10.7134 12.8883C10.7275 12.8614 10.7623 12.8536 10.7866 12.8718C10.8125 12.8912 10.8499 12.8808 10.8619 12.8506L10.8954 12.7671C10.9182 12.71 10.8935 12.6449 10.8384 12.6174L10.8112 12.6038C10.7668 12.5816 10.7361 12.539 10.7291 12.4898L10.7246 12.4579C10.7189 12.4183 10.7245 12.3779 10.7408 12.3414L10.7995 12.2093C10.8088 12.1883 10.8136 12.1655 10.8136 12.1425C10.8136 12.0113 10.6673 11.9329 10.5581 12.0058L10.5466 12.0134C10.5293 12.0249 10.5142 12.0395 10.5021 12.0565L10.4694 12.1023C10.4238 12.1662 10.3551 12.2097 10.2779 12.2237C10.1845 12.2407 10.1046 12.3007 10.0621 12.3856L10.0471 12.4155C10.0369 12.4359 10.0287 12.4572 10.0224 12.4791L10.0123 12.5144C9.99283 12.5826 9.98295 12.6532 9.98295 12.7241V13.048C9.98295 13.1829 10.0104 13.3163 10.0635 13.4403C10.1072 13.5424 10.1336 13.651 10.1415 13.7617L10.1509 13.8939C10.153 13.9222 10.1585 13.9501 10.1675 13.977L10.1931 14.0537C10.2143 14.1175 10.2011 14.1878 10.158 14.2395L10.0462 14.3737C10.0153 14.4108 9.95697 14.4063 9.93212 14.3648C9.91837 14.3419 9.89278 14.3288 9.86613 14.331L9.68746 14.3459C9.6429 14.3496 9.60284 14.3746 9.57983 14.4129C9.55683 14.4512 9.51677 14.4762 9.4722 14.4799L9.33008 14.4917C9.27719 14.4961 9.22562 14.5106 9.17814 14.5343L9.08972 14.5786C8.87874 14.684 8.7157 14.8657 8.63357 15.0868L8.49038 15.4723C8.45981 15.5546 8.4088 15.6278 8.34215 15.6849C8.29625 15.7243 8.24379 15.7553 8.18718 15.7765C8.09905 15.8095 8.01091 15.8426 7.92278 15.8756C7.77557 15.9309 7.66679 16.0575 7.6344 16.2113C7.60551 16.3485 7.51559 16.465 7.39019 16.5277L6.83031 16.8077C6.78583 16.8299 6.73271 16.8257 6.69224 16.7968C6.5932 16.7261 6.45869 16.8131 6.48256 16.9324L6.49116 16.9754C6.51298 17.0845 6.41371 17.1792 6.30574 17.1522L6.03369 17.0842C5.97995 17.0707 5.9237 17.0711 5.87014 17.0852L5.69839 17.1304C5.57589 17.1626 5.49328 17.277 5.50119 17.4034C5.50777 17.5087 5.57611 17.6001 5.67525 17.6361L5.9135 17.7228C6.00308 17.7553 6.08444 17.8071 6.15184 17.8745L6.23841 17.9611C6.29152 18.0142 6.33955 18.0722 6.38186 18.1342L6.39587 18.1548C6.58291 18.4291 6.67153 18.7587 6.6473 19.0898L6.61829 19.4863C6.61378 19.548 6.59521 19.6079 6.56402 19.6614C6.488 19.7917 6.34605 19.8692 6.19533 19.8626L5.87849 19.8489L5.79283 19.856C5.65486 19.8675 5.51607 19.8646 5.37869 19.8475L5.19441 19.8244H4.82013C4.76037 19.8244 4.70079 19.8179 4.64245 19.8049L4.47125 19.7669C4.35605 19.7413 4.2354 19.7652 4.13873 19.8329L3.96219 19.9565C3.87304 20.0189 3.85005 20.1411 3.91041 20.2316C3.93505 20.2686 3.9467 20.3127 3.94354 20.357L3.92949 20.5536C3.92583 20.6048 3.92765 20.6563 3.93491 20.7072L3.93811 20.7295C3.94495 20.7774 3.95807 20.8242 3.97714 20.8687C4.00655 20.9373 4.02171 21.0112 4.02171 21.0859V21.091C4.02171 21.1422 4.01488 21.1932 4.00141 21.2426L3.95832 21.4006C3.95173 21.4248 3.94686 21.4494 3.94375 21.4743L3.93745 21.5247C3.92867 21.5949 3.89942 21.661 3.85335 21.7148C3.80397 21.7724 3.77401 21.8441 3.76771 21.9197L3.75848 22.0304C3.75486 22.0738 3.76194 22.1175 3.77911 22.1576L3.80148 22.2098C3.81724 22.2465 3.84798 22.2748 3.88594 22.2875C3.93873 22.3051 3.9761 22.3522 3.98114 22.4077L3.99508 22.561C3.99654 22.577 3.99613 22.5933 3.99384 22.6093L3.96914 22.7822C3.9594 22.8503 4.02311 22.9059 4.08931 22.887C4.10887 22.8814 4.12972 22.8822 4.14878 22.8894L4.21762 22.9152C4.27775 22.9377 4.34536 22.9263 4.39469 22.8851C4.43685 22.85 4.49282 22.8362 4.54647 22.8477L4.62474 22.8645C4.73648 22.8884 4.82897 22.9664 4.87141 23.0725L4.88056 23.0954C4.89426 23.1297 4.91327 23.1615 4.93688 23.1899L4.97784 23.239C5.00716 23.2742 5.04849 23.2973 5.09384 23.3038C5.15648 23.3127 5.21935 23.289 5.26053 23.241L5.31156 23.1814C5.3311 23.1587 5.35366 23.1387 5.37864 23.122L5.40982 23.1012C5.50832 23.0356 5.62406 23.0005 5.74244 23.0005C5.85628 23.0005 5.96759 23.0005 6.08046 23.0005C6.24502 23.0005 6.39945 22.921 6.49509 22.7871L6.52573 22.7443C6.56563 22.6884 6.62154 22.6459 6.68606 22.6224C6.79215 22.5839 6.87215 22.4951 6.89953 22.3856L6.91092 22.34C6.92277 22.2926 6.94729 22.2493 6.98184 22.2148L6.99161 22.205C7.07039 22.1262 7.08785 22.005 7.0345 21.9072C6.99865 21.8414 6.99399 21.7631 7.0218 21.6936L7.08838 21.5272C7.11231 21.4673 7.14524 21.4115 7.18604 21.3617L7.31796 21.2004C7.33526 21.1793 7.34673 21.154 7.35122 21.127C7.36182 21.0634 7.41032 21.0128 7.47341 20.9996L7.69894 20.9521C7.78666 20.9336 7.86769 20.8916 7.93338 20.8306L8.01832 20.7518C8.11716 20.66 8.16788 20.5276 8.15567 20.3933L8.15515 20.3875C8.15213 20.3543 8.15338 20.3208 8.15886 20.2879C8.18366 20.1391 8.29189 20.0179 8.43693 19.9765L8.57635 19.9366C8.66598 19.911 8.76022 19.906 8.85208 19.9218L9.16315 19.9754C9.32662 20.0036 9.49417 19.958 9.62079 19.8509L9.68895 19.7932C9.72147 19.7657 9.76082 19.7474 9.80284 19.7404C9.85615 19.7316 9.90481 19.7047 9.94072 19.6643L10.0427 19.5495C10.0677 19.5214 10.0986 19.4991 10.1332 19.4843C10.2077 19.4524 10.293 19.4576 10.363 19.4985L10.5174 19.5886C10.5357 19.5992 10.5551 19.6075 10.5754 19.6133C10.6623 19.6381 10.7294 19.7075 10.7513 19.7952L10.801 19.9938C10.8253 20.0911 10.8734 20.1809 10.9408 20.2551L11.0824 20.4108L11.4 20.7284L11.5835 20.8785C11.639 20.924 11.7069 20.9518 11.7784 20.9583L11.7946 20.9597C11.8856 20.968 11.9692 21.015 12.024 21.0881C12.0629 21.14 12.117 21.1792 12.1786 21.1997L12.2003 21.2069C12.2667 21.229 12.3215 21.2766 12.3528 21.3392L12.3685 21.3706C12.3898 21.4131 12.427 21.4453 12.472 21.4604C12.5205 21.4765 12.5595 21.5128 12.5811 21.5591C12.6342 21.6734 12.6952 21.7862 12.7493 21.89C12.7762 21.9415 12.7705 22.0038 12.7357 22.0503C12.7248 22.0647 12.7166 22.081 12.7114 22.0983L12.6507 22.3009C12.6476 22.3112 12.646 22.3219 12.646 22.3326V22.3592C12.646 22.4135 12.6948 22.4549 12.7484 22.446C12.7762 22.4413 12.8 22.4237 12.8126 22.3985L12.9598 22.1041C12.9775 22.0687 13.0112 22.0438 13.0503 22.0373C13.101 22.0289 13.1413 21.9899 13.1514 21.9394L13.1597 21.8977C13.1742 21.8256 13.1445 21.7517 13.0842 21.7095L13.0782 21.7052C12.9983 21.6493 12.9718 21.5426 13.0155 21.4554C13.0565 21.3733 13.1487 21.3293 13.2381 21.3499L13.3551 21.3769C13.3865 21.3842 13.4149 21.401 13.4363 21.4251L13.497 21.4934C13.5444 21.5467 13.6311 21.5326 13.6592 21.467C13.6676 21.4475 13.6693 21.4257 13.6642 21.4051L13.6597 21.3873C13.6519 21.356 13.6343 21.3281 13.6096 21.3074L13.394 21.1278C13.3678 21.1059 13.339 21.0872 13.3086 21.0715C13.1523 20.9905 12.9959 20.8963 12.8396 20.814C12.8046 20.7956 12.797 20.7484 12.8249 20.7205C12.8475 20.6979 12.8475 20.6612 12.8249 20.6386L12.7968 20.6104C12.7784 20.5921 12.7536 20.5818 12.7277 20.5818H12.6338C12.5477 20.5818 12.4652 20.5476 12.4044 20.4868L12.1981 20.2805C12.1386 20.221 12.0866 20.1544 12.0433 20.0823L11.9872 19.9887C11.9222 19.8804 11.8356 19.7865 11.7327 19.7131L11.6299 19.6396C11.5752 19.6006 11.5309 19.5487 11.5008 19.4885L11.47 19.427C11.4408 19.3686 11.436 19.301 11.4567 19.2391C11.4676 19.2062 11.4715 19.1714 11.4681 19.1369L11.4672 19.1282C11.456 19.0166 11.511 18.9086 11.608 18.8521L11.6931 18.8024C11.7245 18.7841 11.7617 18.7788 11.7969 18.7876L11.9486 18.8255C11.9867 18.8351 11.9885 18.866 11.9537 18.8844C11.9419 18.8907 11.9375 18.9036 11.9375 18.917V19.0437C11.9375 19.059 11.9415 19.0741 11.9491 19.0873L11.9534 19.095C11.9874 19.1543 12.0744 19.1499 12.1022 19.0875C12.1196 19.0482 12.164 19.0286 12.2048 19.0422L12.2555 19.0591C12.3136 19.0784 12.3528 19.1328 12.3528 19.1941V19.2074C12.3528 19.2431 12.3647 19.2778 12.3867 19.3061L12.497 19.4479C12.5115 19.4665 12.5071 19.4936 12.4874 19.5067C12.4676 19.5199 12.4633 19.5473 12.4782 19.5659L12.6916 19.8325C12.7259 19.8754 12.7697 19.9097 12.8195 19.9327L12.9409 19.9887C13.0208 20.0256 13.0949 20.0737 13.1612 20.1317L13.1767 20.1452C13.2299 20.1919 13.2876 20.2332 13.3496 20.2674C13.4559 20.3261 13.5556 20.3783 13.6623 20.4373C13.7171 20.4677 13.7635 20.5113 13.7983 20.5634L13.8187 20.594C13.8348 20.6182 13.8556 20.639 13.8798 20.6551L13.8951 20.6654C13.9092 20.6747 13.9212 20.6868 13.9306 20.7008C13.9525 20.7336 13.958 20.7747 13.9455 20.8121L13.9262 20.8699C13.9197 20.8895 13.9156 20.9098 13.914 20.9304L13.895 21.1777C13.893 21.2038 13.8934 21.2302 13.8963 21.2563L13.9039 21.3243C13.9119 21.3961 13.9492 21.4615 14.0071 21.5049L14.0769 21.5573C14.0989 21.5738 14.1119 21.5997 14.1119 21.6272V21.6507C14.1119 21.6694 14.1224 21.6865 14.1391 21.6949C14.1528 21.7017 14.1625 21.7144 14.1655 21.7293L14.1781 21.7926C14.1828 21.8159 14.1919 21.838 14.2051 21.8576C14.252 21.9272 14.3035 22.0014 14.3546 22.0752C14.4535 22.2181 14.5243 22.3782 14.5665 22.5467L14.5761 22.5852L14.639 22.7741C14.6774 22.8892 14.753 22.9882 14.854 23.0555L14.9544 23.1224C14.9785 23.1385 15.0069 23.1471 15.0359 23.1471C15.135 23.1471 15.2057 23.051 15.1761 22.9564L15.1473 22.8643C15.1292 22.8061 15.1646 22.7449 15.2241 22.7316L15.2474 22.7264C15.2939 22.7161 15.3218 22.6685 15.3081 22.6229ZM3.97414 15.5589C4.03674 15.5683 4.1007 15.5572 4.15643 15.5272L4.45201 15.368C4.6174 15.2789 4.75237 15.1424 4.83953 14.976L4.87372 14.9107C4.93939 14.7854 4.96568 14.6431 4.94915 14.5025L4.94118 14.4348C4.93104 14.3486 4.94525 14.2614 4.98219 14.1829C5.06554 14.0057 5.02883 13.7953 4.8904 13.6569L4.84276 13.6093C4.77138 13.5379 4.6722 13.5016 4.57162 13.5099C4.48513 13.5171 4.40475 13.557 4.34564 13.6206C4.22166 13.7538 4.0969 13.8816 3.96818 14.0071C3.79538 14.1755 3.72686 14.426 3.80041 14.6558L3.82824 14.7428C3.85835 14.8369 3.8513 14.9389 3.80855 15.028L3.75356 15.1426C3.66829 15.3202 3.77926 15.5297 3.97414 15.5589ZM4.34196 7.2583C4.38049 7.03677 4.226 6.82802 4.00288 6.80013L3.99381 6.799C3.88671 6.78561 3.77872 6.8158 3.69409 6.8828L3.43273 7.08971C3.31606 7.18208 3.15527 7.19517 3.02519 7.12291C2.89009 7.04785 2.7225 7.06511 2.60554 7.16613L2.57246 7.1947C2.3989 7.34459 2.13834 7.3323 1.97967 7.16672L1.90788 7.09181C1.78054 6.95894 1.59013 6.90743 1.41317 6.95799L1.35806 6.97374C1.25026 7.00454 1.16191 7.08195 1.11721 7.18476C1.02577 7.39507 1.14287 7.63747 1.36445 7.69656L1.56988 7.75134C1.63399 7.76843 1.6808 7.82346 1.6874 7.88948C1.69517 7.96711 1.64559 8.03895 1.57025 8.05923L1.53925 8.06758C1.36768 8.11377 1.33991 8.34548 1.4957 8.43092L1.63351 8.50649C1.7296 8.55919 1.75033 8.68831 1.67554 8.76843C1.5882 8.86201 1.63343 9.01499 1.75761 9.04609C2.06249 9.12244 2.36557 9.1988 2.66088 9.27516C2.82955 9.31877 3.00859 9.30083 3.16325 9.22065C3.46786 9.06273 3.77246 8.89524 4.07706 8.72628C4.18556 8.66609 4.27963 8.58297 4.35283 8.48279L4.44145 8.36153C4.60031 8.14414 4.60663 7.85071 4.45728 7.62668L4.40227 7.54417C4.34625 7.46014 4.32466 7.3578 4.34196 7.2583ZM12.304 22.3653L11.988 22.4074C11.9545 22.4119 11.9205 22.4122 11.8868 22.4082L11.6398 22.3791C11.573 22.3713 11.511 22.4153 11.4965 22.4809C11.483 22.5416 11.514 22.6035 11.5707 22.629L11.922 22.7871C11.9486 22.7991 11.976 22.8091 12.004 22.8171L12.1017 22.845C12.1224 22.8509 12.1422 22.8598 12.1603 22.8713L12.2465 22.9262C12.3253 22.9764 12.4303 22.9391 12.4598 22.8505C12.4697 22.821 12.4697 22.7891 12.4598 22.7597L12.4449 22.7148C12.4327 22.6783 12.4331 22.6388 12.4461 22.6026L12.4645 22.5511C12.5013 22.4478 12.4115 22.3438 12.304 22.3653ZM10.2126 21.0656C10.1908 21.0842 10.1622 21.0928 10.1337 21.0893C10.0619 21.0803 10.0039 21.1472 10.0229 21.217L10.0511 21.3205C10.0545 21.3329 10.0565 21.3457 10.0571 21.3586L10.0786 21.8528C10.0799 21.8839 10.0929 21.9133 10.1149 21.9353C10.1635 21.9839 10.2422 21.9839 10.2908 21.9353L10.3104 21.9157C10.335 21.8911 10.3697 21.8796 10.4041 21.8845C10.4672 21.8935 10.5247 21.8474 10.5298 21.7839L10.5619 21.3824C10.5667 21.3227 10.5517 21.263 10.5193 21.2126L10.4373 21.085C10.3909 21.0127 10.2912 20.9982 10.226 21.0541L10.2126 21.0656ZM9.06397 10.9973C9.08914 11.1735 9.18737 11.3322 9.33318 11.4343C9.49552 11.5479 9.70284 11.5805 9.89179 11.5209C9.99949 11.4868 10.0962 11.4248 10.1721 11.3411L10.4692 11.0132C10.6158 10.8515 10.8772 10.8783 10.9879 11.0664C11.002 11.0904 11.0129 11.116 11.0204 11.1427L11.2778 12.0553L11.5505 12.7369C11.5641 12.771 11.5748 12.8063 11.5823 12.8423L11.6443 13.1399C11.6724 13.2747 11.795 13.3686 11.9325 13.3605C12.0399 13.3542 12.134 13.2863 12.174 13.1864L12.2241 13.061C12.2707 12.9445 12.3922 12.8762 12.5159 12.8968C12.6467 12.9186 12.7737 12.8411 12.8141 12.7149L12.9207 12.3817C12.933 12.3433 12.9418 12.3039 12.947 12.2639L13.0583 11.4103C13.0756 11.2784 13.1552 11.1628 13.2723 11.0997C13.357 11.0541 13.4232 10.9804 13.4594 10.8913L13.5633 10.6355C13.6605 10.3961 13.6197 10.1227 13.4568 9.92213C13.4213 9.87848 13.3911 9.83075 13.367 9.77997L13.3427 9.7291C13.224 9.47986 13.1965 9.19689 13.2649 8.92944L13.312 8.74536C13.3878 8.44912 13.5419 8.17872 13.7581 7.9625L14.1119 7.60873L14.484 7.17187C14.6053 7.02946 14.6638 6.84398 14.646 6.65775C14.6323 6.51358 14.6642 6.36874 14.7372 6.24365L14.8466 6.05603C14.9246 5.9223 15.045 5.81845 15.1888 5.76095L15.2141 5.75082C15.4378 5.66135 15.6926 5.70299 15.8762 5.85901L15.9573 5.92797C16.0275 5.98766 16.0731 6.07126 16.0853 6.16261C16.1037 6.30057 16.0437 6.43727 15.9296 6.51708L15.9082 6.53209C15.8834 6.54944 15.8606 6.56944 15.8402 6.59173L15.1768 7.31538C15.1022 7.3968 15.0344 7.48425 14.9743 7.57685L14.81 7.82949C14.7682 7.89389 14.7331 7.96242 14.7052 8.034C14.6212 8.25007 14.6063 8.48689 14.6625 8.7118L14.7058 8.8851C14.7331 8.99433 14.7414 9.10747 14.7301 9.2195L14.7031 9.49038C14.685 9.67144 14.7651 9.84836 14.9132 9.95413L14.9317 9.96738C14.987 10.0068 15.0317 10.0592 15.062 10.1199C15.1492 10.2943 15.3459 10.3847 15.535 10.3374L15.7415 10.2858C15.7788 10.2765 15.8154 10.264 15.8506 10.2484L16.245 10.0749C16.3532 10.0273 16.4686 9.99838 16.5864 9.98931C16.8778 9.96689 17.1466 9.82359 17.3295 9.59556C17.5802 9.28308 17.8278 8.97612 18.0646 8.65884C18.1005 8.61071 18.1277 8.55673 18.1456 8.49943C18.2043 8.31162 18.1565 8.10677 18.0206 7.96444L17.9451 7.88531C17.8104 7.74425 17.7606 7.54241 17.8142 7.35491C17.8528 7.21982 17.8382 7.07507 17.7733 6.95042L17.7204 6.84858C17.6157 6.64735 17.5972 6.41229 17.6689 6.19712L17.6865 6.14425C17.7603 5.92276 17.7518 5.68207 17.6623 5.46641L17.5031 5.08238C17.4283 4.90187 17.4325 4.69825 17.5148 4.52101C17.6297 4.27361 17.5899 3.98198 17.413 3.77434L17.3103 3.65375C17.202 3.52664 17.148 3.36207 17.1599 3.19551L17.1717 3.03118C17.1829 2.87388 17.2877 2.73882 17.4373 2.68895C17.4679 2.67876 17.4971 2.66482 17.5243 2.64745L17.7871 2.47926C17.9575 2.37015 18.0091 2.14455 17.9031 1.97217L17.8151 1.8292C17.7538 1.72964 17.7868 1.59916 17.8879 1.54059C18.0188 1.46484 18.0274 1.27916 17.9042 1.19155L17.3416 0.791484C17.17 0.669414 16.9499 0.637849 16.7508 0.706752L16.5854 0.764005C16.4848 0.798846 16.378 0.812611 16.2718 0.804441C15.9808 0.782055 15.7018 0.924739 15.5496 1.17379L15.4622 1.31684C15.3383 1.51954 15.1107 1.63504 14.874 1.61531C14.7438 1.60446 14.6134 1.63448 14.5011 1.70118L14.1826 1.89027C13.9906 2.00429 13.8217 2.15336 13.6844 2.32955C13.2895 2.83659 12.8925 3.34169 12.4825 3.83371C12.3806 3.95607 12.2924 4.08932 12.2212 4.23176C11.8002 5.07332 11.3779 5.91356 10.9387 6.73687C10.872 6.86184 10.7917 6.979 10.6998 7.08676L10.2905 7.56656C10.1836 7.69192 10.0616 7.80359 9.92729 7.89902L9.37302 8.29285C9.25946 8.37354 9.16216 8.47494 9.08625 8.59174C8.95473 8.79408 8.89298 9.03387 8.91042 9.27456L9.0057 10.5894L9.06397 10.9973ZM22.7894 22.3564C22.8023 22.3306 22.8059 22.301 22.7995 22.2728L22.7091 21.8752C22.6963 21.8187 22.7237 21.7607 22.7755 21.7348C22.8523 21.6964 22.8689 21.5941 22.8082 21.5334L22.8019 21.5271C22.7907 21.5159 22.7776 21.5068 22.7632 21.5003L22.6746 21.46C22.5801 21.4171 22.524 21.3183 22.5354 21.2151C22.5389 21.1841 22.5363 21.1527 22.5277 21.1227L22.5239 21.1095C22.5032 21.0371 22.4569 20.9747 22.3935 20.934L22.3095 20.8799C22.2057 20.8133 22.0834 20.7817 21.9603 20.7899L21.9364 20.7915C21.8357 20.7982 21.738 20.8283 21.6511 20.8795L21.542 20.9437C21.4296 21.0098 21.2975 21.0343 21.1688 21.0128C21.1066 21.0024 21.043 21.0027 20.9809 21.0137L20.9071 21.0267C20.7446 21.0554 20.5774 21.0431 20.4209 20.9909L20.2859 20.9459C20.1931 20.915 20.1034 20.8754 20.0181 20.8276L19.8445 20.7303C19.642 20.6169 19.4117 20.5574 19.1796 20.5574C19.028 20.5574 18.8762 20.5832 18.7333 20.6336L18.6738 20.6546C18.5811 20.6873 18.4942 20.7344 18.4161 20.7941L18.3071 20.8774C18.1861 20.97 18.0341 21.0125 17.8826 20.9963L17.6466 20.971C17.5212 20.9576 17.4021 21.0292 17.3553 21.1463C17.3143 21.2489 17.2171 21.318 17.1067 21.323L16.9322 21.3309C16.816 21.3362 16.7069 21.3882 16.6296 21.4752L16.4766 21.6472C16.4109 21.7212 16.4142 21.8336 16.4842 21.9036C16.5411 21.9605 16.5552 22.0474 16.5192 22.1193L16.496 22.1656C16.4442 22.2692 16.4677 22.3947 16.5534 22.4727L16.624 22.5369C16.6591 22.5688 16.688 22.607 16.7093 22.6494L16.7819 22.7947C16.8525 22.9358 16.9967 23.0249 17.1545 23.0249C17.2413 23.0249 17.3259 23.0521 17.3965 23.1025L17.5384 23.2039C17.5968 23.2456 17.6699 23.2613 17.7403 23.2472L17.7963 23.236C17.8451 23.2262 17.886 23.1931 17.9056 23.1473C17.9308 23.0886 17.9902 23.052 18.0539 23.056L18.2146 23.0661C18.2951 23.0711 18.3719 23.1016 18.4338 23.1533L18.4679 23.1816C18.5727 23.269 18.708 23.3112 18.844 23.2988L19.042 23.2808C19.1242 23.2733 19.2011 23.2373 19.2594 23.179L19.2626 23.1758C19.355 23.0834 19.4918 23.0511 19.6159 23.0924L19.6952 23.1189C19.7027 23.1214 19.7107 23.1218 19.7184 23.1201L19.7543 23.1121C19.7925 23.1036 19.8148 23.1536 19.783 23.1763C19.7675 23.1874 19.7633 23.2085 19.7734 23.2246L19.8078 23.2796C19.8435 23.3368 19.9232 23.3459 19.9709 23.2982C19.9948 23.2743 20.0185 23.2506 20.0449 23.2242C20.0631 23.2059 20.0745 23.1819 20.0771 23.1563L20.0855 23.0724C20.0907 23.0204 20.1515 22.9948 20.1923 23.0275C20.2094 23.0412 20.2322 23.0455 20.2532 23.0389L20.4802 22.968C20.5647 22.9416 20.6556 22.9441 20.7385 22.9752C20.7832 22.9919 20.8305 23.0005 20.8782 23.0005H20.9463C21.0473 23.0005 21.1473 22.9807 21.2407 22.9423L21.3916 22.8801C21.4728 22.8467 21.5597 22.8295 21.6475 22.8295C21.6891 22.8295 21.7306 22.8256 21.7714 22.818L22.0495 22.7658C22.0836 22.7594 22.1166 22.7483 22.1477 22.7328C22.2128 22.7003 22.286 22.6874 22.3583 22.6959L22.6047 22.7249C22.6423 22.7294 22.6774 22.7464 22.7042 22.7732L22.7345 22.8035C22.765 22.8339 22.8109 22.8428 22.8505 22.8258C22.9073 22.8015 22.931 22.7339 22.902 22.6794L22.7909 22.4711C22.7719 22.4354 22.7713 22.3926 22.7894 22.3564Z"/>
</mask>
<path fill-rule="evenodd" clip-rule="evenodd" d="M11.1376 13.0298C11.0338 13.0743 10.9745 13.1846 10.9947 13.2956C11.004 13.3469 11.0296 13.3938 11.0677 13.4293L11.0783 13.4392C11.223 13.5742 11.4578 13.5247 11.5357 13.3429L11.5577 13.2915C11.5819 13.2351 11.5831 13.1715 11.5611 13.1142C11.5131 12.9896 11.3712 12.9297 11.2485 12.9823L11.1376 13.0298ZM10.2369 20.8C10.2936 20.8378 10.3706 20.8113 10.3922 20.7467L10.4578 20.5498C10.4669 20.5226 10.4698 20.4937 10.4665 20.4653L10.4535 20.3549C10.4405 20.2446 10.3088 20.1945 10.2258 20.2683C10.2107 20.2817 10.1987 20.2983 10.1908 20.3168L10.1731 20.358C10.1448 20.4241 10.1382 20.4974 10.1544 20.5674L10.1936 20.7373C10.1995 20.763 10.215 20.7854 10.2369 20.8ZM5.11154 13.1596C5.11456 13.2349 5.21222 13.2624 5.25403 13.1996C5.28424 13.1543 5.35045 13.1532 5.3821 13.1976L5.40393 13.2281C5.42546 13.2583 5.42928 13.2976 5.41395 13.3313L5.3522 13.4672C5.3295 13.5171 5.32888 13.5743 5.35049 13.6247C5.37521 13.6824 5.42618 13.7247 5.48744 13.7383L5.62907 13.7698C5.75711 13.7982 5.86907 13.8773 5.94214 13.9862C5.97363 14.0331 6.00536 14.0816 6.0349 14.1329C6.06165 14.1792 6.06988 14.2336 6.06231 14.2866C6.04175 14.4306 5.90808 14.5327 5.76302 14.5227C5.75809 14.5223 5.75314 14.522 5.74819 14.5216C5.60151 14.5115 5.46646 14.6111 5.43937 14.7556L5.43189 14.7955C5.42057 14.8559 5.43213 14.9183 5.46433 14.9706L5.4967 15.0232C5.55691 15.1211 5.5184 15.2495 5.41428 15.2981L5.3817 15.3133C5.30484 15.3492 5.27087 15.44 5.30531 15.5175L5.3088 15.5254C5.32878 15.5703 5.3709 15.6013 5.4195 15.609C5.47351 15.6176 5.52608 15.6276 5.57833 15.638C5.6713 15.6564 5.68958 15.794 5.60353 15.8337C5.59152 15.8393 5.58081 15.8473 5.5721 15.8572L5.16472 16.3228C5.11623 16.3782 5.12889 16.4639 5.19133 16.5029C5.23655 16.5312 5.29502 16.5261 5.33466 16.4904L5.41222 16.4206C5.47477 16.3643 5.56085 16.342 5.64285 16.361L5.68027 16.3696C5.77251 16.3909 5.86906 16.3607 5.93274 16.2906L5.98526 16.2329C6.03707 16.1759 6.12152 16.1625 6.1884 16.2007C6.22473 16.2215 6.26761 16.2276 6.3083 16.2178L6.75088 16.1116C6.82054 16.0949 6.89194 16.0864 6.96358 16.0864H7.17203C7.26713 16.0864 7.35874 16.0506 7.42862 15.9861L7.51459 15.9068C7.58742 15.8395 7.60704 15.7323 7.56271 15.6436C7.51986 15.5579 7.53666 15.4544 7.60442 15.3866L7.60732 15.3837C7.64277 15.3483 7.66556 15.3021 7.67219 15.2525L7.67566 15.2265C7.69583 15.0752 7.6014 14.9322 7.45437 14.8914L7.43051 14.8847C7.33004 14.8568 7.24834 14.7836 7.20962 14.6868L7.17335 14.5961L6.9969 14.0472C6.96939 13.9616 6.90515 13.8927 6.82167 13.8593C6.74946 13.8305 6.69095 13.7749 6.66005 13.7035C6.57291 13.5023 6.49571 13.301 6.40792 13.0998C6.38321 13.0431 6.32864 13.0055 6.26697 13.0014C6.1436 12.9932 6.07114 12.8589 6.13199 12.7513L6.28776 12.4757C6.30794 12.44 6.322 12.4011 6.32934 12.3608L6.35294 12.2309C6.38577 12.0504 6.24709 11.8843 6.06361 11.8843H6.04622C6.03218 11.8843 6.01821 11.8861 6.00465 11.8897C5.87031 11.9255 5.75659 11.786 5.81877 11.6617L5.85837 11.5824C5.92996 11.4393 5.81384 11.2739 5.65487 11.2926L5.63933 11.2944C5.61971 11.2967 5.59985 11.2963 5.58036 11.293L5.56245 11.29C5.4163 11.2657 5.27135 11.3395 5.20509 11.472L5.09179 11.6986C5.06263 11.7569 5.042 11.8191 5.03054 11.8833L4.96381 12.257C4.93911 12.3953 4.96192 12.5379 5.02852 12.6616L5.07647 12.7507C5.08977 12.7754 5.09727 12.8028 5.09839 12.8308L5.11154 13.1596ZM15.3081 22.6229C15.2886 22.5577 15.3524 22.4985 15.416 22.523L15.4454 22.5343C15.5092 22.5588 15.5777 22.5117 15.5777 22.4434V22.4047C15.5777 22.3646 15.5584 22.3271 15.5258 22.3038L15.4298 22.2352C15.4145 22.2242 15.4004 22.2116 15.3879 22.1975L15.2649 22.0592C15.2358 22.0264 15.2401 21.9758 15.2744 21.9484C15.3071 21.9222 15.3127 21.8745 15.287 21.8414L15.1912 21.7183C15.1722 21.6938 15.1582 21.6658 15.1501 21.6359L15.098 21.4449C15.0924 21.4244 15.0966 21.4026 15.1093 21.3856C15.1362 21.3497 15.1897 21.3489 15.2178 21.3839L15.3048 21.4928C15.3384 21.5347 15.3891 21.5591 15.4428 21.5591H15.5296C15.5452 21.5591 15.5607 21.5559 15.5751 21.5497C15.6482 21.5184 15.6686 21.4245 15.6151 21.3657L15.6111 21.3612C15.551 21.2951 15.5816 21.1888 15.6677 21.1649L15.8583 21.1119C15.8986 21.1008 15.9411 21.1002 15.9817 21.1103L16.1152 21.1437L16.2598 21.1598C16.3027 21.1646 16.3351 21.2008 16.3351 21.2439C16.3351 21.2583 16.3388 21.2725 16.3458 21.2851L16.3567 21.3047C16.4089 21.3987 16.5347 21.4231 16.6182 21.3555C16.6771 21.3079 16.7357 21.259 16.79 21.2076C16.8621 21.1394 16.9532 21.0916 17.0523 21.0857L17.2666 21.0731C17.2953 21.0714 17.3212 21.0557 17.3359 21.0312C17.3625 20.9869 17.3448 20.9294 17.2979 20.9078L17.1607 20.8444C17.1019 20.8173 17.0578 20.7659 17.04 20.7036L17.0262 20.6553C17.0215 20.6389 17.0156 20.6229 17.0085 20.6074L16.9708 20.5257C16.9078 20.3894 16.9009 20.2339 16.9514 20.0925L16.9564 20.0784C16.9817 20.0077 17.0223 19.9435 17.0754 19.8904L17.1098 19.856C17.1621 19.8037 17.1967 19.7363 17.2089 19.6634L17.2751 19.2665C17.2815 19.2281 17.3232 19.2068 17.358 19.2242C17.3753 19.2329 17.3957 19.2323 17.4125 19.2227L17.4889 19.1791C17.5308 19.1551 17.5567 19.1106 17.5567 19.0623C17.5567 19.0336 17.5658 19.0058 17.5827 18.9827L17.79 18.7001C17.8135 18.668 17.8332 18.6332 17.8485 18.5964L17.9079 18.4539C17.9328 18.394 17.985 18.3499 18.0482 18.3353L18.1476 18.3124C18.2105 18.2979 18.2721 18.3409 18.2802 18.405C18.2858 18.4504 18.3194 18.4875 18.3641 18.4976L18.7935 18.5952C18.8153 18.6002 18.8347 18.6124 18.8486 18.6298C18.8879 18.6788 18.8719 18.7515 18.8157 18.7796L18.5992 18.8878C18.5884 18.8932 18.579 18.9011 18.5718 18.9107C18.5406 18.9522 18.5581 19.012 18.6067 19.0302L18.7747 19.0932C18.8454 19.1198 18.8835 19.1966 18.8618 19.269C18.8418 19.3358 18.8727 19.4075 18.9352 19.4387L18.9454 19.4438C18.9934 19.4678 19.0505 19.4657 19.0966 19.438L19.4315 19.2371C19.4843 19.2053 19.5416 19.1816 19.6014 19.1667L19.86 19.102C19.8865 19.0954 19.9084 19.0768 19.9192 19.0516C19.9449 18.9916 19.8981 18.9256 19.833 18.93L19.6748 18.9405C19.6322 18.9434 19.5899 18.9314 19.5552 18.9065L19.5347 18.8919C19.4734 18.8481 19.4345 18.7793 19.4288 18.7041L19.4271 18.6819C19.4187 18.5727 19.4698 18.4676 19.5609 18.4068L19.6155 18.3705C19.6752 18.3306 19.7443 18.307 19.8159 18.3019L19.8852 18.2969C19.9922 18.2893 20.0951 18.2528 20.1829 18.1913L20.2416 18.1502C20.2754 18.1265 20.3141 18.1107 20.3548 18.1039L20.4456 18.0888C20.5267 18.0753 20.5862 18.0051 20.5862 17.9229C20.5862 17.8738 20.6076 17.8271 20.6449 17.7951L20.6909 17.7557C20.7342 17.7186 20.7872 17.6946 20.8436 17.6866L20.9746 17.6679C21.0504 17.657 21.1128 17.6026 21.1338 17.529C21.1432 17.4963 21.1437 17.4616 21.1355 17.4286L21.1173 17.3559C21.0899 17.2462 21.1026 17.1302 21.1532 17.0291L21.2023 16.9309C21.2148 16.9058 21.2214 16.8781 21.2214 16.85C21.2214 16.7731 21.1728 16.7047 21.1003 16.6793L20.7814 16.5677C20.7492 16.5564 20.7153 16.5506 20.6812 16.5506H20.6764C20.5883 16.5506 20.505 16.5111 20.4492 16.443L20.4328 16.423C20.3637 16.3385 20.2487 16.3069 20.1461 16.3442C20.0836 16.3669 20.0147 16.3645 19.9539 16.3375L19.6744 16.2133C19.6346 16.1956 19.6089 16.1561 19.6089 16.1125C19.6089 16.0954 19.6049 16.0785 19.5973 16.0632L19.5412 15.9509C19.5074 15.8834 19.4408 15.8383 19.3655 15.832L19.3052 15.827C19.2399 15.8216 19.187 15.7717 19.1777 15.7069L19.1772 15.703C19.1721 15.6671 19.182 15.6306 19.2047 15.6022C19.2415 15.5563 19.2432 15.4915 19.209 15.4435L19.1308 15.334C19.0642 15.2408 18.9515 15.192 18.838 15.2071L18.679 15.2283C18.6639 15.2303 18.6485 15.2294 18.6337 15.2257C18.5878 15.2143 18.5394 15.2306 18.5099 15.2675L18.4991 15.281C18.4755 15.3105 18.4373 15.3244 18.4002 15.317C18.3624 15.3094 18.3322 15.2811 18.3223 15.2438L18.2408 14.9382L18.1889 14.8C18.1764 14.7665 18.1886 14.7287 18.2184 14.7088C18.2329 14.6991 18.2502 14.6946 18.2676 14.6961L18.4744 14.7133C18.5125 14.7165 18.5504 14.7045 18.5799 14.68C18.6371 14.6323 18.6492 14.5492 18.6079 14.4872C18.5915 14.4627 18.5681 14.4437 18.5408 14.4327L18.3902 14.3725C18.3606 14.3607 18.3443 14.3287 18.352 14.2978C18.3585 14.2716 18.3479 14.2441 18.3255 14.2291L18.2538 14.1814C18.2292 14.1649 18.2088 14.1429 18.1944 14.1169L18.0319 13.8245C17.9941 13.7564 17.99 13.6747 18.0206 13.6032C18.0368 13.5654 18.0435 13.5242 18.0401 13.4832L18.0382 13.4597C18.0275 13.3322 17.9473 13.2209 17.8296 13.1705L17.7324 13.1288C17.698 13.114 17.6593 13.1131 17.6243 13.1263L17.5857 13.1408C17.5298 13.1617 17.4677 13.1321 17.4488 13.0755C17.4397 13.0481 17.4197 13.0256 17.3935 13.0134L17.2513 12.947C17.1343 12.8924 17.0449 12.7921 17.0041 12.6697L16.969 12.5643C16.9536 12.5183 16.944 12.4706 16.9403 12.4223L16.927 12.249C16.9234 12.2032 16.9019 12.1606 16.867 12.1307C16.8005 12.0737 16.787 11.976 16.8356 11.9031L16.8524 11.878C16.8811 11.8349 16.8927 11.7826 16.8848 11.7314L16.8289 11.3683C16.8098 11.2441 16.836 11.1171 16.9026 11.0105L17.015 10.8307C17.033 10.8019 17.0362 10.7662 17.0235 10.7346C17.0064 10.6917 16.9635 10.6647 16.9175 10.6678L16.7032 10.6821C16.6537 10.6854 16.604 10.6795 16.5566 10.6647L16.4673 10.6368C16.3167 10.5897 16.1563 10.5829 16.0022 10.6172L15.8568 10.6495C15.8174 10.6583 15.7791 10.6709 15.7423 10.6873L15.5963 10.7522C15.453 10.8159 15.3644 10.962 15.3741 11.1186L15.3762 11.1516C15.3801 11.2147 15.4053 11.2746 15.4476 11.3216L15.5739 11.4619C15.5903 11.4802 15.6174 11.4842 15.6384 11.4716C15.6743 11.4501 15.7193 11.4782 15.7152 11.5198C15.6947 11.7289 15.6648 11.9474 15.6425 12.1583C15.6323 12.2538 15.5565 12.3299 15.4607 12.3378C15.3833 12.3443 15.3093 12.3046 15.2719 12.2366L15.2162 12.1353C15.1343 11.9863 14.9433 11.9379 14.8002 12.0298C14.7497 12.0623 14.7104 12.1095 14.6875 12.165L14.6121 12.3481C14.5721 12.4454 14.5489 12.5487 14.5437 12.6537L14.5304 12.919C14.5283 12.9619 14.5315 13.005 14.5399 13.0472L14.5604 13.1495C14.5978 13.3366 14.4964 13.5237 14.3193 13.5946L14.2384 13.6269C14.1741 13.6526 14.1256 13.707 14.1074 13.7738L14.1057 13.78C14.0805 13.8724 13.9966 13.9365 13.9008 13.9365H13.8061C13.757 13.9365 13.7151 13.901 13.707 13.8525C13.7006 13.8143 13.6728 13.7831 13.6355 13.7725L13.4776 13.7274C13.398 13.7046 13.3128 13.7097 13.2373 13.7437C12.9457 13.8751 12.6681 14.0227 12.3731 14.1707C12.3596 14.1774 12.3466 14.1851 12.3343 14.1938L12.2912 14.2239C12.1873 14.2967 12.0452 14.2795 11.9617 14.184C11.9456 14.1657 11.927 14.1498 11.9063 14.1369L11.7181 14.0192C11.6162 13.9556 11.4833 13.9674 11.3929 14.0465C11.3656 14.0704 11.3333 14.0887 11.2986 14.0995L11.1004 14.1614C11.0308 14.1832 10.9602 14.1312 10.9602 14.0584C10.9602 14.0143 10.9333 13.9746 10.8924 13.9582L10.7767 13.912C10.6662 13.8678 10.5937 13.7607 10.5937 13.6417C10.5937 13.6104 10.5887 13.5793 10.5788 13.5496L10.5402 13.434C10.512 13.3492 10.5195 13.2566 10.5611 13.1775L10.7134 12.8883C10.7275 12.8614 10.7623 12.8536 10.7866 12.8718C10.8125 12.8912 10.8499 12.8808 10.8619 12.8506L10.8954 12.7671C10.9182 12.71 10.8935 12.6449 10.8384 12.6174L10.8112 12.6038C10.7668 12.5816 10.7361 12.539 10.7291 12.4898L10.7246 12.4579C10.7189 12.4183 10.7245 12.3779 10.7408 12.3414L10.7995 12.2093C10.8088 12.1883 10.8136 12.1655 10.8136 12.1425C10.8136 12.0113 10.6673 11.9329 10.5581 12.0058L10.5466 12.0134C10.5293 12.0249 10.5142 12.0395 10.5021 12.0565L10.4694 12.1023C10.4238 12.1662 10.3551 12.2097 10.2779 12.2237C10.1845 12.2407 10.1046 12.3007 10.0621 12.3856L10.0471 12.4155C10.0369 12.4359 10.0287 12.4572 10.0224 12.4791L10.0123 12.5144C9.99283 12.5826 9.98295 12.6532 9.98295 12.7241V13.048C9.98295 13.1829 10.0104 13.3163 10.0635 13.4403C10.1072 13.5424 10.1336 13.651 10.1415 13.7617L10.1509 13.8939C10.153 13.9222 10.1585 13.9501 10.1675 13.977L10.1931 14.0537C10.2143 14.1175 10.2011 14.1878 10.158 14.2395L10.0462 14.3737C10.0153 14.4108 9.95697 14.4063 9.93212 14.3648C9.91837 14.3419 9.89278 14.3288 9.86613 14.331L9.68746 14.3459C9.6429 14.3496 9.60284 14.3746 9.57983 14.4129C9.55683 14.4512 9.51677 14.4762 9.4722 14.4799L9.33008 14.4917C9.27719 14.4961 9.22562 14.5106 9.17814 14.5343L9.08972 14.5786C8.87874 14.684 8.7157 14.8657 8.63357 15.0868L8.49038 15.4723C8.45981 15.5546 8.4088 15.6278 8.34215 15.6849C8.29625 15.7243 8.24379 15.7553 8.18718 15.7765C8.09905 15.8095 8.01091 15.8426 7.92278 15.8756C7.77557 15.9309 7.66679 16.0575 7.6344 16.2113C7.60551 16.3485 7.51559 16.465 7.39019 16.5277L6.83031 16.8077C6.78583 16.8299 6.73271 16.8257 6.69224 16.7968C6.5932 16.7261 6.45869 16.8131 6.48256 16.9324L6.49116 16.9754C6.51298 17.0845 6.41371 17.1792 6.30574 17.1522L6.03369 17.0842C5.97995 17.0707 5.9237 17.0711 5.87014 17.0852L5.69839 17.1304C5.57589 17.1626 5.49328 17.277 5.50119 17.4034C5.50777 17.5087 5.57611 17.6001 5.67525 17.6361L5.9135 17.7228C6.00308 17.7553 6.08444 17.8071 6.15184 17.8745L6.23841 17.9611C6.29152 18.0142 6.33955 18.0722 6.38186 18.1342L6.39587 18.1548C6.58291 18.4291 6.67153 18.7587 6.6473 19.0898L6.61829 19.4863C6.61378 19.548 6.59521 19.6079 6.56402 19.6614C6.488 19.7917 6.34605 19.8692 6.19533 19.8626L5.87849 19.8489L5.79283 19.856C5.65486 19.8675 5.51607 19.8646 5.37869 19.8475L5.19441 19.8244H4.82013C4.76037 19.8244 4.70079 19.8179 4.64245 19.8049L4.47125 19.7669C4.35605 19.7413 4.2354 19.7652 4.13873 19.8329L3.96219 19.9565C3.87304 20.0189 3.85005 20.1411 3.91041 20.2316C3.93505 20.2686 3.9467 20.3127 3.94354 20.357L3.92949 20.5536C3.92583 20.6048 3.92765 20.6563 3.93491 20.7072L3.93811 20.7295C3.94495 20.7774 3.95807 20.8242 3.97714 20.8687C4.00655 20.9373 4.02171 21.0112 4.02171 21.0859V21.091C4.02171 21.1422 4.01488 21.1932 4.00141 21.2426L3.95832 21.4006C3.95173 21.4248 3.94686 21.4494 3.94375 21.4743L3.93745 21.5247C3.92867 21.5949 3.89942 21.661 3.85335 21.7148C3.80397 21.7724 3.77401 21.8441 3.76771 21.9197L3.75848 22.0304C3.75486 22.0738 3.76194 22.1175 3.77911 22.1576L3.80148 22.2098C3.81724 22.2465 3.84798 22.2748 3.88594 22.2875C3.93873 22.3051 3.9761 22.3522 3.98114 22.4077L3.99508 22.561C3.99654 22.577 3.99613 22.5933 3.99384 22.6093L3.96914 22.7822C3.9594 22.8503 4.02311 22.9059 4.08931 22.887C4.10887 22.8814 4.12972 22.8822 4.14878 22.8894L4.21762 22.9152C4.27775 22.9377 4.34536 22.9263 4.39469 22.8851C4.43685 22.85 4.49282 22.8362 4.54647 22.8477L4.62474 22.8645C4.73648 22.8884 4.82897 22.9664 4.87141 23.0725L4.88056 23.0954C4.89426 23.1297 4.91327 23.1615 4.93688 23.1899L4.97784 23.239C5.00716 23.2742 5.04849 23.2973 5.09384 23.3038C5.15648 23.3127 5.21935 23.289 5.26053 23.241L5.31156 23.1814C5.3311 23.1587 5.35366 23.1387 5.37864 23.122L5.40982 23.1012C5.50832 23.0356 5.62406 23.0005 5.74244 23.0005C5.85628 23.0005 5.96759 23.0005 6.08046 23.0005C6.24502 23.0005 6.39945 22.921 6.49509 22.7871L6.52573 22.7443C6.56563 22.6884 6.62154 22.6459 6.68606 22.6224C6.79215 22.5839 6.87215 22.4951 6.89953 22.3856L6.91092 22.34C6.92277 22.2926 6.94729 22.2493 6.98184 22.2148L6.99161 22.205C7.07039 22.1262 7.08785 22.005 7.0345 21.9072C6.99865 21.8414 6.99399 21.7631 7.0218 21.6936L7.08838 21.5272C7.11231 21.4673 7.14524 21.4115 7.18604 21.3617L7.31796 21.2004C7.33526 21.1793 7.34673 21.154 7.35122 21.127C7.36182 21.0634 7.41032 21.0128 7.47341 20.9996L7.69894 20.9521C7.78666 20.9336 7.86769 20.8916 7.93338 20.8306L8.01832 20.7518C8.11716 20.66 8.16788 20.5276 8.15567 20.3933L8.15515 20.3875C8.15213 20.3543 8.15338 20.3208 8.15886 20.2879C8.18366 20.1391 8.29189 20.0179 8.43693 19.9765L8.57635 19.9366C8.66598 19.911 8.76022 19.906 8.85208 19.9218L9.16315 19.9754C9.32662 20.0036 9.49417 19.958 9.62079 19.8509L9.68895 19.7932C9.72147 19.7657 9.76082 19.7474 9.80284 19.7404C9.85615 19.7316 9.90481 19.7047 9.94072 19.6643L10.0427 19.5495C10.0677 19.5214 10.0986 19.4991 10.1332 19.4843C10.2077 19.4524 10.293 19.4576 10.363 19.4985L10.5174 19.5886C10.5357 19.5992 10.5551 19.6075 10.5754 19.6133C10.6623 19.6381 10.7294 19.7075 10.7513 19.7952L10.801 19.9938C10.8253 20.0911 10.8734 20.1809 10.9408 20.2551L11.0824 20.4108L11.4 20.7284L11.5835 20.8785C11.639 20.924 11.7069 20.9518 11.7784 20.9583L11.7946 20.9597C11.8856 20.968 11.9692 21.015 12.024 21.0881C12.0629 21.14 12.117 21.1792 12.1786 21.1997L12.2003 21.2069C12.2667 21.229 12.3215 21.2766 12.3528 21.3392L12.3685 21.3706C12.3898 21.4131 12.427 21.4453 12.472 21.4604C12.5205 21.4765 12.5595 21.5128 12.5811 21.5591C12.6342 21.6734 12.6952 21.7862 12.7493 21.89C12.7762 21.9415 12.7705 22.0038 12.7357 22.0503C12.7248 22.0647 12.7166 22.081 12.7114 22.0983L12.6507 22.3009C12.6476 22.3112 12.646 22.3219 12.646 22.3326V22.3592C12.646 22.4135 12.6948 22.4549 12.7484 22.446C12.7762 22.4413 12.8 22.4237 12.8126 22.3985L12.9598 22.1041C12.9775 22.0687 13.0112 22.0438 13.0503 22.0373C13.101 22.0289 13.1413 21.9899 13.1514 21.9394L13.1597 21.8977C13.1742 21.8256 13.1445 21.7517 13.0842 21.7095L13.0782 21.7052C12.9983 21.6493 12.9718 21.5426 13.0155 21.4554C13.0565 21.3733 13.1487 21.3293 13.2381 21.3499L13.3551 21.3769C13.3865 21.3842 13.4149 21.401 13.4363 21.4251L13.497 21.4934C13.5444 21.5467 13.6311 21.5326 13.6592 21.467C13.6676 21.4475 13.6693 21.4257 13.6642 21.4051L13.6597 21.3873C13.6519 21.356 13.6343 21.3281 13.6096 21.3074L13.394 21.1278C13.3678 21.1059 13.339 21.0872 13.3086 21.0715C13.1523 20.9905 12.9959 20.8963 12.8396 20.814C12.8046 20.7956 12.797 20.7484 12.8249 20.7205C12.8475 20.6979 12.8475 20.6612 12.8249 20.6386L12.7968 20.6104C12.7784 20.5921 12.7536 20.5818 12.7277 20.5818H12.6338C12.5477 20.5818 12.4652 20.5476 12.4044 20.4868L12.1981 20.2805C12.1386 20.221 12.0866 20.1544 12.0433 20.0823L11.9872 19.9887C11.9222 19.8804 11.8356 19.7865 11.7327 19.7131L11.6299 19.6396C11.5752 19.6006 11.5309 19.5487 11.5008 19.4885L11.47 19.427C11.4408 19.3686 11.436 19.301 11.4567 19.2391C11.4676 19.2062 11.4715 19.1714 11.4681 19.1369L11.4672 19.1282C11.456 19.0166 11.511 18.9086 11.608 18.8521L11.6931 18.8024C11.7245 18.7841 11.7617 18.7788 11.7969 18.7876L11.9486 18.8255C11.9867 18.8351 11.9885 18.866 11.9537 18.8844C11.9419 18.8907 11.9375 18.9036 11.9375 18.917V19.0437C11.9375 19.059 11.9415 19.0741 11.9491 19.0873L11.9534 19.095C11.9874 19.1543 12.0744 19.1499 12.1022 19.0875C12.1196 19.0482 12.164 19.0286 12.2048 19.0422L12.2555 19.0591C12.3136 19.0784 12.3528 19.1328 12.3528 19.1941V19.2074C12.3528 19.2431 12.3647 19.2778 12.3867 19.3061L12.497 19.4479C12.5115 19.4665 12.5071 19.4936 12.4874 19.5067C12.4676 19.5199 12.4633 19.5473 12.4782 19.5659L12.6916 19.8325C12.7259 19.8754 12.7697 19.9097 12.8195 19.9327L12.9409 19.9887C13.0208 20.0256 13.0949 20.0737 13.1612 20.1317L13.1767 20.1452C13.2299 20.1919 13.2876 20.2332 13.3496 20.2674C13.4559 20.3261 13.5556 20.3783 13.6623 20.4373C13.7171 20.4677 13.7635 20.5113 13.7983 20.5634L13.8187 20.594C13.8348 20.6182 13.8556 20.639 13.8798 20.6551L13.8951 20.6654C13.9092 20.6747 13.9212 20.6868 13.9306 20.7008C13.9525 20.7336 13.958 20.7747 13.9455 20.8121L13.9262 20.8699C13.9197 20.8895 13.9156 20.9098 13.914 20.9304L13.895 21.1777C13.893 21.2038 13.8934 21.2302 13.8963 21.2563L13.9039 21.3243C13.9119 21.3961 13.9492 21.4615 14.0071 21.5049L14.0769 21.5573C14.0989 21.5738 14.1119 21.5997 14.1119 21.6272V21.6507C14.1119 21.6694 14.1224 21.6865 14.1391 21.6949C14.1528 21.7017 14.1625 21.7144 14.1655 21.7293L14.1781 21.7926C14.1828 21.8159 14.1919 21.838 14.2051 21.8576C14.252 21.9272 14.3035 22.0014 14.3546 22.0752C14.4535 22.2181 14.5243 22.3782 14.5665 22.5467L14.5761 22.5852L14.639 22.7741C14.6774 22.8892 14.753 22.9882 14.854 23.0555L14.9544 23.1224C14.9785 23.1385 15.0069 23.1471 15.0359 23.1471C15.135 23.1471 15.2057 23.051 15.1761 22.9564L15.1473 22.8643C15.1292 22.8061 15.1646 22.7449 15.2241 22.7316L15.2474 22.7264C15.2939 22.7161 15.3218 22.6685 15.3081 22.6229ZM3.97414 15.5589C4.03674 15.5683 4.1007 15.5572 4.15643 15.5272L4.45201 15.368C4.6174 15.2789 4.75237 15.1424 4.83953 14.976L4.87372 14.9107C4.93939 14.7854 4.96568 14.6431 4.94915 14.5025L4.94118 14.4348C4.93104 14.3486 4.94525 14.2614 4.98219 14.1829C5.06554 14.0057 5.02883 13.7953 4.8904 13.6569L4.84276 13.6093C4.77138 13.5379 4.6722 13.5016 4.57162 13.5099C4.48513 13.5171 4.40475 13.557 4.34564 13.6206C4.22166 13.7538 4.0969 13.8816 3.96818 14.0071C3.79538 14.1755 3.72686 14.426 3.80041 14.6558L3.82824 14.7428C3.85835 14.8369 3.8513 14.9389 3.80855 15.028L3.75356 15.1426C3.66829 15.3202 3.77926 15.5297 3.97414 15.5589ZM4.34196 7.2583C4.38049 7.03677 4.226 6.82802 4.00288 6.80013L3.99381 6.799C3.88671 6.78561 3.77872 6.8158 3.69409 6.8828L3.43273 7.08971C3.31606 7.18208 3.15527 7.19517 3.02519 7.12291C2.89009 7.04785 2.7225 7.06511 2.60554 7.16613L2.57246 7.1947C2.3989 7.34459 2.13834 7.3323 1.97967 7.16672L1.90788 7.09181C1.78054 6.95894 1.59013 6.90743 1.41317 6.95799L1.35806 6.97374C1.25026 7.00454 1.16191 7.08195 1.11721 7.18476C1.02577 7.39507 1.14287 7.63747 1.36445 7.69656L1.56988 7.75134C1.63399 7.76843 1.6808 7.82346 1.6874 7.88948C1.69517 7.96711 1.64559 8.03895 1.57025 8.05923L1.53925 8.06758C1.36768 8.11377 1.33991 8.34548 1.4957 8.43092L1.63351 8.50649C1.7296 8.55919 1.75033 8.68831 1.67554 8.76843C1.5882 8.86201 1.63343 9.01499 1.75761 9.04609C2.06249 9.12244 2.36557 9.1988 2.66088 9.27516C2.82955 9.31877 3.00859 9.30083 3.16325 9.22065C3.46786 9.06273 3.77246 8.89524 4.07706 8.72628C4.18556 8.66609 4.27963 8.58297 4.35283 8.48279L4.44145 8.36153C4.60031 8.14414 4.60663 7.85071 4.45728 7.62668L4.40227 7.54417C4.34625 7.46014 4.32466 7.3578 4.34196 7.2583ZM12.304 22.3653L11.988 22.4074C11.9545 22.4119 11.9205 22.4122 11.8868 22.4082L11.6398 22.3791C11.573 22.3713 11.511 22.4153 11.4965 22.4809C11.483 22.5416 11.514 22.6035 11.5707 22.629L11.922 22.7871C11.9486 22.7991 11.976 22.8091 12.004 22.8171L12.1017 22.845C12.1224 22.8509 12.1422 22.8598 12.1603 22.8713L12.2465 22.9262C12.3253 22.9764 12.4303 22.9391 12.4598 22.8505C12.4697 22.821 12.4697 22.7891 12.4598 22.7597L12.4449 22.7148C12.4327 22.6783 12.4331 22.6388 12.4461 22.6026L12.4645 22.5511C12.5013 22.4478 12.4115 22.3438 12.304 22.3653ZM10.2126 21.0656C10.1908 21.0842 10.1622 21.0928 10.1337 21.0893C10.0619 21.0803 10.0039 21.1472 10.0229 21.217L10.0511 21.3205C10.0545 21.3329 10.0565 21.3457 10.0571 21.3586L10.0786 21.8528C10.0799 21.8839 10.0929 21.9133 10.1149 21.9353C10.1635 21.9839 10.2422 21.9839 10.2908 21.9353L10.3104 21.9157C10.335 21.8911 10.3697 21.8796 10.4041 21.8845C10.4672 21.8935 10.5247 21.8474 10.5298 21.7839L10.5619 21.3824C10.5667 21.3227 10.5517 21.263 10.5193 21.2126L10.4373 21.085C10.3909 21.0127 10.2912 20.9982 10.226 21.0541L10.2126 21.0656ZM9.06397 10.9973C9.08914 11.1735 9.18737 11.3322 9.33318 11.4343C9.49552 11.5479 9.70284 11.5805 9.89179 11.5209C9.99949 11.4868 10.0962 11.4248 10.1721 11.3411L10.4692 11.0132C10.6158 10.8515 10.8772 10.8783 10.9879 11.0664C11.002 11.0904 11.0129 11.116 11.0204 11.1427L11.2778 12.0553L11.5505 12.7369C11.5641 12.771 11.5748 12.8063 11.5823 12.8423L11.6443 13.1399C11.6724 13.2747 11.795 13.3686 11.9325 13.3605C12.0399 13.3542 12.134 13.2863 12.174 13.1864L12.2241 13.061C12.2707 12.9445 12.3922 12.8762 12.5159 12.8968C12.6467 12.9186 12.7737 12.8411 12.8141 12.7149L12.9207 12.3817C12.933 12.3433 12.9418 12.3039 12.947 12.2639L13.0583 11.4103C13.0756 11.2784 13.1552 11.1628 13.2723 11.0997C13.357 11.0541 13.4232 10.9804 13.4594 10.8913L13.5633 10.6355C13.6605 10.3961 13.6197 10.1227 13.4568 9.92213C13.4213 9.87848 13.3911 9.83075 13.367 9.77997L13.3427 9.7291C13.224 9.47986 13.1965 9.19689 13.2649 8.92944L13.312 8.74536C13.3878 8.44912 13.5419 8.17872 13.7581 7.9625L14.1119 7.60873L14.484 7.17187C14.6053 7.02946 14.6638 6.84398 14.646 6.65775C14.6323 6.51358 14.6642 6.36874 14.7372 6.24365L14.8466 6.05603C14.9246 5.9223 15.045 5.81845 15.1888 5.76095L15.2141 5.75082C15.4378 5.66135 15.6926 5.70299 15.8762 5.85901L15.9573 5.92797C16.0275 5.98766 16.0731 6.07126 16.0853 6.16261C16.1037 6.30057 16.0437 6.43727 15.9296 6.51708L15.9082 6.53209C15.8834 6.54944 15.8606 6.56944 15.8402 6.59173L15.1768 7.31538C15.1022 7.3968 15.0344 7.48425 14.9743 7.57685L14.81 7.82949C14.7682 7.89389 14.7331 7.96242 14.7052 8.034C14.6212 8.25007 14.6063 8.48689 14.6625 8.7118L14.7058 8.8851C14.7331 8.99433 14.7414 9.10747 14.7301 9.2195L14.7031 9.49038C14.685 9.67144 14.7651 9.84836 14.9132 9.95413L14.9317 9.96738C14.987 10.0068 15.0317 10.0592 15.062 10.1199C15.1492 10.2943 15.3459 10.3847 15.535 10.3374L15.7415 10.2858C15.7788 10.2765 15.8154 10.264 15.8506 10.2484L16.245 10.0749C16.3532 10.0273 16.4686 9.99838 16.5864 9.98931C16.8778 9.96689 17.1466 9.82359 17.3295 9.59556C17.5802 9.28308 17.8278 8.97612 18.0646 8.65884C18.1005 8.61071 18.1277 8.55673 18.1456 8.49943C18.2043 8.31162 18.1565 8.10677 18.0206 7.96444L17.9451 7.88531C17.8104 7.74425 17.7606 7.54241 17.8142 7.35491C17.8528 7.21982 17.8382 7.07507 17.7733 6.95042L17.7204 6.84858C17.6157 6.64735 17.5972 6.41229 17.6689 6.19712L17.6865 6.14425C17.7603 5.92276 17.7518 5.68207 17.6623 5.46641L17.5031 5.08238C17.4283 4.90187 17.4325 4.69825 17.5148 4.52101C17.6297 4.27361 17.5899 3.98198 17.413 3.77434L17.3103 3.65375C17.202 3.52664 17.148 3.36207 17.1599 3.19551L17.1717 3.03118C17.1829 2.87388 17.2877 2.73882 17.4373 2.68895C17.4679 2.67876 17.4971 2.66482 17.5243 2.64745L17.7871 2.47926C17.9575 2.37015 18.0091 2.14455 17.9031 1.97217L17.8151 1.8292C17.7538 1.72964 17.7868 1.59916 17.8879 1.54059C18.0188 1.46484 18.0274 1.27916 17.9042 1.19155L17.3416 0.791484C17.17 0.669414 16.9499 0.637849 16.7508 0.706752L16.5854 0.764005C16.4848 0.798846 16.378 0.812611 16.2718 0.804441C15.9808 0.782055 15.7018 0.924739 15.5496 1.17379L15.4622 1.31684C15.3383 1.51954 15.1107 1.63504 14.874 1.61531C14.7438 1.60446 14.6134 1.63448 14.5011 1.70118L14.1826 1.89027C13.9906 2.00429 13.8217 2.15336 13.6844 2.32955C13.2895 2.83659 12.8925 3.34169 12.4825 3.83371C12.3806 3.95607 12.2924 4.08932 12.2212 4.23176C11.8002 5.07332 11.3779 5.91356 10.9387 6.73687C10.872 6.86184 10.7917 6.979 10.6998 7.08676L10.2905 7.56656C10.1836 7.69192 10.0616 7.80359 9.92729 7.89902L9.37302 8.29285C9.25946 8.37354 9.16216 8.47494 9.08625 8.59174C8.95473 8.79408 8.89298 9.03387 8.91042 9.27456L9.0057 10.5894L9.06397 10.9973ZM22.7894 22.3564C22.8023 22.3306 22.8059 22.301 22.7995 22.2728L22.7091 21.8752C22.6963 21.8187 22.7237 21.7607 22.7755 21.7348C22.8523 21.6964 22.8689 21.5941 22.8082 21.5334L22.8019 21.5271C22.7907 21.5159 22.7776 21.5068 22.7632 21.5003L22.6746 21.46C22.5801 21.4171 22.524 21.3183 22.5354 21.2151C22.5389 21.1841 22.5363 21.1527 22.5277 21.1227L22.5239 21.1095C22.5032 21.0371 22.4569 20.9747 22.3935 20.934L22.3095 20.8799C22.2057 20.8133 22.0834 20.7817 21.9603 20.7899L21.9364 20.7915C21.8357 20.7982 21.738 20.8283 21.6511 20.8795L21.542 20.9437C21.4296 21.0098 21.2975 21.0343 21.1688 21.0128C21.1066 21.0024 21.043 21.0027 20.9809 21.0137L20.9071 21.0267C20.7446 21.0554 20.5774 21.0431 20.4209 20.9909L20.2859 20.9459C20.1931 20.915 20.1034 20.8754 20.0181 20.8276L19.8445 20.7303C19.642 20.6169 19.4117 20.5574 19.1796 20.5574C19.028 20.5574 18.8762 20.5832 18.7333 20.6336L18.6738 20.6546C18.5811 20.6873 18.4942 20.7344 18.4161 20.7941L18.3071 20.8774C18.1861 20.97 18.0341 21.0125 17.8826 20.9963L17.6466 20.971C17.5212 20.9576 17.4021 21.0292 17.3553 21.1463C17.3143 21.2489 17.2171 21.318 17.1067 21.323L16.9322 21.3309C16.816 21.3362 16.7069 21.3882 16.6296 21.4752L16.4766 21.6472C16.4109 21.7212 16.4142 21.8336 16.4842 21.9036C16.5411 21.9605 16.5552 22.0474 16.5192 22.1193L16.496 22.1656C16.4442 22.2692 16.4677 22.3947 16.5534 22.4727L16.624 22.5369C16.6591 22.5688 16.688 22.607 16.7093 22.6494L16.7819 22.7947C16.8525 22.9358 16.9967 23.0249 17.1545 23.0249C17.2413 23.0249 17.3259 23.0521 17.3965 23.1025L17.5384 23.2039C17.5968 23.2456 17.6699 23.2613 17.7403 23.2472L17.7963 23.236C17.8451 23.2262 17.886 23.1931 17.9056 23.1473C17.9308 23.0886 17.9902 23.052 18.0539 23.056L18.2146 23.0661C18.2951 23.0711 18.3719 23.1016 18.4338 23.1533L18.4679 23.1816C18.5727 23.269 18.708 23.3112 18.844 23.2988L19.042 23.2808C19.1242 23.2733 19.2011 23.2373 19.2594 23.179L19.2626 23.1758C19.355 23.0834 19.4918 23.0511 19.6159 23.0924L19.6952 23.1189C19.7027 23.1214 19.7107 23.1218 19.7184 23.1201L19.7543 23.1121C19.7925 23.1036 19.8148 23.1536 19.783 23.1763C19.7675 23.1874 19.7633 23.2085 19.7734 23.2246L19.8078 23.2796C19.8435 23.3368 19.9232 23.3459 19.9709 23.2982C19.9948 23.2743 20.0185 23.2506 20.0449 23.2242C20.0631 23.2059 20.0745 23.1819 20.0771 23.1563L20.0855 23.0724C20.0907 23.0204 20.1515 22.9948 20.1923 23.0275C20.2094 23.0412 20.2322 23.0455 20.2532 23.0389L20.4802 22.968C20.5647 22.9416 20.6556 22.9441 20.7385 22.9752C20.7832 22.9919 20.8305 23.0005 20.8782 23.0005H20.9463C21.0473 23.0005 21.1473 22.9807 21.2407 22.9423L21.3916 22.8801C21.4728 22.8467 21.5597 22.8295 21.6475 22.8295C21.6891 22.8295 21.7306 22.8256 21.7714 22.818L22.0495 22.7658C22.0836 22.7594 22.1166 22.7483 22.1477 22.7328C22.2128 22.7003 22.286 22.6874 22.3583 22.6959L22.6047 22.7249C22.6423 22.7294 22.6774 22.7464 22.7042 22.7732L22.7345 22.8035C22.765 22.8339 22.8109 22.8428 22.8505 22.8258C22.9073 22.8015 22.931 22.7339 22.902 22.6794L22.7909 22.4711C22.7719 22.4354 22.7713 22.3926 22.7894 22.3564Z" stroke="currentcolor" mask="url(#path-1-inside-1_998_14041)"/>
</svg>
