<svg width="24" height="24" viewBox="0 0 24 24" fill="none" xmlns="http://www.w3.org/2000/svg">
<mask id="path-1-inside-1_998_14039" fill="white">
<path d="M22.9795 12.769C22.9652 12.7213 22.9302 12.6826 22.8843 12.6634L22.8444 12.6468C22.7519 12.6082 22.6902 12.5194 22.6863 12.4192L22.6813 12.2888C22.6747 12.1179 22.5741 11.9646 22.4199 11.8906L22.3103 11.838C22.1865 11.7786 22.0842 11.6822 22.0175 11.5622L21.9208 11.3881C21.9068 11.3629 21.8906 11.339 21.8724 11.3166C21.7224 11.1319 21.7255 10.8664 21.8798 10.6853L22.0163 10.525C22.0825 10.4472 22.114 10.3457 22.1033 10.2442L22.0997 10.2106C22.0855 10.075 21.988 9.9628 21.8557 9.92974C21.7235 9.89667 21.626 9.78448 21.6117 9.64891L21.5971 9.50983C21.5933 9.47419 21.5859 9.43903 21.575 9.40491L21.4546 9.02873C21.4297 8.95082 21.441 8.86583 21.4855 8.79715L21.5746 8.65943C21.6183 8.59192 21.5917 8.50135 21.5185 8.46807C21.4592 8.4411 21.4285 8.37473 21.4465 8.31208C21.559 7.92101 21.6716 7.54339 21.7841 7.15203C21.8024 7.08832 21.8092 7.02185 21.8043 6.95574L21.7894 6.75437C21.7769 6.58671 21.6418 6.45443 21.4739 6.44559C21.3935 6.44136 21.3173 6.4082 21.2594 6.35222L20.9029 6.00765C20.763 5.8724 20.5867 5.78095 20.3955 5.74454C20.2833 5.72317 20.1757 5.68274 20.0772 5.625L19.7082 5.40869C19.6283 5.36186 19.5405 5.33005 19.4492 5.31483L19.3396 5.29657C19.2433 5.28051 19.1443 5.2972 19.0585 5.34398C18.9867 5.38315 18.9053 5.40138 18.8237 5.39657L18.8028 5.39535C18.6574 5.3868 18.5153 5.44082 18.4123 5.5438L18.25 5.70613C18.1739 5.78225 18.0789 5.83669 17.9747 5.86387L17.7134 5.93203C17.6603 5.94589 17.619 5.98765 17.6056 6.04092C17.5919 6.09597 17.5483 6.13856 17.4929 6.15101L16.9127 6.28156C16.7737 6.31284 16.63 6.31719 16.4893 6.29438L16.1859 6.24517C15.9914 6.21363 15.8108 6.12444 15.6675 5.98914L15.6229 5.94695C15.5362 5.86512 15.431 5.80558 15.3163 5.77345L15.1264 5.7203C15.0101 5.68772 14.9175 5.59954 14.8793 5.48492L14.7911 5.22026C14.7762 5.17574 14.7281 5.15168 14.6836 5.16652C14.6522 5.17699 14.6175 5.16826 14.5948 5.14414L14.4241 4.96278C14.3382 4.87146 14.3215 4.73489 14.383 4.62559L14.4052 4.58616C14.4491 4.50806 14.4412 4.4111 14.3853 4.34113C14.3339 4.27697 14.2511 4.2468 14.1705 4.26292L14.1447 4.26808C14.1032 4.27639 14.0642 4.29463 14.0312 4.32124L13.4977 4.75154C13.4331 4.80364 13.3549 4.83619 13.2724 4.84535C13.2248 4.85064 13.1767 4.84804 13.1299 4.83765L13.0596 4.82202C12.8937 4.78515 12.744 4.69591 12.6327 4.56747L12.6146 4.54655C12.5508 4.473 12.504 4.38641 12.4772 4.29283C12.4461 4.18379 12.3876 4.08449 12.3074 4.0043L12.2758 3.97269C12.232 3.92887 12.1801 3.89397 12.123 3.86992L12.059 3.84297C11.9003 3.77615 11.8049 3.61242 11.825 3.4414C11.8316 3.38499 11.8258 3.32782 11.8078 3.27393L11.8001 3.25069C11.7656 3.14741 11.6982 3.05831 11.6082 2.99709L11.4754 2.9068C11.2947 2.78391 11.0778 2.72554 10.8598 2.74111L10.8263 2.7435C10.6641 2.75509 10.5066 2.80357 10.366 2.88525L10.1905 2.98715C10.0003 3.09758 9.7787 3.1414 9.56081 3.11169C9.4625 3.09829 9.36273 3.09976 9.26487 3.11607L9.16746 3.13231C8.89478 3.17775 8.61504 3.15353 8.35423 3.0619L8.08069 2.96579C7.98499 2.93217 7.89199 2.89131 7.80249 2.84358L7.40892 2.63367C7.10537 2.47178 6.76518 2.39092 6.42125 2.39892L6.29953 2.40175C6.10021 2.40639 5.90271 2.4408 5.71357 2.50384L5.56347 2.55388C5.41409 2.60367 5.27291 2.67529 5.1445 2.76642L4.95376 2.90179C4.76145 3.03826 4.52614 3.1003 4.29154 3.07636L3.9065 3.03707C3.71023 3.01704 3.52385 3.12736 3.44697 3.30906C3.37822 3.47158 3.22071 3.57882 3.0443 3.58323L2.74819 3.59063C2.55975 3.59534 2.38147 3.67705 2.25489 3.81673L2.00488 4.0926C1.89822 4.2103 1.90266 4.39098 2.01497 4.5033C2.10564 4.59397 2.12812 4.73249 2.07078 4.84718L2.02568 4.93738C1.93945 5.10983 1.9762 5.3184 2.11617 5.45101L2.21386 5.54355C2.27008 5.59682 2.31582 5.66016 2.34869 5.73028L2.45416 5.95528C2.56036 6.18185 2.7916 6.32311 3.04167 6.31418C3.17439 6.30944 3.30516 6.34715 3.41498 6.42183L3.64006 6.57488C3.73991 6.64278 3.86338 6.66643 3.98126 6.64023L4.06159 6.62238C4.14437 6.60399 4.21381 6.548 4.24935 6.47101C4.29523 6.37159 4.39631 6.30943 4.50574 6.31334L4.73561 6.32155C4.86941 6.32633 4.99802 6.37446 5.10207 6.45869L5.14866 6.49641C5.31236 6.62892 5.52185 6.69124 5.73136 6.66976L6.05012 6.63706C6.18757 6.62297 6.31541 6.56005 6.41044 6.45975C6.56279 6.29894 6.79369 6.23944 7.00478 6.30661L7.11571 6.3419C7.13434 6.34783 7.15415 6.34905 7.17337 6.34544L7.22994 6.33484C7.31982 6.31798 7.38141 6.42293 7.32287 6.49318C7.29521 6.52637 7.29267 6.5738 7.31664 6.60975L7.40686 6.74508C7.46312 6.82948 7.47536 6.93578 7.43974 7.03076L7.40461 7.12445C7.37809 7.19518 7.36758 7.27092 7.37385 7.34619L7.40837 7.76043C7.40837 7.77485 7.40451 7.789 7.39717 7.80141L7.15731 8.20734C7.13387 8.247 7.11422 8.28879 7.09861 8.33214L6.92783 8.80653C6.92545 8.81314 6.91917 8.81755 6.91214 8.81755C6.90582 8.81755 6.90005 8.82112 6.89723 8.82677L6.82904 8.96315C6.81888 8.98346 6.8114 9.005 6.80677 9.02722L6.71436 9.47079C6.70723 9.50499 6.69571 9.53812 6.68009 9.56937L6.56189 9.80578C6.55447 9.82062 6.55738 9.83855 6.56911 9.85028C6.583 9.86417 6.58422 9.88628 6.57195 9.90162L6.44599 10.0591C6.42702 10.0828 6.4041 10.103 6.37824 10.119L6.31999 10.1548C6.19741 10.2302 6.05345 10.2633 5.91023 10.249L5.74975 10.233C5.7104 10.229 5.67162 10.2207 5.63411 10.2082L5.30089 10.0972C5.25833 10.083 5.21164 10.1003 5.18856 10.1387C5.1491 10.2045 5.0522 10.1994 5.01977 10.13L4.97374 10.0313C4.95357 9.9881 4.91447 9.95671 4.86791 9.94636L4.64063 9.89585C4.57748 9.88182 4.51254 9.87766 4.44811 9.88352L4.28942 9.89794C4.14044 9.91149 3.99894 9.96935 3.88316 10.0641C3.84022 10.0992 3.79352 10.1295 3.7439 10.1543L3.73095 10.1607C3.5065 10.273 3.24522 10.2826 3.00918 10.1975C2.73233 10.0976 2.44604 10.0035 2.16475 9.91044C2.04953 9.87232 1.92854 9.85448 1.80722 9.85805L1.44763 9.86862C1.31939 9.8724 1.20189 9.94122 1.13588 10.0512L1.11861 10.08C1.07116 10.1591 1.06191 10.2554 1.09343 10.342C1.11814 10.41 1.11799 10.4845 1.09298 10.5524L1.05298 10.661C1.00415 10.7935 1.00188 10.9387 1.04655 11.0728L1.098 11.2271C1.13491 11.3378 1.15373 11.4538 1.15373 11.5705V15.9752H7.74993C7.81545 15.9752 7.85123 15.8987 7.80929 15.8484C7.8063 15.8448 7.80299 15.8415 7.7994 15.8385L7.30571 15.4271C7.2033 15.3418 7.14409 15.2154 7.14409 15.0821V14.9465C7.14409 14.9142 7.15694 14.8832 7.17981 14.8603C7.22256 14.8176 7.22754 14.7499 7.19152 14.7014L6.79434 14.1661C6.76329 14.1242 6.73595 14.0797 6.71264 14.0331L6.57148 13.7508L6.35125 13.3984L5.91078 12.4074L5.59444 11.8142C5.57045 11.7693 5.54985 11.7225 5.5328 11.6745L5.32551 11.0903C5.31979 11.0742 5.32385 11.0562 5.33594 11.0442C5.35811 11.022 5.39566 11.0292 5.40801 11.058L5.74175 11.8368C5.76619 11.8938 5.79948 11.9466 5.84024 11.9934C5.93863 12.1063 6.03002 12.2123 6.12709 12.3239C6.17818 12.3826 6.26684 12.3896 6.32665 12.3398C6.34285 12.3263 6.35587 12.3094 6.36479 12.2903L6.46277 12.0803C6.49115 12.0195 6.51429 11.9564 6.53195 11.8916L6.63346 11.5194C6.63618 11.5095 6.64019 11.4999 6.6454 11.491L6.75019 11.3113C6.76535 11.2853 6.80441 11.2909 6.81171 11.3201C6.81304 11.3254 6.81304 11.331 6.81171 11.3364L6.76257 11.5329C6.75265 11.5726 6.74563 11.6129 6.74156 11.6536L6.72759 11.7933C6.7263 11.8062 6.72407 11.8191 6.72091 11.8317L6.68653 11.9692C6.66165 12.0687 6.73691 12.1651 6.83948 12.1651C6.8922 12.1651 6.94145 12.1915 6.9706 12.2354C7.15116 12.5074 7.31869 12.7665 7.49844 13.0377C7.54103 13.102 7.57917 13.1691 7.61232 13.2387L7.73582 13.498C7.76666 13.5628 7.81275 13.6191 7.87013 13.6622C7.92845 13.7059 7.97509 13.7633 8.00591 13.8294L8.0866 14.0023C8.10387 14.0393 8.10953 14.0807 8.10281 14.121C8.09523 14.1665 8.10342 14.2132 8.12602 14.2533L8.19213 14.3709C8.25516 14.4829 8.35334 14.5711 8.4715 14.6217L8.49458 14.6316C8.5628 14.6608 8.62558 14.7014 8.68029 14.7515L8.72201 14.7898C8.81445 14.8745 8.88997 14.976 8.94458 15.0889L9.07684 15.3622C9.15253 15.5186 9.18691 15.6918 9.17671 15.8653C9.17241 15.9383 9.176 16.0116 9.18741 16.0838L9.19249 16.1161C9.22138 16.299 9.28873 16.4738 9.39009 16.6288L9.51794 16.8243C9.57839 16.9168 9.66524 16.9889 9.76721 17.0314C9.83828 17.061 9.90235 17.1052 9.9553 17.1611L10.0655 17.2774C10.201 17.4205 10.3025 17.5923 10.3622 17.7801L10.3726 17.8128C10.4078 17.9234 10.4561 18.0294 10.5164 18.1286L10.6727 18.3852C10.7132 18.4517 10.7655 18.5102 10.8272 18.5576L10.9124 18.6232C10.9818 18.6765 11.0289 18.7537 11.0445 18.8398C11.0574 18.9105 11.0915 18.9755 11.1422 19.0263L11.1576 19.0417C11.2118 19.0959 11.2503 19.1638 11.2688 19.2381L11.2936 19.3371C11.3022 19.3715 11.308 19.4066 11.3109 19.4419L11.3239 19.5971C11.3269 19.6335 11.3184 19.6699 11.2996 19.7013C11.2758 19.7409 11.2688 19.7884 11.28 19.8333L11.3172 19.9819C11.3234 20.0067 11.3076 20.0317 11.2825 20.0367C11.2516 20.0428 11.2366 20.0781 11.2535 20.1046L11.3572 20.2675C11.3674 20.2836 11.3749 20.3012 11.3796 20.3196L11.4689 20.6772C11.4781 20.7138 11.4912 20.7492 11.5081 20.7829C11.5491 20.8651 11.5676 20.9567 11.5615 21.0484L11.556 21.1297C11.5513 21.2014 11.5638 21.2731 11.5926 21.3389C11.6603 21.4936 11.8092 21.597 11.9778 21.6064L12.0031 21.6078C12.0662 21.6113 12.1291 21.5983 12.1856 21.57L12.1974 21.5642C12.2485 21.5386 12.3057 21.5274 12.3627 21.5318L12.4541 21.5388C12.5199 21.5439 12.5827 21.5106 12.6155 21.4533C12.6376 21.4146 12.6739 21.3861 12.7168 21.3738L12.7386 21.3676C12.7813 21.3554 12.8195 21.3309 12.8484 21.2972L12.8702 21.2718C12.9133 21.2215 12.9702 21.185 13.0339 21.1668L13.0472 21.163C13.0759 21.1548 13.1055 21.15 13.1353 21.1486L13.4157 21.1359C13.5215 21.1311 13.6263 21.1135 13.7278 21.0837L13.834 21.0524C13.9103 21.03 13.9821 20.9945 14.0463 20.9474L14.1969 20.837C14.2498 20.7982 14.3162 20.7824 14.3809 20.7931C14.4014 20.7966 14.4223 20.7973 14.443 20.7955L14.483 20.7918C14.5944 20.7817 14.7002 20.7381 14.7865 20.6668L14.9653 20.5192C15.0943 20.4126 15.2426 20.3318 15.4021 20.2812L16.0636 20.0715L16.4886 19.8917C16.5797 19.8531 16.643 19.7683 16.6539 19.6699C16.6567 19.6441 16.6633 19.6189 16.6733 19.5949L16.6854 19.5658C16.7383 19.4389 16.8416 19.3398 16.9707 19.2922L17.1125 19.24C17.1619 19.2218 17.2129 19.2082 17.2649 19.1996L17.3222 19.19C17.4075 19.1758 17.49 19.1479 17.5665 19.1074L17.6929 19.0405C17.7785 18.9952 17.8774 18.9815 17.9721 19.0018L17.9964 19.007C18.0846 19.0259 18.1766 19.01 18.2534 18.9628L18.3133 18.926C18.3796 18.8851 18.4201 18.8128 18.4201 18.7348C18.4201 18.6616 18.4558 18.593 18.5158 18.551L18.5573 18.5219C18.6113 18.4841 18.6757 18.4638 18.7417 18.4638H18.8823C18.953 18.4638 19.0208 18.4357 19.0708 18.3857C19.1061 18.3504 19.1308 18.3059 19.142 18.2572L19.1519 18.2145C19.1769 18.1062 19.2439 18.0123 19.3381 17.9533L19.4651 17.874C19.5162 17.8421 19.5752 17.8251 19.6355 17.8251H19.7619C19.7904 17.8251 19.8171 17.8109 19.8329 17.7871C19.8449 17.7691 19.8496 17.7472 19.8461 17.7258L19.8095 17.5066C19.7937 17.4118 19.7992 17.3147 19.8256 17.2223L19.8615 17.0968C19.8695 17.0687 19.8823 17.0422 19.8993 17.0184L19.9125 16.9998C19.9567 16.938 20.0301 16.904 20.1058 16.9103C20.192 16.9175 20.2742 16.8725 20.3145 16.7959L20.4166 16.6019C20.4507 16.5371 20.4975 16.4798 20.5542 16.4334L20.5862 16.4072C20.6682 16.3402 20.7342 16.2561 20.7858 16.1637C20.8519 16.0452 20.9253 15.9266 20.9994 15.8081C21.0121 15.7878 21.0188 15.7642 21.0188 15.7402C21.0188 15.6836 20.9817 15.6337 20.9275 15.6174L20.8661 15.599C20.8223 15.5858 20.7838 15.559 20.7562 15.5224C20.7007 15.4489 20.6422 15.3726 20.5839 15.2963C20.4507 15.1221 20.2687 14.991 20.0607 14.9217L20.0498 14.918L19.8228 14.8703C19.6966 14.8437 19.5772 14.7912 19.4721 14.7162C19.3737 14.6459 19.2898 14.5571 19.2252 14.4548L19.1541 14.3423C19.0912 14.2426 19.0484 14.1315 19.0282 14.0153L18.9852 13.7685C18.9758 13.7145 18.9862 13.6588 19.0144 13.6118C19.0292 13.5872 19.0392 13.5601 19.0439 13.5318L19.078 13.3271C19.0798 13.3162 19.0781 13.305 19.0732 13.2952C19.0562 13.2611 19.0096 13.2562 18.9858 13.2859L18.8605 13.4425C18.6276 13.7028 18.3777 13.9461 18.1319 14.1935C17.8497 14.4776 17.4582 14.6428 17.0583 14.6217C17.0153 14.6194 16.9726 14.6168 16.9304 14.6137C16.8959 14.6113 16.8612 14.6132 16.8273 14.6199L16.525 14.6804C16.478 14.6898 16.4329 14.6573 16.427 14.6097L16.424 14.5857C16.4196 14.5511 16.3868 14.5274 16.3526 14.5343C16.3252 14.5398 16.2977 14.5257 16.2861 14.5002L16.2328 14.383C16.209 14.3306 16.2064 14.2711 16.2255 14.2169L16.2892 14.0366C16.3148 13.9641 16.3279 13.8877 16.3279 13.8107V13.6442C16.3279 13.5852 16.3062 13.5282 16.267 13.4841L16.2245 13.4363C16.181 13.3874 16.1111 13.3718 16.0509 13.3976C16.0165 13.4123 15.9888 13.4392 15.9729 13.4731L15.8542 13.7275C15.8471 13.7427 15.8442 13.7596 15.8458 13.7764L15.8709 14.0402C15.8747 14.0804 15.8211 14.0973 15.8011 14.0623C15.7999 14.0602 15.7989 14.0579 15.7981 14.0556L15.7688 13.9678C15.7453 13.8972 15.708 13.8321 15.6591 13.7762L15.6426 13.7574C15.6007 13.7095 15.5696 13.6532 15.5513 13.5923L15.5502 13.5886C15.5259 13.5076 15.5259 13.4213 15.5502 13.3404L15.5522 13.3338C15.5699 13.2749 15.5738 13.2127 15.5637 13.152C15.5454 13.0422 15.4825 12.945 15.3899 12.8832L15.2296 12.7764C15.1703 12.7369 15.1244 12.6803 15.098 12.6141C15.0673 12.5375 15.0107 12.474 14.938 12.4349L14.9097 12.4197C14.8159 12.3691 14.7438 12.2862 14.7051 12.1869C14.5973 11.91 14.4819 11.6331 14.3909 11.3562C14.3755 11.3093 14.375 11.2589 14.3886 11.2114L14.397 11.1819C14.4066 11.1482 14.4048 11.1118 14.3922 11.0791C14.3504 10.9703 14.4346 10.8526 14.5509 10.8603C14.6019 10.8637 14.6514 10.8425 14.6841 10.8033L14.7133 10.7683C14.7929 10.6727 14.9309 10.6506 15.0364 10.7165L15.1079 10.7612C15.169 10.7994 15.2443 10.8075 15.3122 10.7833C15.4262 10.7426 15.5525 10.7948 15.6045 10.9042L15.9314 11.5925L16.11 11.8866C16.2363 12.0946 16.4335 12.25 16.6652 12.3242C16.7915 12.3646 16.9085 12.4294 17.0096 12.515L17.246 12.715C17.3668 12.8172 17.5068 12.8942 17.6579 12.9414C17.9622 13.0365 18.292 13.0049 18.5728 12.8537L18.5968 12.8408C18.6696 12.8016 18.7469 12.7716 18.8271 12.7516L19.0314 12.7005C19.1064 12.6818 19.1854 12.6877 19.2567 12.7174C19.3546 12.7582 19.4295 12.8402 19.4613 12.9414L19.5138 13.1083C19.599 13.3796 19.833 13.5774 20.1147 13.6162L20.2921 13.6407C20.7022 13.7353 21.1011 13.8187 21.5048 13.8907C21.7814 13.9401 22.0484 13.7713 22.1299 13.5024C22.1794 13.3391 22.3 13.207 22.458 13.1429L22.8828 12.9707C22.9622 12.9385 23.0041 12.8511 22.9795 12.769Z"/>
</mask>
<path d="M22.9795 12.769C22.9652 12.7213 22.9302 12.6826 22.8843 12.6634L22.8444 12.6468C22.7519 12.6082 22.6902 12.5194 22.6863 12.4192L22.6813 12.2888C22.6747 12.1179 22.5741 11.9646 22.4199 11.8906L22.3103 11.838C22.1865 11.7786 22.0842 11.6822 22.0175 11.5622L21.9208 11.3881C21.9068 11.3629 21.8906 11.339 21.8724 11.3166C21.7224 11.1319 21.7255 10.8664 21.8798 10.6853L22.0163 10.525C22.0825 10.4472 22.114 10.3457 22.1033 10.2442L22.0997 10.2106C22.0855 10.075 21.988 9.9628 21.8557 9.92974C21.7235 9.89667 21.626 9.78448 21.6117 9.64891L21.5971 9.50983C21.5933 9.47419 21.5859 9.43903 21.575 9.40491L21.4546 9.02873C21.4297 8.95082 21.441 8.86583 21.4855 8.79715L21.5746 8.65943C21.6183 8.59192 21.5917 8.50135 21.5185 8.46807C21.4592 8.4411 21.4285 8.37473 21.4465 8.31208C21.559 7.92101 21.6716 7.54339 21.7841 7.15203C21.8024 7.08832 21.8092 7.02185 21.8043 6.95574L21.7894 6.75437C21.7769 6.58671 21.6418 6.45443 21.4739 6.44559C21.3935 6.44136 21.3173 6.4082 21.2594 6.35222L20.9029 6.00765C20.763 5.8724 20.5867 5.78095 20.3955 5.74454C20.2833 5.72317 20.1757 5.68274 20.0772 5.625L19.7082 5.40869C19.6283 5.36186 19.5405 5.33005 19.4492 5.31483L19.3396 5.29657C19.2433 5.28051 19.1443 5.2972 19.0585 5.34398C18.9867 5.38315 18.9053 5.40138 18.8237 5.39657L18.8028 5.39535C18.6574 5.3868 18.5153 5.44082 18.4123 5.5438L18.25 5.70613C18.1739 5.78225 18.0789 5.83669 17.9747 5.86387L17.7134 5.93203C17.6603 5.94589 17.619 5.98765 17.6056 6.04092C17.5919 6.09597 17.5483 6.13856 17.4929 6.15101L16.9127 6.28156C16.7737 6.31284 16.63 6.31719 16.4893 6.29438L16.1859 6.24517C15.9914 6.21363 15.8108 6.12444 15.6675 5.98914L15.6229 5.94695C15.5362 5.86512 15.431 5.80558 15.3163 5.77345L15.1264 5.7203C15.0101 5.68772 14.9175 5.59954 14.8793 5.48492L14.7911 5.22026C14.7762 5.17574 14.7281 5.15168 14.6836 5.16652C14.6522 5.17699 14.6175 5.16826 14.5948 5.14414L14.4241 4.96278C14.3382 4.87146 14.3215 4.73489 14.383 4.62559L14.4052 4.58616C14.4491 4.50806 14.4412 4.4111 14.3853 4.34113C14.3339 4.27697 14.2511 4.2468 14.1705 4.26292L14.1447 4.26808C14.1032 4.27639 14.0642 4.29463 14.0312 4.32124L13.4977 4.75154C13.4331 4.80364 13.3549 4.83619 13.2724 4.84535C13.2248 4.85064 13.1767 4.84804 13.1299 4.83765L13.0596 4.82202C12.8937 4.78515 12.744 4.69591 12.6327 4.56747L12.6146 4.54655C12.5508 4.473 12.504 4.38641 12.4772 4.29283C12.4461 4.18379 12.3876 4.08449 12.3074 4.0043L12.2758 3.97269C12.232 3.92887 12.1801 3.89397 12.123 3.86992L12.059 3.84297C11.9003 3.77615 11.8049 3.61242 11.825 3.4414C11.8316 3.38499 11.8258 3.32782 11.8078 3.27393L11.8001 3.25069C11.7656 3.14741 11.6982 3.05831 11.6082 2.99709L11.4754 2.9068C11.2947 2.78391 11.0778 2.72554 10.8598 2.74111L10.8263 2.7435C10.6641 2.75509 10.5066 2.80357 10.366 2.88525L10.1905 2.98715C10.0003 3.09758 9.7787 3.1414 9.56081 3.11169C9.4625 3.09829 9.36273 3.09976 9.26487 3.11607L9.16746 3.13231C8.89478 3.17775 8.61504 3.15353 8.35423 3.0619L8.08069 2.96579C7.98499 2.93217 7.89199 2.89131 7.80249 2.84358L7.40892 2.63367C7.10537 2.47178 6.76518 2.39092 6.42125 2.39892L6.29953 2.40175C6.10021 2.40639 5.90271 2.4408 5.71357 2.50384L5.56347 2.55388C5.41409 2.60367 5.27291 2.67529 5.1445 2.76642L4.95376 2.90179C4.76145 3.03826 4.52614 3.1003 4.29154 3.07636L3.9065 3.03707C3.71023 3.01704 3.52385 3.12736 3.44697 3.30906C3.37822 3.47158 3.22071 3.57882 3.0443 3.58323L2.74819 3.59063C2.55975 3.59534 2.38147 3.67705 2.25489 3.81673L2.00488 4.0926C1.89822 4.2103 1.90266 4.39098 2.01497 4.5033C2.10564 4.59397 2.12812 4.73249 2.07078 4.84718L2.02568 4.93738C1.93945 5.10983 1.9762 5.3184 2.11617 5.45101L2.21386 5.54355C2.27008 5.59682 2.31582 5.66016 2.34869 5.73028L2.45416 5.95528C2.56036 6.18185 2.7916 6.32311 3.04167 6.31418C3.17439 6.30944 3.30516 6.34715 3.41498 6.42183L3.64006 6.57488C3.73991 6.64278 3.86338 6.66643 3.98126 6.64023L4.06159 6.62238C4.14437 6.60399 4.21381 6.548 4.24935 6.47101C4.29523 6.37159 4.39631 6.30943 4.50574 6.31334L4.73561 6.32155C4.86941 6.32633 4.99802 6.37446 5.10207 6.45869L5.14866 6.49641C5.31236 6.62892 5.52185 6.69124 5.73136 6.66976L6.05012 6.63706C6.18757 6.62297 6.31541 6.56005 6.41044 6.45975C6.56279 6.29894 6.79369 6.23944 7.00478 6.30661L7.11571 6.3419C7.13434 6.34783 7.15415 6.34905 7.17337 6.34544L7.22994 6.33484C7.31982 6.31798 7.38141 6.42293 7.32287 6.49318C7.29521 6.52637 7.29267 6.5738 7.31664 6.60975L7.40686 6.74508C7.46312 6.82948 7.47536 6.93578 7.43974 7.03076L7.40461 7.12445C7.37809 7.19518 7.36758 7.27092 7.37385 7.34619L7.40837 7.76043C7.40837 7.77485 7.40451 7.789 7.39717 7.80141L7.15731 8.20734C7.13387 8.247 7.11422 8.28879 7.09861 8.33214L6.92783 8.80653C6.92545 8.81314 6.91917 8.81755 6.91214 8.81755C6.90582 8.81755 6.90005 8.82112 6.89723 8.82677L6.82904 8.96315C6.81888 8.98346 6.8114 9.005 6.80677 9.02722L6.71436 9.47079C6.70723 9.50499 6.69571 9.53812 6.68009 9.56937L6.56189 9.80578C6.55447 9.82062 6.55738 9.83855 6.56911 9.85028C6.583 9.86417 6.58422 9.88628 6.57195 9.90162L6.44599 10.0591C6.42702 10.0828 6.4041 10.103 6.37824 10.119L6.31999 10.1548C6.19741 10.2302 6.05345 10.2633 5.91023 10.249L5.74975 10.233C5.7104 10.229 5.67162 10.2207 5.63411 10.2082L5.30089 10.0972C5.25833 10.083 5.21164 10.1003 5.18856 10.1387C5.1491 10.2045 5.0522 10.1994 5.01977 10.13L4.97374 10.0313C4.95357 9.9881 4.91447 9.95671 4.86791 9.94636L4.64063 9.89585C4.57748 9.88182 4.51254 9.87766 4.44811 9.88352L4.28942 9.89794C4.14044 9.91149 3.99894 9.96935 3.88316 10.0641C3.84022 10.0992 3.79352 10.1295 3.7439 10.1543L3.73095 10.1607C3.5065 10.273 3.24522 10.2826 3.00918 10.1975C2.73233 10.0976 2.44604 10.0035 2.16475 9.91044C2.04953 9.87232 1.92854 9.85448 1.80722 9.85805L1.44763 9.86862C1.31939 9.8724 1.20189 9.94122 1.13588 10.0512L1.11861 10.08C1.07116 10.1591 1.06191 10.2554 1.09343 10.342C1.11814 10.41 1.11799 10.4845 1.09298 10.5524L1.05298 10.661C1.00415 10.7935 1.00188 10.9387 1.04655 11.0728L1.098 11.2271C1.13491 11.3378 1.15373 11.4538 1.15373 11.5705V15.9752H7.74993C7.81545 15.9752 7.85123 15.8987 7.80929 15.8484C7.8063 15.8448 7.80299 15.8415 7.7994 15.8385L7.30571 15.4271C7.2033 15.3418 7.14409 15.2154 7.14409 15.0821V14.9465C7.14409 14.9142 7.15694 14.8832 7.17981 14.8603C7.22256 14.8176 7.22754 14.7499 7.19152 14.7014L6.79434 14.1661C6.76329 14.1242 6.73595 14.0797 6.71264 14.0331L6.57148 13.7508L6.35125 13.3984L5.91078 12.4074L5.59444 11.8142C5.57045 11.7693 5.54985 11.7225 5.5328 11.6745L5.32551 11.0903C5.31979 11.0742 5.32385 11.0562 5.33594 11.0442C5.35811 11.022 5.39566 11.0292 5.40801 11.058L5.74175 11.8368C5.76619 11.8938 5.79948 11.9466 5.84024 11.9934C5.93863 12.1063 6.03002 12.2123 6.12709 12.3239C6.17818 12.3826 6.26684 12.3896 6.32665 12.3398C6.34285 12.3263 6.35587 12.3094 6.36479 12.2903L6.46277 12.0803C6.49115 12.0195 6.51429 11.9564 6.53195 11.8916L6.63346 11.5194C6.63618 11.5095 6.64019 11.4999 6.6454 11.491L6.75019 11.3113C6.76535 11.2853 6.80441 11.2909 6.81171 11.3201C6.81304 11.3254 6.81304 11.331 6.81171 11.3364L6.76257 11.5329C6.75265 11.5726 6.74563 11.6129 6.74156 11.6536L6.72759 11.7933C6.7263 11.8062 6.72407 11.8191 6.72091 11.8317L6.68653 11.9692C6.66165 12.0687 6.73691 12.1651 6.83948 12.1651C6.8922 12.1651 6.94145 12.1915 6.9706 12.2354C7.15116 12.5074 7.31869 12.7665 7.49844 13.0377C7.54103 13.102 7.57917 13.1691 7.61232 13.2387L7.73582 13.498C7.76666 13.5628 7.81275 13.6191 7.87013 13.6622C7.92845 13.7059 7.97509 13.7633 8.00591 13.8294L8.0866 14.0023C8.10387 14.0393 8.10953 14.0807 8.10281 14.121C8.09523 14.1665 8.10342 14.2132 8.12602 14.2533L8.19213 14.3709C8.25516 14.4829 8.35334 14.5711 8.4715 14.6217L8.49458 14.6316C8.5628 14.6608 8.62558 14.7014 8.68029 14.7515L8.72201 14.7898C8.81445 14.8745 8.88997 14.976 8.94458 15.0889L9.07684 15.3622C9.15253 15.5186 9.18691 15.6918 9.17671 15.8653C9.17241 15.9383 9.176 16.0116 9.18741 16.0838L9.19249 16.1161C9.22138 16.299 9.28873 16.4738 9.39009 16.6288L9.51794 16.8243C9.57839 16.9168 9.66524 16.9889 9.76721 17.0314C9.83828 17.061 9.90235 17.1052 9.9553 17.1611L10.0655 17.2774C10.201 17.4205 10.3025 17.5923 10.3622 17.7801L10.3726 17.8128C10.4078 17.9234 10.4561 18.0294 10.5164 18.1286L10.6727 18.3852C10.7132 18.4517 10.7655 18.5102 10.8272 18.5576L10.9124 18.6232C10.9818 18.6765 11.0289 18.7537 11.0445 18.8398C11.0574 18.9105 11.0915 18.9755 11.1422 19.0263L11.1576 19.0417C11.2118 19.0959 11.2503 19.1638 11.2688 19.2381L11.2936 19.3371C11.3022 19.3715 11.308 19.4066 11.3109 19.4419L11.3239 19.5971C11.3269 19.6335 11.3184 19.6699 11.2996 19.7013C11.2758 19.7409 11.2688 19.7884 11.28 19.8333L11.3172 19.9819C11.3234 20.0067 11.3076 20.0317 11.2825 20.0367C11.2516 20.0428 11.2366 20.0781 11.2535 20.1046L11.3572 20.2675C11.3674 20.2836 11.3749 20.3012 11.3796 20.3196L11.4689 20.6772C11.4781 20.7138 11.4912 20.7492 11.5081 20.7829C11.5491 20.8651 11.5676 20.9567 11.5615 21.0484L11.556 21.1297C11.5513 21.2014 11.5638 21.2731 11.5926 21.3389C11.6603 21.4936 11.8092 21.597 11.9778 21.6064L12.0031 21.6078C12.0662 21.6113 12.1291 21.5983 12.1856 21.57L12.1974 21.5642C12.2485 21.5386 12.3057 21.5274 12.3627 21.5318L12.4541 21.5388C12.5199 21.5439 12.5827 21.5106 12.6155 21.4533C12.6376 21.4146 12.6739 21.3861 12.7168 21.3738L12.7386 21.3676C12.7813 21.3554 12.8195 21.3309 12.8484 21.2972L12.8702 21.2718C12.9133 21.2215 12.9702 21.185 13.0339 21.1668L13.0472 21.163C13.0759 21.1548 13.1055 21.15 13.1353 21.1486L13.4157 21.1359C13.5215 21.1311 13.6263 21.1135 13.7278 21.0837L13.834 21.0524C13.9103 21.03 13.9821 20.9945 14.0463 20.9474L14.1969 20.837C14.2498 20.7982 14.3162 20.7824 14.3809 20.7931C14.4014 20.7966 14.4223 20.7973 14.443 20.7955L14.483 20.7918C14.5944 20.7817 14.7002 20.7381 14.7865 20.6668L14.9653 20.5192C15.0943 20.4126 15.2426 20.3318 15.4021 20.2812L16.0636 20.0715L16.4886 19.8917C16.5797 19.8531 16.643 19.7683 16.6539 19.6699C16.6567 19.6441 16.6633 19.6189 16.6733 19.5949L16.6854 19.5658C16.7383 19.4389 16.8416 19.3398 16.9707 19.2922L17.1125 19.24C17.1619 19.2218 17.2129 19.2082 17.2649 19.1996L17.3222 19.19C17.4075 19.1758 17.49 19.1479 17.5665 19.1074L17.6929 19.0405C17.7785 18.9952 17.8774 18.9815 17.9721 19.0018L17.9964 19.007C18.0846 19.0259 18.1766 19.01 18.2534 18.9628L18.3133 18.926C18.3796 18.8851 18.4201 18.8128 18.4201 18.7348C18.4201 18.6616 18.4558 18.593 18.5158 18.551L18.5573 18.5219C18.6113 18.4841 18.6757 18.4638 18.7417 18.4638H18.8823C18.953 18.4638 19.0208 18.4357 19.0708 18.3857C19.1061 18.3504 19.1308 18.3059 19.142 18.2572L19.1519 18.2145C19.1769 18.1062 19.2439 18.0123 19.3381 17.9533L19.4651 17.874C19.5162 17.8421 19.5752 17.8251 19.6355 17.8251H19.7619C19.7904 17.8251 19.8171 17.8109 19.8329 17.7871C19.8449 17.7691 19.8496 17.7472 19.8461 17.7258L19.8095 17.5066C19.7937 17.4118 19.7992 17.3147 19.8256 17.2223L19.8615 17.0968C19.8695 17.0687 19.8823 17.0422 19.8993 17.0184L19.9125 16.9998C19.9567 16.938 20.0301 16.904 20.1058 16.9103C20.192 16.9175 20.2742 16.8725 20.3145 16.7959L20.4166 16.6019C20.4507 16.5371 20.4975 16.4798 20.5542 16.4334L20.5862 16.4072C20.6682 16.3402 20.7342 16.2561 20.7858 16.1637C20.8519 16.0452 20.9253 15.9266 20.9994 15.8081C21.0121 15.7878 21.0188 15.7642 21.0188 15.7402C21.0188 15.6836 20.9817 15.6337 20.9275 15.6174L20.8661 15.599C20.8223 15.5858 20.7838 15.559 20.7562 15.5224C20.7007 15.4489 20.6422 15.3726 20.5839 15.2963C20.4507 15.1221 20.2687 14.991 20.0607 14.9217L20.0498 14.918L19.8228 14.8703C19.6966 14.8437 19.5772 14.7912 19.4721 14.7162C19.3737 14.6459 19.2898 14.5571 19.2252 14.4548L19.1541 14.3423C19.0912 14.2426 19.0484 14.1315 19.0282 14.0153L18.9852 13.7685C18.9758 13.7145 18.9862 13.6588 19.0144 13.6118C19.0292 13.5872 19.0392 13.5601 19.0439 13.5318L19.078 13.3271C19.0798 13.3162 19.0781 13.305 19.0732 13.2952C19.0562 13.2611 19.0096 13.2562 18.9858 13.2859L18.8605 13.4425C18.6276 13.7028 18.3777 13.9461 18.1319 14.1935C17.8497 14.4776 17.4582 14.6428 17.0583 14.6217C17.0153 14.6194 16.9726 14.6168 16.9304 14.6137C16.8959 14.6113 16.8612 14.6132 16.8273 14.6199L16.525 14.6804C16.478 14.6898 16.4329 14.6573 16.427 14.6097L16.424 14.5857C16.4196 14.5511 16.3868 14.5274 16.3526 14.5343C16.3252 14.5398 16.2977 14.5257 16.2861 14.5002L16.2328 14.383C16.209 14.3306 16.2064 14.2711 16.2255 14.2169L16.2892 14.0366C16.3148 13.9641 16.3279 13.8877 16.3279 13.8107V13.6442C16.3279 13.5852 16.3062 13.5282 16.267 13.4841L16.2245 13.4363C16.181 13.3874 16.1111 13.3718 16.0509 13.3976C16.0165 13.4123 15.9888 13.4392 15.9729 13.4731L15.8542 13.7275C15.8471 13.7427 15.8442 13.7596 15.8458 13.7764L15.8709 14.0402C15.8747 14.0804 15.8211 14.0973 15.8011 14.0623C15.7999 14.0602 15.7989 14.0579 15.7981 14.0556L15.7688 13.9678C15.7453 13.8972 15.708 13.8321 15.6591 13.7762L15.6426 13.7574C15.6007 13.7095 15.5696 13.6532 15.5513 13.5923L15.5502 13.5886C15.5259 13.5076 15.5259 13.4213 15.5502 13.3404L15.5522 13.3338C15.5699 13.2749 15.5738 13.2127 15.5637 13.152C15.5454 13.0422 15.4825 12.945 15.3899 12.8832L15.2296 12.7764C15.1703 12.7369 15.1244 12.6803 15.098 12.6141C15.0673 12.5375 15.0107 12.474 14.938 12.4349L14.9097 12.4197C14.8159 12.3691 14.7438 12.2862 14.7051 12.1869C14.5973 11.91 14.4819 11.6331 14.3909 11.3562C14.3755 11.3093 14.375 11.2589 14.3886 11.2114L14.397 11.1819C14.4066 11.1482 14.4048 11.1118 14.3922 11.0791C14.3504 10.9703 14.4346 10.8526 14.5509 10.8603C14.6019 10.8637 14.6514 10.8425 14.6841 10.8033L14.7133 10.7683C14.7929 10.6727 14.9309 10.6506 15.0364 10.7165L15.1079 10.7612C15.169 10.7994 15.2443 10.8075 15.3122 10.7833C15.4262 10.7426 15.5525 10.7948 15.6045 10.9042L15.9314 11.5925L16.11 11.8866C16.2363 12.0946 16.4335 12.25 16.6652 12.3242C16.7915 12.3646 16.9085 12.4294 17.0096 12.515L17.246 12.715C17.3668 12.8172 17.5068 12.8942 17.6579 12.9414C17.9622 13.0365 18.292 13.0049 18.5728 12.8537L18.5968 12.8408C18.6696 12.8016 18.7469 12.7716 18.8271 12.7516L19.0314 12.7005C19.1064 12.6818 19.1854 12.6877 19.2567 12.7174C19.3546 12.7582 19.4295 12.8402 19.4613 12.9414L19.5138 13.1083C19.599 13.3796 19.833 13.5774 20.1147 13.6162L20.2921 13.6407C20.7022 13.7353 21.1011 13.8187 21.5048 13.8907C21.7814 13.9401 22.0484 13.7713 22.1299 13.5024C22.1794 13.3391 22.3 13.207 22.458 13.1429L22.8828 12.9707C22.9622 12.9385 23.0041 12.8511 22.9795 12.769Z" stroke="currentcolor" stroke-width="1.2" mask="url(#path-1-inside-1_998_14039)"/>
</svg>
