<svg width="24" height="24" viewBox="0 0 24 24" fill="none" stroke="currentcolor" stroke-width="0.75" xmlns="http://www.w3.org/2000/svg">
<path d="M22.98,12.77L21.87,11.32L22.10,10.21L21.61,9.65L21.45,9.03L21.79,6.75L19.71,5.41L18.80,5.40L17.49,6.15L16.19,6.25L14.88,5.48L14.42,4.96L14.38,4.34L14.14,4.27L13.27,4.85L12.63,4.57L11.47,2.91L10.86,2.74L9.56,3.11L8.35,3.06L6.42,2.40L3.91,3.04L2.00,4.09L2.12,5.45L2.45,5.96L3.98,6.64L4.51,6.31L5.73,6.67L7.23,6.33L7.41,7.76L6.32,10.15L5.02,10.13L4.45,9.88L3.01,10.20L1.81,9.86L1.14,10.05L1.15,15.98L7.75,15.98L7.31,15.43L7.19,14.70L5.33,11.09L6.13,12.32L6.36,12.29L6.81,11.32L6.69,11.97L8.19,14.37L8.94,15.09L9.39,16.63L10.06,17.28L11.27,19.24L11.59,21.34L11.98,21.61L14.79,20.67L16.49,19.89L16.97,19.29L18.31,18.93L18.52,18.55L19.83,17.79L19.90,17.02L20.31,16.80L21.02,15.74L19.22,14.45L19.07,13.30L18.13,14.19L17.06,14.62L16.43,14.61L16.23,14.38L16.27,13.48L15.97,13.47L15.80,14.06L15.56,13.15L14.70,12.19L14.39,11.36L14.55,10.86L15.04,10.72L15.60,10.90L16.11,11.89L17.66,12.94L19.26,12.72L20.11,13.62L21.50,13.89L22.88,12.97Z" />
</svg>