<svg width="24" height="24" viewBox="0 0 24 24" fill="none" stroke="currentColor" stroke-width="0.75" xmlns="http://www.w3.org/2000/svg">
<path d="M12.10,3.34L11.82,2.67L11.92,2.33L12.65,1.68L13.12,1.63L13.53,1.05L14.68,0.91L16.02,1.42L16.06,1.95L15.39,2.61L15.54,2.89L14.85,4.11L14.11,4.65L14.09,5.45L13.56,6.21L13.81,6.48L13.61,6.71L12.45,6.78L12.09,6.57L12.34,5.78L12.60,5.67L12.42,5.29L12.74,4.88L12.53,4.31L13.09,3.99L13.00,3.73L12.20,3.53Z" />
<path d="M23.19,2.50L23.45,2.83L22.57,3.95L22.40,5.09L22.39,7.92L21.89,8.75L21.98,8.95L21.66,9.01L22.04,9.69L21.87,9.88L21.53,9.75L21.71,10.28L20.49,10.97L19.32,12.00L18.77,13.59L18.08,13.25L17.65,12.40L17.38,11.13L17.78,10.43L17.22,10.16L17.49,9.61L17.11,9.41L17.13,8.74L16.54,7.26L16.03,6.96L15.04,6.85L15.16,6.12L14.51,5.58L15.65,4.58L15.41,3.84L16.29,2.37L17.03,2.05L18.14,2.03L18.50,2.31L18.46,1.82L18.84,1.07L19.87,0.42L20.93,0.45L22.04,1.25L22.08,1.76L20.66,2.20L22.01,2.48L22.24,2.81L22.77,2.51Z" />
<path d="M16.26,17.11L16.42,17.20L15.61,17.60L15.44,17.28L14.88,17.71L14.98,18.01L14.37,18.22L14.11,18.83L14.02,18.56L14.09,19.31L13.28,20.03L13.41,20.98L12.93,20.17L11.46,20.22L10.95,20.57L10.89,21.42L11.11,21.88L11.67,21.99L12.03,21.59L12.51,21.56L12.20,22.42L13.03,22.46L12.98,23.24L13.96,23.57L13.68,23.40L13.46,23.63L12.75,23.23L12.48,22.74L9.96,21.89L8.45,19.83L9.25,21.21L8.40,20.49L8.48,20.29L7.97,19.50L7.50,19.25L6.99,18.27L6.91,16.57L7.24,16.78L7.19,16.41L6.45,15.86L5.40,14.11L3.67,13.38L3.07,13.82L2.91,13.74L3.07,13.30L1.88,14.80L1.01,15.14L1.91,14.50L2.10,14.11L1.51,14.04L0.93,13.41L1.02,12.78L1.62,12.42L1.52,12.13L0.91,12.23L0.70,12.01L0.74,11.69L1.39,11.51L0.77,10.68L1.79,9.77L2.35,9.57L3.03,9.92L4.20,10.06L5.05,10.53L6.36,10.15L6.48,9.93L6.70,10.22L7.34,10.19L8.39,10.66L8.55,11.07L9.33,11.08L9.31,10.76L9.56,10.67L10.48,11.03L10.83,10.71L11.35,10.83L11.09,9.89L11.40,9.31L11.94,10.51L12.28,10.65L12.29,11.05L12.53,11.05L12.92,10.22L13.32,10.62L13.19,11.38L12.58,11.65L12.29,12.29L11.94,12.50L11.34,13.85L11.63,14.33L13.02,14.95L13.61,15.90L13.70,15.08L14.03,14.53L13.83,12.91L14.49,12.96L15.05,13.50L15.26,14.08L15.86,13.72L16.28,14.76L17.08,15.53L16.29,16.17L15.61,16.15L14.89,16.84L15.65,16.43L15.76,16.94L16.19,17.15Z" />
<path d="M11.47,5.09L11.11,3.84L11.55,3.09L12.53,4.56L12.28,5.41L11.86,5.59L11.54,5.34Z" />
</svg>