<svg width="24" height="24" viewBox="0 0 24 24" fill="none" stroke="currentColor" stroke-width="0.75" xmlns="http://www.w3.org/2000/svg">
<path d="M16.97,10.29L15.91,8.39L15.42,8.16L14.97,7.35L13.91,6.50L13.29,4.93L12.81,4.66L12.47,3.37L12.26,3.37L11.95,4.10L11.63,5.77L11.19,6.43L10.68,6.39L10.25,6.02L9.56,4.95L10.17,4.25L10.07,3.85L8.90,3.67L8.22,3.26L8.31,3.59L7.55,4.03L7.09,5.03L6.08,4.61L4.89,5.16L4.63,5.68L4.23,5.49L3.51,6.58L1.22,7.32L0.56,8.27L0.41,9.12L0.70,9.93L0.41,10.33L0.92,11.38L1.15,12.80L1.00,13.63L1.53,14.05L2.12,14.19L3.27,13.60L4.39,13.74L5.37,13.00L7.52,12.56L9.01,13.10L9.51,14.09L10.45,13.43L10.28,14.07L10.68,14.17L11.77,15.71L12.59,15.87L13.35,15.61L13.88,16.00L15.55,15.62L15.76,15.37L16.97,12.35L17.23,11.23L17.13,10.47Z" />
<path d="M14.58,17.14L13.48,17.14L13.25,17.36L13.68,18.37L14.14,18.61L14.36,18.49L14.73,18.18L14.87,17.43Z" />
<path d="M21.84,18.45L21.16,18.42L20.62,19.51L19.21,20.63L18.87,21.29L19.77,21.56L20.36,21.29L21.56,19.71L22.12,18.61L21.85,18.45Z" />
<path d="M23.37,16.69L22.82,16.78L21.36,15.07L21.97,16.56L21.67,17.35L22.18,17.70L22.12,18.61L22.93,17.36L23.38,17.12L23.42,16.58Z" />
</svg>
