<svg width="24" height="24" viewBox="0 0 24 24" fill="none" stroke="currentColor" stroke-width="0.75" xmlns="http://www.w3.org/2000/svg">
<path d="M11.76,21.28L11.32,21.33L11.16,21.60L11.96,21.55L11.99,21.28ZM18.60,6.13L18.45,5.71L17.37,5.14L15.93,4.91L15.66,4.60L14.12,4.15L14.26,3.74L13.89,2.99L13.30,2.60L12.20,2.42L10.70,1.08L9.95,1.29L8.56,0.76L8.21,1.57L8.14,0.64L7.12,1.07L6.52,1.77L6.37,2.08L6.53,3.17L5.50,4.56L5.53,4.88L5.81,4.98L5.41,5.68L6.96,8.47L8.14,9.19L8.54,9.69L8.17,14.17L7.58,15.68L7.39,17.79L7.82,17.62L7.72,18.18L7.35,18.39L7.11,19.07L7.26,19.53L7.00,20.27L7.20,21.94L8.19,22.99L8.97,23.35L9.89,23.10L9.17,22.30L8.83,21.18L9.73,19.71L9.30,18.89L9.89,18.41L10.40,17.51L10.10,17.46L10.02,16.99L10.70,17.00L10.98,16.24L11.82,16.12L12.26,15.72L12.38,15.47L11.90,14.61L13.13,14.72L14.71,12.59L14.76,11.92L15.15,11.40L16.83,10.66L17.45,9.28L17.47,8.08L18.60,6.49Z" />
</svg>