<svg width="24" height="24" viewBox="0 0 24 24" fill="none" xmlns="http://www.w3.org/2000/svg">
<mask id="path-1-inside-1_998_14037" fill="white">
<path d="M11.7568 21.2757C11.7045 21.3223 11.6296 21.3336 11.5658 21.3046L11.5445 21.2949C11.469 21.2606 11.3805 21.2731 11.3175 21.3271L11.1857 21.4401C11.1382 21.4808 11.1286 21.5505 11.1633 21.6025C11.2038 21.6633 11.2879 21.6758 11.3444 21.6296L11.3936 21.5894C11.4466 21.546 11.5245 21.5529 11.5691 21.6049C11.6029 21.6444 11.6576 21.659 11.7067 21.6417L11.9571 21.5533C11.9923 21.5409 12.0218 21.5163 12.0403 21.4839C12.0766 21.4203 12.0637 21.3401 12.0093 21.2911L11.993 21.2765C11.926 21.2161 11.8243 21.2158 11.7568 21.2757ZM18.6025 6.125L18.5303 5.83604C18.5182 5.7876 18.4905 5.74447 18.4515 5.71328C18.4166 5.68535 18.3743 5.6683 18.3297 5.66425L18.2297 5.65515C18.1755 5.65023 18.1223 5.63746 18.0718 5.61726L18.0433 5.60584C17.9622 5.57339 17.8871 5.52743 17.8214 5.4699L17.6756 5.34232C17.5969 5.27344 17.5103 5.21402 17.4177 5.1653L17.3674 5.1388C17.2084 5.0551 17.0314 5.01136 16.8516 5.01136C16.7467 5.01136 16.6423 4.99645 16.5416 4.96707L16.1943 4.86578C16.164 4.85694 16.1319 4.85657 16.1014 4.8647L15.9296 4.91052C15.8756 4.9249 15.8266 4.87498 15.8419 4.82128C15.8485 4.79806 15.8431 4.77306 15.8274 4.75473L15.758 4.67381C15.7305 4.64172 15.6959 4.61644 15.6567 4.60058C15.4211 4.50521 15.1843 4.42555 14.9316 4.34698C14.8964 4.33602 14.858 4.34335 14.8292 4.36641L14.8083 4.38309C14.7437 4.43479 14.648 4.38878 14.648 4.30603C14.648 4.25499 14.6091 4.21237 14.5582 4.20775L14.1834 4.17367C14.1605 4.17159 14.1391 4.16157 14.1229 4.14534C14.086 4.10846 14.0844 4.04915 14.1193 4.01038L14.2155 3.90354C14.2452 3.87053 14.2616 3.8277 14.2616 3.7833V3.74443C14.2616 3.68719 14.2237 3.63689 14.1686 3.62116C14.1274 3.60936 14.0947 3.57768 14.0817 3.53676L13.9434 3.10227L13.894 2.98691C13.885 2.96597 13.8577 2.96071 13.8416 2.97682C13.8253 2.99317 13.7975 2.98748 13.7889 2.96601L13.768 2.91375C13.7638 2.90323 13.7571 2.8939 13.7485 2.88658L13.595 2.75676C13.5099 2.68473 13.412 2.62894 13.3049 2.59786C13.1744 2.55997 13.0438 2.52646 12.9133 2.48554C12.8731 2.47295 12.8309 2.46807 12.789 2.47226L12.6465 2.48652C12.6333 2.48784 12.6217 2.49583 12.6157 2.50769C12.6079 2.52328 12.5907 2.53172 12.5736 2.5283L12.3397 2.48152C12.2883 2.47124 12.2395 2.45005 12.1996 2.41609C12.1372 2.36303 12.0748 2.30169 12.0124 2.23944C11.9974 2.22438 11.9769 2.21591 11.9556 2.21591C11.9112 2.21591 11.8753 2.17993 11.8753 2.13556V2.10341C11.8753 2.07358 11.8634 2.04497 11.8423 2.02387L11.7446 1.92618C11.7107 1.89228 11.6714 1.86443 11.6294 1.84127C11.5658 1.8062 11.4971 1.76383 11.4352 1.72021C11.4108 1.70301 11.3819 1.69318 11.352 1.69318C11.2862 1.69318 11.2296 1.64676 11.2167 1.58228L11.2094 1.54556C11.1992 1.49483 11.1682 1.45073 11.1238 1.42412L11.0228 1.3635C10.9855 1.34114 10.9437 1.3273 10.9005 1.32298L10.7889 1.31182C10.7578 1.3087 10.7304 1.28986 10.7164 1.2619L10.6904 1.20972C10.6799 1.18881 10.69 1.16344 10.712 1.15545C10.7531 1.14049 10.7424 1.07987 10.6986 1.08032C10.5574 1.0818 10.4134 1.08606 10.2614 1.09839C10.2358 1.10046 10.2162 1.12194 10.2162 1.14762C10.2162 1.16211 10.2098 1.17588 10.1988 1.18532L10.1389 1.2367C10.0872 1.28096 10.0181 1.29903 9.95144 1.28569L9.9092 1.27724C9.85715 1.26683 9.80862 1.2432 9.76831 1.20865C9.70585 1.15511 9.62464 1.12854 9.54262 1.13485L9.37527 1.14773H9.1878C9.15326 1.14773 9.12527 1.11973 9.12527 1.08519C9.12527 1.06716 9.11748 1.05001 9.10391 1.03813L9.00344 0.950219C8.96477 0.916379 8.91512 0.897727 8.86373 0.897727H8.81083C8.76644 0.897727 8.72553 0.873658 8.70397 0.83485L8.66785 0.769834C8.64651 0.73142 8.59433 0.724113 8.56326 0.755186C8.54555 0.772901 8.53936 0.799104 8.54728 0.822872L8.55152 0.835571C8.56706 0.88219 8.54131 0.932485 8.49441 0.947143L8.36778 0.986715C8.27951 1.0143 8.22278 1.10012 8.23198 1.19214L8.23422 1.21453C8.23725 1.24482 8.25066 1.27312 8.27219 1.29465C8.3075 1.32996 8.31983 1.3822 8.30404 1.42959L8.27745 1.50935C8.26767 1.5387 8.24291 1.56056 8.21257 1.56663C8.17444 1.57426 8.13593 1.55542 8.11854 1.52065L8.08118 1.44591C8.05193 1.38741 8.05385 1.31816 8.0863 1.26138L8.09512 1.24594C8.11487 1.21137 8.12527 1.17224 8.12527 1.13241V1.06035C8.12527 1.04323 8.1202 1.02649 8.1107 1.01224L8.092 0.984185C8.06527 0.944097 8.08953 0.889846 8.13722 0.883032L8.14039 0.882579C8.17084 0.87823 8.19345 0.852158 8.19345 0.821406C8.19345 0.811813 8.19568 0.802351 8.19997 0.793771L8.20775 0.778211C8.22635 0.741005 8.21906 0.696069 8.18965 0.666655C8.17726 0.65427 8.16174 0.645483 8.14475 0.641235L8.14086 0.640261C8.10298 0.630793 8.06292 0.64189 8.03532 0.669494L7.9678 0.73701C7.95163 0.753185 7.93353 0.767315 7.91391 0.779084C7.82926 0.829878 7.7446 0.880672 7.65994 0.931466C7.62267 0.95383 7.57918 0.963573 7.53593 0.959248L7.41287 0.946942C7.39088 0.944743 7.3703 0.958071 7.36331 0.979036C7.35688 0.998342 7.33881 1.01136 7.31846 1.01136H7.24155C7.19659 1.01136 7.15388 1.03101 7.12463 1.06514L7.08488 1.11151C7.05179 1.15011 7.02956 1.19682 7.02047 1.24684L6.99081 1.40994C6.98954 1.41694 6.9889 1.42403 6.9889 1.43114C6.9889 1.47959 6.9594 1.52316 6.91442 1.54116L6.9017 1.54624C6.88426 1.55322 6.86842 1.56367 6.85513 1.57695L6.73214 1.69994C6.69281 1.73927 6.63948 1.76136 6.58386 1.76136H6.54453C6.53784 1.76136 6.53124 1.76292 6.52526 1.76591C6.50484 1.77612 6.49592 1.80047 6.50491 1.82145L6.54196 1.90789C6.55155 1.93027 6.5508 1.95575 6.53991 1.97753L6.53644 1.98447C6.52179 2.01377 6.48935 2.02963 6.45723 2.02321C6.4229 2.01635 6.38856 2.03495 6.37556 2.06746L6.37057 2.07993C6.35933 2.10801 6.36317 2.13989 6.38075 2.1645L6.43317 2.23788C6.4549 2.26831 6.46964 2.30317 6.47633 2.33996L6.50334 2.48849C6.50853 2.51705 6.49938 2.54634 6.47886 2.56686C6.45689 2.58883 6.44806 2.62072 6.45559 2.65086L6.50125 2.83346C6.50805 2.86068 6.50757 2.8892 6.49987 2.91617L6.48079 2.98295C6.47217 3.01312 6.48488 3.04531 6.51178 3.06145C6.54778 3.08305 6.55646 3.13144 6.53153 3.16522C6.47891 3.23653 6.43368 3.30617 6.39012 3.36839C6.36648 3.40216 6.32972 3.42426 6.28906 3.43103C6.24291 3.43873 6.20231 3.46629 6.17824 3.50641L6.16759 3.52416C6.15494 3.54524 6.15021 3.57014 6.15425 3.59439L6.16262 3.64458C6.16714 3.67167 6.14934 3.69746 6.12241 3.70284L6.11465 3.7044C6.08566 3.71019 6.07012 3.74197 6.08334 3.76842C6.09408 3.78989 6.08599 3.81601 6.06501 3.82767L5.89799 3.92045L5.81042 3.95799C5.76874 3.97585 5.74527 4.02047 5.75416 4.06493C5.75896 4.08892 5.75441 4.11382 5.74145 4.13456L5.66785 4.25232C5.65469 4.27337 5.64493 4.29636 5.63891 4.32044L5.61355 4.42187C5.60683 4.44876 5.58521 4.46938 5.55802 4.47481C5.51965 4.48249 5.49451 4.51949 5.50151 4.55799L5.52818 4.70466C5.53212 4.72632 5.52685 4.74865 5.51363 4.76627C5.48742 4.80121 5.49451 4.85079 5.52945 4.87701L5.59078 4.923C5.62284 4.94704 5.66812 4.94176 5.69378 4.91097L5.70356 4.89923C5.73195 4.86516 5.78548 4.8693 5.8083 4.90733C5.82139 4.92914 5.82042 4.9566 5.80584 4.97743L5.69956 5.12926C5.68043 5.15658 5.6575 5.18103 5.63146 5.20187L5.50295 5.30467C5.46385 5.33595 5.43284 5.37615 5.4125 5.4219L5.40808 5.43185C5.37291 5.51098 5.37497 5.60169 5.4137 5.67913L5.46335 5.77844C5.47915 5.81004 5.47681 5.84769 5.45721 5.87708C5.42531 5.92493 5.44104 5.98983 5.49131 6.01775L5.58783 6.07137C5.59762 6.07681 5.60693 6.08306 5.61568 6.09006L5.71857 6.17237C5.79166 6.23085 5.84965 6.30601 5.88767 6.39154C5.9096 6.44088 5.93825 6.48695 5.97282 6.52843L5.97988 6.5369C6.01605 6.5803 6.0465 6.62817 6.07071 6.67922C6.24041 7.03711 6.41011 7.37651 6.57981 7.71591L6.8057 8.06501C6.82034 8.08763 6.82014 8.11678 6.80519 8.1392C6.79224 8.15864 6.79023 8.18338 6.7999 8.20465L6.86381 8.34526C6.88628 8.39469 6.92009 8.43813 6.9625 8.47206L7.12527 8.60227L7.62527 8.92045L8.13959 9.1879C8.17364 9.20561 8.19783 9.2378 8.20535 9.27544C8.21225 9.30994 8.2332 9.34002 8.26317 9.35847L8.35986 9.41797C8.45619 9.47724 8.52178 9.57567 8.53942 9.68738L8.57981 9.94318L8.59423 10.2604C8.59976 10.382 8.59416 10.5039 8.5775 10.6245C8.50272 11.1658 8.43079 11.6944 8.38734 12.2361C8.37875 12.3431 8.35443 12.4483 8.31355 12.5476L8.29808 12.5852C8.24434 12.7157 8.22435 12.8576 8.23993 12.9979L8.24734 13.0646C8.25674 13.1492 8.2465 13.2348 8.21742 13.3148C8.18675 13.3991 8.17706 13.4896 8.18918 13.5786L8.20735 13.7118C8.22815 13.8643 8.21714 14.0197 8.1714 14.1667C8.03025 14.6205 7.86628 15.0764 7.73168 15.5475C7.72243 15.5798 7.69289 15.6023 7.65921 15.6023C7.61609 15.6023 7.58182 15.6385 7.58422 15.6815L7.60066 15.9776C7.60191 16.0001 7.60528 16.0223 7.61073 16.0441L7.64522 16.1821C7.67623 16.3061 7.65946 16.4373 7.59823 16.5496C7.57099 16.5995 7.55221 16.6536 7.54331 16.7098C7.4871 17.0646 7.44543 17.434 7.38926 17.7888C7.38155 17.8375 7.41214 17.8842 7.45997 17.8962C7.51269 17.9094 7.56565 17.8755 7.57581 17.8221L7.6205 17.5875C7.63373 17.5181 7.71263 17.4836 7.77259 17.5211C7.8072 17.5427 7.82531 17.5831 7.81841 17.6233L7.72271 18.1816C7.70779 18.2686 7.61544 18.3188 7.53428 18.2841C7.45316 18.2493 7.36087 18.2994 7.34587 18.3864L7.2724 18.8125C7.26532 18.8536 7.24859 18.8924 7.22359 18.9257L7.11491 19.0706C7.05472 19.1509 7.09498 19.2666 7.192 19.2921C7.29539 19.3193 7.33229 19.447 7.25935 19.5252L7.14313 19.6497C7.11646 19.6783 7.09708 19.7128 7.08662 19.7505L7.03504 19.9362C7.00449 20.0461 6.99243 20.1604 6.99933 20.2743L7.02802 20.7477C7.03221 20.8168 7.04925 20.8845 7.07827 20.9474L7.10413 21.0035C7.14691 21.0961 7.15275 21.2016 7.12047 21.2985C7.09403 21.3778 7.09303 21.4634 7.11763 21.5433L7.15284 21.6578C7.16474 21.6965 7.1736 21.736 7.17932 21.7761L7.20216 21.936C7.21126 21.9997 7.24077 22.0587 7.28626 22.1042C7.30011 22.118 7.31546 22.1306 7.33176 22.1414C7.36035 22.1605 7.3858 22.1845 7.40642 22.212L7.55324 22.4078C7.61628 22.4918 7.68683 22.5699 7.76403 22.6412L7.94345 22.8068L8.18837 22.9905C8.26665 23.0492 8.35633 23.0909 8.45167 23.1129L8.46811 23.1167C8.55666 23.1371 8.6397 23.1766 8.71144 23.2324C8.77462 23.2816 8.84663 23.3181 8.92359 23.3401L8.96618 23.3523C9.05397 23.3669 9.14408 23.3486 9.21917 23.3008L9.32413 23.234C9.34266 23.2222 9.3573 23.2052 9.36621 23.1851L9.37377 23.1681C9.405 23.0979 9.50025 23.0871 9.54639 23.1486C9.56719 23.1763 9.60078 23.1914 9.63533 23.1886L9.7675 23.1775C9.82059 23.1731 9.86789 23.1423 9.8934 23.0955C9.94223 23.006 9.89499 22.8944 9.79674 22.8671L9.65051 22.8265C9.60417 22.8136 9.56194 22.7889 9.52793 22.7549L9.36752 22.5945C9.28272 22.5097 9.21666 22.4081 9.17361 22.2961L9.1566 22.2519C9.13584 22.1979 9.12363 22.141 9.12042 22.0833L9.1045 21.7967C9.10329 21.7748 9.09046 21.7553 9.0709 21.7455C9.06183 21.741 9.05404 21.7343 9.04823 21.726L8.97091 21.6155C8.92285 21.5469 8.88988 21.4688 8.8742 21.3865L8.83428 21.1769C8.81671 21.0846 8.83207 20.9891 8.87768 20.907C8.90603 20.856 8.94518 20.8118 8.9924 20.7774L9.02411 20.7544C9.11956 20.6849 9.1915 20.588 9.23028 20.4765L9.289 20.3077C9.33038 20.1887 9.40693 20.0851 9.5085 20.0106L9.60134 19.9425C9.66079 19.899 9.70272 19.8356 9.71961 19.7638L9.73299 19.707C9.76208 19.5833 9.69209 19.4579 9.57158 19.4177C9.53225 19.4046 9.49689 19.3818 9.46877 19.3513L9.3874 19.2631C9.29518 19.1632 9.2617 19.0225 9.29905 18.8918C9.31915 18.8214 9.35866 18.7581 9.41305 18.7092L9.48665 18.6429C9.532 18.6021 9.59084 18.5795 9.65184 18.5795C9.75812 18.5795 9.85248 18.5115 9.88609 18.4107L9.88926 18.4012C9.89506 18.3838 9.89902 18.3658 9.90104 18.3475L9.92133 18.165C9.93571 18.0356 9.99061 17.914 10.0782 17.8177L10.1352 17.755C10.1586 17.7292 10.1874 17.709 10.2194 17.6956L10.3494 17.6415C10.401 17.62 10.4248 17.5602 10.4021 17.5092C10.3765 17.4516 10.3045 17.432 10.2533 17.4686L10.2459 17.4739C10.2136 17.497 10.1713 17.5003 10.1358 17.4826L10.0976 17.4634C10.0439 17.4366 10.0074 17.3846 10.0004 17.325L9.97407 17.1012C9.96916 17.0595 9.98613 17.0181 10.019 16.9919C10.0561 16.9622 10.107 16.9568 10.1495 16.978L10.2619 17.0342C10.3209 17.0637 10.3875 17.0742 10.4527 17.0641L10.5865 17.0436C10.6269 17.0373 10.6651 17.0213 10.6978 16.9967L10.7209 16.9794C10.7869 16.9299 10.8168 16.8457 10.7968 16.7656C10.7886 16.733 10.7886 16.6988 10.7968 16.6662L10.8439 16.4776C10.8496 16.4551 10.849 16.4315 10.8424 16.4092C10.8153 16.319 10.8909 16.2311 10.9842 16.2445L11.0779 16.2578C11.0943 16.2602 11.1109 16.2604 11.1273 16.2584L11.5048 16.2131C11.6147 16.1999 11.7217 16.169 11.8218 16.1216C12.0048 16.0349 12.1582 15.8959 12.2624 15.7222L12.3485 15.5788C12.3661 15.5493 12.3775 15.5165 12.3817 15.4824L12.3835 15.4682C12.3926 15.3957 12.3649 15.3233 12.3099 15.2752C12.2519 15.2244 12.2246 15.1467 12.2384 15.0708C12.2527 14.9921 12.223 14.9118 12.1609 14.8614L11.9283 14.6724C11.9095 14.657 11.8998 14.6331 11.9028 14.6089C11.9101 14.5507 11.9812 14.5263 12.0226 14.5678L12.0719 14.6171C12.0915 14.6367 12.1181 14.6477 12.1459 14.6477H12.2263C12.2792 14.6477 12.3312 14.6618 12.3769 14.6884L12.497 14.7585C12.5499 14.7894 12.6131 14.7973 12.672 14.7805C12.7156 14.768 12.7619 14.769 12.8049 14.7834L12.8226 14.7892C12.8995 14.8149 12.9837 14.8066 13.0541 14.7663L13.1332 14.7211C13.2169 14.6733 13.2847 14.6017 13.3278 14.5154L13.3407 14.4896C13.3637 14.4437 13.3925 14.401 13.4266 14.3627L13.4683 14.3158C13.5271 14.2496 13.5749 14.1744 13.6097 14.093L13.6165 14.0773C13.667 13.9595 13.7465 13.8564 13.8477 13.7778C13.8812 13.7517 13.9124 13.7229 13.941 13.6917L13.9987 13.6288C14.0979 13.5206 14.1832 13.4006 14.2527 13.2714L14.4088 12.9815C14.4468 12.9111 14.4968 12.8478 14.5566 12.7946L14.5895 12.7654C14.643 12.7178 14.6853 12.6591 14.7135 12.5933C14.7304 12.554 14.742 12.5127 14.748 12.4703L14.772 12.3023C14.7802 12.2452 14.7772 12.1872 14.7632 12.1313C14.7472 12.0673 14.7456 12.0005 14.7585 11.9359L14.761 11.9238C14.7763 11.8469 14.8096 11.7747 14.8581 11.713L14.9432 11.6046C15.0037 11.5277 15.0744 11.4593 15.1533 11.4014L15.2327 11.3432C15.327 11.274 15.4328 11.2222 15.5453 11.1901L15.5814 11.1797C15.6556 11.1585 15.7262 11.1259 15.7904 11.0831C15.8616 11.0356 15.9404 11.0008 16.0234 10.98L16.306 10.9094C16.3369 10.9016 16.3687 10.8977 16.4005 10.8977H16.5416C16.6193 10.8977 16.6888 10.8495 16.7161 10.7768C16.7309 10.7374 16.7586 10.7041 16.7947 10.6824L16.8351 10.6582C16.918 10.6084 16.9741 10.5239 16.9878 10.4282L16.9955 10.3741C17.0061 10.3002 17.0354 10.2302 17.0808 10.1709L17.1847 10.0351C17.2648 9.93034 17.3148 9.80576 17.3293 9.67472L17.3446 9.53749C17.3498 9.49073 17.3681 9.44641 17.3975 9.40967C17.4275 9.37221 17.4457 9.32683 17.4516 9.27921C17.4673 9.15147 17.4896 9.02958 17.5144 8.90498C17.5421 8.76514 17.5421 8.62124 17.513 8.48166L17.4586 8.22038C17.4487 8.17314 17.454 8.12401 17.4736 8.07991L17.5183 7.97921C17.5281 7.9573 17.5498 7.94318 17.5738 7.94318C17.592 7.94318 17.6092 7.93501 17.6207 7.92093L17.7764 7.73063C17.7968 7.70571 17.8151 7.67913 17.8311 7.65117L17.8769 7.571C17.9512 7.44091 18.0426 7.32132 18.1485 7.21538L18.357 7.00687C18.3843 6.9796 18.4096 6.95042 18.4327 6.91957C18.4998 6.83021 18.5477 6.72802 18.5736 6.61934L18.6046 6.48914C18.6331 6.36935 18.6324 6.24446 18.6025 6.125Z"/>
</mask>
<path d="M11.7568 21.2757C11.7045 21.3223 11.6296 21.3336 11.5658 21.3046L11.5445 21.2949C11.469 21.2606 11.3805 21.2731 11.3175 21.3271L11.1857 21.4401C11.1382 21.4808 11.1286 21.5505 11.1633 21.6025C11.2038 21.6633 11.2879 21.6758 11.3444 21.6296L11.3936 21.5894C11.4466 21.546 11.5245 21.5529 11.5691 21.6049C11.6029 21.6444 11.6576 21.659 11.7067 21.6417L11.9571 21.5533C11.9923 21.5409 12.0218 21.5163 12.0403 21.4839C12.0766 21.4203 12.0637 21.3401 12.0093 21.2911L11.993 21.2765C11.926 21.2161 11.8243 21.2158 11.7568 21.2757ZM18.6025 6.125L18.5303 5.83604C18.5182 5.7876 18.4905 5.74447 18.4515 5.71328C18.4166 5.68535 18.3743 5.6683 18.3297 5.66425L18.2297 5.65515C18.1755 5.65023 18.1223 5.63746 18.0718 5.61726L18.0433 5.60584C17.9622 5.57339 17.8871 5.52743 17.8214 5.4699L17.6756 5.34232C17.5969 5.27344 17.5103 5.21402 17.4177 5.1653L17.3674 5.1388C17.2084 5.0551 17.0314 5.01136 16.8516 5.01136C16.7467 5.01136 16.6423 4.99645 16.5416 4.96707L16.1943 4.86578C16.164 4.85694 16.1319 4.85657 16.1014 4.8647L15.9296 4.91052C15.8756 4.9249 15.8266 4.87498 15.8419 4.82128C15.8485 4.79806 15.8431 4.77306 15.8274 4.75473L15.758 4.67381C15.7305 4.64172 15.6959 4.61644 15.6567 4.60058C15.4211 4.50521 15.1843 4.42555 14.9316 4.34698C14.8964 4.33602 14.858 4.34335 14.8292 4.36641L14.8083 4.38309C14.7437 4.43479 14.648 4.38878 14.648 4.30603C14.648 4.25499 14.6091 4.21237 14.5582 4.20775L14.1834 4.17367C14.1605 4.17159 14.1391 4.16157 14.1229 4.14534C14.086 4.10846 14.0844 4.04915 14.1193 4.01038L14.2155 3.90354C14.2452 3.87053 14.2616 3.8277 14.2616 3.7833V3.74443C14.2616 3.68719 14.2237 3.63689 14.1686 3.62116C14.1274 3.60936 14.0947 3.57768 14.0817 3.53676L13.9434 3.10227L13.894 2.98691C13.885 2.96597 13.8577 2.96071 13.8416 2.97682C13.8253 2.99317 13.7975 2.98748 13.7889 2.96601L13.768 2.91375C13.7638 2.90323 13.7571 2.8939 13.7485 2.88658L13.595 2.75676C13.5099 2.68473 13.412 2.62894 13.3049 2.59786C13.1744 2.55997 13.0438 2.52646 12.9133 2.48554C12.8731 2.47295 12.8309 2.46807 12.789 2.47226L12.6465 2.48652C12.6333 2.48784 12.6217 2.49583 12.6157 2.50769C12.6079 2.52328 12.5907 2.53172 12.5736 2.5283L12.3397 2.48152C12.2883 2.47124 12.2395 2.45005 12.1996 2.41609C12.1372 2.36303 12.0748 2.30169 12.0124 2.23944C11.9974 2.22438 11.9769 2.21591 11.9556 2.21591C11.9112 2.21591 11.8753 2.17993 11.8753 2.13556V2.10341C11.8753 2.07358 11.8634 2.04497 11.8423 2.02387L11.7446 1.92618C11.7107 1.89228 11.6714 1.86443 11.6294 1.84127C11.5658 1.8062 11.4971 1.76383 11.4352 1.72021C11.4108 1.70301 11.3819 1.69318 11.352 1.69318C11.2862 1.69318 11.2296 1.64676 11.2167 1.58228L11.2094 1.54556C11.1992 1.49483 11.1682 1.45073 11.1238 1.42412L11.0228 1.3635C10.9855 1.34114 10.9437 1.3273 10.9005 1.32298L10.7889 1.31182C10.7578 1.3087 10.7304 1.28986 10.7164 1.2619L10.6904 1.20972C10.6799 1.18881 10.69 1.16344 10.712 1.15545C10.7531 1.14049 10.7424 1.07987 10.6986 1.08032C10.5574 1.0818 10.4134 1.08606 10.2614 1.09839C10.2358 1.10046 10.2162 1.12194 10.2162 1.14762C10.2162 1.16211 10.2098 1.17588 10.1988 1.18532L10.1389 1.2367C10.0872 1.28096 10.0181 1.29903 9.95144 1.28569L9.9092 1.27724C9.85715 1.26683 9.80862 1.2432 9.76831 1.20865C9.70585 1.15511 9.62464 1.12854 9.54262 1.13485L9.37527 1.14773H9.1878C9.15326 1.14773 9.12527 1.11973 9.12527 1.08519C9.12527 1.06716 9.11748 1.05001 9.10391 1.03813L9.00344 0.950219C8.96477 0.916379 8.91512 0.897727 8.86373 0.897727H8.81083C8.76644 0.897727 8.72553 0.873658 8.70397 0.83485L8.66785 0.769834C8.64651 0.73142 8.59433 0.724113 8.56326 0.755186C8.54555 0.772901 8.53936 0.799104 8.54728 0.822872L8.55152 0.835571C8.56706 0.88219 8.54131 0.932485 8.49441 0.947143L8.36778 0.986715C8.27951 1.0143 8.22278 1.10012 8.23198 1.19214L8.23422 1.21453C8.23725 1.24482 8.25066 1.27312 8.27219 1.29465C8.3075 1.32996 8.31983 1.3822 8.30404 1.42959L8.27745 1.50935C8.26767 1.5387 8.24291 1.56056 8.21257 1.56663C8.17444 1.57426 8.13593 1.55542 8.11854 1.52065L8.08118 1.44591C8.05193 1.38741 8.05385 1.31816 8.0863 1.26138L8.09512 1.24594C8.11487 1.21137 8.12527 1.17224 8.12527 1.13241V1.06035C8.12527 1.04323 8.1202 1.02649 8.1107 1.01224L8.092 0.984185C8.06527 0.944097 8.08953 0.889846 8.13722 0.883032L8.14039 0.882579C8.17084 0.87823 8.19345 0.852158 8.19345 0.821406C8.19345 0.811813 8.19568 0.802351 8.19997 0.793771L8.20775 0.778211C8.22635 0.741005 8.21906 0.696069 8.18965 0.666655C8.17726 0.65427 8.16174 0.645483 8.14475 0.641235L8.14086 0.640261C8.10298 0.630793 8.06292 0.64189 8.03532 0.669494L7.9678 0.73701C7.95163 0.753185 7.93353 0.767315 7.91391 0.779084C7.82926 0.829878 7.7446 0.880672 7.65994 0.931466C7.62267 0.95383 7.57918 0.963573 7.53593 0.959248L7.41287 0.946942C7.39088 0.944743 7.3703 0.958071 7.36331 0.979036C7.35688 0.998342 7.33881 1.01136 7.31846 1.01136H7.24155C7.19659 1.01136 7.15388 1.03101 7.12463 1.06514L7.08488 1.11151C7.05179 1.15011 7.02956 1.19682 7.02047 1.24684L6.99081 1.40994C6.98954 1.41694 6.9889 1.42403 6.9889 1.43114C6.9889 1.47959 6.9594 1.52316 6.91442 1.54116L6.9017 1.54624C6.88426 1.55322 6.86842 1.56367 6.85513 1.57695L6.73214 1.69994C6.69281 1.73927 6.63948 1.76136 6.58386 1.76136H6.54453C6.53784 1.76136 6.53124 1.76292 6.52526 1.76591C6.50484 1.77612 6.49592 1.80047 6.50491 1.82145L6.54196 1.90789C6.55155 1.93027 6.5508 1.95575 6.53991 1.97753L6.53644 1.98447C6.52179 2.01377 6.48935 2.02963 6.45723 2.02321C6.4229 2.01635 6.38856 2.03495 6.37556 2.06746L6.37057 2.07993C6.35933 2.10801 6.36317 2.13989 6.38075 2.1645L6.43317 2.23788C6.4549 2.26831 6.46964 2.30317 6.47633 2.33996L6.50334 2.48849C6.50853 2.51705 6.49938 2.54634 6.47886 2.56686C6.45689 2.58883 6.44806 2.62072 6.45559 2.65086L6.50125 2.83346C6.50805 2.86068 6.50757 2.8892 6.49987 2.91617L6.48079 2.98295C6.47217 3.01312 6.48488 3.04531 6.51178 3.06145C6.54778 3.08305 6.55646 3.13144 6.53153 3.16522C6.47891 3.23653 6.43368 3.30617 6.39012 3.36839C6.36648 3.40216 6.32972 3.42426 6.28906 3.43103C6.24291 3.43873 6.20231 3.46629 6.17824 3.50641L6.16759 3.52416C6.15494 3.54524 6.15021 3.57014 6.15425 3.59439L6.16262 3.64458C6.16714 3.67167 6.14934 3.69746 6.12241 3.70284L6.11465 3.7044C6.08566 3.71019 6.07012 3.74197 6.08334 3.76842C6.09408 3.78989 6.08599 3.81601 6.06501 3.82767L5.89799 3.92045L5.81042 3.95799C5.76874 3.97585 5.74527 4.02047 5.75416 4.06493C5.75896 4.08892 5.75441 4.11382 5.74145 4.13456L5.66785 4.25232C5.65469 4.27337 5.64493 4.29636 5.63891 4.32044L5.61355 4.42187C5.60683 4.44876 5.58521 4.46938 5.55802 4.47481C5.51965 4.48249 5.49451 4.51949 5.50151 4.55799L5.52818 4.70466C5.53212 4.72632 5.52685 4.74865 5.51363 4.76627C5.48742 4.80121 5.49451 4.85079 5.52945 4.87701L5.59078 4.923C5.62284 4.94704 5.66812 4.94176 5.69378 4.91097L5.70356 4.89923C5.73195 4.86516 5.78548 4.8693 5.8083 4.90733C5.82139 4.92914 5.82042 4.9566 5.80584 4.97743L5.69956 5.12926C5.68043 5.15658 5.6575 5.18103 5.63146 5.20187L5.50295 5.30467C5.46385 5.33595 5.43284 5.37615 5.4125 5.4219L5.40808 5.43185C5.37291 5.51098 5.37497 5.60169 5.4137 5.67913L5.46335 5.77844C5.47915 5.81004 5.47681 5.84769 5.45721 5.87708C5.42531 5.92493 5.44104 5.98983 5.49131 6.01775L5.58783 6.07137C5.59762 6.07681 5.60693 6.08306 5.61568 6.09006L5.71857 6.17237C5.79166 6.23085 5.84965 6.30601 5.88767 6.39154C5.9096 6.44088 5.93825 6.48695 5.97282 6.52843L5.97988 6.5369C6.01605 6.5803 6.0465 6.62817 6.07071 6.67922C6.24041 7.03711 6.41011 7.37651 6.57981 7.71591L6.8057 8.06501C6.82034 8.08763 6.82014 8.11678 6.80519 8.1392C6.79224 8.15864 6.79023 8.18338 6.7999 8.20465L6.86381 8.34526C6.88628 8.39469 6.92009 8.43813 6.9625 8.47206L7.12527 8.60227L7.62527 8.92045L8.13959 9.1879C8.17364 9.20561 8.19783 9.2378 8.20535 9.27544C8.21225 9.30994 8.2332 9.34002 8.26317 9.35847L8.35986 9.41797C8.45619 9.47724 8.52178 9.57567 8.53942 9.68738L8.57981 9.94318L8.59423 10.2604C8.59976 10.382 8.59416 10.5039 8.5775 10.6245C8.50272 11.1658 8.43079 11.6944 8.38734 12.2361C8.37875 12.3431 8.35443 12.4483 8.31355 12.5476L8.29808 12.5852C8.24434 12.7157 8.22435 12.8576 8.23993 12.9979L8.24734 13.0646C8.25674 13.1492 8.2465 13.2348 8.21742 13.3148C8.18675 13.3991 8.17706 13.4896 8.18918 13.5786L8.20735 13.7118C8.22815 13.8643 8.21714 14.0197 8.1714 14.1667C8.03025 14.6205 7.86628 15.0764 7.73168 15.5475C7.72243 15.5798 7.69289 15.6023 7.65921 15.6023C7.61609 15.6023 7.58182 15.6385 7.58422 15.6815L7.60066 15.9776C7.60191 16.0001 7.60528 16.0223 7.61073 16.0441L7.64522 16.1821C7.67623 16.3061 7.65946 16.4373 7.59823 16.5496C7.57099 16.5995 7.55221 16.6536 7.54331 16.7098C7.4871 17.0646 7.44543 17.434 7.38926 17.7888C7.38155 17.8375 7.41214 17.8842 7.45997 17.8962C7.51269 17.9094 7.56565 17.8755 7.57581 17.8221L7.6205 17.5875C7.63373 17.5181 7.71263 17.4836 7.77259 17.5211C7.8072 17.5427 7.82531 17.5831 7.81841 17.6233L7.72271 18.1816C7.70779 18.2686 7.61544 18.3188 7.53428 18.2841C7.45316 18.2493 7.36087 18.2994 7.34587 18.3864L7.2724 18.8125C7.26532 18.8536 7.24859 18.8924 7.22359 18.9257L7.11491 19.0706C7.05472 19.1509 7.09498 19.2666 7.192 19.2921C7.29539 19.3193 7.33229 19.447 7.25935 19.5252L7.14313 19.6497C7.11646 19.6783 7.09708 19.7128 7.08662 19.7505L7.03504 19.9362C7.00449 20.0461 6.99243 20.1604 6.99933 20.2743L7.02802 20.7477C7.03221 20.8168 7.04925 20.8845 7.07827 20.9474L7.10413 21.0035C7.14691 21.0961 7.15275 21.2016 7.12047 21.2985C7.09403 21.3778 7.09303 21.4634 7.11763 21.5433L7.15284 21.6578C7.16474 21.6965 7.1736 21.736 7.17932 21.7761L7.20216 21.936C7.21126 21.9997 7.24077 22.0587 7.28626 22.1042C7.30011 22.118 7.31546 22.1306 7.33176 22.1414C7.36035 22.1605 7.3858 22.1845 7.40642 22.212L7.55324 22.4078C7.61628 22.4918 7.68683 22.5699 7.76403 22.6412L7.94345 22.8068L8.18837 22.9905C8.26665 23.0492 8.35633 23.0909 8.45167 23.1129L8.46811 23.1167C8.55666 23.1371 8.6397 23.1766 8.71144 23.2324C8.77462 23.2816 8.84663 23.3181 8.92359 23.3401L8.96618 23.3523C9.05397 23.3669 9.14408 23.3486 9.21917 23.3008L9.32413 23.234C9.34266 23.2222 9.3573 23.2052 9.36621 23.1851L9.37377 23.1681C9.405 23.0979 9.50025 23.0871 9.54639 23.1486C9.56719 23.1763 9.60078 23.1914 9.63533 23.1886L9.7675 23.1775C9.82059 23.1731 9.86789 23.1423 9.8934 23.0955C9.94223 23.006 9.89499 22.8944 9.79674 22.8671L9.65051 22.8265C9.60417 22.8136 9.56194 22.7889 9.52793 22.7549L9.36752 22.5945C9.28272 22.5097 9.21666 22.4081 9.17361 22.2961L9.1566 22.2519C9.13584 22.1979 9.12363 22.141 9.12042 22.0833L9.1045 21.7967C9.10329 21.7748 9.09046 21.7553 9.0709 21.7455C9.06183 21.741 9.05404 21.7343 9.04823 21.726L8.97091 21.6155C8.92285 21.5469 8.88988 21.4688 8.8742 21.3865L8.83428 21.1769C8.81671 21.0846 8.83207 20.9891 8.87768 20.907C8.90603 20.856 8.94518 20.8118 8.9924 20.7774L9.02411 20.7544C9.11956 20.6849 9.1915 20.588 9.23028 20.4765L9.289 20.3077C9.33038 20.1887 9.40693 20.0851 9.5085 20.0106L9.60134 19.9425C9.66079 19.899 9.70272 19.8356 9.71961 19.7638L9.73299 19.707C9.76208 19.5833 9.69209 19.4579 9.57158 19.4177C9.53225 19.4046 9.49689 19.3818 9.46877 19.3513L9.3874 19.2631C9.29518 19.1632 9.2617 19.0225 9.29905 18.8918C9.31915 18.8214 9.35866 18.7581 9.41305 18.7092L9.48665 18.6429C9.532 18.6021 9.59084 18.5795 9.65184 18.5795C9.75812 18.5795 9.85248 18.5115 9.88609 18.4107L9.88926 18.4012C9.89506 18.3838 9.89902 18.3658 9.90104 18.3475L9.92133 18.165C9.93571 18.0356 9.99061 17.914 10.0782 17.8177L10.1352 17.755C10.1586 17.7292 10.1874 17.709 10.2194 17.6956L10.3494 17.6415C10.401 17.62 10.4248 17.5602 10.4021 17.5092C10.3765 17.4516 10.3045 17.432 10.2533 17.4686L10.2459 17.4739C10.2136 17.497 10.1713 17.5003 10.1358 17.4826L10.0976 17.4634C10.0439 17.4366 10.0074 17.3846 10.0004 17.325L9.97407 17.1012C9.96916 17.0595 9.98613 17.0181 10.019 16.9919C10.0561 16.9622 10.107 16.9568 10.1495 16.978L10.2619 17.0342C10.3209 17.0637 10.3875 17.0742 10.4527 17.0641L10.5865 17.0436C10.6269 17.0373 10.6651 17.0213 10.6978 16.9967L10.7209 16.9794C10.7869 16.9299 10.8168 16.8457 10.7968 16.7656C10.7886 16.733 10.7886 16.6988 10.7968 16.6662L10.8439 16.4776C10.8496 16.4551 10.849 16.4315 10.8424 16.4092C10.8153 16.319 10.8909 16.2311 10.9842 16.2445L11.0779 16.2578C11.0943 16.2602 11.1109 16.2604 11.1273 16.2584L11.5048 16.2131C11.6147 16.1999 11.7217 16.169 11.8218 16.1216C12.0048 16.0349 12.1582 15.8959 12.2624 15.7222L12.3485 15.5788C12.3661 15.5493 12.3775 15.5165 12.3817 15.4824L12.3835 15.4682C12.3926 15.3957 12.3649 15.3233 12.3099 15.2752C12.2519 15.2244 12.2246 15.1467 12.2384 15.0708C12.2527 14.9921 12.223 14.9118 12.1609 14.8614L11.9283 14.6724C11.9095 14.657 11.8998 14.6331 11.9028 14.6089C11.9101 14.5507 11.9812 14.5263 12.0226 14.5678L12.0719 14.6171C12.0915 14.6367 12.1181 14.6477 12.1459 14.6477H12.2263C12.2792 14.6477 12.3312 14.6618 12.3769 14.6884L12.497 14.7585C12.5499 14.7894 12.6131 14.7973 12.672 14.7805C12.7156 14.768 12.7619 14.769 12.8049 14.7834L12.8226 14.7892C12.8995 14.8149 12.9837 14.8066 13.0541 14.7663L13.1332 14.7211C13.2169 14.6733 13.2847 14.6017 13.3278 14.5154L13.3407 14.4896C13.3637 14.4437 13.3925 14.401 13.4266 14.3627L13.4683 14.3158C13.5271 14.2496 13.5749 14.1744 13.6097 14.093L13.6165 14.0773C13.667 13.9595 13.7465 13.8564 13.8477 13.7778C13.8812 13.7517 13.9124 13.7229 13.941 13.6917L13.9987 13.6288C14.0979 13.5206 14.1832 13.4006 14.2527 13.2714L14.4088 12.9815C14.4468 12.9111 14.4968 12.8478 14.5566 12.7946L14.5895 12.7654C14.643 12.7178 14.6853 12.6591 14.7135 12.5933C14.7304 12.554 14.742 12.5127 14.748 12.4703L14.772 12.3023C14.7802 12.2452 14.7772 12.1872 14.7632 12.1313C14.7472 12.0673 14.7456 12.0005 14.7585 11.9359L14.761 11.9238C14.7763 11.8469 14.8096 11.7747 14.8581 11.713L14.9432 11.6046C15.0037 11.5277 15.0744 11.4593 15.1533 11.4014L15.2327 11.3432C15.327 11.274 15.4328 11.2222 15.5453 11.1901L15.5814 11.1797C15.6556 11.1585 15.7262 11.1259 15.7904 11.0831C15.8616 11.0356 15.9404 11.0008 16.0234 10.98L16.306 10.9094C16.3369 10.9016 16.3687 10.8977 16.4005 10.8977H16.5416C16.6193 10.8977 16.6888 10.8495 16.7161 10.7768C16.7309 10.7374 16.7586 10.7041 16.7947 10.6824L16.8351 10.6582C16.918 10.6084 16.9741 10.5239 16.9878 10.4282L16.9955 10.3741C17.0061 10.3002 17.0354 10.2302 17.0808 10.1709L17.1847 10.0351C17.2648 9.93034 17.3148 9.80576 17.3293 9.67472L17.3446 9.53749C17.3498 9.49073 17.3681 9.44641 17.3975 9.40967C17.4275 9.37221 17.4457 9.32683 17.4516 9.27921C17.4673 9.15147 17.4896 9.02958 17.5144 8.90498C17.5421 8.76514 17.5421 8.62124 17.513 8.48166L17.4586 8.22038C17.4487 8.17314 17.454 8.12401 17.4736 8.07991L17.5183 7.97921C17.5281 7.9573 17.5498 7.94318 17.5738 7.94318C17.592 7.94318 17.6092 7.93501 17.6207 7.92093L17.7764 7.73063C17.7968 7.70571 17.8151 7.67913 17.8311 7.65117L17.8769 7.571C17.9512 7.44091 18.0426 7.32132 18.1485 7.21538L18.357 7.00687C18.3843 6.9796 18.4096 6.95042 18.4327 6.91957C18.4998 6.83021 18.5477 6.72802 18.5736 6.61934L18.6046 6.48914C18.6331 6.36935 18.6324 6.24446 18.6025 6.125Z" stroke="currentcolor" stroke-width="1.2" mask="url(#path-1-inside-1_998_14037)"/>
</svg>
