<svg width="440" height="469" viewBox="0 0 440 469" fill="none" xmlns="http://www.w3.org/2000/svg">
<g clip-path="url(#clip0_261_4988)">
<g filter="url(#filter0_f_261_4988)">
<ellipse cx="212.853" cy="439.204" rx="189.853" ry="17.2403" fill="black" fill-opacity="0.17"/>
</g>
<g filter="url(#filter1_f_261_4988)">
<ellipse cx="220.853" cy="244.967" rx="196.147" ry="199.495" fill="black" fill-opacity="0.06"/>
</g>
<g filter="url(#filter2_f_261_4988)">
<ellipse cx="212.853" cy="420.204" rx="87.9852" ry="17.2403" fill="black" fill-opacity="0.28"/>
</g>
<circle cx="220.102" cy="234.102" r="204.682" fill="#2B0758" stroke="#2B0758" stroke-width="4.84045"/>
<circle cx="220.102" cy="234.102" r="178.059" fill="#B8FAF6" stroke="#2B0758" stroke-width="4.84045"/>
<path d="M210.828 402.014V317.76L106.725 256.81L210.828 402.014Z" fill="#F0CDC2" stroke="#2B0758" stroke-width="2.90427" stroke-linejoin="round"/>
<path fill-rule="evenodd" clip-rule="evenodd" d="M106.506 256.61C106.6 256.506 106.754 256.483 106.875 256.553L210.978 317.504C211.069 317.557 211.125 317.654 211.125 317.76V402.014C211.125 402.143 211.041 402.257 210.919 402.297C210.796 402.336 210.662 402.292 210.587 402.187L106.484 256.982C106.402 256.869 106.412 256.713 106.506 256.61ZM107.78 257.771L210.531 401.091V317.93L107.78 257.771Z" fill="#1616B4" stroke="#2B0758" stroke-width="2.90427" stroke-linejoin="round"/>
<path d="M211.173 402.014V317.76L315.275 256.81L211.173 402.014Z" fill="#C9B3F5" stroke="#2B0758" stroke-width="2.90427" stroke-linejoin="round"/>
<path fill-rule="evenodd" clip-rule="evenodd" d="M315.494 256.61C315.589 256.713 315.598 256.869 315.516 256.982L211.414 402.187C211.339 402.292 211.205 402.336 211.082 402.297C210.959 402.257 210.876 402.143 210.876 402.014V317.76C210.876 317.654 210.932 317.557 211.023 317.504L315.125 256.553C315.246 256.483 315.4 256.506 315.494 256.61ZM211.47 317.93V401.091L314.221 257.771L211.47 317.93Z" fill="#1616B4" stroke="#2B0758" stroke-width="2.90427" stroke-linejoin="round"/>
<path d="M210.828 296.817V189.286L105.531 236.492L210.828 296.817Z" fill="#88AAF1" stroke="#2B0758" stroke-width="2.90427" stroke-linejoin="round"/>
<path fill-rule="evenodd" clip-rule="evenodd" d="M210.989 189.037C211.074 189.091 211.125 189.185 211.125 189.286V296.817C211.125 296.923 211.069 297.021 210.977 297.074C210.885 297.127 210.772 297.127 210.681 297.075L105.384 236.75C105.287 236.694 105.229 236.589 105.235 236.478C105.24 236.366 105.308 236.267 105.41 236.221L210.707 189.015C210.798 188.974 210.905 188.982 210.989 189.037ZM106.185 236.525L210.531 296.305V189.744L106.185 236.525Z" fill="#1616B4" stroke="#2B0758" stroke-width="2.90427" stroke-linejoin="round"/>
<path d="M211.172 296.817V189.286L316.469 236.492L211.172 296.817Z" fill="#C9B3F5" stroke="#2B0758" stroke-width="2.90427" stroke-linejoin="round"/>
<path fill-rule="evenodd" clip-rule="evenodd" d="M211.011 189.037C211.096 188.982 211.202 188.974 211.294 189.015L316.591 236.221C316.693 236.267 316.76 236.366 316.766 236.478C316.772 236.589 316.714 236.694 316.617 236.75L211.32 297.075C211.228 297.127 211.115 297.127 211.024 297.074C210.932 297.021 210.876 296.923 210.876 296.817V189.286C210.876 189.185 210.927 189.091 211.011 189.037ZM211.469 189.744V296.305L315.816 236.525L211.469 189.744Z" fill="#1616B4" stroke="#2B0758" stroke-width="2.90427" stroke-linejoin="round"/>
<path d="M105.531 236.492L210.828 66.1902V189.286L105.531 236.492Z" fill="#F0CDC2" stroke="#2B0758" stroke-width="2.90427" stroke-linejoin="round"/>
<path fill-rule="evenodd" clip-rule="evenodd" d="M210.909 65.9046C211.037 65.9409 211.125 66.0575 211.125 66.1901V189.286C211.125 189.403 211.056 189.509 210.949 189.556L105.653 236.763C105.534 236.816 105.394 236.786 105.308 236.688C105.222 236.59 105.211 236.447 105.279 236.336L210.576 66.0341C210.645 65.9212 210.782 65.8684 210.909 65.9046ZM106.293 235.826L210.531 189.093V67.2346L106.293 235.826Z" fill="#1616B4" stroke="#2B0758" stroke-width="2.90427" stroke-linejoin="round"/>
<path d="M316.47 236.492L211.173 66.1902V189.286L316.47 236.492Z" fill="#B8FAF6" stroke="#2B0758" stroke-width="2.90427" stroke-linejoin="round"/>
<path fill-rule="evenodd" clip-rule="evenodd" d="M211.092 65.9049C211.22 65.8686 211.356 65.9215 211.425 66.0343L316.722 236.336C316.791 236.447 316.779 236.59 316.693 236.688C316.607 236.786 316.467 236.817 316.348 236.763L211.052 189.557C210.945 189.509 210.876 189.403 210.876 189.286V66.1904C210.876 66.0577 210.964 65.9412 211.092 65.9049ZM211.47 67.2349V189.094L315.708 235.826L211.47 67.2349Z" fill="#1616B4" stroke="#2B0758" stroke-width="2.90427" stroke-linejoin="round"/>
<path d="M400.567 319.316L400.076 320.417L388.062 315.055L388.553 313.955L400.567 319.316ZM401.97 313.677C401.177 315.454 398.978 315.999 396.432 314.863C393.873 313.721 392.81 311.72 393.603 309.943C394.39 308.179 396.589 307.634 399.148 308.776C401.694 309.913 402.757 311.914 401.97 313.677ZM400.976 313.233C401.496 312.066 400.617 310.688 398.681 309.824C396.731 308.954 395.091 309.208 394.571 310.375C394.044 311.555 394.956 312.932 396.905 313.802C398.842 314.666 400.449 314.414 400.976 313.233Z" fill="#F6F2FF"/>
<path d="M390.135 320.517L389.66 321.399C388.502 323.546 387.809 324.954 387.247 326.73L386.316 326.376C386.905 324.549 387.58 323.115 388.765 320.916L389.241 320.034L390.135 320.517ZM396.858 324.142L394.026 329.395L393.157 328.926L395.424 324.721L389.238 321.385L389.803 320.337L396.858 324.142ZM393.705 332.621L393.133 333.682L381.553 327.437L382.125 326.377L393.705 332.621ZM391.311 327.057L389.291 330.802L388.409 330.326L390.429 326.581L391.311 327.057Z" fill="#F6F2FF"/>
<path d="M385.966 345.264L385.316 346.28L374.235 339.187L374.885 338.172L385.966 345.264ZM383.139 333.007L382.552 333.924C381.37 335.771 380.387 337.469 379.452 339.63L378.55 339.208C379.503 336.99 380.495 335.28 381.708 333.384L382.295 332.467L383.139 333.007ZM389.686 337.163L386.414 342.275L382.463 339.747L385.07 335.674L382.171 333.819L382.821 332.804L386.551 335.191L383.953 339.252L386.24 340.716L388.854 336.63L389.686 337.163Z" fill="#F6F2FF"/>
<path d="M374.433 349.928L373.718 350.88L371.895 349.511L372.61 348.559L374.433 349.928ZM379.231 354.276C377.531 356.54 375.727 357.419 374.484 356.486C373.242 355.553 373.594 353.584 375.295 351.319C377.004 349.044 378.788 348.168 380.03 349.101C381.273 350.034 380.94 352 379.231 354.276ZM378.476 353.709C379.732 352.037 380.055 350.663 379.289 350.088C378.523 349.512 377.305 350.214 376.049 351.886C374.803 353.547 374.459 354.923 375.225 355.499C375.992 356.074 377.229 355.369 378.476 353.709ZM375.226 345.656L369.845 352.82L366.385 350.222L371.765 343.057L375.226 345.656ZM369.774 351.296L373.733 346.024L371.828 344.594L367.869 349.866L369.774 351.296ZM378.06 345.969L370.936 355.455L370.146 354.862L377.27 345.376L378.06 345.969Z" fill="#F6F2FF"/>
<path d="M351.44 368.046C352.185 367.313 352.934 366.957 353.687 366.976C354.44 367.01 355.227 367.445 356.048 368.28C356.184 368.418 356.326 368.57 356.476 368.735C356.625 368.914 356.771 369.09 356.913 369.262L354.739 371.401L354.026 370.676L355.33 369.393L355.127 369.186C354.699 368.751 354.315 368.457 353.974 368.303C353.64 368.157 353.332 368.127 353.05 368.214C352.762 368.307 352.476 368.493 352.193 368.771C351.883 369.077 351.671 369.4 351.559 369.742C351.447 370.083 351.481 370.47 351.662 370.903C351.843 371.335 352.219 371.842 352.789 372.422C353.292 372.932 353.758 373.296 354.187 373.511C354.617 373.727 355.037 373.789 355.449 373.696C355.853 373.611 356.269 373.358 356.697 372.937C356.918 372.72 357.112 372.488 357.278 372.243C357.451 372.005 357.597 371.753 357.716 371.487C357.841 371.228 357.943 370.952 358.02 370.658L358.866 371.517C358.802 371.729 358.698 371.961 358.552 372.213C358.413 372.472 358.239 372.737 358.032 373.009C357.831 373.288 357.599 373.557 357.337 373.815C356.73 374.412 356.117 374.77 355.5 374.888C354.883 375.02 354.268 374.946 353.654 374.667C353.047 374.395 352.445 373.956 351.847 373.348C351.25 372.741 350.817 372.142 350.548 371.551C350.279 370.96 350.212 370.374 350.347 369.793C350.475 369.219 350.839 368.637 351.44 368.046Z" fill="#F6F2FF"/>
<path d="M352.741 379.916L353.107 380.348L352.598 381.388L348.696 384.689L348.03 383.902L352.741 379.916ZM349.316 383.556L350.376 384.809L349.445 385.597L348.385 384.344L349.316 383.556Z" fill="#F6F2FF"/>
<path d="M328.45 387.329C328.662 387.176 328.891 387.063 329.138 386.992C329.385 386.92 329.637 386.929 329.893 387.018C330.149 387.108 330.394 387.313 330.627 387.634L334.489 392.959L333.442 393.718L329.674 388.522C329.543 388.342 329.41 388.241 329.275 388.22C329.14 388.198 328.986 388.25 328.814 388.375C328.743 388.426 328.675 388.488 328.608 388.56C328.541 388.633 328.48 388.707 328.427 388.781L327.732 388.119C327.829 387.941 327.94 387.789 328.064 387.663C328.188 387.537 328.317 387.426 328.45 387.329Z" fill="#F6F2FF"/>
<path d="M317.46 394.554C317.979 394.234 318.464 393.997 318.916 393.844C319.364 393.704 319.761 393.601 320.107 393.535L321.845 396.353L320.82 396.986L319.501 394.848C319.35 394.861 319.136 394.919 318.858 395.022C318.572 395.13 318.285 395.273 317.996 395.451C317.716 395.624 317.47 395.815 317.259 396.026C317.044 396.249 316.914 396.5 316.87 396.778C316.817 397.06 316.894 397.371 317.103 397.709C317.25 397.948 317.412 398.109 317.589 398.193C317.763 398.291 317.964 398.332 318.193 398.315C318.427 398.308 318.698 398.266 319.004 398.191C319.31 398.116 319.663 398.024 320.061 397.914C320.661 397.761 321.168 397.652 321.584 397.589C322.005 397.534 322.355 397.557 322.634 397.658C322.917 397.768 323.161 397.987 323.364 398.317C323.582 398.671 323.677 399.028 323.648 399.387C323.62 399.746 323.454 400.104 323.151 400.461C322.845 400.832 322.391 401.203 321.79 401.574C321.221 401.925 320.715 402.174 320.272 402.322C319.821 402.476 319.473 402.565 319.227 402.592L318.625 401.615C318.811 401.603 319.05 401.558 319.343 401.479C319.636 401.401 319.954 401.29 320.298 401.146C320.641 401.003 320.99 400.822 321.345 400.603C321.625 400.43 321.859 400.257 322.048 400.084C322.229 399.916 322.346 399.746 322.401 399.576C322.447 399.412 322.419 399.247 322.317 399.082C322.211 398.909 322.054 398.812 321.848 398.791C321.642 398.771 321.383 398.794 321.072 398.861C320.757 398.941 320.388 399.043 319.965 399.168C319.579 399.281 319.205 399.375 318.842 399.451C318.472 399.532 318.12 399.561 317.788 399.538C317.447 399.521 317.129 399.421 316.835 399.239C316.537 399.07 316.267 398.787 316.023 398.392C315.758 397.963 315.622 397.53 315.613 397.092C315.596 396.659 315.734 396.227 316.026 395.797C316.323 395.375 316.801 394.96 317.46 394.554Z" fill="#F6F2FF"/>
<path d="M306.387 400.785C307.316 400.304 308.137 400.184 308.85 400.425C309.56 400.679 310.184 401.326 310.722 402.366C310.811 402.538 310.903 402.725 310.997 402.928C311.086 403.143 311.174 403.354 311.259 403.56L308.551 404.963L308.084 404.06L309.708 403.219L309.575 402.961C309.294 402.419 309.014 402.025 308.733 401.778C308.457 401.539 308.172 401.42 307.877 401.42C307.574 401.424 307.246 401.517 306.894 401.7C306.507 401.9 306.21 402.147 306.002 402.44C305.794 402.733 305.713 403.113 305.758 403.58C305.804 404.047 306.014 404.642 306.388 405.364C306.717 406 307.055 406.484 307.402 406.817C307.749 407.15 308.132 407.333 308.553 407.366C308.965 407.403 309.437 407.284 309.97 407.008C310.245 406.865 310.498 406.702 310.729 406.516C310.965 406.34 311.179 406.142 311.37 405.923C311.567 405.712 311.745 405.478 311.906 405.22L312.46 406.291C312.337 406.474 312.169 406.665 311.955 406.863C311.746 407.069 311.502 407.272 311.224 407.471C310.949 407.678 310.649 407.866 310.322 408.036C309.566 408.427 308.875 408.589 308.251 408.52C307.622 408.464 307.056 408.212 306.552 407.764C306.052 407.326 305.606 406.728 305.214 405.971C304.822 405.215 304.585 404.515 304.502 403.871C304.42 403.227 304.528 402.647 304.828 402.132C305.12 401.621 305.639 401.172 306.387 400.785Z" fill="#F6F2FF"/>
<path d="M291.835 407.573C292.075 407.47 292.324 407.411 292.58 407.397C292.837 407.382 293.08 407.447 293.31 407.591C293.54 407.735 293.733 407.989 293.889 408.354L296.469 414.405L295.28 414.912L292.762 409.008C292.675 408.803 292.568 408.675 292.441 408.624C292.314 408.573 292.152 408.59 291.956 408.673C291.876 408.707 291.796 408.752 291.714 408.808C291.633 408.864 291.557 408.922 291.489 408.983L290.958 408.183C291.093 408.031 291.235 407.907 291.384 407.812C291.533 407.717 291.683 407.637 291.835 407.573Z" fill="#F6F2FF"/>
<path d="M279.652 412.123C280.193 411.939 280.714 411.817 281.216 411.759C281.711 411.713 282.144 411.709 282.515 411.746L282.495 412.857C282.277 412.85 282.031 412.847 281.755 412.848C281.48 412.85 281.191 412.872 280.888 412.914C280.579 412.968 280.273 413.046 279.971 413.149C279.485 413.315 279.113 413.544 278.855 413.836C278.597 414.129 278.527 414.449 278.645 414.797C278.717 415.008 278.838 415.167 279.007 415.273C279.17 415.391 279.392 415.474 279.674 415.521C279.956 415.568 280.305 415.587 280.722 415.578C281.361 415.565 281.917 415.59 282.389 415.655C282.855 415.731 283.242 415.876 283.549 416.088C283.851 416.313 284.075 416.64 284.221 417.071C284.352 417.456 284.367 417.829 284.265 418.191C284.158 418.565 283.917 418.908 283.542 419.22C283.161 419.544 282.632 419.821 281.954 420.052C281.514 420.202 281.088 420.301 280.675 420.35C280.256 420.411 279.913 420.41 279.646 420.347L279.295 419.316C279.476 419.337 279.698 419.343 279.961 419.335C280.215 419.33 280.487 419.304 280.778 419.256C281.068 419.208 281.36 419.135 281.653 419.035C282.267 418.826 282.67 418.581 282.861 418.301C283.046 418.034 283.098 417.781 283.017 417.543C282.948 417.341 282.835 417.19 282.679 417.09C282.513 416.993 282.27 416.927 281.952 416.893C281.624 416.861 281.194 416.844 280.661 416.842C280.171 416.845 279.71 416.813 279.278 416.745C278.846 416.677 278.475 416.533 278.164 416.311C277.847 416.102 277.612 415.773 277.46 415.324C277.328 414.939 277.301 414.544 277.378 414.14C277.449 413.747 277.664 413.373 278.023 413.015C278.385 412.667 278.928 412.369 279.652 412.123Z" fill="#F6F2FF"/>
<path d="M276.735 423.021L276.877 423.569L275.967 424.285L271.019 425.566L270.76 424.568L276.735 423.021ZM272.069 424.814L272.481 426.403L271.3 426.709L270.888 425.12L272.069 424.814Z" fill="#F6F2FF"/>
<path d="M253.586 418.823C254.358 418.683 254.995 418.671 255.498 418.787C255.991 418.905 256.376 419.125 256.651 419.45C256.916 419.775 257.093 420.186 257.183 420.681C257.262 421.12 257.263 421.479 257.186 421.758C257.1 422.049 256.974 422.274 256.805 422.432C256.628 422.592 256.438 422.71 256.235 422.786L256.245 422.843C256.446 422.866 256.663 422.925 256.897 423.02C257.131 423.116 257.34 423.27 257.526 423.482C257.703 423.696 257.824 423.984 257.889 424.346C257.949 424.68 257.93 425.008 257.831 425.331C257.732 425.654 257.528 425.941 257.219 426.194C256.911 426.446 256.475 426.623 255.913 426.725C255.685 426.766 255.443 426.79 255.188 426.797C254.936 426.813 254.736 426.795 254.588 426.743L254.639 425.715C254.751 425.735 254.895 425.743 255.072 425.741C255.24 425.749 255.415 425.737 255.596 425.705C255.996 425.633 256.275 425.484 256.431 425.259C256.588 425.044 256.64 424.783 256.585 424.479C256.525 424.145 256.398 423.907 256.205 423.765C256.003 423.625 255.767 423.544 255.498 423.524C255.22 423.515 254.939 423.536 254.653 423.588L254.382 423.637L254.214 422.708L254.485 422.659C255.057 422.556 255.462 422.374 255.701 422.115C255.931 421.867 256.003 421.504 255.917 421.028C255.868 420.752 255.77 420.509 255.623 420.299C255.468 420.091 255.245 419.944 254.954 419.859C254.653 419.776 254.26 419.778 253.774 419.866C253.289 419.953 252.924 420.088 252.682 420.27C252.429 420.453 252.269 420.679 252.199 420.947C252.131 421.225 252.129 421.54 252.193 421.893L253.137 427.123L251.865 427.352L250.936 422.208C250.756 421.208 250.883 420.442 251.318 419.911C251.744 419.381 252.5 419.019 253.586 418.823Z" fill="#F6F2FF"/>
<path d="M238.064 420.957C238.68 420.892 239.227 420.957 239.705 421.151C240.174 421.355 240.513 421.67 240.723 422.096L240.781 422.09L240.722 420.826L241.776 420.716L242.601 428.63L241.316 428.764L240.839 424.186C240.789 423.705 240.663 423.289 240.461 422.941C240.25 422.602 239.976 422.349 239.637 422.18C239.289 422.021 238.889 421.966 238.437 422.013C237.869 422.072 237.461 422.265 237.212 422.593C236.964 422.921 236.87 423.373 236.931 423.951L237.474 429.165L236.189 429.299L235.636 423.998C235.57 423.363 235.626 422.831 235.806 422.404C235.975 421.977 236.252 421.642 236.635 421.398C237.02 421.163 237.496 421.016 238.064 420.957Z" fill="#F6F2FF"/>
<path d="M212.703 424.648L213.4 421.82L214.775 421.883L214.05 424.682C213.843 425.486 213.661 426.05 213.504 426.374C213.347 426.703 213.158 426.966 212.936 427.165C212.709 427.362 212.411 427.526 212.04 427.656L213.959 430.554L212.351 430.481L209.358 425.936C208.989 426.25 208.689 426.637 208.46 427.095C208.226 427.557 208.062 428.091 207.968 428.697L207.733 430.27L206.387 430.208L206.621 428.664C206.697 428.147 206.812 427.696 206.967 427.31C207.074 427.045 207.199 426.793 207.342 426.554C207.485 426.319 207.667 426.076 207.887 425.826C208.101 425.576 208.379 425.297 208.72 424.991L206.317 421.496L207.975 421.571L211.482 426.821C211.868 426.654 212.152 426.348 212.333 425.902C212.386 425.786 212.443 425.623 212.505 425.413C212.562 425.203 212.628 424.948 212.703 424.648Z" fill="#F6F2FF"/>
<path d="M198.675 422.043C198.892 421.589 199.186 421.277 199.559 421.108C199.932 420.943 200.491 420.906 201.237 420.997L201.314 421.006L201.169 422.203L201.05 422.188C200.726 422.149 200.46 422.179 200.253 422.277C200.051 422.377 199.895 422.546 199.785 422.785C199.674 423.029 199.588 423.406 199.526 423.918L198.998 428.275L200.336 428.437L200.191 429.633L195.524 429.068C194.229 428.911 193.333 428.522 192.837 427.9C192.34 427.283 192.17 426.334 192.325 425.052L192.938 419.991L194.233 420.148L193.618 425.223C193.514 426.087 193.616 426.718 193.925 427.118C194.229 427.516 194.815 427.768 195.683 427.873L197.703 428.118L198.199 424.021C198.304 423.158 198.462 422.498 198.675 422.043Z" fill="#F6F2FF"/>
<path d="M179.311 422.65L180.3 417.649L181.587 417.903L180.595 422.918C180.428 423.762 180.481 424.397 180.753 424.822C181.021 425.246 181.582 425.542 182.435 425.711L185.043 426.227L184.809 427.409L182.187 426.891C181.334 426.722 180.669 426.465 180.193 426.12C179.715 425.78 179.408 425.326 179.269 424.759C179.13 424.197 179.144 423.494 179.311 422.65Z" fill="#F6F2FF"/>
<path d="M167.464 423.37L168.685 418.963L169.942 419.311L168.722 423.718L167.464 423.37Z" fill="#F6F2FF"/>
<path d="M153.533 418.894L156.474 410.707L157.702 411.148L154.76 419.335L153.533 418.894Z" fill="#F6F2FF"/>
<path d="M137.623 408.396L139.701 403.741L146.506 406.777L142.96 414.722L139.483 413.171C138.292 412.639 137.553 412.004 137.267 411.265C136.98 410.527 137.099 409.57 137.623 408.396ZM144.823 407.347L140.407 405.376L138.815 408.944C138.465 409.729 138.375 410.36 138.546 410.834C138.713 411.308 139.193 411.721 139.988 412.076L142.26 413.09L144.823 407.347Z" fill="#F6F2FF"/>
<path d="M115.843 401.853L114.765 401.733C114.517 400.315 114.509 398.603 114.687 397.545L115.873 397.631C115.65 398.679 115.639 400.447 115.843 401.853ZM124.375 397.384C122.815 397.075 120.326 396.654 117.974 396.287L118.338 395.261C120.539 395.566 122.922 395.937 124.656 396.218L124.375 397.384ZM116.004 394.302L114.911 394.447C114.485 392.553 113.986 389.993 113.906 388.528L115.151 388.307C115.186 389.761 115.597 392.351 116.004 394.302ZM109.998 399.94L109.07 399.208C113.31 393.957 116.738 391.754 122.161 392.708C122.171 392.99 122.279 393.628 122.386 393.973C117.168 392.805 113.954 394.972 109.998 399.94ZM117.568 404.734L116.603 404.167L121.569 395.95L122.534 396.516L117.568 404.734Z" fill="#F6F2FF"/>
<path d="M108.144 394.965L97.8905 387.265L98.5532 386.383L108.806 394.083L108.144 394.965ZM108.134 387.167L107.01 387.14C106.683 385.859 106.373 384.119 106.356 383.126L107.596 383.095C107.572 384.094 107.833 385.851 108.134 387.167ZM102.669 390.236C104.112 386.743 104.364 383.119 102.687 380.225C103.056 380.194 103.608 380.063 103.95 379.921C105.581 383.07 105.247 386.779 103.662 390.655L102.669 390.236ZM101.272 394.635L100.332 393.929C102.767 390.782 106.677 385.601 113.466 387.104C113.428 387.42 113.471 387.943 113.576 388.312C107.086 386.725 103.484 391.738 101.272 394.635Z" fill="#F6F2FF"/>
<path d="M92.5048 384.395L85.7844 378.513L86.473 377.726L93.1934 383.608L92.5048 384.395ZM92.3331 379.806L89.1969 377.061L89.8664 376.296L93.0026 379.041L92.3331 379.806ZM87.8712 383.736L87.0626 383.028L89.0135 380.799L89.8221 381.507L87.8712 383.736ZM89.4155 377.253L88.5959 376.535C88.5959 376.535 88.8254 376.273 88.9416 376.162C91.9144 373.052 93.0675 371.977 93.7614 371.89C94.2095 371.819 94.5046 371.923 94.8734 372.207C95.2203 372.472 95.8213 372.998 96.4046 373.566C96.1955 373.827 95.9974 374.252 95.9591 374.605C95.3732 373.995 94.7721 373.469 94.5427 373.268C94.346 373.096 94.2162 373.002 94.0127 373.036C93.5209 373.069 92.376 374.112 89.5398 377.111L89.4155 377.253ZM96.4443 386.376L92.9366 383.306L93.6156 382.53L97.1233 385.6L96.4443 386.376ZM92.7695 387.752L91.9718 387.054L98.3315 379.788L99.1292 380.486L92.7695 387.752ZM100.867 381.698C99.6277 381.173 97.7358 380.424 95.878 379.724L96.3945 378.826C98.1239 379.451 99.9598 380.132 101.352 380.636L100.867 381.698ZM90.8999 382.238L90.0803 381.52L91.7635 379.597C93.3988 377.728 95.7268 375.752 99.6623 376.282C99.6514 376.582 99.7237 377.05 99.7975 377.385C96.0696 376.882 93.9698 378.73 92.5735 380.325L90.8999 382.238Z" fill="#F6F2FF"/>
<path d="M77.4585 363.717C75.3259 362.231 73.113 361.212 71.307 360.629C69.5904 360.084 67.6991 359.782 66.1207 359.805L66.1906 358.471C67.9839 358.59 69.8999 358.966 71.8066 359.578C73.5922 360.16 75.8929 361.238 77.9574 362.553L77.4585 363.717ZM71.9115 360.422L70.8166 359.712L75.8826 355.425C76.2928 355.078 76.8283 354.587 76.992 354.354L77.9206 355.451C77.6819 355.596 77.0994 356.032 76.6893 356.379L71.9115 360.422Z" fill="#F6F2FF"/>
<path d="M67.2621 353.119C67.033 352.729 66.625 352.093 66.139 351.423C65.5167 350.564 62.098 345.851 61.4671 344.981C61.0408 344.393 60.6954 344.016 60.4758 343.762L61.6278 342.927C61.7951 343.182 62.1179 343.701 62.493 344.219C63.141 345.112 66.5426 349.802 67.1735 350.672C67.6424 351.319 68.1177 351.925 68.4141 352.284L67.2621 353.119Z" fill="#F6F2FF"/>
<path d="M53.8202 333.899C57.1078 331.872 59.2432 331.544 62.2543 333.577L61.974 334.893C59.7338 333.17 57.9848 332.713 54.5118 334.855L51.5084 336.707C51.0264 337.005 50.6414 337.293 50.5454 337.387L49.8517 336.262C49.983 336.198 50.4089 336.003 50.891 335.706L53.8202 333.899ZM52.716 340.74C52.8348 340.683 53.2161 340.499 53.6363 340.24L58.1723 337.443C58.6296 337.161 59.1505 336.788 59.2541 336.707L59.9326 337.807C59.8137 337.863 59.2518 338.142 58.7821 338.431L54.2462 341.229C53.9866 341.389 53.6558 341.627 53.3944 341.84L52.716 340.74ZM57.3397 342.87C57.2834 342.751 56.984 342.1 56.6639 341.58L51.6173 333.398C51.2743 332.842 50.9733 332.465 50.8419 332.307L51.8924 331.659C51.9639 331.803 52.2136 332.263 52.549 332.807L57.6032 341.001C57.9386 341.545 58.3187 342.078 58.4026 342.214L57.3397 342.87Z" fill="#F6F2FF"/>
<path d="M42.6696 322.468C42.9924 322.334 43.373 322.153 43.8114 321.926C44.3143 321.666 45.4104 321.098 45.8875 320.851C48.9951 319.242 50.2274 319.127 51.811 319.5C53.2442 319.805 54.4794 320.8 55.2892 321.575L54.8403 322.886C53.9164 321.86 52.8459 321.025 51.5163 320.699C49.9848 320.332 48.8406 320.712 46.4164 321.967C45.9135 322.227 44.8304 322.788 44.3791 323.022C43.9406 323.249 43.5867 323.482 43.2973 323.681L42.6696 322.468ZM45.8714 328.398C46.1297 328.297 46.5104 328.116 46.8069 327.963C47.1938 327.762 50.5722 326.013 51.1137 325.732C51.449 325.559 51.8678 325.325 52.0866 325.179L52.6943 326.353C52.4746 326.434 52.0487 326.622 51.6747 326.815C51.1202 327.102 47.7547 328.845 47.3679 329.046C47.1487 329.159 46.7041 329.406 46.4791 329.572L45.8714 328.398Z" fill="#F6F2FF"/>
<path d="M36.8473 306.392C37.0131 306.448 37.2818 306.523 37.4686 306.553C38.6047 306.7 40.869 307.235 42.5736 308.307L42.2472 309.504C41.0096 308.564 39.0315 307.923 38.0211 307.849C38.4198 308.784 40.9943 314.822 41.2677 315.463C41.4785 315.957 41.716 316.44 41.9782 316.944L40.776 317.457C40.6434 316.961 40.4633 316.39 40.2526 315.896C39.9792 315.255 37.3192 309.017 36.9774 308.215C36.8692 307.961 36.6241 307.498 36.4909 307.333L36.8473 306.392ZM40.8755 310.989C44.4954 309.445 47.0765 308.724 50.2388 311.401L49.8531 312.718C49.5791 312.408 49.1527 312.038 48.7394 311.772C46.5933 310.256 44.5712 310.771 42.3404 311.722C42.0199 311.859 41.726 311.984 41.3881 312.191L40.8755 310.989Z" fill="#F6F2FF"/>
<path d="M32.9751 298.432C33.3518 298.457 33.7607 298.487 34.4173 298.478C35.9692 298.44 41.4471 298.354 43.0367 298.472L43.4993 299.695C41.6845 299.546 36.1654 299.647 34.5678 299.73C33.8747 299.767 33.5398 299.82 33.1546 299.905L32.9751 298.432ZM36.6904 294.252C37.7648 292.812 40.0265 290.354 41.2504 289.309L42.1475 290.276C40.8503 291.332 38.4686 293.708 37.4999 295.142L36.6904 294.252ZM43.352 300.344C42.5816 298.397 40.3557 293.663 39.4906 291.979L40.4598 291.311C41.358 293.138 43.6307 298.009 44.4833 299.882C44.6278 300.216 44.8232 300.61 45.0093 300.976L43.8196 301.626C43.6929 301.209 43.5153 300.733 43.352 300.344Z" fill="#F6F2FF"/>
<path d="M36.855 271.206L26.4621 273.083L25.3294 266.81L26.4458 266.609L27.3513 271.623L30.8629 270.988L30.0161 266.299L31.1325 266.098L31.9793 270.787L35.5113 270.149L34.5912 265.054L35.7076 264.852L36.855 271.206Z" fill="#F6F2FF"/>
<path d="M26.1536 252.191L27.1793 252.084L27.6049 256.167L26.5792 256.274L26.1536 252.191ZM24.5677 255.28L24.4415 254.07L31.9502 253.287C32.2922 253.252 32.5435 253.175 32.7041 253.058C32.8609 252.938 32.9602 252.797 33.002 252.633C33.0399 252.467 33.0496 252.295 33.0311 252.117C33.0172 251.984 32.9989 251.875 32.9764 251.791C32.9503 251.707 32.9295 251.64 32.9139 251.59L33.9756 251.23C34.0149 251.309 34.0576 251.421 34.1037 251.564C34.1533 251.708 34.1898 251.892 34.2133 252.118C34.249 252.46 34.2104 252.803 34.0976 253.146C33.9844 253.486 33.7886 253.78 33.5102 254.027C33.2314 254.27 32.8629 254.416 32.4047 254.463L24.5677 255.28Z" fill="#F6F2FF"/>
<path d="M33.5725 240.186C33.5947 240.949 33.4455 241.612 33.1248 242.175C32.8006 242.734 32.3387 243.172 31.7391 243.489C31.1361 243.802 30.429 243.971 29.618 243.994C28.8071 244.018 28.088 243.891 27.4609 243.614C26.8302 243.333 26.3336 242.931 25.971 242.408C25.6049 241.882 25.4115 241.262 25.3907 240.547C25.3787 240.135 25.4356 239.726 25.5613 239.32C25.6871 238.914 25.8998 238.541 26.1995 238.202C26.4958 237.864 26.8936 237.589 27.3931 237.378C27.8925 237.168 28.5116 237.052 29.2505 237.03L29.7659 237.015L29.9434 243.118L28.8919 243.149L28.7504 238.283C28.3036 238.296 27.9076 238.397 27.5623 238.586C27.2169 238.771 26.9476 239.03 26.7543 239.362C26.5609 239.691 26.4707 240.076 26.4835 240.516C26.4975 241 26.63 241.416 26.8808 241.763C27.1281 242.106 27.4453 242.367 27.8322 242.545C28.2191 242.723 28.6308 242.806 29.0672 242.793L29.7682 242.773C30.3662 242.755 30.87 242.637 31.2798 242.419C31.6861 242.197 31.9921 241.898 32.1978 241.521C32.4001 241.143 32.494 240.709 32.4798 240.217C32.4705 239.898 32.4174 239.611 32.3206 239.355C32.2202 239.097 32.0762 238.876 31.8886 238.692C31.6975 238.509 31.463 238.369 31.1851 238.274L31.4808 237.089C31.883 237.201 32.2396 237.399 32.5505 237.682C32.8579 237.966 33.1021 238.32 33.283 238.744C33.4604 239.169 33.5569 239.65 33.5725 240.186ZM24.4396 241.194L22.0113 240.006L21.97 238.583L24.4084 240.122L24.4396 241.194Z" fill="#F6F2FF"/>
<path d="M33.4575 228.003L25.5451 227.641L25.5988 226.467L26.7939 226.521L26.7977 226.439C26.4128 226.277 26.1071 226.001 25.8805 225.612C25.654 225.223 25.5516 224.792 25.5733 224.318C25.5773 224.229 25.5842 224.117 25.5937 223.983C25.6033 223.85 25.6131 223.748 25.6231 223.68L26.8594 223.737C26.8472 223.777 26.8275 223.871 26.8001 224.018C26.7695 224.161 26.7504 224.313 26.7431 224.475C26.7255 224.859 26.7904 225.206 26.938 225.516C27.0823 225.822 27.2913 226.069 27.5649 226.257C27.8352 226.442 28.1489 226.542 28.5061 226.558L33.5132 226.787L33.4575 228.003Z" fill="#F6F2FF"/>
<path d="M34.6179 213.088L26.7546 212.136L26.9009 210.927L34.7642 211.88L34.6179 213.088ZM25.5184 211.362C25.4899 211.598 25.3851 211.791 25.204 211.943C25.0234 212.09 24.8204 212.151 24.5952 212.123C24.3699 212.096 24.1872 211.989 24.0471 211.802C23.9073 211.612 23.8517 211.4 23.8803 211.164C23.9088 210.929 24.0134 210.737 24.194 210.589C24.3751 210.438 24.5783 210.376 24.8035 210.403C25.0288 210.43 25.2113 210.539 25.351 210.729C25.4911 210.916 25.547 211.127 25.5184 211.362Z" fill="#F6F2FF"/>
<path d="M34.0795 196.195L29.4863 195.286L29.7225 194.093L37.4926 195.63L37.2564 196.824L35.9411 196.564L35.9251 196.645C36.2836 196.905 36.5632 197.254 36.7636 197.694C36.9607 198.132 37.0012 198.645 36.8851 199.232C36.789 199.717 36.5974 200.128 36.3102 200.463C36.0196 200.799 35.6372 201.031 35.1628 201.162C34.685 201.291 34.1157 201.291 33.4547 201.16L28.5174 200.183L28.7536 198.989L33.6099 199.95C34.1765 200.062 34.6598 199.993 35.0597 199.743C35.4604 199.489 35.7097 199.115 35.8078 198.619C35.8665 198.322 35.8504 198.005 35.7593 197.668C35.669 197.328 35.4876 197.022 35.2154 196.751C34.9438 196.477 34.5652 196.291 34.0795 196.195Z" fill="#F6F2FF"/>
<path d="M39.0155 189.04L31.382 186.926L31.6957 185.793L32.8885 186.123L32.916 186.024C32.5525 185.752 32.3072 185.408 32.1801 184.991C32.0496 184.573 32.0532 184.116 32.1908 183.619C32.3302 183.115 32.5606 182.728 32.8819 182.456C33.2007 182.181 33.5901 182.005 34.0499 181.929L34.0719 181.85C33.7318 181.545 33.4999 181.165 33.3762 180.71C33.2492 180.254 33.2614 179.752 33.4128 179.206C33.6018 178.523 33.97 178.024 34.5176 177.708C35.0619 177.392 35.783 177.358 36.6808 177.606L41.7897 179.021L41.4649 180.194L36.3561 178.779C35.7928 178.623 35.3476 178.666 35.0204 178.907C34.6933 179.148 34.4719 179.478 34.3563 179.895C34.2077 180.432 34.2549 180.892 34.4979 181.277C34.7376 181.661 35.1043 181.921 35.598 182.058L40.5677 183.434L40.2374 184.627L35.0093 183.179C34.5753 183.059 34.1867 183.103 33.8437 183.311C33.4974 183.519 33.2627 183.844 33.1398 184.288C33.0554 184.593 33.0577 184.9 33.1466 185.21C33.2365 185.517 33.4031 185.792 33.6464 186.034C33.8873 186.272 34.1949 186.442 34.5693 186.546L39.3402 187.867L39.0155 189.04Z" fill="#F6F2FF"/>
<path d="M48.701 160.704L48.1546 161.928L40.0906 154.083L40.6286 152.878L51.8532 153.64L51.3068 154.865L41.9022 154.124L41.8686 154.199L48.701 160.704ZM45.1355 158.571L47.3378 153.636L48.3738 154.098L46.1715 159.033L45.1355 158.571Z" fill="#F6F2FF"/>
<path d="M48.3577 143.217L48.9353 142.146L54.1823 144.975C54.5091 145.151 54.7636 145.179 54.9457 145.059C55.1295 144.935 55.2728 144.778 55.3756 144.587C55.4245 144.496 55.467 144.392 55.5029 144.275C55.5404 144.155 55.5624 144.067 55.5687 144.012L56.5854 144.56C56.5637 144.666 56.5265 144.8 56.4738 144.963C56.4241 145.127 56.3405 145.318 56.223 145.536C55.993 145.963 55.6666 146.246 55.2439 146.385C54.8228 146.521 54.2764 146.408 53.6047 146.046L48.3577 143.217Z" fill="#F6F2FF"/>
<path d="M59.9621 128.05L60.9176 128.662L58.2045 132.901L57.249 132.289L59.9621 128.05ZM60.2581 127.358L61.3179 128.037C62.2271 128.618 62.9033 129.21 63.3466 129.812C63.7898 130.415 64.0217 131.012 64.0423 131.605C64.063 132.197 63.8953 132.772 63.5395 133.328C63.1837 133.884 62.7305 134.279 62.1799 134.515C61.6292 134.75 60.9859 134.795 60.2498 134.651C59.5138 134.506 58.6912 134.143 57.782 133.561L56.7222 132.883C55.8188 132.305 55.1522 131.717 54.7224 131.119C54.2926 130.522 54.0726 129.928 54.0625 129.338C54.0525 128.748 54.2254 128.175 54.5812 127.619C54.9407 127.057 55.3905 126.657 55.9306 126.419C56.4707 126.181 57.1011 126.134 57.8219 126.277C58.5426 126.419 59.3547 126.78 60.2581 127.358ZM60.8418 129.201L59.3999 128.278C58.8034 127.897 58.2503 127.645 57.7407 127.523C57.2311 127.4 56.7852 127.399 56.4031 127.517C56.021 127.636 55.7206 127.866 55.502 128.208C55.1795 128.712 55.1568 129.283 55.4338 129.922C55.708 130.558 56.2924 131.163 57.1871 131.736L58.6291 132.658C59.5238 133.231 60.3326 133.514 61.0553 133.507C61.7751 133.499 62.2963 133.242 62.6187 132.738C62.8374 132.397 62.9139 132.025 62.8483 131.624C62.7826 131.223 62.5809 130.814 62.2432 130.398C61.9054 129.982 61.4383 129.583 60.8418 129.201Z" fill="#F6F2FF"/>
<path d="M68.0057 119.537L68.6498 118.679L69.1117 119.026L68.5419 119.785C68.3189 120.081 68.174 120.375 68.1071 120.664C68.0403 120.953 68.0435 121.218 68.1169 121.458C68.1876 121.696 68.3233 121.89 68.524 122.041C68.8208 122.264 69.1684 122.299 69.5666 122.147C69.9648 121.995 70.3435 121.679 70.7027 121.201C71.0495 120.739 71.2289 120.317 71.2408 119.935C71.2527 119.552 71.1082 119.184 70.8073 118.829L71.5753 117.806C71.8453 118.065 72.0497 118.354 72.1884 118.673C72.3271 118.992 72.3973 119.331 72.3992 119.689C72.3983 120.045 72.3289 120.412 72.1912 120.79C72.0507 121.166 71.839 121.543 71.5562 121.919C71.1887 122.409 70.7839 122.79 70.3416 123.064C69.8986 123.334 69.4561 123.476 69.014 123.493C68.5739 123.506 68.1711 123.375 67.8055 123.101C67.6378 122.975 67.4856 122.811 67.3489 122.61C67.2143 122.405 67.1302 122.16 67.0967 121.872C67.0652 121.582 67.1167 121.244 67.251 120.859C67.3846 120.47 67.6362 120.029 68.0057 119.537ZM68.9137 118.877L68.2696 119.735C67.9084 120.216 67.5685 120.571 67.25 120.801C66.9336 121.027 66.6413 121.165 66.3731 121.213C66.1042 121.256 65.8588 121.239 65.6367 121.163C65.4168 121.083 65.2229 120.981 65.0553 120.855C64.6649 120.562 64.4073 120.209 64.2824 119.797C64.1575 119.385 64.1571 118.942 64.2812 118.468C64.4073 117.991 64.651 117.512 65.0123 117.031C65.3736 116.55 65.7623 116.184 66.1784 115.933C66.5966 115.68 67.0247 115.547 67.4627 115.537C67.9 115.521 68.3293 115.631 68.7506 115.866L67.9826 116.888C67.6451 116.742 67.2914 116.732 66.9214 116.859C66.5514 116.985 66.2064 117.261 65.8864 117.687C65.5603 118.122 65.3912 118.538 65.3793 118.938C65.3646 119.335 65.5043 119.644 65.7984 119.865C66.0623 120.063 66.3587 120.11 66.6874 120.004C67.0182 119.896 67.3559 119.612 67.7007 119.153L68.2705 118.394L68.9137 118.877ZM64.1749 116.84L62.4557 115.111L63.2485 114.055L64.6828 116.164L64.1749 116.84Z" fill="#F6F2FF"/>
<path d="M79.776 116.114L74.4985 111.496C73.8311 110.912 73.3691 110.322 73.1127 109.728C72.856 109.129 72.7775 108.553 72.8771 108C72.9765 107.443 73.2254 106.937 73.6239 106.482C73.968 106.088 74.3524 105.806 74.777 105.634C75.1991 105.459 75.6477 105.391 76.1227 105.427C76.5975 105.459 77.084 105.595 77.5824 105.834C78.0804 106.069 78.5765 106.403 79.0706 106.835L79.1792 106.93C79.7173 107.401 80.1099 107.918 80.3569 108.482C80.6014 109.043 80.6854 109.61 80.609 110.183C80.53 110.753 80.2732 111.287 79.8385 111.783C79.4853 112.187 79.1074 112.457 78.7047 112.593C78.3044 112.727 77.8741 112.76 77.4139 112.69C76.9559 112.619 76.4641 112.476 75.9382 112.262L75.7074 110.991C75.8937 111.154 76.1194 111.306 76.3846 111.447C76.6498 111.588 76.9327 111.685 77.2335 111.738C77.5343 111.791 77.8352 111.773 78.1363 111.685C78.4374 111.597 78.717 111.405 78.9751 111.11C79.2785 110.763 79.4394 110.399 79.4579 110.018C79.4738 109.635 79.3818 109.259 79.182 108.893C78.9795 108.524 78.7024 108.185 78.3506 107.877L78.2419 107.782C77.7866 107.384 77.3292 107.082 76.8697 106.876C76.4098 106.665 75.9744 106.583 75.5633 106.63C75.1519 106.672 74.79 106.872 74.4776 107.229C74.1606 107.591 74.0097 107.977 74.0249 108.388C74.04 108.799 74.164 109.197 74.3968 109.584C74.6319 109.968 74.9187 110.306 75.2573 110.597L80.5775 115.199L79.776 116.114Z" fill="#F6F2FF"/>
<path d="M83.0402 96.6091L83.9078 95.7558L88.0878 100.006C88.3481 100.271 88.5831 100.372 88.7927 100.311C89.0047 100.247 89.1879 100.139 89.3423 99.9872C89.4159 99.9149 89.4871 99.828 89.556 99.7265C89.6274 99.6225 89.6742 99.5451 89.6965 99.4943L90.5064 100.318C90.4546 100.412 90.3795 100.529 90.2811 100.67C90.1851 100.812 90.0488 100.97 89.8724 101.144C89.5268 101.484 89.1315 101.658 88.6866 101.666C88.2441 101.672 87.7552 101.403 87.2201 100.859L83.0402 96.6091Z" fill="#F6F2FF"/>
<path d="M99.6393 92.3578C99.0934 92.8197 98.5045 93.095 97.8727 93.1839C97.2434 93.2705 96.6157 93.1779 95.9895 92.9062C95.3659 92.6323 94.7898 92.183 94.2613 91.5584C93.7283 90.9286 93.3773 90.2822 93.2081 89.6192C93.0415 88.954 93.053 88.3183 93.2426 87.7121C93.4348 87.1036 93.8038 86.5685 94.3497 86.1066C94.8955 85.6447 95.4831 85.3704 96.1123 85.2838C96.7442 85.195 97.373 85.2888 97.9989 85.5654C98.6273 85.8397 99.208 86.2918 99.741 86.9217C100.269 87.5463 100.616 88.1898 100.78 88.8524C100.947 89.5127 100.935 90.1471 100.742 90.7556C100.553 91.3618 100.185 91.8959 99.6393 92.3578ZM98.9331 91.5232C99.3478 91.1724 99.599 90.7774 99.6868 90.3383C99.7746 89.8992 99.7362 89.4521 99.5717 88.9969C99.4072 88.5416 99.1539 88.1119 98.8119 87.7078C98.47 87.3036 98.087 86.9814 97.6631 86.7412C97.2391 86.501 96.8023 86.3865 96.3525 86.3978C95.9027 86.4092 95.4705 86.5902 95.0558 86.9411C94.6412 87.292 94.3911 87.6883 94.3055 88.13C94.2199 88.5717 94.2605 89.0214 94.4272 89.4793C94.594 89.9371 94.8483 90.3682 95.1903 90.7723C95.5323 91.1765 95.9142 91.4973 96.3359 91.7349C96.7576 91.9725 97.1922 92.0844 97.6398 92.0704C98.0874 92.0565 98.5185 91.8741 98.9331 91.5232Z" fill="#F6F2FF"/>
<path d="M119.551 77.4315L114.006 68.4428L119.431 65.0968L120.027 66.0624L115.69 68.737L117.564 71.7742L121.619 69.2729L122.215 70.2384L118.159 72.7398L120.043 75.7945L124.45 73.0766L125.046 74.0422L119.551 77.4315Z" fill="#F6F2FF"/>
<path d="M133.341 60.5227L133.816 61.4385L130.171 63.3262L129.696 62.4104L133.341 60.5227ZM129.886 60.1751L130.967 59.6155L134.439 66.3192C134.597 66.6245 134.759 66.8305 134.927 66.9373C135.096 67.0394 135.264 67.0801 135.432 67.0593C135.6 67.0338 135.764 66.98 135.923 66.8978C136.042 66.8361 136.136 66.7794 136.206 66.7277C136.275 66.6729 136.33 66.629 136.371 66.5962L137.093 67.4531C137.034 67.5185 136.946 67.599 136.829 67.6944C136.714 67.7929 136.555 67.8943 136.354 67.9987C136.048 68.1568 135.715 68.2461 135.354 68.2666C134.996 68.2855 134.651 68.2105 134.32 68.0415C133.992 67.8708 133.722 67.581 133.51 67.1719L129.886 60.1751Z" fill="#F6F2FF"/>
<path d="M147.227 63.0427C146.525 63.342 145.853 63.4453 145.212 63.3525C144.573 63.2552 143.996 62.9853 143.482 62.5429C142.97 62.096 142.555 61.4994 142.237 60.7531C141.919 60.0068 141.774 59.291 141.803 58.6058C141.834 57.9161 142.027 57.3071 142.381 56.7787C142.737 56.2458 143.244 55.8391 143.901 55.5586C144.281 55.3968 144.682 55.3002 145.106 55.269C145.53 55.2377 145.955 55.2996 146.38 55.4548C146.803 55.6068 147.204 55.8768 147.583 56.2648C147.961 56.6528 148.295 57.1867 148.585 57.8666L148.788 58.341L143.171 60.7358L142.759 59.7681L147.237 57.8587C147.061 57.4476 146.823 57.1159 146.521 56.8634C146.222 56.6096 145.882 56.4535 145.502 56.395C145.126 56.3352 144.735 56.3916 144.33 56.5642C143.884 56.7543 143.546 57.0295 143.314 57.3898C143.085 57.7455 142.958 58.136 142.934 58.5612C142.909 58.9864 142.983 59.3998 143.154 59.8014L143.429 60.4465C143.664 60.9967 143.958 61.4227 144.311 61.7244C144.665 62.0217 145.056 62.1971 145.482 62.2507C145.907 62.3011 146.346 62.2299 146.798 62.0371C147.092 61.9117 147.341 61.7573 147.543 61.5739C147.747 61.3861 147.9 61.1712 148.002 60.9295C148.103 60.6845 148.147 60.4154 148.134 60.1219L149.345 59.9643C149.388 60.3797 149.334 60.7838 149.184 61.1767C149.033 61.5665 148.792 61.9231 148.463 62.2466C148.132 62.567 147.72 62.8323 147.227 63.0427Z" fill="#F6F2FF"/>
<path d="M158.525 58.4852L155.972 50.9874L157.085 50.6083L157.47 51.7408L157.549 51.7142C157.559 51.2967 157.704 50.9114 157.983 50.5585C158.262 50.2055 158.626 49.9525 159.076 49.7996C159.16 49.7707 159.266 49.7364 159.394 49.6964C159.522 49.6564 159.62 49.6286 159.687 49.6129L160.086 50.7845C160.044 50.788 159.95 50.8038 159.803 50.832C159.659 50.8557 159.51 50.8937 159.357 50.9458C158.992 51.0699 158.693 51.2572 158.459 51.5077C158.227 51.7538 158.073 52.0386 157.998 52.362C157.925 52.681 157.946 53.0097 158.061 53.3481L159.677 58.0928L158.525 58.4852Z" fill="#F6F2FF"/>
<path d="M172.834 54.1159L170.848 46.4482L172.026 46.1431L174.012 53.8107L172.834 54.1159ZM171.116 45.0151C170.886 45.0746 170.668 45.0477 170.461 44.9344C170.257 44.8202 170.127 44.6533 170.07 44.4336C170.013 44.214 170.046 44.0048 170.169 43.8062C170.294 43.6067 170.472 43.4772 170.702 43.4177C170.931 43.3582 171.148 43.3855 171.352 43.4997C171.559 43.613 171.69 43.7795 171.747 43.9992C171.804 44.2188 171.77 44.4284 171.644 44.6279C171.521 44.8266 171.345 44.9556 171.116 45.0151Z" fill="#F6F2FF"/>
<path d="M185.074 43.2793L186.271 43.063L187.782 51.426C187.868 51.9064 187.861 52.3375 187.758 52.7193C187.66 53.1005 187.462 53.4174 187.165 53.6701C186.872 53.9222 186.475 54.0935 185.974 54.1839C185.933 54.1912 185.893 54.1986 185.852 54.2059C185.812 54.2132 185.771 54.2206 185.73 54.2279L185.529 53.1115C185.569 53.1042 185.607 53.0974 185.64 53.0913C185.674 53.0852 185.712 53.0785 185.752 53.0712C186.117 53.0052 186.365 52.8486 186.495 52.6016C186.626 52.3579 186.656 52.0381 186.584 51.6423L185.074 43.2793ZM185.428 41.8739C185.194 41.9161 184.979 41.8729 184.781 41.7445C184.586 41.6154 184.469 41.4392 184.429 41.2159C184.388 40.9926 184.437 40.7865 184.574 40.5976C184.714 40.408 184.901 40.2922 185.134 40.25C185.368 40.2079 185.582 40.2513 185.776 40.3804C185.974 40.5088 186.093 40.6847 186.134 40.908C186.174 41.1313 186.124 41.3377 185.983 41.5273C185.846 41.7162 185.661 41.8317 185.428 41.8739Z" fill="#F6F2FF"/>
<path d="M202.465 45.5802L201.979 40.9232L203.19 40.797L204.011 48.675L202.801 48.8012L202.662 47.4677L202.579 47.4762C202.437 47.8955 202.185 48.2657 201.824 48.5867C201.463 48.9043 200.985 49.0941 200.39 49.1562C199.898 49.2075 199.449 49.1454 199.044 48.9699C198.638 48.791 198.303 48.4941 198.038 48.0792C197.774 47.661 197.606 47.1167 197.536 46.4466L197.014 41.4407L198.225 41.3145L198.738 46.2383C198.798 46.8128 199.007 47.2542 199.364 47.5626C199.724 47.8707 200.156 47.9985 200.658 47.9461C200.959 47.9148 201.257 47.8059 201.552 47.6196C201.851 47.433 202.09 47.1696 202.268 46.8295C202.451 46.489 202.516 46.0726 202.465 45.5802Z" fill="#F6F2FF"/>
<path d="M210.757 48.1877L210.527 40.2703L211.702 40.2362L211.738 41.4733L211.841 41.4703C211.994 41.0428 212.251 40.7069 212.611 40.4625C212.972 40.2147 213.41 40.0833 213.926 40.0683C214.448 40.0531 214.886 40.159 215.24 40.3861C215.598 40.6095 215.88 40.9298 216.088 41.3468L216.171 41.3444C216.362 40.9295 216.656 40.5959 217.055 40.3436C217.453 40.0878 217.936 39.9517 218.503 39.9352C219.211 39.9146 219.796 40.1194 220.259 40.5496C220.722 40.9764 220.967 41.6554 220.995 42.5867L221.149 47.8856L219.932 47.9209L219.778 42.6221C219.761 42.0379 219.589 41.625 219.262 41.3834C218.935 41.1419 218.555 41.0274 218.122 41.04C217.566 41.0562 217.139 41.2371 216.843 41.5827C216.547 41.925 216.407 42.3521 216.421 42.8641L216.571 48.0187L215.334 48.0546L215.177 42.632C215.164 42.1819 215.007 41.8236 214.707 41.5572C214.407 41.2873 214.026 41.1591 213.566 41.1725C213.25 41.1817 212.957 41.2745 212.687 41.4508C212.42 41.6271 212.207 41.8672 212.047 42.171C211.891 42.4714 211.818 42.8157 211.83 43.204L211.974 48.1523L210.757 48.1877Z" fill="#F6F2FF"/>
<path d="M247.391 44.1471L247.254 45.2733L242.933 44.75L243.07 43.6238L247.391 44.1471ZM240.281 45.717L241.592 45.8758C241.615 46.6266 241.796 47.2233 242.134 47.6659C242.471 48.1085 243.065 48.3813 243.915 48.4842C244.515 48.5569 245.038 48.4488 245.481 48.1597C245.928 47.871 246.286 47.4607 246.555 46.9288C246.827 46.3973 247.003 45.8039 247.082 45.1486L247.224 43.9814C247.311 43.2579 247.274 42.6075 247.112 42.0304C246.954 41.4502 246.68 40.9807 246.29 40.6219C245.905 40.26 245.415 40.0432 244.821 39.9712C244.302 39.9084 243.861 39.9485 243.498 40.0914C243.134 40.2344 242.836 40.4667 242.603 40.7882C242.37 41.1098 242.19 41.5087 242.063 41.9851L240.753 41.8264C240.902 41.1657 241.156 40.594 241.516 40.1112C241.88 39.6254 242.347 39.2665 242.919 39.0344C243.495 38.7994 244.175 38.7294 244.96 38.8245C245.813 38.9279 246.526 39.2168 247.099 39.6913C247.672 40.1625 248.084 40.7785 248.335 41.5396C248.586 42.2972 248.653 43.1572 248.537 44.1197L248.39 45.3278C248.274 46.2903 248.005 47.1096 247.584 47.7858C247.163 48.4586 246.626 48.9563 245.974 49.279C245.323 49.5984 244.591 49.7088 243.778 49.6104C242.946 49.5096 242.271 49.2755 241.755 48.9082C241.242 48.5379 240.867 48.0769 240.629 47.5252C240.395 46.9705 240.279 46.3677 240.281 45.717Z" fill="#F6F2FF"/>
<path d="M256.533 54.2859L259.107 41.275L260.301 41.5112L257.727 54.5221L256.533 54.2859ZM257.025 51.797C256.499 51.6929 256.039 51.5037 255.645 51.2295C255.251 50.9518 254.934 50.607 254.693 50.1948C254.453 49.7793 254.297 49.3087 254.226 48.783C254.155 48.2572 254.178 47.6942 254.297 47.0939C254.417 46.4869 254.61 45.9539 254.876 45.4949C255.143 45.0325 255.467 44.6549 255.847 44.3622C256.227 44.0695 256.652 43.8714 257.121 43.7679C257.591 43.6611 258.089 43.6598 258.615 43.7638L258.979 43.8359L257.39 51.8691L257.025 51.797ZM257.238 50.7246L257.44 50.7646L258.605 44.8763L258.403 44.8363C258.005 44.7575 257.643 44.7701 257.317 44.8739C256.993 44.9744 256.707 45.1439 256.46 45.3824C256.217 45.6182 256.013 45.9038 255.849 46.2392C255.688 46.5753 255.568 46.9389 255.491 47.3301C255.388 47.8495 255.375 48.3481 255.453 48.826C255.53 49.3038 255.713 49.7134 256.003 50.0546C256.293 50.3958 256.705 50.6191 257.238 50.7246ZM258.219 52.0332L257.855 51.9611L259.444 43.928L259.809 44C260.335 44.1041 260.795 44.295 261.188 44.5726C261.582 44.8469 261.9 45.1918 262.14 45.6073C262.38 46.0228 262.536 46.4951 262.606 47.0242C262.677 47.5499 262.653 48.1163 262.533 48.7233C262.414 49.3236 262.222 49.8533 261.955 50.3123C261.689 50.7713 261.366 51.1472 260.986 51.4399C260.606 51.7293 260.182 51.9273 259.712 52.0342C259.243 52.1376 258.745 52.1373 258.219 52.0332ZM258.431 50.9608C258.833 51.0402 259.194 51.031 259.514 50.9332C259.839 50.8328 260.123 50.6647 260.366 50.4289C260.613 50.1904 260.817 49.9047 260.977 49.572C261.141 49.2366 261.262 48.875 261.339 48.4871C261.442 47.9678 261.455 47.4675 261.378 46.9863C261.302 46.505 261.119 46.0921 260.83 45.7475C260.54 45.4029 260.129 45.1779 259.596 45.0725L259.394 45.0324L258.229 50.9207L258.431 50.9608Z" fill="#F6F2FF"/>
<path d="M268.756 52.5057L274.068 47.62L275.42 47.9943L273.306 55.6278L272.133 55.303L273.768 49.399L268.476 54.2902L267.104 53.9104L269.218 46.2769L270.391 46.6017L268.756 52.5057Z" fill="#F6F2FF"/>
<path d="M280.425 61.042L284.108 50.7925L285.214 51.19L284.789 52.3742L284.925 52.423C285.055 52.3238 285.231 52.2006 285.452 52.0535C285.677 51.9043 285.959 51.801 286.298 51.7436C286.64 51.6842 287.055 51.7416 287.54 51.916C288.168 52.1415 288.664 52.4972 289.03 52.983C289.397 53.4689 289.61 54.048 289.672 54.7204C289.734 55.3928 289.624 56.1204 289.342 56.9034C289.059 57.6928 288.679 58.3288 288.202 58.8115C287.727 59.2909 287.194 59.6037 286.605 59.7499C286.016 59.8928 285.412 59.8527 284.79 59.6295C284.312 59.4575 283.957 59.2405 283.726 58.9785C283.496 58.7132 283.34 58.4508 283.258 58.1912C283.177 57.9283 283.119 57.7139 283.084 57.5478L282.986 57.5129L281.571 61.4535L280.425 61.042ZM283.895 54.9241C283.692 55.4871 283.596 56.0133 283.607 56.5029C283.618 56.9893 283.739 57.4107 283.969 57.7673C284.2 58.1206 284.545 58.3798 285.005 58.5449C285.484 58.7169 285.928 58.7343 286.339 58.597C286.755 58.4577 287.121 58.2019 287.437 57.8297C287.758 57.4555 288.013 57.0031 288.204 56.4725C288.392 55.9483 288.481 55.4469 288.471 54.9682C288.464 54.4874 288.344 54.066 288.108 53.7038C287.878 53.3396 287.52 53.0704 287.034 52.896C286.568 52.7286 286.135 52.706 285.733 52.8283C285.332 52.9473 284.975 53.1881 284.662 53.5505C284.35 53.9098 284.095 54.3676 283.895 54.9241Z" fill="#F6F2FF"/>
<path d="M295.409 61.7642L301.39 57.7249L302.671 58.2965L299.443 65.5297L298.332 65.0337L300.828 59.4393L294.866 63.4871L293.566 62.9071L296.794 55.6739L297.905 56.1698L295.409 61.7642Z" fill="#F6F2FF"/>
<path d="M306.703 72.4977C306.521 72.3998 306.367 72.2974 306.241 72.1905C306.114 72.0865 306.03 72.0063 305.991 71.9497L306.772 71.1524C306.996 71.3593 307.213 71.5075 307.423 71.5971C307.632 71.6866 307.857 71.6928 308.098 71.6156C308.34 71.5431 308.622 71.3649 308.943 71.0811L309.436 70.6441L310.637 62.2458L311.799 62.8724L310.728 69.4657L310.801 69.5049L315.721 64.987L316.883 65.6136L309.616 72.0063C309.288 72.2946 308.963 72.5037 308.639 72.6337C308.313 72.7667 307.989 72.8205 307.667 72.7952C307.348 72.7715 307.026 72.6723 306.703 72.4977Z" fill="#F6F2FF"/>
<path d="M322.899 76.6723L328.607 72.8808L329.58 73.5035L322.426 78.3291L321.592 77.7953L323.03 69.3116L323.986 69.9231L322.899 76.6723ZM323.656 69.7119L319.386 76.3832L318.361 75.7272L322.631 69.0558L323.656 69.7119ZM324.632 79.7412L328.902 73.0699L329.927 73.7259L325.657 80.3973L324.632 79.7412Z" fill="#F6F2FF"/>
<path d="M341.742 92.7701L342.489 91.9164L347.519 96.3177L346.771 97.1714L341.742 92.7701ZM345.373 89.561L346.12 88.7073L350.187 92.2664L349.44 93.1201L345.373 89.561ZM347.966 85.6901L348.713 84.8364L353.649 89.1562L352.902 90.0099L347.966 85.6901Z" fill="#F6F2FF"/>
<path d="M361.066 111.851L369.129 105.03L373.246 109.895L372.38 110.628L369.089 106.739L366.364 109.044L369.442 112.681L368.576 113.414L365.498 109.776L362.759 112.095L366.103 116.047L365.237 116.78L361.066 111.851Z" fill="#F6F2FF"/>
<path d="M379.842 122.968L379.007 123.573L376.597 120.251L377.432 119.645L379.842 122.968ZM379.67 119.499L380.385 120.485L374.273 124.917C373.995 125.119 373.816 125.31 373.735 125.492C373.659 125.674 373.644 125.847 373.69 126.009C373.74 126.172 373.818 126.326 373.923 126.471C374.001 126.579 374.071 126.664 374.133 126.726C374.197 126.785 374.249 126.833 374.287 126.869L373.548 127.711C373.474 127.662 373.382 127.587 373.27 127.486C373.155 127.386 373.031 127.245 372.898 127.061C372.696 126.783 372.558 126.467 372.484 126.113C372.412 125.761 372.435 125.409 372.553 125.056C372.672 124.706 372.919 124.396 373.292 124.126L379.67 119.499Z" fill="#F6F2FF"/>
<path d="M382.477 132.641L378.422 135.143L377.783 134.107L386.772 128.563L387.41 129.598L384.11 131.634L384.164 131.722C384.61 131.665 385.032 131.732 385.432 131.921C385.837 132.112 386.202 132.472 386.529 133.002C386.812 133.461 386.968 133.92 386.997 134.379C387.028 134.837 386.914 135.277 386.654 135.7C386.398 136.124 385.981 136.515 385.402 136.872L381.118 139.514L380.479 138.478L384.693 135.879C385.228 135.549 385.556 135.155 385.677 134.696C385.803 134.239 385.716 133.766 385.414 133.277C385.205 132.938 384.946 132.678 384.636 132.497C384.329 132.319 383.989 132.238 383.619 132.252C383.25 132.27 382.869 132.399 382.477 132.641Z" fill="#F6F2FF"/>
<path d="M386.29 149.238C385.939 148.561 385.786 147.898 385.83 147.252C385.88 146.607 386.106 146.012 386.508 145.466C386.916 144.923 387.48 144.464 388.2 144.091C388.921 143.718 389.623 143.52 390.309 143.498C390.999 143.478 391.621 143.624 392.174 143.937C392.732 144.252 393.176 144.727 393.504 145.362C393.694 145.729 393.82 146.122 393.883 146.542C393.946 146.963 393.916 147.391 393.793 147.826C393.673 148.26 393.434 148.68 393.075 149.086C392.717 149.493 392.209 149.866 391.553 150.206L391.095 150.443L388.287 145.021L389.221 144.538L391.46 148.86C391.857 148.655 392.17 148.392 392.399 148.072C392.63 147.755 392.76 147.405 392.79 147.022C392.821 146.641 392.736 146.256 392.534 145.865C392.311 145.435 392.011 145.118 391.635 144.914C391.263 144.712 390.864 144.614 390.438 144.622C390.012 144.629 389.605 144.734 389.218 144.934L388.595 145.257C388.064 145.532 387.661 145.857 387.386 146.231C387.117 146.607 386.971 147.01 386.949 147.439C386.931 147.867 387.035 148.299 387.261 148.735C387.408 149.019 387.58 149.255 387.778 149.443C387.981 149.632 388.206 149.769 388.455 149.853C388.707 149.936 388.979 149.96 389.27 149.925L389.518 151.12C389.107 151.194 388.7 151.171 388.297 151.05C387.897 150.928 387.523 150.715 387.176 150.411C386.832 150.105 386.536 149.714 386.29 149.238Z" fill="#F6F2FF"/>
<path d="M391.679 160.164L398.965 157.058L399.426 158.139L398.326 158.608L398.358 158.684C398.775 158.663 399.17 158.779 399.543 159.031C399.916 159.283 400.195 159.627 400.382 160.064C400.417 160.146 400.459 160.249 400.508 160.374C400.558 160.499 400.593 160.594 400.613 160.66L399.475 161.146C399.468 161.104 399.445 161.01 399.406 160.866C399.372 160.724 399.323 160.579 399.26 160.43C399.109 160.076 398.899 159.791 398.632 159.576C398.369 159.363 398.074 159.231 397.746 159.181C397.422 159.132 397.096 159.178 396.767 159.318L392.156 161.284L391.679 160.164Z" fill="#F6F2FF"/>
<path d="M397.213 174.934C396.967 174.211 396.914 173.534 397.054 172.901C397.199 172.271 397.511 171.716 397.991 171.237C398.475 170.759 399.101 170.39 399.869 170.128C400.637 169.867 401.361 169.776 402.043 169.857C402.728 169.939 403.321 170.177 403.821 170.569C404.326 170.964 404.694 171.499 404.924 172.176C405.057 172.567 405.124 172.975 405.123 173.4C405.123 173.825 405.029 174.243 404.843 174.656C404.66 175.067 404.36 175.446 403.945 175.795C403.53 176.143 402.973 176.437 402.273 176.675L401.785 176.841L399.816 171.062L400.812 170.722L402.382 175.33C402.805 175.186 403.153 174.973 403.428 174.691C403.703 174.412 403.884 174.085 403.971 173.71C404.059 173.339 404.031 172.945 403.89 172.529C403.733 172.07 403.484 171.712 403.142 171.454C402.805 171.199 402.425 171.043 402.003 170.987C401.58 170.931 401.163 170.973 400.749 171.114L400.086 171.34C399.519 171.533 399.073 171.794 398.745 172.124C398.422 172.455 398.218 172.832 398.133 173.253C398.051 173.673 398.089 174.116 398.248 174.581C398.351 174.884 398.486 175.143 398.654 175.358C398.826 175.575 399.029 175.744 399.262 175.864C399.499 175.984 399.764 176.048 400.058 176.057L400.124 177.276C399.707 177.287 399.308 177.203 398.927 177.024C398.55 176.844 398.212 176.578 397.914 176.225C397.619 175.872 397.386 175.441 397.213 174.934Z" fill="#F6F2FF"/>
<path d="M404.92 189.092L409.452 187.918L409.758 189.096L402.09 191.082L401.785 189.904L403.083 189.568L403.062 189.488C402.626 189.409 402.223 189.216 401.851 188.907C401.483 188.597 401.225 188.153 401.075 187.574C400.95 187.095 400.945 186.642 401.058 186.215C401.174 185.787 401.418 185.411 401.789 185.088C402.163 184.764 402.676 184.517 403.329 184.348L408.201 183.086L408.506 184.264L403.714 185.505C403.154 185.65 402.749 185.922 402.497 186.321C402.246 186.724 402.184 187.169 402.311 187.659C402.387 187.951 402.539 188.23 402.767 188.494C402.996 188.761 403.292 188.958 403.655 189.084C404.019 189.214 404.44 189.216 404.92 189.092Z" fill="#F6F2FF"/>
<path d="M403.577 197.68L411.372 196.273L411.581 197.43L410.363 197.65L410.381 197.751C410.827 197.839 411.197 198.042 411.492 198.363C411.791 198.683 411.986 199.096 412.078 199.604C412.171 200.118 412.132 200.567 411.96 200.951C411.792 201.337 411.518 201.665 411.136 201.933L411.151 202.014C411.59 202.141 411.963 202.383 412.272 202.739C412.585 203.095 412.791 203.552 412.892 204.11C413.018 204.807 412.903 205.416 412.546 205.938C412.193 206.46 411.558 206.803 410.641 206.969L405.425 207.911L405.208 206.713L410.425 205.771C411 205.667 411.383 205.436 411.573 205.077C411.763 204.717 411.82 204.325 411.743 203.898C411.644 203.35 411.401 202.956 411.015 202.714C410.633 202.473 410.19 202.397 409.686 202.488L404.611 203.405L404.391 202.187L409.729 201.223C410.173 201.143 410.504 200.934 410.722 200.598C410.944 200.261 411.014 199.866 410.933 199.412C410.876 199.101 410.741 198.825 410.526 198.584C410.312 198.347 410.043 198.172 409.719 198.06C409.399 197.95 409.047 197.929 408.665 197.998L403.793 198.878L403.577 197.68Z" fill="#F6F2FF"/>
<path d="M407.195 229.136L417.551 228.545L417.585 229.72L407.23 230.312L407.195 229.136Z" fill="#F6F2FF"/>
<path d="M406.856 241.952L408.029 242.384C407.977 243.515 407.961 244.488 407.982 245.303C408.003 246.128 408.064 246.804 408.166 247.332C408.277 247.87 408.438 248.27 408.649 248.532C408.869 248.804 409.143 248.947 409.472 248.962C409.84 248.979 410.268 248.931 410.758 248.817C411.248 248.704 411.773 248.554 412.334 248.366L412.674 249.501C412.359 249.613 412.02 249.713 411.658 249.803C411.304 249.904 410.952 249.984 410.6 250.046C410.258 250.108 409.942 250.132 409.652 250.119C409.081 250.093 408.599 249.94 408.204 249.66C407.82 249.381 407.516 248.931 407.292 248.31C407.069 247.689 406.923 246.859 406.854 245.819C406.785 244.788 406.786 243.499 406.856 241.952ZM406.856 241.952C406.896 241.091 406.989 240.335 407.135 239.683C407.271 239.039 407.465 238.506 407.717 238.081C407.969 237.657 408.284 237.341 408.661 237.136C409.049 236.931 409.508 236.84 410.04 236.865C410.282 236.876 410.528 236.906 410.777 236.956C411.037 237.007 411.296 237.067 411.554 237.137C411.812 237.217 412.06 237.296 412.299 237.375L411.974 238.45C411.83 238.405 411.658 238.354 411.457 238.296C411.266 238.239 411.07 238.186 410.869 238.138C410.667 238.1 410.484 238.077 410.319 238.069C409.816 238.046 409.405 238.153 409.084 238.391C408.772 238.638 408.529 239.078 408.355 239.709C408.19 240.341 408.081 241.233 408.029 242.384L407.29 242.641L406.856 241.952ZM412.867 244.655C412.876 244.452 412.952 244.281 413.094 244.142C413.245 244.013 413.418 243.953 413.611 243.962C413.805 243.971 413.971 244.046 414.11 244.188C414.248 244.34 414.313 244.517 414.303 244.72C414.294 244.914 414.214 245.075 414.063 245.204C413.911 245.342 413.739 245.407 413.545 245.398C413.352 245.389 413.186 245.309 413.048 245.157C412.918 245.016 412.858 244.848 412.867 244.655ZM412.958 242.667C412.967 242.464 413.043 242.293 413.185 242.154C413.336 242.026 413.509 241.966 413.702 241.975C413.896 241.983 414.062 242.059 414.201 242.201C414.339 242.353 414.404 242.53 414.394 242.733C414.385 242.926 414.305 243.088 414.154 243.216C414.002 243.355 413.83 243.42 413.636 243.411C413.443 243.402 413.277 243.322 413.139 243.17C413.009 243.028 412.949 242.861 412.958 242.667Z" fill="#F6F2FF"/>
<path d="M402.927 254.456L404.073 254.17C404.263 255.178 404.543 255.968 404.913 256.539C405.272 257.119 405.67 257.533 406.108 257.781C406.545 258.039 406.975 258.193 407.398 258.244C407.667 258.277 407.93 258.28 408.187 258.252C408.444 258.225 408.739 258.158 409.074 258.052C409.409 257.947 409.827 257.793 410.329 257.59L410.735 258.707C410.066 258.997 409.444 259.185 408.868 259.271C408.291 259.367 407.791 259.389 407.368 259.338C406.762 259.264 406.227 259.097 405.761 258.836C405.294 258.584 404.893 258.273 404.558 257.9C404.212 257.537 403.928 257.146 403.705 256.729C403.481 256.322 403.306 255.915 403.18 255.51C403.052 255.114 402.968 254.763 402.927 254.456Z" fill="#F6F2FF"/>
<path d="M404.493 267.324C404.721 267.369 404.96 267.436 405.208 267.524C405.465 267.624 405.732 267.746 406.009 267.89C406.295 268.045 406.59 268.222 406.896 268.421L406.294 269.367C406.047 269.22 405.813 269.085 405.59 268.962C405.366 268.848 405.153 268.752 404.952 268.672C404.748 268.603 404.552 268.549 404.362 268.511C403.991 268.438 403.654 268.45 403.348 268.548C403.041 268.655 402.769 268.833 402.532 269.082C402.286 269.329 402.077 269.633 401.907 269.994C401.737 270.356 401.609 270.755 401.522 271.191C401.387 271.875 401.345 272.488 401.395 273.031C401.436 273.572 401.537 274.036 401.697 274.423C401.857 274.81 402.045 275.109 402.26 275.319C402.473 275.539 402.675 275.668 402.864 275.705C402.997 275.732 403.132 275.674 403.269 275.534C403.405 275.393 403.546 275.204 403.692 274.966C403.837 274.728 403.991 274.477 404.151 274.213C404.322 273.951 404.508 273.707 404.711 273.48C404.914 273.254 405.135 273.081 405.376 272.96C405.627 272.842 405.899 272.812 406.193 272.871C406.583 272.948 406.949 273.119 407.291 273.384C407.641 273.66 407.944 273.997 408.202 274.393C408.457 274.799 408.638 275.229 408.745 275.685C408.862 276.142 408.876 276.594 408.788 277.04C408.709 277.439 408.584 277.77 408.414 278.032C408.253 278.296 408.113 278.481 407.994 278.585L407.075 277.915C407.183 277.769 407.29 277.602 407.396 277.416C407.502 277.23 407.577 277.027 407.62 276.809C407.674 276.534 407.673 276.242 407.615 275.935C407.556 275.637 407.455 275.35 407.312 275.075C407.167 274.81 406.994 274.583 406.795 274.396C406.595 274.208 406.381 274.092 406.153 274.047C405.992 274.015 405.829 274.066 405.664 274.202C405.497 274.346 405.33 274.54 405.164 274.784C404.997 275.027 404.823 275.284 404.641 275.554C404.467 275.835 404.283 276.094 404.088 276.332C403.902 276.572 403.703 276.754 403.491 276.88C403.276 277.015 403.046 277.059 402.799 277.01C402.447 276.94 402.091 276.746 401.73 276.428C401.368 276.11 401.058 275.683 400.799 275.149C400.53 274.612 400.348 273.984 400.254 273.264C400.157 272.555 400.195 271.763 400.368 270.889C400.487 270.291 400.663 269.748 400.898 269.262C401.13 268.785 401.423 268.379 401.775 268.044C402.116 267.717 402.517 267.485 402.978 267.349C403.428 267.221 403.933 267.213 404.493 267.324Z" fill="#F6F2FF"/>
<path d="M397.928 281.651L399.146 281.717C399.065 282.297 399.031 282.84 399.041 283.345C399.04 283.857 399.119 284.316 399.278 284.722C399.434 285.137 399.692 285.494 400.051 285.795C400.41 286.095 400.897 286.33 401.513 286.501C401.802 286.581 402.085 286.629 402.362 286.645C402.648 286.664 402.909 286.646 403.145 286.591C403.381 286.536 403.582 286.446 403.747 286.321C403.91 286.205 404.018 286.049 404.073 285.853C404.132 285.639 404.102 285.42 403.983 285.196C403.871 284.984 403.704 284.792 403.48 284.62C403.254 284.456 403.015 284.34 402.763 284.27C402.567 284.216 402.384 284.206 402.214 284.239C402.051 284.284 401.906 284.39 401.78 284.556C401.654 284.722 401.549 284.954 401.467 285.252C401.392 285.523 401.345 285.801 401.326 286.087C401.304 286.383 401.313 286.641 401.352 286.863L400.357 286.648C400.26 286.38 400.222 286.083 400.242 285.757C400.259 285.44 400.311 285.128 400.396 284.82C400.494 284.466 400.619 284.159 400.771 283.9C400.921 283.65 401.093 283.446 401.287 283.289C401.488 283.144 401.715 283.051 401.967 283.01C402.217 282.979 402.491 283.005 402.789 283.087C403.144 283.185 403.483 283.34 403.806 283.55C404.139 283.762 404.427 284.013 404.668 284.301C404.91 284.589 405.079 284.902 405.177 285.24C405.283 285.581 405.287 285.929 405.189 286.283C405.086 286.656 404.897 286.956 404.624 287.181C404.36 287.41 404.039 287.572 403.661 287.668C403.282 287.764 402.875 287.802 402.439 287.782C402.002 287.761 401.565 287.69 401.126 287.569C400.259 287.329 399.561 286.945 399.035 286.417C398.496 285.896 398.137 285.234 397.957 284.431C397.775 283.638 397.766 282.711 397.928 281.651Z" fill="#F6F2FF"/>
<path d="M391.364 294.972C392.021 295.033 392.658 295.107 393.274 295.195C393.887 295.292 394.445 295.4 394.948 295.519C395.45 295.637 395.856 295.752 396.166 295.864C396.722 296.063 397.146 296.329 397.438 296.66C397.74 296.995 397.93 297.367 398.01 297.776C398.098 298.188 398.105 298.613 398.031 299.049C397.953 299.494 397.822 299.93 397.638 300.358C397.459 300.798 397.254 301.197 397.022 301.556C397.322 301.695 397.624 301.783 397.93 301.821C398.241 301.871 398.53 301.867 398.798 301.809C399.072 301.763 399.308 301.663 399.508 301.508C399.707 301.354 399.853 301.149 399.945 300.894C400.027 300.666 400.053 300.434 400.025 300.197C399.997 299.961 399.911 299.714 399.767 299.457C399.628 299.211 399.438 298.953 399.197 298.681L399.966 298C400.373 298.414 400.671 298.815 400.861 299.202C401.048 299.598 401.148 299.978 401.161 300.343C401.183 300.711 401.138 301.05 401.027 301.36C400.86 301.824 400.619 302.18 400.304 302.427C399.998 302.677 399.653 302.836 399.269 302.904C398.89 302.984 398.504 302.999 398.11 302.95C397.722 302.914 397.364 302.837 397.036 302.719C396.808 302.637 396.59 302.528 396.382 302.391C396.174 302.255 395.994 302.113 395.841 301.965C395.685 301.827 395.57 301.703 395.496 301.594C395.818 301.155 396.089 300.732 396.306 300.327C396.524 299.922 396.681 299.541 396.778 299.185C396.881 298.841 396.913 298.524 396.874 298.232C396.835 297.94 396.72 297.688 396.528 297.475C396.337 297.263 396.06 297.091 395.695 296.96C395.358 296.839 394.947 296.722 394.463 296.61C393.979 296.497 393.464 296.4 392.917 296.317C392.362 296.23 391.809 296.165 391.259 296.122L391.364 294.972Z" fill="#F6F2FF"/>
<path d="M381.54 242.127C387.871 245.077 392.157 245.592 397.955 244.629C399.267 244.416 400.604 244.372 401.913 244.6C408.808 245.795 411.654 252.472 409.714 257.561C408.367 261.099 404.705 263.879 398.49 263.537C392.962 263.007 387.904 259.72 384.641 255.513C381.402 251.342 379.938 246.278 381.545 242.118L381.54 242.127Z" fill="#46A0F2"/>
<path d="M381.54 242.127C387.871 245.077 392.157 245.592 397.955 244.629C399.267 244.416 400.604 244.372 401.913 244.6C408.808 245.795 411.654 252.472 409.714 257.561L409.191 257.527C409.191 257.527 409.991 249.376 397.87 249.426C387.923 249.469 385.273 253.928 384.643 255.52C381.404 251.348 379.94 246.284 381.547 242.125L381.54 242.127Z" fill="#3582D8"/>
<g opacity="0.6">
<path d="M380.899 245.265C382.692 252.166 389.864 259.033 398.075 259.821C405.685 260.236 409.458 255.978 409.867 251.378C411.64 257.062 408.157 264.073 398.485 263.545C388.788 262.62 380.534 253.193 380.899 245.265Z" fill="white"/>
</g>
<path d="M381.076 240.673C381.438 240.559 381.83 240.585 382.179 240.745C388.043 243.473 391.958 244.077 397.704 243.13C399.272 242.872 400.776 242.861 402.174 243.103C409.183 244.319 412.348 250.405 411.768 255.522C411.192 260.609 406.839 265.533 398.403 265.071C398.382 265.071 398.361 265.071 398.339 265.07C391.946 264.457 385.711 260.41 382.064 254.511C379.345 250.112 378.638 245.4 380.112 241.588C380.265 241.191 380.573 240.881 380.964 240.723C381.002 240.71 381.041 240.698 381.08 240.686L381.076 240.673ZM403.321 261.513C406.828 260.41 408.434 257.765 408.73 255.177C409.149 251.447 406.814 247.005 401.647 246.106C400.586 245.921 399.432 245.935 398.195 246.139C392.389 247.098 388.111 246.609 382.525 244.241C382.084 246.862 382.821 249.929 384.658 252.899C387.757 257.918 393.226 261.495 398.595 262.018C400.453 262.116 402.012 261.917 403.319 261.507L403.321 261.513Z" fill="#2B0758"/>
<path d="M373.424 254.335C373.773 258.334 374.702 260.874 376.736 264.122C377.194 264.857 377.579 265.626 377.83 266.41C379.154 270.537 376.81 272.939 373.901 272.391C371.879 272.01 369.579 270.204 368.042 266.567C366.78 263.306 366.936 260.007 368.011 257.642C369.077 255.296 371.045 253.876 373.429 254.337L373.424 254.335Z" fill="#46A0F2"/>
<path d="M373.424 254.335C373.773 258.334 374.702 260.874 376.736 264.122C377.194 264.857 377.579 265.626 377.83 266.41C379.154 270.537 376.81 272.939 373.901 272.391L373.774 272.084C373.774 272.084 377.803 271.627 374.47 264.615C371.734 258.86 368.925 257.829 368.009 257.644C369.075 255.298 371.043 253.878 373.426 254.338L373.424 254.335Z" fill="#3582D8"/>
<g opacity="0.6">
<path d="M371.781 254.318C369.045 256.136 367.792 261.064 369.666 265.907C371.55 270.36 374.571 272.064 376.834 271.781C374.66 273.45 370.431 272.224 368.037 266.565C365.821 260.846 367.975 255.002 371.781 254.318Z" fill="white"/>
</g>
<path d="M373.977 253.902C374.129 254.099 374.224 254.329 374.244 254.549C374.57 258.252 375.357 260.587 377.368 263.807C377.917 264.685 378.333 265.555 378.602 266.392C379.947 270.588 377.966 273.108 375.415 273.349C372.879 273.59 369.389 271.626 367.301 266.69C367.295 266.677 367.29 266.665 367.284 266.652C365.825 262.882 366.015 258.814 367.777 256.037C369.091 253.965 371.101 253.024 373.286 253.447C373.513 253.491 373.742 253.634 373.923 253.842C373.939 253.863 373.955 253.884 373.972 253.906L373.977 253.902ZM370.308 269.135C371.781 271.041 373.456 271.672 374.747 271.551C376.605 271.373 378.044 269.519 377.054 266.426C376.851 265.791 376.529 265.124 376.095 264.431C374.062 261.178 373.123 258.646 372.704 255.144C371.358 255.184 370.126 255.957 369.239 257.356C367.738 259.718 367.559 263.288 368.781 266.456C369.243 267.543 369.761 268.423 370.31 269.133L370.308 269.135Z" fill="#2B0758"/>
<path d="M148.286 97.5179C140.882 93.0075 135.667 91.7824 128.383 92.1723C126.735 92.2551 125.08 92.125 123.497 91.6633C115.156 89.2409 112.564 80.6134 115.658 74.6028C117.807 70.4244 122.706 67.4996 130.325 68.7767C137.07 70.1909 142.856 74.9411 146.303 80.5789C149.724 86.1703 150.834 92.6179 148.279 97.5278L148.286 97.5179Z" fill="#46A0F2"/>
<path d="M148.286 97.5179C140.882 93.0075 135.667 91.7824 128.383 92.1722C126.735 92.2551 125.08 92.1249 123.497 91.6632C115.156 89.2409 112.564 80.6134 115.658 74.6028L116.298 74.7175C116.298 74.7175 114.19 84.6609 129.147 86.2666C141.423 87.5831 145.306 82.4471 146.302 80.5706C149.722 86.162 150.832 92.6096 148.277 97.5195L148.286 97.5179Z" fill="#3582D8"/>
<g opacity="0.6">
<path d="M149.509 93.7356C148.246 84.9761 140.345 75.5194 130.325 73.4175C120.996 71.8581 115.756 76.5909 114.618 82.2095C113.213 74.9534 118.474 66.7852 130.332 68.7669C142.166 71.2423 151.05 84.0062 149.509 93.7356Z" fill="white"/>
</g>
<path d="M148.658 99.3747C148.196 99.4654 147.716 99.3794 147.307 99.1335C140.451 94.9619 135.704 93.6792 128.487 94.0561C126.517 94.1592 124.66 93.9655 122.968 93.4737C114.491 91.0096 111.424 83.067 112.844 76.8354C114.255 70.64 120.301 65.1657 130.643 66.8957C130.669 66.8991 130.695 66.9025 130.722 66.9059C138.523 68.542 145.657 74.392 149.343 82.1702C152.093 87.9703 152.316 93.8797 149.973 98.3793C149.73 98.8472 149.308 99.1874 148.804 99.3291C148.754 99.3388 148.705 99.3485 148.655 99.3582L148.658 99.3747ZM124.088 70.6083C119.61 71.486 117.264 74.5278 116.544 77.6799C115.513 82.2225 117.782 88.0225 124.032 89.8425C125.315 90.2172 126.741 90.358 128.295 90.2765C135.588 89.8933 140.797 91.0853 147.362 94.7737C148.267 91.6025 147.78 87.7178 145.923 83.8014C142.79 77.1842 136.536 72.0195 129.986 70.6358C127.708 70.2589 125.758 70.2894 124.089 70.6165L124.088 70.6083Z" fill="#2B0758"/>
<path d="M392.067 227.277C392.297 225.966 391.7 224.961 390.812 224.444C389.191 223.506 387.192 224.65 386.956 226.509C386.712 228.45 385.739 230.398 384.11 232.36C386.997 232.554 389.491 231.23 391.581 228.382C391.825 228.054 391.999 227.68 392.067 227.277Z" fill="#46A0F2"/>
<g opacity="0.6">
<path d="M384.104 232.36C384.334 232.083 384.549 231.809 384.751 231.534C386.664 231.058 388.373 229.795 389.874 227.752C390.118 227.424 390.296 227.047 390.364 226.645C390.55 225.551 390.169 224.667 389.52 224.11C389.95 224.102 390.391 224.2 390.806 224.443C391.694 224.955 392.291 225.965 392.061 227.277C391.993 227.679 391.815 228.056 391.575 228.381C389.481 231.232 386.988 232.557 384.101 232.363L384.104 232.36Z" fill="white"/>
</g>
<path d="M387.229 224.025C387.467 223.817 387.734 223.636 388.024 223.495C389.092 222.965 390.286 223 391.309 223.592C392.654 224.374 393.318 225.849 393.041 227.446C392.949 227.981 392.727 228.494 392.378 228.968C390.079 232.09 387.273 233.565 384.043 233.344C383.672 233.319 383.349 233.088 383.204 232.749C383.059 232.41 383.114 232.012 383.351 231.73C384.879 229.892 385.76 228.093 385.98 226.383C386.099 225.452 386.548 224.619 387.232 224.022L387.229 224.025ZM391.097 227.105C391.288 225.99 390.618 225.469 390.319 225.293C389.721 224.947 389.175 225.121 388.901 225.255C388.373 225.517 388.012 226.03 387.937 226.625C387.747 228.135 387.154 229.671 386.169 231.211C387.879 230.802 389.405 229.669 390.786 227.79C390.947 227.568 391.057 227.326 391.097 227.099L391.097 227.105Z" fill="#2B0758"/>
<path d="M161.996 78.5301C160.699 77.5453 159.263 77.626 158.19 78.2948C156.24 79.5199 156.339 82.3232 158.228 83.6218C160.203 84.9767 161.767 87.1217 162.969 89.9845C164.836 86.9734 164.823 83.5345 162.921 79.6755C162.702 79.2282 162.396 78.8296 161.996 78.5301Z" fill="#46A0F2"/>
<g opacity="0.6">
<path d="M162.966 89.9908C162.796 89.5867 162.621 89.2006 162.437 88.8275C163.016 86.4927 162.62 83.9361 161.256 81.1667C161.038 80.7195 160.73 80.3156 160.331 80.0161C159.246 79.2 158.065 79.1153 157.086 79.5036C157.324 79.035 157.684 78.6138 158.186 78.3011C159.253 77.6283 160.695 77.5516 161.992 78.5364C162.392 78.8359 162.7 79.2397 162.917 79.6818C164.821 83.546 164.834 86.9849 162.967 89.996L162.966 89.9908Z" fill="white"/>
</g>
<path d="M155.679 81.9321C155.59 81.5583 155.546 81.1679 155.558 80.7754C155.593 79.3232 156.316 78.052 157.547 77.2793C159.17 76.2644 161.158 76.3755 162.739 77.5721C163.268 77.9723 163.7 78.5001 164.016 79.1437C166.098 83.3823 166.095 87.2422 164.003 90.6094C163.762 90.9964 163.326 91.2162 162.873 91.182C162.421 91.1477 162.02 90.865 161.848 90.4505C160.722 87.767 159.268 85.8041 157.531 84.6064C156.586 83.9545 155.935 83.0015 155.678 81.9269L155.679 81.9321ZM161.252 79.482C160.147 78.6489 159.195 79.0802 158.832 79.3044C158.113 79.7567 157.989 80.4452 157.978 80.8157C157.961 81.5334 158.313 82.2122 158.918 82.6272C160.453 83.681 161.786 85.1843 162.898 87.1136C163.434 85.0364 163.075 82.7509 161.82 80.2025C161.67 79.9034 161.47 79.6493 161.246 79.478L161.252 79.482Z" fill="#2B0758"/>
<path d="M136.694 111.89C135.635 112.483 135.269 113.483 135.414 114.408C135.684 116.092 137.643 116.847 139.092 115.944C140.604 114.999 142.54 114.565 144.864 114.588C143.34 112.436 140.969 111.437 137.754 111.598C137.382 111.615 137.017 111.707 136.694 111.89Z" fill="#46A0F2"/>
<g opacity="0.6">
<path d="M144.867 114.592C144.54 114.588 144.222 114.595 143.911 114.61C142.474 113.532 140.598 113.052 138.291 113.166C137.919 113.183 137.551 113.274 137.227 113.458C136.347 113.956 135.942 114.733 135.922 115.513C135.669 115.214 135.485 114.846 135.417 114.412C135.267 113.49 135.638 112.487 136.697 111.895C137.021 111.711 137.389 111.62 137.757 111.602C140.976 111.442 143.347 112.441 144.871 114.593L144.867 114.592Z" fill="white"/>
</g>
<path d="M137.18 117.181C136.896 117.132 136.615 117.047 136.348 116.924C135.359 116.475 134.696 115.61 134.526 114.547C134.304 113.146 134.965 111.828 136.253 111.105C136.684 110.863 137.174 110.724 137.71 110.698C141.239 110.526 143.895 111.659 145.598 114.069C145.794 114.346 145.817 114.707 145.661 115.004C145.504 115.302 145.192 115.491 144.856 115.486C142.678 115.465 140.9 115.877 139.565 116.706C138.839 117.157 137.992 117.32 137.176 117.18L137.18 117.181ZM137.131 112.675C136.233 113.182 136.25 113.955 136.298 114.268C136.398 114.889 136.835 115.175 137.087 115.291C137.576 115.513 138.147 115.473 138.61 115.184C139.786 114.449 141.213 113.984 142.867 113.794C141.595 112.821 139.916 112.395 137.793 112.501C137.544 112.515 137.31 112.576 137.126 112.678L137.131 112.675Z" fill="#2B0758"/>
<mask id="mask0_261_4988" style="mask-type:alpha" maskUnits="userSpaceOnUse" x="151" y="57" width="266" height="279">
<path d="M151.298 173.738L212.772 57.0836H291.187L336.203 80.3178L403.485 105.488L416.071 162.605L369.118 308.303L281.264 335.167L277.936 312.115L316.781 257.115L314.905 254.937L266.38 283.496L258.635 271.757L302.078 246.829L308.613 238.6L274.73 228.193L251.979 232.066L151.298 173.738Z" fill="#D9D9D9"/>
</mask>
<g mask="url(#mask0_261_4988)">
<path fill-rule="evenodd" clip-rule="evenodd" d="M277.346 324.554C279.27 325.986 281.718 326.502 284.029 325.997L284.014 326.009C284.277 325.951 284.537 325.877 284.795 325.795C297.225 321.759 304.633 307.517 304.623 287.683C304.616 284.54 306.878 281.84 309.983 281.264C310.704 281.132 311.422 280.984 312.137 280.828C329.859 276.954 344.971 266.068 354.856 249.991C361.849 238.622 366.071 225.222 367.39 210.165C368.717 195.029 367.034 178.896 362.379 162.172C384.14 161.206 389.212 153.937 390.268 149.587C390.941 146.829 390.191 143.831 388.101 140.893C381.123 131.087 360.812 122.723 338.483 120.418C326.238 99.7607 311.134 85.338 293.567 77.5456C277.928 70.6071 261.334 69.4696 245.57 74.2597C232.036 78.3728 220.035 86.7779 211.782 97.9397C203.248 109.473 199.11 123.104 199.77 137.436C196.727 139.755 193.171 138.784 186.025 136.52C181.836 135.135 177.098 136.877 174.493 140.764C171.265 145.588 172.272 151.969 177.17 157.938C177.93 167.448 181.336 174.002 188.142 179.123C194.556 183.942 204.025 187.688 220.816 192.049C229.166 194.276 237.829 196.78 246.47 199.778C245.919 207.444 247.406 214.899 253.401 220.297C254.119 220.941 254.937 221.529 255.729 222.08C257.896 223.519 260.809 223.718 263.142 222.562C263.935 222.189 264.624 221.64 265.306 221.097C265.476 220.961 265.647 220.825 265.818 220.693C268.878 218.137 271.537 215.126 273.663 211.766C273.733 211.658 273.802 211.55 273.871 211.441C274.681 211.867 275.488 212.3 276.29 212.74C276.273 220.476 278.6 226.871 284.814 231.042C286.802 232.374 289.402 232.323 291.345 230.924C293.187 229.6 294.916 228.089 296.526 226.381C299.113 228.536 301.606 230.815 303.989 233.227C308.119 237.417 310.723 242.509 311.5 247.957C312.443 254.558 310.576 259.102 305.613 262.255C304.372 263.043 302.855 263.237 301.463 262.783C300.053 262.324 298.934 261.268 298.39 259.879C295.188 251.738 290.968 245.44 285.849 241.139C280.193 236.395 273.427 234.057 265.726 234.19C263.127 234.241 260.78 235.486 259.29 237.621C257.814 239.736 257.444 242.342 258.287 244.777C259.713 248.9 259.83 253.919 259.943 258.769V258.769L259.943 258.779C260.148 267.601 260.381 277.493 269.817 280.652C265.293 287.431 267.928 294.834 270.488 302.013C272.287 307.048 274.14 312.252 274.015 317.751C273.96 320.417 275.204 322.954 277.346 324.554Z" fill="black" fill-opacity="0.2"/>
<path d="M262.986 165.386C255.469 186.658 250.358 206.559 264.012 215.724C266 217.055 268.6 217.004 270.543 215.606C277.834 210.367 283.345 202.192 286.751 190.538" fill="#40389E"/>
<path d="M263.677 165.631C260.279 179.178 250.758 204.171 264.656 213.903C265.31 214.449 266.112 214.808 266.97 214.871C267.871 214.932 268.789 214.68 269.536 214.155C269.689 214.026 270.716 213.285 270.9 213.141C275.265 209.774 278.716 205.418 281.393 200.559C283.218 197.317 284.647 193.842 285.931 190.296C286.082 189.841 286.581 189.602 287.03 189.763C287.442 189.914 287.668 190.356 287.568 190.765C287.097 192.634 286.612 194.515 285.961 196.347C284.705 200.059 283.055 203.625 280.924 206.926C278.798 210.286 276.139 213.297 273.078 215.853C272.223 216.514 271.394 217.255 270.402 217.722C268.07 218.878 265.157 218.679 262.99 217.24C262.197 216.689 261.38 216.101 260.661 215.457C249.504 205.41 253.962 188.237 258.111 175.844C259.367 172.209 260.767 168.637 262.291 165.124C262.658 164.32 263.908 164.719 263.682 165.613L263.677 165.631Z" fill="#2B0758"/>
<path d="M395.696 144.286C394.354 149.775 386.475 155.082 367.155 155.505C367.624 157.1 368.067 158.692 368.471 160.267C371.615 172.281 373.122 183.747 373.185 194.444C373.189 194.46 373.19 194.468 373.186 194.487C373.443 237.488 350.483 268.365 316.904 274.551C312.886 275.291 309.991 278.759 309.986 282.836C309.993 285.902 309.804 288.821 309.454 291.56C307.58 306.204 300.883 316.087 291.47 319.144C287.318 320.491 283.058 317.321 283.155 312.957C283.474 298.885 271.78 287.094 278.671 276.834C279.158 276.107 279.741 275.385 280.43 274.674C279.869 274.59 279.337 274.482 278.826 274.353C264.525 270.775 271.707 251.955 267.335 239.322C265.978 235.405 268.876 231.316 273.014 231.248C275.246 231.208 277.371 231.389 279.375 231.77C290.93 233.975 298.84 242.922 303.881 255.735C305.145 258.957 308.497 260.612 311.657 259.929C312.421 259.762 313.174 259.46 313.878 259.013C319.022 255.743 321.754 250.7 320.623 242.847C319.768 236.847 316.837 231.362 312.588 227.06C291.01 205.212 261.214 194.096 228.556 185.38C199.387 177.806 188.271 171.102 186.435 154.227C186.37 153.613 186.311 152.988 186.274 152.35C181.7 147.034 181.078 142.215 182.421 138.742C184.075 134.443 188.732 132.175 192.696 133.48C200.351 135.9 204.896 137.258 208.981 133.436C208.972 133.395 208.973 133.36 208.972 133.317C208.902 132.169 208.869 131.031 208.872 129.901C208.654 70.1751 295.847 33.9164 344.603 117.378C368.889 119.686 389.094 129.099 394.476 138.15C395.727 140.247 396.183 142.335 395.7 144.302L395.696 144.286Z" fill="#9297FF"/>
<g opacity="0.6">
<path d="M210.385 133.594C209.687 140.253 202.699 142.461 193.927 139.424C185.155 136.387 182.997 141.339 182.997 141.339L182.494 139.037C184.148 134.737 188.805 132.47 192.769 133.775C200.424 136.194 204.969 137.553 209.054 133.73C209.045 133.689 209.046 133.655 209.045 133.612C208.975 132.464 208.942 131.325 208.945 130.196C209.974 131.16 210.524 132.297 210.387 133.603L210.385 133.594Z" fill="white"/>
</g>
<path d="M395.696 144.286C394.354 149.775 386.476 155.082 367.155 155.506C367.624 157.101 368.067 158.693 368.472 160.267C367.737 159.825 367.294 159.491 367.239 159.322C366.975 158.587 363.471 151.305 361.323 146.88C361.323 146.88 396.902 150.907 394.464 138.136C395.715 140.232 396.172 142.321 395.688 144.288L395.696 144.286Z" fill="#40389E"/>
<path d="M373.194 194.485C373.452 237.486 350.491 268.363 316.912 274.549C312.895 275.289 309.999 278.757 309.994 282.834C310.001 285.9 309.812 288.819 309.463 291.558C307.589 306.202 300.891 316.085 291.478 319.142C287.326 320.489 283.066 317.319 283.163 312.955C283.482 298.883 271.788 287.093 278.679 276.832L280.886 276.599C280.886 276.599 280.864 299.283 292.843 303.429C301.904 306.566 305.133 285.508 306.167 275.063C306.487 271.796 308.845 269.1 312.03 268.301C327.714 264.407 372.095 248.622 373.192 194.477L373.194 194.485Z" fill="#40389E"/>
<path d="M280.111 235.5C280.111 235.5 266.243 271.507 287.875 271.018C287.875 271.018 285.482 274.893 279.531 276.168C265.23 272.59 272.412 253.77 268.039 241.137C266.683 237.22 269.581 233.132 273.719 233.063C275.951 233.023 278.076 233.205 280.08 233.585L280.111 235.5Z" fill="#40389E"/>
<g opacity="0.6">
<path d="M395.696 144.286C387.588 124.732 340.242 121.985 340.242 121.985C303.952 60.4675 221.312 58.5072 208.902 127.637C208.271 131.135 212.434 134.137 208.979 133.307C205.334 71.5816 294.931 32.3245 344.608 117.36C374.536 120.209 398.254 133.835 395.706 144.292L395.696 144.286Z" fill="white"/>
<ellipse cx="285.016" cy="78.3812" rx="8.34977" ry="3.14629" fill="white"/>
</g>
<path d="M312.047 260.732C312.047 260.732 311.907 260.444 311.663 259.92C312.428 259.752 313.18 259.45 313.884 259.003C319.029 255.733 321.76 250.69 320.63 242.837C319.829 237.205 317.198 232.024 313.355 227.849C313.106 227.576 312.851 227.313 312.585 227.044C306.718 221.097 300.235 215.957 293.258 211.433C274.584 199.325 252.326 191.713 228.552 185.364C199.384 177.79 188.268 171.086 186.432 154.211C187.287 153.318 187.844 152.748 187.844 152.748C202.976 164.855 219.132 170.061 237.274 161.838C259.116 166.327 279.173 175.384 295.009 186.416C306.258 194.236 315.38 203.056 321.519 211.942C334.598 230.857 334.199 250.082 312.027 260.719L312.047 260.732Z" fill="#F6F2FF"/>
<path d="M291.289 321.157C288.979 321.662 286.531 321.146 284.606 319.714C282.464 318.114 281.22 315.577 281.275 312.911C281.4 307.412 279.547 302.208 277.749 297.172C275.189 289.994 272.554 282.591 277.078 275.812C267.641 272.653 267.409 262.76 267.204 253.939C267.091 249.086 266.975 244.062 265.547 239.937C264.705 237.502 265.075 234.896 266.551 232.781C268.04 230.646 270.387 229.401 272.987 229.349C280.687 229.217 287.454 231.555 293.109 236.299C298.229 240.599 302.449 246.898 305.65 255.039C306.195 256.427 307.314 257.484 308.724 257.943C310.115 258.397 311.633 258.203 312.873 257.415C317.837 254.262 319.704 249.717 318.761 243.117C317.983 237.668 315.38 232.576 311.25 228.387C288.799 205.661 256.607 194.819 228.077 187.208C211.286 182.848 201.816 179.102 195.403 174.283C188.597 169.162 185.191 162.608 184.43 153.098C179.532 147.128 178.526 140.748 181.753 135.924C184.359 132.037 189.096 130.295 193.285 131.68C200.432 133.943 203.988 134.915 207.031 132.596C206.371 118.264 210.508 104.633 219.042 93.0994C227.296 81.9376 239.297 73.5325 252.83 69.4195C268.594 64.6294 285.189 65.7669 300.828 72.7053C318.395 80.4978 333.499 94.9205 345.743 115.578C368.073 117.883 388.384 126.247 395.361 136.053C397.451 138.991 398.201 141.989 397.529 144.747C396.472 149.097 391.401 156.366 369.639 157.332C374.295 174.056 375.977 190.189 374.65 205.325C373.332 220.382 369.109 233.782 362.116 245.151C352.232 261.228 337.12 272.114 319.398 275.988C318.682 276.144 317.965 276.292 317.244 276.424C314.139 276.999 311.877 279.7 311.883 282.843C311.893 302.676 304.486 316.919 292.055 320.955C291.797 321.037 291.538 321.111 291.275 321.168L291.289 321.157ZM272.208 233.233C271.18 233.458 270.277 234.06 269.652 234.947C268.878 236.055 268.686 237.424 269.12 238.699C270.749 243.392 270.869 248.709 270.985 253.853C271.236 264.698 271.845 271.424 280.711 272.803C281.406 272.91 281.988 273.403 282.211 274.069C282.435 274.736 282.269 275.478 281.778 275.991C276.252 281.731 278.474 287.992 281.298 295.905C283.121 301.013 285.179 306.801 285.033 312.994C284.998 314.449 285.654 315.797 286.836 316.667C288.01 317.548 289.484 317.786 290.868 317.337C295.952 315.683 300.233 311.774 303.225 306.028C306.401 299.939 308.077 291.921 308.072 282.832C308.069 277.852 311.636 273.591 316.538 272.683C317.218 272.561 317.894 272.421 318.569 272.274C335.279 268.621 349.534 258.345 358.871 243.155C372.849 220.419 375.143 189.484 365.315 156.037C365.148 155.47 365.256 154.86 365.601 154.389C365.946 153.917 366.494 153.625 367.087 153.616C389.806 153.13 393.3 146.016 393.824 143.842C394.234 142.167 393.701 140.284 392.247 138.241C386.773 130.546 368.573 121.548 344.39 119.242C343.783 119.186 343.242 118.839 342.937 118.311C316.487 73.0307 279.602 65.239 253.905 73.0361C226.885 81.2432 209.176 106.027 210.839 133.305C210.876 133.866 210.651 134.415 210.245 134.805C205.289 139.447 199.753 137.694 192.098 135.274C189.535 134.43 186.504 135.583 184.875 138.025C182.562 141.477 183.614 146.366 187.69 151.101C187.957 151.413 188.119 151.8 188.148 152.207C189.258 168.758 198.045 175.489 229.015 183.539C258.048 191.281 290.832 202.347 313.915 225.719C318.626 230.479 321.582 236.313 322.484 242.57C323.636 250.598 321.076 256.664 314.88 260.604C312.679 262.007 309.996 262.343 307.528 261.539C305.042 260.729 303.065 258.861 302.1 256.418C295.923 240.733 286.146 232.901 273.03 233.131C272.738 233.135 272.461 233.169 272.181 233.231L272.208 233.233Z" fill="#2B0758"/>
<path d="M239.829 158.272C239.256 159.354 239.702 160.489 240.456 161.298C240.732 161.616 241.281 161.919 241.755 162.117C242.438 162.441 242.736 163.255 242.412 163.938C241.696 165.275 239.559 164.88 238.445 164.202C236.339 162.922 235.446 160.058 236.655 157.863C237.239 156.753 239.136 155.262 240.029 156.824C240.294 157.326 240.087 157.837 239.829 158.272Z" fill="#2B0758"/>
<path d="M187.177 149.818C197.132 159.093 210.833 165.206 224.588 164.353C229.128 164.033 233.621 162.827 237.69 160.627C238.099 160.409 238.613 160.555 238.842 160.97C239.047 161.356 238.933 161.821 238.582 162.07C236.583 163.489 234.374 164.618 232.067 165.493C222.74 168.945 212.269 167.753 203.154 164.213C196.296 161.533 189.961 157.507 184.798 152.216C183.326 150.608 185.54 148.357 187.171 149.828L187.177 149.818Z" fill="#2B0758"/>
<path d="M291.049 175.864C283.532 197.136 278.421 217.038 292.074 226.202C294.063 227.534 296.662 227.483 298.606 226.084C305.896 220.846 311.407 212.67 314.814 201.017" fill="#9297FF"/>
<path d="M291.74 176.11C288.342 189.657 278.821 214.649 292.719 224.381C293.373 224.928 294.175 225.287 295.033 225.349C295.934 225.41 296.852 225.158 297.599 224.633C297.752 224.505 298.779 223.763 298.963 223.619C303.328 220.253 306.779 215.897 309.456 211.037C311.281 207.795 312.71 204.32 313.994 200.774C314.145 200.319 314.644 200.081 315.093 200.241C315.505 200.392 315.731 200.834 315.631 201.244C315.16 203.113 314.675 204.994 314.024 206.825C312.768 210.538 311.118 214.104 308.987 217.404C306.861 220.764 304.202 223.775 301.141 226.331C300.286 226.992 299.457 227.734 298.465 228.2C296.133 229.356 293.22 229.157 291.053 227.718C290.26 227.168 289.443 226.579 288.724 225.935C277.567 215.889 282.025 198.715 286.174 186.322C287.43 182.687 288.83 179.115 290.354 175.603C290.721 174.799 291.971 175.197 291.745 176.091L291.74 176.11Z" fill="#2B0758"/>
<path d="M270.706 139.786C272.782 133.27 270.123 126.605 264.768 124.899C259.412 123.193 253.388 127.092 251.312 133.608C249.237 140.124 251.895 146.79 257.251 148.496C262.607 150.202 268.631 146.303 270.706 139.786Z" fill="#2B0758"/>
<path d="M267.128 131.952C267.626 130.389 266.629 128.675 264.901 128.124C263.174 127.574 261.37 128.396 260.871 129.959C260.373 131.523 261.37 133.237 263.098 133.787C264.825 134.337 266.629 133.516 267.128 131.952Z" fill="white"/>
<path d="M273.333 97.6983C277.785 96.8198 282.983 98.3288 285.606 102.245C286.496 103.558 286.995 105.052 287.134 106.477C287.237 107.541 286.462 108.486 285.398 108.589C282.543 108.808 283.681 103.924 275.505 103.419C275.102 103.386 274.677 103.376 274.277 103.36C274.234 103.36 274.157 103.36 274.18 103.347C270.419 103.764 269.615 98.3903 273.341 97.6965L273.333 97.6983Z" fill="#2B0758"/>
</g>
<path d="M286.267 74.9774C285.157 67.5998 283.086 63.4806 278.807 58.8878C277.843 57.8457 277.015 56.6812 276.445 55.3812C273.439 48.5377 277.703 42.0632 283.379 40.7866C287.324 39.8981 291.96 41.5174 295.323 47.252C298.114 52.4854 298.173 58.9279 296.355 64.3161C294.552 69.6614 290.909 73.9538 286.257 74.9784L286.267 74.9774Z" fill="#46A0F2"/>
<path d="M286.267 74.9773C285.157 67.5997 283.086 63.4805 278.807 58.8877C277.843 57.8456 277.015 56.681 276.445 55.3811C273.439 48.5376 277.703 42.063 283.379 40.7865L283.657 41.2724C283.657 41.2724 275.929 45.3709 283.127 56.1312C289.036 64.9616 294.57 64.6889 296.359 64.3103C294.557 69.6557 290.913 73.9481 286.262 74.9727L286.267 74.9773Z" fill="#3582D8"/>
<g opacity="0.6">
<path d="M289.439 73.6961C294.525 68.0263 296.405 57.5891 292.26 49.8145C288.138 42.7947 282.121 41.9489 277.784 44.3003C281.798 39.3663 290.095 38.3294 295.333 47.2509C300.233 56.4294 296.713 69.3415 289.439 73.6961Z" fill="white"/>
</g>
<path d="M285.247 76.2483C284.932 75.993 284.724 75.6286 284.66 75.2232C283.628 68.3937 281.854 64.5523 277.62 59.996C276.465 58.7525 275.568 57.4201 274.958 56.0316C271.904 49.0747 275.454 42.6649 280.351 40.1619C285.22 37.6723 292.172 38.6412 296.74 46.4228C296.752 46.4421 296.765 46.4614 296.777 46.4807C300.004 52.5336 300.081 60.473 296.982 67.2011C294.672 72.2187 290.894 75.629 286.63 76.5665C286.187 76.6646 285.729 76.5736 285.358 76.3191C285.324 76.2918 285.29 76.2644 285.256 76.2371L285.247 76.2483ZM290.67 44.1456C287.618 41.6746 284.315 41.8055 281.837 43.0705C278.269 44.898 275.693 49.5984 277.942 54.729C278.403 55.7828 279.098 56.8018 280.01 57.7824C284.289 62.3854 286.379 66.4821 287.568 72.8521C290.162 71.6987 292.457 69.2323 294.017 65.844C296.655 60.1223 296.612 53.1425 293.909 48.0545C292.899 46.3424 291.803 45.0721 290.665 44.1512L290.67 44.1456Z" fill="#2B0758"/>
<path d="M287.68 75.8223C292.245 72.8334 295.501 71.9561 300.091 72.0525C301.13 72.0709 302.168 71.9552 303.155 71.6324C308.353 69.938 309.807 64.4574 307.738 60.7393C306.301 58.1545 303.159 56.4146 298.392 57.3738C294.177 58.4013 290.634 61.508 288.581 65.1252C286.543 68.7128 285.977 72.7917 287.684 75.8283L287.68 75.8223Z" fill="#46A0F2"/>
<path d="M287.68 75.822C292.245 72.8331 295.501 71.9558 300.091 72.0522C301.13 72.0707 302.168 71.955 303.155 71.6321C308.353 69.9378 309.807 64.4571 307.738 60.739L307.338 60.8243C307.338 60.8243 308.867 67.0367 299.49 68.3526C291.794 69.4316 289.246 66.2799 288.581 65.1197C286.544 68.7072 285.978 72.7862 287.685 75.8228L287.68 75.822Z" fill="#3582D8"/>
<g opacity="0.6">
<path d="M286.833 73.4676C287.448 67.9311 292.226 61.8203 298.486 60.2932C304.324 59.1215 307.717 61.9919 308.547 65.5033C309.283 60.9098 305.806 55.8786 298.387 57.3677C290.993 59.1668 285.665 67.3782 286.833 73.4676Z" fill="white"/>
</g>
<path d="M287.483 76.9983C287.776 77.0458 288.076 76.9819 288.328 76.8189C292.557 74.0544 295.517 73.1504 300.065 73.24C301.306 73.2646 302.47 73.1048 303.525 72.7608C308.808 71.0373 310.575 65.9779 309.554 62.0866C308.54 58.2179 304.624 54.8975 298.153 56.1972C298.137 56.1999 298.12 56.2026 298.104 56.2052C293.23 57.394 288.861 61.22 286.701 66.1887C285.09 69.8938 285.07 73.616 286.636 76.3989C286.798 76.6883 287.071 76.8937 287.391 76.9725C287.422 76.9776 287.454 76.9827 287.485 76.9878L287.483 76.9983ZM302.353 58.3988C305.188 58.8595 306.726 60.7252 307.243 62.6935C307.985 65.5302 306.676 69.2254 302.781 70.4981C301.982 70.7601 301.087 70.8778 300.108 70.8583C295.512 70.7663 292.259 71.6226 288.205 74.0772C287.571 72.1007 287.798 69.6468 288.886 67.145C290.722 62.9181 294.55 59.5411 298.643 58.5367C300.069 58.253 301.296 58.2324 302.352 58.4041L302.353 58.3988Z" fill="#2B0758"/>
<path d="M258.734 43.8839C256.532 43.8833 255.066 45.1407 254.476 46.7339C253.41 49.6403 255.842 52.5707 258.935 52.426C262.167 52.2719 265.616 53.3013 269.275 55.3965C268.77 50.6395 265.903 46.9557 260.671 44.3608C260.067 44.0583 259.409 43.88 258.734 43.8839Z" fill="#46A0F2"/>
<g opacity="0.6">
<path d="M269.276 55.4066C268.761 55.1103 268.253 54.8389 267.747 54.5879C266.428 51.6074 263.884 49.1836 260.131 47.32C259.527 47.0175 258.863 46.8347 258.188 46.8386C256.354 46.8458 255.023 47.7179 254.3 48.9332C254.165 48.236 254.2 47.4899 254.477 46.7441C255.057 45.1519 256.533 43.8935 258.735 43.8941C259.41 43.8901 260.073 44.073 260.672 44.371C265.91 46.9704 268.777 50.6542 269.282 55.4112L269.276 55.4066Z" fill="white"/>
</g>
<path d="M254.813 52.6891C254.407 52.3605 254.037 51.9767 253.724 51.5456C252.556 49.9567 252.273 48.0016 252.947 46.1676C253.838 43.754 256.051 42.253 258.732 42.2496C259.629 42.2482 260.528 42.463 261.398 42.8973C267.138 45.7534 270.337 49.9024 270.897 55.2259C270.961 55.8378 270.678 56.4295 270.166 56.7617C269.655 57.0939 268.992 57.1171 268.465 56.8116C265.036 54.8469 261.856 53.9233 259.009 54.0525C257.459 54.1226 255.974 53.6291 254.807 52.6845L254.813 52.6891ZM258.73 45.5133C256.859 45.5192 256.2 46.7588 255.999 47.2955C255.606 48.3678 256.045 49.2084 256.341 49.6156C256.918 50.4004 257.857 50.8431 258.847 50.7957C261.36 50.6759 264.03 51.2047 266.818 52.3706C265.666 49.7026 263.387 47.5397 259.933 45.8251C259.525 45.6256 259.101 45.5155 258.719 45.5144L258.73 45.5133Z" fill="#2B0758"/>
</g>
<defs>
<filter id="filter0_f_261_4988" x="-1" y="397.963" width="427.706" height="82.4805" filterUnits="userSpaceOnUse" color-interpolation-filters="sRGB">
<feFlood flood-opacity="0" result="BackgroundImageFix"/>
<feBlend mode="normal" in="SourceGraphic" in2="BackgroundImageFix" result="shape"/>
<feGaussianBlur stdDeviation="12" result="effect1_foregroundBlur_261_4988"/>
</filter>
<filter id="filter1_f_261_4988" x="0.706055" y="21.472" width="440.294" height="446.991" filterUnits="userSpaceOnUse" color-interpolation-filters="sRGB">
<feFlood flood-opacity="0" result="BackgroundImageFix"/>
<feBlend mode="normal" in="SourceGraphic" in2="BackgroundImageFix" result="shape"/>
<feGaussianBlur stdDeviation="12" result="effect1_foregroundBlur_261_4988"/>
</filter>
<filter id="filter2_f_261_4988" x="100.868" y="378.963" width="223.97" height="82.4805" filterUnits="userSpaceOnUse" color-interpolation-filters="sRGB">
<feFlood flood-opacity="0" result="BackgroundImageFix"/>
<feBlend mode="normal" in="SourceGraphic" in2="BackgroundImageFix" result="shape"/>
<feGaussianBlur stdDeviation="12" result="effect1_foregroundBlur_261_4988"/>
</filter>
<clipPath id="clip0_261_4988">
<rect width="440" height="469" fill="white"/>
</clipPath>
</defs>
</svg>
