<svg width="250" height="110" viewBox="0 0 250 110" fill="none" xmlns="http://www.w3.org/2000/svg">
<g clip-path="url(#clip0_10_161)">
<path d="M-108 26.5H-108.5V27V65V65.5H-108H108H108.5V65V27V26.5H108H-108Z" fill="#BF4040" fill-opacity="0.5" stroke="#BF4040"/>
<path fill-rule="evenodd" clip-rule="evenodd" d="M7.3954 61.0689C7.26524 61.0419 7.13345 61.0158 7 60.9905L7.19325 60C7.33239 60.0264 7.46995 60.0537 7.60595 60.0818C7.88248 60.1392 8.05952 60.4066 8.00138 60.6791C7.94324 60.9517 7.67193 61.1262 7.3954 61.0689ZM9.3608 61.0397C9.45214 60.7761 9.74296 60.6355 10.0104 60.7255C10.2799 60.8162 10.5419 60.9116 10.7965 61.0115C11.0591 61.1145 11.1872 61.4077 11.0827 61.6665C10.9783 61.9253 10.6807 62.0516 10.4182 61.9486C10.1797 61.8551 9.93358 61.7655 9.67961 61.68C9.4122 61.59 9.26946 61.3033 9.3608 61.0397ZM12.3468 62.2862C12.4962 62.0498 12.8117 61.9774 13.0516 62.1247C13.2946 62.2738 13.5286 62.4286 13.754 62.5891C13.9831 62.7521 14.0348 63.0673 13.8693 63.2932C13.7039 63.519 13.3841 63.5699 13.155 63.4068C12.9487 63.2601 12.7341 63.118 12.5107 62.9809C12.2709 62.8337 12.1975 62.5227 12.3468 62.2862ZM14.9177 64.2246C15.129 64.0396 15.4524 64.0584 15.6401 64.2666C15.8288 64.476 16.0086 64.6911 16.1801 64.9116C16.352 65.1326 16.3096 65.4492 16.0854 65.6187C15.8611 65.7881 15.5399 65.7463 15.368 65.5253C15.2112 65.3237 15.0471 65.1274 14.875 64.9366C14.6874 64.7283 14.7065 64.4096 14.9177 64.2246ZM16.8248 66.8039C17.0778 66.68 17.3849 66.7817 17.5107 67.0311C17.6346 67.2769 17.752 67.527 17.8634 67.7813C17.9755 68.037 17.8561 68.3338 17.5967 68.4443C17.3373 68.5547 17.0361 68.437 16.9241 68.1813C16.8195 67.9427 16.7097 67.7089 16.5943 67.48C16.4685 67.2306 16.5717 66.9279 16.8248 66.8039ZM18.065 69.7578C18.3364 69.6801 18.6203 69.8339 18.6991 70.1014C18.7754 70.3605 18.848 70.6227 18.9172 70.8878C18.9876 71.1576 18.8228 71.4325 18.5491 71.5019C18.2754 71.5713 17.9965 71.4088 17.9261 71.1391C17.8594 70.8833 17.7896 70.6312 17.7164 70.3828C17.6376 70.1153 17.7937 69.8355 18.065 69.7578ZM18.8478 72.8614C19.1255 72.8101 19.3928 72.9905 19.4449 73.2643C19.4948 73.527 19.5429 73.7919 19.5895 74.0591C19.6375 74.3336 19.4506 74.5944 19.1721 74.6416C18.8936 74.6889 18.629 74.5046 18.5811 74.2301C18.5352 73.9674 18.488 73.7073 18.4391 73.45C18.387 73.1762 18.57 72.9127 18.8478 72.8614ZM19.3881 76.0165C19.6678 75.9765 19.9274 76.1675 19.9679 76.4432C20.0066 76.706 20.0449 76.9705 20.083 77.2365C20.1225 77.5123 19.9278 77.7675 19.648 77.8065C19.3682 77.8454 19.1093 77.6534 19.0698 77.3776C19.0318 77.1124 18.9937 76.8492 18.9552 76.588C18.9147 76.3123 19.1085 76.0565 19.3881 76.0165ZM19.8428 79.1836C20.1226 79.1442 20.3818 79.3358 20.4217 79.6115C20.4409 79.7433 20.4601 79.8754 20.4796 80.0078C20.4996 80.1442 20.521 80.2793 20.5436 80.4132C20.5901 80.688 20.4018 80.9478 20.123 80.9936C19.8443 81.0394 19.5807 80.8537 19.5342 80.579C19.5104 80.438 19.4879 80.2958 19.4669 80.1524C19.4473 80.0193 19.4279 79.8866 19.4087 79.7543C19.3687 79.4785 19.5631 79.223 19.8428 79.1836ZM20.4766 82.4657C20.7458 82.381 21.0337 82.5274 21.1196 82.7928C21.2047 83.0555 21.2954 83.311 21.3916 83.5591C21.4925 83.8193 21.3603 84.1108 21.0964 84.2102C20.8324 84.3097 20.5367 84.1794 20.4358 83.9192C20.3325 83.653 20.2355 83.3797 20.1447 83.0994C20.0588 82.8341 20.2074 82.5503 20.4766 82.4657ZM21.7759 85.5658C22.0138 85.4155 22.3302 85.4837 22.4828 85.7182C22.6317 85.9472 22.7866 86.165 22.9472 86.3712C23.1191 86.5922 23.0768 86.9088 22.8526 87.0784C22.6284 87.2479 22.3072 87.2062 22.1352 86.9852C21.9565 86.7556 21.7851 86.5145 21.6213 86.2626C21.4688 86.0281 21.538 85.7161 21.7759 85.5658ZM23.9541 88.135C24.1133 87.9048 24.4316 87.8454 24.6651 88.0023C24.885 88.15 25.1105 88.2816 25.341 88.3969C25.5931 88.5228 25.6938 88.8263 25.566 89.0748C25.4382 89.3232 25.1303 89.4225 24.8783 89.2965C24.6073 89.1611 24.3439 89.0072 24.0887 88.8357C23.8552 88.6789 23.795 88.3651 23.9541 88.135ZM27.0516 89.465C27.065 89.1868 27.3047 88.9719 27.5869 88.9851C27.7161 88.9911 27.8466 88.9928 27.9782 88.99L28 89.9985C27.8451 90.0017 27.6913 89.9998 27.5385 89.9926C27.2562 89.9794 27.0383 89.7432 27.0516 89.465Z" fill="#7BD578"/>
<path d="M113 26.5H112.5V27V68C112.5 76.6607 105.673 83.5 97 83.5H29C27.1226 83.5 25.6736 84.1747 24.6966 85.224C23.7264 86.266 23.25 87.6464 23.25 89.0179C23.25 90.3895 23.7263 91.7768 24.6934 92.8352C25.667 93.9008 27.1125 94.6048 28.9898 94.6433L28.9898 94.6434H29H108.139C114.508 94.6434 120.314 90.9984 123.074 85.2662C126.831 77.4635 134.734 72.5009 143.406 72.5009H203.461V93.0987C203.461 96.3137 207.516 97.7264 209.52 95.2144L242.391 54.0026L242.63 53.7028L242.403 53.3941L209.599 8.88815C207.654 6.2492 203.461 7.62088 203.461 10.9011V26.5H113Z" fill="#7BD578" fill-opacity="0.5" stroke="#7BD578"/>
<line x1="110.36" y1="42.5" x2="110.36" y2="19.5" stroke="currentColor" stroke-linecap="round"/>
<line x1="163.47" y1="94.5" x2="163.47" y2="63.5" stroke="currentColor" stroke-linecap="round"/>
<line x1="30.75" y1="88.5" x2="30.75" y2="81.5" stroke="currentColor" stroke-linecap="round"/>
<path d="M230.364 53.7463L213.736 31.2792C213.342 30.7467 212.5 31.0268 212.5 31.6905V76.3095C212.5 76.9708 213.337 77.2525 213.733 76.7246L230.362 54.5727C230.545 54.3284 230.546 53.9919 230.364 53.7463Z" fill="currentColor"/>
<path fill-rule="evenodd" clip-rule="evenodd" d="M122.455 72.1868C122.286 73.0136 122.106 73.8934 121.896 74.8125C120.382 81.4541 114.313 90 102.393 90H31.5V88.118H102.393C113.226 88.118 118.703 80.4102 120.076 74.3911C120.28 73.4934 120.457 72.6327 120.627 71.8025L120.657 71.6569C120.835 70.7864 121.009 69.9456 121.2 69.1535C121.579 67.5779 122.044 66.115 122.818 64.8811C123.61 63.6203 124.706 62.6296 126.282 61.9679C127.834 61.3168 129.813 61 132.363 61H216.5V62.882H132.363C129.946 62.882 128.239 63.1854 127 63.7052C125.787 64.2144 124.988 64.9453 124.397 65.8873C123.788 66.8563 123.381 68.0774 123.015 69.5974C122.833 70.3532 122.665 71.1631 122.486 72.0376L122.455 72.1868Z" fill="currentColor"/>
<path fill-rule="evenodd" clip-rule="evenodd" d="M216.5 62H-96.5V43H216.5V62Z" fill="currentColor"/>
<path d="M28.3615 89.8695C27.9623 89.4702 27.9623 88.823 28.3615 88.4237L30.0482 86.737C30.4475 86.3378 31.0948 86.3378 31.494 86.737L33.1807 88.4237C33.5799 88.823 33.5799 89.4702 33.1807 89.8695L31.494 91.5562C31.0947 91.9554 30.4475 91.9554 30.0482 91.5562L28.3615 89.8695Z" fill="currentColor"/>
<path d="M165.908 63.801C166.308 63.4018 166.308 62.7545 165.908 62.3553L164.222 60.6686C163.823 60.2693 163.175 60.2693 162.776 60.6686L161.089 62.3553C160.69 62.7545 160.69 63.4018 161.089 63.801L162.776 65.4877C163.175 65.8869 163.823 65.8869 164.222 65.4877L165.908 63.801Z" fill="currentColor"/>
<path d="M105.545 43.971C105.145 43.5718 105.145 42.9245 105.545 42.5253L109.641 38.429C110.04 38.0298 110.687 38.0298 111.087 38.429L115.183 42.5253C115.582 42.9245 115.582 43.5718 115.183 43.971L111.087 48.0673C110.687 48.4665 110.04 48.4665 109.641 48.0673L105.545 43.971Z" fill="currentColor"/>
</g>
<defs>
<clipPath id="clip0_10_161">
<rect width="250" height="110" fill="white"/>
</clipPath>
</defs>
</svg>
