<svg width="313" height="186" viewBox="0 0 313 186" fill="none" xmlns="http://www.w3.org/2000/svg">
<path d="M0.812098 167.968L23.8605 166.216C25.8631 166.064 26.8344 165.344 26.7397 164.097L27.1175 164.069C27.131 165.246 27.1301 166.234 27.2622 167.972C27.3915 169.672 27.5446 170.687 27.7494 172.381L27.3716 172.41C27.2768 171.163 26.2078 170.598 24.2052 170.75L4.74628 172.23C3.42383 172.33 2.80977 173.251 2.94476 175.027L2.378 175.07C2.10514 171.48 1.58413 169.126 0.812098 167.968ZM13.8818 161.017C5.86203 160.549 0.530134 155.645 0.911604 149.101C1.29087 142.594 7.15198 138.419 15.1717 138.887C23.1915 139.354 28.5278 144.182 28.1486 150.689C27.7671 157.233 21.9016 161.484 13.8818 161.017ZM14.0818 156.284C22.1015 156.751 27.3518 154.59 27.5767 150.731C27.8038 146.835 22.8024 144.076 14.707 143.604C6.76286 143.141 1.70616 145.238 1.47683 149.172C1.24751 153.106 6.09983 155.818 14.0818 156.284ZM14.9422 115.797C14.7297 116.485 14.9549 116.911 15.6428 117.124C16.1134 117.269 16.7737 117.315 17.6708 117.235L28.1361 116.224L20.0642 109.487C19.7831 109.241 19.4796 109.068 19.19 108.979C18.4297 108.744 17.6214 109.05 16.7763 109.859L16.4143 109.748C16.4143 109.748 16.8275 108.923 17.3532 107.222C17.6775 106.172 17.7729 105.606 17.9912 104.643L18.3533 104.754C18.5629 106.644 19.2049 108.032 20.2431 108.908L34.7865 121.015C37.4975 123.28 38.5926 125.641 38.3469 128.619L33.7071 129.645C35.2617 124.612 35.1085 122.027 33.0571 120.322L16.2169 121.942C14.052 122.145 12.8172 122.676 12.5376 123.581L12.1756 123.469C12.7401 121.899 13.1033 120.98 13.5954 119.387C14.0875 117.794 14.3058 116.83 14.5801 115.685L14.9422 115.797ZM27.9244 105.897C22.858 102.926 21.3948 97.631 24.2895 92.6953C27.0499 87.9885 32.0147 86.639 36.6235 89.342L29.5689 101.371C34.6928 104.244 39.4646 103.748 41.5925 100.12C42.4743 98.616 42.6471 97.0481 42.174 95.2331C40.9575 90.566 36.2271 87.3963 34.1944 82.9973C32.9054 80.1766 33.0885 77.6922 34.833 74.7177C37.2676 70.5665 40.4726 69.3712 43.872 71.3649L53.3511 76.9242C54.1029 77.3651 54.4986 77.2896 54.652 77.0282C54.7287 76.8974 54.7591 76.6956 54.7051 76.4882L55.0703 76.6145C55.4714 77.7283 55.3573 78.6718 54.7439 79.7178C53.7662 81.3848 52.4889 81.6901 50.7239 80.6549L49.5472 79.9647C51.5577 82.1543 51.715 84.8823 50.0089 87.7914C48.0343 91.1581 44.9657 92.3456 42.2854 90.7737C38.2323 88.3966 41.4494 83.2107 42.2978 79.6668C42.8901 77.1588 42.3888 75.7665 40.591 74.7121C38.2703 73.3511 36.1577 73.9571 34.7391 76.3759C33.5697 78.3698 33.5704 80.391 34.7186 82.7776C36.8032 87.1631 41.6339 90.6112 42.8233 95.1746C43.4181 97.4563 43.0118 99.722 41.5932 102.141C38.4685 107.469 33.0889 108.926 27.9244 105.897ZM47.1283 78.5462L42.4542 75.8048C43.1202 76.7665 43.2563 78.0325 42.9088 79.6737C42.3875 82.1355 41.413 84.7708 44.6163 86.6495C46.9043 87.9914 49.1172 87.6638 50.1907 85.8334C51.5518 83.5126 50.2009 80.3481 47.1283 78.5462ZM33.9094 92.8461C29.845 90.6381 26.1025 90.7275 24.7414 93.0483C23.3995 95.3363 25.1213 98.5426 29.0786 101.083L33.9094 92.8461ZM55.3482 50.2423L58.963 55.1316C56.3099 53.1383 54.1064 52.929 52.6203 54.4964C50.4824 56.7513 51.2726 61.2601 54.325 64.1541L58.9173 68.5081C60.3747 69.8898 61.5604 70.1263 62.4207 69.2189L62.6957 69.4796C61.6761 70.4449 60.9432 71.1077 59.7439 72.3726C58.5186 73.6651 57.8957 74.4322 56.96 75.5293L56.685 75.2685C57.5453 74.3611 57.2461 73.1897 55.7887 71.8079L46.9891 63.465C45.5317 62.0832 44.346 61.8467 43.4856 62.7542L43.2107 62.4935C43.8117 61.9146 44.3867 61.3632 44.9082 60.8132C45.925 59.7407 46.8868 58.6161 47.4503 57.6362L52.1526 62.0944C50.0242 58.6666 50.1054 54.6706 52.6082 52.0307C53.4425 51.1508 54.5229 50.4519 55.3482 50.2423ZM71.2843 43.9504C69.319 41.9328 66.2272 41.1142 63.8956 42.9917C62.3904 44.2038 62.0114 45.9685 63.0096 47.2081C63.675 48.0345 64.7472 48.3388 66.4333 48.1973C68.6105 48.001 70.9395 47.1473 73.5371 47.0502C75.6733 46.9842 76.9413 47.4713 77.987 48.7699C80.1973 51.5147 79.2442 55.104 75.5844 58.0511C74.1383 59.2156 72.4782 60.1145 70.651 60.5642C70.1247 60.6961 69.7345 60.8157 69.5279 60.9821C69.1737 61.2673 69.2696 61.628 69.7096 62.2953L69.385 62.5567C68.4934 61.3286 67.9582 60.5432 67.0313 59.3922C66.0332 58.1526 65.4275 57.5213 64.6317 56.6539L64.9269 56.4163C68.6412 59.4581 72.129 60.1038 74.4901 58.2025C76.3495 56.7052 76.8032 54.2478 75.5911 52.7426C74.8544 51.8277 73.6814 51.4586 71.9125 51.6181C70.0312 51.8194 67.6547 52.6141 65.43 52.7514C63.0397 52.9248 61.2209 52.2974 60.1809 50.9455C58.5288 48.773 59.5072 45.6984 62.6652 43.1554C63.6982 42.3236 64.6434 41.8057 66.1034 41.2625C66.7773 41.0118 67.256 40.8209 67.5216 40.607C67.9348 40.2743 67.8685 39.8898 67.476 39.2815L67.8006 39.0201C68.4783 39.9825 68.8946 40.6204 69.6314 41.5353C70.4157 42.5092 70.8787 42.9634 71.5795 43.7128L71.2843 43.9504ZM86.285 38.4626C83.7278 33.2594 85.7143 27.7653 91.1216 25.1077C96.5289 22.4502 102.092 24.2339 104.649 29.4371C107.207 34.6403 105.22 40.1344 99.8128 42.7919C94.4056 45.4495 88.8423 43.6658 86.285 38.4626ZM90.5701 36.3566C92.9769 41.2538 96.6714 43.7025 99.5621 42.2818C102.453 40.8611 102.754 36.4062 100.331 31.475C97.9242 26.5779 94.263 24.1972 91.3723 25.6179C88.4816 27.0385 88.1465 31.4255 90.5701 36.3566ZM104.977 19.6989L104.794 19.1606L105.907 18.7836C104.387 14.2974 105.698 10.4924 109.144 9.32506C110.759 8.77788 112.569 8.92476 113.579 9.66275L112.906 14.1717C111.836 11.0134 109.649 9.63414 108.321 10.084C108.034 10.1813 107.807 10.3382 107.64 10.5547C106.687 11.6379 107.476 13.731 110.226 17.3604L113.456 16.266L113.638 16.8044L110.408 17.8987L115.211 32.075C115.856 33.9772 116.794 34.7395 117.978 34.3382L118.1 34.6971C116.64 35.1117 115.611 35.3804 114.032 35.9154C112.345 36.4869 111.436 36.8748 110.204 37.3722L110.083 37.0133C111.267 36.612 111.549 35.4363 110.904 33.5342L106.089 19.322L104.977 19.6989ZM158.542 10.5821L155.145 10.886L156.452 25.4924C156.631 27.4927 157.086 28.327 158.03 28.2426C158.709 28.1818 159.42 27.6236 159.909 26.7049L160.018 27.0756C159.309 28.5086 157.836 29.4774 156.1 29.6327C153.76 29.8421 152.156 28.5019 151.95 26.1996L151.646 22.8027C150.744 27.1825 146.664 30.477 141.078 30.9768C134.511 31.5644 130.001 27.9352 129.468 21.9719C128.951 16.1973 132.453 11.9653 138.114 11.4588C143.549 10.9725 147.531 14.2304 148.007 19.5521L134.118 20.7949C134.782 26.9368 137.59 30.2617 142.61 29.8126C147.781 29.3499 151.862 25.2183 151.41 20.1608L150.616 11.2913L149.484 11.3926L149.433 10.8264L150.565 10.7251L150.295 7.70573C151.802 7.5329 153.377 7.27784 154.791 6.92305L155.095 10.3199L158.491 10.0159L158.542 10.5821ZM143.578 19.3777C143.016 14.7866 140.769 11.7919 138.09 12.0317C135.448 12.2681 133.837 15.5318 134.067 20.2288L143.578 19.3777ZM182.362 21.4847L181.597 27.9573C181.361 29.9517 181.881 31.0434 183.122 31.1902L183.078 31.5665C181.506 31.3044 180.537 31.1135 178.806 30.9089C177.112 30.7087 176.2 30.6773 174.799 30.5879L174.843 30.2116C176.085 30.3584 176.841 29.4556 177.076 27.4612L177.824 21.1391C178.166 18.2415 178.229 17.066 178.028 15.8594C177.653 13.869 176.662 12.569 175.232 12.4C172.485 12.0753 169.08 16.0228 168.604 20.0493L167.861 26.3338C167.625 28.3282 168.145 29.4199 169.387 29.5667L169.342 29.943C168.185 29.7298 167.215 29.5389 165.484 29.3343C163.791 29.1342 162.766 29.0893 161.064 28.9645L161.108 28.5881C162.35 28.7349 163.11 27.7945 163.345 25.8L165.881 4.35015C166.116 2.35568 165.597 1.26402 164.355 1.11724L164.399 0.740926C165.185 0.871966 165.971 1.003 166.761 1.09641C168.267 1.27433 169.705 1.36808 170.828 1.23366L168.955 17.0765C170.43 13.3205 173.793 11.009 177.594 11.4582C183.164 12.1165 182.864 17.2323 182.362 21.4847ZM187.268 22.8085C189.261 17.364 194.232 15.0271 199.57 16.9806C204.694 18.8559 206.908 23.4998 205.072 28.5173L191.977 23.7247C189.961 29.5642 191.085 33.7687 195.818 35.5008C200.693 37.285 206.146 35.2858 207.891 30.5174L209.975 24.8238C210.665 22.9378 210.412 21.7556 209.237 21.3258L209.368 20.9699C210.137 21.292 210.872 21.6011 211.583 21.8616C212.971 22.3695 214.385 22.8062 215.508 22.9348L213.281 29.0199C215.583 25.7062 219.284 24.1955 222.7 25.4457C223.839 25.8625 224.909 26.5769 225.429 27.2514L222.374 32.5092C223.152 29.283 222.47 27.1773 220.441 26.435C217.523 25.3671 213.698 27.8811 212.252 31.8311L210.077 37.7738C209.387 39.6598 209.641 40.842 210.815 41.2718L210.685 41.6276C209.394 41.0746 208.495 40.6648 206.858 40.0657C205.185 39.4536 204.234 39.1862 202.856 38.7625L202.986 38.4066C204.16 38.8364 205.117 38.097 205.807 36.211L206.979 33.0083C204.298 36.5867 199.203 37.829 193.936 35.9016C187.744 33.6355 185.21 28.431 187.268 22.8085ZM201.14 26.4728C202.586 22.0793 201.83 18.413 199.303 17.4883C196.812 16.5767 193.965 18.8435 192.172 23.1909L201.14 26.4728ZM223.702 36.6883C226.904 31.719 232.267 30.5312 237.045 33.6096C241.664 36.5854 242.752 41.6137 239.879 46.0733L228.156 38.521C225.112 43.4563 225.303 48.2674 228.807 50.5249C231.068 51.982 234.042 51.9143 236.855 50.3461L236.896 50.9131C233.782 52.7383 230.068 52.5547 226.66 50.3588C221.691 47.1573 220.46 41.7213 223.702 36.6883ZM236.491 43.2149C238.888 39.2147 238.935 35.5035 236.674 34.0464C234.444 32.6098 231.168 34.1958 228.464 38.0432L236.491 43.2149ZM246.535 66.2297L250.897 61.4381C247.513 63.6355 243.432 63.5588 240.602 60.9824C236.454 57.2071 239.674 53.2201 242.557 50.0537L246.944 45.234C248.296 43.7489 248.508 42.5587 247.584 41.7169L247.839 41.4367C248.402 42.0004 248.965 42.5641 249.553 43.0998C250.674 44.1201 251.79 45.0334 252.781 45.577L246.047 52.9747C244.082 55.1323 243.348 56.052 242.86 57.0942C241.957 58.9875 242.034 60.6469 243.071 61.5908C245.117 63.4529 250.182 62.2227 252.912 59.2244L257.172 54.5448C258.524 53.0597 258.736 51.8694 257.812 51.0277L258.067 50.7474C258.63 51.3111 259.192 51.8749 259.781 52.4105C260.902 53.4309 262.018 54.3442 263.009 54.8878L252.372 66.5727C251.02 68.0579 250.807 69.2481 251.732 70.0899L251.477 70.3701C250.914 69.8064 250.351 69.2427 249.762 68.707C248.642 67.6866 247.526 66.7733 246.535 66.2297ZM279.133 92.6622L273.801 96.3437C272.117 97.5063 271.641 98.6177 272.351 99.6468L272.039 99.8621C271.198 98.5093 270.7 97.6555 269.71 96.2211C268.741 94.8178 268.162 94.1125 267.303 93.0018L267.615 92.7865C268.325 93.8155 269.533 93.7643 271.186 92.6233L276.393 89.0279C279.73 86.7242 280.498 86.1021 281.124 85.2089C282.018 83.9015 282.165 82.6483 281.498 81.6816C280.012 79.53 274.917 79.6865 271.549 82.0117L266.373 85.5856C264.689 86.7482 264.213 87.8596 264.924 88.8886L264.612 89.1039C263.77 87.7511 263.272 86.8973 262.282 85.4629C261.313 84.0597 260.734 83.3543 259.875 82.2436L260.187 82.0283C260.898 83.0574 262.105 83.0062 263.758 81.8651L268.966 78.2697C272.302 75.966 273.07 75.3439 273.697 74.4508C274.59 73.1434 274.738 71.8902 274.07 70.9235C272.585 68.7718 267.489 68.9283 264.122 71.2535L258.945 74.8274C257.261 75.99 256.785 77.1014 257.496 78.1304L257.184 78.3457C256.45 77.1489 255.888 76.2015 254.941 74.8295C253.907 73.3327 253.306 72.5962 252.448 71.4855L252.759 71.2702C253.47 72.2992 254.678 72.248 256.362 71.0854L266.309 64.2175C267.962 63.0765 268.407 61.9866 267.727 60.936L268.039 60.7207C268.482 61.4283 268.902 62.1046 269.355 62.7595C270.13 63.8821 271.096 65.1487 271.917 65.8711L266.647 69.5096C270.388 68.1244 274.185 68.956 276.209 71.8872C277.609 73.9141 277.656 76.1838 276.393 78.0227C275.87 78.7986 275.092 79.4734 273.96 80.3012C277.763 78.8729 281.613 79.7142 283.637 82.6454C285.036 84.6723 285.084 86.9419 283.821 88.7809C282.968 90.0141 281.565 90.9829 279.133 92.6622ZM284.037 137.388L304.432 116.087L283.754 120.854C282.535 121.133 281.732 122.211 281.39 124.116L281.021 124.2C280.867 123.186 280.78 122.467 280.51 121.285C280.248 120.14 280.014 119.455 279.712 118.475L280.081 118.39C281.217 119.957 282.409 120.579 283.628 120.3L302.836 115.907C304.794 115.46 305.648 114.604 305.369 113.385L305.738 113.3C305.943 114.536 306.064 115.403 306.385 116.806C306.706 118.21 306.932 118.858 307.217 119.765L291.122 136.584L306.747 133.011C307.966 132.732 308.769 131.654 309.111 129.749L309.481 129.664C309.643 130.716 309.73 131.434 309.992 132.58C310.262 133.762 310.496 134.447 310.79 135.39L310.421 135.475C309.285 133.907 308.093 133.286 306.874 133.565L284.341 138.718L284.037 137.388ZM305.548 158.794C309.747 158.555 311.728 156.013 311.452 151.17L311.341 149.203C311.278 148.106 310.718 147.607 309.621 147.669L298.688 148.291L298.744 149.274C298.858 151.28 299.841 152.552 301.734 153.128L301.762 153.619C300.584 153.61 299.899 153.574 298.726 153.64C297.516 153.709 296.877 153.821 295.671 153.966L295.643 153.474C297.458 152.688 298.29 151.312 298.176 149.307L298.12 148.323L288.776 148.855C286.771 148.969 285.786 149.67 285.857 150.918L285.478 150.94C285.481 149.649 285.498 148.623 285.399 146.883C285.296 145.067 285.162 144.05 284.994 142.428L285.373 142.406C285.444 143.655 286.502 144.24 288.507 144.126L308.179 143.007C310.185 142.893 311.169 142.191 311.098 140.943L311.477 140.921C311.632 143.645 311.674 145.73 311.881 149.362C312.085 152.956 312.284 155.108 312.503 158.967C311.137 158.969 310.338 158.939 308.976 159.016C307.576 159.096 306.862 159.212 305.58 159.361L305.548 158.794ZM303.275 184.277C307.422 184.703 309.774 182.202 310.336 176.737L288.021 174.442C286.023 174.237 284.939 174.773 284.811 176.017L284.434 175.978C284.634 174.78 284.81 173.807 284.988 172.073C285.167 170.339 285.204 169.238 285.307 167.497L285.683 167.536C285.556 168.779 286.507 169.525 288.505 169.73L310.82 172.025C311.382 166.559 309.592 163.594 305.446 163.168L305.504 162.602C306.778 162.81 307.524 162.962 308.919 163.106C310.276 163.245 311.037 163.247 312.402 163.312C311.911 167.718 311.613 170.24 311.152 174.725C310.699 179.136 310.477 181.665 310.115 185.551C308.766 185.337 308.02 185.184 306.663 185.044C305.268 184.901 304.507 184.899 303.217 184.842L303.275 184.277Z" fill="#6C24DF"/>
</svg>
