<svg width="580" height="60" viewBox="0 0 580 60" fill="none" xmlns="http://www.w3.org/2000/svg">
<path d="M12.4025 4.40376V41.6138C12.4025 44.8468 13.4395 46.4938 15.4525 46.4938V47.1038C13.5615 46.9818 11.9755 46.8598 9.1695 46.8598C6.4245 46.8598 4.7775 46.9818 2.0325 47.1038V46.4938C4.0455 46.4938 5.0825 44.8468 5.0825 41.6138V10.1988C5.0825 8.06376 3.6795 6.96576 0.8125 6.96576V6.05076C6.6075 6.05076 10.4505 5.50176 12.4025 4.40376Z" fill="currentColor"/>
<path d="M19.1363 25.7538C19.1363 12.8218 26.5173 3.79376 37.0703 3.79376C47.5623 3.79376 54.8213 12.8218 54.8213 25.7538C54.8213 38.6858 47.5623 47.7138 37.0703 47.7138C26.5173 47.7138 19.1363 38.6858 19.1363 25.7538ZM26.7613 25.6318C26.7613 38.5638 30.7263 46.7988 36.9483 46.7988C43.2313 46.7988 47.1963 38.5028 47.1963 25.4488C47.1963 12.6388 43.3533 4.70876 37.0093 4.70876C30.6653 4.70876 26.7613 12.7608 26.7613 25.6318Z" fill="currentColor"/>
<path d="M85.338 17.2138C84.179 17.2138 83.63 17.7628 83.63 18.9218C83.63 19.7148 83.874 20.7518 84.423 22.0938L90.95 37.7098L97.477 22.0938C97.721 21.5448 97.843 20.9958 97.843 20.5078C97.843 19.2268 96.989 18.1288 95.342 17.2138V16.6038C95.342 16.6038 96.806 16.8478 99.673 16.8478C101.442 16.8478 102.357 16.7258 103.943 16.6038V17.2138C101.137 18.4338 99.307 20.0808 98.453 22.0938L86.741 50.2148C84.545 55.4608 81.434 58.2668 76.737 59.3038L72.955 52.6548C81.434 52.6548 85.338 51.1908 86.985 47.2258L76.493 22.0938C75.151 18.8608 73.748 17.2138 72.223 17.2138V16.6038C74.907 16.7258 76.493 16.8478 79.177 16.8478C81.861 16.8478 83.447 16.7258 85.338 16.6038V17.2138Z" fill="currentColor"/>
<path d="M103.288 31.7928C103.288 22.2768 109.51 15.9938 118.66 15.9938C127.505 15.9938 133.361 21.8498 133.361 30.3898H110.913C111.096 39.7228 115.549 46.0668 122.259 46.0668C126.59 46.0668 130.555 43.3828 132.995 38.8078L133.544 39.5398C130.921 44.7248 125.736 47.7138 119.209 47.7138C109.693 47.7138 103.288 41.4308 103.288 31.7928ZM126.285 29.4748C126.041 21.9718 122.869 16.9088 118.538 16.9088C114.268 16.9088 111.218 21.9108 110.913 29.4748H126.285Z" fill="currentColor"/>
<path d="M135.091 39.4178C135.091 31.9148 144.302 32.2808 150.524 30.3898C154.367 29.2308 156.014 27.4618 156.014 24.5338C156.014 20.1418 153.696 16.9088 150.463 16.9088C147.047 16.9088 144.363 20.5078 142.96 26.8518L137.836 21.6668C140.825 18.2508 146.071 15.9938 151.805 15.9938C159.064 15.9938 163.334 19.5928 163.334 25.8148V43.5048C163.334 44.9078 163.761 45.3958 164.249 45.3958C164.493 45.3958 164.798 45.2738 165.042 45.0298L165.164 45.6398C163.944 47.1038 162.602 47.7138 160.589 47.7138C157.478 47.7138 156.014 46.1888 156.014 42.8948V40.6988C154.611 45.2128 151.012 47.7138 145.522 47.7138C139.239 47.7138 135.091 44.4198 135.091 39.4178ZM148.389 46.3718C152.72 46.3718 156.014 41.9188 156.014 36.1848V27.4618C155.221 29.1698 153.574 30.3898 151.012 31.2438C147.169 32.5248 142.716 33.3178 142.716 39.2958C142.716 43.5658 144.973 46.3718 148.389 46.3718Z" fill="currentColor"/>
<path d="M196.272 17.2138L194.564 26.8518C193.954 21.5448 191.758 18.7388 188.281 18.7388C183.279 18.7388 178.887 24.6558 178.887 31.4268V41.6138C178.887 44.8468 179.924 46.4938 181.937 46.4938V47.1038C179.68 46.9818 178.094 46.8598 175.288 46.8598C172.421 46.8598 170.835 46.9818 168.517 47.1038V46.4938C170.53 46.4938 171.567 44.8468 171.567 41.6138V22.0938C171.567 18.8608 170.53 17.2138 168.517 17.2138V16.6038C169.859 16.6648 171.14 16.7258 172.36 16.7258C174.739 16.7258 177.118 16.6038 178.887 16.1768V26.6078C180.534 20.3248 185.292 15.9938 191.148 15.9938C193.1 15.9938 195.113 16.4818 196.272 17.2138Z" fill="currentColor"/>
<path d="M218.633 25.6928C218.206 21.1788 215.156 17.0308 210.337 17.0308C207.226 17.0308 204.969 18.8608 204.969 21.4228C204.969 23.1308 206.006 24.5948 208.263 26.1198C211.191 28.0718 214.973 29.3528 218.328 31.8538C221.073 33.9278 222.171 35.8188 222.171 38.5028C222.171 44.1758 217.352 47.7138 209.788 47.7138C206.799 47.7138 203.81 47.1648 201.065 45.8838C200.272 45.5178 199.662 45.2738 199.235 45.2738C198.503 45.2738 198.259 45.8228 198.137 47.1038H197.466C197.588 44.6638 197.71 43.1388 197.71 40.7598C197.71 38.1978 197.588 36.7948 197.466 34.9038H198.076C199.662 42.4678 203.383 46.7988 208.263 46.7988C212.106 46.7988 215.156 44.1758 215.156 41.0648C215.156 39.1738 214.058 37.5268 211.679 35.9408C209.117 34.2938 205.335 32.8908 202.407 30.8168C199.235 28.6208 197.588 25.9978 197.649 23.2528C197.771 18.8608 202.102 15.9938 208.629 15.9938C210.764 15.9938 212.472 16.2988 214.851 17.0918C215.949 17.4578 216.742 17.7018 217.291 17.7018C218.145 17.7018 218.45 17.1528 218.572 15.9938H219.243C219.121 17.8848 218.999 19.1048 218.999 20.9958C218.999 23.0088 219.121 24.0458 219.243 25.6928H218.633Z" fill="currentColor"/>
<path d="M239.763 31.8538C239.763 22.5208 246.534 15.9938 256.233 15.9938C265.932 15.9938 272.703 22.5208 272.703 31.8538C272.703 41.1868 265.932 47.7138 256.233 47.7138C246.534 47.7138 239.763 41.1868 239.763 31.8538ZM247.449 31.8538C247.449 40.6378 251.048 46.7988 256.233 46.7988C261.418 46.7988 265.017 40.5768 265.017 31.7318C265.017 22.9478 261.418 16.9088 256.233 16.9088C251.048 16.9088 247.449 23.0088 247.449 31.8538Z" fill="currentColor"/>
<path d="M276.307 17.4578V16.5428H278.198C278.198 8.91776 282.163 3.79376 288.019 3.79376C290.764 3.79376 293.448 4.95276 294.607 6.59976L291.252 13.1268C291.252 7.75876 288.629 4.52576 286.372 4.52576C285.884 4.52576 285.457 4.64776 285.091 4.89176C283.078 6.05076 283.2 9.64976 285.518 16.6038H291.008V17.5188H285.518V41.6138C285.518 44.8468 286.555 46.4938 288.568 46.4938V47.1038C286.128 46.9818 284.42 46.8598 281.736 46.8598C278.869 46.8598 277.283 46.9818 275.148 47.1038V46.4938C277.161 46.4938 278.198 44.8468 278.198 41.6138V17.4578H276.307Z" fill="currentColor"/>
<path d="M308.924 31.7928C308.924 22.2768 315.146 15.9938 324.296 15.9938C333.141 15.9938 338.997 21.8498 338.997 30.3898H316.549C316.732 39.7228 321.185 46.0668 327.895 46.0668C332.226 46.0668 336.191 43.3828 338.631 38.8078L339.18 39.5398C336.557 44.7248 331.372 47.7138 324.845 47.7138C315.329 47.7138 308.924 41.4308 308.924 31.7928ZM331.921 29.4748C331.677 21.9718 328.505 16.9088 324.174 16.9088C319.904 16.9088 316.854 21.9108 316.549 29.4748H331.921Z" fill="currentColor"/>
<path d="M339.813 17.5188V16.6038H342.863V11.7238C345.303 11.6628 347.865 11.4798 350.183 11.1138V16.6038H354.453V17.5188H350.183V41.1258C350.183 44.3588 350.793 45.7618 352.318 45.7618C353.416 45.7618 354.636 44.9688 355.551 43.5658L355.673 44.1758C354.331 46.3718 351.83 47.7138 349.024 47.7138C345.242 47.7138 342.863 45.3348 342.863 41.6138V17.5188H339.813Z" fill="currentColor"/>
<path d="M389.811 31.1218V41.6138C389.811 44.8468 390.848 46.4938 392.861 46.4938V47.1038C390.299 46.9818 388.713 46.8598 385.907 46.8598C383.162 46.8598 381.698 46.9818 379.441 47.1038V46.4938C381.454 46.4938 382.491 44.9078 382.491 41.6748V31.4268C382.491 26.7298 382.369 24.8388 381.82 22.9478C380.844 19.8368 379.014 17.9458 376.696 17.9458C372.243 17.9458 367.546 24.8998 367.546 31.4268V41.6138C367.546 44.8468 368.583 46.4938 370.596 46.4938V47.1038C368.705 46.9818 367.119 46.8598 364.313 46.8598C361.568 46.8598 359.921 46.9818 357.176 47.1038V46.4938C359.189 46.4938 360.226 44.8468 360.226 41.6138V6.84376C360.226 3.61076 359.189 1.96376 357.176 1.96376V1.35376C358.457 1.41476 359.738 1.47576 361.019 1.47576C363.459 1.47576 365.777 1.35376 367.546 0.926758V26.6078C369.193 20.3248 374.134 15.9938 380.295 15.9938C389.323 15.9938 389.811 24.2288 389.811 31.1218Z" fill="currentColor"/>
<path d="M394.408 31.7928C394.408 22.2768 400.63 15.9938 409.78 15.9938C418.625 15.9938 424.481 21.8498 424.481 30.3898H402.033C402.216 39.7228 406.669 46.0668 413.379 46.0668C417.71 46.0668 421.675 43.3828 424.115 38.8078L424.664 39.5398C422.041 44.7248 416.856 47.7138 410.329 47.7138C400.813 47.7138 394.408 41.4308 394.408 31.7928ZM417.405 29.4748C417.161 21.9718 413.989 16.9088 409.658 16.9088C405.388 16.9088 402.338 21.9108 402.033 29.4748H417.405Z" fill="currentColor"/>
<path d="M454.271 17.2138L452.563 26.8518C451.953 21.5448 449.757 18.7388 446.28 18.7388C441.278 18.7388 436.886 24.6558 436.886 31.4268V41.6138C436.886 44.8468 437.923 46.4938 439.936 46.4938V47.1038C437.679 46.9818 436.093 46.8598 433.287 46.8598C430.42 46.8598 428.834 46.9818 426.516 47.1038V46.4938C428.529 46.4938 429.566 44.8468 429.566 41.6138V22.0938C429.566 18.8608 428.529 17.2138 426.516 17.2138V16.6038C427.858 16.6648 429.139 16.7258 430.359 16.7258C432.738 16.7258 435.117 16.6038 436.886 16.1768V26.6078C438.533 20.3248 443.291 15.9938 449.147 15.9938C451.099 15.9938 453.112 16.4818 454.271 17.2138Z" fill="currentColor"/>
<path d="M453.74 31.7928C453.74 22.2768 459.962 15.9938 469.112 15.9938C477.957 15.9938 483.813 21.8498 483.813 30.3898H461.365C461.548 39.7228 466.001 46.0668 472.711 46.0668C477.042 46.0668 481.007 43.3828 483.447 38.8078L483.996 39.5398C481.373 44.7248 476.188 47.7138 469.661 47.7138C460.145 47.7138 453.74 41.4308 453.74 31.7928ZM476.737 29.4748C476.493 21.9718 473.321 16.9088 468.99 16.9088C464.72 16.9088 461.67 21.9108 461.365 29.4748H476.737Z" fill="currentColor"/>
<path d="M510.858 47.5308V37.0998C509.211 43.3828 504.27 47.7138 498.109 47.7138C489.081 47.7138 488.593 39.4788 488.593 32.5858V22.0938C488.593 18.8608 487.556 17.2138 485.543 17.2138V16.6038C486.824 16.6648 488.105 16.7258 489.386 16.7258C491.826 16.7258 494.144 16.6038 495.913 16.1768V32.2808C495.913 36.9778 496.035 38.8688 496.584 40.6378C497.56 43.8708 499.451 45.7618 501.708 45.7618C506.161 45.7618 510.858 38.8078 510.858 32.2808V22.0938C510.858 18.8608 509.821 17.2138 507.808 17.2138V16.6038C509.089 16.6648 510.37 16.7258 511.651 16.7258C514.091 16.7258 516.409 16.6038 518.178 16.1768V41.6138C518.178 44.8468 519.215 46.4938 521.228 46.4938V47.1038C519.947 47.0428 518.666 46.9818 517.385 46.9818C514.945 46.9818 512.627 47.1038 510.858 47.5308Z" fill="currentColor"/>
<path d="M576.135 31.1218V41.5528C576.135 44.8468 577.172 46.4938 579.185 46.4938V47.1038C576.623 46.9818 575.037 46.8598 572.231 46.8598C569.486 46.8598 568.022 46.9818 565.765 47.1038V46.4938C567.778 46.4938 568.815 44.8468 568.815 41.6138V31.4268C568.815 24.8998 568.693 23.3138 568.083 21.6668C567.168 19.2878 565.643 17.9458 563.752 17.9458C559.543 17.9458 555.09 24.8388 555.09 31.4268V41.5528C555.09 44.8468 556.127 46.4938 558.14 46.4938V47.1038C555.578 46.9818 553.992 46.8598 551.186 46.8598C548.441 46.8598 546.977 46.9818 544.72 47.1038V46.4938C546.733 46.4938 547.77 44.8468 547.77 41.6138V31.4268C547.77 24.8998 547.648 23.3138 547.038 21.6668C546.123 19.2878 544.598 17.9458 542.707 17.9458C538.498 17.9458 534.045 24.8388 534.045 31.4268V41.5528C534.045 44.8468 535.082 46.4938 537.095 46.4938V47.1038C534.838 46.9818 533.069 46.8598 530.385 46.8598C527.457 46.8598 525.932 46.9818 523.675 47.1038V46.4938C525.688 46.4938 526.725 44.8468 526.725 41.5528V22.0938C526.725 18.8608 525.688 17.2748 523.675 17.2138V16.6038C525.017 16.6648 526.298 16.7258 527.579 16.7258C529.775 16.7258 532.337 16.6038 534.045 16.1768V26.4858C535.631 20.2638 540.206 15.9938 545.94 15.9938C549.905 15.9938 552.955 18.0068 554.236 21.3618C554.785 22.7648 554.968 24.4118 555.029 26.6688C556.615 20.3248 561.251 15.9938 566.985 15.9938C570.95 15.9938 574 18.0068 575.281 21.3618C576.135 23.6188 576.135 26.3638 576.135 31.1218Z" fill="currentColor"/>
</svg>
