<svg width="341" height="118" viewBox="0 0 341 118" fill="none" xmlns="http://www.w3.org/2000/svg">
<path d="M72.405 1.4037V38.6137C72.405 41.8467 73.442 43.4937 75.455 43.4937V44.1037C73.564 43.9817 71.978 43.8597 69.172 43.8597C66.427 43.8597 64.78 43.9817 62.035 44.1037V43.4937C64.048 43.4937 65.085 41.8467 65.085 38.6137V7.1987C65.085 5.0637 63.682 3.9657 60.815 3.9657V3.0507C66.61 3.0507 70.453 2.5017 72.405 1.4037Z" fill="currentColor"/>
<path d="M79.1388 22.7537C79.1388 9.8217 86.5198 0.793701 97.0728 0.793701C107.565 0.793701 114.824 9.8217 114.824 22.7537C114.824 35.6857 107.565 44.7137 97.0728 44.7137C86.5198 44.7137 79.1388 35.6857 79.1388 22.7537ZM86.7638 22.6317C86.7638 35.5637 90.7289 43.7987 96.9509 43.7987C103.234 43.7987 107.199 35.5027 107.199 22.4487C107.199 9.63871 103.356 1.7087 97.0118 1.7087C90.6678 1.7087 86.7638 9.7607 86.7638 22.6317Z" fill="currentColor"/>
<path d="M145.341 14.2137C144.182 14.2137 143.633 14.7627 143.633 15.9217C143.633 16.7147 143.877 17.7517 144.426 19.0937L150.953 34.7097L157.48 19.0937C157.724 18.5447 157.846 17.9957 157.846 17.5077C157.846 16.2267 156.992 15.1287 155.345 14.2137V13.6037C155.345 13.6037 156.809 13.8477 159.676 13.8477C161.445 13.8477 162.36 13.7257 163.946 13.6037V14.2137C161.14 15.4337 159.31 17.0807 158.456 19.0937L146.744 47.2147C144.548 52.4607 141.437 55.2667 136.74 56.3037L132.958 49.6547C141.437 49.6547 145.341 48.1907 146.988 44.2257L136.496 19.0937C135.154 15.8607 133.751 14.2137 132.226 14.2137V13.6037C134.91 13.7257 136.496 13.8477 139.18 13.8477C141.864 13.8477 143.45 13.7257 145.341 13.6037V14.2137Z" fill="currentColor"/>
<path d="M163.29 28.7927C163.29 19.2767 169.512 12.9937 178.662 12.9937C187.507 12.9937 193.363 18.8497 193.363 27.3897H170.915C171.098 36.7227 175.551 43.0667 182.261 43.0667C186.592 43.0667 190.557 40.3827 192.997 35.8077L193.546 36.5397C190.923 41.7247 185.738 44.7137 179.211 44.7137C169.695 44.7137 163.29 38.4307 163.29 28.7927ZM186.287 26.4747C186.043 18.9717 182.871 13.9087 178.54 13.9087C174.27 13.9087 171.22 18.9107 170.915 26.4747H186.287Z" fill="currentColor"/>
<path d="M195.094 36.4177C195.094 28.9147 204.305 29.2807 210.527 27.3897C214.37 26.2307 216.017 24.4617 216.017 21.5337C216.017 17.1417 213.699 13.9087 210.466 13.9087C207.05 13.9087 204.366 17.5077 202.963 23.8517L197.839 18.6667C200.828 15.2507 206.074 12.9937 211.808 12.9937C219.067 12.9937 223.337 16.5927 223.337 22.8147V40.5047C223.337 41.9077 223.764 42.3957 224.252 42.3957C224.496 42.3957 224.801 42.2737 225.045 42.0297L225.167 42.6397C223.947 44.1037 222.605 44.7137 220.592 44.7137C217.481 44.7137 216.017 43.1887 216.017 39.8947V37.6987C214.614 42.2127 211.015 44.7137 205.525 44.7137C199.242 44.7137 195.094 41.4197 195.094 36.4177ZM208.392 43.3717C212.723 43.3717 216.017 38.9187 216.017 33.1847V24.4617C215.224 26.1697 213.577 27.3897 211.015 28.2437C207.172 29.5247 202.719 30.3177 202.719 36.2957C202.719 40.5657 204.976 43.3717 208.392 43.3717Z" fill="currentColor"/>
<path d="M256.275 14.2137L254.567 23.8517C253.957 18.5447 251.761 15.7387 248.284 15.7387C243.282 15.7387 238.89 21.6557 238.89 28.4267V38.6137C238.89 41.8467 239.927 43.4937 241.94 43.4937V44.1037C239.683 43.9817 238.097 43.8597 235.291 43.8597C232.424 43.8597 230.838 43.9817 228.52 44.1037V43.4937C230.533 43.4937 231.57 41.8467 231.57 38.6137V19.0937C231.57 15.8607 230.533 14.2137 228.52 14.2137V13.6037C229.862 13.6647 231.143 13.7257 232.363 13.7257C234.742 13.7257 237.121 13.6037 238.89 13.1767V23.6077C240.537 17.3247 245.295 12.9937 251.151 12.9937C253.103 12.9937 255.116 13.4817 256.275 14.2137Z" fill="currentColor"/>
<path d="M278.635 22.6927C278.208 18.1787 275.158 14.0307 270.339 14.0307C267.228 14.0307 264.971 15.8607 264.971 18.4227C264.971 20.1307 266.008 21.5947 268.265 23.1197C271.193 25.0717 274.975 26.3527 278.33 28.8537C281.075 30.9277 282.173 32.8187 282.173 35.5027C282.173 41.1757 277.354 44.7137 269.79 44.7137C266.801 44.7137 263.812 44.1647 261.067 42.8837C260.274 42.5177 259.664 42.2737 259.237 42.2737C258.505 42.2737 258.261 42.8227 258.139 44.1037H257.468C257.59 41.6637 257.712 40.1387 257.712 37.7597C257.712 35.1977 257.59 33.7947 257.468 31.9037H258.078C259.664 39.4677 263.385 43.7987 268.265 43.7987C272.108 43.7987 275.158 41.1757 275.158 38.0647C275.158 36.1737 274.06 34.5267 271.681 32.9407C269.119 31.2937 265.337 29.8907 262.409 27.8167C259.237 25.6207 257.59 22.9977 257.651 20.2527C257.773 15.8607 262.104 12.9937 268.631 12.9937C270.766 12.9937 272.474 13.2987 274.853 14.0917C275.951 14.4577 276.744 14.7017 277.293 14.7017C278.147 14.7017 278.452 14.1527 278.574 12.9937H279.245C279.123 14.8847 279.001 16.1047 279.001 17.9957C279.001 20.0087 279.123 21.0457 279.245 22.6927H278.635Z" fill="currentColor"/>
<path d="M0.765625 101.854C0.765625 92.5208 7.53663 85.9938 17.2356 85.9938C26.9346 85.9938 33.7056 92.5208 33.7056 101.854C33.7056 111.187 26.9346 117.714 17.2356 117.714C7.53663 117.714 0.765625 111.187 0.765625 101.854ZM8.45163 101.854C8.45163 110.638 12.0506 116.799 17.2356 116.799C22.4206 116.799 26.0196 110.577 26.0196 101.732C26.0196 92.9478 22.4206 86.9088 17.2356 86.9088C12.0506 86.9088 8.45163 93.0088 8.45163 101.854Z" fill="currentColor"/>
<path d="M37.3094 87.4578V86.5428H39.2004C39.2004 78.9178 43.1654 73.7938 49.0214 73.7938C51.7664 73.7938 54.4504 74.9528 55.6094 76.5998L52.2544 83.1268C52.2544 77.7588 49.6314 74.5258 47.3744 74.5258C46.8864 74.5258 46.4594 74.6478 46.0934 74.8918C44.0804 76.0508 44.2024 79.6498 46.5204 86.6038H52.0104V87.5188H46.5204V111.614C46.5204 114.847 47.5574 116.494 49.5704 116.494V117.104C47.1304 116.982 45.4224 116.86 42.7384 116.86C39.8714 116.86 38.2854 116.982 36.1504 117.104V116.494C38.1634 116.494 39.2004 114.847 39.2004 111.614V87.4578H37.3094Z" fill="currentColor"/>
<path d="M69.9267 101.793C69.9267 92.2768 76.1488 85.9938 85.2988 85.9938C94.1438 85.9938 99.9998 91.8498 99.9998 100.39H77.5518C77.7348 109.723 82.1878 116.067 88.8978 116.067C93.2288 116.067 97.1938 113.383 99.6338 108.808L100.183 109.54C97.5598 114.725 92.3748 117.714 85.8478 117.714C76.3318 117.714 69.9267 111.431 69.9267 101.793ZM92.9238 99.4748C92.6797 91.9718 89.5078 86.9088 85.1768 86.9088C80.9068 86.9088 77.8568 91.9108 77.5518 99.4748H92.9238Z" fill="currentColor"/>
<path d="M100.815 87.5188V86.6038H103.865V81.7238C106.305 81.6628 108.867 81.4798 111.185 81.1138V86.6038H115.455V87.5188H111.185V111.126C111.185 114.359 111.795 115.762 113.32 115.762C114.418 115.762 115.638 114.969 116.553 113.566L116.675 114.176C115.333 116.372 112.832 117.714 110.026 117.714C106.244 117.714 103.865 115.335 103.865 111.614V87.5188H100.815Z" fill="currentColor"/>
<path d="M150.814 101.122V111.614C150.814 114.847 151.851 116.494 153.864 116.494V117.104C151.302 116.982 149.716 116.86 146.91 116.86C144.165 116.86 142.701 116.982 140.444 117.104V116.494C142.457 116.494 143.494 114.908 143.494 111.675V101.427C143.494 96.7298 143.372 94.8388 142.823 92.9478C141.847 89.8368 140.017 87.9458 137.699 87.9458C133.246 87.9458 128.549 94.8998 128.549 101.427V111.614C128.549 114.847 129.586 116.494 131.599 116.494V117.104C129.708 116.982 128.122 116.86 125.316 116.86C122.571 116.86 120.924 116.982 118.179 117.104V116.494C120.192 116.494 121.229 114.847 121.229 111.614V76.8438C121.229 73.6108 120.192 71.9638 118.179 71.9638V71.3538C119.46 71.4148 120.741 71.4758 122.022 71.4758C124.462 71.4758 126.78 71.3538 128.549 70.9268V96.6078C130.196 90.3248 135.137 85.9938 141.298 85.9938C150.326 85.9938 150.814 94.2288 150.814 101.122Z" fill="currentColor"/>
<path d="M155.41 101.793C155.41 92.2768 161.632 85.9938 170.782 85.9938C179.627 85.9938 185.483 91.8498 185.483 100.39H163.035C163.218 109.723 167.671 116.067 174.381 116.067C178.712 116.067 182.677 113.383 185.117 108.808L185.666 109.54C183.043 114.725 177.858 117.714 171.331 117.714C161.815 117.714 155.41 111.431 155.41 101.793ZM178.407 99.4748C178.163 91.9718 174.991 86.9088 170.66 86.9088C166.39 86.9088 163.34 91.9108 163.035 99.4748H178.407Z" fill="currentColor"/>
<path d="M215.274 87.2138L213.566 96.8518C212.956 91.5448 210.76 88.7388 207.283 88.7388C202.281 88.7388 197.889 94.6558 197.889 101.427V111.614C197.889 114.847 198.926 116.494 200.939 116.494V117.104C198.682 116.982 197.096 116.86 194.29 116.86C191.423 116.86 189.837 116.982 187.519 117.104V116.494C189.532 116.494 190.569 114.847 190.569 111.614V92.0938C190.569 88.8608 189.532 87.2138 187.519 87.2138V86.6038C188.861 86.6648 190.142 86.7258 191.362 86.7258C193.741 86.7258 196.12 86.6038 197.889 86.1768V96.6078C199.536 90.3248 204.294 85.9938 210.15 85.9938C212.102 85.9938 214.115 86.4818 215.274 87.2138Z" fill="currentColor"/>
<path d="M214.742 101.793C214.742 92.2768 220.964 85.9938 230.114 85.9938C238.959 85.9938 244.815 91.8498 244.815 100.39H222.367C222.55 109.723 227.003 116.067 233.713 116.067C238.044 116.067 242.009 113.383 244.449 108.808L244.998 109.54C242.375 114.725 237.19 117.714 230.663 117.714C221.147 117.714 214.742 111.431 214.742 101.793ZM237.739 99.4748C237.495 91.9718 234.323 86.9088 229.992 86.9088C225.722 86.9088 222.672 91.9108 222.367 99.4748H237.739Z" fill="currentColor"/>
<path d="M271.861 117.531V107.1C270.214 113.383 265.273 117.714 259.112 117.714C250.084 117.714 249.596 109.479 249.596 102.586V92.0938C249.596 88.8608 248.559 87.2138 246.546 87.2138V86.6038C247.827 86.6648 249.108 86.7258 250.389 86.7258C252.829 86.7258 255.147 86.6038 256.916 86.1768V102.281C256.916 106.978 257.038 108.869 257.587 110.638C258.563 113.871 260.454 115.762 262.711 115.762C267.164 115.762 271.861 108.808 271.861 102.281V92.0938C271.861 88.8608 270.824 87.2138 268.811 87.2138V86.6038C270.092 86.6648 271.373 86.7258 272.654 86.7258C275.094 86.7258 277.412 86.6038 279.181 86.1768V111.614C279.181 114.847 280.218 116.494 282.231 116.494V117.104C280.95 117.043 279.669 116.982 278.388 116.982C275.948 116.982 273.63 117.104 271.861 117.531Z" fill="currentColor"/>
<path d="M337.138 101.122V111.553C337.138 114.847 338.175 116.494 340.188 116.494V117.104C337.626 116.982 336.04 116.86 333.234 116.86C330.489 116.86 329.025 116.982 326.768 117.104V116.494C328.781 116.494 329.818 114.847 329.818 111.614V101.427C329.818 94.8998 329.696 93.3138 329.086 91.6668C328.171 89.2878 326.646 87.9458 324.755 87.9458C320.546 87.9458 316.093 94.8388 316.093 101.427V111.553C316.093 114.847 317.13 116.494 319.143 116.494V117.104C316.581 116.982 314.995 116.86 312.189 116.86C309.444 116.86 307.98 116.982 305.723 117.104V116.494C307.736 116.494 308.773 114.847 308.773 111.614V101.427C308.773 94.8998 308.651 93.3138 308.041 91.6668C307.126 89.2878 305.601 87.9458 303.71 87.9458C299.501 87.9458 295.048 94.8388 295.048 101.427V111.553C295.048 114.847 296.085 116.494 298.098 116.494V117.104C295.841 116.982 294.072 116.86 291.388 116.86C288.46 116.86 286.935 116.982 284.678 117.104V116.494C286.691 116.494 287.728 114.847 287.728 111.553V92.0938C287.728 88.8608 286.691 87.2748 284.678 87.2138V86.6038C286.02 86.6648 287.301 86.7258 288.582 86.7258C290.778 86.7258 293.34 86.6038 295.048 86.1768V96.4858C296.634 90.2638 301.209 85.9938 306.943 85.9938C310.908 85.9938 313.958 88.0068 315.239 91.3618C315.788 92.7648 315.971 94.4118 316.032 96.6688C317.618 90.3248 322.254 85.9938 327.988 85.9938C331.953 85.9938 335.003 88.0068 336.284 91.3618C337.138 93.6188 337.138 96.3638 337.138 101.122Z" fill="currentColor"/>
</svg>
