<svg width="214" height="171" viewBox="0 0 214 171" fill="none" xmlns="http://www.w3.org/2000/svg">
<path d="M67 101H147" stroke="black" stroke-width="10.67" stroke-linecap="round"/>
<path d="M106.5 141.5C106.5 141.5 87 126.5 87 101C87 75.5 106.5 60.5 106.5 60.5" stroke="black" stroke-width="10.67" stroke-linecap="round"/>
<path d="M107 141.5C107 141.5 126.5 126.5 126.5 101C126.5 75.5 107 60.5 107 60.5" stroke="black" stroke-width="10.67" stroke-linecap="round"/>
<circle cx="107" cy="102" r="41.665" stroke="black" stroke-width="10.67"/>
<path fill-rule="evenodd" clip-rule="evenodd" d="M203.329 7.16297e-06L10.6705 0H10.67C4.77712 0 7.00825e-06 4.77712 7.00825e-06 10.67L0 160.33L0 160.33C-2.57586e-07 166.223 4.77713 171 10.67 171H10.6705H203.329H203.33C209.223 171 214 166.223 214 160.33V160.33V10.6705V10.67C214 4.77713 209.223 7.42058e-06 203.33 7.16299e-06L203.329 7.16297e-06ZM203.329 40.67L10.671 40.67L10.671 160.329H203.329V40.67ZM31 21C31 24.3137 28.3137 27 25 27C21.6863 27 19 24.3137 19 21C19 17.6863 21.6863 15 25 15C28.3137 15 31 17.6863 31 21ZM44 27C47.3137 27 50 24.3137 50 21C50 17.6863 47.3137 15 44 15C40.6863 15 38 17.6863 38 21C38 24.3137 40.6863 27 44 27Z" fill="black"/>
</svg>
