<svg width="184" height="171" viewBox="0 0 184 171" fill="none" xmlns="http://www.w3.org/2000/svg">
<path d="M117.335 154C117.335 147.558 122.558 142.335 129 142.335C135.442 142.335 140.665 147.558 140.665 154C140.665 160.442 135.442 165.665 129 165.665C122.558 165.665 117.335 160.442 117.335 154Z" fill="black" stroke="black" stroke-width="10.67"/>
<path d="M48.335 154C48.335 147.558 53.5576 142.335 60 142.335C66.4424 142.335 71.665 147.558 71.665 154C71.665 160.442 66.4424 165.665 60 165.665C53.5576 165.665 48.335 160.442 48.335 154Z" fill="black" stroke="black" stroke-width="10.67"/>
<path d="M139 133H28.4195C27.8672 133 27.4195 132.552 27.4195 132V7C27.4195 6.44771 26.9718 6 26.4195 6H6" stroke="black" stroke-width="10.67" stroke-linecap="round"/>
<path d="M48 37.67C48 31.7771 52.7771 27 58.67 27H167.23C174.781 27 179.943 34.6291 177.134 41.6386L151.626 105.299C150.004 109.346 146.083 112 141.722 112H58.67C52.7771 112 48 107.223 48 101.33V37.67Z" stroke="black" stroke-width="10.671"/>
<path fill-rule="evenodd" clip-rule="evenodd" d="M109.704 40.9683C107.069 38.8242 103.29 38.8242 100.654 40.9683C99.0693 42.2577 97.0094 42.8096 94.992 42.4855C91.6375 41.9465 88.3652 43.8358 87.1547 47.0104C86.4267 48.9196 84.9187 50.4275 83.0095 51.1555C79.8349 52.366 77.9457 55.6383 78.4846 58.9928C78.8088 61.0103 78.2568 63.0702 76.9674 64.6552C74.8234 67.2908 74.8234 71.0694 76.9674 73.705C78.2568 75.2901 78.8088 77.3499 78.4846 79.3674C77.9457 82.7219 79.8349 85.9942 83.0095 87.2047C84.9187 87.9327 86.4267 89.4406 87.1547 91.3498C88.3652 94.5244 91.6375 96.4137 94.992 95.8747C97.0094 95.5506 99.0693 96.1025 100.654 97.392C103.29 99.536 107.069 99.536 109.704 97.392C111.289 96.1025 113.349 95.5506 115.367 95.8747C118.721 96.4137 121.993 94.5244 123.204 91.3498C123.932 89.4406 125.44 87.9327 127.349 87.2047C130.524 85.9942 132.413 82.7219 131.874 79.3674C131.55 77.3499 132.102 75.2901 133.391 73.705C135.535 71.0694 135.535 67.2908 133.391 64.6552C132.102 63.0702 131.55 61.0103 131.874 58.9928C132.413 55.6383 130.524 52.366 127.349 51.1555C125.44 50.4275 123.932 48.9196 123.204 47.0104C121.993 43.8358 118.721 41.9465 115.367 42.4855C113.349 42.8096 111.289 42.2577 109.704 40.9683ZM104.751 51.1252C105.146 50.5321 106.018 50.5321 106.414 51.1252L116.126 65.6749C116.443 66.1507 116.298 66.7954 115.807 67.0886L106.095 72.8874C105.779 73.076 105.385 73.076 105.07 72.8874L95.3578 67.0886C94.8667 66.7954 94.7212 66.1507 95.0388 65.6749L104.751 51.1252ZM105.023 86.8073C105.421 87.3807 106.269 87.3807 106.667 86.8073L114.499 75.5143C115.117 74.6232 114.073 73.5234 113.151 74.094L106.371 78.2885C106.049 78.488 105.641 78.488 105.319 78.2885L98.5388 74.094C97.6167 73.5234 96.573 74.6232 97.191 75.5143L105.023 86.8073Z" fill="black"/>
</svg>
