<svg width="256" height="256" viewBox="0 0 256 256" fill="none" xmlns="http://www.w3.org/2000/svg">
<path fill-rule="evenodd" clip-rule="evenodd" d="M104.665 45C104.665 32.1125 115.112 21.665 128 21.665C140.888 21.665 151.335 32.1125 151.335 45C151.335 45.9747 151.275 46.9353 151.159 47.8786L193.064 72.0722C197.344 66.9347 203.79 63.665 211 63.665C223.888 63.665 234.335 74.1125 234.335 87C234.335 99.8876 223.888 110.335 211 110.335C202.543 110.335 195.136 105.836 191.043 99.1001C191.076 99.1539 191.109 99.2075 191.142 99.261L151.059 122.403C151.241 123.575 151.335 124.777 151.335 126C151.335 137.357 143.222 146.819 132.476 148.906V171.571L151.509 152.537C153.593 150.454 156.97 150.454 159.054 152.537C161.137 154.621 161.137 157.999 159.054 160.082L130.955 188.181C130.813 188.326 130.662 188.464 130.503 188.593C129.739 189.215 128.842 189.594 127.916 189.729C127.524 189.787 127.129 189.8 126.738 189.77C125.51 189.678 124.308 189.162 123.368 188.223L123.342 188.197L95.2276 160.082C93.1442 157.999 93.1442 154.621 95.2276 152.537C97.3111 150.454 100.689 150.454 102.772 152.537L121.806 171.571V148.504C111.925 145.79 104.665 136.743 104.665 126C104.665 113.112 115.112 102.665 128 102.665C136.341 102.665 143.66 107.041 147.786 113.623L187.918 90.4521C187.934 90.5546 187.95 90.657 187.966 90.7591C187.768 89.5354 187.665 88.2797 187.665 87C187.665 84.6366 188.016 82.3552 188.67 80.2052L148.135 56.8023C144.081 63.7028 136.582 68.335 128 68.335C115.112 68.335 104.665 57.8876 104.665 45ZM128 32.335C121.005 32.335 115.335 38.0054 115.335 45C115.335 51.9947 121.005 57.665 128 57.665C134.995 57.665 140.665 51.9947 140.665 45C140.665 38.0054 134.995 32.335 128 32.335ZM63.1485 72.3306L104.887 48.2329C105.331 51.4378 106.426 54.4347 108.034 57.0857L67.4266 80.5307C68.0181 82.5849 68.335 84.7555 68.335 87C68.335 88.0509 68.2656 89.0856 68.131 90.0996L108.392 113.344C106.714 115.939 105.536 118.888 104.997 122.054L65.0297 98.9791C60.9525 105.782 53.508 110.335 45 110.335C32.1125 110.335 21.665 99.8876 21.665 87C21.665 74.1125 32.1125 63.665 45 63.665C52.33 63.665 58.8705 67.0446 63.1485 72.3306ZM32.335 87C32.335 80.0054 38.0054 74.335 45 74.335C51.9947 74.335 57.665 80.0054 57.665 87C57.665 93.9947 51.9947 99.665 45 99.665C38.0054 99.665 32.335 93.9947 32.335 87ZM115.335 126C115.335 119.005 121.005 113.335 128 113.335C134.995 113.335 140.665 119.005 140.665 126C140.665 132.995 134.995 138.665 128 138.665C121.005 138.665 115.335 132.995 115.335 126ZM211 74.335C204.005 74.335 198.335 80.0054 198.335 87C198.335 93.9947 204.005 99.665 211 99.665C217.995 99.665 223.665 93.9947 223.665 87C223.665 80.0054 217.995 74.335 211 74.335ZM32 203H224C224 216.255 213.255 227 200 227H56C42.7452 227 32 216.255 32 203Z" fill="black"/>
</svg>
