<svg width="24" height="24" viewBox="0 0 171 151" fill="none" xmlns="http://www.w3.org/2000/svg">
<mask id="path-1-inside-1_1506_32658" fill="white">
<path d="M0 10.67C0 4.77712 4.77712 0 10.67 0H160.33C166.223 0 171 4.77712 171 10.67V119.33C171 125.223 166.223 130 160.33 130H10.67C4.77712 130 0 125.223 0 119.33V10.67Z"/>
</mask>
<path d="M-10.671 10.67C-10.671 -1.11631 -1.11631 -10.671 10.67 -10.671H160.33C172.116 -10.671 181.671 -1.11631 181.671 10.67L160.329 10.671H10.671L-10.671 10.67ZM181.671 138.999C181.671 150.785 172.116 160.34 160.33 160.34H10.67C-1.11631 160.34 -10.671 150.785 -10.671 138.999L10.671 99.66H160.329L181.671 138.999ZM10.67 160.34C-1.11631 160.34 -10.671 150.785 -10.671 138.999V10.67C-10.671 -1.11631 -1.11631 -10.671 10.67 -10.671L10.671 10.671V99.66L10.67 160.34ZM160.33 -10.671C172.116 -10.671 181.671 -1.11631 181.671 10.67V138.999C181.671 150.785 172.116 160.34 160.33 160.34L160.329 99.66V10.671L160.33 -10.671Z" fill="black" mask="url(#path-1-inside-1_1506_32658)"/>
<path d="M121.5 145H48" stroke="black" stroke-width="10.67" stroke-linecap="round"/>
</svg>
