<svg width="256" height="256" viewBox="0 0 256 256" fill="none" xmlns="http://www.w3.org/2000/svg">
<path fill-rule="evenodd" clip-rule="evenodd" d="M104.892 38.1831C101.393 38.1831 98.5566 41.0194 98.5566 44.5181V76.7202C98.5566 80.2189 101.393 83.0552 104.892 83.0552H151.275C154.774 83.0552 157.61 80.2189 157.61 76.7202V44.5181C157.61 41.0194 154.774 38.1831 151.275 38.1831H104.892ZM109.227 72.3852V48.8531H146.94V72.3852H109.227Z" fill="black"/>
<path d="M202 191V198H181V191H202Z" fill="black"/>
<path fill-rule="evenodd" clip-rule="evenodd" d="M87.3731 20.665C83.8744 20.665 81.0381 23.5013 81.0381 27V154.136H77.3633C73.8646 154.136 71.0283 156.973 71.0283 160.471V170H43C36.9249 170 32 174.925 32 181V223C32 229.075 36.9249 234 43 234H213C219.075 234 224 229.075 224 223V181C224 174.925 219.075 170 213 170H185.973V160.471C185.973 156.973 183.137 154.136 179.638 154.136H175.962V142.948C176.664 143.131 177.415 143.172 178.177 143.045L178.35 143.016C181.691 142.46 188.669 141.299 194.691 137.118C201.256 132.559 206.156 124.814 205.57 112.503C204.669 93.6002 197.018 81.9325 191.484 74.1202L195.692 71.3146C197.014 70.4337 197.874 69.01 198.039 67.4305C198.204 65.8511 197.657 64.2801 196.547 63.1449L177.777 43.9584C177.245 43.4145 176.625 43.0085 175.962 42.7411V27C175.962 23.5013 173.126 20.665 169.627 20.665H87.3731ZM165.292 154.137H91.7081V31.335H165.292V154.137ZM175.962 57.361V132.618C176.113 132.579 176.267 132.546 176.423 132.52C179.828 131.952 184.682 131.078 188.606 128.353C192.093 125.932 195.326 121.721 194.912 113.01C194.118 96.3354 187.421 86.874 181.951 79.145C181.112 77.9599 180.302 76.8154 179.547 75.692C178.755 74.5148 178.465 73.0708 178.741 71.6792C179.016 70.2876 179.834 69.063 181.015 68.276L184.419 66.0063L175.962 57.361ZM83 212V219H48V212H62V191H48V184H69V212H83ZM118 212V219H90V212H118ZM125 212H118V205H90V184H125V191H97V198H125V212ZM160 219V212H167V198H139V191H167V184H132V205H160V212H132V219H160ZM174 219V212H202V205H174V184H209V219H174Z" fill="black"/>
</svg>
