<svg width="256" height="256" viewBox="0 0 256 256" fill="none" xmlns="http://www.w3.org/2000/svg">
<path d="M104.25 124.75V118.375H85.125V124.75H104.25Z" fill="black"/>
<path fill-rule="evenodd" clip-rule="evenodd" d="M21.0167 129.909C22.0352 188.123 69.5432 235 128 235C187.095 235 235 187.094 235 128C235 68.9055 187.095 21 128 21C69.5432 21 22.0352 67.8773 21.0167 126.091C20.7895 126.684 20.665 127.327 20.665 128C20.665 128.673 20.7895 129.316 21.0167 129.909ZM115.734 223.556C111.434 218.922 105.809 212.187 100.188 203.512C96.907 198.448 93.6203 192.711 90.5988 186.335H51.3353C66.5949 206.359 89.5207 220.225 115.734 223.556ZM44.27 175.665H86.0582C84.1958 170.742 82.5329 165.517 81.1619 160H53C46.9248 160 42 155.075 42 149V133.335H31.8153C32.6527 148.676 37.0794 163.061 44.27 175.665ZM42 122.665V107C42 100.925 46.9248 96 53 96H80.6808C81.9618 90.4929 83.5373 85.2675 85.3187 80.335H44.27C37.0794 92.9392 32.6527 107.324 31.8153 122.665H42ZM91.6615 96H163.202C161.797 90.4567 160.073 85.2305 158.139 80.335H96.724C94.7904 85.2305 93.0663 90.4567 91.6615 96ZM174.183 96H202C208.075 96 213 100.925 213 107V122.665H224.185C223.347 107.324 218.921 92.9392 211.73 80.335H169.545C171.326 85.2675 172.902 90.4929 174.183 96ZM213 133.335V149C213 155.075 208.075 160 202 160H173.701C172.331 165.517 170.668 170.742 168.805 175.665H211.73C218.921 163.061 223.347 148.676 224.185 133.335H213ZM162.678 160H92.1857C93.6905 165.556 95.5113 170.782 97.533 175.665H157.33C159.352 170.782 161.173 165.556 162.678 160ZM51.3353 69.665H89.6695C92.94 62.4842 96.5674 56.0765 100.188 50.488C104.945 43.1468 109.704 37.1953 113.662 32.7299C88.3134 36.5125 66.1913 50.1708 51.3353 69.665ZM204.665 186.335C189.157 206.684 165.733 220.674 138.986 223.71C143.304 219.071 148.992 212.284 154.675 203.512C157.956 198.448 161.243 192.711 164.265 186.335H204.665ZM204.665 69.665H165.194C161.923 62.4842 158.296 56.0765 154.675 50.488C149.853 43.0449 145.027 37.0303 141.037 32.5448C166.929 36.0479 189.555 49.838 204.665 69.665ZM131.039 216.588C129.65 218.074 128.429 219.306 127.432 220.275C126.435 219.306 125.213 218.074 123.825 216.588C119.837 212.318 114.492 205.967 109.143 197.71C106.897 194.244 104.654 190.448 102.512 186.335H152.351C150.209 190.448 147.966 194.244 145.72 197.71C140.371 205.967 135.026 212.318 131.039 216.588ZM153.372 69.665C150.927 64.7755 148.326 60.3109 145.72 56.2898C140.371 48.0334 135.026 41.6818 131.039 37.4124C129.65 35.9258 128.428 34.6941 127.432 33.725C126.435 34.6941 125.213 35.9258 123.825 37.4124C119.837 41.6818 114.492 48.0334 109.143 56.2898C106.538 60.3109 103.936 64.7755 101.491 69.665H153.372ZM110.625 137.5V143.875H78.75V112H110.625V131.125H85.125V137.5H110.625ZM66 143.875V137.5H72.375V143.875H66ZM117 118.375H129.75V143.875H136.125V118.375H148.875V112H117V118.375ZM180.75 131.125H161.625V143.875H155.25V112H161.625V124.75H180.75V112H187.125V143.875H180.75V131.125Z" fill="black"/>
</svg>
