<svg width="242" height="229" viewBox="0 0 242 229" fill="none" xmlns="http://www.w3.org/2000/svg">
<mask id="mask0_1218_22496" style="mask-type:alpha" maskUnits="userSpaceOnUse" x="0" y="0" width="242" height="229">
<path fill-rule="evenodd" clip-rule="evenodd" d="M242 229H0V0H242V229ZM204 85H33V149H204V85Z" fill="white"/>
</mask>
<g mask="url(#mask0_1218_22496)">
<path d="M17 117H220.5" stroke="black" stroke-width="10.67" stroke-linecap="round"/>
<path d="M34 170H204" stroke="black" stroke-width="10.67" stroke-linecap="round"/>
<path d="M34 64H204" stroke="black" stroke-width="10.67" stroke-linecap="round"/>
<path d="M117.862 216C117.862 216 73.4688 178.963 73.4688 116C73.4688 53.037 117.862 16 117.862 16" stroke="black" stroke-width="10.67" stroke-linecap="round"/>
<path d="M119.001 216C119.001 216 163.395 178.963 163.395 116C163.395 53.037 119.001 16 119.001 16" stroke="black" stroke-width="10.67" stroke-linecap="round"/>
<circle cx="119" cy="117" r="101.665" stroke="black" stroke-width="10.67"/>
</g>
<path fill-rule="evenodd" clip-rule="evenodd" d="M45 85C38.9249 85 34 89.9249 34 96V138C34 144.075 38.9249 149 45 149H194C200.075 149 205 144.075 205 138V96C205 89.9249 200.075 85 194 85H45ZM101.333 98.6667C101.333 98.1144 101.781 97.6667 102.333 97.6667H108.333C108.555 97.6667 108.759 97.7388 108.925 97.8607C109.108 97.9953 109.296 98.1364 109.475 98.2758C109.531 98.3195 109.583 98.37 109.631 98.4271L128.897 121.645C129.495 122.366 130.666 121.943 130.666 121.006V98.6667C130.666 98.1144 131.114 97.6667 131.666 97.6667H137.666C138.219 97.6667 138.666 98.1144 138.666 98.6667V135.333C138.666 135.886 138.219 136.333 137.666 136.333H131.666C131.45 136.333 131.25 136.265 131.087 136.148C130.904 136.018 130.716 135.881 130.536 135.746C130.478 135.702 130.423 135.65 130.373 135.592L111.097 112.775C110.495 112.063 109.333 112.488 109.333 113.42V135.333C109.333 135.886 108.885 136.333 108.333 136.333H102.333C101.781 136.333 101.333 135.886 101.333 135.333V98.6667ZM92.9804 128.4C93.3486 128.4 93.6471 128.693 93.6471 129.055V135.345C93.6471 135.707 93.3486 136 92.9804 136H56.6667C56.2985 136 56 135.707 56 135.345V98.6552C56 98.2933 56.2985 98 56.6667 98H92.9804C93.3486 98 93.6471 98.2933 93.6471 98.6552V104.945C93.6471 105.307 93.3486 105.6 92.9804 105.6H64.1961C63.8279 105.6 63.5294 105.893 63.5294 106.255V112.545C63.5294 112.907 63.8279 113.2 64.1961 113.2H77.9216C78.2898 113.2 78.5882 113.493 78.5882 113.855V120.145C78.5882 120.507 78.2898 120.8 77.9216 120.8H64.1961C63.8279 120.8 63.5294 121.093 63.5294 121.455V127.745C63.5294 128.107 63.8279 128.4 64.1961 128.4H92.9804ZM147.02 136C146.651 136 146.353 135.707 146.353 135.345V129.055C146.353 128.693 146.651 128.4 147.02 128.4H175.804C176.172 128.4 176.471 128.107 176.471 127.745V121.455C176.471 121.093 176.172 120.8 175.804 120.8H147.02C146.651 120.8 146.353 120.507 146.353 120.145V98.6552C146.353 98.2933 146.651 98 147.02 98H183.333C183.702 98 184 98.2933 184 98.6552V104.945C184 105.307 183.702 105.6 183.333 105.6H154.549C154.181 105.6 153.882 105.893 153.882 106.255V112.545C153.882 112.907 154.181 113.2 154.549 113.2H183.333C183.702 113.2 184 113.493 184 113.855V135.345C184 135.707 183.702 136 183.333 136H147.02Z" fill="black"/>
</svg>
