<svg width="192" height="195" viewBox="0 0 192 195" fill="none" xmlns="http://www.w3.org/2000/svg">
<path d="M88.4274 8.16019C92.8382 4.57205 99.1618 4.57205 103.573 8.16019L108.11 11.8515C110.763 14.0094 114.21 14.9331 117.586 14.3906L123.362 13.4627C128.976 12.5607 134.452 15.7225 136.478 21.0353L138.562 26.5009C139.78 29.696 142.304 32.2196 145.499 33.438L150.965 35.522C156.278 37.5478 159.439 43.0242 158.537 48.6382L157.609 54.4135C157.067 57.7898 157.991 61.2371 160.149 63.8898L163.84 68.4274C167.428 72.8382 167.428 79.1618 163.84 83.5726L160.149 88.1102C157.991 90.7629 157.067 94.2102 157.609 97.5865L158.537 103.362C159.439 108.976 156.278 114.452 150.965 116.478L145.499 118.562C142.304 119.78 139.78 122.304 138.562 125.499L136.478 130.965C134.452 136.278 128.976 139.439 123.362 138.537L117.586 137.609C114.21 137.067 110.763 137.991 108.11 140.149L103.573 143.84C99.1618 147.428 92.8382 147.428 88.4274 143.84L83.8898 140.149C81.2371 137.991 77.7898 137.067 74.4135 137.609L68.6382 138.537C63.0242 139.439 57.5478 136.278 55.522 130.965L53.438 125.499C52.2196 122.304 49.696 119.78 46.5009 118.562L41.0353 116.478C35.7225 114.452 32.5607 108.976 33.4627 103.362L34.3906 97.5865C34.9331 94.2102 34.0094 90.7629 31.8515 88.1102L28.1602 83.5726C24.572 79.1618 24.572 72.8382 28.1602 68.4274L31.8515 63.8898C34.0094 61.2371 34.9331 57.7898 34.3906 54.4135L33.4627 48.6382C32.5607 43.0242 35.7225 37.5478 41.0353 35.522L46.5009 33.438C49.696 32.2196 52.2196 29.696 53.438 26.5009L55.522 21.0353C57.5478 15.7225 63.0242 12.5607 68.6382 13.4627L74.4135 14.3906C77.7898 14.9331 81.2371 14.0094 83.8898 11.8515L88.4274 8.16019Z" stroke="black" stroke-width="10.67"/>
<path d="M96.0002 42.6479V103.099L67.8594 74.9577" stroke="black" stroke-width="10.67" stroke-linecap="round" stroke-linejoin="round"/>
<path d="M96 103.099L124.141 74.9577" stroke="black" stroke-width="10.67" stroke-linecap="round"/>
<path d="M0 171H192C192 184.255 181.255 195 168 195H24C10.7452 195 0 184.255 0 171Z" fill="black"/>
</svg>
