<svg width="256" height="256" viewBox="0 0 256 256" fill="none" xmlns="http://www.w3.org/2000/svg">
<path d="M133.335 74.6479C133.335 71.7014 130.947 69.3129 128 69.3129C125.054 69.3129 122.665 71.7014 122.665 74.6479V122.219L103.632 103.185C101.548 101.102 98.1704 101.102 96.087 103.185C94.0036 105.269 94.0036 108.647 96.087 110.73L124.201 138.845L124.228 138.871C125.167 139.81 126.369 140.326 127.598 140.418C127.989 140.448 128.385 140.435 128.777 140.377C129.703 140.241 130.599 139.863 131.363 139.24C131.522 139.112 131.672 138.974 131.814 138.829L159.913 110.73C161.997 108.647 161.997 105.269 159.913 103.185C157.83 101.102 154.452 101.102 152.368 103.185L133.335 122.218V74.6479Z" fill="black"/>
<path fill-rule="evenodd" clip-rule="evenodd" d="M117.06 36.0216C123.432 30.8382 132.567 30.8382 138.939 36.0216L143.477 39.7128C144.95 40.9114 146.865 41.4244 148.74 41.1231L154.515 40.1952C162.625 38.8922 170.536 43.4596 173.463 51.1345L175.547 56.6C176.223 58.3747 177.625 59.7763 179.4 60.453L184.865 62.5371C192.54 65.4635 197.107 73.3746 195.804 81.4844L194.877 87.2598C194.575 89.135 195.088 91.0497 196.287 92.5231L199.978 97.0607C205.161 103.433 205.161 112.567 199.978 118.939L196.287 123.477C195.088 124.95 194.575 126.865 194.877 128.74L195.804 134.515C197.107 142.625 192.54 150.536 184.865 153.463L179.4 155.547C177.625 156.224 176.223 157.625 175.547 159.4L173.463 164.865C170.536 172.54 162.625 177.108 154.515 175.805L148.74 174.877C146.865 174.575 144.95 175.089 143.477 176.287L138.939 179.978C132.567 185.162 123.432 185.162 117.06 179.978L112.523 176.287C111.049 175.089 109.135 174.575 107.26 174.877L101.484 175.805C93.3743 177.108 85.4633 172.54 82.5368 164.865L80.4528 159.4C79.7761 157.625 78.3744 156.224 76.5998 155.547L71.1342 153.463C63.4594 150.536 58.8919 142.625 60.195 134.515L61.1229 128.74C61.4242 126.865 60.9111 124.95 59.7126 123.477L56.0213 118.939C50.8379 112.567 50.8379 103.433 56.0213 97.0607L59.7126 92.5231C60.9111 91.0497 61.4242 89.135 61.1229 87.2598L60.195 81.4844C58.8919 73.3746 63.4594 65.4635 71.1342 62.5371L76.5998 60.453C78.3744 59.7763 79.7761 58.3747 80.4528 56.6L82.5368 51.1345C85.4633 43.4596 93.3743 38.8922 101.484 40.1952L107.26 41.1231C109.135 41.4244 111.049 40.9114 112.523 39.7128L117.06 36.0216ZM132.206 44.2987C129.756 42.3058 126.244 42.3058 123.794 44.2987L119.256 47.99C115.424 51.1073 110.444 52.4417 105.567 51.658L99.7916 50.7301C96.6735 50.2291 93.6318 51.9852 92.5066 54.936L90.4226 60.4016C88.6626 65.0173 85.017 68.6628 80.4014 70.4228L74.9358 72.5069C71.985 73.632 70.2289 76.6737 70.7298 79.7918L71.6578 85.5671C72.4414 90.4444 71.107 95.4243 67.9897 99.2564L64.2985 103.794C62.3056 106.244 62.3056 109.756 64.2985 112.206L67.9897 116.744C71.107 120.576 72.4414 125.555 71.6578 130.433L70.7298 136.208C70.2289 139.326 71.985 142.368 74.9358 143.493L80.4014 145.577C85.017 147.337 88.6626 150.983 90.4226 155.598L92.5066 161.064C93.6318 164.015 96.6735 165.771 99.7916 165.27L105.567 164.342C110.444 163.558 115.424 164.893 119.256 168.01L123.794 171.701C126.244 173.694 129.756 173.694 132.206 171.701L136.743 168.01C140.575 164.893 145.555 163.558 150.433 164.342L156.208 165.27C159.326 165.771 162.368 164.015 163.493 161.064L165.577 155.598C167.337 150.983 170.982 147.337 175.598 145.577L181.064 143.493C184.014 142.368 185.771 139.326 185.27 136.208L184.342 130.433C183.558 125.555 184.892 120.576 188.01 116.744L191.701 112.206C193.694 109.756 193.694 106.244 191.701 103.794L188.01 99.2564C184.892 95.4243 183.558 90.4444 184.342 85.5671L185.27 79.7918C185.771 76.6737 184.014 73.632 181.064 72.5069L175.598 70.4228C170.982 68.6628 167.337 65.0173 165.577 60.4016L163.493 54.936C162.368 51.9852 159.326 50.2291 156.208 50.7301L150.433 51.658C145.555 52.4417 140.575 51.1073 136.743 47.99L132.206 44.2987Z" fill="black"/>
<path d="M224 203H32C32 216.255 42.7452 227 56 227H200C213.255 227 224 216.255 224 203Z" fill="black"/>
</svg>
