<svg xmlns="http://www.w3.org/2000/svg" xmlns:xlink="http://www.w3.org/1999/xlink" x="0px" y="0px" viewBox="0 0 153.4 152.9">
  <path fill="rgb(235, 237, 252)" d="M145.1,75.6v-58c0-5.1-4.2-9.3-9.3-9.3h0H77.7c-0.6,0-1.1-0.2-1.6-0.6l-7-7c-0.4-0.4-1-0.7-1.6-0.7H9.3 C4.2,0,0,4.1,0,9.3c0,0,0,0,0,0l0,0v58c0,0.6,0.2,1.1,0.6,1.6l7,7c0.4,0.4,0.7,1,0.7,1.6v58c0,5.1,4.2,9.3,9.3,9.3c0,0,0,0,0,0h58.2 c0.6,0,1.1,0.2,1.6,0.6l7,7c0.4,0.4,1,0.6,1.6,0.6h58.2c5.1,0,9.3-4.1,9.3-9.3c0,0,0,0,0,0l0,0v-58c0-0.6-0.2-1.1-0.6-1.6l-7-7 C145.4,76.7,145.1,76.2,145.1,75.6z M105.6,106.6H47.9c-0.7,0-1.3-0.6-1.3-1.3V47.7c0-0.7,0.6-1.3,1.3-1.3h57.7 c0.7,0,1.3,0.6,1.3,1.3v57.6C107,106,106.4,106.6,105.6,106.6z" />
</svg>