<svg width="192" height="230" viewBox="0 0 192 230" fill="none" xmlns="http://www.w3.org/2000/svg">
<mask id="mask0_1505_31971" style="mask-type:alpha" maskUnits="userSpaceOnUse" x="12" y="87" width="135" height="133">
<path d="M129.66 169.566C139.349 167.484 145.411 179.708 137.89 186.16L110.983 209.242C102.88 216.194 90.5964 214.891 84.1315 206.394L21.0003 123.421L79.9659 94.2238L108.555 145.096L119.257 164.787C121.281 168.51 125.517 170.456 129.66 169.566V169.566Z" fill="#D9D9D9" stroke="black" stroke-width="10.67"/>
</mask>
<g mask="url(#mask0_1505_31971)">
<path d="M132.141 167.735C142.405 167.735 150.725 159.415 150.725 149.151V149.151C150.725 138.888 142.405 130.568 132.142 130.568L59.2386 130.568L59.2386 167.735L132.141 167.735Z" fill="black" stroke="black" stroke-width="10.67"/>
</g>
<path d="M117.132 158.073C122.264 166.961 133.629 170.006 142.517 164.875V164.875C151.405 159.743 154.451 148.378 149.319 139.49L113.368 77.2202C113.092 76.7419 112.48 76.578 112.002 76.8541L81.5469 94.4372C81.0686 94.7134 80.9047 95.3249 81.1808 95.8032L117.132 158.073Z" stroke="black" stroke-width="10.67"/>
<path d="M59.2383 160.586H40.9405C40.3882 160.586 39.9405 160.138 39.9405 159.586L39.9405 138C39.9405 137.447 40.3882 137 40.9405 137H59.2383" stroke="black" stroke-width="10.67"/>
<path d="M96.0002 6V66.4507L67.8594 38.3099" stroke="black" stroke-width="10.67" stroke-linecap="round" stroke-linejoin="round"/>
<path d="M96 66.4507L124.141 38.3099" stroke="black" stroke-width="10.67" stroke-linecap="round"/>
<path d="M0 182H192V182C192 195.255 181.255 206 168 206H24C10.7452 206 0 195.255 0 182V182Z" fill="black"/>
</svg>
