<svg width="224" height="216" viewBox="0 0 224 216" fill="none" xmlns="http://www.w3.org/2000/svg">
<mask id="mask0_1194_23435" style="mask-type:alpha" maskUnits="userSpaceOnUse" x="17" y="-9" width="180" height="183">
<path d="M84.4055 152.029C87.3184 165.584 70.2154 174.065 61.188 163.542L28.8932 125.897C19.167 114.559 20.9898 97.3734 32.8777 88.3283L148.967 -2.28882e-05L189.818 82.5L118.642 122.5L91.0919 137.474C85.8817 140.306 83.1595 146.231 84.4055 152.029Z" fill="#D9D9D9" stroke="black" stroke-width="10.67"/>
</mask>
<g mask="url(#mask0_1194_23435)">
<path d="M86.9668 155.5C86.9668 169.859 98.6074 181.5 112.967 181.5C127.326 181.5 138.967 169.859 138.967 155.5L138.967 53.5L86.9668 53.5L86.9668 155.5Z" fill="black" stroke="black" stroke-width="10.67"/>
</g>
<path d="M100.483 134.5C88.0478 141.68 83.7871 157.581 90.9668 170.017V170.017C98.1465 182.452 114.048 186.713 126.483 179.533L213.952 129.033C214.43 128.757 214.594 128.146 214.318 127.667L189.318 84.366C189.042 83.8877 188.43 83.7239 187.952 84L100.483 134.5Z" stroke="black" stroke-width="10.67"/>
<path d="M96.9668 53.5L96.9668 27.5C96.9668 26.9477 97.4145 26.5 97.9668 26.5L128.967 26.5C129.519 26.5 129.967 26.9477 129.967 27.5V53.5" stroke="black" stroke-width="10.67"/>
</svg>
