<svg width="256" height="256" viewBox="0 0 256 256" fill="none" xmlns="http://www.w3.org/2000/svg">
<path d="M99.0003 21.6648C100.415 21.6648 101.772 22.2269 102.773 23.2274L130.913 51.3682C132.997 53.4517 132.997 56.8296 130.913 58.9131C128.83 60.9965 125.452 60.9965 123.368 58.913L104.335 39.8797V87.4505C104.335 90.3969 101.947 92.7855 99.0003 92.7855C96.0538 92.7855 93.6653 90.3969 93.6653 87.4505V39.8796L74.6318 58.9131C72.5484 60.9965 69.1704 60.9965 67.087 58.9131C65.0036 56.8296 65.0036 53.4517 67.087 51.3682L95.2278 23.2274C96.2283 22.2269 97.5853 21.6648 99.0003 21.6648Z" fill="black"/>
<path d="M169 27.6649C171.947 27.6649 174.335 30.0535 174.335 32.9999V80.5707L193.368 61.5374C195.452 59.4539 198.83 59.4539 200.913 61.5374C202.997 63.6208 202.997 66.9987 200.913 69.0822L172.773 97.223C171.772 98.2235 170.415 98.7856 169 98.7856C167.585 98.7856 166.228 98.2236 165.228 97.223L137.087 69.0822C135.004 66.9988 135.004 63.6208 137.087 61.5374C139.17 59.4539 142.548 59.4539 144.632 61.5374L163.665 80.5708V32.9999C163.665 30.0535 166.054 27.6649 169 27.6649Z" fill="black"/>
<path d="M32 203H224C224 216.255 213.255 227 200 227H56C42.7452 227 32 216.255 32 203Z" fill="black"/>
<path fill-rule="evenodd" clip-rule="evenodd" d="M70.6984 185.616C68.1036 185.616 66 183.522 66 180.939V158.052C66 155.469 68.1035 153.375 70.6984 153.375H86.0249V146.732H126.725L109.176 116.474C107.878 114.237 108.648 111.376 110.895 110.085L143.01 91.6274C145.258 90.3359 148.131 91.1023 149.429 93.3393L186.883 157.916C193.3 168.981 189.492 183.13 178.376 189.518C176.874 190.381 175.316 191.059 173.728 191.557C171.207 192.49 168.479 193 165.631 193H86.0249V185.616H70.6984ZM73.9135 161.253H86.0249V177.739H73.9135V161.253ZM165.631 146.732C167.739 146.732 169.782 147.011 171.724 147.535L144.183 100.05L117.637 115.306L135.863 146.732H165.631Z" fill="black"/>
</svg>
