<svg width="444" height="256" viewBox="0 0 444 256" fill="none" xmlns="http://www.w3.org/2000/svg">
<path d="M208.503 45.1875L201.636 48.9937L167.989 28.7765L202.321 9.74585L209.051 13.7893L181.585 29.0138L208.503 45.1875Z" fill="black"/>
<path d="M248.879 69.4482L242.013 73.2543L208.366 53.0371L228.965 41.6187L255.883 57.7925L262.749 53.9864L235.831 37.8126L242.698 34.0065L276.345 54.2237L255.746 65.642L228.828 49.4683L221.961 53.2744L248.879 69.4482Z" fill="black"/>
<mask id="mask0_1135_42511" style="mask-type:alpha" maskUnits="userSpaceOnUse" x="28" y="55" width="389" height="128">
<path d="M222.328 179C562.885 179 339.073 66.9899 323.736 59.5044C323.254 59.2692 322.584 59.3085 322.138 59.5661L223.195 116.691C222.717 116.967 221.941 116.967 221.463 116.691L122.521 59.5661C122.074 59.3085 121.404 59.2692 120.922 59.5045C105.585 66.9899 -118.228 179 222.328 179Z" fill="#D9D9D9" stroke="black" stroke-width="10.67"/>
</mask>
<g mask="url(#mask0_1135_42511)">
<rect width="116.158" height="116.158" rx="1" transform="matrix(0.866025 0.5 -0.866025 0.5 222.33 15.033)" stroke="black" stroke-width="22.67"/>
</g>
</svg>
