<svg width="172" height="216" viewBox="0 0 172 216" fill="none" xmlns="http://www.w3.org/2000/svg">
<path d="M156 186.5H165C165.552 186.5 166 186.052 166 185.5V7C166 6.44772 165.552 6 165 6H7C6.44772 6 6 6.44772 6 7V185.5C6 186.052 6.44772 186.5 7 186.5H93.5" stroke="black" stroke-width="10.67" stroke-linecap="square"/>
<circle cx="124" cy="156" r="21" stroke="black" stroke-width="10.67"/>
<path d="M112 210V175L124.5 180L137 175V210L124.5 194.348L112 210Z" fill="black" stroke="black" stroke-width="10.67" stroke-linecap="round" stroke-linejoin="round"/>
<circle cx="47" cy="52" r="12" fill="black" stroke="black" stroke-width="10.67"/>
<path d="M138.5 84.5L121.63 97.032C121.26 97.3067 120.75 97.2932 120.396 96.9993L104.138 83.5286C103.768 83.222 103.232 83.222 102.862 83.5286L86.7465 96.8815C86.3305 97.2262 85.716 97.1782 85.3586 96.7731L71 80.5" stroke="black" stroke-width="10.67" stroke-linecap="round"/>
<path d="M166 115.5L112.5 46L7.5 123.5" stroke="black" stroke-width="10.67" stroke-linecap="round" stroke-linejoin="round"/>
</svg>
