<svg width="256" height="256" viewBox="0 0 256 256" fill="none" xmlns="http://www.w3.org/2000/svg">
<path fill-rule="evenodd" clip-rule="evenodd" d="M42.665 27.9999C42.665 24.5012 45.5013 21.6649 49 21.6649H207C210.499 21.6649 213.335 24.5012 213.335 27.9999V136.415C213.336 136.469 213.336 136.523 213.335 136.577V206.5C213.335 209.999 210.499 212.835 207 212.835H192.665V202.165H202.665V138.315L181.785 111.191L166.811 122.314C164.468 124.055 161.239 123.969 158.992 122.107L145.5 110.928L132.15 121.989C129.515 124.173 125.622 123.869 123.358 121.303L110.167 106.353L53.335 148.3V202.165H140.835V212.835H49C45.5013 212.835 42.665 209.999 42.665 206.5V27.9999ZM202.665 32.3349V120.823L158.728 63.7456C156.956 61.4441 153.669 60.9827 151.332 62.7075L53.335 135.039V32.3349H202.665ZM175.276 102.735L163.18 111.72L149.542 100.42C147.197 98.4779 143.802 98.4779 141.458 100.42L128.578 111.092L118.785 99.9924L153.462 74.3971L175.276 102.735ZM88.9997 55.6649C79.4259 55.6649 71.6647 63.4261 71.6647 72.9999C71.6647 82.5738 79.4259 90.3349 88.9997 90.3349C98.5736 90.3349 106.335 82.5738 106.335 72.9999C106.335 63.4261 98.5736 55.6649 88.9997 55.6649ZM150.335 177C150.335 168.348 157.348 161.335 166 161.335C174.652 161.335 181.665 168.348 181.665 177C181.665 185.652 174.652 192.665 166 192.665C157.348 192.665 150.335 185.652 150.335 177ZM166 150.665C151.456 150.665 139.665 162.456 139.665 177C139.665 184.906 143.149 191.998 148.665 196.826V231C148.665 233.267 150.097 235.286 152.236 236.035C154.375 236.784 156.754 236.1 158.169 234.329L166.5 223.897L174.831 234.329C176.246 236.1 178.625 236.784 180.764 236.035C182.903 235.286 184.335 233.267 184.335 231V196C184.335 195.968 184.335 195.937 184.334 195.905C189.269 191.119 192.335 184.417 192.335 177C192.335 162.456 180.544 150.665 166 150.665Z" fill="black"/>
</svg>
