<svg width="216" height="216" viewBox="0 0 216 216" fill="none" xmlns="http://www.w3.org/2000/svg">
<path d="M94.4653 163.722H121.371M121.371 163.722H137.437C137.702 163.722 137.956 163.617 138.144 163.429L161.969 139.604C165.505 136.067 171.096 135.647 175.12 138.616V138.616C180.084 142.277 180.642 149.49 176.301 153.871L141.831 188.65C141.643 188.839 141.387 188.946 141.12 188.946H57.6619C57.3313 188.946 57.0221 188.783 56.8358 188.51L32.9665 153.523C32.7424 153.195 32.7791 152.754 33.0543 152.467L40.0177 145.207C53.1799 131.485 75.1588 131.571 88.2357 145.375V145.375C88.3479 145.493 88.5039 145.56 88.667 145.56H115.698C125.469 145.56 129.405 158.16 121.371 163.722V163.722Z" stroke="black" stroke-width="10.67" stroke-linecap="round"/>
<rect x="5" y="167.279" width="16.4834" height="52.0831" rx="1" transform="rotate(-34.259 5 167.279)" stroke="black" stroke-width="10.67"/>
<path d="M121.072 51.604H94.166M94.166 51.604H78.1004C77.8352 51.604 77.5808 51.7093 77.3933 51.8969L53.5678 75.7223C50.0316 79.2585 44.4415 79.6784 40.4167 76.7102V76.7102C35.4529 73.0493 34.8948 65.8356 39.2366 61.4549L73.7066 26.6758C73.8944 26.4864 74.1501 26.3798 74.4168 26.3798H157.875C158.206 26.3798 158.515 26.5431 158.701 26.8162L182.571 61.8027C182.795 62.1311 182.758 62.5717 182.483 62.8587L175.519 70.1184C162.357 83.8407 140.378 83.7544 127.301 69.9509V69.9509C127.189 69.8326 127.033 69.7654 126.87 69.7654H99.8392C90.068 69.7654 86.1322 57.1658 94.166 51.604V51.604Z" stroke="black" stroke-width="10.67" stroke-linecap="round"/>
<rect x="210.537" y="48.0468" width="16.4834" height="52.0831" rx="1" transform="rotate(145.741 210.537 48.0468)" stroke="black" stroke-width="10.67"/>
<path fill-rule="evenodd" clip-rule="evenodd" d="M108.973 83.2316C106.659 81.3493 103.342 81.3493 101.028 83.2316C99.6362 84.3637 97.8278 84.8482 96.0566 84.5637C93.1115 84.0905 90.2386 85.7491 89.1759 88.5363C88.5367 90.2124 87.2129 91.5363 85.5367 92.1755C82.7496 93.2382 81.0909 96.1111 81.5641 99.0562C81.8487 100.827 81.3641 102.636 80.2321 104.027C78.3497 106.341 78.3497 109.659 80.2321 111.973C81.3641 113.364 81.8487 115.173 81.5641 116.944C81.0909 119.889 82.7496 122.762 85.5367 123.825C87.2129 124.464 88.5367 125.788 89.1759 127.464C90.2386 130.251 93.1115 131.91 96.0566 131.436C97.8278 131.152 99.6362 131.636 101.028 132.768C103.342 134.651 106.659 134.651 108.973 132.768C110.365 131.636 112.173 131.152 113.944 131.436C116.889 131.91 119.762 130.251 120.825 127.464C121.464 125.788 122.788 124.464 124.464 123.825C127.251 122.762 128.91 119.889 128.437 116.944C128.152 115.173 128.637 113.364 129.769 111.973C131.651 109.659 131.651 106.341 129.769 104.027C128.637 102.636 128.152 100.827 128.437 99.0562C128.91 96.1111 127.251 93.2382 124.464 92.1755C122.788 91.5363 121.464 90.2124 120.825 88.5363C119.762 85.7491 116.889 84.0905 113.944 84.5637C112.173 84.8482 110.365 84.3637 108.973 83.2316ZM104.522 92.3009C104.918 91.7078 105.79 91.7078 106.186 92.3009L114.539 104.816C114.857 105.292 114.712 105.936 114.22 106.23L105.867 111.217C105.551 111.406 105.157 111.406 104.842 111.217L96.4879 106.23C95.9968 105.936 95.8513 105.292 96.1688 104.816L104.522 92.3009ZM104.764 123.331C105.162 123.905 106.01 123.905 106.407 123.331L112.849 114.043C113.467 113.152 112.423 112.052 111.501 112.623L106.112 115.957C105.789 116.156 105.382 116.156 105.059 115.957L99.67 112.623C98.7478 112.052 97.7042 113.152 98.3222 114.043L104.764 123.331Z" fill="black"/>
</svg>
