<svg width="183" height="177" viewBox="0 0 183 177" fill="none" xmlns="http://www.w3.org/2000/svg">
<path d="M77.6131 118.365L82.7273 119.884L77.6131 118.365ZM77.123 117.184L79.7255 112.527L77.123 117.184ZM105.877 117.184L103.274 112.527L105.877 117.184ZM105.387 118.365L100.273 119.884L105.387 118.365ZM60.7994 171.224L62.7156 166.245L60.7994 171.224ZM62.1043 170.578L67.2185 172.097L62.1043 170.578ZM122.201 171.224L124.117 176.203L122.201 171.224ZM120.896 170.578L126.01 169.059L120.896 170.578ZM171.665 91.4017C171.665 125.522 150.347 154.676 120.284 166.245L124.117 176.203C158.161 163.101 182.335 130.081 182.335 91.4017H171.665ZM91.5 11.2367C135.774 11.2367 171.665 47.1278 171.665 91.4017H182.335C182.335 41.235 141.667 0.566733 91.5 0.566733V11.2367ZM11.335 91.4017C11.335 47.1278 47.2261 11.2367 91.5 11.2367V0.566733C41.3332 0.566733 0.665 41.2349 0.665 91.4017H11.335ZM62.7156 166.245C32.6533 154.676 11.335 125.522 11.335 91.4017H0.665C0.665 130.081 24.8386 163.101 58.8832 176.203L62.7156 166.245ZM67.2185 172.097L82.7273 119.884L72.4989 116.846L56.9901 169.059L67.2185 172.097ZM56.6504 91.4017C56.6504 104.493 63.8706 115.89 74.5205 121.841L79.7255 112.527C72.3129 108.385 67.3204 100.473 67.3204 91.4017H56.6504ZM91.5 56.5521C72.2531 56.5521 56.6504 72.1548 56.6504 91.4017H67.3204C67.3204 78.0477 78.146 67.2221 91.5 67.2221V56.5521ZM126.35 91.4017C126.35 72.1548 110.747 56.5521 91.5 56.5521V67.2221C104.854 67.2221 115.68 78.0477 115.68 91.4017H126.35ZM108.48 121.841C119.129 115.89 126.35 104.493 126.35 91.4017H115.68C115.68 100.473 110.687 108.385 103.274 112.527L108.48 121.841ZM100.273 119.884L115.782 172.097L126.01 169.059L110.501 116.846L100.273 119.884ZM82.7273 119.884C83.6 116.946 82.2422 113.933 79.7255 112.527L74.5205 121.841C72.839 120.902 71.8987 118.867 72.4989 116.846L82.7273 119.884ZM103.274 112.527C100.758 113.933 99.4 116.946 100.273 119.884L110.501 116.846C111.101 118.867 110.161 120.902 108.48 121.841L103.274 112.527ZM58.8832 176.203C62.3601 177.542 66.178 175.6 67.2185 172.097L56.9901 169.059C57.7013 166.665 60.3181 165.323 62.7156 166.245L58.8832 176.203ZM120.284 166.245C122.682 165.323 125.299 166.665 126.01 169.059L115.782 172.097C116.822 175.6 120.64 177.542 124.117 176.203L120.284 166.245Z" fill="black"/>
</svg>
