<svg width="256" height="256" viewBox="0 0 256 256" fill="none" xmlns="http://www.w3.org/2000/svg">
<path d="M128 19.665C130.947 19.665 133.335 22.0536 133.335 25V72.5708L152.368 53.5375C154.452 51.454 157.83 51.454 159.913 53.5375C161.997 55.6209 161.997 58.9988 159.913 61.0823L131.773 89.2231C130.772 90.2237 129.415 90.7857 128 90.7857C126.585 90.7857 125.228 90.2237 124.228 89.2232L96.087 61.0823C94.0035 58.9989 94.0035 55.6209 96.087 53.5375C98.1704 51.454 101.548 51.454 103.632 53.5375L122.665 72.5709V25C122.665 22.0536 125.054 19.665 128 19.665Z" fill="black"/>
<path d="M32 203H224C224 216.255 213.255 227 200 227H56C42.7452 227 32 216.255 32 203Z" fill="black"/>
<path fill-rule="evenodd" clip-rule="evenodd" d="M58.835 122.835V133.665H79C82.4988 133.665 85.335 136.501 85.335 140V172C85.335 175.499 82.4988 178.335 79 178.335H27C23.5013 178.335 20.665 175.499 20.665 172V140C20.665 136.501 23.5013 133.665 27 133.665H48.165V118.5C48.165 115.001 51.0013 112.165 54.5 112.165H202C205.499 112.165 208.335 115.001 208.335 118.5V133.665H228C231.499 133.665 234.335 136.501 234.335 140V172C234.335 175.499 231.499 178.335 228 178.335H176C172.501 178.335 169.665 175.499 169.665 172V140C169.665 136.501 172.501 133.665 176 133.665H197.665V122.835H133.335V133.665H154C157.499 133.665 160.335 136.501 160.335 140V172C160.335 175.499 157.499 178.335 154 178.335H102C98.5013 178.335 95.665 175.499 95.665 172V140C95.665 136.501 98.5013 133.665 102 133.665H122.665V122.835H58.835ZM31.335 144.335V167.665H74.665V144.335H31.335ZM106.335 144.335V167.665H149.665V144.335H106.335ZM180.335 167.665V144.335H223.665V167.665H180.335Z" fill="black"/>
</svg>
