<svg width="214" height="238" viewBox="0 0 214 238" fill="none" xmlns="http://www.w3.org/2000/svg">
<mask id="mask0_1505_31264" style="mask-type:alpha" maskUnits="userSpaceOnUse" x="6" y="0" width="202" height="144">
<path d="M6 20.8244C6 20.3457 6.33931 19.9341 6.80926 19.8428L106.809 0.412062C106.935 0.387583 107.065 0.387583 107.191 0.412062L207.191 19.8428C207.661 19.9341 208 20.3457 208 20.8244V93.0063C208 93.3854 207.786 93.7319 207.446 93.9012L107.446 143.777C107.165 143.918 106.835 143.918 106.554 143.777L6.55368 93.9012C6.21441 93.7319 6 93.3854 6 93.0063V20.8244Z" fill="#D9D9D9"/>
</mask>
<g mask="url(#mask0_1505_31264)">
<path d="M99.4274 34.1602C103.838 30.572 110.162 30.572 114.573 34.1602L118.45 37.3146C121.103 39.4725 124.55 40.3962 127.927 39.8537L132.862 39.0608C138.476 38.1588 143.952 41.3205 145.978 46.6334L147.759 51.304C148.977 54.4991 151.501 57.0227 154.696 58.2411L159.367 60.022C164.679 62.0478 167.841 67.5242 166.939 73.1382L166.146 78.0735C165.604 81.4498 166.528 84.8971 168.685 87.5498L171.84 91.4274C175.428 95.8382 175.428 102.162 171.84 106.573L168.685 110.45C166.528 113.103 165.604 116.55 166.146 119.927L166.939 124.862C167.841 130.476 164.679 135.952 159.367 137.978L154.696 139.759C151.501 140.977 148.977 143.501 147.759 146.696L145.978 151.367C143.952 156.679 138.476 159.841 132.862 158.939L127.927 158.146C124.55 157.604 121.103 158.528 118.45 160.685L114.573 163.84C110.162 167.428 103.838 167.428 99.4274 163.84L95.5497 160.685C92.8971 158.528 89.4497 157.604 86.0735 158.146L81.1382 158.939C75.5242 159.841 70.0478 156.679 68.022 151.367L66.2411 146.696C65.0227 143.501 62.4991 140.977 59.304 139.759L54.6334 137.978C49.3205 135.952 46.1588 130.476 47.0608 124.862L47.8537 119.927C48.3962 116.55 47.4725 113.103 45.3146 110.45L42.1602 106.573C38.572 102.162 38.572 95.8382 42.1602 91.4274L45.3146 87.5497C47.4725 84.8971 48.3962 81.4497 47.8537 78.0735L47.0608 73.1382C46.1588 67.5242 49.3205 62.0478 54.6334 60.022L59.304 58.2411C62.4991 57.0227 65.0227 54.4991 66.2411 51.304L68.022 46.6334C70.0479 41.3205 75.5242 38.1588 81.1382 39.0608L86.0735 39.8537C89.4497 40.3962 92.8971 39.4725 95.5498 37.3146L99.4274 34.1602Z" stroke="black" stroke-width="10.67"/>
<path d="M105.168 62.2461C105.564 61.653 106.436 61.653 106.832 62.2461L126.416 91.5865C126.734 92.0623 126.588 92.707 126.097 93.0003L106.513 104.694C106.197 104.882 105.803 104.882 105.487 104.694L85.9029 93.0003C85.4118 92.707 85.2662 92.0623 85.5838 91.5865L105.168 62.2461Z" stroke="black" stroke-width="10.67" stroke-linejoin="round"/>
<path d="M105.678 136.815C106.076 137.389 106.924 137.389 107.322 136.815L125.262 110.948C125.88 110.057 124.836 108.957 123.914 109.528L107.026 119.976C106.704 120.175 106.296 120.175 105.974 119.976L89.0861 109.528C88.164 108.957 87.1203 110.057 87.7383 110.948L105.678 136.815Z" fill="black" stroke="black" stroke-width="10.67"/>
</g>
<path d="M6 109.616C6 108.873 6.78148 108.39 7.44633 108.721L106.554 158.152C106.835 158.293 107.165 158.293 107.446 158.152L206.554 108.721C207.219 108.39 208 108.873 208 109.616V181.006C208 181.385 207.786 181.732 207.446 181.901L107.446 231.777C107.165 231.918 106.835 231.918 106.554 231.777L6.55368 181.901C6.21441 181.732 6 181.385 6 181.006V109.616Z" stroke="black" stroke-width="10.67"/>
<path d="M107.5 160.5V228" stroke="black" stroke-width="10.67" stroke-linecap="round"/>
<rect width="28.5806" height="21.4354" rx="1" transform="matrix(0.866025 0.5 -2.20305e-08 1 45 159.863)" stroke="black" stroke-width="10.67"/>
<path d="M65.1103 171.474L65.1103 162.542C65.1103 157.61 61.6473 151.612 57.3755 149.145V149.145C53.1036 146.679 49.6406 148.678 49.6406 153.611L49.6406 162.542" stroke="black" stroke-width="10.67"/>
<rect width="28.5806" height="21.4354" rx="1" transform="matrix(-0.866025 0.5 2.20305e-08 1 174.752 157.863)" stroke="black" stroke-width="10.67"/>
<path d="M154.642 169.474L154.642 160.542C154.642 155.61 158.105 149.612 162.376 147.145V147.145C166.648 144.679 170.111 146.678 170.111 151.611L170.111 160.542" stroke="black" stroke-width="10.67"/>
<mask id="mask1_1505_31264" style="mask-type:alpha" maskUnits="userSpaceOnUse" x="6" y="85" width="202" height="85">
<path d="M6 168.787C6 169.416 6.57347 169.889 7.19074 169.769L106.809 150.412C106.935 150.388 107.065 150.388 107.191 150.412L206.809 169.769C207.427 169.889 208 169.416 208 168.787V86.625C208 86.0727 207.552 85.625 207 85.625H187C186.448 85.625 186 86.0727 186 86.625V113.24C186 113.689 185.701 114.083 185.268 114.204L107.291 135.919C107.101 135.972 106.9 135.968 106.713 135.907L30.1909 111.037C29.7789 110.903 29.5 110.519 29.5 110.086V86.625C29.5 86.0727 29.0523 85.625 28.5 85.625H7C6.44772 85.625 6 86.0727 6 86.625V168.787Z" fill="#D9D9D9"/>
</mask>
<g mask="url(#mask1_1505_31264)">
<path d="M6 109L106.554 58.8476C106.835 58.7074 107.165 58.7074 107.446 58.8476L208 109" stroke="black" stroke-width="10.67"/>
</g>
</svg>
