<svg width="256" height="256" viewBox="0 0 256 256" fill="none" xmlns="http://www.w3.org/2000/svg">
<path d="M65.6055 78.9859C100.341 44.338 156.659 44.338 191.395 78.9859L195.575 83.1558C197.312 84.8882 197.312 87.697 195.575 89.4293L181.275 103.694C180.406 104.56 178.998 104.56 178.13 103.694L172.377 97.9555C148.144 73.7843 108.856 73.7843 84.6233 97.9555L78.4624 104.101C77.594 104.967 76.1861 104.967 75.3177 104.101L61.017 89.8363C59.2803 88.1039 59.2803 85.2951 61.017 83.5627L65.6055 78.9859ZM220.97 108.486L233.697 121.182C235.434 122.914 235.434 125.723 233.697 127.455L176.308 184.701C174.571 186.433 171.755 186.433 170.018 184.701C170.018 184.701 170.018 184.701 170.018 184.701L129.287 144.072C128.852 143.639 128.148 143.639 127.714 144.072V144.072C127.714 144.072 127.714 144.072 127.714 144.072L86.9834 184.701C85.2466 186.433 82.4307 186.433 80.6939 184.701C80.6939 184.701 80.6939 184.701 80.6939 184.701L23.3026 127.455C21.5658 125.722 21.5658 122.913 23.3026 121.181L36.0302 108.486C37.767 106.753 40.5829 106.753 42.3197 108.486L83.052 149.115C83.4862 149.548 84.1901 149.548 84.6243 149.115C84.6243 149.115 84.6244 149.115 84.6244 149.115L125.355 108.486C127.091 106.753 129.907 106.753 131.644 108.485C131.644 108.485 131.644 108.485 131.644 108.486L172.376 149.115C172.811 149.548 173.515 149.548 173.949 149.115L214.68 108.486C216.417 106.754 219.233 106.754 220.97 108.486Z" fill="black"/>
</svg>
