<svg width="256" height="256" viewBox="0 0 256 256" fill="none" xmlns="http://www.w3.org/2000/svg">
<path d="M128 102.786C130.947 102.786 133.335 100.397 133.335 97.4507V49.88L152.368 68.9133C154.452 70.9967 157.83 70.9967 159.913 68.9133C161.997 66.8298 161.997 63.4519 159.913 61.3684L131.814 33.2695C131.672 33.1243 131.522 32.9869 131.363 32.8581C130.599 32.2359 129.702 31.8571 128.777 31.7216C128.385 31.6638 127.989 31.6504 127.598 31.6801C126.369 31.7724 125.167 32.2882 124.228 33.2276L124.201 33.2538L96.0869 61.3684C94.0035 63.4518 94.0035 66.8298 96.0869 68.9132C98.1704 70.9967 101.548 70.9967 103.632 68.9132L122.665 49.8798V97.4507C122.665 100.397 125.054 102.786 128 102.786Z" fill="black"/>
<path d="M153.529 177.675C156.426 179.348 158.665 181.35 160.245 183.681L171.964 179.5C169.682 177.067 166.96 174.786 163.8 172.657C165.644 171.999 167.355 171.314 168.935 170.605C170.603 169.845 172.315 169.16 174.071 168.552L164.853 163.231L154.451 167.868C149.623 166.195 144.795 165.334 139.966 165.283C135.138 165.232 130.486 166.145 126.009 168.02C121.619 169.946 119.337 172.683 119.161 176.231C119.074 177.7 119.249 179.17 119.688 180.64C120.215 182.16 120.566 183.58 120.742 184.897C121.444 187.938 120.698 189.991 118.503 191.055C114.553 192.728 110.383 192.297 105.994 189.763C103.623 188.394 100.77 185.683 97.4346 181.628L85.1886 184.897C86.6809 187.989 89.6656 191.03 94.1427 194.02L84.5302 198.05L93.8793 203.447L103.755 198.81C113.85 202.712 123.595 202.611 132.988 198.506C137.465 196.63 139.747 193.894 139.835 190.295C139.923 188.825 139.703 187.33 139.176 185.81C138.65 184.289 138.167 182.845 137.728 181.476C136.85 178.435 137.64 176.357 140.098 175.242C143.522 173.671 147.999 174.482 153.529 177.675Z" fill="black"/>
<path fill-rule="evenodd" clip-rule="evenodd" d="M200.004 215.315C192.902 219.415 185.016 222.785 176.623 225.426C147.126 236.773 108.407 236.773 78.9105 225.425C70.5192 222.784 62.6336 219.415 55.5331 215.315C15.6387 192.282 15.6387 154.938 55.5332 131.905C95.4276 108.872 160.109 108.872 200.004 131.905C239.898 154.938 239.898 192.282 200.004 215.315ZM190.157 146.975C206.514 156.419 215.106 168.648 215.933 181.018C219.821 165.51 211.431 149.173 190.763 137.24C155.972 117.153 99.5647 117.153 64.7736 137.24C44.1066 149.172 35.7164 165.508 39.6032 181.016C40.4312 168.647 49.0232 156.419 65.3793 146.975C99.8357 127.082 155.701 127.082 190.157 146.975ZM74.6198 213.681C78.0711 215.673 81.7746 217.432 85.6708 218.956C111.883 227.075 143.65 227.075 169.863 218.957C173.76 217.432 177.465 215.674 180.916 213.681C210.269 196.734 210.269 169.257 180.916 152.31C151.563 135.363 103.973 135.363 74.6198 152.31C45.2668 169.257 45.2668 196.734 74.6198 213.681Z" fill="black"/>
</svg>
