<?xml version="1.0" encoding="UTF-8" standalone="no"?>
<svg
   width="157"
   height="194"
   viewBox="0 0 157 194"
   fill="none"
   version="1.1"
   id="svg156"
   sodipodi:docname="dapptap.svg"
   inkscape:version="1.1.1 (c3084ef, 2021-09-22)"
   xmlns:inkscape="http://www.inkscape.org/namespaces/inkscape"
   xmlns:sodipodi="http://sodipodi.sourceforge.net/DTD/sodipodi-0.dtd"
   xmlns="http://www.w3.org/2000/svg"
   xmlns:svg="http://www.w3.org/2000/svg">
  <sodipodi:namedview
     id="namedview158"
     pagecolor="#ffffff"
     bordercolor="#666666"
     borderopacity="1.0"
     inkscape:pageshadow="2"
     inkscape:pageopacity="0.0"
     inkscape:pagecheckerboard="0"
     showgrid="false"
     inkscape:zoom="2.9072165"
     inkscape:cx="160.46277"
     inkscape:cy="97"
     inkscape:window-width="1296"
     inkscape:window-height="786"
     inkscape:window-x="0"
     inkscape:window-y="25"
     inkscape:window-maximized="0"
     inkscape:current-layer="svg156" />
  <path
     fill-rule="evenodd"
     clip-rule="evenodd"
     d="M14 0C6.26801 0 0 6.26801 0 14V179.75C0 187.482 6.26802 193.75 14 193.75H93.5C101.232 193.75 107.5 187.482 107.5 179.75V14C107.5 6.26801 101.232 0 93.5 0H14ZM17.5 7.5C11.9772 7.5 7.5 11.9772 7.5 17.5V176.25C7.5 181.773 11.9772 186.25 17.5 186.25H90C95.5229 186.25 100 181.773 100 176.25V17.5C100 11.9772 95.5229 7.5 90 7.5H17.5Z"
     fill="url(#paint0_linear_2102_1419)"
     id="path78" />
  <path
     fill-rule="evenodd"
     clip-rule="evenodd"
     d="M14 0C6.26801 0 0 6.26801 0 14V179.75C0 187.482 6.26802 193.75 14 193.75H93.5C101.232 193.75 107.5 187.482 107.5 179.75V14C107.5 6.26801 101.232 0 93.5 0H14ZM17.5 7.5C11.9772 7.5 7.5 11.9772 7.5 17.5V176.25C7.5 181.773 11.9772 186.25 17.5 186.25H90C95.5229 186.25 100 181.773 100 176.25V17.5C100 11.9772 95.5229 7.5 90 7.5H17.5Z"
     fill="url(#paint1_linear_2102_1419)"
     id="path80" />
  <rect
     x="7.5"
     y="7.5"
     width="92.5"
     height="178.75"
     rx="10"
     fill="url(#paint2_linear_2102_1419)"
     id="rect82" />
  <g
     id="g277"
     transform="translate(-189.1844,-10.663121)">
    <path
       d="M 242.17006,103.33583 211.12854,72.293921 c -3.68735,-3.687353 -5.531,-8.520208 -5.531,-13.353063 0,-2.459833 0.47763,-4.919666 1.43288,-7.228426 -0.92329,2.226516 -1.43288,4.667972 -1.43288,7.228426 v 37.768074 c 0,10.429638 8.45471,18.884068 18.88407,18.884068 8.0976,0 15.00466,-5.09701 17.68845,-12.25717 z"
       fill="#007dfc"
       id="path100"
       style="stroke-width:0.563703" />
    <path
       d="m 243.36567,58.940801 v 37.768131 c 0,10.429638 8.45443,18.884068 18.88407,18.884068 10.42964,0 18.88406,-8.45443 18.88406,-18.884068 V 58.940801 c 0,10.42936 -8.45442,18.884066 -18.88406,18.884066 -10.42964,0 -18.88407,-8.454706 -18.88407,-18.884066 z"
       fill="#fc9e22"
       id="path102"
       style="stroke-width:0.563703" />
    <path
       fill-rule="evenodd"
       clip-rule="evenodd"
       d="m 211.12854,45.587738 c 7.37471,-7.374673 19.33171,-7.374673 26.70607,0 l 37.76814,37.768131 c 7.37493,7.374707 7.37493,19.331701 0,26.706071 -7.37437,7.37493 -19.33165,7.37493 -26.70602,0 L 211.12854,72.293865 c -7.37465,-7.374707 -7.37465,-19.331421 0,-26.706127 z"
       fill="url(#paint0_linear_2_386)"
       id="path104"
       style="fill:url(#paint0_linear_2_386);stroke-width:0.563703" />
    <path
       d="M 242.17006,103.33583 217.85477,79.020256 c 2.06191,-0.772781 4.29491,-1.195389 6.62684,-1.195389 10.42907,0 18.88406,8.454706 18.88406,18.884065 0,2.331478 -0.42277,4.564868 -1.19561,6.626898 z"
       fill="#06d4e7"
       id="path106"
       style="stroke-width:0.563703" />
    <path
       d="m 244.56129,52.314129 24.31535,24.315348 c -2.06203,0.772781 -4.29542,1.19539 -6.6269,1.19539 -10.42964,0 -18.88407,-8.454706 -18.88407,-18.884066 0,-2.331703 0.42278,-4.564757 1.19562,-6.626672 z"
       fill="#ff397f"
       id="path108"
       style="stroke-width:0.563703" />
    <path
       d="m 268.87664,76.629477 c 7.16016,-2.683792 12.25716,-9.591019 12.25716,-17.688676 0,-10.429359 -8.45442,-18.884065 -18.88406,-18.884065 -8.0976,0 -15.00466,5.09682 -17.68845,12.257449 z"
       fill="#ffb900"
       id="path110"
       style="stroke-width:0.563703" />
    <path
       d="m 217.85499,79.020256 c -7.16061,2.683793 -12.25745,9.59102 -12.25745,17.688676 0,10.429638 8.45471,18.884068 18.88407,18.884068 8.0976,0 15.00466,-5.09701 17.68845,-12.25717 z"
       fill="#00b1f4"
       id="path112"
       style="stroke-width:0.563703" />
  </g>
  <path
     d="M69.7305 95.9212C67.3538 91.7188 62.0477 90.2531 57.8791 92.655C53.7133 95.0553 52.2677 100.406 54.6429 104.605L84.3374 157.11C83.1148 156.807 81.8568 156.498 80.6237 156.195L79.2052 155.848C75.8212 155.019 72.767 154.271 71.0047 153.802C66.3619 152.567 61.6125 155.366 60.3915 160.043C59.1709 164.718 61.9348 169.512 66.5759 170.747C68.5196 171.264 71.7699 172.06 75.0984 172.875L75.1028 172.876L76.5224 173.224C80.433 174.182 84.2271 175.12 86.4511 175.734C91.1689 177.035 98.3227 180.352 105.105 183.928C108.667 185.807 112.079 187.783 114.515 189.235C116.896 190.654 119.869 190.715 122.279 189.326L152.337 172C154.887 170.53 156.36 167.698 156.016 164.763C154.77 154.116 152.588 142.776 147.351 133.516L132.361 107.012C129.984 102.809 124.678 101.344 120.51 103.746C117.613 105.415 116.032 108.51 116.135 111.652L114.997 109.639C112.62 105.437 107.314 103.971 103.146 106.373C100.215 108.062 98.6305 111.21 98.7756 114.391C96.2096 110.815 91.3282 109.688 87.4377 111.929C84.6479 113.537 83.0786 116.467 83.0589 119.488L69.7305 95.9212Z"
     fill="url(#paint3_linear_2102_1419)"
     id="path116" />
  <path
     d="M69.7305 95.9212C67.3538 91.7188 62.0477 90.2531 57.8791 92.655C53.7133 95.0553 52.2677 100.406 54.6429 104.605L84.3374 157.11C83.1148 156.807 81.8568 156.498 80.6237 156.195L79.2052 155.848C75.8212 155.019 72.767 154.271 71.0047 153.802C66.3619 152.567 61.6125 155.366 60.3915 160.043C59.1709 164.718 61.9348 169.512 66.5759 170.747C68.5196 171.264 71.7699 172.06 75.0984 172.875L75.1028 172.876L76.5224 173.224C80.433 174.182 84.2271 175.12 86.4511 175.734C91.1689 177.035 98.3227 180.352 105.105 183.928C108.667 185.807 112.079 187.783 114.515 189.235C116.896 190.654 119.869 190.715 122.279 189.326L152.337 172C154.887 170.53 156.36 167.698 156.016 164.763C154.77 154.116 152.588 142.776 147.351 133.516L132.361 107.012C129.984 102.809 124.678 101.344 120.51 103.746C117.613 105.415 116.032 108.51 116.135 111.652L114.997 109.639C112.62 105.437 107.314 103.971 103.146 106.373C100.215 108.062 98.6305 111.21 98.7756 114.391C96.2096 110.815 91.3282 109.688 87.4377 111.929C84.6479 113.537 83.0786 116.467 83.0589 119.488L69.7305 95.9212Z"
     stroke="#808080"
     id="path118" />
  <path
     d="M69.7305 95.9212C67.3538 91.7188 62.0477 90.2531 57.8791 92.655C53.7133 95.0553 52.2677 100.406 54.6429 104.605L84.3374 157.11C83.1148 156.807 81.8568 156.498 80.6237 156.195L79.2052 155.848C75.8212 155.019 72.767 154.271 71.0047 153.802C66.3619 152.567 61.6125 155.366 60.3915 160.043C59.1709 164.718 61.9348 169.512 66.5759 170.747C68.5196 171.264 71.7699 172.06 75.0984 172.875L75.1028 172.876L76.5224 173.224C80.433 174.182 84.2271 175.12 86.4511 175.734C91.1689 177.035 98.3227 180.352 105.105 183.928C108.667 185.807 112.079 187.783 114.515 189.235C116.896 190.654 119.869 190.715 122.279 189.326L152.337 172C154.887 170.53 156.36 167.698 156.016 164.763C154.77 154.116 152.588 142.776 147.351 133.516L132.361 107.012C129.984 102.809 124.678 101.344 120.51 103.746C117.613 105.415 116.032 108.51 116.135 111.652L114.997 109.639C112.62 105.437 107.314 103.971 103.146 106.373C100.215 108.062 98.6305 111.21 98.7756 114.391C96.2096 110.815 91.3282 109.688 87.4377 111.929C84.6479 113.537 83.0786 116.467 83.0589 119.488L69.7305 95.9212Z"
     stroke="black"
     stroke-opacity="0.2"
     id="path120" />
  <defs
     id="defs154">
    <linearGradient
       id="paint0_linear_2_386"
       x1="72.345"
       y1="6.53"
       x2="199.31"
       y2="127.8"
       gradientUnits="userSpaceOnUse"
       gradientTransform="matrix(0.56370345,0,0,0.56370345,166.1383,39.774884)">
      <stop
         stop-color="#5231C6"
         id="stop122" />
      <stop
         offset="1"
         stop-color="#E60AF6"
         id="stop124" />
    </linearGradient>
    <clipPath
       id="clip0_2_386">
      <rect
         width="271"
         height="211"
         fill="white"
         id="rect127" />
    </clipPath>
    <linearGradient
       id="paint0_linear_2102_1419"
       x1="6.25001"
       y1="6.875"
       x2="104.375"
       y2="198.125"
       gradientUnits="userSpaceOnUse">
      <stop
         stop-color="#666D97"
         id="stop130" />
      <stop
         offset="1"
         stop-color="#5992BD"
         id="stop132" />
    </linearGradient>
    <linearGradient
       id="paint1_linear_2102_1419"
       x1="0"
       y1="0"
       x2="114"
       y2="194"
       gradientUnits="userSpaceOnUse">
      <stop
         stop-color="#1B1B1B"
         id="stop135" />
      <stop
         offset="0.364583"
         stop-color="#757575"
         id="stop137" />
      <stop
         offset="1"
         stop-color="#1B1B1B"
         id="stop139" />
    </linearGradient>
    <linearGradient
       id="paint2_linear_2102_1419"
       x1="3"
       y1="20"
       x2="105"
       y2="186"
       gradientUnits="userSpaceOnUse">
      <stop
         stop-color="#F8F8F8"
         stop-opacity="0.21"
         id="stop142" />
      <stop
         offset="1"
         stop-color="#E0E0E0"
         stop-opacity="0.13"
         id="stop144" />
    </linearGradient>
    <linearGradient
       id="paint3_linear_2102_1419"
       x1="217.2"
       y1="102.292"
       x2="56.1407"
       y2="243.474"
       gradientUnits="userSpaceOnUse">
      <stop
         stop-color="#EBA352"
         id="stop147" />
      <stop
         offset="0.53125"
         stop-color="#FFDD67"
         id="stop149" />
      <stop
         offset="1"
         stop-color="#EBA352"
         id="stop151" />
    </linearGradient>
  </defs>
</svg>
