<svg xmlns="http://www.w3.org/2000/svg" width="1em" height="1em" fill="currentColor" viewBox="0 0 64 64" alt="Software download glyph">
<path fill="#B0BDC6" d="M7 39.578h49v15.244c0 .601-.487 1.089-1.089 1.089H8.09A1.09 1.09 0 0 1 7 54.822z"/>
<path fill="#62727A" d="M53.822 41.755H9.178v11.978h44.644zM7 39.578v15.244c0 .601.488 1.089 1.089 1.089H54.91c.602 0 1.089-.488 1.089-1.089V39.578z"/>
<path fill="#62727A" d="M14.388 15.306 7 39.678h49l-7.388-24.372a1.09 1.09 0 0 0-1.042-.773H15.43c-.48 0-.903.314-1.042.773"/>
<path fill="#2C3033" d="M7 39.678h49l-7.388-24.372a1.09 1.09 0 0 0-1.042-.773H15.43c-.48 0-.903.314-1.042.773zm1.468-1.09h46.064L47.57 15.623H15.43z"/>
<path fill="#fff" d="M34.222 8v17.484l4.164-4.164 3.85 3.85L31.5 35.904 20.764 25.17l3.85-3.85 4.164 4.165V8z"/>
<path fill="#2C3033" d="M33.133 28.112V9.09h-3.266v19.023l-5.253-5.252-2.31 2.31 9.196 9.195 9.196-9.196-2.31-2.31zm5.253-6.792 3.85 3.85L31.5 35.904 20.764 25.17l3.85-3.85 4.164 4.165V8h5.444v17.484z"/>
<path fill="#62727A" d="M48.378 47.2a2.178 2.178 0 1 1-4.356 0 2.178 2.178 0 0 1 4.356 0"/>
</svg>