<svg width="134" height="134" viewBox="0 0 134 134" fill="none" xmlns="http://www.w3.org/2000/svg">
<g clip-path="url(#clip0_2_775)">
<path d="M64.8794 111.756L9.81192 56.6882C3.27064 50.1469 0 41.5735 0 33.0001C0 28.6364 0.847293 24.2727 2.54188 20.177C0.903992 24.1268 0 28.4579 0 33.0001V100C0 118.502 14.9985 133.5 33.5 133.5C47.8651 133.5 60.1184 124.458 64.8794 111.756Z" fill="#007DFC"/>
<path d="M67 33V100C67 118.502 81.9985 133.5 100.5 133.5C119.002 133.5 134 118.502 134 100V33C134 51.5015 119.002 66.5 100.5 66.5C81.9985 66.5 67 51.5015 67 33Z" fill="#FC9E22"/>
<path fill-rule="evenodd" clip-rule="evenodd" d="M9.81192 9.31192C22.8945 -3.77064 44.1055 -3.77064 57.1881 9.31192L124.188 76.3119C137.271 89.3945 137.271 110.606 124.188 123.688C111.106 136.771 89.8945 136.771 76.8119 123.688L9.81192 56.6881C-3.27064 43.6055 -3.27064 22.3945 9.81192 9.31192Z" fill="url(#paint0_linear_2_775)"/>
<path d="M64.8791 111.756L21.7441 68.6206C25.4019 67.2497 29.3632 66.5 33.4997 66.5C52.0012 66.5 66.9997 81.4985 66.9997 100C66.9997 104.136 66.25 108.098 64.8791 111.756Z" fill="#06D4E7"/>
<path d="M69.1206 21.2444L112.256 64.3794C108.598 65.7503 104.636 66.5 100.5 66.5C81.9985 66.5 67 51.5015 67 33C67 28.8636 67.7497 24.9022 69.1206 21.2444Z" fill="#FF397F"/>
<path d="M112.256 64.3794C124.958 59.6184 134 47.3651 134 33C134 14.4985 119.002 -0.5 100.5 -0.5C86.1349 -0.5 73.8816 8.54167 69.1206 21.2445L112.256 64.3794Z" fill="#FFB900"/>
<path d="M21.7445 68.6206C9.04167 73.3816 0 85.6349 0 100C0 118.502 14.9985 133.5 33.5 133.5C47.8651 133.5 60.1184 124.458 64.8794 111.756L21.7445 68.6206Z" fill="#00B1F4"/>
</g>
<defs>
<linearGradient id="paint0_linear_2_775" x1="2.345" y1="5.53" x2="129.31" y2="126.8" gradientUnits="userSpaceOnUse">
<stop stop-color="#5231C6"/>
<stop offset="1" stop-color="#E60AF6"/>
</linearGradient>
<clipPath id="clip0_2_775">
<rect width="134" height="134" fill="white"/>
</clipPath>
</defs>
</svg>
