<svg width="157" height="194" viewBox="0 0 157 194" fill="none" xmlns="http://www.w3.org/2000/svg">
<path fill-rule="evenodd" clip-rule="evenodd" d="M14 0C6.26801 0 0 6.26801 0 14V179.75C0 187.482 6.26802 193.75 14 193.75H93.5C101.232 193.75 107.5 187.482 107.5 179.75V14C107.5 6.26801 101.232 0 93.5 0H14ZM17.5 7.5C11.9772 7.5 7.5 11.9772 7.5 17.5V176.25C7.5 181.773 11.9772 186.25 17.5 186.25H90C95.5229 186.25 100 181.773 100 176.25V17.5C100 11.9772 95.5229 7.5 90 7.5H17.5Z" fill="url(#paint0_linear_2102_1419)"/>
<path fill-rule="evenodd" clip-rule="evenodd" d="M14 0C6.26801 0 0 6.26801 0 14V179.75C0 187.482 6.26802 193.75 14 193.75H93.5C101.232 193.75 107.5 187.482 107.5 179.75V14C107.5 6.26801 101.232 0 93.5 0H14ZM17.5 7.5C11.9772 7.5 7.5 11.9772 7.5 17.5V176.25C7.5 181.773 11.9772 186.25 17.5 186.25H90C95.5229 186.25 100 181.773 100 176.25V17.5C100 11.9772 95.5229 7.5 90 7.5H17.5Z" fill="url(#paint1_linear_2102_1419)"/>
<rect x="7.5" y="7.5" width="92.5" height="178.75" rx="10" fill="url(#paint2_linear_2102_1419)"/>
<path fill-rule="evenodd" clip-rule="evenodd" d="M66.8393 27C66.8393 29.7958 64.9499 32.1449 62.3929 32.811V36.189C64.9499 36.8551 66.8393 39.2042 66.8393 42C66.8393 43.2457 66.4642 44.4027 65.8221 45.3616L73.4083 52.3994C74.4381 51.5259 75.7655 51 77.2143 51C77.7665 51 78.3011 51.0764 78.8083 51.2194L84.1291 43.815C83.5059 42.8653 83.1429 41.7255 83.1429 40.5C83.1429 37.1863 85.7972 34.5 89.0714 34.5C92.3457 34.5 95 37.1863 95 40.5C95 43.8137 92.3457 46.5 89.0714 46.5C88.089 46.5 87.1623 46.2581 86.3464 45.83L81.3843 52.7351C82.4702 53.8226 83.1429 55.3318 83.1429 57C83.1429 60.3137 80.4885 63 77.2143 63C77.1323 63 77.0506 62.9983 76.9694 62.995L73.8343 69.9754C74.9976 70.5751 76.0132 71.4263 76.8111 72.4582L81.7743 70.175C81.6998 69.795 81.6607 69.4021 81.6607 69C81.6607 65.6863 84.315 63 87.5893 63C90.8635 63 93.5178 65.6863 93.5178 69C93.5178 72.3137 90.8635 75 87.5893 75C85.7755 75 84.1519 74.1756 83.0644 72.8769L78.2256 75.1029C78.5309 76.012 78.6964 76.9864 78.6964 78C78.6964 79.8648 78.136 81.5972 77.1763 83.034L80.8167 88.5603C81.0924 88.5206 81.3742 88.5 81.6607 88.5C84.935 88.5 87.5893 91.1863 87.5893 94.5C87.5893 97.8137 84.935 100.5 81.6607 100.5C78.3864 100.5 75.7321 97.8137 75.7321 94.5C75.7321 92.567 76.6353 90.8476 78.0378 89.7502L75.0735 85.2502C73.5987 86.35 71.7761 87 69.8036 87C67.0347 87 64.5614 85.7193 62.9305 83.7114L60.577 85.0106C60.7932 85.6331 60.9107 86.3027 60.9107 87C60.9107 90.3137 58.2564 93 54.9821 93C51.7079 93 49.0536 90.3137 49.0536 87C49.0536 83.6863 51.7079 81 54.9821 81C56.4913 81 57.8688 81.5707 58.9154 82.5106L61.4554 81.1084C61.1031 80.1396 60.9107 79.0925 60.9107 78C60.9107 76.9481 61.089 75.9383 61.4167 75H58.2389C56.7012 77.6901 53.8273 79.5 50.5357 79.5C48.7905 79.5 47.1627 78.9912 45.7892 78.1122L42.9198 80.2242C43.9813 81.7065 44.6071 83.5293 44.6071 85.5C44.6071 87.6031 43.8944 89.5377 42.7 91.0699L48.0954 96.5303C48.8396 96.1896 49.6658 96 50.5357 96C53.81 96 56.4643 98.6863 56.4643 102C56.4643 105.314 53.81 108 50.5357 108C47.2615 108 44.6071 105.314 44.6071 102C44.6071 100.66 45.0411 99.4228 45.7746 98.4242L40.5006 93.0866C39.5148 93.7249 38.3963 94.1718 37.1964 94.3756V99.8027C38.9685 100.84 40.1607 102.779 40.1607 105C40.1607 108.314 37.5064 111 34.2321 111C30.9579 111 28.3036 108.314 28.3036 105C28.3036 101.686 30.9579 99 34.2321 99V94.3756C31.4976 93.9113 29.1861 92.1839 27.9036 89.8065L23.7585 91.904C23.8233 92.2594 23.8571 92.6257 23.8571 93C23.8571 96.3137 21.2028 99 17.9286 99C14.6543 99 12 96.3137 12 93C12 89.6863 14.6543 87 17.9286 87C19.7709 87 21.4169 87.8504 22.5043 89.1846L26.935 86.9425C26.8603 86.4728 26.8214 85.991 26.8214 85.5C26.8214 83.7167 27.3339 82.0545 28.218 80.6561L24.4261 76.8185C23.4394 77.5608 22.2168 78 20.8929 78C17.6186 78 14.9643 75.3137 14.9643 72C14.9643 68.6863 17.6186 66 20.8929 66C24.1671 66 26.8214 68.6863 26.8214 72C26.8214 72.8804 26.6341 73.7165 26.2975 74.4697L30.2107 78.4301C31.7247 77.2213 33.6362 76.5 35.7143 76.5C37.593 76.5 39.3357 77.0896 40.7714 78.0959L43.5406 76.0578C42.3519 74.5275 41.6429 72.5975 41.6429 70.5C41.6429 67.1684 43.4315 64.2596 46.09 62.7036L45.0589 59.312C44.0072 59.7553 42.8532 60 41.6429 60C37.7411 60 34.4263 57.457 33.2283 53.9193L29.706 54.5135C29.7584 54.8344 29.7857 55.164 29.7857 55.5C29.7857 58.8137 27.1314 61.5 23.8571 61.5C20.5829 61.5 17.9286 58.8137 17.9286 55.5C17.9286 52.1863 20.5829 49.5 23.8571 49.5C25.7003 49.5 27.3471 50.3513 28.4344 51.6865L32.7501 50.9586C32.7675 47.0565 35.2386 43.7409 38.6823 42.5108V39L38.6786 39C35.4043 39 32.75 36.3137 32.75 33C32.75 29.6863 35.4043 27 38.6786 27C41.9528 27 44.6071 29.6863 44.6071 33C44.6071 35.2193 43.4166 37.1571 41.6466 38.1951L41.6466 42C44.6189 42.0012 47.2503 43.4783 48.8641 45.7463L55.0486 42.9013C55.0048 42.6073 54.9821 42.3063 54.9821 42C54.9821 39.2042 56.8715 36.8551 59.4286 36.189V32.811C56.8715 32.1449 54.9821 29.7958 54.9821 27C54.9821 23.6863 57.6365 21 60.9107 21C64.185 21 66.8393 23.6863 66.8393 27ZM50.5357 61.5C49.9675 61.5 49.4118 61.5539 48.8733 61.657L47.6507 57.6357C49.4239 55.9904 50.5357 53.6266 50.5357 51C50.5357 50.1108 50.4083 49.2518 50.171 48.4405L56.2132 45.6609C57.2973 47.0836 58.9983 48 60.9107 48C61.873 48 62.7817 47.768 63.5853 47.3562L71.6739 54.8601C71.4231 55.5248 71.2857 56.2461 71.2857 57C71.2857 59.1617 72.4153 61.0564 74.1096 62.1125L70.9811 69.0782C70.5958 69.0266 70.2028 69 69.8036 69C67.1698 69 64.8035 70.1588 63.1751 72H59.3056C59.3865 71.5122 59.4286 71.0111 59.4286 70.5C59.4286 65.5294 55.4471 61.5 50.5357 61.5Z" fill="#30BCB2"/>
<path d="M69.7305 95.9212C67.3538 91.7188 62.0477 90.2531 57.8791 92.655C53.7133 95.0553 52.2677 100.406 54.6429 104.605L84.3374 157.11C83.1148 156.807 81.8568 156.498 80.6237 156.195L79.2052 155.848C75.8212 155.019 72.767 154.271 71.0047 153.802C66.3619 152.567 61.6125 155.366 60.3915 160.043C59.1709 164.718 61.9348 169.512 66.5759 170.747C68.5196 171.264 71.7699 172.06 75.0984 172.875L75.1028 172.876L76.5224 173.224C80.433 174.182 84.2271 175.12 86.4511 175.734C91.1689 177.035 98.3227 180.352 105.105 183.928C108.667 185.807 112.079 187.783 114.515 189.235C116.896 190.654 119.869 190.715 122.279 189.326L152.337 172C154.887 170.53 156.36 167.698 156.016 164.763C154.77 154.116 152.588 142.776 147.351 133.516L132.361 107.012C129.984 102.809 124.678 101.344 120.51 103.746C117.613 105.415 116.032 108.51 116.135 111.652L114.997 109.639C112.62 105.437 107.314 103.971 103.146 106.373C100.215 108.062 98.6305 111.21 98.7756 114.391C96.2096 110.815 91.3282 109.688 87.4377 111.929C84.6479 113.537 83.0786 116.467 83.0589 119.488L69.7305 95.9212Z" fill="url(#paint3_linear_2102_1419)"/>
<path d="M69.7305 95.9212C67.3538 91.7188 62.0477 90.2531 57.8791 92.655C53.7133 95.0553 52.2677 100.406 54.6429 104.605L84.3374 157.11C83.1148 156.807 81.8568 156.498 80.6237 156.195L79.2052 155.848C75.8212 155.019 72.767 154.271 71.0047 153.802C66.3619 152.567 61.6125 155.366 60.3915 160.043C59.1709 164.718 61.9348 169.512 66.5759 170.747C68.5196 171.264 71.7699 172.06 75.0984 172.875L75.1028 172.876L76.5224 173.224C80.433 174.182 84.2271 175.12 86.4511 175.734C91.1689 177.035 98.3227 180.352 105.105 183.928C108.667 185.807 112.079 187.783 114.515 189.235C116.896 190.654 119.869 190.715 122.279 189.326L152.337 172C154.887 170.53 156.36 167.698 156.016 164.763C154.77 154.116 152.588 142.776 147.351 133.516L132.361 107.012C129.984 102.809 124.678 101.344 120.51 103.746C117.613 105.415 116.032 108.51 116.135 111.652L114.997 109.639C112.62 105.437 107.314 103.971 103.146 106.373C100.215 108.062 98.6305 111.21 98.7756 114.391C96.2096 110.815 91.3282 109.688 87.4377 111.929C84.6479 113.537 83.0786 116.467 83.0589 119.488L69.7305 95.9212Z" stroke="#808080"/>
<path d="M69.7305 95.9212C67.3538 91.7188 62.0477 90.2531 57.8791 92.655C53.7133 95.0553 52.2677 100.406 54.6429 104.605L84.3374 157.11C83.1148 156.807 81.8568 156.498 80.6237 156.195L79.2052 155.848C75.8212 155.019 72.767 154.271 71.0047 153.802C66.3619 152.567 61.6125 155.366 60.3915 160.043C59.1709 164.718 61.9348 169.512 66.5759 170.747C68.5196 171.264 71.7699 172.06 75.0984 172.875L75.1028 172.876L76.5224 173.224C80.433 174.182 84.2271 175.12 86.4511 175.734C91.1689 177.035 98.3227 180.352 105.105 183.928C108.667 185.807 112.079 187.783 114.515 189.235C116.896 190.654 119.869 190.715 122.279 189.326L152.337 172C154.887 170.53 156.36 167.698 156.016 164.763C154.77 154.116 152.588 142.776 147.351 133.516L132.361 107.012C129.984 102.809 124.678 101.344 120.51 103.746C117.613 105.415 116.032 108.51 116.135 111.652L114.997 109.639C112.62 105.437 107.314 103.971 103.146 106.373C100.215 108.062 98.6305 111.21 98.7756 114.391C96.2096 110.815 91.3282 109.688 87.4377 111.929C84.6479 113.537 83.0786 116.467 83.0589 119.488L69.7305 95.9212Z" stroke="black" stroke-opacity="0.2"/>
<defs>
<linearGradient id="paint0_linear_2102_1419" x1="6.25001" y1="6.875" x2="104.375" y2="198.125" gradientUnits="userSpaceOnUse">
<stop stop-color="#666D97"/>
<stop offset="1" stop-color="#5992BD"/>
</linearGradient>
<linearGradient id="paint1_linear_2102_1419" x1="0" y1="0" x2="114" y2="194" gradientUnits="userSpaceOnUse">
<stop stop-color="#1B1B1B"/>
<stop offset="0.364583" stop-color="#757575"/>
<stop offset="1" stop-color="#1B1B1B"/>
</linearGradient>
<linearGradient id="paint2_linear_2102_1419" x1="3" y1="20" x2="105" y2="186" gradientUnits="userSpaceOnUse">
<stop stop-color="#F8F8F8" stop-opacity="0.21"/>
<stop offset="1" stop-color="#E0E0E0" stop-opacity="0.13"/>
</linearGradient>
<linearGradient id="paint3_linear_2102_1419" x1="217.2" y1="102.292" x2="56.1407" y2="243.474" gradientUnits="userSpaceOnUse">
<stop stop-color="#EBA352"/>
<stop offset="0.53125" stop-color="#FFDD67"/>
<stop offset="1" stop-color="#EBA352"/>
</linearGradient>
</defs>
</svg>
