<svg width="139" height="165" viewBox="0 0 139 165" fill="none" xmlns="http://www.w3.org/2000/svg">
<path fill-rule="evenodd" clip-rule="evenodd" d="M14.3904 0C6.44282 0 0 6.49137 0 14.4989V140.501C0 148.509 6.44282 155 14.3904 155H66.1636C66.496 155 66.5638 154.56 66.2434 154.472C64.0403 153.866 60.2225 152.923 56.1883 151.936C55.72 151.821 55.25 151.706 54.7808 151.592L54.6703 151.565C51.2995 150.741 47.9375 149.919 45.9006 149.378C44.9295 149.12 43.9405 148.907 42.9358 148.907H16.1673C10.6445 148.907 6.16733 144.43 6.16733 138.907V15.9963C6.16733 10.4734 10.6445 5.99626 16.1673 5.99626H69.8327C75.3555 5.99626 79.8331 10.465 79.8341 15.9879C79.8373 32.1577 79.8448 61.0178 79.8473 70.4099C79.8477 72.1086 81.2249 73.4546 82.9236 73.4546C84.6227 73.4546 86 72.0772 86 70.3782V14.4989C86 6.49137 79.5572 0 71.6096 0H14.3904Z" fill="url(#paint0_linear_1717_587)"/>
<path d="M40.0001 40.9998C40.0001 39.343 41.3432 37.9998 43.0001 37.9998C44.6569 37.9998 46.0001 39.343 46.0001 40.9998V57.9998C46.0001 59.6567 44.6569 60.9998 43.0001 60.9998C41.3432 60.9998 40.0001 59.6567 40.0001 57.9998V40.9998Z" fill="url(#paint1_linear_1717_587)"/>
<path d="M46.0001 96.9998V101C46.0001 102.657 44.6569 104 43.0001 104C41.3432 104 40.0001 102.657 40.0001 101V86.4998L46.0001 96.9998Z" fill="url(#paint2_linear_1717_587)"/>
<path d="M12.0001 73.9998C10.3432 73.9998 9.00009 72.6567 9.00009 70.9998C9.00009 69.343 10.3432 67.9998 12.0001 67.9998H29.0001C30.6569 67.9998 32.0001 69.343 32.0001 70.9998C32.0001 72.6567 30.6569 73.9998 29.0001 73.9998H12.0001Z" fill="url(#paint3_linear_1717_587)"/>
<path d="M57.0001 73.9998C55.3432 73.9998 54.0001 72.6567 54.0001 70.9998C54.0001 69.343 55.3432 67.9998 57.0001 67.9998H74.0001C75.6569 67.9998 77.0001 69.343 77.0001 70.9998C77.0001 72.6567 75.6569 73.9998 74.0001 73.9998H57.0001Z" fill="url(#paint4_linear_1717_587)"/>
<path d="M23.2011 55.4435C22.0295 54.2719 22.0295 52.3724 23.2011 51.2009C24.3726 50.0293 26.2721 50.0293 27.4437 51.2009L31.6863 55.4435C32.8579 56.6151 32.8579 58.5146 31.6863 59.6861C30.5148 60.8577 28.6153 60.8577 27.4437 59.6861L23.2011 55.4435Z" fill="url(#paint5_linear_1717_587)"/>
<path d="M58.5565 82.3134L62.7991 86.556C63.6483 87.4052 63.882 88.6369 63.5001 89.6966C63.4287 89.8948 63.3357 90.087 63.2212 90.2695L58.5565 82.3134Z" fill="url(#paint6_linear_1717_587)"/>
<path d="M27.4437 90.7988C26.2721 91.9704 24.3726 91.9704 23.2011 90.7988C22.0295 89.6273 22.0295 87.7278 23.2011 86.5562L27.4437 82.3136C28.6153 81.142 30.5148 81.142 31.6863 82.3136C32.8579 83.4851 32.8579 85.3846 31.6863 86.5562L27.4437 90.7988Z" fill="url(#paint7_linear_1717_587)"/>
<path d="M58.5564 59.6861C57.3848 60.8577 55.4853 60.8577 54.3138 59.6861C53.1422 58.5146 53.1422 56.6151 54.3138 55.4435L58.5564 51.2009C59.728 50.0293 61.6275 50.0293 62.799 51.2009C63.9706 52.3724 63.9706 54.2719 62.799 55.4435L58.5564 59.6861Z" fill="url(#paint8_linear_1717_587)"/>
<path d="M64.4091 94.9566L65.3186 94.5532C64.1719 91.0499 65.6013 87.1066 68.9261 85.208C72.7276 83.0372 77.5687 84.3601 79.7389 88.163L81.2734 90.852L81.7077 90.6042L82.1419 90.3564C79.9717 86.5534 81.2943 81.7106 85.096 79.5397C88.8975 77.3689 93.7385 78.6918 95.9087 82.4947L99.1483 88.1715L99.5826 87.9237L100.017 87.6758C97.8466 83.8728 99.1692 79.03 102.971 76.8591C106.772 74.6883 111.613 76.0112 113.784 79.8141L129.214 106.854C132.995 113.479 135.248 122.861 136.561 129.794C137.247 133.414 137.729 136.668 138.04 139.019C138.196 140.197 138.31 141.155 138.385 141.827C138.415 142.087 138.443 142.347 138.47 142.607C138.424 142.634 138.372 142.664 138.315 142.697C138.032 142.861 137.617 143.1 137.088 143.404C136.03 144.012 134.517 144.878 132.702 145.917C129.071 147.993 124.229 150.757 119.387 153.52C114.545 156.283 109.703 159.044 106.072 161.115L101.684 163.617L100.454 164.318L100.277 164.418C100.265 164.411 100.253 164.403 100.239 164.395C100.049 164.278 99.7702 164.106 99.4135 163.889C98.7001 163.455 97.6762 162.838 96.4336 162.107C93.9489 160.645 90.5864 158.724 87.0796 156.891C80.0942 153.241 72.6457 149.81 67.6742 148.451C65.3676 147.821 61.4459 146.86 57.4254 145.883L55.9638 145.529C52.5307 144.695 49.195 143.886 47.2055 143.361C42.9727 142.246 40.4454 137.908 41.561 133.674C42.6765 129.439 47.0124 126.912 51.2451 128.027C53.0696 128.508 56.2215 129.273 59.6952 130.117L59.7061 130.119L61.1662 130.474C62.8302 130.878 64.5364 131.294 66.1468 131.692L67.2795 131.972L66.7012 130.959L35.5441 76.3611C33.3738 72.5581 34.6965 67.7152 38.4981 65.5444C42.2996 63.3736 47.1407 64.6964 49.3109 68.4994L64.4091 94.9566Z" fill="url(#paint9_linear_1717_587)" stroke="#808080"/>
<defs>
<linearGradient id="paint0_linear_1717_587" x1="5" y1="5.5" x2="83.5" y2="158.5" gradientUnits="userSpaceOnUse">
<stop stop-color="#666D97"/>
<stop offset="1" stop-color="#5992BD"/>
</linearGradient>
<linearGradient id="paint1_linear_1717_587" x1="5" y1="5.5" x2="83.5" y2="158.5" gradientUnits="userSpaceOnUse">
<stop stop-color="#666D97"/>
<stop offset="1" stop-color="#5992BD"/>
</linearGradient>
<linearGradient id="paint2_linear_1717_587" x1="5" y1="5.5" x2="83.5" y2="158.5" gradientUnits="userSpaceOnUse">
<stop stop-color="#666D97"/>
<stop offset="1" stop-color="#5992BD"/>
</linearGradient>
<linearGradient id="paint3_linear_1717_587" x1="5" y1="5.5" x2="83.5" y2="158.5" gradientUnits="userSpaceOnUse">
<stop stop-color="#666D97"/>
<stop offset="1" stop-color="#5992BD"/>
</linearGradient>
<linearGradient id="paint4_linear_1717_587" x1="5" y1="5.5" x2="83.5" y2="158.5" gradientUnits="userSpaceOnUse">
<stop stop-color="#666D97"/>
<stop offset="1" stop-color="#5992BD"/>
</linearGradient>
<linearGradient id="paint5_linear_1717_587" x1="5" y1="5.5" x2="83.5" y2="158.5" gradientUnits="userSpaceOnUse">
<stop stop-color="#666D97"/>
<stop offset="1" stop-color="#5992BD"/>
</linearGradient>
<linearGradient id="paint6_linear_1717_587" x1="5" y1="5.5" x2="83.5" y2="158.5" gradientUnits="userSpaceOnUse">
<stop stop-color="#666D97"/>
<stop offset="1" stop-color="#5992BD"/>
</linearGradient>
<linearGradient id="paint7_linear_1717_587" x1="5" y1="5.5" x2="83.5" y2="158.5" gradientUnits="userSpaceOnUse">
<stop stop-color="#666D97"/>
<stop offset="1" stop-color="#5992BD"/>
</linearGradient>
<linearGradient id="paint8_linear_1717_587" x1="5" y1="5.5" x2="83.5" y2="158.5" gradientUnits="userSpaceOnUse">
<stop stop-color="#666D97"/>
<stop offset="1" stop-color="#5992BD"/>
</linearGradient>
<linearGradient id="paint9_linear_1717_587" x1="202" y1="74.5" x2="37.5" y2="220" gradientUnits="userSpaceOnUse">
<stop stop-color="#EBA352"/>
<stop offset="0.53125" stop-color="#FFDD67"/>
<stop offset="1" stop-color="#EBA352"/>
</linearGradient>
</defs>
</svg>
