<svg width="139" height="165" viewBox="0 0 139 165" fill="none" xmlns="http://www.w3.org/2000/svg">
<path fill-rule="evenodd" clip-rule="evenodd" d="M38.2502 65.1102C42.2916 62.8024 47.4381 64.2088 49.7452 68.2516L64.8434 94.7088C63.6244 90.9844 65.1431 86.7925 68.6782 84.7738C72.7196 82.466 77.8661 83.8725 80.1731 87.9152L81.7077 90.6042C79.4006 86.5615 80.8066 81.4133 84.848 79.1055C88.8895 76.7977 94.0359 78.2041 96.343 82.2469L99.5826 87.9237C97.2755 83.8809 98.6815 78.7327 102.723 76.4249C106.764 74.1171 111.911 75.5236 114.218 79.5663L129.648 106.606C133.474 113.31 135.739 122.765 137.053 129.701C137.74 133.332 138.224 136.596 138.536 138.953C138.692 140.135 138.806 141.096 138.882 141.771C138.924 142.138 138.964 142.506 139 142.873C139.004 142.921 100.267 165 100.267 165C100.267 165 93.8418 160.989 86.848 157.334C79.8645 153.685 72.4574 150.277 67.5424 148.933C65.2442 148.305 61.3304 147.347 57.3074 146.369C56.8208 146.251 56.3325 146.133 55.8459 146.014C52.4153 145.182 49.0736 144.371 47.0781 143.845C42.5781 142.659 39.8916 138.048 41.0775 133.546C42.2634 129.045 46.8726 126.358 51.3726 127.544C53.1929 128.024 56.3433 128.788 59.8241 129.633C60.3054 129.75 60.793 129.868 61.2843 129.988C62.9483 130.392 64.6554 130.808 66.2669 131.207L35.1098 76.6089C32.8028 72.5662 34.2087 67.418 38.2502 65.1102Z" fill="#262626"/>
<path fill-rule="evenodd" clip-rule="evenodd" d="M14.3904 0C6.44282 0 0 6.49137 0 14.4989V140.501C0 148.509 6.44282 155 14.3904 155H66.1636C66.496 155 66.5638 154.56 66.2434 154.472C64.0403 153.866 60.2225 152.923 56.1883 151.936C55.72 151.821 55.25 151.706 54.7808 151.592L54.7593 151.587L54.6703 151.565C51.2995 150.741 47.9375 149.919 45.9006 149.378C44.9295 149.12 43.9405 148.907 42.9358 148.907H16.1673C10.6445 148.907 6.16733 144.43 6.16733 138.907V15.9963C6.16733 10.4734 10.6445 5.99626 16.1673 5.99626H69.8327C75.3555 5.99626 79.8331 10.465 79.8341 15.9879C79.8373 32.1577 79.8448 61.0178 79.8473 70.4099C79.8477 72.1086 81.2249 73.4546 82.9236 73.4546C84.6227 73.4546 86 72.0772 86 70.3782V14.4989C86 6.49137 79.5572 0 71.6096 0H14.3904Z" fill="#262626"/>
<path d="M40.0001 41C40.0001 39.3431 41.3433 38 43.0001 38C44.657 38 46.0001 39.3431 46.0001 41V58C46.0001 59.6569 44.657 61 43.0001 61C41.3433 61 40.0001 59.6569 40.0001 58V41Z" fill="#262626"/>
<path d="M46.0001 97V101C46.0001 102.657 44.657 104 43.0001 104C41.3433 104 40.0001 102.657 40.0001 101V86.5L46.0001 97Z" fill="#262626"/>
<path d="M12.0001 74C10.3433 74 9.00012 72.6569 9.00012 71C9.00012 69.3431 10.3433 68 12.0001 68H29.0001C30.657 68 32.0001 69.3431 32.0001 71C32.0001 72.6569 30.657 74 29.0001 74H12.0001Z" fill="#262626"/>
<path d="M57.0001 74C55.3433 74 54.0001 72.6569 54.0001 71C54.0001 69.3431 55.3433 68 57.0001 68H74.0001C75.657 68 77.0001 69.3431 77.0001 71C77.0001 72.6569 75.657 74 74.0001 74H57.0001Z" fill="#262626"/>
<path d="M23.2011 55.4437C22.0295 54.2721 22.0295 52.3726 23.2011 51.201C24.3727 50.0294 26.2722 50.0294 27.4437 51.201L31.6864 55.4437C32.8579 56.6152 32.8579 58.5147 31.6864 59.6863C30.5148 60.8579 28.6153 60.8579 27.4437 59.6863L23.2011 55.4437Z" fill="#262626"/>
<path d="M58.5565 82.3135L62.7992 86.5562C63.6484 87.4054 63.882 88.6371 63.5001 89.6968C63.4287 89.895 63.3357 90.0871 63.2213 90.2697L58.5565 82.3135Z" fill="#262626"/>
<path d="M27.4437 90.799C26.2722 91.9706 24.3727 91.9706 23.2011 90.799C22.0295 89.6274 22.0295 87.7279 23.2011 86.5564L27.4437 82.3137C28.6153 81.1421 30.5148 81.1421 31.6864 82.3137C32.8579 83.4853 32.8579 85.3848 31.6864 86.5564L27.4437 90.799Z" fill="#262626"/>
<path d="M58.5564 59.6863C57.3849 60.8579 55.4854 60.8579 54.3138 59.6863C53.1422 58.5147 53.1422 56.6152 54.3138 55.4437L58.5564 51.201C59.728 50.0294 61.6275 50.0294 62.7991 51.201C63.9706 52.3726 63.9706 54.2721 62.7991 55.4437L58.5564 59.6863Z" fill="#262626"/>
</svg>
