<svg width="66" height="66" viewBox="0 0 66 66" fill="none" xmlns="http://www.w3.org/2000/svg">
<path d="M9.82983 32.9999C9.82983 20.0013 21.5085 9.46387 35.9149 9.46387C50.3212 9.46387 61.9999 20.0013 61.9999 32.9999C61.9999 45.9985 50.3212 56.536 35.9149 56.536C30.8462 56.536 26.1153 55.2316 22.1118 52.9745" stroke="#62727A" stroke-width="4" stroke-linecap="round"/>
<path fill-rule="evenodd" clip-rule="evenodd" d="M17.6166 39.6749C17.6166 39.6748 17.6166 39.6747 17.6166 39.6746C17.6166 35.7944 14.1304 32.6489 9.83003 32.6489C5.52963 32.6489 2.04346 35.7944 2.04346 39.6746C2.04346 39.6831 2.04347 39.6915 2.04351 39.7V46.7006H17.6167V39.6749H17.6166Z" fill="#2C3033"/>
<path fill-rule="evenodd" clip-rule="evenodd" d="M15.2804 46.6998H12.1658V53.428C12.1658 53.9803 12.6135 54.428 13.1658 54.428H14.2804C14.8327 54.428 15.2804 53.9803 15.2804 53.428V46.6998ZM7.49378 46.6998H4.37915V53.4281C4.37915 53.9804 4.82687 54.4281 5.37915 54.4281H6.49378C7.04607 54.4281 7.49378 53.9804 7.49378 53.4281V46.6998Z" fill="#B0BDC6"/>
<path d="M48.4484 31.2261C49.8831 31.9735 49.8831 34.0262 48.4484 34.7736L30.5641 44.0901C29.2327 44.7837 27.6401 43.8177 27.6401 42.3164L27.6401 23.6833C27.6401 22.182 29.2327 21.216 30.5641 21.9096L48.4484 31.2261Z" fill="#2C3033"/>
</svg>
