<svg width="205" height="167" viewBox="0 0 205 167" fill="none" xmlns="http://www.w3.org/2000/svg">
<rect width="205" height="167" rx="6" fill="url(#paint0_linear_1304_72)"/>
<rect x="6" y="6" width="193" height="155" rx="6" fill="#020000"/>
<rect x="18" y="18" width="169" height="131" rx="6" fill="#262626"/>
<path d="M28.08 39V38.064L32.04 35.7L28.08 33.336V32.4L33 35.34V36.06L28.08 39ZM44.3899 39.144C43.4059 39.144 42.5259 38.912 41.7499 38.448L42.0979 37.716C42.8019 38.124 43.5779 38.328 44.4259 38.328C45.5059 38.328 46.0459 38.016 46.0459 37.392C46.0459 37.16 45.9739 36.992 45.8299 36.888C45.6859 36.776 45.4339 36.696 45.0739 36.648L43.7059 36.456C43.1219 36.368 42.6939 36.212 42.4219 35.988C42.1579 35.756 42.0259 35.416 42.0259 34.968C42.0259 34.408 42.2299 33.976 42.6379 33.672C43.0539 33.368 43.6339 33.216 44.3779 33.216C45.2179 33.216 46.0099 33.408 46.7539 33.792L46.4419 34.536C45.8099 34.2 45.1139 34.032 44.3539 34.032C43.3859 34.032 42.9019 34.324 42.9019 34.908C42.9019 35.132 42.9739 35.296 43.1179 35.4C43.2619 35.504 43.5139 35.58 43.8739 35.628L45.2419 35.82C45.8339 35.9 46.2619 36.056 46.5259 36.288C46.7899 36.52 46.9219 36.868 46.9219 37.332C46.9219 37.916 46.7019 38.364 46.2619 38.676C45.8299 38.988 45.2059 39.144 44.3899 39.144ZM50.8948 39.144C49.5508 39.144 48.8788 38.436 48.8788 37.02V33.36H49.7428V36.888C49.7428 37.392 49.8468 37.76 50.0548 37.992C50.2628 38.216 50.5908 38.328 51.0388 38.328C51.7108 38.328 52.3348 38.116 52.9108 37.692V33.36H53.7748V39H53.1268L53.0308 38.4C52.3748 38.896 51.6628 39.144 50.8948 39.144ZM58.0117 39.144C57.2598 39.144 56.6598 38.876 56.2118 38.34C55.7638 37.804 55.5398 37.084 55.5398 36.18C55.5398 35.276 55.7638 34.556 56.2118 34.02C56.6598 33.484 57.2598 33.216 58.0117 33.216C58.6918 33.216 59.3438 33.436 59.9678 33.876V30.48H60.8318V39H60.1838L60.0878 38.4C59.4318 38.896 58.7398 39.144 58.0117 39.144ZM58.1558 38.328C58.4598 38.328 58.7718 38.272 59.0918 38.16C59.4118 38.048 59.7038 37.892 59.9678 37.692V34.668C59.7038 34.468 59.4118 34.312 59.0918 34.2C58.7718 34.088 58.4598 34.032 58.1558 34.032C57.6198 34.032 57.1958 34.224 56.8838 34.608C56.5798 34.992 56.4277 35.516 56.4277 36.18C56.4277 36.844 56.5798 37.368 56.8838 37.752C57.1958 38.136 57.6198 38.328 58.1558 38.328ZM65.2847 39.144C64.7167 39.144 64.2167 39.02 63.7847 38.772C63.3527 38.524 63.0167 38.18 62.7767 37.74C62.5447 37.292 62.4287 36.772 62.4287 36.18C62.4287 35.588 62.5447 35.072 62.7767 34.632C63.0167 34.184 63.3527 33.836 63.7847 33.588C64.2167 33.34 64.7167 33.216 65.2847 33.216C65.8607 33.216 66.3607 33.34 66.7847 33.588C67.2167 33.836 67.5487 34.184 67.7807 34.632C68.0207 35.072 68.1407 35.588 68.1407 36.18C68.1407 36.772 68.0207 37.292 67.7807 37.74C67.5487 38.18 67.2167 38.524 66.7847 38.772C66.3607 39.02 65.8607 39.144 65.2847 39.144ZM65.2847 38.328C65.9007 38.328 66.3807 38.136 66.7247 37.752C67.0767 37.368 67.2527 36.844 67.2527 36.18C67.2527 35.516 67.0767 34.992 66.7247 34.608C66.3807 34.224 65.9007 34.032 65.2847 34.032C64.6767 34.032 64.1967 34.224 63.8447 34.608C63.4927 34.992 63.3167 35.516 63.3167 36.18C63.3167 36.844 63.4927 37.368 63.8447 37.752C64.1967 38.136 64.6767 38.328 65.2847 38.328ZM79.7106 39.144C78.6786 39.144 77.8906 38.796 77.3466 38.1C76.8026 37.404 76.5306 36.404 76.5306 35.1C76.5306 33.788 76.8026 32.788 77.3466 32.1C77.8906 31.404 78.6786 31.056 79.7106 31.056C80.1186 31.056 80.4906 31.116 80.8266 31.236C81.1706 31.356 81.5026 31.552 81.8226 31.824L81.3426 32.556C81.0866 32.324 80.8266 32.16 80.5626 32.064C80.3066 31.96 80.0226 31.908 79.7106 31.908C78.1986 31.908 77.4426 32.972 77.4426 35.1C77.4426 37.228 78.1986 38.292 79.7106 38.292C80.0626 38.292 80.3786 38.232 80.6586 38.112C80.9386 37.984 81.2266 37.772 81.5226 37.476L82.0386 38.172C81.6786 38.516 81.3106 38.764 80.9346 38.916C80.5666 39.068 80.1586 39.144 79.7106 39.144ZM84.0315 39V31.2H84.9195V38.16H88.8555V39H84.0315ZM90.6324 39V38.16H92.6844V32.04H90.6324V31.2H95.6244V32.04H93.5724V38.16H95.6244V39H90.6324ZM106.618 39V34.152H104.218V33.36H107.482V38.208H109.882V39H106.618ZM106.93 31.992C106.706 31.992 106.51 31.912 106.342 31.752C106.182 31.584 106.102 31.388 106.102 31.164C106.102 30.932 106.182 30.736 106.342 30.576C106.51 30.416 106.706 30.336 106.93 30.336C107.162 30.336 107.358 30.416 107.518 30.576C107.678 30.736 107.758 30.932 107.758 31.164C107.758 31.388 107.678 31.584 107.518 31.752C107.358 31.912 107.162 31.992 106.93 31.992ZM111.503 39V38.328L115.235 34.152H111.623V33.36H116.495V34.032L112.763 38.208H116.495V39H111.503ZM125.521 39V30.48H126.385V33.876C126.993 33.436 127.665 33.216 128.401 33.216C129.745 33.216 130.417 33.924 130.417 35.34V39H129.553V35.472C129.553 34.968 129.449 34.604 129.241 34.38C129.033 34.148 128.705 34.032 128.257 34.032C127.585 34.032 126.961 34.244 126.385 34.668V39H125.521ZM134.366 39.144C133.678 39.144 133.146 38.988 132.77 38.676C132.394 38.356 132.206 37.916 132.206 37.356C132.206 36.82 132.382 36.412 132.734 36.132C133.086 35.852 133.614 35.712 134.318 35.712H136.478V35.472C136.478 34.952 136.354 34.584 136.106 34.368C135.866 34.144 135.454 34.032 134.87 34.032C134.118 34.032 133.438 34.196 132.83 34.524L132.554 33.768C133.242 33.4 134.026 33.216 134.906 33.216C135.754 33.216 136.37 33.388 136.754 33.732C137.146 34.068 137.342 34.604 137.342 35.34V39H136.694L136.586 38.4C135.938 38.896 135.198 39.144 134.366 39.144ZM134.486 38.328C135.238 38.328 135.902 38.112 136.478 37.68V36.48H134.294C133.494 36.48 133.094 36.772 133.094 37.356C133.094 38.004 133.558 38.328 134.486 38.328ZM139.863 39V33.36H140.559L140.679 34.344C141.335 33.592 142.139 33.216 143.091 33.216C143.619 33.216 144.043 33.328 144.363 33.552L144.039 34.332C143.743 34.14 143.403 34.044 143.019 34.044C142.115 34.044 141.351 34.472 140.727 35.328V39H139.863ZM148.504 39.144C147.752 39.144 147.152 38.876 146.704 38.34C146.256 37.804 146.032 37.084 146.032 36.18C146.032 35.276 146.256 34.556 146.704 34.02C147.152 33.484 147.752 33.216 148.504 33.216C149.184 33.216 149.836 33.436 150.46 33.876V30.48H151.324V39H150.676L150.58 38.4C149.924 38.896 149.232 39.144 148.504 39.144ZM148.648 38.328C148.952 38.328 149.264 38.272 149.584 38.16C149.904 38.048 150.196 37.892 150.46 37.692V34.668C150.196 34.468 149.904 34.312 149.584 34.2C149.264 34.088 148.952 34.032 148.648 34.032C148.112 34.032 147.688 34.224 147.376 34.608C147.072 34.992 146.92 35.516 146.92 36.18C146.92 36.844 147.072 37.368 147.376 37.752C147.688 38.136 148.112 38.328 148.648 38.328ZM29.784 53V48.152H27.924V47.36H29.784V46.46C29.784 45.044 30.52 44.336 31.992 44.336C32.6 44.336 33.156 44.464 33.66 44.72L33.432 45.488C32.984 45.264 32.528 45.152 32.064 45.152C31.12 45.152 30.648 45.632 30.648 46.592V47.36H33.048V48.152H30.648V53H29.784ZM36.7449 53V48.152H34.8849V47.36H36.7449V46.46C36.7449 45.044 37.4809 44.336 38.9529 44.336C39.5609 44.336 40.1169 44.464 40.6209 44.72L40.3929 45.488C39.9449 45.264 39.4889 45.152 39.0249 45.152C38.0809 45.152 37.6089 45.632 37.6089 46.592V47.36H40.0089V48.152H37.6089V53H36.7449ZM43.7059 53V48.152H41.8459V47.36H43.7059V46.46C43.7059 45.044 44.4419 44.336 45.9139 44.336C46.5219 44.336 47.0779 44.464 47.5819 44.72L47.3539 45.488C46.9059 45.264 46.4499 45.152 45.9859 45.152C45.0419 45.152 44.5699 45.632 44.5699 46.592V47.36H46.9699V48.152H44.5699V53H43.7059ZM51.6868 53.144C50.7188 53.144 49.9548 52.88 49.3948 52.352C48.8428 51.824 48.5668 51.1 48.5668 50.18C48.5668 49.572 48.6868 49.048 48.9268 48.608C49.1668 48.168 49.5028 47.828 49.9348 47.588C50.3668 47.34 50.8708 47.216 51.4468 47.216C52.2868 47.216 52.9508 47.468 53.4388 47.972C53.9268 48.468 54.1708 49.14 54.1708 49.988C54.1708 50.068 54.1708 50.148 54.1708 50.228C54.1708 50.308 54.1628 50.392 54.1468 50.48H49.4668C49.5228 51.072 49.7428 51.528 50.1268 51.848C50.5108 52.168 51.0388 52.328 51.7108 52.328C52.3828 52.328 53.0188 52.132 53.6188 51.74L53.9908 52.448C53.2948 52.912 52.5268 53.144 51.6868 53.144ZM49.4908 49.712H53.2948C53.2388 49.184 53.0508 48.772 52.7308 48.476C52.4108 48.18 51.9788 48.032 51.4348 48.032C50.8988 48.032 50.4588 48.18 50.1148 48.476C49.7788 48.772 49.5708 49.184 49.4908 49.712ZM56.3318 53V47.36H57.0278L57.1478 48.344C57.8038 47.592 58.6078 47.216 59.5598 47.216C60.0878 47.216 60.5118 47.328 60.8318 47.552L60.5078 48.332C60.2118 48.14 59.8718 48.044 59.4878 48.044C58.5838 48.044 57.8198 48.472 57.1958 49.328V53H56.3318ZM63.2927 53V47.36H63.9887L64.1087 48.344C64.7647 47.592 65.5687 47.216 66.5207 47.216C67.0487 47.216 67.4727 47.328 67.7927 47.552L67.4687 48.332C67.1727 48.14 66.8327 48.044 66.4487 48.044C65.5447 48.044 64.7807 48.472 64.1567 49.328V53H63.2927ZM72.2456 53.144C71.6776 53.144 71.1776 53.02 70.7456 52.772C70.3136 52.524 69.9776 52.18 69.7376 51.74C69.5056 51.292 69.3896 50.772 69.3896 50.18C69.3896 49.588 69.5056 49.072 69.7376 48.632C69.9776 48.184 70.3136 47.836 70.7456 47.588C71.1776 47.34 71.6776 47.216 72.2456 47.216C72.8216 47.216 73.3216 47.34 73.7456 47.588C74.1776 47.836 74.5096 48.184 74.7416 48.632C74.9816 49.072 75.1016 49.588 75.1016 50.18C75.1016 50.772 74.9816 51.292 74.7416 51.74C74.5096 52.18 74.1776 52.524 73.7456 52.772C73.3216 53.02 72.8216 53.144 72.2456 53.144ZM72.2456 52.328C72.8616 52.328 73.3416 52.136 73.6856 51.752C74.0376 51.368 74.2136 50.844 74.2136 50.18C74.2136 49.516 74.0376 48.992 73.6856 48.608C73.3416 48.224 72.8616 48.032 72.2456 48.032C71.6376 48.032 71.1576 48.224 70.8056 48.608C70.4536 48.992 70.2776 49.516 70.2776 50.18C70.2776 50.844 70.4536 51.368 70.8056 51.752C71.1576 52.136 71.6376 52.328 72.2456 52.328ZM77.2146 53V47.36H77.9106L78.0306 48.344C78.6866 47.592 79.4906 47.216 80.4426 47.216C80.9706 47.216 81.3946 47.328 81.7146 47.552L81.3906 48.332C81.0946 48.14 80.7546 48.044 80.3706 48.044C79.4666 48.044 78.7026 48.472 78.0786 49.328V53H77.2146ZM84.1755 53L82.8675 47.36H83.7195L84.7515 51.944L85.7715 47.948H86.6115L87.6315 51.944L88.6635 47.36H89.4675L88.1595 53H87.1755L86.1795 49.052L85.1715 53H84.1755ZM94.2324 53.144C92.8324 53.144 92.1324 52.436 92.1324 51.02V48.152H90.2724V47.36H92.1324V45.536L92.9964 45.056V47.36H95.3964V48.152H92.9964V50.888C92.9964 51.392 93.1004 51.76 93.3084 51.992C93.5164 52.216 93.8444 52.328 94.2924 52.328C94.7964 52.328 95.2684 52.208 95.7084 51.968L95.9484 52.736C95.4284 53.008 94.8564 53.144 94.2324 53.144ZM99.3934 53V48.152H97.5334V47.36H99.3934V46.46C99.3934 45.044 100.129 44.336 101.601 44.336C102.209 44.336 102.765 44.464 103.269 44.72L103.041 45.488C102.593 45.264 102.137 45.152 101.673 45.152C100.729 45.152 100.257 45.632 100.257 46.592V47.36H102.657V48.152H100.257V53H99.3934Z" fill="white"/>
<defs>
<linearGradient id="paint0_linear_1304_72" x1="102.5" y1="0" x2="102.5" y2="167" gradientUnits="userSpaceOnUse">
<stop stop-color="#D7E7EE"/>
<stop offset="0.479167" stop-color="#A6AFB2"/>
<stop offset="1" stop-color="#767574"/>
</linearGradient>
</defs>
</svg>
