<svg xmlns="http://www.w3.org/2000/svg" viewBox="420 404.67 1080.03 270.63">
  <path fill="#8891b1"
    d="M724.9 561.1c0 1.9-1.7 3.6-3.6 3.6h-66.4c1.7 15.8 14 31.2 31.4 31.2 11.9 0 20.7-4.6 27.4-14.2.7-1 1.7-1.7 2.9-1.7 1.9 0 3.3 1.4 3.3 3.3 0 .7-.2 1.2-.5 1.7-6.7 11.7-20 17.4-33.1 17.4-22.4 0-38.3-20-38.3-41.4s15.9-41.3 38.3-41.3 38.6 20 38.6 41.4zm-7.2-3.2c-1.4-16.9-14-31.4-31.4-31.4s-29.8 14.5-31.4 31.4zm87.9-37.1c1.9 0 3.3 1.7 3.3 3.4 0 1.9-1.4 3.4-3.3 3.4h-17.8v70.2c0 1.7-1.5 3.3-3.4 3.3s-3.4-1.7-3.4-3.3v-70.2h-17.1c-1.9 0-3.3-1.5-3.3-3.4 0-1.7 1.4-3.4 3.3-3.4H781v-25.4c0-1.9 1.5-3.3 3.4-3.3s3.4 1.4 3.4 3.3v25.4zm108.2 34.1v42.4c0 1.9-1.1 3.3-2.8 3.3-1.9 0-2.8-1.4-2.8-3.3v-42.4c0-14.3-8.3-28.6-24.3-28.6-20.5 0-29.6 17.9-28.5 36.2 0 .5-.1 2.6-.1 2.9v31.9c0 1.9-.9 3.3-2.8 3.3s-2.8-1.4-2.8-3.3V458c0-1.7.9-3.3 2.8-3.3s2.8 1.7 2.8 3.3v78.8c6.8-10.2 15.9-17.1 27.8-17.1 19.5 0 30.7 17.1 30.7 35.2zm119.8 6.2c0 1.9-1.7 3.6-3.6 3.6h-66.4c1.7 15.8 14 31.2 31.4 31.2 11.9 0 20.7-4.6 27.4-14.2.7-1 1.7-1.7 2.9-1.7 1.9 0 3.3 1.4 3.3 3.3 0 .7-.2 1.2-.5 1.7-6.7 11.7-20 17.4-33.1 17.4-22.4 0-38.3-20-38.3-41.4s15.9-41.3 38.3-41.3 38.6 20 38.6 41.4zm-7.1-3.2c-1.4-16.9-14-31.4-31.4-31.4s-29.8 14.5-31.4 31.4zm88.8-33.7c0 2.1-1.2 3.3-3.2 3.6-19.5 2.9-28.4 18.8-28.4 37.4V597c0 1.9-1.5 3.3-3.4 3.3s-3.4-1.4-3.4-3.3v-72.6c0-1.9 1.5-3.3 3.4-3.3s3.4 1.4 3.4 3.3v14.8c5.6-9.3 16.5-18.1 27.9-18.1 1.7 0 3.7 1.2 3.7 3.1zm109.2 36.9c0 1.9-1.7 3.6-3.6 3.6h-66.4c1.7 15.8 14 31.2 31.4 31.2 11.9 0 20.7-4.6 27.4-14.2.7-1 1.7-1.7 2.9-1.7 1.9 0 3.3 1.4 3.3 3.3 0 .7-.2 1.2-.5 1.7-6.7 11.7-20 17.4-33.1 17.4-22.4 0-38.3-20-38.3-41.4s15.9-41.3 38.3-41.3c22.4-.1 38.6 20 38.6 41.4zm-7.1-3.2c-1.4-16.9-14-31.4-31.4-31.4s-29.8 14.5-31.4 31.4zm115-33v72.8c0 1.9-1.7 3.3-3.4 3.3-1.9 0-3.4-1.4-3.4-3.3V584c-5.6 10.9-15.3 18.8-27.7 18.8-19.8 0-30.8-17.1-30.8-35.2V525c0-1.7 1.5-3.3 3.4-3.3s3.4 1.7 3.4 3.3v42.6c0 14.3 8.1 28.6 24.1 28.6 22.4 0 27.7-20.9 27.7-44v-27.1c0-1.7 1.5-3.3 3.4-3.3 1.6-.2 3.3 1.5 3.3 3.1zm167.6 29.8v42.6c0 1.9-1.7 3.3-3.4 3.3-1.9 0-3.4-1.4-3.4-3.3v-42.6c0-14.3-8.1-28.3-24.1-28.3-20 0-27.7 21.4-27.7 38.1v32.8c0 1.9-1.7 3.3-3.4 3.3-1.9 0-3.4-1.4-3.4-3.3v-42.6c0-14.3-7.9-28.3-23.8-28.3-20.2 0-28.6 15.9-27.9 37.1v33.8c0 1.9-1.5 3.3-3.4 3.3s-3.4-1.4-3.4-3.3v-72.8c0-1.9 1.5-3.3 3.4-3.3s3.4 1.4 3.4 3.3v12.1c5.6-10.2 16.1-16.9 28-16.9 13.6 0 24.1 8.6 28.4 21.2 5.5-12.4 16.2-21.2 30-21.2 19.6 0 30.7 16.9 30.7 35zm-997-150-83 137.8 83-37.7z">
  </path>
  <path fill="#63688e" d="m503 504.8-83 37.7 83 49.1zm83.2 37.7-83.1-137.8v100.1z"></path>
  <path fill="#464a75" d="m503 591.6 83.1-49.1-83.1-37.7z"></path>
  <path fill="#8891b1" d="m420 558.3 83 117v-68z"></path>
  <path fill="#63688e" d="M503 607.3v68l83.1-117z"></path>
</svg>
