<svg width="256" height="191" viewBox="0 0 256 191" fill="none" xmlns="http://www.w3.org/2000/svg">
<g clip-path="url(#clip0)">
<path d="M174.44 176.658L177.98 175.631C178.608 173.996 179.144 172.325 179.585 170.629L177.923 170.568L179.735 170.042C180.26 167.939 180.475 166.513 180.475 166.513C180.475 166.513 173.295 168.663 167.888 172.86L167.221 177.567L166.582 173.948C165.994 174.473 165.439 175.035 164.921 175.63C159.715 181.649 157.45 188.238 159.861 190.347C162.272 192.456 168.447 189.287 173.652 183.268C175.263 181.313 176.567 179.122 177.518 176.771L174.44 176.658Z" fill="white"/>
<path d="M40.1266 153.361L38.0687 145.343C34.4198 143.816 30.6866 142.493 26.8868 141.381L26.6269 145.107L25.5733 141.002C20.861 139.673 17.6552 139.087 17.6552 139.087C17.6552 139.087 21.9855 155.352 31.068 167.787L41.6511 169.624L33.4294 170.794C34.5723 172.153 35.8007 173.438 37.1071 174.644C50.3195 186.758 65.0357 192.316 69.9766 187.058C74.9175 181.8 68.212 167.718 54.9996 155.604C50.9036 151.848 45.7582 148.835 40.6076 146.463L40.1266 153.361Z" fill="white"/>
<path d="M59.3814 144.369L61.7723 136.389C59.489 133.191 57.0297 130.127 54.406 127.21L52.2721 130.293L53.4963 126.207C50.2168 122.633 47.8218 120.477 47.8218 120.477C47.8218 120.477 43.1018 136.748 44.3472 152.16L52.303 159.194L44.7871 155.972C45.0501 157.733 45.4221 159.475 45.9008 161.189C50.7843 178.45 60.3025 190.825 67.1604 188.83C74.0183 186.835 75.6189 171.225 70.7355 153.964C69.2215 148.613 66.4438 143.362 63.3318 138.662L59.3814 144.369Z" fill="white"/>
<path d="M93.1801 44.5464L72.4329 45.0565L69.6398 20.5693H93.1801V44.5464Z" fill="#2F2E41"/>
<path d="M71.1479 77.8946L63.329 131.481C63.329 131.481 56.5527 150.545 56.0314 159.82L53.9464 173.216L63.329 175.277L73.2329 137.664L86.7856 103.657L85.2218 142.816L82.0943 174.762L91.4769 176.308L97.2107 135.603L103.466 105.718C103.466 105.718 108.157 79.9557 100.86 77.3794L71.1479 77.8946Z" fill="#2F2E41"/>
<path d="M62.657 170.431L61.652 182.939C61.652 182.939 72.4085 189.303 68.9572 190.536C65.5058 191.77 60.7819 190.183 59.8157 189.902C58.7953 189.606 56.8904 189.134 55.4489 188.785C54.7817 188.628 54.181 188.257 53.7349 187.726C53.2888 187.195 53.0207 186.532 52.9699 185.833L52.9672 185.787C52.8803 184.248 56.2735 170.873 56.2735 170.873L62.657 170.431Z" fill="#2F2E41"/>
<path d="M89.4117 170.431L90.2729 182.24C90.2729 182.24 102.728 186.838 99.5171 188.7C96.3066 190.562 91.2905 189.936 90.2729 189.851C88.3967 189.694 83.7274 189.538 83.7274 189.538C83.7274 189.538 82.8642 190.28 82.4853 188.805C82.1063 187.33 82.9907 174.155 82.9907 174.155L89.4117 170.431Z" fill="#2F2E41"/>
<path d="M81.9004 34.2821C76.2125 34.2821 71.6015 29.8968 71.6015 24.4873C71.6015 19.0777 76.2125 14.6924 81.9004 14.6924C87.5883 14.6924 92.1992 19.0777 92.1992 24.4873C92.1992 29.8968 87.5883 34.2821 81.9004 34.2821Z" fill="#FFB8B8"/>
<path d="M76.5994 30.364L74.5441 41.8568L83.2785 46.0358L85.3334 31.4087L76.5994 30.364Z" fill="#FFB8B8"/>
<path d="M75.5249 83.9555L86.1255 91.7503C86.1255 91.7503 90.6686 103.702 94.2022 101.624C97.7357 99.5452 90.1639 89.152 90.1639 89.152L81.5824 80.3179L75.5249 83.9555Z" fill="#FFB8B8"/>
<path d="M105.874 80.3179L106.912 86.4357C106.912 86.4357 104.317 99.1812 101.204 96.6321C98.0904 94.083 102.242 85.9259 102.242 85.9259L101.723 80.8277L105.874 80.3179Z" fill="#FFB8B8"/>
<path d="M82.0385 42.4585L80.9854 38.3459L74.6673 35.2615L72.5612 37.8318L65.7165 39.8881L73.6142 81.0141C73.6142 81.0141 100.466 82.5563 100.993 78.4437C101.52 74.3311 95.7279 63.0215 95.7279 63.0215C95.7279 63.0215 97.3074 57.3667 96.7809 54.2822L94.6749 41.9444L86.2506 39.3741L84.3266 37.1015L82.565 39.8881L82.0385 42.4585Z" fill="#D0CDE1"/>
<path d="M67.141 41.1829L65.5274 40.1589C65.5274 40.1589 62.3002 40.6709 61.2245 44.767C60.1488 48.863 61.2245 67.2952 63.9138 70.8792C66.6031 74.4633 74.1332 85.2153 74.1332 85.2153L84.3525 80.6073L73.5953 68.8312L70.906 53.9831L67.141 41.1829Z" fill="#D0CDE1"/>
<path d="M90.2375 43.1476L94.3789 42.1179C94.3789 42.1179 96.9672 43.1476 98.0025 46.7517C99.0379 50.3557 104.732 68.3757 104.215 69.9203C103.697 71.4649 108.874 81.762 108.874 81.762L101.626 82.2769L97.4849 71.4649L93.3435 60.6528L90.2375 43.1476Z" fill="#D0CDE1"/>
<path d="M64.746 33.6668C66.8328 32.5479 67.804 30.0365 67.8732 27.7129C67.9425 25.3893 67.3653 23.0897 67.32 20.7655C67.2966 20.29 67.3381 19.8136 67.4434 19.3488C67.6165 18.7719 67.8861 18.2268 68.2415 17.7359C70.9552 13.6758 75.6724 10.8198 80.6411 10.7749C81.3589 10.7657 82.0717 10.8936 82.7392 11.1515C83.2529 11.3524 83.4209 11.3278 83.5194 11.9437C84.6964 11.5645 85.9728 11.6041 87.1228 12.0555C88.2618 12.5077 89.3243 13.1255 90.274 13.888C90.8385 14.2978 91.371 14.748 91.8672 15.2348C94.493 17.8909 95.0977 21.9845 94.337 25.6006C94.0897 26.7763 95.2764 27.9113 96.2582 28.6334C97.24 29.3555 98.3738 30.0185 98.8559 31.1226C99.3197 32.1846 99.065 33.3991 99.1584 34.55C99.2632 35.638 99.6773 36.6757 100.354 37.546C101.031 38.4163 101.943 39.0846 102.989 39.4754C102.775 39.7247 102.497 39.9131 102.183 40.0208C101.87 40.1286 101.532 40.1516 101.206 40.0876C100.525 39.9476 99.8885 39.6516 99.3481 39.224C97.3159 37.7537 95.8618 35.647 95.2286 33.256C94.9402 34.5367 95.0521 35.8576 95.0627 37.1689C95.0375 38.6322 95.3135 40.0856 95.8744 41.4428C96.4449 42.8065 97.4899 43.9299 98.8253 44.6154C97.5374 45.2312 96.118 44.7849 95.0266 43.8765C93.9351 42.9681 93.2907 41.6496 92.8406 40.3201C92.1083 38.1536 91.8113 35.8694 91.9658 33.5929C90.7678 35.5622 90.33 37.8848 90.7313 40.1415C91.1505 42.4425 92.3809 44.5277 94.2092 46.0359C91.0214 46.0096 87.8862 45.2387 85.0659 43.7876C84.3376 43.4653 83.6957 42.9826 83.1905 42.3774C82.2829 41.1481 82.4976 39.4714 82.7522 37.9765C82.9535 36.7945 81.4407 35.0856 82.307 34.2369C82.5644 33.9886 82.9083 33.8442 83.2699 33.8328C84.5727 33.7376 85.8356 33.3513 86.961 32.7036C88.0865 32.056 89.0444 31.1644 89.7607 30.0977C90.7597 28.631 91.3272 26.9246 91.4012 25.1647C91.4005 23.8723 91.114 22.5954 90.5614 21.4212C90.0088 20.2469 89.203 19.203 88.1991 18.3608C87.1952 17.5186 86.017 16.898 84.7448 16.5413C83.4727 16.1847 82.1367 16.1005 80.8282 16.2944C79.5196 16.4883 78.2694 16.9558 77.1629 17.665C76.0565 18.3741 75.1199 19.3082 74.4172 20.4033C73.7145 21.4984 73.2622 22.7288 73.0913 24.0103C72.9204 25.2917 73.0349 26.5941 73.427 27.8284C73.7395 28.8217 73.9634 29.8395 74.0962 30.8705C74.2531 32.0668 74.5026 33.2498 74.8424 34.4093C75.4978 36.6378 76.6082 38.9116 78.6628 40.074C77.9724 40.4429 77.1733 40.4595 76.3911 40.5437C73.8129 40.8211 71.1014 40.7598 68.768 39.6542C66.4343 38.5486 64.5797 36.1941 64.746 33.6668Z" fill="#2F2E41"/>
<path d="M70.6207 23.5078C77.9454 20.565 85.1664 19.9372 92.1992 23.5078V17.5762C92.1992 16.5516 91.7932 15.5689 91.0704 14.8444C90.3476 14.1199 89.3673 13.7129 88.3452 13.7129H73.6654C73.2656 13.7129 72.8697 13.7918 72.5003 13.9452C72.1308 14.0986 71.7952 14.3234 71.5125 14.6068C71.2297 14.8902 71.0055 15.2267 70.8525 15.597C70.6994 15.9673 70.6207 16.3641 70.6207 16.7649V23.5078Z" fill="#2F2E41"/>
<path d="M72.5824 27.4255C72.0407 27.4255 71.6015 26.7677 71.6015 25.9563C71.6015 25.1449 72.0407 24.4871 72.5824 24.4871C73.1241 24.4871 73.5632 25.1449 73.5632 25.9563C73.5632 26.7677 73.1241 27.4255 72.5824 27.4255Z" fill="#FFB8B8"/>
<path d="M-18.636 190.021H181.456V191H-18.636V190.021Z" fill="#3F3D56"/>
<path d="M213.619 0H241.873L256 24.3378L241.873 48.6759H213.619L199.492 24.3378L213.619 0Z" fill="#E6E6E6"/>
<path d="M240.287 45.9442H215.205L202.663 24.3381L215.205 2.73193H240.287L252.829 24.3381L240.287 45.9442Z" fill="white"/>
<path d="M213.619 66.3496H241.873L256 90.6874L241.873 115.025H213.619L199.492 90.6874L213.619 66.3496Z" fill="#E6E6E6"/>
<path d="M240.287 112.294H215.205L202.663 90.6877L215.205 69.0815H240.287L252.829 90.6877L240.287 112.294Z" fill="white"/>
<path d="M213.619 132.699H241.873L256 157.037L241.873 181.375H213.619L199.492 157.037L213.619 132.699Z" fill="#E6E6E6"/>
<path d="M240.287 178.643H215.205L202.663 157.037L215.205 135.431H240.287L252.829 157.037L240.287 178.643Z" fill="white"/>
<path d="M227.746 78.8174C230.106 78.8174 232.414 79.5135 234.376 80.8179C236.339 82.1222 237.868 83.9761 238.772 86.145C239.675 88.314 239.911 90.7007 239.451 93.0033C238.99 95.3059 237.854 97.421 236.185 99.0811C234.516 100.741 232.389 101.872 230.074 102.33C227.759 102.788 225.36 102.553 223.179 101.654C220.999 100.756 219.135 99.2343 217.823 97.2823C216.512 95.3303 215.812 93.0353 215.812 90.6876C215.821 87.5422 217.082 84.5284 219.318 82.3043C221.554 80.0802 224.584 78.8266 227.746 78.8174ZM227.746 82.3784C227.038 82.3784 226.346 82.5873 225.757 82.9786C225.168 83.3699 224.709 83.926 224.438 84.5767C224.167 85.2274 224.097 85.9434 224.235 86.6342C224.373 87.325 224.714 87.9595 225.215 88.4575C225.715 88.9556 226.353 89.2947 227.048 89.4321C227.742 89.5695 228.462 89.499 229.116 89.2295C229.77 88.96 230.33 88.5035 230.723 87.9179C231.116 87.3323 231.326 86.6438 231.326 85.9395C231.323 84.996 230.945 84.0921 230.274 83.4249C229.603 82.7578 228.695 82.3816 227.746 82.3784ZM227.746 99.5217C229.16 99.5153 230.552 99.1658 231.8 98.5035C233.047 97.8412 234.114 96.886 234.906 95.721C234.849 93.3469 230.133 92.0401 227.746 92.0401C225.359 92.0401 220.643 93.3469 220.586 95.721C221.379 96.8852 222.446 97.8396 223.694 98.5018C224.941 99.164 226.332 99.5141 227.746 99.5217Z" fill="#74A7FF"/>
<path d="M227.801 16.0528C228.401 15.4275 229.12 14.9278 229.917 14.5829C230.713 14.2381 231.571 14.0552 232.44 14.0449C233.308 14.0346 234.17 14.1972 234.975 14.5231C235.779 14.8491 236.51 15.3317 237.124 15.9427C237.739 16.5536 238.224 17.2806 238.551 18.0809C238.879 18.8811 239.043 19.7384 239.032 20.6024C239.022 21.4664 238.838 22.3196 238.491 23.1119C238.145 23.9041 237.642 24.6194 237.014 25.2157L227.58 34.599L218.368 25.4361C217.165 24.182 216.504 22.5099 216.525 20.7771C216.545 19.0444 217.247 17.3884 218.479 16.163C219.71 14.9377 221.375 14.2402 223.117 14.2196C224.86 14.199 226.541 14.857 227.801 16.0528Z" fill="#74A7FF"/>
<path d="M220.373 150.134C220.373 154.185 227.746 163.077 227.746 163.077C227.746 163.077 235.12 154.185 235.12 150.134C235.12 149.171 234.93 148.217 234.56 147.326C234.189 146.436 233.646 145.627 232.962 144.945C232.277 144.264 231.464 143.723 230.569 143.354C229.674 142.986 228.715 142.796 227.746 142.796C226.777 142.796 225.818 142.986 224.923 143.354C224.028 143.723 223.215 144.264 222.531 144.945C221.846 145.627 221.303 146.436 220.933 147.326C220.562 148.217 220.372 149.171 220.373 150.134Z" fill="#74A7FF"/>
<path d="M227.746 153.016C226.146 153.016 224.849 151.726 224.849 150.135C224.849 148.543 226.146 147.253 227.746 147.253C229.346 147.253 230.643 148.543 230.643 150.135C230.643 151.726 229.346 153.016 227.746 153.016Z" fill="white"/>
<path d="M228.009 171.274C226.41 171.274 225.113 169.984 225.113 168.393C225.113 166.801 226.41 165.511 228.009 165.511C229.609 165.511 230.906 166.801 230.906 168.393C230.906 169.984 229.609 171.274 228.009 171.274Z" fill="#74A7FF"/>
</g>
<defs>
<clipPath id="clip0">
<rect width="256" height="191" transform="matrix(-1 0 0 1 256 0)" fill="white"/>
</clipPath>
</defs>
</svg>
