<svg width="322" height="207" viewBox="0 0 322 207" fill="none" xmlns="http://www.w3.org/2000/svg">
<g clip-path="url(#clip0)">
<path d="M70.6705 24.2668H70.6706C78.3231 24.2668 84.5267 31.1626 84.5267 39.669V50.4764H81.2082L79.287 46.4722L79.7673 50.4764H58.4372L56.6906 46.8362L57.1272 50.4764H54.7257V41.9906C54.7257 32.2021 61.8644 24.2668 70.6705 24.2668Z" fill="#2F2E41"/>
<path d="M152.343 207C69.311 207 2.00009 202.475 2.00009 196.892C2.00009 191.31 69.311 186.785 152.343 186.785C235.375 186.785 302.686 191.31 302.686 196.892C302.686 202.475 235.375 207 152.343 207Z" fill="white"/>
<path d="M253.625 193.289C253.692 193.181 255.252 190.571 255.793 185.153C256.289 180.182 255.97 171.804 251.631 160.116C243.413 137.974 253.526 120.109 253.629 119.932L253.13 119.642C253.104 119.687 250.494 124.242 248.953 131.495C246.916 141.11 247.657 151.109 251.091 160.317C259.296 182.421 253.196 192.885 253.133 192.988L253.625 193.289Z" fill="#3F3D56"/>
<path d="M256.839 118.631C254.769 118.631 253.091 116.95 253.091 114.877C253.091 112.804 254.769 111.123 256.839 111.123C258.909 111.123 260.587 112.804 260.587 114.877C260.587 116.95 258.909 118.631 256.839 118.631Z" fill="#74A7FF"/>
<path d="M245.018 132.493C242.948 132.493 241.27 130.812 241.27 128.739C241.27 126.665 242.948 124.985 245.018 124.985C247.088 124.985 248.766 126.665 248.766 128.739C248.766 130.812 247.088 132.493 245.018 132.493Z" fill="#3F3D56"/>
<path d="M253.091 141.734C251.021 141.734 249.343 140.053 249.343 137.98C249.343 135.907 251.021 134.226 253.091 134.226C255.161 134.226 256.839 135.907 256.839 137.98C256.839 140.053 255.161 141.734 253.091 141.734Z" fill="#74A7FF"/>
<path d="M243.288 149.532C241.218 149.532 239.54 147.851 239.54 145.777C239.54 143.704 241.218 142.023 243.288 142.023C245.358 142.023 247.036 143.704 247.036 145.777C247.036 147.851 245.358 149.532 243.288 149.532Z" fill="#74A7FF"/>
<path d="M255.974 161.661C253.904 161.661 252.226 159.98 252.226 157.906C252.226 155.833 253.904 154.152 255.974 154.152C258.044 154.152 259.722 155.833 259.722 157.906C259.722 159.98 258.044 161.661 255.974 161.661Z" fill="#3F3D56"/>
<path d="M251.361 193.427C251.361 193.427 255.109 184.186 243.865 177.255L251.361 193.427Z" fill="#3F3D56"/>
<path d="M255.971 193.259C255.971 193.259 257.677 183.432 270.88 183.516L255.971 193.259Z" fill="#3F3D56"/>
<path d="M77.3589 43.6913C77.3589 43.6913 73.0341 53.7988 78.8005 55.8203L73.0341 74.8802L63.2312 74.3027L60.6363 67.9494L61.2129 58.4194L62.0779 52.0661C62.0779 52.0661 68.1326 53.5101 67.556 42.825L77.3589 43.6913Z" fill="#FFB8B8"/>
<path d="M79.6655 55.5315C79.6655 55.5315 89.1801 54.6651 88.3152 61.596C87.4502 68.5269 86.5852 69.9708 86.5852 69.9708L85.7203 80.3671L90.9101 83.5438H95.8115C95.8115 83.5438 110.804 87.0092 103.308 90.7634C95.8115 94.5177 93.2166 87.8756 93.2166 87.8756C93.2166 87.8756 79.3772 87.8756 78.5122 85.5653C77.6473 83.255 79.6655 55.5315 79.6655 55.5315Z" fill="#FFB8B8"/>
<path d="M61.2128 52.6436C61.2128 52.6436 52.2748 49.4669 51.6982 56.3978C51.1215 63.3287 51.1215 63.9063 51.1215 63.9063L49.3916 73.725C49.3916 73.725 45.9317 82.3886 45.9317 84.9877C45.9317 87.5868 43.3368 95.6728 43.3368 95.6728C43.3368 95.6728 39.877 106.935 43.6251 106.647C47.3733 106.358 47.95 94.5176 47.95 94.5176L55.7347 78.9232L58.0412 69.3932L61.2128 52.6436Z" fill="#FFB8B8"/>
<path d="M78.2238 54.3764H80.5304L80.8187 66.5054C80.8187 66.5054 84.5669 71.7036 79.9538 76.3241L78.8005 83.8326L57.753 82.9662L56.3114 75.169C56.3114 75.169 53.4281 68.8157 57.4647 63.04L61.2128 51.1997H63.2311C63.2311 51.1997 58.5566 68.4628 68.4209 68.8157C76.4939 69.1045 78.2238 54.3764 78.2238 54.3764Z" fill="#74A7FF"/>
<path d="M77.6472 82.3886L79.3771 88.1643C79.3771 88.1643 115.417 189.817 104.461 192.416C93.5049 195.015 78.2238 198.481 76.7822 195.882C75.3406 193.283 67.8442 117.332 67.8442 117.332C67.8442 117.332 68.9975 196.748 65.2494 196.748C61.5012 196.748 36.7055 197.326 35.2639 193.571C33.8223 189.817 48.2384 89.3195 56.5997 87.0092L58.9063 81.811L77.6472 82.3886Z" fill="#2F2E41"/>
<path d="M56.888 79.5007L79.6654 80.3671C79.6654 80.3671 80.705 88.1643 79.6654 88.1643C79.3771 88.1643 55.7347 90.1858 56.023 86.7204C56.3113 83.255 56.888 79.5007 56.888 79.5007Z" fill="#3F3D56"/>
<path d="M174.667 134.515C174.666 140.657 176.395 146.674 179.656 151.876C182.917 157.077 187.576 161.252 193.1 163.919C193.103 163.919 193.103 163.919 193.106 163.922C194.096 164.401 195.11 164.828 196.145 165.201C196.309 165.265 196.476 165.322 196.646 165.377C196.992 165.501 197.344 165.614 197.699 165.721C198.428 165.946 199.168 166.145 199.919 166.319H199.922L199.942 166.325L199.988 166.333C200.086 166.356 200.187 166.379 200.288 166.4C200.847 166.524 201.412 166.631 201.983 166.72C203.723 167.006 205.484 167.149 207.248 167.148C208.194 167.148 209.133 167.107 210.059 167.026C210.109 167.024 210.159 167.02 210.209 167.012C212.747 166.782 215.249 166.256 217.665 165.444C218.022 165.322 218.38 165.195 218.732 165.06C224.296 162.961 229.181 159.378 232.857 154.698C236.533 150.018 238.861 144.42 239.589 138.51C240.316 132.6 239.415 126.603 236.983 121.169C234.551 115.735 230.682 111.071 225.793 107.682C220.904 104.293 215.183 102.308 209.249 101.943C203.314 101.578 197.394 102.846 192.127 105.61C186.861 108.374 182.45 112.528 179.373 117.623C176.295 122.718 174.668 128.56 174.667 134.515Z" fill="#3F3D56"/>
<path d="M211.119 134.881C211.119 134.881 203.477 131.546 199.888 135.069C196.299 138.592 209.498 137.432 211.119 134.881Z" fill="#3F3D56"/>
<path d="M197.924 119.064C200.492 114.717 205.573 114.515 205.573 114.515C205.573 114.515 210.523 113.881 213.699 120.5C216.659 126.67 220.745 132.627 214.357 134.071L213.203 130.474L212.489 134.339C211.579 134.404 210.667 134.42 209.755 134.386C202.914 134.164 196.399 134.45 196.609 131.992C196.888 128.723 195.453 123.246 197.924 119.064Z" fill="#2F2E41"/>
<path d="M196.646 165.377C196.476 165.322 196.309 165.265 196.145 165.201L196.182 165.149L196.646 165.123L199.651 164.961H199.654L200.158 164.935L202.548 164.806L207.752 164.522L210.541 164.372L210.682 164.364H210.716L212.68 164.257L213.32 164.222L213.928 166.457C212.701 166.716 211.459 166.901 210.209 167.012C210.159 167.02 210.109 167.024 210.059 167.026C209.134 167.107 208.194 167.148 207.248 167.148C205.484 167.149 203.724 167.006 201.983 166.72C201.412 166.631 200.847 166.524 200.288 166.4C200.187 166.379 200.086 166.356 199.988 166.333L199.942 166.325L199.922 166.319H199.919C199.169 166.145 198.429 165.946 197.699 165.721L196.646 165.377Z" fill="#2F2E41"/>
<path d="M209.845 128.502C209.845 128.502 208.687 136.156 211.003 137.084C213.319 138.012 206.372 141.955 206.372 141.955H202.435L199.888 136.62C199.888 136.62 202.204 132.445 200.814 128.502C199.425 124.559 209.845 128.502 209.845 128.502Z" fill="#A0616A"/>
<path d="M196.646 165.377V138.243C196.646 138.243 196.94 135.456 199.273 136.181C199.511 136.257 199.743 136.354 199.965 136.47C200.351 136.679 200.719 136.919 201.066 137.189C201.199 137.29 201.334 137.4 201.476 137.518C201.487 137.527 201.499 137.538 201.51 137.547C205.91 141.258 207.992 138.708 208.456 138.243C208.626 138.075 209.07 137.599 209.569 137.062V137.059C209.785 136.828 210.01 136.585 210.223 136.348C210.884 135.635 211.466 134.997 211.466 134.997L213.781 136.851L213.216 150.909L213.084 154.224V154.227L213.04 155.258V155.264L212.68 164.257L212.625 165.614C211.841 165.864 211.045 166.074 210.241 166.244C210.004 166.293 209.753 166.342 209.497 166.388C207.49 166.752 204.964 166.94 203.361 166.076C203.037 165.902 202.698 165.76 202.346 165.652C201.649 165.442 200.924 165.341 200.196 165.354C200.04 165.357 199.887 165.363 199.734 165.371H199.731C199.044 165.42 198.363 165.537 197.699 165.721L196.646 165.377Z" fill="#3F3D56"/>
<path d="M207.752 164.522C208.276 165.196 208.86 165.82 209.497 166.388C209.693 166.567 209.889 166.74 210.088 166.911C210.128 166.945 210.169 166.977 210.209 167.012C212.747 166.782 215.249 166.256 217.665 165.444C218.022 165.322 218.38 165.195 218.732 165.06C218.509 164.495 218.335 163.912 218.21 163.318C216.615 155.833 221.252 144.472 221.655 142.65C221.802 141.994 221.26 141.085 220.392 140.117C218.498 138.012 215.053 135.632 213.781 134.997C212.817 134.565 211.737 134.465 210.711 134.714H210.708C210.386 134.78 210.07 134.875 209.765 134.997V135C209.762 135.043 209.73 135.372 209.676 135.935C209.647 136.244 209.612 136.62 209.569 137.059V137.062C209.491 137.882 209.393 138.904 209.278 140.071V140.074C208.583 147.262 207.326 159.772 206.836 161.9C206.654 162.689 207.058 163.601 207.752 164.522Z" fill="#D0CDE1"/>
<path d="M196.646 165.377C196.476 165.322 196.309 165.265 196.145 165.201C195.11 164.828 194.096 164.401 193.106 163.922C194.588 159.584 190.208 145.795 188.954 141.526V141.521C188.807 141.021 188.703 140.651 188.657 140.446C188.193 138.358 195.257 136.389 195.487 135.924C195.666 135.572 198.535 135.216 199.887 135.069C200.305 135.023 200.579 134.997 200.579 134.997C200.937 135.274 201.21 136.071 201.424 137.229C201.444 137.322 201.461 137.42 201.476 137.518C201.628 138.413 201.747 139.496 201.842 140.712C202.367 147.342 202.188 157.82 202.666 162.134C202.763 163.025 202.724 163.926 202.548 164.805C202.496 165.091 202.428 165.373 202.346 165.652C202.246 166.014 202.124 166.371 201.983 166.72C201.412 166.631 200.847 166.524 200.288 166.4C200.187 166.379 200.086 166.356 199.988 166.333L199.942 166.324L199.922 166.319H199.919C199.169 166.145 198.429 165.946 197.699 165.721L196.646 165.377Z" fill="#D0CDE1"/>
<path d="M198.383 126.299C198.127 126.299 197.92 125.884 197.92 125.371C197.92 124.859 198.127 124.443 198.383 124.443C198.639 124.443 198.846 124.859 198.846 125.371C198.846 125.884 198.639 126.299 198.383 126.299Z" fill="#A0616A"/>
<path d="M212.045 126.299C211.789 126.299 211.582 125.884 211.582 125.371C211.582 124.859 211.789 124.443 212.045 124.443C212.301 124.443 212.508 124.859 212.508 125.371C212.508 125.884 212.301 126.299 212.045 126.299Z" fill="#A0616A"/>
<path d="M196.646 165.377C196.476 165.322 196.309 165.264 196.145 165.201C195.11 164.828 194.096 164.401 193.106 163.922C193.106 163.923 193.106 163.925 193.105 163.926C193.105 163.928 193.104 163.929 193.103 163.93C193.103 163.926 193.102 163.922 193.1 163.919C191.37 154.77 189.536 144.983 188.954 141.526V141.52C188.853 140.92 188.789 140.513 188.772 140.331C188.542 138.012 194.331 138.012 194.331 138.012L195.254 142.681L196.646 149.736L197.125 152.159L199.653 164.961L199.734 165.371L199.922 166.319H199.919C199.169 166.145 198.429 165.946 197.699 165.721L196.646 165.377Z" fill="#D0CDE1"/>
<path d="M210.209 167.012C212.747 166.782 215.249 166.255 217.665 165.444C217.847 164.742 218.028 164.031 218.21 163.318C220.462 154.467 222.581 145.101 222.581 143.346C222.581 141.893 221.569 140.845 220.392 140.117C219.273 139.462 218.058 138.986 216.791 138.708C216.791 138.708 216.053 141.783 214.992 146.219C214.424 148.587 213.767 151.342 213.083 154.224V154.227C212.288 157.571 211.454 161.083 210.682 164.364C210.558 164.895 210.435 165.419 210.313 165.935V165.946C210.311 165.95 210.31 165.954 210.31 165.958C210.287 166.053 210.264 166.148 210.241 166.244C210.189 166.469 210.137 166.691 210.088 166.911C210.076 166.948 210.068 166.986 210.059 167.026C210.109 167.024 210.159 167.019 210.209 167.012Z" fill="#D0CDE1"/>
<path opacity="0.2" d="M215.519 145.55L210.308 165.958C210.308 165.958 212.74 148.101 215.519 145.55Z" fill="black"/>
<path opacity="0.2" d="M201.983 166.72L200.288 166.391V166.4C200.847 166.524 201.412 166.631 201.983 166.72Z" fill="black"/>
<path opacity="0.2" d="M195.254 142.681L196.646 149.736L197.125 152.159L199.651 164.961H199.653L199.731 165.371H199.734L199.919 166.319H199.922L199.942 166.324L199.988 166.333L200.288 166.391C200.262 166.067 200.23 165.721 200.195 165.354C200.184 165.218 200.172 165.08 200.158 164.935C199.616 159.035 198.46 148.844 196.646 144.576C196.219 143.571 195.755 142.895 195.254 142.681Z" fill="black"/>
<path d="M205.214 132.213C201.505 132.213 198.499 129.202 198.499 125.487C198.499 121.772 201.505 118.761 205.214 118.761C208.923 118.761 211.929 121.772 211.929 125.487C211.929 129.202 208.923 132.213 205.214 132.213Z" fill="#A0616A"/>
<path d="M199.059 118.645L204.079 116.011L211.01 117.088L212.444 123.433L208.874 123.295L207.877 120.964V123.257L206.23 123.193L205.274 119.482L204.676 123.433L198.82 123.313L199.059 118.645Z" fill="#2F2E41"/>
<path d="M256.839 93.2181C256.839 98.399 258.071 103.505 260.432 108.115C262.794 112.724 266.217 116.705 270.419 119.726C271.567 120.555 272.768 121.308 274.015 121.978C280.844 125.64 288.75 126.751 296.322 125.115C297.934 124.768 299.517 124.297 301.056 123.705C306.603 121.582 311.465 117.98 315.117 113.289C318.769 108.599 321.071 102.998 321.775 97.0917C322.48 91.1856 321.559 85.1991 319.113 79.779C316.667 74.3589 312.789 69.7114 307.898 66.3388C303.006 62.9661 297.287 60.9966 291.359 60.6429C285.431 60.2893 279.52 61.5651 274.263 64.3324C269.007 67.0997 264.605 71.2533 261.534 76.3443C258.463 81.4353 256.84 87.2701 256.839 93.2181Z" fill="#3F3D56"/>
<path d="M291.474 91.0902C287.336 91.0902 283.981 87.73 283.981 83.585C283.981 79.44 287.336 76.0798 291.474 76.0798C295.613 76.0798 298.968 79.44 298.968 83.585C298.968 87.73 295.613 91.0902 291.474 91.0902Z" fill="#FFB8B8"/>
<path d="M294.401 89.3312C294.401 89.3312 293.465 93.7874 293.465 94.2565C293.465 94.7256 289.016 96.8364 289.016 96.8364L285.035 96.1328L283.63 91.9111C283.63 91.9111 285.972 88.3931 285.972 86.9858L294.401 89.3312Z" fill="#FFB8B8"/>
<path d="M289.42 125.851C291.74 125.852 294.054 125.605 296.322 125.115C296.434 122.819 296.509 120.289 296.509 120.289L298.793 113.653L303.533 99.8861L293.773 92.4239C293.773 92.4239 291.357 96.3658 287.845 95.1934C286.869 94.8965 286.011 94.2983 285.394 93.4842C284.776 92.67 284.432 91.6814 284.409 90.6594L272.858 94.7255L274.854 110.941L274.966 111.848L274.015 121.978C278.75 124.529 284.043 125.859 289.42 125.851Z" fill="#D0CDE1"/>
<path d="M297.972 77.5381C297.972 77.5381 295.593 72.3753 291.034 73.5667C286.474 74.7581 283.897 76.5453 283.698 78.3324C283.5 80.1196 283.797 82.8003 283.797 82.8003C283.797 82.8003 284.293 79.1267 287.465 79.921C290.637 80.7153 295.593 80.1196 295.593 80.1196L296.386 87.2682C296.386 87.2682 297.279 85.9775 298.27 86.7718C299.261 87.5661 301.145 79.1267 297.972 77.5381Z" fill="#2F2E41"/>
<path d="M307.852 120.127L306.344 107.392C306.578 102.465 303.533 99.8862 303.533 99.8862H300.021L297.447 108.564L298.793 113.653L300.488 120.055L300.958 120.76C300.958 120.76 300.488 121.461 300.725 121.698C300.958 121.932 301.192 122.871 301.192 122.871C301.192 122.871 301.143 123.206 301.056 123.705C303.456 122.788 305.737 121.586 307.852 120.127Z" fill="#D0CDE1"/>
<path d="M264.661 114.43C266.361 116.42 268.294 118.199 270.419 119.726C270.739 119.157 271.007 118.561 271.221 117.944L274.854 110.941L277.307 106.216L276.84 94.021L272.858 94.7256C272.858 94.7256 270.517 97.0706 269.58 99.8862L267.706 108.327L264.664 114.427L264.661 114.43Z" fill="#D0CDE1"/>
<path d="M97.6855 74.4471C97.6826 80.0494 99.1209 85.5581 101.862 90.4418C104.602 95.3255 108.553 99.4197 113.333 102.329C113.909 102.682 114.498 103.014 115.097 103.332C115.991 103.805 116.911 104.238 117.851 104.622V104.625C118.151 104.749 118.45 104.868 118.753 104.98C118.894 105.035 119.039 105.09 119.183 105.142C122.737 106.425 126.487 107.081 130.266 107.08C132.747 107.082 135.221 106.801 137.638 106.242C138.894 105.951 140.131 105.585 141.343 105.145H141.346C142.884 104.587 144.378 103.913 145.815 103.129C146.19 102.927 146.559 102.716 146.922 102.497C147.176 102.347 147.424 102.194 147.672 102.038C152.46 99.0073 156.377 94.7789 159.036 89.7696C161.695 84.7603 163.005 79.1433 162.835 73.4725C162.666 67.8018 161.023 62.2732 158.07 57.4322C155.116 52.5912 150.954 48.605 145.993 45.8669C141.032 43.1287 135.445 41.7331 129.781 41.8178C124.118 41.9026 118.574 43.4646 113.697 46.35C108.82 49.2353 104.778 53.3442 101.971 58.2714C99.1627 63.1986 97.6858 68.7738 97.6855 74.4471Z" fill="#3F3D56"/>
<path d="M134.022 69.6831C134.022 69.6831 133.829 74.7056 134.986 75.8646C136.143 77.0236 129.2 81.0803 129.2 81.0803L125.15 74.7056C125.15 74.7056 126.693 72.0012 126.307 69.6831L134.022 69.6831Z" fill="#A0616A"/>
<path d="M130.646 72.4841C126.812 72.4841 123.703 69.3706 123.703 65.5299C123.703 61.6892 126.812 58.5757 130.646 58.5757C134.481 58.5757 137.589 61.6892 137.589 65.5299C137.589 69.3706 134.481 72.4841 130.646 72.4841Z" fill="#A0616A"/>
<path d="M118.88 103.369C118.837 103.906 118.795 104.443 118.753 104.981C118.894 105.035 119.039 105.09 119.183 105.142C122.737 106.426 126.487 107.081 130.266 107.08C132.747 107.082 135.221 106.801 137.638 106.243C138.894 105.951 140.131 105.585 141.343 105.145L141.346 105.171C141.349 105.163 141.349 105.154 141.346 105.145C141.302 104.556 141.192 103.974 141.017 103.41V103.407C140.856 102.812 140.637 102.124 140.386 101.365C140.115 100.553 140.098 98.7803 140.155 97.114C140.161 96.987 140.164 96.857 140.17 96.7328C140.193 96.1928 140.222 95.6759 140.251 95.2167C140.317 94.18 140.386 93.4436 140.386 93.4436L144.63 82.0452L134.38 74.5483C133.775 76.5149 132.477 76.4456 132.477 76.4456C126.976 76.8239 125.964 73.0177 125.932 72.8935V72.8906L116.086 79.3421L120.134 89.1926C120.134 89.1926 119.97 90.8618 119.736 93.4089C119.702 93.7843 119.667 94.18 119.627 94.5929C119.402 97.0938 119.128 100.21 118.88 103.369Z" fill="#D0CDE1"/>
<path d="M139.905 95.277L140.106 96.7441L140.155 97.1137L141.012 103.38L141.018 103.406V103.409L141.343 105.145L141.346 105.171C141.349 105.162 141.349 105.153 141.346 105.145C142.884 104.587 144.378 103.913 145.815 103.129C146.19 102.927 146.559 102.716 146.922 102.497C146.683 101.749 146.4 101.016 146.075 100.302L145.487 95.716L145.305 94.3125L140.251 95.2164L139.905 95.277Z" fill="#A0616A"/>
<path d="M141.832 81.7563L144.629 82.0461C144.629 82.0461 146.461 95.6647 145.883 95.6647C145.304 95.6647 138.747 97.2101 138.554 96.8238C138.361 96.4374 141.832 81.7563 141.832 81.7563Z" fill="#D0CDE1"/>
<path d="M136.003 58.4015L137.255 57.9456C137.255 57.9456 134.638 55.3244 130.997 55.5524L132.021 54.5267C132.021 54.5267 129.518 53.615 127.242 56.0082C126.046 57.2663 124.662 58.7451 123.799 60.4109H122.459L123.018 61.5316L121.06 62.6522L123.07 62.4509C122.88 63.4184 122.945 64.419 123.26 65.3533L123.715 66.6069C123.715 66.6069 125.536 62.96 125.536 62.5042V63.6438C125.536 63.6438 126.787 62.6181 126.787 61.9344L127.47 62.7321L127.811 61.4785L132.021 62.7321L131.338 61.7064L133.955 62.0483L132.931 60.7947C132.931 60.7947 135.89 62.2762 136.003 63.5299C136.117 64.7835 137.596 66.3789 137.596 66.3789L138.279 65.2393C138.279 65.2393 139.303 60.1109 136.003 58.4015Z" fill="#2F2E41"/>
<path d="M113.333 102.329C113.909 102.682 114.498 103.014 115.097 103.332C115.991 103.805 116.911 104.238 117.851 104.622V104.625C118.151 104.749 118.451 104.868 118.753 104.981C118.895 105.035 119.039 105.09 119.183 105.142L118.88 103.369L120.253 94.6333L120.426 93.5388L119.736 93.4088L113.29 92.1873V100.109C113.29 100.109 113.272 100.966 113.333 102.329Z" fill="#A0616A"/>
<path d="M119.846 78.8589L116.085 79.3418C116.085 79.3418 111.553 93.1536 112.71 93.7332C113.868 94.3127 121.389 94.699 121.389 94.699L119.846 78.8589Z" fill="#D0CDE1"/>
<path d="M268.372 77.9125C263.117 77.9125 258.857 73.6457 258.857 68.3825C258.857 63.1192 263.117 58.8525 268.372 58.8525C273.627 58.8525 277.887 63.1192 277.887 68.3825C277.887 73.6457 273.627 77.9125 268.372 77.9125Z" fill="#74A7FF"/>
<path d="M184.759 119.786C179.504 119.786 175.244 115.52 175.244 110.257C175.244 104.993 179.504 100.727 184.759 100.727C190.014 100.727 194.273 104.993 194.273 110.257C194.273 115.52 190.014 119.786 184.759 119.786Z" fill="#74A7FF"/>
<path d="M106.624 60.8741C101.369 60.8741 97.1089 56.6074 97.1089 51.3442C97.1089 46.0809 101.369 41.8142 106.624 41.8142C111.878 41.8142 116.138 46.0809 116.138 51.3442C116.138 56.6074 111.878 60.8741 106.624 60.8741Z" fill="#74A7FF"/>
<path d="M72.9027 46.9987C68.4285 46.9987 64.8015 43.3659 64.8015 38.8845C64.8015 34.4031 68.4285 30.7703 72.9027 30.7703C77.3769 30.7703 81.0039 34.4031 81.0039 38.8845C81.0039 43.3659 77.3769 46.9987 72.9027 46.9987Z" fill="#FFB8B8"/>
<path d="M66.7315 28.5096C67.3982 27.6128 68.2623 26.8819 69.2567 26.3736C70.2511 25.8654 71.349 25.5934 72.4653 25.5789H72.7373C77.9824 25.5789 82.2344 30.3327 82.2344 36.1969V36.1969H80.4769L80.193 34.033L79.7769 36.1969H69.3533L68.48 34.3662L68.6983 36.1969H66.6477C65.6908 40.9567 67.0657 45.7165 70.7724 50.4764H67.2792L65.5326 46.815L65.9693 50.4764H59.3104L58.0005 42.0551C58.0005 35.7484 61.659 30.4004 66.7315 28.5096Z" fill="#2F2E41"/>
<path d="M64.8168 29.3963C61.9505 29.3963 59.627 27.069 59.627 24.1982C59.627 21.3273 61.9505 19 64.8168 19C67.683 19 70.0066 21.3273 70.0066 24.1982C70.0066 27.069 67.683 29.3963 64.8168 29.3963Z" fill="#2F2E41"/>
</g>
<defs>
<clipPath id="clip0">
<rect width="320" height="188" transform="matrix(-1 0 0 1 322 19)" fill="white"/>
</clipPath>
</defs>
</svg>
