<svg width="246" height="187" viewBox="0 0 246 187" fill="none" xmlns="http://www.w3.org/2000/svg">
<path d="M186.716 5.68359H70.9189V154.719H186.716V5.68359Z" fill="#E6E8EC"/>
<path d="M157.211 32.6616H98.0927V33.3264H157.211V32.6616Z" fill="#3F3D56"/>
<path d="M157.211 37.3149H98.0927V37.9797H157.211V37.3149Z" fill="#3F3D56"/>
<path d="M157.211 41.9685H98.0927V42.6333H157.211V41.9685Z" fill="#3F3D56"/>
<path d="M157.211 67.3169H98.0927V67.9817H157.211V67.3169Z" fill="#74A7FF"/>
<path d="M157.211 71.9702H98.0927V72.635H157.211V71.9702Z" fill="#74A7FF"/>
<path d="M157.211 76.6238H98.0927V77.2886H157.211V76.6238Z" fill="#3F3D56"/>
<path d="M157.211 88.3875H98.0927V89.0522H157.211V88.3875Z" fill="#3F3D56"/>
<path d="M157.211 93.0408H98.0927V93.7055H157.211V93.0408Z" fill="#3F3D56"/>
<path d="M157.211 97.6941H98.0927V98.3588H157.211V97.6941Z" fill="#3F3D56"/>
<path d="M157.211 109.458H98.0927V110.123H157.211V109.458Z" fill="#3F3D56"/>
<path d="M157.211 114.111H98.0927V114.776H157.211V114.111Z" fill="#74A7FF"/>
<path d="M157.211 118.765H98.0927V119.429H157.211V118.765Z" fill="#3F3D56"/>
<path d="M157.211 130.528H98.0927V131.193H157.211V130.528Z" fill="#3F3D56"/>
<path d="M157.211 135.182H98.0927V135.846H157.211V135.182Z" fill="#3F3D56"/>
<path d="M157.211 139.835H98.0927V140.5H157.211V139.835Z" fill="#3F3D56"/>
<path d="M194.889 165.514H70.5034V0H194.889V165.514ZM71.0575 164.959H194.334V0.554485H71.0575V164.959Z" fill="#3F3D56"/>
<path d="M167.324 12.8917C167.324 12.2595 167.491 11.6385 167.807 11.0912C168.123 10.5438 168.578 10.0894 169.125 9.7737C168.578 9.45611 167.956 9.28845 167.324 9.2876C166.691 9.28675 166.069 9.45273 165.521 9.76885C164.973 10.085 164.517 10.54 164.201 11.0883C163.884 11.6365 163.717 12.2585 163.717 12.8917C163.717 13.525 163.884 14.147 164.201 14.6952C164.517 15.2435 164.973 15.6985 165.521 16.0147C166.069 16.3308 166.691 16.4967 167.324 16.4959C167.956 16.495 168.578 16.3274 169.125 16.0098C168.578 15.6941 168.123 15.2397 167.807 14.6923C167.491 14.145 167.324 13.5239 167.324 12.8917Z" fill="#3F3D56"/>
<path d="M172.034 12.8917C172.034 12.2595 172.2 11.6385 172.517 11.0912C172.833 10.5438 173.287 10.0894 173.834 9.7737C173.287 9.45611 172.666 9.28845 172.033 9.2876C171.4 9.28675 170.779 9.45273 170.23 9.76885C169.682 10.085 169.227 10.54 168.91 11.0883C168.594 11.6365 168.427 12.2585 168.427 12.8917C168.427 13.525 168.594 14.147 168.91 14.6952C169.227 15.2435 169.682 15.6985 170.23 16.0147C170.779 16.3308 171.4 16.4967 172.033 16.4959C172.666 16.495 173.287 16.3274 173.834 16.0098C173.287 15.6941 172.833 15.2397 172.517 14.6923C172.2 14.145 172.034 13.5239 172.034 12.8917Z" fill="#74A7FF"/>
<path d="M176.743 16.4959C178.732 16.4959 180.345 14.8823 180.345 12.8918C180.345 10.9012 178.732 9.2876 176.743 9.2876C174.754 9.2876 173.142 10.9012 173.142 12.8918C173.142 14.8823 174.754 16.4959 176.743 16.4959Z" fill="#3F3D56"/>
<path d="M173.364 165.804L173.067 165.693C173.002 165.668 166.499 163.175 163.453 157.522C160.407 151.868 161.899 145.061 161.914 144.993L161.984 144.683L162.281 144.794C162.347 144.819 168.849 147.312 171.895 152.966C174.942 158.619 173.45 165.427 173.435 165.494L173.364 165.804ZM163.941 157.258C166.516 162.038 171.655 164.489 172.957 165.048C173.204 163.651 173.981 158.004 171.408 153.229C168.835 148.454 163.694 146 162.392 145.439C162.144 146.837 161.368 152.483 163.941 157.258Z" fill="#3F3D56"/>
<path d="M165.781 155.538C171.255 158.835 173.364 165.381 173.364 165.381C173.364 165.381 166.596 166.584 161.122 163.288C155.648 159.992 153.54 153.445 153.54 153.445C153.54 153.445 160.307 152.242 165.781 155.538Z" fill="#74A7FF"/>
<path d="M93.9121 44.4974C93.9109 49.9104 92.4445 55.222 89.6685 59.8678C86.8926 64.5136 82.9109 68.32 78.1465 70.8825C77.7892 71.0766 77.4262 71.2623 77.0578 71.4398C72.9692 73.4219 68.4837 74.4477 63.9407 74.4395C59.3976 74.4313 54.9159 73.3895 50.8344 71.3927C50.1308 71.0489 49.4437 70.6773 48.7733 70.2781C48.0919 69.8789 47.4298 69.4492 46.7871 68.9945C42.5605 66.0205 39.1754 62.002 36.9613 57.3301C34.7471 52.6583 33.7794 47.4923 34.1523 42.335C34.5253 37.1778 36.2261 32.2051 39.0893 27.901C41.9525 23.5968 45.8805 20.108 50.4909 17.774C52.312 16.8476 54.2246 16.1136 56.1977 15.5838C57.0675 15.3481 57.9522 15.1522 58.8516 14.996C60.5496 14.7013 62.2699 14.5538 63.9932 14.5552C64.3478 14.5552 64.6996 14.5607 65.0515 14.5774C65.3091 14.5829 65.5667 14.594 65.8244 14.6106C68.5177 14.7717 71.1766 15.2987 73.728 16.1771C73.9468 16.2519 74.1656 16.3295 74.3817 16.4099C75.1352 16.6872 75.8721 16.9958 76.5924 17.3359C81.7667 19.7393 86.1465 23.5733 89.2152 28.3857C92.2839 33.1982 93.9136 38.7885 93.9121 44.4974Z" fill="#3F3D56"/>
<path d="M75.6711 13.8786C72.9491 7.45102 66.02 6.2371 66.02 6.2371C66.02 6.2371 59.3483 4.45585 53.7765 12.939C48.5832 20.8459 41.8861 28.2541 50.3793 31.4101L52.6228 26.6948L52.892 32.1214C54.127 32.3788 55.3752 32.5683 56.631 32.6892C66.0516 33.647 74.9321 35.2396 75.0965 31.8323C75.3152 27.3029 78.2902 20.0633 75.6711 13.8786Z" fill="#2F2E41"/>
<path d="M51.4772 66.2637L51.2555 68.0436L50.8345 71.3927C50.1308 71.0489 49.4438 70.6774 48.7734 70.2782C48.0919 69.8789 47.4298 69.4492 46.7871 68.9945L46.8536 67.2673L46.9284 65.3516L50.0034 65.9698L51.4772 66.2637Z" fill="#FFB8B8"/>
<path d="M82.4294 68.0824C81.0842 69.1364 79.6514 70.0732 78.1465 70.8826L76.6949 65.8506L76.5038 65.188L76.0273 63.5329L76.5398 63.4525L81.7867 62.6235L81.9557 64.0513L82.4294 68.0824Z" fill="#FFB8B8"/>
<path d="M66.0246 27.1328C70.5443 27.1328 74.2082 23.466 74.2082 18.9429C74.2082 14.4197 70.5443 10.7529 66.0246 10.7529C61.505 10.7529 57.8411 14.4197 57.8411 18.9429C57.8411 23.466 61.505 27.1328 66.0246 27.1328Z" fill="#FFB8B8"/>
<path d="M60.4173 22.1277C60.4173 22.1277 61.0235 32.4409 59.205 33.0476C57.3864 33.6543 68.6009 33.0476 68.6009 33.0476C68.6009 33.0476 67.0854 26.6777 68.6009 24.8577C70.1164 23.0377 60.4173 22.1277 60.4173 22.1277Z" fill="#FFB8B8"/>
<path d="M68.7525 31.3795C68.7525 31.3795 60.872 30.7728 59.3565 31.3795C57.8411 31.9862 53.5977 35.0195 53.5977 35.0195L55.7194 54.1293L72.9958 57.7693L75.7237 53.826L78.4515 48.0627L77.2392 40.7827L76.9361 36.5361L68.7525 31.3795Z" fill="#D0CDE1"/>
<path d="M52.0823 36.2327C52.0823 36.2327 48.1421 37.1427 47.839 40.176C47.5359 43.2093 47.5359 50.7926 47.839 52.0059C48.1421 53.2192 47.839 53.8259 47.5359 54.1292C47.2328 54.4325 46.6266 53.8259 47.2328 54.7359C47.839 55.6459 47.839 55.6459 47.5359 56.5558C47.2328 57.4658 46.3235 56.2525 46.9297 57.7692C47.5359 59.2858 47.839 59.5892 47.5359 59.8925C47.2328 60.1958 46.3235 67.1724 46.3235 67.1724L51.4761 68.0824L56.6287 50.1859L52.0823 36.2327Z" fill="#D0CDE1"/>
<path d="M75.7237 36.2327C76.2993 36.2648 76.8559 36.4505 77.3355 36.7706C77.8152 37.0906 78.2006 37.5333 78.4516 38.0527C79.3609 39.8726 81.7856 51.7026 81.4825 52.6125C81.1794 53.5225 80.5733 52.3092 81.1794 54.1292C81.7856 55.9492 81.1794 55.6459 81.4825 56.8592C81.7856 58.0725 80.2702 56.8592 81.4825 58.0725C82.6949 59.2858 83.3011 59.5892 82.6949 60.1958C82.0887 60.8025 81.1794 59.5892 82.0887 60.8025C82.998 62.0158 82.998 63.8358 82.998 63.8358L75.7237 65.3524L73.6021 48.3659L75.7237 36.2327Z" fill="#D0CDE1"/>
<path d="M76.6949 65.8506L77.0578 71.4398C72.9692 73.422 68.4838 74.4477 63.9407 74.4396C59.3977 74.4314 54.9159 73.3895 50.8345 71.3927C50.1308 71.0489 49.4438 70.6774 48.7734 70.2782C49.0061 69.4215 49.2416 68.5676 49.4826 67.7303C49.6543 67.1343 49.8279 66.5474 50.0034 65.9699C51.3636 61.5146 52.8291 57.7247 54.2031 56.2525C54.2031 56.2525 54.2031 52.9173 54.8098 52.6123C55.1014 52.3836 55.3239 52.0784 55.4525 51.7307C55.6783 51.2298 55.869 50.7138 56.0232 50.1864L55.0203 47.8521L50.5325 37.3945C50.4047 37.0954 50.3958 36.7587 50.5075 36.4532C50.6192 36.1477 50.8431 35.8964 51.1336 35.7504L52.6213 35.0047C52.772 34.9298 52.936 34.8854 53.1039 34.8742C53.2718 34.8629 53.4402 34.885 53.5996 34.9391C53.7589 34.9932 53.906 35.0783 54.0324 35.1894C54.1588 35.3006 54.262 35.4357 54.3361 35.5869L61.1759 49.5793L68.7526 54.4338L74.0659 52.0689L74.2072 52.0052C74.2072 52.0052 78.1493 45.9391 76.9359 42.9061C76.4179 41.6113 75.8472 39.8813 75.3569 38.3205C75.0715 37.4 74.8167 36.5378 74.6172 35.8613C74.5858 35.7539 74.5882 35.6394 74.624 35.5333C74.6599 35.4272 74.7274 35.3348 74.8176 35.2685C74.9077 35.2022 75.0161 35.1653 75.1279 35.1627C75.2398 35.1601 75.3497 35.1921 75.4428 35.2542L76.4761 35.9445C76.7103 36.1017 76.8956 36.3217 77.0107 36.5794C77.0586 36.6801 77.0939 36.7862 77.116 36.8954L79.3599 47.7606L76.3292 54.1288V60.1949L76.5398 63.4525L76.6506 65.1575L76.6949 65.8506Z" fill="#2F2E41"/>
<path d="M74.1321 11.5435L67.1879 7.90332L57.5983 9.39239L55.6143 18.1621L60.5531 17.9722L61.933 14.7501V17.919L64.2118 17.8314L65.5346 12.7018L66.3612 18.1621L74.4629 17.9969L74.1321 11.5435Z" fill="#2F2E41"/>
<path d="M57.6895 20.5353C58.1917 20.5353 58.5988 19.8223 58.5988 18.9428C58.5988 18.0633 58.1917 17.3503 57.6895 17.3503C57.1873 17.3503 56.7802 18.0633 56.7802 18.9428C56.7802 19.8223 57.1873 20.5353 57.6895 20.5353Z" fill="#FFB8B8"/>
<path d="M238.959 94.1415C238.959 107.431 229.99 118.677 217.629 122.441C215.804 123 213.931 123.386 212.033 123.594C210.875 123.724 209.71 123.789 208.544 123.789C208.11 123.789 207.679 123.781 207.251 123.759H207.246C202.897 123.589 198.634 122.5 194.736 120.563C191.998 119.202 189.48 117.437 187.267 115.326C184.385 112.602 182.087 109.319 180.516 105.676C178.945 102.034 178.132 98.1089 178.128 94.1415C178.128 81.577 186.146 70.8381 197.468 66.5228C198.822 66.0045 200.212 65.5843 201.627 65.2655C206.841 64.0866 212.269 64.2614 217.395 65.7734C217.784 65.8832 218.17 66.0067 218.55 66.1385C218.553 66.1385 218.556 66.1412 218.558 66.1412C219.473 66.449 220.372 66.8026 221.251 67.2008C221.552 67.3326 221.853 67.4726 222.149 67.6209C222.741 67.9063 223.321 68.2129 223.89 68.5405C224.109 68.664 224.326 68.7903 224.54 68.9221C228.034 71.0263 231.066 73.8164 233.454 77.1245C235.625 80.1321 237.203 83.5274 238.1 87.1277C238.673 89.4215 238.962 91.7771 238.959 94.1415Z" fill="#74A7FF"/>
<path d="M241.361 46.0455L245.525 44.78L245.884 41.2056C245.884 41.2056 235.757 37.4768 232.519 44.0724C231.376 46.4012 229.935 47.7998 228.549 48.6347C227.593 49.1885 226.526 49.5236 225.425 49.616C224.324 49.7084 223.216 49.5559 222.18 49.1694C215.162 46.6709 213.509 53.7762 213.509 53.7762C213.509 53.7762 214.116 54.7876 218.442 55.0363C220.595 55.16 222.357 56.7394 223.583 58.2949C226.21 61.6257 231.606 60.6631 232.931 56.6653C232.952 56.6008 232.973 56.5356 232.994 56.4695C235.063 49.861 244.485 55.1227 244.485 55.1227L245.087 49.137L241.361 46.0455Z" fill="#2F2E41"/>
<path d="M212.99 62.2218C215.807 62.2218 218.09 59.9963 218.09 57.2509C218.09 54.5056 215.807 52.28 212.99 52.28C210.174 52.28 207.891 54.5056 207.891 57.2509C207.891 59.9963 210.174 62.2218 212.99 62.2218Z" fill="#2F2E41"/>
<path d="M210.44 83.7624C217.951 83.7624 224.04 77.8276 224.04 70.5067C224.04 63.1858 217.951 57.251 210.44 57.251C202.93 57.251 196.841 63.1858 196.841 70.5067C196.841 77.8276 202.93 83.7624 210.44 83.7624Z" fill="#2F2E41"/>
<path d="M210.015 84.4527C215.179 84.4527 219.365 80.3725 219.365 75.3394C219.365 70.3062 215.179 66.2261 210.015 66.2261C204.852 66.2261 200.666 70.3062 200.666 75.3394C200.666 80.3725 204.852 84.4527 210.015 84.4527Z" fill="#A0616A"/>
<path d="M206.332 82.2436L208.032 91.0807L216.532 89.9761C216.532 89.9761 215.115 83.072 215.965 81.1389L206.332 82.2436Z" fill="#A0616A"/>
<path d="M223.048 62.9122C223.048 62.9122 216.248 57.9413 213.415 59.8744C210.582 61.8075 221.065 68.1592 222.198 67.6069C223.331 67.0546 223.048 62.9122 223.048 62.9122Z" fill="#A0616A"/>
<path d="M229.564 100.469C229.565 100.515 229.563 100.56 229.559 100.606V100.609C229.384 104.556 221.93 116.638 217.629 122.441C215.804 123 213.931 123.386 212.033 123.594C210.875 123.724 209.71 123.789 208.544 123.789C208.11 123.789 207.679 123.78 207.251 123.758H207.246C203.286 122.512 198.583 120.876 195.153 119.586C193.536 118.974 192.201 118.441 191.362 118.062C191.049 117.934 190.75 117.777 190.466 117.593C189.05 116.487 192.167 115.658 193.584 115.383C195 115.106 193.018 112.07 193.018 112.07C187.918 106.821 194.15 102.404 194.15 102.404C194.15 102.404 196.699 97.1554 196.699 95.7746C196.706 95.6722 196.744 95.5744 196.809 95.4946C197.876 94.0232 206.333 91.3577 206.333 91.3577V86.9381L207.209 86.7953L215.827 85.3953L216.531 85.28L217.947 87.4898L224.183 88.3189C224.183 88.3189 229.564 95.5001 229.564 100.469Z" fill="#D0CDE1"/>
<path d="M202.649 100.469C202.649 100.469 198.915 110.56 195.505 118.738C195.386 119.023 195.268 119.306 195.153 119.586C195.012 119.915 194.874 120.242 194.736 120.563C191.998 119.202 189.48 117.436 187.267 115.325C188.799 110.469 191.23 102.753 192.167 99.6425C193.201 96.2138 195.592 95.5852 196.809 95.4946C197.055 95.4718 197.303 95.4736 197.549 95.5001L202.649 100.469Z" fill="#D0CDE1"/>
<path d="M223.331 89.1474L224.181 88.3189C224.181 88.3189 234.947 76.9963 234.664 74.2347C234.664 74.2347 228.998 67.3307 221.915 69.2638C221.915 69.2638 218.798 61.8075 223.615 62.0837C228.431 62.3598 246.28 61.2552 245.997 69.2638C245.713 77.2725 228.714 101.851 228.714 101.851L223.331 89.1474Z" fill="#D0CDE1"/>
<path d="M212.033 123.594C210.875 123.724 209.71 123.789 208.544 123.789C208.11 123.789 207.679 123.78 207.251 123.759H207.246C202.897 123.589 198.634 122.5 194.736 120.563C193.496 119.948 192.3 119.248 191.156 118.469L191.362 118.062V118.06L191.601 117.593L195.505 118.738L212.033 123.594Z" fill="#2F2E41"/>
<path d="M219.322 71.1427C220.3 68.0843 217.117 64.3312 212.212 62.7597C207.307 61.1883 202.538 62.3936 201.559 65.4519C200.581 68.5103 203.764 72.2634 208.669 73.8349C213.574 75.4063 218.343 74.201 219.322 71.1427Z" fill="#2F2E41"/>
<path d="M1.87354e-06 157.058C-0.000539275 158.597 0.116149 160.133 0.349054 161.655C1.4687 168.841 5.16088 175.375 10.7376 180.039C10.8899 180.166 11.0451 180.294 11.203 180.418C11.5299 180.682 11.8623 180.938 12.2003 181.186C12.6878 181.547 13.1865 181.891 13.6962 182.22C17.7034 184.804 22.2688 186.394 27.0131 186.858C31.7575 187.322 36.5439 186.646 40.9751 184.888C41.1856 184.804 41.3961 184.718 41.6039 184.63C41.9364 184.488 42.2632 184.341 42.5901 184.186C43.4184 183.801 44.2264 183.377 45.0141 182.914C45.8258 182.439 46.6107 181.929 47.3689 181.383C47.7151 181.134 48.0503 180.881 48.3855 180.618L48.3911 180.615C52.8236 177.131 56.1858 172.468 58.0926 167.161V167.158C60.3714 160.772 60.42 153.802 58.2303 147.385C56.0406 140.968 51.7421 135.483 46.0364 131.826C45.7732 131.66 45.5072 131.493 45.2385 131.338C44.9615 131.166 44.6789 131.005 44.3936 130.85C40.5534 128.718 36.288 127.465 31.9052 127.182C31.2487 127.138 30.5866 127.116 29.9189 127.116C29.8857 127.116 29.8524 127.116 29.8192 127.118C28.9216 127.118 28.0351 127.16 27.1597 127.243C19.7341 127.931 12.833 131.37 7.80885 136.885C2.78472 142.401 -0.000161255 149.595 1.87354e-06 157.058Z" fill="#3F3D56"/>
<path d="M60.7552 167.34C60.7552 167.34 69.4934 158.304 71.8235 163.842C74.1537 169.381 63.0854 172.296 63.0854 172.296L60.7552 167.34Z" fill="#FFB8B8"/>
<path d="M11.203 180.418C11.5299 180.682 11.8623 180.938 12.2003 181.186C12.6879 181.547 13.1865 181.891 13.6962 182.22C17.7035 184.804 22.2688 186.394 27.0131 186.858C31.7575 187.322 36.544 186.646 40.9751 184.888C41.1856 184.804 41.3962 184.718 41.6039 184.63C41.9364 184.488 42.2633 184.341 42.5902 184.186L41.8228 183.083C41.2664 182.561 40.6432 182.117 39.9695 181.76C34.7198 178.907 24.8327 178.996 18.1425 179.465C17.1896 179.531 16.3031 179.606 15.5052 179.681C15.0066 179.725 14.5412 179.772 14.1173 179.817C13.9456 179.836 13.7821 179.853 13.627 179.869C12.1338 180.036 11.239 180.166 11.239 180.166L11.203 180.418Z" fill="#2F2E41"/>
<path d="M36.8775 139.998C41.5003 139.998 45.2478 136.248 45.2478 131.621C45.2478 126.995 41.5003 123.244 36.8775 123.244C32.2547 123.244 28.5071 126.995 28.5071 131.621C28.5071 136.248 32.2547 139.998 36.8775 139.998Z" fill="#FFB8B8"/>
<path d="M31.3369 134.401L25.2202 140.814L23.4726 150.725L38.9099 153.348L37.7448 144.312C37.7448 144.312 38.0361 139.94 39.2012 139.065C40.3663 138.191 31.3369 134.401 31.3369 134.401Z" fill="#FFB8B8"/>
<path d="M13.2779 181.042C13.7885 180.878 14.3073 180.74 14.832 180.629C16.1526 180.342 17.4957 180.17 18.8461 180.116C22.0419 179.948 25.2301 180.565 28.1321 181.915C32.3761 183.953 37.4125 184.508 40.8753 184.613C41.1274 184.621 41.3712 184.627 41.6039 184.63C41.9363 184.488 42.2632 184.341 42.5901 184.186C43.4184 183.801 44.2264 183.377 45.0141 182.914L45.003 181.888L44.8202 161.594V161.591L44.7343 151.89L39.2021 145.477L37.7809 143.875L37.105 144.482L33.0853 148.103L27.2262 142.672L25.2205 140.814L15.5994 173.227L14.3583 177.407L13.6269 179.869L13.5134 180.246V180.249L13.2779 181.042Z" fill="#575A89"/>
<path d="M35.6312 152.791C35.6452 154.247 35.7674 155.7 35.9969 157.138C36.9942 163.512 37.8502 174.108 39.9694 181.76C40.2465 182.769 40.5484 183.723 40.8753 184.613L40.9751 184.888C41.1856 184.804 41.3961 184.718 41.6039 184.63C41.9363 184.488 42.2632 184.341 42.5901 184.186C43.4184 183.801 44.2264 183.377 45.0141 182.914C45.8258 182.439 46.6107 181.929 47.3688 181.383L47.2802 181.034V181.031L45.9006 175.503C45.9006 175.503 46.7871 170.876 47.4963 165.7V165.697C48.3107 159.772 48.8925 153.135 47.6486 151.89L37.889 142.955L37.8862 142.957C37.5821 143.442 37.3207 143.952 37.105 144.482C36.4401 146.06 35.598 148.843 35.6312 152.791Z" fill="#D0CDE1"/>
<path d="M5.2663 174.025C6.80834 176.269 8.64907 178.292 10.7376 180.039C10.8899 180.166 11.0451 180.294 11.203 180.418C11.5299 180.682 11.8623 180.938 12.2003 181.186C12.6878 181.547 13.1865 181.892 13.6962 182.221C14.073 181.697 14.4525 181.164 14.832 180.629C15.0564 180.316 15.2808 180 15.5052 179.681C15.8598 179.176 16.2144 178.669 16.5635 178.159C16.6078 178.098 16.6493 178.037 16.6909 177.976C17.1341 177.336 17.5718 176.692 17.9985 176.052C21.1455 171.347 23.7551 166.831 24.0543 164.133C24.4144 160.903 25.143 155.907 25.8826 151.136C26.3591 148.037 26.8412 145.031 27.2262 142.672C27.6916 139.805 28.013 137.887 28.013 137.887C28.013 137.887 12.7488 136.359 10.6101 137.859H10.6074C10.546 137.894 10.4928 137.942 10.4512 137.999C10.4097 138.057 10.3808 138.122 10.3664 138.192C10.1337 139.816 11.3803 154.915 11.8956 161.014V161.017C12.0285 162.581 12.1144 163.551 12.1144 163.551C12.1144 163.551 11.2418 164.718 9.96191 166.59C8.65711 168.5 6.92569 171.142 5.2663 174.025Z" fill="#D0CDE1"/>
<path d="M46.7742 160.053L48.2306 171.421L61.0465 165.883L65.1243 174.336L44.1528 182.207C44.1528 182.207 40.3663 162.093 46.7742 160.053Z" fill="#D0CDE1"/>
<path d="M45.2404 133.154C45.2404 133.154 46.3778 131.925 46.2627 130.386C46.1868 129.511 46.2428 128.629 46.4286 127.77C46.4286 127.77 46.0727 125.251 45.547 123.792C45.0213 122.332 45.4645 121.823 43.2049 121.026C40.9453 120.229 42.3838 117.347 35.7218 119.644C35.4684 119.901 35.1449 120.076 34.7922 120.148C34.4394 120.22 34.0731 120.186 33.7396 120.05C32.5097 119.6 31.7685 121.291 31.7685 121.291C31.7685 121.291 31.0013 120.661 30.5708 121.316C30.1404 121.97 28.0583 120.478 27.2949 125.242C26.5314 130.007 29.1524 134.255 29.1524 134.255C29.1524 134.255 29.5201 126.631 33.8467 126.493C38.1732 126.355 43.066 124.715 43.6729 127.925C43.99 129.723 44.5161 131.478 45.2404 133.154Z" fill="#2F2E41"/>
<path d="M10.7375 180.038C10.8899 180.166 11.0451 180.293 11.203 180.418C11.5298 180.682 11.8623 180.938 12.2003 181.186C12.6878 181.547 13.1865 181.891 13.6962 182.22C16.1507 183.81 18.826 185.028 21.6358 185.835C22.3228 184.072 20.6773 181.879 18.8461 180.116C18.6134 179.891 18.3752 179.672 18.1425 179.464C17.5884 178.974 17.0427 178.53 16.5634 178.159C16.5413 178.142 16.5219 178.128 16.5025 178.112C15.5966 177.413 14.9401 176.983 14.9401 176.983L14.3583 177.407L10.7375 180.038Z" fill="#FFB8B8"/>
<path d="M0.34906 161.654C1.46871 168.841 5.16089 175.375 10.7376 180.038C10.8899 180.166 11.0451 180.293 11.203 180.418C11.5299 180.682 11.8623 180.938 12.2003 181.186L13.5134 180.249V180.246L14.1173 179.817L16.5025 178.112L16.6909 177.976L18.522 176.667L17.9985 176.052L15.5994 173.227L9.9619 166.589L8.61832 165.009L11.8956 161.017V161.014L15.3168 156.847L12.4053 138.191C11.8539 137.903 11.2283 137.787 10.6101 137.859H10.6074C9.94805 137.972 9.27487 138.427 8.9092 139.647C8.2471 141.857 2.90048 155.283 0.34906 161.654Z" fill="#D0CDE1"/>
</svg>
