<svg width="267" height="194" viewBox="0 0 267 194" fill="none" xmlns="http://www.w3.org/2000/svg">
<path d="M114.429 181.431C164.476 181.431 205.048 140.816 205.048 90.7156C205.048 40.6147 164.476 0 114.429 0C64.3808 0 23.809 40.6147 23.809 90.7156C23.809 140.816 64.3808 181.431 114.429 181.431Z" fill="white"/>
<path d="M35.9563 194C55.8144 194 71.9126 191.421 71.9126 188.241C71.9126 185.06 55.8144 182.482 35.9563 182.482C16.0982 182.482 0 185.06 0 188.241C0 191.421 16.0982 194 35.9563 194Z" fill="#F2F2F2"/>
<path d="M211.365 188.146C242.091 188.146 267 184.156 267 179.235C267 174.313 242.091 170.324 211.365 170.324C180.638 170.324 155.73 174.313 155.73 179.235C155.73 184.156 180.638 188.146 211.365 188.146Z" fill="#F2F2F2"/>
<path d="M199.004 93.5815C199.004 93.5815 199.477 95.1621 196.793 96.5846C194.109 98.007 193.32 103.381 196.478 104.961C199.635 106.542 200.583 108.597 199.004 110.019C197.425 111.442 194.583 115.235 198.372 116.183C202.161 117.132 202.635 119.028 201.53 119.818C200.425 120.609 204.056 118.396 204.056 118.396C204.056 118.396 204.688 122.189 208.003 121.241C211.319 120.293 220.634 102.274 215.898 99.7456C211.161 97.2168 199.004 93.5815 199.004 93.5815Z" fill="#2F2E41"/>
<path d="M204.726 108.843C204.726 108.843 206.364 114.582 203.498 114.992C201.719 115.269 200.034 115.972 198.585 117.041L203.907 124.009H213.734L219.876 117.861C219.876 117.861 211.687 111.713 213.325 108.024C214.962 104.335 204.726 108.843 204.726 108.843Z" fill="#FFB9B9"/>
<path opacity="0.1" d="M204.726 108.843C204.726 108.843 206.364 114.582 203.498 114.992C201.719 115.269 200.034 115.972 198.585 117.041L203.907 124.009H213.734L219.876 117.861C219.876 117.861 211.687 111.713 213.325 108.024C214.962 104.335 204.726 108.843 204.726 108.843Z" fill="black"/>
<path d="M207.183 180.161L216.6 183.44L223.151 183.85L222.742 178.112L209.23 174.112L207.183 180.161Z" fill="#FFB9B9"/>
<path d="M219.261 178.931C219.261 178.931 219.261 184.67 220.08 184.67C220.899 184.67 231.954 183.44 235.23 184.67C238.505 185.899 243.418 181.391 240.962 178.931C238.505 176.472 234.498 172.783 231.998 173.603C229.497 174.423 219.261 176.472 219.261 176.472V178.931Z" fill="#575A89"/>
<path d="M189.168 173.603C189.168 173.603 184.254 183.44 187.53 184.26C190.805 185.08 194.49 183.85 194.9 183.44C195.309 183.03 201.041 181.391 201.86 182.211C202.679 183.03 202.679 178.932 202.679 178.932L189.168 173.603Z" fill="#575A89"/>
<path d="M193.262 160.077C193.262 160.077 185.483 170.734 191.215 173.603C196.947 176.472 224.379 176.472 226.427 173.603C228.474 170.734 229.293 161.717 226.427 160.897C223.561 160.077 193.262 160.077 193.262 160.077Z" fill="#2F2E41"/>
<path opacity="0.2" d="M193.262 160.077C193.262 160.077 185.483 170.734 191.215 173.603C196.947 176.472 224.379 176.472 226.427 173.603C228.474 170.734 229.293 161.717 226.427 160.897C223.561 160.077 193.262 160.077 193.262 160.077Z" fill="black"/>
<path d="M208.002 111.713C213.203 111.713 217.419 107.492 217.419 102.285C217.419 97.079 213.203 92.8584 208.002 92.8584C202.801 92.8584 198.585 97.079 198.585 102.285C198.585 107.492 202.801 111.713 208.002 111.713Z" fill="#FFB9B9"/>
<path d="M193.262 117.041L201.451 115.401C201.451 115.401 203.498 121.959 210.049 120.73C216.6 119.5 218.238 115.401 218.238 115.401C218.238 115.401 223.151 117.451 223.561 117.451C223.97 117.451 229.293 119.5 229.293 120.73C229.293 121.959 223.151 134.256 223.151 134.256L223.97 156.389L193.671 155.569L195.719 133.846L193.262 117.041Z" fill="#74A7FF"/>
<path d="M188.758 127.698C188.758 127.698 186.302 149.421 187.939 151.06C189.577 152.7 196.128 157.208 196.128 157.208V152.29L192.853 146.142L196.128 131.796L188.758 127.698Z" fill="#FFB9B9"/>
<path d="M231.135 127.083C231.135 127.083 229.702 149.421 229.702 150.24C229.702 151.06 226.017 153.929 224.789 153.929C223.561 153.929 222.742 151.88 222.742 151.88L225.608 148.601L223.561 131.796L231.135 127.083Z" fill="#FFB9B9"/>
<path d="M227.245 158.438C227.245 158.438 245.67 148.191 246.08 158.438C246.489 168.685 236.663 172.783 236.663 172.783C236.663 172.783 211.277 180.404 210.254 177.618C209.23 174.833 207.183 170.324 208.821 169.914C210.458 169.505 212.506 168.685 213.325 169.505C214.143 170.324 224.379 163.356 224.379 163.356L227.245 158.438Z" fill="#2F2E41"/>
<path opacity="0.2" d="M235.844 157.208C235.844 157.208 232.159 158.848 230.93 160.077C229.702 161.307 224.379 163.356 224.379 163.356" stroke="black" stroke-width="2" stroke-miterlimit="10"/>
<path d="M195.719 117.861L193.262 117.041C193.262 117.041 184.254 126.468 187.12 128.927C189.987 131.386 191.624 132.206 192.443 133.026C193.262 133.846 197.356 134.255 197.356 134.255L195.719 117.861Z" fill="#74A7FF"/>
<path d="M225.608 119.91L229.293 120.73C229.293 120.73 232.159 126.878 232.978 127.697C233.797 128.517 231.749 128.107 230.521 129.747C229.293 131.386 228.064 134.255 225.608 134.255C223.151 134.255 219.876 130.157 219.876 130.157L225.608 119.91Z" fill="#74A7FF"/>
<path d="M194.081 162.127C194.081 162.127 178.522 151.06 173.199 159.258C167.877 167.455 196.128 178.522 200.222 180.161C204.317 181.801 208.002 183.44 208.002 183.44C208.002 183.44 211.687 174.423 211.687 172.784C211.687 171.144 208.821 171.144 208.002 171.144C207.183 171.144 203.498 170.324 202.679 169.095C201.86 167.865 194.081 162.127 194.081 162.127Z" fill="#2F2E41"/>
<path opacity="0.2" d="M185.483 159.258C185.483 159.258 189.577 162.537 193.262 163.356C196.947 164.176 198.175 166.225 198.175 166.225" stroke="black" stroke-width="2" stroke-miterlimit="10"/>
<path d="M191.256 143.847L191.584 161.201C191.594 161.774 191.831 162.32 192.242 162.719C192.653 163.118 193.205 163.339 193.778 163.332L226.039 162.969C226.588 162.963 227.115 162.749 227.513 162.369C227.911 161.989 228.149 161.472 228.181 160.922L229.16 143.931C229.177 143.636 229.134 143.34 229.033 143.062C228.931 142.784 228.775 142.53 228.572 142.314C228.369 142.099 228.124 141.928 227.853 141.811C227.582 141.694 227.289 141.633 226.994 141.633H193.426C193.138 141.633 192.852 141.691 192.586 141.803C192.32 141.914 192.079 142.078 191.877 142.284C191.675 142.49 191.516 142.735 191.41 143.003C191.303 143.271 191.251 143.558 191.256 143.847Z" fill="#575A89"/>
<path d="M208.505 90.4431C208.505 90.4431 209.03 92.194 206.056 93.7699C203.083 95.3457 202.208 101.299 205.707 103.05C209.205 104.801 210.254 107.077 208.505 108.653C206.756 110.228 203.608 114.431 207.805 115.481C212.003 116.532 212.528 118.633 211.304 119.508C210.079 120.384 214.102 117.933 214.102 117.933C214.102 117.933 214.802 122.135 218.475 121.084C222.148 120.034 225.813 100.937 221.718 96.0186C217.911 91.4453 208.505 90.4431 208.505 90.4431Z" fill="#2F2E41"/>
<path d="M207.388 88.6409C207.389 86.0758 215.055 87.919 218.342 91.5005C220.618 93.9807 224.075 97.7121 221.178 100.342C218.281 102.973 226.144 106.421 228.253 107.466C230.361 108.511 234.525 111.708 230.765 113.853C227.006 115.997 227.067 118.162 228.481 118.675C229.896 119.187 225.362 117.913 225.362 117.913C225.362 117.913 225.82 122.148 222 122.128C218.18 122.108 207.221 101.092 209.839 95.2506C212.274 89.8191 207.388 88.6409 207.388 88.6409Z" fill="#2F2E41"/>
<path d="M209.048 88.0787C198.796 87.4607 197.767 95.1858 197.767 95.1858C197.838 99.6564 204.93 97.4781 206.9 98.1445C209.276 96.4332 213.857 93.1953 217.133 90.8845C214.755 89.2081 211.953 88.2357 209.048 88.0787Z" fill="#2F2E41"/>
<path d="M206.127 137.374C206.127 137.374 196.931 94.2297 139.372 62.9319" stroke="#3F3D56" stroke-width="2" stroke-miterlimit="10"/>
<path d="M141.743 61.9907L141.859 62.4638L139.53 63.029L140.264 65.3124L139.801 65.461L138.908 62.6797L141.743 61.9907Z" fill="#3F3D56"/>
<path d="M16.6355 181.458C16.6355 186.923 13.3905 188.831 9.38737 188.831C9.29463 188.831 9.20204 188.829 9.1096 188.827C8.92412 188.823 8.74041 188.815 8.55891 188.802C4.94614 188.546 2.13928 186.54 2.13928 181.458C2.13928 176.199 8.85302 169.562 9.35734 169.071L9.35822 169.07C9.37766 169.051 9.38737 169.042 9.38737 169.042C9.38737 169.042 16.6355 175.994 16.6355 181.458Z" fill="#74A7FF"/>
<path d="M9.1233 187.995L11.7743 184.286L9.11668 188.402L9.10962 188.827C8.92414 188.823 8.74043 188.815 8.55893 188.802L8.84465 183.335L8.84244 183.293L8.8473 183.285L8.87424 182.768L6.21002 178.643L8.88262 182.381L8.88881 182.491L9.10475 178.36L6.82386 174.097L9.13258 177.635L9.35735 169.071L9.35824 169.042V169.07L9.32071 175.823L11.5914 173.146L9.31143 176.405L9.25137 180.104L11.3715 176.554L9.24254 180.648L9.20898 182.704L12.287 177.764L9.1975 183.421L9.1233 187.995Z" fill="#3F3D56"/>
<path d="M51.207 180.042L52.7574 178.889C52.7574 178.889 53.7837 184.628 52.6385 185.488C51.4933 186.348 47.1987 187.781 47.1987 189.501C47.1987 191.22 37.4643 193.513 37.178 190.934C36.8917 188.354 38.0369 186.921 38.0369 186.921C38.0369 186.921 42.6178 182.335 43.1904 181.476C43.763 180.616 45.1946 178.896 45.1946 178.896L51.207 180.042Z" fill="#2F2E41"/>
<path d="M28.3026 108.677C28.3026 108.677 28.3455 108.929 28.4199 109.391C28.4887 109.801 28.5831 110.38 28.6977 111.093C29.9002 118.439 33.4074 140.064 33.1697 140.777C32.8834 141.637 30.8793 144.79 33.1697 145.65C33.3902 145.733 33.6278 146.002 33.8826 146.426C34.3744 147.34 34.7799 148.297 35.0937 149.287C36.4594 153.253 37.9196 159.602 38.7641 163.998C39.1335 165.93 39.3854 167.483 39.4598 168.297C39.4857 168.485 39.4886 168.676 39.4684 168.865C39.1821 170.011 41.1863 174.024 42.0452 175.17C42.9041 176.317 44.3356 177.463 44.0493 178.609C43.763 179.756 51.2069 182.909 52.0659 180.902C52.9248 178.896 52.9248 177.75 53.2111 177.176C53.4974 176.603 53.7837 172.591 52.3522 172.017C50.9206 171.444 51.7796 161.413 50.348 159.407C49.8699 158.739 49.1398 156.478 48.3754 153.758C48.0748 152.691 47.7713 151.557 47.4735 150.419C46.2653 145.756 45.1945 141.064 45.1945 141.064L45.4808 107.531L29.7341 105.524L29.3304 106.416L28.5259 108.184L28.3026 108.677Z" fill="#2F2E41"/>
<path d="M27.4437 163.706C27.4437 163.706 25.1533 161.413 24.008 163.706C22.8628 165.999 21.7176 174.884 19.7135 176.89C17.7093 178.896 15.1326 188.927 17.9956 189.501C20.8587 190.074 24.008 188.641 24.2943 186.921C24.5806 185.201 30.593 176.317 30.593 175.457C30.593 174.597 26.5848 171.444 26.5848 171.444L27.4437 163.706Z" fill="#2F2E41"/>
<path d="M62.6591 92.9137C62.6591 92.9137 58.9372 126.447 58.0782 129.599C57.2193 132.752 52.6385 144.79 51.2069 146.796C49.7754 148.802 40.6136 165.139 39.4684 165.999C38.3232 166.858 36.0328 169.151 36.0328 169.151C36.0328 169.151 31.7382 173.45 31.1656 174.31C30.593 175.17 25.7258 172.591 25.4395 170.871C25.1532 169.151 25.7258 166.285 26.0121 165.139C26.2984 163.992 25.4395 162.273 26.2984 161.413C27.1573 160.553 31.4519 156.254 31.4519 154.248C31.4519 152.241 38.8958 140.491 41.7589 137.911C44.6219 135.332 44.0493 131.032 44.0493 131.032V113.549L28.3025 108.677C28.3025 108.677 29.1614 94.9199 31.1656 94.9199C33.1697 94.9199 59.5098 90.3342 62.6591 92.9137Z" fill="#2F2E41"/>
<path d="M39.4684 45.0502C44.6865 45.0502 48.9165 40.8156 48.9165 35.5921C48.9165 30.3686 44.6865 26.134 39.4684 26.134C34.2504 26.134 30.0204 30.3686 30.0204 35.5921C30.0204 40.8156 34.2504 45.0502 39.4684 45.0502Z" fill="#9F616A"/>
<path d="M42.6178 43.0438C42.6178 43.0438 43.763 47.343 45.1945 48.4894C46.6261 49.6358 41.4726 54.5082 41.4726 54.5082L31.7382 55.0814L30.0204 49.6358C30.0204 49.6358 33.1697 43.3304 32.3108 39.3179C31.4519 35.3054 42.6178 43.0438 42.6178 43.0438Z" fill="#9F616A"/>
<path d="M46.6261 47.9163C46.6261 47.9163 44.0493 48.2029 43.4767 49.0627C42.9041 49.9225 38.8958 52.502 35.7465 51.9288C32.5971 51.3556 30.593 50.4957 30.0204 50.7823C29.4478 51.0689 28.3026 57.0877 28.3026 57.0877L31.4519 66.2592L30.8793 91.4807L30.0204 98.3593C30.0204 98.3593 28.3026 96.0664 35.1739 97.4994C42.0452 98.9325 50.9206 96.353 53.7837 96.0664C56.6468 95.7798 61.5139 94.92 61.8002 93.2003C62.0865 91.4807 60.9413 85.1753 60.9413 85.1753L56.3604 65.9726L53.4974 55.6547L46.6261 47.9163Z" fill="#74A7FF"/>
<path d="M43.918 46.6225C43.918 46.6225 46.3398 45.3366 47.1987 46.483C48.0576 47.6295 58.9372 49.3491 58.9372 50.2089C58.9372 51.0688 61.2277 74.284 60.655 76.2903C60.0824 78.2966 61.8003 80.5894 61.8003 80.5894L63.8044 89.1876C63.8044 89.1876 69.2442 105.524 66.9538 106.097C64.6633 106.671 62.6592 106.097 61.8003 106.097C60.9414 106.097 61.2277 95.2064 58.9372 92.3403C56.6468 89.4742 53.4974 82.309 52.9248 80.876C52.3522 79.443 45.1946 59.667 45.4809 57.3742C45.7672 55.0813 43.918 46.6225 43.918 46.6225Z" fill="#D0CDE1"/>
<path d="M32.0245 47.9163C32.0245 47.9163 29.7341 47.9163 29.4478 48.4895C29.1615 49.0627 26.2984 52.7886 25.1532 53.6484C24.008 54.5082 19.9997 58.2341 19.9997 59.094C19.9997 59.9538 28.3025 66.2592 28.3025 66.2592C28.3025 66.2592 31.7382 83.169 30.0204 88.9012C28.3025 94.6333 25.7258 108.391 26.871 109.25C28.0162 110.11 30.593 110.397 30.593 109.25C30.593 108.104 32.3108 95.7798 33.7423 93.2003C35.1739 90.6208 39.4684 74.2842 37.7506 69.6985C36.0328 65.1127 32.0245 47.9163 32.0245 47.9163Z" fill="#D0CDE1"/>
<path d="M69.8167 76.2905C69.8167 76.2905 70.103 85.1754 66.9537 89.7611C63.8043 94.3468 61.8002 99.5058 61.8002 99.5058C61.8002 99.5058 56.6467 98.0727 55.7878 96.3531C54.9289 94.6334 49.4891 96.0665 49.4891 95.4932C49.4891 94.92 56.0741 92.054 56.6467 91.4807C57.2193 90.9075 59.2234 90.9075 60.3687 89.7611C61.5139 88.6147 61.8002 86.0352 61.8002 86.0352L62.9454 78.5834L69.8167 76.2905Z" fill="#9F616A"/>
<path d="M45.9758 29.7605C46.7026 29.6944 47.4523 29.6217 48.0946 29.2749C49.534 28.4979 49.9157 26.285 48.82 25.0697C48.5179 24.7605 48.1799 24.4885 47.8134 24.2595L45.6371 22.7766C44.6746 22.1208 43.6893 21.4542 42.5667 21.145C41.5513 20.8654 40.4789 20.8942 39.4278 20.9596C37.3874 21.0865 35.3343 21.3487 33.4152 22.054C31.496 22.7592 29.7058 23.939 28.5435 25.6226C26.7008 28.2916 26.6755 31.8912 27.6904 34.9724C28.7052 38.0536 30.633 40.7367 32.5326 43.3654L33.5182 38.5512C33.606 38.1224 33.7195 37.6525 34.0758 37.3987C34.9612 36.7679 36.0443 38.063 37.131 38.0546C37.8292 38.0492 38.4155 37.4743 38.6801 36.8274C38.9447 36.1805 38.9621 35.4642 39.0234 34.7678C39.153 33.293 39.668 31.2409 41.0632 30.4275C42.3633 29.6695 44.5144 29.8934 45.9758 29.7605Z" fill="#2F2E41"/>
<path opacity="0.1" d="M45.4458 108.909C45.4458 108.909 44.4788 136.908 43.9062 137.768C43.3336 138.628 43.9062 108.821 43.9062 108.821L45.4458 108.909Z" fill="black"/>
<path d="M56.6467 50.2092H58.9372C58.9372 50.2092 68.6715 63.3932 67.5263 64.253C66.3811 65.1128 67.5263 67.4057 67.5263 67.4057L69.8168 71.7048C69.8168 71.7048 72.6798 74.2843 71.8209 74.8575C70.962 75.4307 69.8168 77.7236 69.8168 77.7236C69.8168 77.7236 64.0907 76.8638 62.3728 80.3031L58.6595 75.6103L56.6467 50.2092Z" fill="#D0CDE1"/>
<path d="M57.4563 54.4498L49.5969 57.6987L55.645 72.3606L63.5044 69.1116L57.4563 54.4498Z" fill="#2F2E41"/>
<path d="M56.5351 63.0489C57.4032 62.69 57.84 61.7519 57.5107 60.9536C57.1814 60.1552 56.2106 59.799 55.3425 60.1578C54.4744 60.5167 54.0376 61.4548 54.3669 62.2532C54.6962 63.0515 55.667 63.4078 56.5351 63.0489Z" fill="#74A7FF"/>
<path d="M50.9206 73.1377C50.9206 73.1377 30.3067 90.3342 26.871 84.8886C23.4354 79.4431 30.593 74.8574 30.593 74.8574C30.593 74.8574 36.8917 75.144 44.0493 70.5583L51.207 67.4056C51.207 67.4056 57.7413 58.0667 59.968 61.6229C62.1947 65.179 56.1671 71.3682 50.9206 73.1377Z" fill="#9F616A"/>
<path d="M23.1491 57.9475L19.9997 59.0939V67.6922L18.8545 69.4118C18.8545 69.4118 19.1408 72.8511 19.9997 73.7109C20.8586 74.5708 22.5765 74.2841 22.0038 76.2904C21.6597 77.5984 21.5626 78.9592 21.7175 80.3029C21.7175 80.3029 26.871 86.8949 27.1573 86.0351C27.4436 85.1752 31.4519 74.5708 32.0245 74.5708C32.5971 74.5708 26.2984 57.9475 26.2984 57.9475H23.1491Z" fill="#D0CDE1"/>
<path d="M60.7981 101.369C60.7981 101.369 63.7585 98.5026 62.2783 98.3593C60.7981 98.216 55.6446 95.3499 54.7857 96.7829C53.9268 98.216 60.7981 101.369 60.7981 101.369Z" fill="#2F2E41"/>
<path d="M117.101 46.6956C119.382 46.6956 121.231 45.7156 121.231 44.5067C121.231 43.2979 119.382 42.3179 117.101 42.3179C114.82 42.3179 112.971 43.2979 112.971 44.5067C112.971 45.7156 114.82 46.6956 117.101 46.6956Z" fill="#57B894"/>
<path d="M132.893 51.8027C123.58 48.2817 114.267 48.2817 104.954 51.8027V40.3721C114.064 37.6201 123.783 37.6201 132.893 40.3721V51.8027Z" stroke="#3F3D56" stroke-width="2" stroke-miterlimit="10"/>
<path d="M129.005 49.4388C122.284 46.8975 115.562 46.8975 108.841 49.4388V41.1889C115.416 39.2027 122.43 39.2027 129.005 41.1889V49.4388Z" stroke="#3F3D56" stroke-width="2" stroke-miterlimit="10"/>
<path d="M118.559 45.7227C120.84 45.7227 122.689 44.7427 122.689 43.5338C122.689 42.3249 120.84 41.345 118.559 41.345C116.278 41.345 114.429 42.3249 114.429 43.5338C114.429 44.7427 116.278 45.7227 118.559 45.7227Z" stroke="#3F3D56" stroke-width="2" stroke-miterlimit="10"/>
<path d="M120.138 60.4034C122.373 59.9468 123.989 58.6164 123.747 57.432C123.506 56.2475 121.498 55.6575 119.263 56.1141C117.028 56.5708 115.412 57.9011 115.654 59.0856C115.895 60.27 117.903 60.86 120.138 60.4034Z" fill="#57B894"/>
<path d="M136.631 62.2463C126.803 60.6607 117.678 62.5251 109.256 67.8393L106.973 56.6396C115.349 52.1195 124.872 50.1739 134.347 51.0466L136.631 62.2463Z" stroke="#3F3D56" stroke-width="2" stroke-miterlimit="10"/>
<path d="M132.35 60.7083C125.256 59.5639 118.671 60.9094 112.592 64.7449L110.944 56.6616C116.99 53.3993 123.863 51.9951 130.702 52.625L132.35 60.7083Z" stroke="#3F3D56" stroke-width="2" stroke-miterlimit="10"/>
<path d="M121.372 59.1583C123.607 58.7017 125.223 57.3713 124.981 56.1869C124.74 55.0024 122.732 54.4124 120.497 54.869C118.262 55.3256 116.646 56.656 116.888 57.8404C117.129 59.0249 119.137 59.6149 121.372 59.1583Z" stroke="#3F3D56" stroke-width="2" stroke-miterlimit="10"/>
<path d="M122.964 72.1505C123.048 70.9445 121.271 69.8384 118.996 69.6799C116.72 69.5214 114.808 70.3705 114.724 71.5764C114.64 72.7824 116.417 73.8885 118.692 74.047C120.968 74.2055 122.88 73.3564 122.964 72.1505Z" fill="#57B894"/>
<path d="M134.092 80.2395C125.045 76.0798 115.755 75.4326 106.22 78.298L107.013 66.8949C116.292 64.7827 125.987 65.4581 134.884 68.8365L134.092 80.2395Z" stroke="#3F3D56" stroke-width="2" stroke-miterlimit="10"/>
<path d="M130.378 77.6111C123.849 74.6089 117.143 74.1418 110.262 76.2098L110.834 67.9798C117.531 66.4553 124.528 66.9428 130.95 69.3811L130.378 77.6111Z" stroke="#3F3D56" stroke-width="2" stroke-miterlimit="10"/>
<path d="M124.486 71.2813C124.57 70.0754 122.793 68.9693 120.518 68.8107C118.242 68.6522 116.329 69.5013 116.246 70.7073C116.162 71.9133 117.938 73.0194 120.214 73.1779C122.489 73.3364 124.402 72.4873 124.486 71.2813Z" stroke="#3F3D56" stroke-width="2" stroke-miterlimit="10"/>
<path d="M100.805 52.0682C100.805 52.0682 82.9488 49.6228 70.1974 57.1035" stroke="#3F3D56" stroke-width="2" stroke-miterlimit="10"/>
<path d="M70.627 54.5896L71.0907 54.7365L70.3658 57.0224L72.6966 57.5791L72.5832 58.0526L69.7448 57.3738L70.627 54.5896Z" fill="#3F3D56"/>
</svg>
