<?xml version="1.0" encoding="UTF-8"?>
<svg width="410px" height="58px" viewBox="0 0 410 58" version="1.1" xmlns="http://www.w3.org/2000/svg" xmlns:xlink="http://www.w3.org/1999/xlink">
    <!-- Generator: Sketch 53 (72520) - https://sketchapp.com -->
    <title>DeFi Pulse</title>
    <desc>Created with Sketch.</desc>
    <g id="Purple-else" stroke="none" stroke-width="1" fill="none" fill-rule="evenodd">
        <g id="Desktop" transform="translate(-307.000000, -44.000000)" fill="#F4F1F3">
            <path d="M347.590978,59.2025292 C352.607011,64.2185621 354.914386,69.8365188 354.914386,77.0596061 C354.914386,91.104498 344.715119,100.869042 330.101744,100.869042 L315.78933,100.869042 L307.462716,92.5424274 L307.462716,45.0573167 L322.042651,45.0573167 C329.867662,45.0573167 336.455385,47.8662951 340.936375,52.5813659 L347.590978,59.2025292 Z M315.354607,52.5479257 L315.254287,52.5479257 L315.254287,54.2199366 L322.377053,61.2758228 L322.377053,59.5703716 L315.354607,52.5479257 Z M323.580901,59.3362901 L316.792537,52.5479257 L315.82277,52.5479257 L322.611135,59.3362901 L323.580901,59.3362901 Z M325.955157,59.3362901 L319.166792,52.5479257 L317.2607,52.5479257 L324.049064,59.3362901 L325.955157,59.3362901 Z M322.142972,52.5479257 L319.634955,52.5479257 L326.42332,59.3362901 L328.931336,59.3362901 L322.142972,52.5479257 Z M331.372472,59.3697303 L324.717869,52.7151268 C324.015624,52.6148061 323.34682,52.5813659 322.611135,52.5479257 L329.399499,59.3362901 L330.101744,59.3362901 C330.536467,59.3362901 330.971189,59.3362901 331.372472,59.3697303 Z M333.512646,59.6038119 L327.025244,53.1164094 C326.45676,52.9826485 325.854836,52.8823279 325.252912,52.7820072 L331.874075,59.4031705 C332.442559,59.4366108 333.011043,59.5369314 333.512646,59.6038119 Z M335.452179,60.0719749 L329.131977,53.7517736 C328.663814,53.5845725 328.162211,53.4173714 327.660608,53.2836105 L334.11457,59.7375727 C334.582733,59.8378934 335.017456,59.938214 335.452179,60.0719749 Z M336.187864,60.3060565 C336.622586,60.5066978 337.09075,60.7073391 337.492032,60.9079804 L331.339032,54.7549801 C330.904309,54.5208986 330.436146,54.2868171 329.967983,54.0861758 L336.187864,60.3060565 Z M315.254287,67.4288231 L316.458135,68.6326709 L316.190613,68.9001927 L315.254287,67.9638666 L315.254287,85.4865412 L322.377053,85.4865412 L322.377053,61.7439859 L315.254287,54.7549801 L315.254287,56.3935509 L322.009211,63.1150348 L321.741689,63.3491164 L315.254287,56.8951541 L315.254287,58.5671651 L320.872243,64.2185621 L320.638162,64.4860838 L315.254287,59.0687684 L315.254287,60.7742195 L319.768716,65.3220893 L319.534635,65.589611 L315.254287,61.2758228 L315.254287,62.981274 L318.665189,66.4256165 L318.431107,66.6931382 L315.254287,63.4828772 L315.254287,65.2217686 L317.561662,67.5291437 L317.29414,67.7966655 L315.254287,65.7233719 L315.254287,67.4288231 Z M336.956989,59.9047738 C335.820021,58.1324422 334.315211,56.6276324 332.50944,55.4572247 L336.956989,59.9047738 Z M346.922174,59.8713336 L344.213516,57.0957954 C346.019288,60.4732575 347.189696,64.6532849 347.189696,69.0005133 C347.189696,69.4686764 347.189696,69.9368395 347.156255,70.3715623 L353.97806,77.2268072 L353.97806,77.0596061 C353.97806,70.0706003 351.704125,64.7870458 346.922174,59.8713336 Z M323.313379,85.453101 C333.044483,84.9180575 339.331244,78.5309757 339.331244,69.0005133 C339.331244,66.5259372 338.896521,64.2520023 338.093956,62.2455891 C336.054103,60.8411 333.713287,60.2726162 330.101744,60.2726162 L323.313379,60.2726162 L323.313379,85.453101 Z M345.751766,77.5946496 L352.841093,84.683976 C353.509897,82.5103617 353.91118,80.1695464 353.97806,77.6949702 L347.122815,70.8397254 C346.955614,73.2474211 346.487451,75.4879158 345.751766,77.5946496 Z M352.707332,85.0183781 L345.618005,77.9290518 C344.982641,79.6010627 344.180076,81.172753 343.21031,82.5772422 L350.433397,89.8003294 C351.369723,88.3289598 352.138848,86.7238293 352.707332,85.0183781 Z M347.490658,93.4118731 C348.527304,92.4086665 349.43019,91.2716991 350.232756,90.0678512 L343.043108,82.8782041 C342.207103,84.0486118 341.270777,85.152139 340.20069,86.1219054 L347.490658,93.4118731 Z M337.023869,88.6299218 L344.347277,95.9533297 C345.383924,95.2510851 346.35369,94.4819601 347.256576,93.6459546 L339.966608,86.3559869 C339.063722,87.1919924 338.093956,87.9611174 337.023869,88.6299218 Z M333.813608,90.4022534 L341.137016,97.7256613 C342.140223,97.2574982 343.109989,96.7224547 344.046315,96.153971 L336.722907,88.8305631 C335.820021,89.432487 334.850255,89.9340903 333.813608,90.4022534 Z M330.670228,91.572661 L337.960195,98.8626287 C338.929962,98.595107 339.899728,98.2272646 340.802614,97.8594222 L333.479206,90.5360142 C332.57632,90.9372969 331.639994,91.3051393 330.670228,91.572661 Z M327.627168,92.3083458 L334.883695,99.5648733 C335.820021,99.3976722 336.722907,99.1970309 337.592353,98.9629494 L330.335825,91.7064219 C329.46638,91.9405034 328.563494,92.1411448 327.627168,92.3083458 Z M327.192445,92.3752263 C326.38988,92.5424274 325.553874,92.642748 324.717869,92.7096285 L331.907516,99.8658353 C332.776961,99.8323951 333.612967,99.7320744 334.448972,99.6317538 L327.192445,92.3752263 Z M329.131977,99.9327157 L330.101744,99.9327157 C330.569907,99.9327157 331.00463,99.9327157 331.439353,99.8992755 L324.283146,92.7430687 C323.547461,92.7765089 322.811776,92.8099491 322.042651,92.8099491 L322.009211,92.8099491 L329.131977,99.9327157 Z M309.067846,92.8099491 L316.190613,99.9327157 L316.658776,99.9327157 L309.569449,92.8099491 L309.067846,92.8099491 Z M310.037613,92.8099491 L317.160379,99.9327157 L317.762303,99.9327157 L310.639536,92.8099491 L310.037613,92.8099491 Z M311.1077,92.8099491 L318.230466,99.9327157 L318.999591,99.9327157 L311.876825,92.8099491 L311.1077,92.8099491 Z M312.344988,92.8099491 L319.467754,99.9327157 L320.437521,99.9327157 L313.314754,92.8099491 L312.344988,92.8099491 Z M313.782917,92.8099491 L320.905684,99.9327157 L322.076091,99.9327157 L314.953325,92.8099491 L313.782917,92.8099491 Z M315.421488,92.8099491 L322.544254,99.9327157 L323.948744,99.9327157 L316.825977,92.8099491 L315.421488,92.8099491 Z M317.32758,92.8099491 L324.450347,99.9327157 L326.155798,99.9327157 L319.033031,92.8099491 L317.32758,92.8099491 Z M319.501194,92.8099491 L326.623961,99.9327157 L328.663814,99.9327157 L321.507608,92.8099491 L319.501194,92.8099491 Z M391.73212,85.5534216 L400.058734,93.8800361 L400.058734,100.869042 L367.889244,100.869042 L359.562629,92.5424274 L359.562629,45.0573167 L390.762353,45.0573167 L399.088968,53.3839312 L399.088968,59.9716543 L375.379853,59.9716543 L375.346412,64.7536056 L386.950168,64.7536056 L395.276783,73.08022 L395.276783,79.801704 L375.346412,79.801704 L375.346412,85.5534216 L391.73212,85.5534216 Z M398.152642,53.7852138 L391.029875,46.6624472 L391.029875,52.2469637 L398.152642,59.0353281 L398.152642,53.7852138 Z M375.112331,59.0353281 L368.023005,52.2469637 L367.521401,52.2469637 L374.610728,59.0353281 L375.112331,59.0353281 Z M376.44994,59.0353281 L369.327173,52.2469637 L368.524608,52.2469637 L375.613934,59.0353281 L376.44994,59.0353281 Z M378.121951,59.0353281 L370.999184,52.2469637 L369.828776,52.2469637 L376.951543,59.0353281 L378.121951,59.0353281 Z M380.128364,59.0353281 L373.039037,52.2469637 L371.500787,52.2469637 L378.623554,59.0353281 L380.128364,59.0353281 Z M382.803581,59.0353281 L375.647374,52.2469637 L373.540641,52.2469637 L380.629967,59.0353281 L382.803581,59.0353281 Z M385.478799,59.0353281 L378.322592,52.2469637 L376.182418,52.2469637 L383.305184,59.0353281 L385.478799,59.0353281 Z M388.254337,59.0353281 L381.13157,52.2469637 L378.857635,52.2469637 L385.980402,59.0353281 L388.254337,59.0353281 Z M390.929554,59.0353281 L383.873668,52.2469637 L381.633174,52.2469637 L388.75594,59.0353281 L390.929554,59.0353281 Z M393.27037,59.0353281 L386.181043,52.2469637 L384.341831,52.2469637 L391.464598,59.0353281 L393.27037,59.0353281 Z M395.276783,59.0353281 L388.187456,52.2469637 L386.649206,52.2469637 L393.805413,59.0353281 L395.276783,59.0353281 Z M396.614392,59.0353281 L389.558505,52.2469637 L388.65562,52.2469637 L395.811826,59.0353281 L396.614392,59.0353281 Z M397.617598,59.0353281 L390.561712,52.2469637 L390.026668,52.2469637 L397.149435,59.0353281 L397.617598,59.0353281 Z M367.28732,62.0115076 L368.92589,63.5831979 L368.658369,63.8172794 L367.28732,62.5131109 L367.28732,64.7536056 L374.410086,64.7536056 L374.410086,59.3028499 L367.28732,52.5144855 L367.28732,53.9189747 L373.47376,59.8378934 L373.172798,60.0385347 L367.28732,54.4205779 L367.28732,55.958828 L372.336793,60.7742195 L372.035831,61.008301 L367.28732,56.4269911 L367.28732,57.9652411 L371.199825,61.7105456 L370.898863,61.9446272 L367.28732,58.4668444 L367.28732,60.0050945 L370.062858,62.6468718 L369.795336,62.8809533 L367.28732,60.4732575 L367.28732,62.0115076 Z M387.21769,66.3587361 L387.21769,72.0770135 L387.18425,72.0770135 L394.340457,78.8653779 L394.340457,73.4815027 L387.21769,66.3587361 Z M374.644168,78.8653779 L375.246092,78.8653779 L368.123325,72.0770135 L367.521401,72.0770135 L374.644168,78.8653779 Z M368.624928,72.0770135 L375.747695,78.8653779 L376.918103,78.8653779 L369.828776,72.0770135 L368.624928,72.0770135 Z M370.33038,72.0770135 L377.419706,78.8653779 L379.258918,78.8653779 L372.102711,72.0770135 L370.33038,72.0770135 Z M372.637755,72.0770135 L379.760521,78.8653779 L382.268538,78.8653779 L375.179211,72.0770135 L372.637755,72.0770135 Z M385.478799,78.8653779 L378.422913,72.0770135 L375.680815,72.0770135 L382.770141,78.8653779 L385.478799,78.8653779 Z M388.68906,78.8653779 L381.566293,72.0770135 L378.891076,72.0770135 L386.013842,78.8653779 L388.68906,78.8653779 Z M390.996435,78.8653779 L383.940549,72.0770135 L382.067896,72.0770135 L389.190663,78.8653779 L390.996435,78.8653779 Z M392.668446,78.8653779 L385.579119,72.0770135 L384.408712,72.0770135 L391.531478,78.8653779 L392.668446,78.8653779 Z M386.047282,72.0770135 L393.203489,78.8653779 L393.805413,78.8653779 L386.716087,72.0770135 L386.047282,72.0770135 Z M367.28732,83.9482911 L368.156765,84.7842966 L367.889244,85.0518184 L367.28732,84.4833346 L367.28732,85.5534216 L374.410086,85.5534216 L374.410086,79.0994594 L367.28732,72.311095 L367.28732,73.7824646 L373.47376,79.7348236 L373.239679,79.9689051 L367.28732,74.2840679 L367.28732,75.8557582 L372.437113,80.7714704 L372.169592,81.0055519 L367.28732,76.3239213 L367.28732,77.8621713 L371.367026,81.7746769 L371.099505,82.0087585 L367.28732,78.3637746 L367.28732,79.9020247 L370.296939,82.7778835 L370.029418,83.011965 L367.28732,80.403628 L367.28732,81.941878 L369.226852,83.7810901 L368.959331,84.0151716 L367.28732,82.4100411 L367.28732,83.9482911 Z M391.999641,87.1585521 L391.999641,92.8099491 L399.122408,99.9327157 L399.122408,94.2813188 L391.999641,87.1585521 Z M364.411461,92.8099491 L361.16776,92.8099491 L368.290526,99.9327157 L371.534227,99.9327157 L364.411461,92.8099491 Z M367.788923,92.8099491 L364.879624,92.8099491 L372.002391,99.9327157 L374.94513,99.9327157 L367.788923,92.8099491 Z M368.257086,92.8099491 L375.413293,99.9327157 L378.02163,99.9327157 L370.865423,92.8099491 L368.257086,92.8099491 Z M371.333586,92.8099491 L378.489793,99.9327157 L380.797168,99.9327157 L373.674401,92.8099491 L371.333586,92.8099491 Z M376.182418,92.8099491 L374.142565,92.8099491 L381.265331,99.9327157 L383.338625,99.9327157 L376.182418,92.8099491 Z M385.61256,99.9327157 L378.489793,92.8099491 L376.650581,92.8099491 L383.806788,99.9327157 L385.61256,99.9327157 Z M378.957956,92.8099491 L386.080723,99.9327157 L387.685853,99.9327157 L380.563087,92.8099491 L378.957956,92.8099491 Z M381.03125,92.8099491 L388.154016,99.9327157 L389.591946,99.9327157 L382.435739,92.8099491 L381.03125,92.8099491 Z M382.903902,92.8099491 L390.060109,99.9327157 L391.297397,99.9327157 L384.14119,92.8099491 L382.903902,92.8099491 Z M384.609353,92.8099491 L391.76556,99.9327157 L392.835647,99.9327157 L385.67944,92.8099491 L384.609353,92.8099491 Z M386.147603,92.8099491 L393.30381,99.9327157 L394.240136,99.9327157 L387.083929,92.8099491 L386.147603,92.8099491 Z M387.552092,92.8099491 L394.708299,99.9327157 L395.510864,99.9327157 L388.354658,92.8099491 L387.552092,92.8099491 Z M388.822821,92.8099491 L395.979027,99.9327157 L396.647832,99.9327157 L389.525065,92.8099491 L388.822821,92.8099491 Z M389.993228,92.8099491 L397.115995,99.9327157 L397.717919,99.9327157 L390.561712,92.8099491 L389.993228,92.8099491 Z M391.029875,92.8099491 L398.186082,99.9327157 L398.654245,99.9327157 L391.498038,92.8099491 L391.029875,92.8099491 Z M444.701471,60.239176 L420.05603,60.239176 L420.05603,66.3587361 L432.22827,66.3587361 L440.554884,74.6853505 L440.554884,81.5071552 L420.05603,81.5071552 L420.05603,100.869042 L412.632302,100.869042 L404.305687,92.5424274 L404.305687,45.0573167 L436.374857,45.0573167 L444.701471,53.3839312 L444.701471,60.239176 Z M436.642379,46.6624472 L436.642379,52.5144855 L443.731705,59.3028499 L443.765145,59.3028499 L443.765145,53.7852138 L436.642379,46.6624472 Z M419.320345,59.3028499 L419.855389,59.3028499 L412.732622,52.5144855 L412.264459,52.5144855 L419.320345,59.3028499 Z M421.159557,59.3028499 L414.003351,52.5144855 L413.267666,52.5144855 L420.323552,59.3028499 L421.159557,59.3028499 Z M422.865009,59.3028499 L415.708802,52.5144855 L414.538394,52.5144855 L421.62772,59.3028499 L422.865009,59.3028499 Z M425.038623,59.3028499 L417.915856,52.5144855 L416.243845,52.5144855 L423.333172,59.3028499 L425.038623,59.3028499 Z M428.048242,59.3028499 L420.925476,52.5144855 L418.4509,52.5144855 L425.506786,59.3028499 L428.048242,59.3028499 Z M430.924101,59.3028499 L423.801335,52.5144855 L421.427079,52.5144855 L428.549846,59.3028499 L430.924101,59.3028499 Z M434.067482,59.3028499 L426.944715,52.5144855 L424.302938,52.5144855 L431.425705,59.3028499 L434.067482,59.3028499 Z M437.043661,59.3028499 L429.954335,52.5144855 L427.412878,52.5144855 L434.569085,59.3028499 L437.043661,59.3028499 Z M439.250716,59.3028499 L432.127949,52.5144855 L430.455938,52.5144855 L437.545265,59.3028499 L439.250716,59.3028499 Z M440.956167,59.3028499 L433.8334,52.5144855 L432.629552,52.5144855 L439.752319,59.3028499 L440.956167,59.3028499 Z M442.226895,59.3028499 L435.137569,52.5144855 L434.335004,52.5144855 L441.45777,59.3028499 L442.226895,59.3028499 Z M435.639172,52.5144855 L442.728498,59.3028499 L443.230102,59.3028499 L436.140775,52.5144855 L435.639172,52.5144855 Z M411.996937,66.3587361 L419.119704,66.3587361 L419.119704,59.5703716 L411.996937,52.748567 L411.996937,53.8855344 L418.350579,60.0050945 L418.116497,60.239176 L411.996937,54.3871377 L411.996937,55.9253878 L417.313932,61.0417413 L417.04641,61.309263 L411.996937,56.4269911 L411.996937,57.9652411 L416.277285,62.078388 L416.009764,62.3459098 L411.996937,58.4668444 L411.996937,60.0050945 L415.240639,63.1150348 L415.006557,63.3491164 L411.996937,60.4732575 L411.996937,62.0449478 L414.203992,64.1516816 L413.96991,64.3857631 L411.996937,62.5131109 L411.996937,64.051361 L413.167345,65.1883284 L412.933264,65.4224099 L411.996937,64.519524 L411.996937,66.3587361 Z M432.495792,67.9638666 L432.495792,73.7824646 L439.618558,80.570829 L439.618558,75.0866332 L432.495792,67.9638666 Z M412.197579,73.7824646 L419.286905,80.570829 L419.955709,80.570829 L412.832943,73.7824646 L412.197579,73.7824646 Z M413.334546,73.7824646 L420.423873,80.570829 L421.56084,80.570829 L414.471514,73.7824646 L413.334546,73.7824646 Z M414.973117,73.7824646 L422.029003,80.570829 L424.135737,80.570829 L416.97953,73.7824646 L414.973117,73.7824646 Z M417.481133,73.7824646 L424.6039,80.570829 L427.212237,80.570829 L420.122911,73.7824646 L417.481133,73.7824646 Z M420.624514,73.7824646 L427.6804,80.570829 L430.69002,80.570829 L423.634134,73.7824646 L420.624514,73.7824646 Z M424.102297,73.7824646 L431.191623,80.570829 L433.8334,80.570829 L426.710634,73.7824646 L424.102297,73.7824646 Z M427.178797,73.7824646 L434.335004,80.570829 L436.341417,80.570829 L429.285531,73.7824646 L427.178797,73.7824646 Z M429.753694,73.7824646 L436.84302,80.570829 L437.979987,80.570829 L430.890661,73.7824646 L429.753694,73.7824646 Z M431.358824,73.7824646 L438.481591,80.570829 L439.116955,80.570829 L432.027628,73.7824646 L431.358824,73.7824646 Z M411.996937,92.8099491 L419.119704,99.9327157 L419.119704,80.7380301 L419.052824,80.8049106 L411.996937,74.0834266 L411.996937,75.1869538 L418.384019,81.3399541 L418.149938,81.5740356 L411.996937,75.6885571 L411.996937,77.2268072 L417.347372,82.3766009 L417.079851,82.6441226 L411.996937,77.7284104 L411.996937,79.2666605 L416.310726,83.4132476 L416.043204,83.6807694 L411.996937,79.7682638 L411.996937,81.3065139 L415.274079,84.4498944 L415.039997,84.683976 L411.996937,81.7746769 L411.996937,83.3463672 L414.237432,85.4865412 L414.003351,85.7206227 L411.996937,83.8145303 L411.996937,85.3862206 L413.200785,86.523188 L412.966704,86.7572695 L411.996937,85.8209434 L411.996937,92.8099491 Z M405.910818,92.8099491 L413.033584,99.9327157 L414.404633,99.9327157 L407.315307,92.8099491 L405.910818,92.8099491 Z M408.987318,92.8099491 L407.78347,92.8099491 L414.906236,99.9327157 L416.110084,99.9327157 L408.987318,92.8099491 Z M409.455481,92.8099491 L416.611688,99.9327157 L417.481133,99.9327157 L410.391807,92.8099491 L409.455481,92.8099491 Z M410.85997,92.8099491 L417.982737,99.9327157 L418.618101,99.9327157 L411.528774,92.8099491 L410.85997,92.8099491 Z M455.870549,45.0573167 L464.197163,53.3839312 L464.197163,100.869042 L456.639674,100.869042 L448.313059,92.5424274 L448.313059,45.0573167 L455.870549,45.0573167 Z M456.138071,47.1974907 L463.260837,54.3202573 L463.260837,53.7852138 L456.138071,46.6624472 L456.138071,47.1974907 Z M456.138071,48.6354201 L463.260837,55.7581867 L463.260837,54.8218606 L456.138071,47.699094 L456.138071,48.6354201 Z M456.138071,50.608393 L463.260837,57.7311596 L463.260837,56.2263498 L456.138071,49.1035832 L456.138071,50.608393 Z M456.138071,53.3839312 L463.260837,60.5066978 L463.260837,58.2327629 L456.138071,51.1099963 L456.138071,53.3839312 Z M456.138071,57.1626759 L463.260837,64.2854425 L463.260837,60.9748608 L456.138071,53.8520942 L456.138071,57.1626759 Z M456.138071,62.37935 L463.260837,69.5021166 L463.260837,64.7536056 L456.138071,57.6308389 L456.138071,62.37935 Z M456.138071,92.8099491 L463.260837,99.9327157 L463.260837,69.9702797 L456.138071,62.8475131 L456.138071,92.8099491 Z M451.45644,92.8099491 L449.91819,92.8099491 L457.040957,99.9327157 L458.545766,99.9327157 L451.45644,92.8099491 Z M460.251218,99.9327157 L453.128451,92.8099491 L451.924603,92.8099491 L459.04737,99.9327157 L460.251218,99.9327157 Z M453.596614,92.8099491 L460.752821,99.9327157 L461.622267,99.9327157 L454.53294,92.8099491 L453.596614,92.8099491 Z M455.001103,92.8099491 L462.12387,99.9327157 L462.759234,99.9327157 L455.669908,92.8099491 L455.001103,92.8099491 Z M528.569629,56.3266704 C531.81333,59.5369314 533.35158,63.1819153 533.35158,67.6963448 C533.35158,77.0596061 526.195373,83.8814107 516.263628,83.8814107 L507.769812,83.8814107 L507.769812,100.869042 L500.245763,100.869042 L491.919149,92.5424274 L491.919149,45.0573167 L508.773019,45.0573167 C514.658498,45.0573167 519.373568,47.1640505 521.915025,49.7055071 L528.569629,56.3266704 Z M499.71072,64.1182414 L500.412964,64.820486 L500.145443,65.0880077 L499.71072,64.6532849 L499.71072,69.3014753 L506.499084,69.3014753 L506.499084,59.0018879 L499.71072,52.2135235 L499.71072,53.6514529 L505.562758,59.6372521 L505.328677,59.8713336 L499.71072,54.1864964 L499.71072,55.7916269 L504.526111,60.6738989 L504.29203,60.9079804 L499.71072,56.2932302 L499.71072,57.8649205 L503.522905,61.7105456 L503.255383,61.9446272 L499.71072,58.3665238 L499.71072,59.938214 L502.486258,62.7471924 L502.218736,62.981274 L499.71072,60.4398173 L499.71072,62.0115076 L501.449611,63.7838392 L501.182089,64.0179207 L499.71072,62.5465511 L499.71072,64.1182414 Z M507.33509,58.6674857 L500.914568,52.2135235 L500.178883,52.2135235 L506.666285,58.700926 L506.967247,58.6674857 L507.33509,58.6674857 Z M508.839899,58.6674857 L502.385937,52.2135235 L501.382731,52.2135235 L507.836693,58.6674857 L508.839899,58.6674857 Z M510.745992,58.6674857 L504.29203,52.2135235 L502.8541,52.2135235 L509.308063,58.6674857 L510.745992,58.6674857 Z M512.953046,58.6674857 L506.499084,52.2135235 L504.760193,52.2135235 L511.214155,58.6674857 L512.953046,58.6674857 Z M508.90678,52.2135235 L506.967247,52.2135235 L513.421209,58.6674857 L515.360742,58.6674857 L508.90678,52.2135235 Z M517.266835,58.6674857 L511.013514,52.4141648 C510.51191,52.3138442 509.943427,52.2804039 509.408383,52.2469637 L515.828905,58.6674857 L517.266835,58.6674857 Z M517.969079,57.8983607 L513.019927,52.9492083 C512.585204,52.7820072 512.083601,52.6482463 511.615438,52.5479257 L517.801878,58.7343662 C517.935639,58.7343662 518.0694,58.7343662 518.203161,58.7678064 C518.13628,58.4668444 518.0694,58.1993227 517.969079,57.8983607 Z M517.668117,57.1292357 C516.932432,55.4572247 515.628264,54.1530562 513.889373,53.3170507 L517.668117,57.1292357 Z M527.900824,56.9954748 L524.958085,54.0192953 C525.76065,55.8250671 526.295694,58.0655618 526.295694,60.3060565 C526.295694,60.7073391 526.295694,61.1086217 526.262253,61.4764641 L532.415254,67.0609807 C532.281493,63.0815946 530.776683,59.938214 527.900824,56.9954748 Z M508.572378,69.3014753 C514.357536,69.3014753 518.403802,65.7233719 518.403802,60.6404586 C518.403802,60.3394967 518.403802,60.0385347 518.370362,59.7375727 C517.801878,59.6372521 517.199954,59.6038119 516.63147,59.6038119 L507.43541,59.6038119 L507.43541,69.3014753 L508.572378,69.3014753 Z M531.478928,73.1805407 C532.080852,71.5085298 532.415254,69.6693177 532.415254,67.6963448 L532.415254,67.5291437 L526.228813,61.8777467 C526.061612,63.7838392 525.593449,65.5561708 524.857764,67.1613013 L531.478928,73.1805407 Z M524.690563,67.4622633 C524.088639,68.6995514 523.352954,69.8030786 522.450069,70.8062852 L529.338754,77.0596061 C530.141319,75.9895191 530.843563,74.7856712 531.345167,73.5149429 L524.690563,67.4622633 Z M526.696976,79.6345029 C527.599862,78.9322583 528.402427,78.1631333 529.138112,77.2936876 L522.215987,71.0403667 C521.446862,71.8763722 520.610857,72.5786168 519.67453,73.2474211 L526.696976,79.6345029 Z M516.832112,74.8191114 L523.954878,81.3065139 C524.857764,80.871791 525.66033,80.403628 526.429455,79.8351442 L519.373568,73.4480624 C518.571003,73.9496657 517.734998,74.4178288 516.832112,74.8191114 Z M514.023133,75.7888778 L521.21278,82.3097204 C522.048786,82.0756389 522.884791,81.7746769 523.653916,81.4402747 L516.49771,74.9528723 C515.695144,75.2872745 514.859139,75.5547962 514.023133,75.7888778 Z M511.314476,76.290481 L518.537563,82.8113237 C519.340128,82.711003 520.109253,82.5772422 520.844938,82.4100411 L513.655291,75.8557582 C512.886166,76.0563995 512.117041,76.1901604 511.314476,76.290481 Z M515.895786,82.9450846 L516.263628,82.9450846 C516.865552,82.9450846 517.467476,82.9116444 518.03596,82.8782041 L510.846313,76.3573615 C510.177508,76.4242419 509.475264,76.4576821 508.773019,76.4911224 L515.895786,82.9450846 Z M506.432204,76.4911224 L513.55497,82.9450846 L515.360742,82.9450846 L508.271416,76.4911224 L506.432204,76.4911224 Z M506.833486,99.9327157 L506.833486,82.9450846 L506.866927,82.9450846 L499.74416,76.4911224 L499.71072,76.4911224 L499.71072,78.1965735 L505.89716,83.8145303 L505.629638,84.0486118 L499.71072,78.6647366 L499.71072,80.4370682 L504.726753,84.9849379 L504.459231,85.2190195 L499.71072,80.9052312 L499.71072,82.6441226 L503.556345,86.1553456 L503.322263,86.3894271 L499.71072,83.1122857 L499.71072,84.8846173 L502.385937,87.3257532 L502.151856,87.5598348 L499.71072,85.3527803 L499.71072,87.0582315 L501.24897,88.4627207 L501.014888,88.7302424 L499.71072,87.5598348 L499.71072,92.8099491 L506.833486,99.9327157 Z M500.245763,76.4911224 L507.33509,82.9450846 L508.070774,82.9450846 L500.948008,76.4911224 L500.245763,76.4911224 Z M501.416171,76.4911224 L508.538938,82.9450846 L509.441823,82.9450846 L502.319057,76.4911224 L501.416171,76.4911224 Z M502.8541,76.4911224 L509.943427,82.9450846 L511.080394,82.9450846 L503.991068,76.4911224 L502.8541,76.4911224 Z M504.425791,76.4911224 L511.581997,82.9450846 L513.053367,82.9450846 L505.964041,76.4911224 L504.425791,76.4911224 Z M493.524279,92.8099491 L500.647046,99.9327157 L502.118416,99.9327157 L495.029089,92.8099491 L493.524279,92.8099491 Z M496.7011,92.8099491 L495.497252,92.8099491 L502.620019,99.9327157 L503.823867,99.9327157 L496.7011,92.8099491 Z M497.169263,92.8099491 L504.32547,99.9327157 L505.194916,99.9327157 L498.105589,92.8099491 L497.169263,92.8099491 Z M498.573752,92.8099491 L505.696519,99.9327157 L506.331883,99.9327157 L499.242557,92.8099491 L498.573752,92.8099491 Z M577.593036,45.0238765 L585.585248,53.0160888 L585.585248,79.4338616 C585.585248,92.8099491 577.626476,101.571286 565.554557,101.571286 C559.167475,101.571286 554.586165,99.7655146 550.439578,95.6189275 L543.584333,88.8305631 C539.805589,85.1186988 537.765735,79.5341823 537.765735,72.3779754 L537.765735,45.0238765 L545.289785,45.0238765 L553.616399,53.3504909 L553.616399,80.1695464 C553.616399,82.24284 553.850481,84.2492531 554.385524,86.0550249 C555.489051,86.3225467 556.692899,86.4897478 557.963628,86.4897478 C565.521117,86.4897478 570.068987,81.1393128 570.068987,72.1104537 L570.068987,45.0238765 L577.593036,45.0238765 Z M552.680073,53.7517736 L545.557306,46.629007 L545.557306,47.1640505 L552.680073,54.2868171 L552.680073,53.7517736 Z M577.860558,47.1974907 L584.648922,53.9858551 L584.648922,53.4173714 L577.860558,46.6624472 L577.860558,47.1974907 Z M552.680073,55.7247465 L552.680073,54.7884204 L545.557306,47.6656537 L545.557306,48.6019799 L552.680073,55.7247465 Z M577.860558,48.6354201 L584.648922,55.4237845 L584.648922,54.4874584 L577.860558,47.699094 L577.860558,48.6354201 Z M552.680073,57.6977194 L552.680073,56.1929095 L545.557306,49.0701429 L545.557306,50.5749528 L552.680073,57.6977194 Z M577.860558,50.608393 L584.648922,57.3967574 L584.648922,55.8919476 L577.860558,49.1035832 L577.860558,50.608393 Z M552.680073,60.4732575 L552.680073,58.1993227 L545.557306,51.0765561 L545.557306,53.3504909 L552.680073,60.4732575 Z M577.860558,53.3839312 L584.648922,60.1722956 L584.648922,57.8983607 L577.860558,51.1099963 L577.860558,53.3839312 Z M552.680073,64.2520023 L552.680073,60.9414206 L545.557306,53.818654 L545.557306,57.1292357 L552.680073,64.2520023 Z M577.860558,57.1626759 L584.648922,63.9510403 L584.648922,60.6404586 L577.860558,53.8520942 L577.860558,57.1626759 Z M552.680073,69.4686764 L552.680073,64.7201653 L545.557306,57.5973987 L545.557306,62.3459098 L552.680073,69.4686764 Z M584.648922,64.4192034 L577.860558,57.6308389 L577.860558,62.37935 L584.648922,69.1677144 L584.648922,64.4192034 Z M545.557306,62.8140729 L545.557306,72.1104537 C545.557306,79.0660192 548.433165,83.9148509 553.348877,85.7206227 C552.914154,83.9817314 552.680073,82.1090791 552.680073,80.1695464 L552.680073,69.9368395 L545.557306,62.8140729 Z M583.511955,87.5263946 C584.24764,85.0852586 584.648922,82.3766009 584.648922,79.4338616 L584.648922,69.6358775 L577.860558,62.8475131 L577.860558,72.3779754 C577.860558,75.4879158 577.492715,78.2968942 576.75703,80.7714704 L583.511955,87.5263946 Z M576.62327,81.1058725 C576.121666,82.7444433 575.452862,84.2492531 574.616856,85.5534216 L581.33834,92.2749056 C582.174346,90.9372969 582.876591,89.4659272 583.378194,87.8607967 L576.62327,81.1058725 Z M578.763444,95.5520471 C579.66633,94.6491612 580.468895,93.6793948 581.171139,92.5758676 L574.449655,85.8543836 C573.747411,86.9579108 572.944846,87.9276772 572.04196,88.8305631 L578.763444,95.5520471 Z M569.232981,90.9707371 L576.021346,97.7591015 C576.924232,97.1906178 577.760237,96.5218134 578.529362,95.7861286 L571.774438,89.0312044 C571.005313,89.7668892 570.169307,90.4022534 569.232981,90.9707371 Z M566.457443,92.3752263 L573.279248,99.1970309 C574.115253,98.8291885 574.951259,98.4279059 575.720384,97.9263026 L568.932019,91.1379382 C568.162894,91.6061013 567.326889,92.0073839 566.457443,92.3752263 Z M547.463399,91.4723404 L551.108383,94.9501231 C551.810627,95.6189275 552.512872,96.2208514 553.215116,96.7558949 L548.332845,91.873623 L547.463399,91.4723404 Z M550.105176,92.5424274 C549.770774,92.4086665 549.436372,92.3083458 549.10197,92.174585 L554.719926,97.7925417 C555.22153,98.0935037 555.689693,98.3944657 556.191296,98.6285472 L550.105176,92.5424274 Z M563.715345,93.2112318 L570.57059,100.066477 C571.373155,99.8658353 572.14228,99.6317538 572.911405,99.3307918 L566.089601,92.5089872 C565.320476,92.7765089 564.51791,93.0105904 563.715345,93.2112318 Z M550.77398,92.7430687 L557.094182,99.06327 C557.528905,99.2304711 557.963628,99.4311124 558.431791,99.5648733 L551.944388,93.0774709 C551.543106,92.9771502 551.175263,92.8768296 550.77398,92.7430687 Z M552.613193,93.244672 L559.167475,99.7989549 C559.635638,99.9327157 560.103802,100.066477 560.605405,100.166797 L553.950801,93.5121937 C553.482638,93.4118731 553.047915,93.3449926 552.613193,93.244672 Z M561.107008,93.6459546 L567.962253,100.501199 C568.731378,100.434319 569.467063,100.300558 570.169307,100.133357 L563.314063,93.2781122 C562.611818,93.4453133 561.876133,93.5790742 561.107008,93.6459546 Z M554.485845,93.5790742 L561.173889,100.267118 C561.708932,100.367439 562.243976,100.434319 562.779019,100.501199 L556.057535,93.7797155 C555.522492,93.7462753 555.020888,93.6793948 554.485845,93.5790742 Z M558.766193,93.8465959 L565.554557,100.63496 C566.223362,100.63496 566.892166,100.60152 567.52753,100.53464 L560.705725,93.712835 C560.070361,93.7797155 559.401557,93.8131557 558.766193,93.8465959 Z M556.559138,93.8131557 L563.280622,100.53464 C563.882546,100.60152 564.45103,100.63496 565.086394,100.63496 L558.29803,93.8465959 L557.829867,93.8465959 C557.395144,93.8465959 556.993861,93.8465959 556.559138,93.8131557 Z M622.703946,85.3862206 L631.03056,93.712835 L631.03056,100.869042 L600.566521,100.869042 L592.239906,92.5424274 L592.239906,45.0573167 L599.763956,45.0573167 L608.09057,53.3839312 L608.09057,85.3862206 L622.703946,85.3862206 Z M607.154244,53.7852138 L600.031477,46.6624472 L600.031477,47.1640505 L607.154244,54.2868171 L607.154244,53.7852138 Z M607.154244,55.7247465 L607.154244,54.7884204 L600.031477,47.6656537 L600.031477,48.6019799 L607.154244,55.7247465 Z M607.154244,57.6977194 L607.154244,56.1929095 L600.031477,49.0701429 L600.031477,50.5749528 L607.154244,57.6977194 Z M607.154244,60.4732575 L607.154244,58.1993227 L600.031477,51.0765561 L600.031477,53.3504909 L607.154244,60.4732575 Z M607.154244,64.2520023 L607.154244,60.9414206 L600.031477,53.818654 L600.031477,57.1292357 L607.154244,64.2520023 Z M607.154244,69.4686764 L607.154244,64.7201653 L600.031477,57.5973987 L600.031477,62.3459098 L607.154244,69.4686764 Z M600.031477,85.3862206 L607.154244,85.3862206 L607.154244,69.9368395 L600.031477,62.8140729 L600.031477,85.3862206 Z M630.094234,99.9327157 L630.094234,94.1141177 L622.971468,86.9913511 L622.971468,92.8099491 L630.094234,99.9327157 Z M593.845037,92.8099491 L600.967804,99.9327157 L604.077744,99.9327157 L596.921537,92.8099491 L593.845037,92.8099491 Z M597.3897,92.8099491 L604.545907,99.9327157 L607.354885,99.9327157 L600.198679,92.8099491 L597.3897,92.8099491 Z M600.666842,92.8099491 L607.823048,99.9327157 L610.331065,99.9327157 L603.174858,92.8099491 L600.666842,92.8099491 Z M603.643021,92.8099491 L610.799228,99.9327157 L613.006282,99.9327157 L605.883516,92.8099491 L603.643021,92.8099491 Z M606.351679,92.8099491 L613.507886,99.9327157 L615.480859,99.9327157 L608.358092,92.8099491 L606.351679,92.8099491 Z M608.826255,92.8099491 L615.949022,99.9327157 L617.721353,99.9327157 L610.565146,92.8099491 L608.826255,92.8099491 Z M611.033309,92.8099491 L618.189516,99.9327157 L619.761207,99.9327157 L612.605,92.8099491 L611.033309,92.8099491 Z M613.073163,92.8099491 L620.22937,99.9327157 L621.600419,99.9327157 L614.444212,92.8099491 L613.073163,92.8099491 Z M614.912375,92.8099491 L622.068582,99.9327157 L623.27243,99.9327157 L616.149663,92.8099491 L614.912375,92.8099491 Z M616.617826,92.8099491 L623.740593,99.9327157 L624.81068,99.9327157 L617.654473,92.8099491 L616.617826,92.8099491 Z M618.122636,92.8099491 L625.278843,99.9327157 L626.181729,99.9327157 L619.058962,92.8099491 L618.122636,92.8099491 Z M619.527125,92.8099491 L626.649892,99.9327157 L627.452457,99.9327157 L620.29625,92.8099491 L619.527125,92.8099491 Z M620.797853,92.8099491 L627.92062,99.9327157 L628.589424,99.9327157 L621.466658,92.8099491 L620.797853,92.8099491 Z M621.934821,92.8099491 L629.057587,99.9327157 L629.626071,99.9327157 L622.503304,92.8099491 L621.934821,92.8099491 Z M666.945396,78.0293724 C669.520293,80.6042693 670.62382,83.4466879 670.62382,87.3591935 C670.62382,95.7526884 664.002657,101.571286 654.405314,101.571286 C647.449749,101.705047 642.266515,99.665194 639.022814,97.1906178 L630.79652,88.964324 L630.79652,81.0724323 L631.599085,80.7380301 C635.210629,84.1154922 640.226661,86.0215847 645.443336,86.0215847 C649.790564,86.0215847 653.301787,84.4498944 654.672836,82.0756389 C649.456162,79.5341823 643.336602,78.1296931 639.892259,73.7490244 L634.842786,67.3285024 C632.43509,64.2520023 631.264683,62.0115076 631.264683,58.3330835 C631.264683,50.1067897 637.818966,44.4553927 647.382868,44.4553927 C652.2317,44.3550721 657.147412,45.6592406 660.692075,47.9666157 L668.951809,56.2263498 L668.951809,63.7169588 L668.216125,64.0848012 C664.43738,61.309263 660.123592,59.7375727 656.110765,59.7375727 C651.496015,59.7375727 648.051673,61.5767848 647.148787,64.4526436 C651.830417,66.1246545 656.84645,67.7966655 660.023271,71.0403667 L666.945396,78.0293724 Z M660.892717,49.5048658 L660.892717,55.657866 L660.859276,55.657866 L668.015483,62.8140729 L668.015483,56.6276324 L660.892717,49.5048658 Z M648.820798,51.7119202 C648.553276,51.67848 648.285754,51.67848 648.051673,51.67848 C647.550069,51.67848 647.048466,51.7119202 646.546863,51.7453604 L653.76995,58.9684477 C654.438754,58.868127 655.174439,58.8012466 655.910124,58.8012466 L648.820798,51.7119202 Z M658.28438,58.9350075 L651.362254,52.0128822 C650.69345,51.8791213 649.991205,51.7788007 649.288961,51.7119202 L656.378287,58.8012466 C657.013651,58.8012466 657.649015,58.868127 658.28438,58.9350075 Z M653.368667,59.0353281 L646.11214,51.7788007 C645.242694,51.9125615 644.440129,52.0797626 643.671004,52.3138442 L650.994412,59.6372521 C651.730097,59.3697303 652.532662,59.169089 653.368667,59.0353281 Z M660.524874,59.3697303 L653.83683,52.6816866 C653.234906,52.4810453 652.599542,52.2804039 651.964178,52.1466431 L658.852863,59.0353281 C659.387907,59.1022086 659.95639,59.2359695 660.524874,59.3697303 Z M650.66001,59.771013 L643.336602,52.447605 C642.366835,52.7820072 641.56427,53.2501703 640.895466,53.818654 L648.285754,61.2089424 C648.954558,60.6404586 649.757124,60.1722956 650.66001,59.771013 Z M662.665048,60.0385347 L656.344847,53.7183333 C655.776363,53.4508116 655.174439,53.1832898 654.572515,52.9492083 L661.160238,59.5369314 C661.661842,59.6706923 662.163445,59.8378934 662.665048,60.0385347 Z M646.245901,64.1182414 C646.580303,63.0815946 647.182227,62.1787087 648.018232,61.4095837 L640.627944,54.0192953 C639.691618,54.888741 639.089694,55.958828 638.922493,57.1292357 L645.710857,63.9176001 L646.245901,64.1182414 Z M664.671461,60.8745402 L659.053505,55.2565834 C658.485021,54.888741 657.916537,54.5208986 657.314613,54.2199366 L663.434173,60.3394967 C663.835456,60.5066978 664.270179,60.6738989 664.671461,60.8745402 Z M660.257352,55.9922682 L665.641228,61.3761435 C665.97563,61.5433445 666.343472,61.7439859 666.711315,61.9780674 L660.558314,55.8250671 L660.257352,55.9922682 Z M638.889053,57.8314803 C638.889053,60.6404586 641.463949,62.2121489 644.941732,63.6166381 L638.889053,57.5639585 L638.889053,57.8314803 Z M641.363629,73.9831059 C642.567477,75.2872745 644.239488,76.3239213 646.14558,77.2602474 L638.45433,69.5689971 C638.053047,69.3349155 637.651765,69.100834 637.283922,68.8667525 C638.48777,70.5387634 639.825379,72.311095 641.363629,73.9831059 Z M641.798352,71.1741276 C640.995786,70.8397254 640.193221,70.471883 639.457536,70.1040406 L647.048466,77.6949702 C647.784151,78.0293724 648.553276,78.3637746 649.355841,78.6981768 L641.798352,71.1741276 Z M642.567477,71.4750895 L650.158406,79.032579 C650.76033,79.3001007 651.362254,79.5341823 651.964178,79.801704 L644.306368,72.1438939 C643.737884,71.9432526 643.169401,71.7091711 642.567477,71.4750895 Z M645.042053,72.4114157 L652.800184,80.1695464 C653.301787,80.3701877 653.80339,80.6042693 654.304994,80.8383508 L646.379662,72.8795787 C645.944939,72.7458178 645.476776,72.5786168 645.042053,72.4114157 Z M655.107559,81.1393128 C655.140999,80.9721117 655.207879,80.8049106 655.24132,80.6377095 L648.185433,73.5483831 C647.851031,73.4146222 647.483189,73.2808613 647.148787,73.1805407 L655.107559,81.1393128 Z M648.987999,73.8493451 L655.3082,80.1695464 C655.34164,80.0357855 655.34164,79.8685845 655.34164,79.7348236 L655.34164,79.7013834 L649.857444,74.2171875 L648.987999,73.8493451 Z M655.3082,79.1997801 L655.207879,78.6981768 L651.462575,74.9528723 C651.228493,74.8191114 650.960972,74.7187908 650.69345,74.5850299 L655.3082,79.1997801 Z M666.276592,78.6981768 L662.497847,74.9194321 C662.96601,76.1901604 663.233532,77.6280898 663.233532,79.3001007 C663.233532,80.1361062 663.166651,80.9386715 663.032891,81.7412367 L669.654054,88.3624 C669.687494,88.0279978 669.687494,87.6935957 669.687494,87.3591935 C669.687494,83.6473292 668.684288,81.1058725 666.276592,78.6981768 Z M654.940358,77.9290518 C654.472195,77.0261659 653.636189,76.2570408 652.566102,75.5882364 L654.940358,77.9290518 Z M669.620614,88.7971229 L662.96601,82.1425193 C662.631608,83.6807694 662.063124,85.1186988 661.260559,86.3894271 L668.283005,93.4118731 C668.98525,92.0073839 669.453413,90.4691338 669.620614,88.7971229 Z M665.908749,96.5218134 C666.778195,95.6858079 667.51388,94.7494818 668.082364,93.712835 L661.059918,86.6903891 C660.424554,87.6935957 659.655429,88.5630413 658.752543,89.3656066 L665.908749,96.5218134 Z M655.977004,91.2382588 L663.233532,98.5282265 C664.136418,97.993183 664.938983,97.4246993 665.674668,96.7558949 L658.485021,89.5662479 C657.715896,90.2016121 656.87989,90.7700958 655.977004,91.2382588 Z M634.274302,91.104498 L639.624737,96.454933 C640.126341,96.8227754 640.627944,97.1906178 641.196428,97.52502 L635.143748,91.5057806 L634.274302,91.104498 Z M653.168026,92.4421067 L660.457994,99.7320744 C661.327439,99.4311124 662.163445,99.0967103 662.93257,98.6619874 L655.676042,91.4054599 C654.906917,91.8067426 654.070912,92.174585 653.168026,92.4421067 Z M635.979754,91.8401828 L642.266515,98.1269439 C642.634357,98.294145 643.0022,98.4947863 643.403482,98.6619874 L636.91608,92.174585 L635.979754,91.8401828 Z M637.618324,92.3752263 L644.206047,98.9963896 C644.60733,99.1301505 645.042053,99.2973516 645.476776,99.4311124 L638.721852,92.6761883 L637.618324,92.3752263 Z M650.459368,93.1109111 L657.715896,100.367439 C658.551901,100.233678 659.354467,100.066477 660.090151,99.8323951 L652.833624,92.5758676 C652.064499,92.7765089 651.295374,92.9771502 650.459368,93.1109111 Z M639.357216,92.8433893 L646.14558,99.6317538 C646.613743,99.7655146 647.081906,99.8992755 647.58351,99.9995962 L640.661384,93.0774709 C640.226661,93.0105904 639.791939,92.9102698 639.357216,92.8433893 Z M641.229868,93.1777915 L648.151993,100.099917 C648.687037,100.200237 649.18864,100.300558 649.723684,100.367439 L642.734678,93.3449926 C642.199634,93.3115524 641.731471,93.244672 641.229868,93.1777915 Z M657.281173,100.434319 L650.058086,93.1777915 C649.355841,93.3115524 648.620156,93.3784328 647.884471,93.4453133 L655.074119,100.63496 C655.843244,100.60152 656.578928,100.53464 657.281173,100.434319 Z M643.269721,93.4118731 L650.325607,100.434319 C650.927531,100.501199 651.496015,100.56808 652.097939,100.60152 L644.975172,93.4787535 C644.406689,93.4787535 643.838205,93.4453133 643.269721,93.4118731 Z M652.566102,100.60152 C653.168026,100.63496 653.80339,100.63496 654.405314,100.63496 L654.572515,100.63496 L647.416308,93.4453133 C647.048466,93.4787535 646.714064,93.4787535 646.346221,93.4787535 L645.443336,93.4787535 L652.566102,100.60152 Z M708.21067,85.5534216 L716.537284,93.8800361 L716.537284,100.869042 L684.367794,100.869042 L676.041179,92.5424274 L676.041179,45.0573167 L707.240904,45.0573167 L715.567518,53.3839312 L715.567518,59.9716543 L691.858403,59.9716543 L691.824963,64.7536056 L703.428719,64.7536056 L711.755333,73.08022 L711.755333,79.801704 L691.824963,79.801704 L691.824963,85.5534216 L708.21067,85.5534216 Z M714.631192,53.7852138 L707.508425,46.6624472 L707.508425,52.2469637 L714.631192,59.0353281 L714.631192,53.7852138 Z M691.590881,59.0353281 L684.501555,52.2469637 L683.999951,52.2469637 L691.089278,59.0353281 L691.590881,59.0353281 Z M692.92849,59.0353281 L685.805723,52.2469637 L685.003158,52.2469637 L692.092484,59.0353281 L692.92849,59.0353281 Z M694.600501,59.0353281 L687.477734,52.2469637 L686.307327,52.2469637 L693.430093,59.0353281 L694.600501,59.0353281 Z M696.606914,59.0353281 L689.517588,52.2469637 L687.979337,52.2469637 L695.102104,59.0353281 L696.606914,59.0353281 Z M699.282131,59.0353281 L692.125925,52.2469637 L690.019191,52.2469637 L697.108517,59.0353281 L699.282131,59.0353281 Z M701.957349,59.0353281 L694.801142,52.2469637 L692.660968,52.2469637 L699.783735,59.0353281 L701.957349,59.0353281 Z M704.732887,59.0353281 L697.61012,52.2469637 L695.336186,52.2469637 L702.458952,59.0353281 L704.732887,59.0353281 Z M707.408105,59.0353281 L700.352218,52.2469637 L698.111724,52.2469637 L705.23449,59.0353281 L707.408105,59.0353281 Z M709.74892,59.0353281 L702.659594,52.2469637 L700.820382,52.2469637 L707.943148,59.0353281 L709.74892,59.0353281 Z M711.755333,59.0353281 L704.666007,52.2469637 L703.127757,52.2469637 L710.283963,59.0353281 L711.755333,59.0353281 Z M713.092942,59.0353281 L706.037056,52.2469637 L705.13417,52.2469637 L712.290377,59.0353281 L713.092942,59.0353281 Z M714.096148,59.0353281 L707.040262,52.2469637 L706.505219,52.2469637 L713.627985,59.0353281 L714.096148,59.0353281 Z M683.76587,62.0115076 L685.404441,63.5831979 L685.136919,63.8172794 L683.76587,62.5131109 L683.76587,64.7536056 L690.888637,64.7536056 L690.888637,59.3028499 L683.76587,52.5144855 L683.76587,53.9189747 L689.95231,59.8378934 L689.651348,60.0385347 L683.76587,54.4205779 L683.76587,55.958828 L688.815343,60.7742195 L688.514381,61.008301 L683.76587,56.4269911 L683.76587,57.9652411 L687.678376,61.7105456 L687.377414,61.9446272 L683.76587,58.4668444 L683.76587,60.0050945 L686.541408,62.6468718 L686.273886,62.8809533 L683.76587,60.4732575 L683.76587,62.0115076 Z M703.69624,66.3587361 L703.69624,72.0770135 L703.6628,72.0770135 L710.819007,78.8653779 L710.819007,73.4815027 L703.69624,66.3587361 Z M691.122718,78.8653779 L691.724642,78.8653779 L684.601875,72.0770135 L683.999951,72.0770135 L691.122718,78.8653779 Z M685.103479,72.0770135 L692.226245,78.8653779 L693.396653,78.8653779 L686.307327,72.0770135 L685.103479,72.0770135 Z M686.80893,72.0770135 L693.898256,78.8653779 L695.737468,78.8653779 L688.581261,72.0770135 L686.80893,72.0770135 Z M689.116305,72.0770135 L696.239072,78.8653779 L698.747088,78.8653779 L691.657762,72.0770135 L689.116305,72.0770135 Z M701.957349,78.8653779 L694.901463,72.0770135 L692.159365,72.0770135 L699.248691,78.8653779 L701.957349,78.8653779 Z M705.16761,78.8653779 L698.044843,72.0770135 L695.369626,72.0770135 L702.492392,78.8653779 L705.16761,78.8653779 Z M707.474985,78.8653779 L700.419099,72.0770135 L698.546447,72.0770135 L705.669213,78.8653779 L707.474985,78.8653779 Z M709.146996,78.8653779 L702.05767,72.0770135 L700.887262,72.0770135 L708.010029,78.8653779 L709.146996,78.8653779 Z M702.525833,72.0770135 L709.682039,78.8653779 L710.283963,78.8653779 L703.194637,72.0770135 L702.525833,72.0770135 Z M683.76587,83.9482911 L684.635316,84.7842966 L684.367794,85.0518184 L683.76587,84.4833346 L683.76587,85.5534216 L690.888637,85.5534216 L690.888637,79.0994594 L683.76587,72.311095 L683.76587,73.7824646 L689.95231,79.7348236 L689.718229,79.9689051 L683.76587,74.2840679 L683.76587,75.8557582 L688.915664,80.7714704 L688.648142,81.0055519 L683.76587,76.3239213 L683.76587,77.8621713 L687.845577,81.7746769 L687.578055,82.0087585 L683.76587,78.3637746 L683.76587,79.9020247 L686.77549,82.7778835 L686.507968,83.011965 L683.76587,80.403628 L683.76587,81.941878 L685.705403,83.7810901 L685.437881,84.0151716 L683.76587,82.4100411 L683.76587,83.9482911 Z M708.478192,87.1585521 L708.478192,92.8099491 L715.600958,99.9327157 L715.600958,94.2813188 L708.478192,87.1585521 Z M680.890011,92.8099491 L677.64631,92.8099491 L684.769076,99.9327157 L688.012778,99.9327157 L680.890011,92.8099491 Z M684.267473,92.8099491 L681.358174,92.8099491 L688.480941,99.9327157 L691.42368,99.9327157 L684.267473,92.8099491 Z M684.735636,92.8099491 L691.891843,99.9327157 L694.50018,99.9327157 L687.343973,92.8099491 L684.735636,92.8099491 Z M687.812136,92.8099491 L694.968343,99.9327157 L697.275718,99.9327157 L690.152952,92.8099491 L687.812136,92.8099491 Z M692.660968,92.8099491 L690.621115,92.8099491 L697.743881,99.9327157 L699.817175,99.9327157 L692.660968,92.8099491 Z M702.09111,99.9327157 L694.968343,92.8099491 L693.129131,92.8099491 L700.285338,99.9327157 L702.09111,99.9327157 Z M695.436506,92.8099491 L702.559273,99.9327157 L704.164403,99.9327157 L697.041637,92.8099491 L695.436506,92.8099491 Z M697.5098,92.8099491 L704.632566,99.9327157 L706.070496,99.9327157 L698.914289,92.8099491 L697.5098,92.8099491 Z M699.382452,92.8099491 L706.538659,99.9327157 L707.775947,99.9327157 L700.61974,92.8099491 L699.382452,92.8099491 Z M701.087903,92.8099491 L708.24411,99.9327157 L709.314197,99.9327157 L702.15799,92.8099491 L701.087903,92.8099491 Z M702.626153,92.8099491 L709.78236,99.9327157 L710.718686,99.9327157 L703.562479,92.8099491 L702.626153,92.8099491 Z M704.030643,92.8099491 L711.186849,99.9327157 L711.989415,99.9327157 L704.833208,92.8099491 L704.030643,92.8099491 Z M705.301371,92.8099491 L712.457578,99.9327157 L713.126382,99.9327157 L706.003615,92.8099491 L705.301371,92.8099491 Z M706.471778,92.8099491 L713.594545,99.9327157 L714.196469,99.9327157 L707.040262,92.8099491 L706.471778,92.8099491 Z M707.508425,92.8099491 L714.664632,99.9327157 L715.132795,99.9327157 L707.976588,92.8099491 L707.508425,92.8099491 Z" id="DeFi-Pulse"></path>
        </g>
    </g>
</svg>