<svg width="26" height="32" viewBox="0 0 26 32" fill="none" xmlns="http://www.w3.org/2000/svg">
<path d="M25.3556 25.1211H22.7782C22.4239 25.1211 22.1338 24.832 22.1338 24.4766V12.8789C22.1338 12.6641 22.2374 12.4766 22.3969 12.3594C22.5037 12.2812 22.6356 12.2344 22.7782 12.2344H25.3556C25.7112 12.2344 26 12.5234 26 12.8789V24.4766C26 24.832 25.71 25.1211 25.3556 25.1211Z" fill="white"/>
<path d="M12.8346 25.1172C12.8346 25.1172 7.97569 25.1367 7.87193 25.1172C6.15432 24.8281 5.66287 22.5 7.13287 21.5586C6.6339 20.6758 6.92525 19.5234 7.77725 18.9805C7.27828 18.0977 7.56967 16.9492 8.42163 16.4023C7.7069 15.1367 8.65658 13.5195 10.1057 13.5195H20.845V23.832C20.845 23.832 17.7373 26.6445 16.7369 27.6211C16.1631 28.1797 15.7926 28.9258 15.6439 29.7109L15.6053 29.9805C15.5796 30.2031 15.554 30.4258 15.4376 30.625C15.2944 30.8672 15.0542 31.0469 14.7809 31.1172C14.3044 31.2344 13.7133 31.1211 13.2902 30.8945C11.9908 30.2031 11.6876 28.25 12.1559 26.9688L12.8346 25.1172Z" fill="white"/>
<path fill-rule="evenodd" clip-rule="evenodd" d="M18.1281 6.04683C18.0243 6.0273 13.1654 6.04683 13.1654 6.04683L13.8441 4.19527C14.3124 2.91402 14.0092 0.960894 12.7098 0.269487C12.2868 0.0429249 11.6956 -0.0703564 11.2191 0.0468311C10.9458 0.117144 10.7056 0.296831 10.5624 0.539019C10.4462 0.738042 10.4205 0.960458 10.3948 1.1829L10.3561 1.45308C10.2074 2.23824 9.83692 2.98433 9.26312 3.54292C8.26271 4.51949 5.15497 7.33199 5.15497 7.33199V17.6445H6.56043C6.63723 17.0842 6.87318 16.5485 7.24732 16.1125C6.84851 14.3605 8.18439 12.5194 10.1057 12.5194H18.3713C18.3334 12.4045 18.2841 12.292 18.2228 12.1835C19.0748 11.6406 19.3661 10.4882 18.8671 9.60542C20.3371 8.66402 19.8457 6.33589 18.1281 6.04683ZM3.2218 6.04292H0.644379C0.290039 6.04292 0 6.33199 0 6.68746V18.2851C0 18.6406 0.288765 18.9296 0.644379 18.9296H3.2218C3.36443 18.9296 3.4963 18.8828 3.6031 18.8046C3.7626 18.6875 3.86618 18.5 3.86618 18.2851V6.68746C3.86618 6.33199 3.5761 6.04292 3.2218 6.04292Z" fill="white"/>
</svg>
