<svg xmlns="http://www.w3.org/2000/svg" viewBox="0 0 32 32" fill="currentColor">
  <path d="M16.9258 32C27.3847 28.7065 32.3249 8.99031 32.3249 3.42696L16.9258 3.8147e-05V32Z"/>
  <path d="M8.71142 27.2044H15.2955V22.7649H5.71045C6.57167 24.3342 7.57628 25.8203 8.71142 27.2044Z"/>
  <path d="M15.2956 32V28.9068H10.3003C11.7988 30.3308 13.4603 31.4221 15.2956 32Z"/>
  <path d="M4.81735 21.0626H15.2955V16.8902H3.00732C3.54083 18.2938 4.14316 19.6991 4.81735 21.0626Z"/>
  <path d="M0.672645 9.06258H15.2956V5.07373H0C0.152928 6.41439 0.377464 7.74591 0.672645 9.06258Z"/>
  <path d="M15.2957 3.37134V0L0.146484 3.37134H15.2957Z"/>
  <path d="M2.38945 15.1877H15.2956V10.765H1.07324C1.42981 12.1705 1.86801 13.6652 2.38945 15.1877Z"/>
</svg>
