<svg width="16" height="16" viewBox="0 0 1080 1080" fill="none" xmlns="http://www.w3.org/2000/svg">
<path fill-rule="evenodd" clip-rule="evenodd" d="M438.745 846.775V523.903H508.642C638.003 523.903 729.807 569.712 729.807 722.767C729.807 852.364 674.518 913.81 551.413 913.81C491.95 913.81 438.745 911.574 438.745 846.775ZM438.745 492.711V223.704C438.745 182.881 445.525 180.788 498.64 180.788C647.814 180.788 714.49 213.236 714.49 325.236C714.49 426.768 657.985 490.618 542.715 492.711H438.745ZM261.718 269.909V809.09C261.718 904.896 252.061 913.81 163 914.922V945H550.361C707.022 945 883 917.151 883 729.999C883 594.088 758.529 536.157 649.079 513.878V511.65C744.579 493.826 837.931 435.897 837.931 323.382C837.931 158.508 636.204 134 505.295 134H163V164.078C252.061 165.192 261.718 174.105 261.718 269.909Z" fill="currentColor" />
</svg>
