<svg width="1em" height="1em" viewBox="0 0 24 24" fill="none" xmlns="http://www.w3.org/2000/svg">
<path fill-rule="evenodd" clip-rule="evenodd" d="M11.2987 2.8775C11.8425 2.59697 12.4895 2.59668 13.0331 2.8775L14.5116 3.64117C14.6947 3.73564 14.8919 3.79982 15.0956 3.83062L16.7421 4.08062C17.3472 4.17234 17.8701 4.55055 18.1445 5.09625L18.8905 6.58062C18.9829 6.76438 19.1052 6.93227 19.2519 7.07671L20.4374 8.24273C20.8734 8.6718 21.0724 9.28648 20.9726 9.88921L20.7011 11.5279C20.6676 11.7307 20.6675 11.9384 20.7011 12.1412L20.9726 13.7779C21.0724 14.3806 20.8734 14.9953 20.4374 15.4244L19.2519 16.5904C19.1051 16.7349 18.9829 16.9026 18.8905 17.0865L18.1445 18.5709C17.8701 19.1168 17.3474 19.4968 16.7421 19.5884L15.0956 19.8365C14.8919 19.8673 14.6946 19.9315 14.5116 20.0259L13.0331 20.7896C12.4894 21.0705 11.8425 21.0702 11.2987 20.7896L9.82023 20.0259C9.63703 19.9313 9.43826 19.8673 9.23429 19.8365L7.58781 19.5884C6.98257 19.4967 6.45978 19.1168 6.18547 18.5709L5.43937 17.0865C5.34694 16.9026 5.22487 16.7349 5.07804 16.5904L3.8925 15.4244C3.45656 14.9953 3.25752 14.3806 3.35734 13.7779L3.62883 12.1412C3.66242 11.9384 3.66233 11.7307 3.62883 11.5279L3.35734 9.88921C3.25751 9.28648 3.4565 8.6718 3.8925 8.24273L5.07804 7.07671C5.22478 6.93223 5.34698 6.76446 5.43937 6.58062L6.18547 5.09625C6.45979 4.55058 6.98278 4.17244 7.58781 4.08062L9.23429 3.83062C9.43826 3.79979 9.63703 3.7358 9.82023 3.64117L11.2987 2.8775ZM12.3808 4.05328C12.2449 3.98331 12.083 3.98313 11.9472 4.05328L10.4706 4.81695C10.1502 4.98246 9.80395 5.09498 9.44718 5.14898L7.8007 5.39703C7.6493 5.41993 7.51774 5.5144 7.44914 5.65093L6.70304 7.13531C6.5413 7.45719 6.32913 7.75154 6.07218 8.00445L4.88664 9.17046C4.77782 9.27755 4.72724 9.43017 4.75187 9.58062L5.02336 11.2193C5.08222 11.5746 5.08222 11.9382 5.02336 12.2935L4.75187 13.9302C4.72694 14.0809 4.77764 14.2351 4.88664 14.3423L6.07218 15.5084C6.32902 15.7612 6.54135 16.0557 6.70304 16.3775L7.44914 17.8619C7.51778 17.9982 7.64942 18.0929 7.8007 18.1158L9.44718 18.3638C9.80392 18.4178 10.1502 18.5304 10.4706 18.6959L11.9472 19.4595C12.0829 19.5296 12.245 19.5294 12.3808 19.4595L13.8593 18.6959C14.1798 18.5303 14.5259 18.4178 14.8827 18.3638L16.5292 18.1158C16.6805 18.0929 16.8121 17.9983 16.8808 17.8619L17.6269 16.3775C17.7886 16.0557 18.0008 15.7612 18.2577 15.5084L19.4433 14.3423C19.5523 14.2351 19.603 14.0809 19.578 13.9302L19.3066 12.2935C19.2477 11.9382 19.2477 11.5746 19.3066 11.2193L19.578 9.58062C19.6027 9.43022 19.552 9.27754 19.4433 9.17046L18.2577 8.00445C18.0008 7.75154 17.7886 7.4572 17.6269 7.13531L16.8808 5.65093C16.8122 5.5144 16.6806 5.41993 16.5292 5.39703L14.8827 5.14898C14.5259 5.09499 14.1798 4.98249 13.8593 4.81695L12.3808 4.05328Z" fill="currentColor"/>
<path d="M12.0005 16.6183C13.5627 16.6183 14.8292 15.53 14.8292 14.1874C14.8292 13.4976 14.2183 12.2669 13.5545 10.9296C12.9263 9.66406 12.2507 8.30299 12.0005 7.21436C11.7504 8.30312 11.0747 9.66442 10.4464 10.9301C9.78267 12.2672 9.17188 13.4977 9.17188 14.1874C9.17188 15.53 10.4383 16.6183 12.0005 16.6183Z" fill="currentColor"/>
</svg>
