<svg width="1em" height="1em" viewBox="0 0 24 24" fill="none" xmlns="http://www.w3.org/2000/svg">
<path fill-rule="evenodd" clip-rule="evenodd" d="M7.1375 10.0225C7.18728 10.0225 7.2286 10.0623 7.22873 10.1104V12.7256C7.22845 12.7734 7.18719 12.8115 7.1375 12.8115H0.0912326C0.0415383 12.8115 0.000278388 12.7734 0 12.7256V10.1104C0.000132149 10.0623 0.0414476 10.0225 0.0912326 10.0225H7.1375ZM0.949207 10.8955C0.924484 10.8958 0.904562 10.9146 0.904562 10.9385V11.8975C0.904948 11.921 0.924722 11.9402 0.949207 11.9404H6.27952C6.30418 11.9404 6.32572 11.9212 6.32611 11.8975V10.9385C6.32611 10.9144 6.30442 10.8955 6.27952 10.8955H0.949207Z" fill="currentColor"/>
<path d="M0.903502 13.9436C0.903502 13.8954 0.86305 13.8564 0.813153 13.8564H0.0903502C0.0404516 13.8564 0 13.8954 0 13.9436V14.6408C0 14.6889 0.0404516 14.7279 0.0903502 14.7279H0.813153C0.86305 14.7279 0.903502 14.6889 0.903502 14.6408V13.9436Z" fill="currentColor"/>
<path d="M17.675 13.9436C17.675 13.8954 17.6346 13.8564 17.5846 13.8564H16.8618C16.812 13.8564 16.7715 13.8954 16.7715 13.9436V14.6408C16.7715 14.6889 16.812 14.7279 16.8618 14.7279H17.5846C17.6346 14.7279 17.675 14.6889 17.675 14.6408V13.9436Z" fill="currentColor"/>
<path d="M8.45898 13.9436C8.45898 13.8954 8.49946 13.8564 8.54933 13.8564H15.5967C15.6466 13.8564 15.687 13.8954 15.687 13.9436V14.6408C15.687 14.6889 15.6466 14.7279 15.5967 14.7279H8.54933C8.49946 14.7279 8.45898 14.6889 8.45898 14.6408V13.9436Z" fill="currentColor"/>
<path fill-rule="evenodd" clip-rule="evenodd" d="M23.909 10.0215C23.9588 10.0215 24.0001 10.0613 24.0002 10.1094V12.7246C23.9999 12.7725 23.9587 12.8105 23.909 12.8105H16.8627C16.813 12.8105 16.7718 12.7725 16.7715 12.7246V10.1094C16.7716 10.0613 16.8129 10.0215 16.8627 10.0215H23.909ZM17.7207 10.8945C17.696 10.8948 17.676 10.9136 17.676 10.9375V11.8965C17.6764 11.9201 17.6962 11.9392 17.7207 11.9395H23.051C23.0757 11.9395 23.0972 11.9202 23.0976 11.8965V10.9375C23.0976 10.9134 23.0759 10.8945 23.051 10.8945H17.7207Z" fill="currentColor"/>
<path d="M8.54933 10.0225C8.49946 10.0225 8.45898 10.0615 8.45898 10.1096V10.8068C8.45898 10.855 8.49946 10.894 8.54933 10.894H14.7384C14.7633 10.894 14.7835 10.9135 14.7835 10.9375V11.8962C14.7835 11.9203 14.7633 11.9398 14.7384 11.9398H8.54933C8.49946 11.9398 8.45898 11.9788 8.45898 12.0269V12.7241C8.45898 12.7722 8.49946 12.8113 8.54933 12.8113H15.5967C15.6466 12.8113 15.687 12.7722 15.687 12.7241V10.1096C15.687 10.0615 15.6466 10.0225 15.5967 10.0225H8.54933Z" fill="currentColor"/>
</svg>
