<svg xmlns="http://www.w3.org/2000/svg" viewBox="0 0 153.07 153.07">
    <path fill="currentColor" d="M130.65,22.42a76.52,76.52,0,1,0,22.42,54.12A76.5,76.5,0,0,0,130.65,22.42Zm-5.56,102.67A68.67,68.67,0,1,1,145.2,76.54,68.65,68.65,0,0,1,125.09,125.09Z"/><path fill="currentColor" d="M18.14,35.4a10.4,10.4,0,0,1-.5,2.73c-.32,1.37-1.15,4.69-1.62,7.6a26.09,26.09,0,0,0-.09,9.33,14.81,14.81,0,0,0,1.49,4.1,15.22,15.22,0,0,0,2.9,3.69A21.8,21.8,0,0,0,25,66.11a38.38,38.38,0,0,0,6.76,2.76,80.43,80.43,0,0,0,9.05,2.19c3.51.68,7.1,1.23,10.89,1.74,8.1,1.09,15.93,1.85,24.84,2.75h.07c8.83.88,16.76,1.69,24.84,2.84,3.81.54,7.43,1.14,11,1.86a84.67,84.67,0,0,1,9.23,2.38,31.6,31.6,0,0,1,12,6.56,17.57,17.57,0,0,1,3.15,3.91,15.24,15.24,0,0,1,1.66,4.08,19.17,19.17,0,0,1,.15,7.81,41.12,41.12,0,0,1-1.73,6.27c-1,2.92-1.67,4.81-2.13,5.88a4.81,4.81,0,0,1-.33.68.32.32,0,0,0-.08.06h0s0,0,0,0h0s0,0,0-.09a5.74,5.74,0,0,1,.12-.74c.21-1,.78-3.21,1.56-6.06a45.84,45.84,0,0,0,1.37-6.18,18.34,18.34,0,0,0-.39-7.23A13.92,13.92,0,0,0,135.35,94a16.09,16.09,0,0,0-2.94-3.46c-3-2.69-6.86-4.49-11.4-5.92a82.64,82.64,0,0,0-9-2.2c-3.51-.67-7.1-1.23-10.88-1.74C93,79.55,85.23,78.8,76.35,77.9h-.07c-8.86-.89-16.82-1.7-24.92-2.85-3.81-.55-7.45-1.14-11-1.87a81.69,81.69,0,0,1-9.25-2.38,39.93,39.93,0,0,1-7-3,23.21,23.21,0,0,1-5-3.65A16.75,16.75,0,0,1,16,59.93a15.87,15.87,0,0,1-1.52-4.59,26.11,26.11,0,0,1,.46-9.82A64.9,64.9,0,0,1,17.08,38,9.44,9.44,0,0,1,18.14,35.4Z"/><path fill="currentColor" d="M35.77,17.91a10.73,10.73,0,0,1-1.4,2.4c-.78,1.18-2.69,4-4.13,6.58A26.08,26.08,0,0,0,27,35.63,14.88,14.88,0,0,0,27,40a15,15,0,0,0,1.46,4.46,22,22,0,0,0,3.25,4.65A38.93,38.93,0,0,0,37.09,54a81.46,81.46,0,0,0,7.75,5.16c3.07,1.84,6.26,3.58,9.64,5.36,7.24,3.8,14.34,7.19,22.41,11.08l.06,0c8,3.85,15.18,7.32,22.37,11.16,3.39,1.82,6.6,3.61,9.69,5.52a80.25,80.25,0,0,1,7.85,5.39,31.58,31.58,0,0,1,9,10.25,17.22,17.22,0,0,1,1.63,4.76,15.53,15.53,0,0,1,.16,4.39,19.26,19.26,0,0,1-2.53,7.4,43.18,43.18,0,0,1-3.76,5.3c-1.94,2.4-3.23,3.94-4,4.79a4.77,4.77,0,0,1-.54.53.17.17,0,0,0-.1,0h0a0,0,0,0,1,0,0,0,0,0,0,0,0,0h0s0,0,0-.09a6.35,6.35,0,0,1,.37-.66c.54-.86,1.84-2.75,3.54-5.15a47.16,47.16,0,0,0,3.4-5.34,18.34,18.34,0,0,0,2.11-6.94,14,14,0,0,0-.26-3.94,15.93,15.93,0,0,0-1.58-4.25c-1.89-3.56-4.91-6.57-8.68-9.47a83,83,0,0,0-7.73-5.15c-3.07-1.84-6.25-3.58-9.63-5.35C91,85,84,81.64,75.93,77.76l-.07,0c-8-3.86-15.22-7.34-22.44-11.2-3.39-1.81-6.6-3.61-9.7-5.51a83,83,0,0,1-7.87-5.4,40.12,40.12,0,0,1-5.59-5.26,22.78,22.78,0,0,1-3.41-5.13,16.39,16.39,0,0,1-1.5-5,16.19,16.19,0,0,1,.14-4.84,26.31,26.31,0,0,1,3.79-9.07A66.14,66.14,0,0,1,33.89,20C35,18.56,35.69,17.85,35.77,17.91Z"/>
</svg>