<svg width="1em" height="1em" viewBox="0 0 24 24" fill="none" xmlns="http://www.w3.org/2000/svg">
<path fill-rule="evenodd" clip-rule="evenodd" d="M12.672 2.77199C15.0346 0.409366 18.8643 0.40931 21.2268 2.77199C22.4088 3.95417 22.999 5.50366 22.9981 7.0528L22.9992 16.9529C23.0244 18.5083 22.4434 20.0719 21.2569 21.2585L21.0345 21.469C20.8849 21.6042 20.7288 21.7288 20.5694 21.8461C20.562 21.8515 20.5543 21.8567 20.5469 21.8622C20.4767 21.9133 20.406 21.9628 20.3342 22.0104C20.3206 22.0194 20.307 22.0284 20.2934 22.0373C20.0576 22.191 19.8137 22.3265 19.5629 22.4433C19.5549 22.4471 19.5473 22.4515 19.5393 22.4552C19.4661 22.4888 19.3922 22.5202 19.318 22.5508C19.2923 22.5614 19.2665 22.5717 19.2407 22.5819C19.1837 22.6045 19.1263 22.6257 19.0688 22.6464C19.038 22.6575 19.0074 22.6691 18.9764 22.6797C18.9122 22.7016 18.8478 22.7223 18.7831 22.742C18.7602 22.7489 18.7373 22.7557 18.7143 22.7624C18.6412 22.7836 18.5678 22.8031 18.4941 22.8215C18.4801 22.825 18.4662 22.8288 18.4522 22.8322C17.8992 22.9658 17.3311 23.0202 16.7657 22.9933C16.7604 22.9931 16.755 22.9925 16.7496 22.9923C16.4731 22.9784 16.1974 22.9457 15.9247 22.8934C15.9092 22.8905 15.8939 22.8869 15.8785 22.8838C15.8027 22.8686 15.7271 22.8525 15.6518 22.8344C15.6292 22.8289 15.6067 22.8229 15.5841 22.8172C15.5205 22.8011 15.4572 22.7838 15.394 22.7656C15.3624 22.7565 15.331 22.7463 15.2995 22.7366C15.2434 22.7194 15.1875 22.7018 15.1319 22.6829C15.0917 22.6693 15.0516 22.6555 15.0116 22.641C14.9655 22.6242 14.9199 22.6063 14.8741 22.5884C14.8382 22.5743 14.8024 22.5602 14.7667 22.5454C14.7037 22.5192 14.641 22.4922 14.5787 22.4637C14.559 22.4548 14.5392 22.4461 14.5196 22.4369C14.4506 22.4045 14.3825 22.37 14.3145 22.3348C14.2973 22.3259 14.28 22.3171 14.2629 22.308C14.124 22.2343 13.9875 22.1549 13.8536 22.0695C13.8144 22.0445 13.7753 22.0193 13.7366 21.9932C13.6801 21.9553 13.6244 21.9162 13.569 21.8761C13.5544 21.8656 13.5394 21.8557 13.5249 21.845C13.4686 21.8035 13.4136 21.7598 13.3584 21.7161C13.2585 21.6368 13.1589 21.5556 13.063 21.469L12.8407 21.2585L12.0018 20.4195C11.803 20.7025 11.5801 20.9744 11.3272 21.2273C9.03854 23.5161 5.37284 23.5876 2.99798 21.4422L2.7724 21.2273C1.592 20.0468 1.00201 18.4999 1.00107 16.9529L1 7.0528H1.00215C0.975684 5.49605 1.5548 3.93078 2.74232 2.74298C3.83154 1.65371 5.23873 1.07516 6.66523 1.00702C6.85561 0.997928 7.04631 0.997925 7.23669 1.00702C8.66313 1.07516 10.0693 1.6538 11.1585 2.74298L11.9932 3.57766C12.134 3.37709 12.2892 3.18359 12.4572 2.99757L12.672 2.77199ZM4.3697 12.7871C4.0793 12.9745 3.80443 13.1955 3.5501 13.4499C1.61708 15.383 1.61708 18.5164 3.5501 20.4496C5.48315 22.3824 8.61653 22.3826 10.5495 20.4496C10.8039 20.1951 11.0226 19.9183 11.2101 19.6278L4.3697 12.7871ZM10.5495 13.4499C9.16088 12.0612 7.15236 11.6693 5.41488 12.2757L11.7214 18.5825C12.3273 16.8453 11.9376 14.8383 10.5495 13.4499ZM21.8993 10.5237C21.7012 10.8052 21.4786 11.0754 21.2268 11.3272C20.9736 11.5805 20.7013 11.8039 20.418 12.0029L21.2569 12.8418C21.4959 13.0809 21.7094 13.3359 21.8993 13.6024V10.5237ZM2.09996 13.4713C2.23942 13.2734 2.39156 13.0814 2.55756 12.8977L2.7724 12.6721C3.02523 12.4193 3.29519 12.1941 3.57803 11.9953L2.74232 11.1596C2.66973 11.087 2.59984 11.0126 2.53178 10.9372C2.39561 10.7865 2.26846 10.6305 2.15045 10.4699C2.1329 10.4461 2.11711 10.421 2.09996 10.3969V13.4713ZM12.2746 5.41567C11.6688 7.15299 12.0615 9.16107 13.4498 10.5494C14.8378 11.9373 16.8442 12.3279 18.5811 11.7225L12.2746 5.41567ZM20.4491 3.54973C18.5161 1.61664 15.3828 1.61669 13.4498 3.54973C13.1951 3.8044 12.9735 4.0796 12.7859 4.37044L19.6263 11.2112C19.9173 11.0235 20.1943 10.8042 20.4491 10.5494C22.382 8.6164 22.3818 5.48285 20.4491 3.54973Z" fill="currentColor"/>
</svg>
