<svg width="1em" height="1em" viewBox="0 0 20 15" fill="none" xmlns="http://www.w3.org/2000/svg">
<path d="M12.0043 1.02773C12.5413 0.490757 13.4119 0.490757 13.9488 1.02773L19.4488 6.52773C19.9858 7.0647 19.9858 7.9353 19.4488 8.47227L13.9488 13.9723C13.4119 14.5092 12.5413 14.5092 12.0043 13.9723C11.4673 13.4353 11.4673 12.5647 12.0043 12.0277L16.532 7.5L12.0043 2.97227C11.4673 2.4353 11.4673 1.5647 12.0043 1.02773Z" fill="currentcolor"/>
<path d="M8.44883 1.02773C7.91186 0.490757 7.04126 0.490757 6.50429 1.02773L1.00429 6.52773C0.46732 7.0647 0.46732 7.9353 1.00429 8.47227L6.50429 13.9723C7.04126 14.5092 7.91186 14.5092 8.44883 13.9723C8.9858 13.4353 8.9858 12.5647 8.44883 12.0277L3.92111 7.5L8.44883 2.97227C8.9858 2.4353 8.9858 1.5647 8.44883 1.02773Z" fill="currentcolor"/>
</svg>
