<svg xmlns="http://www.w3.org/2000/svg" width="1em" height="1em" fill="none" viewBox="0 0 30 30"><path fill="currentColor" fill-rule="evenodd" d="M7.178 22.822a.938.938 0 0 0-1.326 0l-3.93 3.93v-5.19a.937.937 0 1 0-1.875 0v7.453c0 .518.42.938.937.938h7.453a.937.937 0 1 0 0-1.875h-5.19l3.931-3.93a.937.937 0 0 0 0-1.326ZM22.822 22.822a.938.938 0 0 1 1.326 0l3.93 3.93v-5.19a.938.938 0 0 1 1.875 0v7.453c0 .518-.42.938-.937.938h-7.453a.937.937 0 1 1 0-1.875h5.19l-3.931-3.93a.937.937 0 0 1 0-1.326ZM22.822 7.179a.938.938 0 0 0 1.326 0l3.93-3.93v5.189a.938.938 0 0 0 1.875 0V.985a.937.937 0 0 0-.937-.937h-7.453a.937.937 0 1 0 0 1.875h5.19l-3.931 3.93a.938.938 0 0 0 0 1.326ZM7.131 7.131a.937.937 0 0 1-1.326 0l-3.93-3.93v5.19A.937.937 0 1 1 0 8.39V.938C0 .42.42 0 .938 0H8.39a.938.938 0 0 1 0 1.875H3.2l3.931 3.93a.937.937 0 0 1 0 1.326Z" clip-rule="evenodd"/><mask id="a" width="9" height="11" x="14.052" y="15.34" fill="currentColor" maskUnits="userSpaceOnUse"><path fill="#fff" d="M14.052 15.34h9v11h-9z"/><path fill-rule="evenodd" d="m15.053 20.264 6.84-3.924-6.841 8.95v-5.025Zm5.51-2.76-5.334 3.06v3.918l5.333-6.977Z" clip-rule="evenodd"/></mask><path fill="currentColor" fill-rule="evenodd" d="m15.053 20.264 6.84-3.924-6.841 8.95v-5.025Zm5.51-2.76-5.334 3.06v3.918l5.333-6.977Z" clip-rule="evenodd"/><path fill="currentColor" d="m15.053 20.265-.109.189c.068.038.15.038.217 0l-.108-.19Zm0 0 .108-.19a.218.218 0 0 0-.217 0l.109.19Zm6.84-3.925.172.133a.218.218 0 0 0-.28-.322l.107.19Zm-6.841 8.95h-.218a.218.218 0 0 0 .39.132l-.172-.132Zm0-5.025-.109-.189a.218.218 0 0 0-.11.189h.219Zm.177.3-.108-.189a.218.218 0 0 0-.11.189h.218Zm5.333-3.06.173.132a.218.218 0 0 0-.281-.321l.108.189Zm-5.333 6.977h-.218a.218.218 0 0 0 .391.133l-.173-.133Zm-.068-4.406-.217.377.217-.377Zm6.623-3.925-6.84 3.925.217.378 6.84-3.925-.217-.378Zm-.065.057-6.84 8.95.346.264 6.84-8.95-.346-.264Zm-6.45 9.082v-5.025h-.435v5.025h.436Zm-.109-4.836h.001l-.217-.378.216.378Zm.178.3 5.333-3.06-.217-.378-5.333 3.06.216.378Zm.109 3.728v-3.917h-.436v3.917h.436Zm4.942-7.11-5.333 6.978.346.265 5.333-6.978-.346-.265Z" mask="url(#a)"/><mask id="b" width="9" height="11" x="7.215" y="15.346" fill="currentColor" maskUnits="userSpaceOnUse"><path fill="#fff" d="M7.215 15.346h9v11h-9z"/><path fill-rule="evenodd" d="m8.215 16.346 6.831 8.937v-5.018l-6.831-3.92Zm1.327 1.16 5.335 6.98v-3.92h-.002l-5.333-3.06Z" clip-rule="evenodd"/></mask><path fill="currentColor" fill-rule="evenodd" d="m8.215 16.346 6.831 8.937v-5.018l-6.831-3.92Zm1.327 1.16 5.335 6.98v-3.92h-.002l-5.333-3.06Z" clip-rule="evenodd"/><path fill="currentColor" d="m8.215 16.346.108-.19a.218.218 0 0 0-.281.322l.173-.132Zm6.831 8.937-.173.132a.218.218 0 0 0 .391-.132h-.218Zm0-5.018h.218a.218.218 0 0 0-.11-.189l-.108.19Zm-.168 4.221-.174.133a.218.218 0 0 0 .391-.133h-.218Zm-5.336-6.98.108-.19a.218.218 0 0 0-.281.322l.173-.133Zm5.335 3.06h.218a.218.218 0 0 0-.11-.188l-.107.189Zm-.002 0-.108.189.108-.19Zm-6.833-4.088 6.831 8.937.346-.264-6.831-8.938-.346.265Zm7.222 8.805v-5.018h-.436v5.018h.436Zm-.11-5.207-6.83-3.92-.218.379 6.832 3.92.217-.379Zm-.103 4.278-5.336-6.98-.346.264 5.335 6.98.347-.264Zm-.391-3.787v3.92h.435v-3.92h-.435Zm.107.188.003.001.215-.378-.002-.002-.216.379Zm-5.334-3.06 5.334 3.06.217-.378-5.334-3.06-.217.377Z" mask="url(#b)"/><mask id="c" width="9" height="12" x="7.215" y="3.713" fill="currentColor" maskUnits="userSpaceOnUse"><path fill="#fff" d="M7.215 3.713h9v12h-9z"/><path fill-rule="evenodd" d="M15.054 4.713v7.588l-6.84 3 6.84-10.588Zm-.174 7.475V5.636l-5.907 9.143 5.907-2.591Z" clip-rule="evenodd"/></mask><path fill="currentColor" fill-rule="evenodd" d="M15.054 4.713v7.588l-6.84 3 6.84-10.588Zm-.174 7.475V5.636l-5.907 9.143 5.907-2.591Z" clip-rule="evenodd"/><path fill="currentColor" d="M15.054 4.713h.218a.218.218 0 0 0-.4-.118l.182.118Zm0 7.588.088.2a.218.218 0 0 0 .13-.2h-.218Zm-6.84 3-.182-.118a.218.218 0 0 0 .27.317l-.087-.2Zm6.666-9.665h.218a.218.218 0 0 0-.401-.119l.183.119Zm0 6.552.087.2a.218.218 0 0 0 .13-.2h-.217Zm-5.907 2.59-.182-.117a.218.218 0 0 0 .27.317l-.088-.2Zm5.863-10.065v7.588h.436V4.713h-.436Zm.13 7.388-6.839 3 .175.4 6.84-3-.175-.4Zm-.095-7.506-6.84 10.588.367.236 6.839-10.587-.366-.237Zm-.21 1.04v6.553h.437V5.636h-.436Zm-5.505 9.262 5.907-9.143-.366-.237-5.906 9.144.365.236Zm5.636-2.909L8.886 14.58l.175.4 5.906-2.592-.175-.399Z" mask="url(#c)"/><mask id="d" width="9" height="9" x="7.213" y="11.301" fill="currentColor" maskUnits="userSpaceOnUse"><path fill="#fff" d="M7.213 11.301h9v9h-9z"/><path fill-rule="evenodd" d="m8.217 15.305 6.837 3.837v-6.841l-6.839 3-.002.001.004.002v.001Zm.578-.068 6.085 3.415v-6.084l-6.085 2.669Z" clip-rule="evenodd"/></mask><path fill="currentColor" fill-rule="evenodd" d="m8.217 15.305 6.837 3.837v-6.841l-6.839 3-.002.001.004.002v.001Zm.578-.068 6.085 3.415v-6.084l-6.085 2.669Z" clip-rule="evenodd"/><path fill="currentColor" d="m15.054 19.142-.107.19a.218.218 0 0 0 .325-.19h-.218Zm-6.837-3.837-.183-.118a.218.218 0 0 0 .076.308l.107-.19Zm6.837-3.004h.218a.218.218 0 0 0-.306-.2l.088.2Zm-6.839 3-.087-.2a.218.218 0 0 0-.096.081l.183.118Zm0 0 .087.2a.218.218 0 0 0 .095-.081l-.182-.119Zm-.002.001-.088-.2a.218.218 0 0 0-.019.39l.107-.19Zm.004.002.183.119a.218.218 0 0 0-.076-.309l-.107.19Zm6.663 3.348-.107.19a.218.218 0 0 0 .325-.19h-.218Zm-6.085-3.415-.087-.2a.218.218 0 0 0-.02.39l.107-.19Zm6.085-2.67h.217a.218.218 0 0 0-.305-.199l.088.2Zm.28 6.386-6.837-3.838-.213.38 6.837 3.838.214-.38Zm-.324-6.652v6.841h.436v-6.841h-.436ZM8.303 15.5l6.838-3-.175-.399-6.838 3 .175.399Zm-.27-.318-.001.001.365.237.001-.002-.366-.236Zm.094-.08h-.002l.175.4.002-.001-.175-.4Zm-.02.39.003.002.214-.38-.005-.002-.213.38Zm-.073-.306.366.237-.366-.237Zm6.952 3.276-6.084-3.415-.214.38 6.085 3.415.213-.38Zm-.324-5.894v6.084h.435v-6.084h-.435Zm-5.78 2.868 6.085-2.669-.175-.399-6.084 2.67.175.398Z" mask="url(#d)"/><mask id="e" width="9" height="9" x="14.052" y="11.301" fill="currentColor" maskUnits="userSpaceOnUse"><path fill="#fff" d="M14.052 11.301h9v9h-9z"/><path fill-rule="evenodd" d="m15.23 18.652 6.084-3.415-6.085-2.669v6.084Zm-.178-6.35 6.842 3-6.842 3.841v-6.842Z" clip-rule="evenodd"/></mask><path fill="currentColor" fill-rule="evenodd" d="m15.23 18.652 6.084-3.415-6.085-2.669v6.084Zm-.178-6.35 6.842 3-6.842 3.841v-6.842Z" clip-rule="evenodd"/><path fill="currentColor" d="m21.314 15.237.106.19a.218.218 0 0 0-.019-.39l-.087.2Zm-6.085 3.415h-.218a.218.218 0 0 0 .325.19l-.107-.19Zm0-6.084.088-.2a.218.218 0 0 0-.306.2h.218Zm6.665 2.735.107.19a.218.218 0 0 0-.02-.39l-.087.2ZM15.052 12.3l.087-.2a.218.218 0 0 0-.305.2h.218Zm0 6.842h-.218a.218.218 0 0 0 .324.19l-.106-.19Zm6.155-4.096-6.085 3.415.214.38 6.084-3.415-.213-.38Zm-6.065-2.28 6.084 2.67.175-.4-6.084-2.668-.175.399Zm.305 5.885v-6.084h-.436v6.084h.436Zm6.535-3.549-6.843-3.001-.175.399 6.843 3.001.175-.399Zm-6.824 4.23 6.843-3.84-.213-.38-6.843 3.84.213.38Zm-.324-7.032v6.842h.436v-6.842h-.436Z" mask="url(#e)"/><mask id="f" width="9" height="12" x="14.052" y="3.712" fill="currentColor" maskUnits="userSpaceOnUse"><path fill="#fff" d="M14.052 3.712h9v12h-9z"/><path fill-rule="evenodd" d="m15.053 4.712-.001.001V12.3l6.841 3.002-6.84-10.59Zm.176 7.476 5.906 2.59-5.906-9.143v6.553Z" clip-rule="evenodd"/></mask><path fill="currentColor" fill-rule="evenodd" d="m15.053 4.712-.001.001V12.3l6.841 3.002-6.84-10.59Zm.176 7.476 5.906 2.59-5.906-9.143v6.553Z" clip-rule="evenodd"/><path fill="currentColor" d="m15.053 4.712.182-.118a.218.218 0 0 0-.365 0l.183.118Zm-.001.001-.183-.118a.217.217 0 0 0-.035.118h.218Zm0 7.587h-.218c0 .087.051.165.13.2l.088-.2Zm6.841 3.002-.087.199a.218.218 0 0 0 .27-.318l-.183.119Zm-.758-.523-.087.2a.218.218 0 0 0 .27-.318l-.183.118Zm-5.906-2.591h-.218c0 .086.051.164.13.2l.088-.2Zm0-6.553.183-.118a.218.218 0 0 0-.4.118h.217Zm-.36-1.041.366.237-.365-.237Zm-.035.12V12.3h.436V4.713h-.436Zm.13 7.786 6.842 3.001.175-.399-6.842-3.001-.175.399Zm7.112 2.683-6.84-10.59-.366.237 6.84 10.59.366-.237Zm-.853-.604-5.906-2.59-.175.398 5.906 2.591.175-.399Zm-6.177-8.825 5.906 9.143.366-.236-5.906-9.144-.366.237Zm.401 6.434V5.635h-.436v6.553h.436Z" mask="url(#f)"/></svg>