<svg width="1em" height="1em" viewBox="0 0 24 24" fill="none" xmlns="http://www.w3.org/2000/svg">
<path d="M10.876 13.6875C11.907 13.6876 12.9002 13.8756 13.8565 14.2129C14.1562 14.3257 14.2881 14.6441 14.1944 14.9443C14.1006 15.1691 13.8753 15.3191 13.6504 15.3193C13.5944 15.3193 13.5191 15.2998 13.4629 15.2812C12.6382 14.9814 11.775 14.8125 10.8751 14.8125C8.21279 14.8128 5.73822 16.2566 4.40728 18.5811C4.31356 18.7499 4.12595 18.8622 3.91998 18.8623C3.82635 18.8623 3.73236 18.8441 3.63873 18.7881C3.37607 18.6382 3.28188 18.2998 3.4317 18.0186C4.95045 15.357 7.79955 13.6881 10.8741 13.6875H10.876Z" fill="currentColor"/>
<path d="M10.875 12.1875C8.49365 12.1875 6.5625 10.2563 6.5625 7.875C6.5625 5.49365 8.49365 3.5625 10.875 3.5625C13.2563 3.5625 15.1875 5.49365 15.1875 7.875C15.1875 10.2563 13.2563 12.1875 10.875 12.1875ZM10.875 4.6875C9.1123 4.6875 7.6875 6.1123 7.6875 7.875C7.6875 9.6377 9.1123 11.0625 10.875 11.0625C12.6377 11.0625 14.0625 9.6377 14.0625 7.875C14.0625 6.1123 12.6377 4.6875 10.875 4.6875Z" fill="currentColor"/>
<path d="M17.8125 14.625C18.7872 14.625 19.6866 14.9999 20.3428 15.6182L17.8311 18.4307L16.9316 17.2686C16.7441 17.0249 16.3877 16.9873 16.1436 17.1748C15.9004 17.3624 15.8626 17.7184 16.0498 17.9619L17.3623 19.6494C17.456 19.7807 17.6251 19.8564 17.7939 19.875H17.8125C17.9813 19.875 18.1318 19.7997 18.2256 19.6875L21.0449 16.5127C21.3593 17.0541 21.5439 17.7054 21.5439 18.375C21.5439 20.4375 19.8564 22.125 17.7939 22.125C15.7314 22.125 14.0625 20.4375 14.0625 18.375C14.0625 16.3125 15.75 14.625 17.8125 14.625Z" fill="currentColor"/>
</svg>
