<svg width="1em" height="1em" viewBox="0 0 31 30" fill="none" xmlns="http://www.w3.org/2000/svg">
<path d="M15.0153 0.372493C15.3011 0.209169 15.652 0.209169 15.9378 0.372493L22.9105 4.35687C23.2001 4.52239 23.3789 4.83044 23.3789 5.16406V12.5933L29.8831 16.31C30.1728 16.4755 30.3516 16.7836 30.3516 17.1172V25.0859C30.3516 25.4196 30.1728 25.7276 29.8831 25.8931L22.9105 29.8775C22.6247 30.0408 22.2738 30.0408 21.988 29.8775L15.4766 26.1567L8.96516 29.8775C8.67935 30.0408 8.32847 30.0408 8.04265 29.8775L1.07 25.8931C0.780328 25.7276 0.601562 25.4196 0.601562 25.0859V17.1172C0.601562 16.7836 0.780328 16.4755 1.07 16.31L7.57422 12.5933V5.16406C7.57422 4.83044 7.75298 4.52239 8.04265 4.35687L15.0153 0.372493ZM8.50391 14.2036L3.40509 17.1172L8.50391 20.0308L13.6027 17.1172L8.50391 14.2036ZM14.5469 18.7192L9.43359 21.6411V27.4683L14.5469 24.5464V18.7192ZM16.4062 24.5464L21.5195 27.4683V21.6411L16.4062 18.7192V24.5464ZM17.3504 17.1172L22.4492 20.0308L27.548 17.1172L22.4492 14.2036L17.3504 17.1172ZM21.5195 12.5933V6.76608L16.4062 9.68796V15.5152L21.5195 12.5933ZM14.5469 15.5152V9.68796L9.43359 6.76608V12.5933L14.5469 15.5152ZM10.3778 5.16406L15.4766 8.07767L20.5754 5.16406L15.4766 2.25046L10.3778 5.16406ZM28.4922 18.7192L23.3789 21.6411V27.4683L28.4922 24.5464V18.7192ZM7.57422 27.4683V21.6411L2.46094 18.7192V24.5464L7.57422 27.4683Z" fill="currentcolor"/>
</svg>
