<svg xmlns="http://www.w3.org/2000/svg" width="39" height="40" viewBox="0 0 39 40" fill="none">
  <path d="M23.918 15.6381C25.3625 17.0847 28.0947 16.6938 30.0206 14.765C31.9465 12.8361 32.3368 10.0998 30.8924 8.65316C29.4479 7.20653 26.7157 7.59744 24.7898 9.52627C22.8639 11.4551 22.4736 14.1915 23.918 15.6381Z" fill="currentColor"/>
  <path d="M38.5443 8.68307C37.6687 12.3863 35.3229 17.4367 29.7554 23.6934L29.1781 29.5072C29.0235 30.9005 28.4 32.1997 27.4102 33.191L21.6591 38.9508C21.2839 39.3266 20.7106 39.4198 20.236 39.1821C19.7613 38.9444 19.4918 38.4292 19.5668 37.9031L20.2208 33.3186C20.3173 32.6418 20.1875 31.8866 19.902 31.0103C19.7188 30.448 19.5161 29.9512 19.3014 29.4247C19.2365 29.2655 19.1704 29.1036 19.1035 28.9364C17.1355 28.4605 15.2943 27.3376 13.813 25.8541C12.3314 24.3702 11.2101 22.5258 10.735 20.5543C10.5671 20.487 10.4047 20.4206 10.2449 20.3553C9.72047 20.141 9.22552 19.9388 8.66459 19.7556C7.78954 19.4698 7.03545 19.3399 6.35978 19.4366L1.78228 20.0915C1.25694 20.1667 0.742527 19.8967 0.505201 19.4213C0.267874 18.9459 0.360883 18.3718 0.736129 17.996L6.48723 12.2362C7.47702 11.2449 8.77421 10.6205 10.1654 10.4656L10.1801 10.4641L15.9742 9.88942C22.113 4.43166 27.1396 2.09278 30.8485 1.18925C32.9983 0.665526 34.6874 0.628818 35.8693 0.736422C36.4591 0.790123 36.9195 0.879488 37.2451 0.960471C37.4078 1.00095 37.5366 1.03929 37.6308 1.06996C38.0766 1.21501 38.3041 1.38487 38.4788 1.78021L38.48 1.78289C38.5049 1.83979 38.5273 1.89797 38.5485 1.95632C38.5825 2.04991 38.625 2.17736 38.6702 2.33821C38.7607 2.66006 38.8619 3.11483 38.928 3.69844C39.0606 4.86827 39.0507 6.54133 38.5443 8.68307ZM26.8899 26.7272L26.9858 26.631L26.7266 29.2411C26.6326 30.0746 26.259 30.8515 25.6666 31.4447L22.5309 34.5852L22.6618 33.6679C22.8361 32.4454 22.5797 31.2679 22.2462 30.2442C22.1317 29.8929 21.9933 29.5215 21.8501 29.155C23.6314 28.9989 25.3806 28.2388 26.8899 26.7272ZM12.9412 12.7573C11.432 14.2688 10.6731 16.0204 10.5172 17.8042C10.1509 17.6608 9.77968 17.5222 9.42902 17.4077C8.40702 17.0739 7.23145 16.8172 6.01107 16.9918L5.09508 17.1229L8.23081 13.9824C8.82309 13.3892 9.59881 13.015 10.431 12.9208L13.0361 12.6625L12.9412 12.7573ZM35.646 3.19583C34.7301 3.11244 33.3135 3.1303 31.4313 3.58883C27.6698 4.50517 21.9767 7.20056 14.6848 14.5035C13.1891 16.0015 12.7568 17.7398 13.0281 19.4546C13.2861 21.0854 14.194 22.7432 15.5566 24.1078C16.9188 25.4721 18.5735 26.3813 20.2014 26.6399C21.9141 26.9121 23.6502 26.4793 25.1463 24.981C32.5785 17.5375 35.2644 11.8378 36.1448 8.11402C36.5852 6.2517 36.5786 4.86544 36.478 3.97696C36.447 3.70397 36.407 3.47655 36.3678 3.29541C36.1769 3.25887 35.9359 3.22222 35.646 3.19583Z" fill="currentColor"/>
  <path d="M17.2949 29.9912C15.7342 29.1653 14.2481 28.0361 12.9412 26.7272C11.5543 25.3382 10.3694 23.747 9.53403 22.0789C6.87395 24.4733 4.79015 34.2799 5.0951 34.5853C5.39728 34.8879 14.5951 32.4215 17.2949 29.9912Z" fill="currentColor"/>
</svg> 