<svg width="1em" height="1em" viewBox="0 0 16 15" fill="currentcolor" fill-opacity="0.9" xmlns="http://www.w3.org/2000/svg">
<path d="M3.4125 0C3.68174 0 3.9 0.20462 3.9 0.457031V0.914062H11.7V0.457031C11.7 0.20462 11.9183 0 12.1875 0C12.4567 0 12.675 0.20462 12.675 0.457031V0.914062H13.65C14.727 0.914062 15.6 1.73254 15.6 2.74219V12.7969C15.6 13.8065 14.727 14.625 13.65 14.625H1.95C0.873045 14.625 0 13.8065 0 12.7969V2.74219C0 1.73254 0.873045 0.914062 1.95 0.914062H2.925V0.457031C2.925 0.20462 3.14326 0 3.4125 0ZM0.975 3.65625V12.7969C0.975 13.3017 1.41152 13.7109 1.95 13.7109H13.65C14.1885 13.7109 14.625 13.3017 14.625 12.7969V3.65625H0.975Z" />
<rect x="7.5" y="5.3125" width="1" height="6" />
<rect x="11" y="7.8125" width="1" height="6" transform="rotate(90 11 7.8125)" />
</svg>
