<svg width="1em" height="1em" viewBox="0 0 16 15" fill="none" xmlns="http://www.w3.org/2000/svg">
<path d="M3.58828 0.1875C3.85752 0.1875 4.07578 0.39212 4.07578 0.644531V1.10156H11.8758V0.644531C11.8758 0.39212 12.094 0.1875 12.3633 0.1875C12.6325 0.1875 12.8508 0.39212 12.8508 0.644531V1.10156H13.8258C14.9027 1.10156 15.7758 1.92004 15.7758 2.92969V12.9844C15.7758 13.994 14.9027 14.8125 13.8258 14.8125H2.12578C1.04883 14.8125 0.175781 13.994 0.175781 12.9844V2.92969C0.175781 1.92004 1.04883 1.10156 2.12578 1.10156H3.10078V0.644531C3.10078 0.39212 3.31904 0.1875 3.58828 0.1875ZM1.15078 3.84375V12.9844C1.15078 13.4892 1.5873 13.8984 2.12578 13.8984H13.8258C14.3643 13.8984 14.8008 13.4892 14.8008 12.9844V3.84375H1.15078Z" fill="currentcolor" fill-opacity="0.9"/>
</svg>
