<svg width="1em" height="1em" viewBox="0 0 24 24" fill="none" xmlns="http://www.w3.org/2000/svg">
<path d="M18.1885 19.4064C18.1133 19.4064 18.0571 19.3878 18.001 19.3688L6.33838 15.0563C6.26367 15.0187 6.18848 14.9815 6.13232 14.9249L2.77588 11.569C2.66357 11.4562 2.60742 11.3253 2.60742 11.1749V8.5128C2.60742 8.3253 2.70117 8.1378 2.86963 8.04405L7.85742 4.7628C8.00732 4.66905 8.19482 4.65 8.36328 4.70616L21.582 9.48741C21.7134 9.54405 21.8447 9.6378 21.9009 9.76866C21.957 9.90001 21.9761 10.0499 21.9199 10.2003L18.7324 19.0128C18.6758 19.1627 18.582 19.275 18.4321 19.3312C18.3574 19.3878 18.2637 19.4064 18.1885 19.4064ZM6.84473 14.044L17.8511 18.1124L20.6636 10.3502L8.23242 5.8502L3.73242 8.8126V10.9313L6.84473 14.044Z" fill="currentColor"/>
<path d="M6.52368 5.15613L3.16772 8.51257C2.43628 9.24353 2.43628 10.4247 3.16772 11.1561L6.52368 14.5126H20.5862V5.13757L6.52368 5.15613ZM7.08618 10.7811C6.56128 10.7811 6.14868 10.3685 6.14868 9.84363C6.14868 9.31873 6.56128 8.90613 7.08618 8.90613C7.61108 8.90613 8.02368 9.31873 8.02368 9.84363C8.02368 10.3685 7.61108 10.7811 7.08618 10.7811Z" fill="currentColor"/>
<path d="M20.5874 15.0938H6.5249C6.375 15.0938 6.2251 15.0376 6.13135 14.9248L2.7749 11.5688C2.30615 11.1001 2.0625 10.5 2.0625 9.84375C2.0625 9.1875 2.3252 8.5874 2.7749 8.11865L6.13135 4.7627C6.24365 4.6499 6.375 4.59375 6.5249 4.59375H20.5874C20.9062 4.59375 21.1499 4.8374 21.1499 5.15625V14.5312C21.1499 14.8501 20.9062 15.0938 20.5874 15.0938ZM6.76855 13.9688H20.0439V5.71875H6.76855L3.5625 8.90625C3.31885 9.1499 3.1875 9.4873 3.1875 9.84375C3.1875 10.2002 3.31885 10.5186 3.5625 10.7627L6.76855 13.9688Z" fill="currentColor"/>
</svg>