<svg width="1em" height="1em" viewBox="0 0 24 24" fill="none" xmlns="http://www.w3.org/2000/svg">
<path d="M20.3496 4.40354C20.343 4.39061 20.3319 4.38049 20.3185 4.37497C18.7626 3.66112 17.1207 3.1521 15.4339 2.86062C15.4185 2.85778 15.4028 2.85983 15.3887 2.86649C15.3746 2.87317 15.3629 2.8841 15.3554 2.89776C15.1319 3.30355 14.9289 3.72036 14.7474 4.14659C12.929 3.87057 11.0795 3.87057 9.26123 4.14659C9.07847 3.71927 8.87225 3.30236 8.64355 2.89776C8.6357 2.8844 8.62401 2.87371 8.61002 2.86709C8.59601 2.86047 8.58033 2.85821 8.56503 2.86062C6.87804 3.15148 5.23605 3.66055 3.68039 4.37501C3.66707 4.38066 3.65584 4.39029 3.64823 4.4026C0.53722 9.04848 -0.315001 13.5801 0.103074 18.0557C0.104249 18.0667 0.107612 18.0772 0.112977 18.0869C0.118343 18.0965 0.125591 18.105 0.134286 18.1118C1.9458 19.4531 3.972 20.4769 6.12642 21.1395C6.14159 21.1441 6.1578 21.1439 6.17285 21.139C6.1879 21.1341 6.20108 21.1246 6.21061 21.112C6.67334 20.4824 7.08334 19.8157 7.43647 19.1186C7.44132 19.1091 7.4441 19.0986 7.4446 19.0879C7.44511 19.0772 7.44333 19.0665 7.4394 19.0565C7.43548 19.0465 7.42948 19.0374 7.42181 19.03C7.41412 19.0225 7.40495 19.0168 7.39488 19.0131C6.74833 18.7657 6.12239 18.4674 5.52295 18.1212C5.51205 18.1148 5.50291 18.1058 5.49631 18.095C5.48972 18.0842 5.48589 18.072 5.48514 18.0594C5.48439 18.0468 5.48676 18.0342 5.49204 18.0227C5.49732 18.0113 5.50534 18.0013 5.51539 17.9937C5.64118 17.8994 5.76704 17.8014 5.88715 17.7023C5.89781 17.6935 5.91073 17.688 5.92443 17.6861C5.93813 17.6843 5.95207 17.6862 5.96469 17.6919C9.89191 19.4842 14.1437 19.4842 18.0245 17.6919C18.0371 17.6859 18.0511 17.6836 18.0651 17.6852C18.079 17.687 18.0922 17.6925 18.1029 17.7014C18.2231 17.8004 18.3489 17.8994 18.4757 17.9937C18.4858 18.0012 18.4939 18.0111 18.4992 18.0225C18.5046 18.0339 18.507 18.0465 18.5064 18.0592C18.5057 18.0718 18.502 18.084 18.4955 18.0949C18.489 18.1056 18.4799 18.1147 18.469 18.1212C17.8709 18.4703 17.2445 18.7684 16.5962 19.0121C16.5862 19.0159 16.577 19.0219 16.5694 19.0295C16.5618 19.037 16.5558 19.0462 16.552 19.0563C16.5481 19.0663 16.5464 19.0771 16.547 19.0878C16.5476 19.0986 16.5505 19.1091 16.5554 19.1186C16.9144 19.8118 17.3238 20.4776 17.7804 21.1109C17.7896 21.1238 17.8027 21.1336 17.8178 21.1387C17.8329 21.1439 17.8493 21.1441 17.8645 21.1394C20.0228 20.479 22.0525 19.4551 23.8663 18.1118C23.8752 18.1053 23.8825 18.0972 23.8879 18.0876C23.8933 18.0781 23.8965 18.0676 23.8975 18.0567C24.398 12.8824 23.0596 8.38792 20.3496 4.40354ZM8.02297 15.3306C6.84059 15.3306 5.86634 14.2455 5.86634 12.9129C5.86634 11.5804 6.82168 10.4952 8.02297 10.4952C9.23364 10.4952 10.1985 11.5897 10.1795 12.9128C10.1795 14.2455 9.22417 15.3306 8.02297 15.3306ZM15.9967 15.3306C14.8143 15.3306 13.8401 14.2455 13.8401 12.9129C13.8401 11.5804 14.7955 10.4952 15.9967 10.4952C17.2075 10.4952 18.1723 11.5897 18.1533 12.9128C18.1533 14.2455 17.2075 15.3306 15.9967 15.3306Z" fill="currentColor"/>
</svg>
