<svg width="1em" height="1em" viewBox="0 0 24 24" fill="none" xmlns="http://www.w3.org/2000/svg">
<path d="M19.67 5.01897C19.6639 5.00709 19.6537 4.99779 19.6414 4.99272C18.2117 4.33679 16.7031 3.86907 15.1531 3.60124C15.139 3.59863 15.1245 3.60052 15.1116 3.60664C15.0986 3.61277 15.0879 3.62282 15.081 3.63537C14.8756 4.00823 14.6891 4.39122 14.5223 4.78287C12.8515 4.52925 11.152 4.52925 9.48129 4.78287C9.31336 4.39022 9.12388 4.00714 8.91373 3.63537C8.90652 3.62309 8.89578 3.61327 8.88292 3.60719C8.87005 3.6011 8.85564 3.59903 8.84158 3.60124C7.29147 3.8685 5.78271 4.33627 4.35328 4.99276C4.34104 4.99795 4.33072 5.0068 4.32373 5.01811C1.46514 9.28703 0.682067 13.451 1.06622 17.5634C1.0673 17.5735 1.07039 17.5832 1.07532 17.5921C1.08025 17.6009 1.08691 17.6087 1.0949 17.615C2.75943 18.8474 4.62123 19.7882 6.60084 20.397C6.61478 20.4012 6.62967 20.401 6.6435 20.3965C6.65733 20.392 6.66944 20.3833 6.6782 20.3717C7.10338 19.7932 7.48012 19.1806 7.80459 18.5401C7.80905 18.5313 7.8116 18.5217 7.81206 18.5119C7.81253 18.502 7.8109 18.4922 7.80729 18.483C7.80368 18.4738 7.79817 18.4655 7.79112 18.4587C7.78406 18.4518 7.77563 18.4465 7.76638 18.4431C7.17229 18.2158 6.59714 17.9417 6.04633 17.6236C6.03632 17.6177 6.02792 17.6094 6.02186 17.5995C6.0158 17.5896 6.01228 17.5784 6.01159 17.5668C6.0109 17.5552 6.01308 17.5437 6.01793 17.5331C6.02278 17.5226 6.03015 17.5134 6.03939 17.5064C6.15497 17.4198 6.27062 17.3297 6.38098 17.2387C6.39078 17.2306 6.40265 17.2255 6.41524 17.2238C6.42783 17.2221 6.44064 17.2239 6.45223 17.2291C10.0608 18.876 13.9676 18.876 17.5335 17.2291C17.5451 17.2236 17.558 17.2215 17.5708 17.223C17.5836 17.2246 17.5957 17.2297 17.6056 17.2379C17.716 17.3288 17.8316 17.4198 17.9481 17.5064C17.9574 17.5133 17.9648 17.5224 17.9697 17.5329C17.9747 17.5434 17.9769 17.555 17.9763 17.5666C17.9757 17.5782 17.9723 17.5894 17.9663 17.5994C17.9603 17.6093 17.952 17.6176 17.942 17.6236C17.3924 17.9444 16.8168 18.2183 16.2211 18.4422C16.2119 18.4457 16.2035 18.4512 16.1965 18.4582C16.1895 18.4651 16.184 18.4735 16.1805 18.4828C16.1769 18.492 16.1754 18.5019 16.1759 18.5118C16.1765 18.5217 16.1791 18.5313 16.1836 18.5401C16.5135 19.177 16.8897 19.7888 17.3092 20.3707C17.3177 20.3826 17.3297 20.3916 17.3436 20.3963C17.3575 20.401 17.3725 20.4012 17.3865 20.3969C19.3697 19.7901 21.2347 18.8493 22.9013 17.615C22.9095 17.609 22.9162 17.6015 22.9212 17.5927C22.9261 17.584 22.9291 17.5743 22.93 17.5643C23.3899 12.8099 22.1601 8.68006 19.67 5.01897ZM8.34351 15.0594C7.25706 15.0594 6.36186 14.0624 6.36186 12.8379C6.36186 11.6135 7.23969 10.6164 8.34351 10.6164C9.45594 10.6164 10.3425 11.6221 10.3251 12.8378C10.3251 14.0624 9.44724 15.0594 8.34351 15.0594ZM15.6703 15.0594C14.5838 15.0594 13.6886 14.0624 13.6886 12.8379C13.6886 11.6135 14.5665 10.6164 15.6703 10.6164C16.7828 10.6164 17.6693 11.6221 17.6519 12.8378C17.6519 14.0624 16.7828 15.0594 15.6703 15.0594Z" fill="currentColor"/>
</svg>
