<svg width="1em" height="1em" viewBox="0 0 24 24" fill="none" xmlns="http://www.w3.org/2000/svg">
<path d="M4.5 4.5C3.31028 4.5 2.31466 5.33105 2.06198 6.4443L12 12.5175L21.938 6.4443C21.6853 5.33105 20.6897 4.5 19.5 4.5H4.5Z" fill="currentColor"/>
<path d="M2 16.7507V7.87135L9.25399 12.3044L2 16.7507Z" fill="currentColor"/>
<path d="M10.4518 13.0363L2.23984 18.0699C2.64076 18.9153 3.5021 19.5 4.5 19.5H12.3201C12.1128 18.9135 12 18.2824 12 17.625C12 15.8961 12.78 14.3495 14.0072 13.3176L13.5482 13.0363L12 13.9825L10.4518 13.0363Z" fill="currentColor"/>
<path d="M22 14.0892V7.87135L14.746 12.3044L15.1685 12.5633C15.9107 12.2024 16.7442 12 17.625 12C19.392 12 20.9688 12.8148 22 14.0892Z" fill="currentColor"/>
<path d="M21.7923 17.3053C21.7923 18.7645 21.0709 19.8357 19.8084 19.8357C19.1799 19.8357 18.5568 19.5515 18.4093 19.0269H18.3546C18.2071 19.5461 17.6769 19.8303 17.0867 19.8303C16.1248 19.8303 15.5126 19.1526 15.5126 18.0376V17.3763C15.5126 16.3215 16.1138 15.6274 17.0867 15.6274C17.819 15.6274 18.1743 16.0428 18.2781 16.4144H18.3164V15.7039H19.4477V18.4421C19.4477 18.7809 19.6718 18.9667 19.9614 18.9667C20.3549 18.9667 20.7594 18.4475 20.7594 17.2288V17.0812C20.7594 15.4853 19.5734 14.1736 17.6551 14.1736H17.6059C15.6274 14.1736 14.3048 15.5072 14.3048 17.5785V17.7753C14.3048 20.109 15.8515 21.0928 17.5184 21.0928H17.5731C18.2071 21.0928 18.7427 21.0053 19.0487 20.8687V21.7814C18.7755 21.9071 18.2453 22 17.502 22H17.4474C15.0481 22 13.25 20.5244 13.25 17.8081V17.5403C13.25 14.9497 15.0262 13.25 17.6059 13.25H17.6496C20.3003 13.25 21.7923 15.0372 21.7923 17.0429V17.3053ZM16.7423 17.5676V17.8518C16.7423 18.5842 17.0265 18.852 17.4692 18.852C17.8573 18.852 18.1743 18.6388 18.1743 17.9229V17.4638C18.1743 16.8189 17.8299 16.5784 17.4583 16.5784C17.0265 16.5784 16.7423 16.8844 16.7423 17.5676Z" fill="currentColor"/>
</svg>
