<svg xmlns="http://www.w3.org/2000/svg" width="1em" height="1em" fill="none" viewBox="0 0 49 48"><mask id="a" width="10" height="12" x="23.785" y="24.577" fill="#000" maskUnits="userSpaceOnUse"><path fill="#fff" d="M23.785 24.577h10v12h-10z"/><path fill-rule="evenodd" d="m32.729 25.577-7.944 4.62v5.915l7.944-10.535Zm-1.547 1.37L24.99 30.55v4.612l6.193-8.214Z" clip-rule="evenodd"/></mask><path fill="currentcolor" fill-rule="evenodd" d="m32.729 25.577-7.944 4.62v5.915l7.944-10.535Zm-1.547 1.37L24.99 30.55v4.612l6.193-8.214Z" clip-rule="evenodd"/><path fill="currentcolor" d="m24.785 30.197-.15-.26a.3.3 0 0 0-.15.26h.3Zm7.944-4.62.24.18a.3.3 0 0 0-.391-.44l.15.26Zm-7.944 10.535h-.3a.3.3 0 0 0 .54.18l-.24-.18Zm.204-5.562-.151-.26a.3.3 0 0 0-.15.26h.3Zm6.193-3.602.24.18a.3.3 0 0 0-.39-.44l.15.26Zm-6.193 8.214h-.3a.3.3 0 0 0 .54.18l-.24-.18Zm-.053-4.706 7.944-4.62-.302-.519-7.944 4.62.302.52Zm.15 5.656v-5.915h-.6v5.915h.6Zm-.061.18 7.943-10.535-.479-.361-7.943 10.535.479.361Zm.115-5.482 6.193-3.603-.302-.518-6.193 3.602.302.519Zm.149 4.352V30.55h-.6v4.612h.6Zm5.653-8.395-6.193 8.214.48.361 6.193-8.213-.48-.362Z" mask="url(#a)"/><mask id="b" width="10" height="12" x="15.84" y="24.577" fill="#000" maskUnits="userSpaceOnUse"><path fill="#fff" d="M15.84 24.577h10v12h-10z"/><path fill-rule="evenodd" d="M24.784 36.113v-5.915l-7.944-4.621.002.002 7.942 10.533Zm-6.4-9.165 6.196 8.218v-4.614l-.003-.001-6.193-3.603Z" clip-rule="evenodd"/></mask><path fill="currentcolor" fill-rule="evenodd" d="M24.784 36.113v-5.915l-7.944-4.621.002.002 7.942 10.533Zm-6.4-9.165 6.196 8.218v-4.614l-.003-.001-6.193-3.603Z" clip-rule="evenodd"/><path fill="currentcolor" d="m24.784 36.113-.24.18a.3.3 0 0 0 .54-.18h-.3Zm0-5.915h.3a.3.3 0 0 0-.15-.26l-.15.26Zm-7.944-4.621.15-.26a.3.3 0 0 0-.39.44l.24-.18Zm.002.002-.151.26a.3.3 0 0 0 .39-.44l-.24.18Zm0 0 .15-.26a.3.3 0 0 0-.39.44l.24-.18Zm7.942 10.533-.24.18a.3.3 0 0 0 .48 0l-.24-.18Zm0 0 .24-.18a.3.3 0 0 0-.48 0l.24.18Zm-.204-.946-.24.18a.3.3 0 0 0 .54-.18h-.3Zm-6.196-8.218.15-.259a.3.3 0 0 0-.39.44l.24-.18Zm6.196 3.604h.3a.3.3 0 0 0-.15-.26l-.15.26Zm-.003-.001-.15.26.15-.26Zm.507 5.562v-5.915h-.6v5.915h.6Zm-.15-6.175-7.943-4.62-.302.518 7.944 4.62.302-.518Zm-8.334-4.18.002.001.479-.36-.002-.003-.479.361Zm.392-.438-.302.518.302-.518Zm-.39.44 7.942 10.533.48-.361-7.943-10.534-.48.361Zm8.421 10.532-.48-.36.48.36Zm-.479 0v.001l.48-.36v-.002l-.48.362Zm.276-1.306-6.197-8.218-.479.361 6.196 8.218.48-.361Zm-.54-4.434v4.614h.6v-4.614h-.6Zm.147.259.003.001.3-.52-.003-.001-.3.52Zm-6.194-3.603 6.194 3.602.301-.518-6.193-3.603-.302.519Z" mask="url(#b)"/><mask id="c" width="10" height="14" x="15.84" y="10.888" fill="#000" maskUnits="userSpaceOnUse"><path fill="#fff" d="M15.84 10.888h10v14h-10z"/><path fill-rule="evenodd" d="M24.784 11.888 16.84 24.354v.001l7.944-3.533v-8.934Zm-.204 8.801v-7.713L17.722 23.74l6.858-3.05Z" clip-rule="evenodd"/></mask><path fill="currentcolor" fill-rule="evenodd" d="M24.784 11.888 16.84 24.354v.001l7.944-3.533v-8.934Zm-.204 8.801v-7.713L17.722 23.74l6.858-3.05Z" clip-rule="evenodd"/><path fill="currentcolor" d="M24.784 11.888h.3a.3.3 0 0 0-.553-.162l.253.162ZM16.84 24.354l.122.275a.3.3 0 0 0 .131-.113l-.253-.162Zm0 0-.121-.274a.3.3 0 0 0-.132.113l.253.161Zm0 .001-.253-.161a.3.3 0 0 0 .375.435l-.122-.274Zm7.944-3.533.122.274a.3.3 0 0 0 .178-.274h-.3Zm-.204-7.846h.3a.3.3 0 0 0-.553-.161l.253.161Zm0 7.713.122.274a.3.3 0 0 0 .178-.274h-.3Zm-6.858 3.05-.253-.16a.3.3 0 0 0 .374.435l-.121-.275Zm6.81-12.013-7.945 12.467.506.323 7.944-12.467-.506-.322ZM16.718 24.08l.243.549-.243-.549Zm.374.436-.506-.323.506.323Zm7.57-3.968-7.945 3.533.244.548 7.944-3.533-.244-.548Zm-.179-8.66v8.934h.6v-8.934h-.6Zm-.204 1.088v7.713h.6v-7.713h-.6Zm-6.305 10.925 6.858-10.764-.506-.322-6.858 10.763.506.323Zm6.483-3.486-6.858 3.05.243.549 6.859-3.05-.244-.549Z" mask="url(#c)"/><mask id="d" width="10" height="10" x="15.84" y="19.822" fill="#000" maskUnits="userSpaceOnUse"><path fill="#fff" d="M15.84 19.822h10v10h-10z"/><path fill-rule="evenodd" d="m16.845 24.358 7.94 4.518v-8.054l-7.943 3.532h-.002l.005.004Zm.67-.08 7.067 4.02v-7.162l-7.066 3.142Z" clip-rule="evenodd"/></mask><path fill="currentcolor" fill-rule="evenodd" d="m16.845 24.358 7.94 4.518v-8.054l-7.943 3.532h-.002l.005.004Zm.67-.08 7.067 4.02v-7.162l-7.066 3.142Z" clip-rule="evenodd"/><path fill="currentcolor" d="m24.785 28.876-.148.26a.3.3 0 0 0 .448-.26h-.3Zm-7.94-4.518-.253-.162a.3.3 0 0 0 .104.422l.148-.26Zm7.94-3.536h.3a.3.3 0 0 0-.422-.274l.122.274Zm-7.943 3.532-.122-.275a.3.3 0 0 0-.131.113l.253.162Zm0 0 .122.274a.3.3 0 0 0 .13-.113l-.252-.161Zm-.002 0-.122-.273a.3.3 0 0 0-.026.535l.148-.261Zm.005.004.253.16a.3.3 0 0 0-.105-.421l-.148.26Zm7.737 3.94-.149.26a.3.3 0 0 0 .449-.26h-.3Zm-7.066-4.02-.122-.274a.3.3 0 0 0-.026.534l.148-.26Zm7.066-3.142h.3a.3.3 0 0 0-.422-.274l.122.274Zm.351 7.48-7.94-4.519-.297.521 7.94 4.519.297-.522Zm-.448-7.794v8.054h.6v-8.054h-.6Zm-7.521 3.806 7.943-3.532-.244-.548-7.943 3.531.244.549Zm-.375-.436.506.323-.506-.323Zm.13-.112h-.001l.244.549h.002l-.244-.55Zm-.027.536.004.002.297-.521-.005-.003-.296.521Zm-.1-.42.505.323-.505-.323Zm8.138 3.841-7.066-4.02-.297.521 7.066 4.02.297-.52Zm-.448-6.901v7.162h.6v-7.162h-.6Zm-6.644 3.416 7.065-3.142-.243-.548-7.066 3.142.244.548Z" mask="url(#d)"/><mask id="e" width="10" height="10" x="23.785" y="19.823" fill="#000" maskUnits="userSpaceOnUse"><path fill="#fff" d="M23.785 19.823h10v10h-10z"/><path fill-rule="evenodd" d="m32.728 24.355-7.943-3.532v8.054l7.94-4.518.006-.003-.002-.001Zm-7.74 3.944 7.066-4.02-7.065-3.142v7.162Z" clip-rule="evenodd"/></mask><path fill="currentcolor" fill-rule="evenodd" d="m32.728 24.355-7.943-3.532v8.054l7.94-4.518.006-.003-.002-.001Zm-7.74 3.944 7.066-4.02-7.065-3.142v7.162Z" clip-rule="evenodd"/><path fill="currentcolor" d="m32.728 24.355.253-.162a.3.3 0 0 0-.13-.113l-.123.275Zm-7.943-3.532.122-.274a.3.3 0 0 0-.422.274h.3Zm0 8.054h-.3a.3.3 0 0 0 .448.26l-.148-.26Zm7.94-4.518.15.26a.3.3 0 0 0 .104-.421l-.253.16Zm0 0-.148-.261a.3.3 0 0 0-.104.422l.253-.162Zm.006-.003.148.26a.3.3 0 0 0-.026-.534l-.122.274Zm-.002-.001-.253.161a.3.3 0 0 0 .13.113l.123-.274Zm-.675-.076.149.26a.3.3 0 0 0-.027-.535l-.122.275Zm-7.065 4.02h-.3a.3.3 0 0 0 .448.26l-.148-.26Zm0-7.162.122-.274a.3.3 0 0 0-.422.274h.3Zm7.861 2.944-7.943-3.532-.244.548 7.944 3.532.243-.549Zm-8.365-3.258v8.054h.6v-8.054h-.6Zm.448 8.314 7.941-4.518-.296-.521-7.941 4.518.296.521Zm8.046-4.94-.506.323.506-.322Zm-.105.422.005-.003-.297-.521-.005.003.297.521Zm-.022-.537-.001-.001-.244.548h.002l.243-.547Zm.13.112-.506.322.506-.322Zm-1.076-.176-7.066 4.02.297.522 7.066-4.02-.297-.522Zm-7.039-2.607 7.066 3.142.243-.549-7.065-3.141-.244.548Zm.422 6.888v-7.162h-.6v7.162h.6Z" mask="url(#e)"/><mask id="f" width="10" height="14" x="23.785" y="10.889" fill="#000" maskUnits="userSpaceOnUse"><path fill="#fff" d="M23.785 10.889h10v14h-10z"/><path fill-rule="evenodd" d="M24.785 11.89v8.932l7.943 3.532-7.943-12.465Zm.203 8.8 6.859 3.05-6.859-10.764v7.713Z" clip-rule="evenodd"/></mask><path fill="currentcolor" fill-rule="evenodd" d="M24.785 11.89v8.932l7.943 3.532-7.943-12.465Zm.203 8.8 6.859 3.05-6.859-10.764v7.713Z" clip-rule="evenodd"/><path fill="currentcolor" d="m24.785 11.89.253-.162a.3.3 0 0 0-.553.161h.3Zm0 8.932h-.3a.3.3 0 0 0 .178.274l.122-.274Zm7.943 3.532-.122.274a.3.3 0 0 0 .375-.435l-.253.161Zm-.881-.615-.122.274a.3.3 0 0 0 .375-.435l-.253.161Zm-6.859-3.05h-.3a.3.3 0 0 0 .178.274l.122-.274Zm0-7.713.253-.161a.3.3 0 0 0-.553.161h.3Zm-.503-1.087v8.933h.6v-8.933h-.6Zm.178 9.207 7.943 3.532.244-.548-7.943-3.532-.244.548Zm8.318 3.097-7.943-12.465-.506.322 7.943 12.466.506-.323Zm-1.012-.728-6.859-3.05-.244.549 6.859 3.05.244-.549Zm-7.234-10.328 6.859 10.764.506-.323-6.859-10.763-.506.322Zm.553 7.552v-7.713h-.6v7.713h.6Z" mask="url(#f)"/><path stroke="currentcolor" stroke-width="3" d="m15.773 40.441-.557-1.392.557 1.392a2.5 2.5 0 0 1 3.229 1.337l.416.974c1.904 4.448 8.21 4.448 10.113 0l.417-.974a2.5 2.5 0 0 1 3.228-1.337l.983.394c4.491 1.8 8.95-2.66 7.15-7.15l-.393-.984a2.5 2.5 0 0 1 1.337-3.228l.974-.416c4.448-1.904 4.448-8.21 0-10.113l-.974-.417a2.5 2.5 0 0 1-1.337-3.228l-1.392-.558 1.392.558.394-.983c1.8-4.492-2.66-8.95-7.151-7.151l-.983.394a2.5 2.5 0 0 1-3.228-1.338l-.417-.973C27.628.8 21.321.8 19.418 5.248l-.416.973a2.5 2.5 0 0 1-3.229 1.338l-.983-.394c-4.491-1.8-8.95 2.66-7.15 7.15l.393.984a2.5 2.5 0 0 1-1.337 3.228l-.973.416c-4.449 1.904-4.449 8.21 0 10.113l.973.417a2.5 2.5 0 0 1 1.337 3.228l-.394.983c-1.799 4.492 2.66 8.95 7.151 7.151l.983-.394Z"/></svg>