<svg xmlns="http://www.w3.org/2000/svg" width="1em" height="1em" fill="none" viewBox="0 0 49 48"><rect width="44.375" height="29.787" x="2.145" y="15.989" stroke="currentcolor" stroke-width="3" rx="4.5"/><path stroke="currentcolor" stroke-width="3" d="m4.27 16.597 18.724-11.04c4-2.358 9.047.526 9.047 5.169v5.87"/><mask id="a" width="8" height="11" x="23.477" y="31.2" fill="#000" maskUnits="userSpaceOnUse"><path fill="#fff" d="M23.477 31.2h8v11h-8z"/><path fill-rule="evenodd" d="m31.113 32.2-6.636 3.86v4.942l6.636-8.802Zm-1.291 1.146-5.175 3.01v3.852l5.175-6.862Z" clip-rule="evenodd"/></mask><path fill="currentcolor" fill-rule="evenodd" d="m31.113 32.2-6.636 3.86v4.942l6.636-8.802Zm-1.291 1.146-5.175 3.01v3.852l5.175-6.862Z" clip-rule="evenodd"/><path fill="currentcolor" d="m24.477 36.06-.101-.172a.2.2 0 0 0-.1.173h.2Zm6.636-3.86.16.12a.2.2 0 0 0-.26-.293l.1.173Zm-6.636 8.802h-.2a.2.2 0 0 0 .36.12l-.16-.12Zm.17-4.647-.1-.172a.2.2 0 0 0-.1.172h.2Zm5.175-3.01.16.121a.2.2 0 0 0-.261-.293l.1.173Zm-5.175 6.863h-.2a.2.2 0 0 0 .36.12l-.16-.12Zm-.07-3.974 6.637-3.86-.201-.347-6.637 3.86.201.346Zm.1 4.768v-4.941h-.4v4.941h.4Zm-.04.12 6.636-8.801-.32-.241-6.636 8.802.32.24Zm.11-4.594 5.175-3.01-.201-.345-5.175 3.01.201.345Zm.1 3.68v-3.853h-.4v3.853h.4Zm4.815-6.983-5.175 6.863.32.24 5.174-6.862-.32-.24Z" mask="url(#a)"/><mask id="b" width="8" height="11" x="16.84" y="31.201" fill="#000" maskUnits="userSpaceOnUse"><path fill="#fff" d="M16.84 31.201h8v11h-8z"/><path fill-rule="evenodd" d="m17.84 32.2 6.637 8.803v-4.942L17.84 32.2Zm1.289 1.146 5.177 6.866v-3.855h-.002l-5.175-3.01Z" clip-rule="evenodd"/></mask><path fill="currentcolor" fill-rule="evenodd" d="m17.84 32.2 6.637 8.803v-4.942L17.84 32.2Zm1.289 1.146 5.177 6.866v-3.855h-.002l-5.175-3.01Z" clip-rule="evenodd"/><path fill="currentcolor" d="m17.84 32.2.1-.172a.2.2 0 0 0-.26.293l.16-.12Zm6.637 8.803-.16.12a.2.2 0 0 0 .36-.12h-.2Zm0-4.942h.2a.2.2 0 0 0-.1-.173l-.1.173Zm0 0 .1-.173a.2.2 0 0 0-.2 0l.1.172Zm0 0-.101.173a.2.2 0 0 0 .2 0l-.1-.173Zm-.171 4.151-.16.12a.2.2 0 0 0 .36-.12h-.2Zm-5.177-6.866.1-.172a.2.2 0 0 0-.26.293l.16-.12Zm5.177 3.012h.2a.2.2 0 0 0-.1-.174l-.1.174Zm-.002-.002-.1.173.1-.173Zm-6.624-4.035 6.637 8.802.32-.24L18 32.08l-.32.241Zm6.997 8.682v-4.942h-.4v4.942h.4Zm-.1-5.115-.201.345.201-.345Zm-.2 0h-.001l.2.346h.001l-.2-.346Zm.2 0-6.637-3.86-.2.346 6.636 3.86.2-.346Zm-.111 4.204-5.177-6.866-.32.24 5.177 6.867.32-.241Zm-.36-3.734v3.854h.4v-3.855h-.4Zm.098.172h.002l.2-.346-.002-.001-.2.346Zm-5.176-3.01 5.175 3.01.201-.347-5.174-3.01-.202.346Z" mask="url(#b)"/><mask id="c" width="8" height="12" x="16.836" y="19.763" fill="#000" maskUnits="userSpaceOnUse"><path fill="#fff" d="M16.836 19.763h8v12h-8z"/><path fill-rule="evenodd" d="m17.836 31.179 6.638-2.952v-7.464l-6.638 10.416Zm6.467-3.062v-6.445l-5.73 8.993 5.73-2.548Z" clip-rule="evenodd"/></mask><path fill="currentcolor" fill-rule="evenodd" d="m17.836 31.179 6.638-2.952v-7.464l-6.638 10.416Zm6.467-3.062v-6.445l-5.73 8.993 5.73-2.548Z" clip-rule="evenodd"/><path fill="currentcolor" d="m17.836 31.18-.169-.108a.2.2 0 0 0 .25.29l-.081-.183Zm0-.001-.081-.183a.2.2 0 0 0-.087.075l.168.108Zm6.638-2.952.08.183a.2.2 0 0 0 .12-.183h-.2Zm0-7.464h.2a.2.2 0 0 0-.37-.108l.17.108Zm-6.638 10.416.082.182a.2.2 0 0 0 .087-.075l-.169-.107Zm6.467-9.507h.2a.2.2 0 0 0-.369-.107l.169.107Zm0 6.445.081.182a.2.2 0 0 0 .119-.182h-.2Zm-5.73 2.548-.169-.108a.2.2 0 0 0 .25.29l-.081-.182Zm-.568.622-.337-.216.337.216Zm6.387-3.242-6.637 2.951.162.366 6.638-2.952-.163-.365Zm-.118-7.282v7.464h.4v-7.464h-.4Zm.03-.108-6.636 10.416.337.215 6.637-10.416-.337-.215Zm-6.55 10.341.164.365-.163-.365Zm6.349-9.324v6.445h.4v-6.445h-.4Zm-5.362 9.1 5.73-8.992-.337-.215-5.73 8.992.337.215Zm5.48-2.838-5.73 2.548.163.366 5.73-2.549-.162-.365Z" mask="url(#c)"/><mask id="d" width="8" height="8" x="16.836" y="27.227" fill="#000" maskUnits="userSpaceOnUse"><path fill="#fff" d="M16.836 27.227h8v8h-8z"/><path fill-rule="evenodd" d="m17.84 31.182 6.634 3.775v-6.73l-6.636 2.95v.002h-.002l.004.003Zm.56-.067 5.904 3.359V28.49l-5.903 2.625Z" clip-rule="evenodd"/></mask><path fill="currentcolor" fill-rule="evenodd" d="m17.84 31.182 6.634 3.775v-6.73l-6.636 2.95v.002h-.002l.004.003Zm.56-.067 5.904 3.359V28.49l-5.903 2.625Z" clip-rule="evenodd"/><path fill="currentcolor" d="m24.474 34.957-.1.174a.2.2 0 0 0 .3-.174h-.2Zm-6.634-3.775-.169-.107a.2.2 0 0 0 .07.281l.099-.174Zm6.634-2.954h.2a.2.2 0 0 0-.282-.183l.082.182Zm-6.636 2.95-.081-.183a.2.2 0 0 0-.088.075l.17.108Zm0 0 .08.184a.2.2 0 0 0 .088-.076l-.169-.107Zm-.002.002-.081-.183a.2.2 0 0 0-.018.356l.099-.174Zm.004.002.169.107a.2.2 0 0 0-.07-.281l-.1.174Zm6.464 3.292-.099.174a.2.2 0 0 0 .3-.174h-.2Zm-5.903-3.359-.081-.183a.2.2 0 0 0-.018.357l.099-.174Zm5.903-2.625h.2a.2.2 0 0 0-.281-.182l.081.182Zm.269 6.293-6.634-3.775-.198.348 6.634 3.775.198-.348Zm-.3-6.556v6.73h.4v-6.73h-.4Zm-6.354 3.134 6.636-2.95-.163-.366-6.635 2.95.162.366Zm-.25-.29.337.215-.337-.216Zm.087-.075h-.001l.162.366h.002l-.163-.366Zm-.019.357.004.003.198-.348-.004-.002-.198.347Zm-.066-.279.337.216-.337-.216Zm6.732 3.226L18.5 30.941l-.198.348 5.903 3.359.198-.348Zm-.299-5.81v5.984h.4V28.49h-.4Zm-5.622 2.808 5.904-2.625-.163-.365-5.903 2.624.162.366Z" mask="url(#d)"/><mask id="e" width="8" height="8" x="23.477" y="27.228" fill="#000" maskUnits="userSpaceOnUse"><path fill="#fff" d="M23.477 27.228h8v8h-8z"/><path fill-rule="evenodd" d="m31.115 31.18-6.638-2.952v6.73l6.635-3.776.003-.002Zm-6.468 3.294 5.903-3.36-5.903-2.624v5.984Z" clip-rule="evenodd"/></mask><path fill="currentcolor" fill-rule="evenodd" d="m31.115 31.18-6.638-2.952v6.73l6.635-3.776.003-.002Zm-6.468 3.294 5.903-3.36-5.903-2.624v5.984Z" clip-rule="evenodd"/><path fill="currentcolor" d="m31.115 31.18.099.173a.2.2 0 0 0-.018-.356l-.081.183Zm-6.638-2.952.08-.183a.2.2 0 0 0-.28.183h.2Zm0 6.73h-.2a.2.2 0 0 0 .299.173l-.1-.174Zm6.635-3.776.099.174a.2.2 0 0 0 .07-.281l-.17.107Zm0 0-.1-.174a.2.2 0 0 0-.07.281l.17-.107Zm-.562-.067.1.174a.2.2 0 0 0-.018-.357l-.082.183Zm-5.903 3.359h-.2a.2.2 0 0 0 .299.174l-.099-.174Zm0-5.984.081-.183a.2.2 0 0 0-.281.183h.2Zm6.549 2.507-6.638-2.952-.163.366 6.639 2.951.162-.365Zm-6.92-2.769v6.73h.4v-6.73h-.4Zm.3 6.903 6.634-3.775-.197-.348-6.635 3.775.198.348Zm6.704-4.056-.337.214.337-.214Zm-.07.28.004-.002-.198-.347-.004.002.198.347Zm-.759-.414L24.549 34.3l.198.348 5.903-3.36-.198-.347Zm-5.885-2.268 5.903 2.625.163-.366-5.904-2.625-.162.366Zm.281 5.8V28.49h-.4v5.984h.4Z" mask="url(#e)"/><mask id="f" width="8" height="12" x="23.477" y="19.763" fill="#000" maskUnits="userSpaceOnUse"><path fill="#fff" d="M23.477 19.763h8v12h-8z"/><path fill-rule="evenodd" d="M24.477 20.763v7.464l6.637 2.952-6.637-10.416Zm.17 7.353 5.73 2.549-5.73-8.993v6.444Z" clip-rule="evenodd"/></mask><path fill="currentcolor" fill-rule="evenodd" d="M24.477 20.763v7.464l6.637 2.952-6.637-10.416Zm.17 7.353 5.73 2.549-5.73-8.993v6.444Z" clip-rule="evenodd"/><path fill="currentcolor" d="m24.477 20.763.168-.108a.2.2 0 0 0-.368.108h.2Zm0 7.464h-.2a.2.2 0 0 0 .118.183l.082-.183Zm6.637 2.952-.081.183a.2.2 0 0 0 .25-.29l-.169.107Zm0 0 .169-.108a.2.2 0 0 0-.088-.075l-.081.183Zm0 0-.169.107a.2.2 0 0 0 .087.075l.082-.183Zm-.737-.514-.08.182a.2.2 0 0 0 .249-.29l-.169.108Zm-5.73-2.549h-.2a.2.2 0 0 0 .119.183l.081-.183Zm0-6.444.169-.108a.2.2 0 0 0-.369.108h.2Zm-.37-.91v7.465h.4v-7.464h-.4Zm.118 7.648 6.638 2.952.162-.366-6.637-2.952-.163.366Zm6.888 2.662-.338.214.338-.215Zm-.088-.076-.163.365.163-.365Zm.087.075-6.637-10.416-.337.215 6.637 10.416.337-.215Zm-.823-.589-5.73-2.548-.163.365 5.73 2.548.163-.365Zm-5.98-8.703 5.73 8.993.337-.215-5.73-8.993-.338.215Zm.368 6.337v-6.444h-.4v6.444h.4Z" mask="url(#f)"/></svg>