<svg width="1em" height="1em" viewBox="0 0 49 48" fill="none" xmlns="http://www.w3.org/2000/svg">
<mask id="path-1-outside-1_7288_10920" maskUnits="userSpaceOnUse" x="23.7852" y="24.5767" width="10" height="12" fill="black">
<rect fill="white" x="23.7852" y="24.5767" width="10" height="12"/>
<path fill-rule="evenodd" clip-rule="evenodd" d="M32.7287 25.5767L24.7852 30.197V36.1118L32.7287 25.5767ZM31.1821 26.9479L24.9889 30.5502V35.1617L31.1821 26.9479Z"/>
</mask>
<path fill-rule="evenodd" clip-rule="evenodd" d="M32.7287 25.5767L24.7852 30.197V36.1118L32.7287 25.5767ZM31.1821 26.9479L24.9889 30.5502V35.1617L31.1821 26.9479Z" fill="currentcolor"/>
<path d="M24.7852 30.197L24.6343 29.9377C24.542 29.9914 24.4852 30.0902 24.4852 30.197H24.7852ZM32.7287 25.5767L32.9682 25.7573C33.0542 25.6432 33.0479 25.4844 32.9531 25.3775C32.8583 25.2707 32.7013 25.2455 32.5778 25.3173L32.7287 25.5767ZM24.7852 36.1118H24.4852C24.4852 36.2408 24.5676 36.3554 24.6899 36.3963C24.8122 36.4373 24.947 36.3955 25.0247 36.2925L24.7852 36.1118ZM24.9889 30.5502L24.838 30.2909C24.7457 30.3446 24.6889 30.4434 24.6889 30.5502H24.9889ZM31.1821 26.9479L31.4216 27.1286C31.5076 27.0145 31.5013 26.8557 31.4065 26.7488C31.3117 26.642 31.1547 26.6168 31.0312 26.6886L31.1821 26.9479ZM24.9889 35.1617H24.6889C24.6889 35.2907 24.7713 35.4053 24.8936 35.4462C25.016 35.4872 25.1508 35.4453 25.2284 35.3424L24.9889 35.1617ZM24.936 30.4564L32.8795 25.836L32.5778 25.3173L24.6343 29.9377L24.936 30.4564ZM25.0852 36.1118V30.197H24.4852V36.1118H25.0852ZM25.0247 36.2925L32.9682 25.7573L32.4891 25.396L24.5456 35.9312L25.0247 36.2925ZM25.1397 30.8096L31.3329 27.2073L31.0312 26.6886L24.838 30.2909L25.1397 30.8096ZM25.2889 35.1617V30.5502H24.6889V35.1617H25.2889ZM30.9425 26.7673L24.7493 34.9811L25.2284 35.3424L31.4216 27.1286L30.9425 26.7673Z" fill="currentcolor" mask="url(#path-1-outside-1_7288_10920)"/>
<mask id="path-3-outside-2_7288_10920" maskUnits="userSpaceOnUse" x="15.8398" y="24.5767" width="10" height="12" fill="black">
<rect fill="white" x="15.8398" y="24.5767" width="10" height="12"/>
<path fill-rule="evenodd" clip-rule="evenodd" d="M24.7841 36.1128V30.1975L16.8398 25.5767L16.8415 25.5788L16.8413 25.5787L24.7835 36.1122L24.7836 36.1121L24.7841 36.1128ZM18.3838 26.9484L24.58 35.1661V30.5524L24.5773 30.5509L18.3838 26.9484Z"/>
</mask>
<path fill-rule="evenodd" clip-rule="evenodd" d="M24.7841 36.1128V30.1975L16.8398 25.5767L16.8415 25.5788L16.8413 25.5787L24.7835 36.1122L24.7836 36.1121L24.7841 36.1128ZM18.3838 26.9484L24.58 35.1661V30.5524L24.5773 30.5509L18.3838 26.9484Z" fill="currentcolor"/>
<path d="M24.7841 36.1128L24.5446 36.2934C24.6222 36.3964 24.757 36.4382 24.8793 36.3973C25.0017 36.3563 25.0841 36.2418 25.0841 36.1128H24.7841ZM24.7841 30.1975H25.0841C25.0841 30.0906 25.0273 29.9919 24.9349 29.9382L24.7841 30.1975ZM16.8398 25.5767L16.9907 25.3173C16.8672 25.2455 16.7102 25.2707 16.6154 25.3775C16.5207 25.4844 16.5143 25.6432 16.6003 25.7573L16.8398 25.5767ZM16.8415 25.5788L16.6906 25.8382C16.8141 25.91 16.9711 25.8848 17.0659 25.7779C17.1607 25.6711 17.167 25.5123 17.081 25.3982L16.8415 25.5788ZM16.8413 25.5787L16.9922 25.3194C16.8687 25.2476 16.7117 25.2728 16.6169 25.3796C16.5221 25.4865 16.5158 25.6453 16.6018 25.7594L16.8413 25.5787ZM24.7835 36.1122L24.544 36.2928C24.6008 36.3681 24.6896 36.4123 24.7839 36.4122C24.8782 36.4121 24.967 36.3676 25.0235 36.2922L24.7835 36.1122ZM24.7836 36.1121L25.0231 35.9315C24.9663 35.8562 24.8775 35.812 24.7832 35.8121C24.6889 35.8122 24.6001 35.8567 24.5436 35.9321L24.7836 36.1121ZM24.58 35.1661L24.3404 35.3467C24.4181 35.4497 24.5529 35.4916 24.6752 35.4506C24.7975 35.4097 24.88 35.2951 24.88 35.1661H24.58ZM18.3838 26.9484L18.5346 26.689C18.4111 26.6172 18.2542 26.6424 18.1594 26.7492C18.0646 26.8561 18.0582 27.0149 18.1442 27.129L18.3838 26.9484ZM24.58 30.5524H24.88C24.88 30.4452 24.8227 30.3461 24.7298 30.2925L24.58 30.5524ZM24.5773 30.5509L24.4265 30.8102L24.4275 30.8108L24.5773 30.5509ZM25.0841 36.1128V30.1975H24.4841V36.1128H25.0841ZM24.9349 29.9382L16.9907 25.3173L16.689 25.836L24.6333 30.4568L24.9349 29.9382ZM16.6003 25.7573L16.6019 25.7594L17.081 25.3982L17.0794 25.396L16.6003 25.7573ZM16.9923 25.3195L16.9922 25.3194L16.6905 25.8381L16.6906 25.8382L16.9923 25.3195ZM16.6018 25.7594L24.544 36.2928L25.0231 35.9316L17.0809 25.3981L16.6018 25.7594ZM25.0235 36.2922L25.0236 36.2921L24.5436 35.9321L24.5435 35.9322L25.0235 36.2922ZM24.544 36.2927L24.5446 36.2934L25.0236 35.9322L25.0231 35.9315L24.544 36.2927ZM24.8195 34.9855L18.6233 26.7678L18.1442 27.129L24.3404 35.3467L24.8195 34.9855ZM24.28 30.5524V35.1661H24.88V30.5524H24.28ZM24.4275 30.8108L24.4301 30.8123L24.7298 30.2925L24.7272 30.291L24.4275 30.8108ZM18.2329 27.2077L24.4265 30.8102L24.7282 30.2916L18.5346 26.689L18.2329 27.2077Z" fill="currentcolor" mask="url(#path-3-outside-2_7288_10920)"/>
<mask id="path-5-outside-3_7288_10920" maskUnits="userSpaceOnUse" x="15.8398" y="10.8877" width="10" height="14" fill="black">
<rect fill="white" x="15.8398" y="10.8877" width="10" height="14"/>
<path fill-rule="evenodd" clip-rule="evenodd" d="M24.7843 11.8877L16.8403 24.3544L16.8402 24.3544L16.8398 24.355L24.7843 20.822V11.8877ZM24.5801 20.6894V12.9761L17.7216 23.7394L24.5801 20.6894Z"/>
</mask>
<path fill-rule="evenodd" clip-rule="evenodd" d="M24.7843 11.8877L16.8403 24.3544L16.8402 24.3544L16.8398 24.355L24.7843 20.822V11.8877ZM24.5801 20.6894V12.9761L17.7216 23.7394L24.5801 20.6894Z" fill="currentcolor"/>
<path d="M24.7843 11.8877H25.0843C25.0843 11.7543 24.9962 11.637 24.8682 11.5997C24.7402 11.5624 24.6029 11.614 24.5313 11.7265L24.7843 11.8877ZM16.8403 24.3544L16.9617 24.6288C17.0157 24.6048 17.0615 24.5655 17.0933 24.5156L16.8403 24.3544ZM16.8402 24.3544L16.7188 24.0801C16.6647 24.104 16.6189 24.1434 16.5872 24.1933L16.8402 24.3544ZM16.8398 24.355L16.5868 24.1938C16.5157 24.3055 16.5262 24.4505 16.6125 24.5508C16.6989 24.6511 16.8408 24.6829 16.9617 24.6291L16.8398 24.355ZM24.7843 20.822L24.9062 21.0961C25.0145 21.048 25.0843 20.9406 25.0843 20.822H24.7843ZM24.5801 12.9761H24.8801C24.8801 12.8427 24.7921 12.7254 24.6641 12.6881C24.5361 12.6508 24.3988 12.7024 24.3271 12.8149L24.5801 12.9761ZM24.5801 20.6894L24.702 20.9635C24.8103 20.9153 24.8801 20.8079 24.8801 20.6894H24.5801ZM17.7216 23.7394L17.4686 23.5782C17.3974 23.6899 17.4079 23.8349 17.4942 23.9352C17.5806 24.0355 17.7225 24.0673 17.8435 24.0136L17.7216 23.7394ZM24.5313 11.7265L16.5873 24.1932L17.0933 24.5156L25.0373 12.0489L24.5313 11.7265ZM16.7189 24.08L16.7188 24.0801L16.9616 24.6288L16.9617 24.6288L16.7189 24.08ZM17.0929 24.5162L17.0932 24.5156L16.5872 24.1933L16.5868 24.1938L17.0929 24.5162ZM24.6624 20.5479L16.7179 24.0809L16.9617 24.6291L24.9062 21.0961L24.6624 20.5479ZM24.4843 11.8877V20.822H25.0843V11.8877H24.4843ZM24.2801 12.9761V20.6894H24.8801V12.9761H24.2801ZM17.9746 23.9007L24.8331 13.1373L24.3271 12.8149L17.4686 23.5782L17.9746 23.9007ZM24.4582 20.4152L17.5997 23.4653L17.8435 24.0136L24.702 20.9635L24.4582 20.4152Z" fill="currentcolor" mask="url(#path-5-outside-3_7288_10920)"/>
<mask id="path-7-outside-4_7288_10920" maskUnits="userSpaceOnUse" x="15.8398" y="19.8218" width="10" height="10" fill="black">
<rect fill="white" x="15.8398" y="19.8218" width="10" height="10"/>
<path fill-rule="evenodd" clip-rule="evenodd" d="M16.8445 24.3577L24.7851 28.8758V20.8218L16.842 24.3536L16.8417 24.3539L16.8398 24.3548L16.8446 24.3575L16.8445 24.3577ZM17.5159 24.2777L24.5816 28.2979V21.136L17.5159 24.2777Z"/>
</mask>
<path fill-rule="evenodd" clip-rule="evenodd" d="M16.8445 24.3577L24.7851 28.8758V20.8218L16.842 24.3536L16.8417 24.3539L16.8398 24.3548L16.8446 24.3575L16.8445 24.3577ZM17.5159 24.2777L24.5816 28.2979V21.136L17.5159 24.2777Z" fill="currentcolor"/>
<path d="M24.7851 28.8758L24.6368 29.1366C24.7297 29.1894 24.8436 29.1889 24.936 29.1352C25.0283 29.0814 25.0851 28.9827 25.0851 28.8758H24.7851ZM16.8445 24.3577L16.5915 24.1965C16.5473 24.2658 16.5335 24.3502 16.5533 24.4299C16.573 24.5097 16.6247 24.5779 16.6961 24.6185L16.8445 24.3577ZM24.7851 20.8218H25.0851C25.0851 20.7202 25.0338 20.6256 24.9486 20.5702C24.8634 20.5149 24.7561 20.5064 24.6633 20.5477L24.7851 20.8218ZM16.842 24.3536L16.7201 24.0794C16.6662 24.1034 16.6206 24.1427 16.5889 24.1924L16.842 24.3536ZM16.8417 24.3539L16.9636 24.6281C17.0175 24.6041 17.0631 24.5648 17.0947 24.5151L16.8417 24.3539ZM16.8398 24.3548L16.7179 24.0807C16.6145 24.1267 16.5458 24.2269 16.5402 24.34C16.5346 24.453 16.5931 24.5596 16.6915 24.6155L16.8398 24.3548ZM16.8446 24.3575L17.0976 24.5187C17.1418 24.4494 17.1556 24.3651 17.1358 24.2853C17.116 24.2055 17.0644 24.1374 16.993 24.0967L16.8446 24.3575ZM24.5816 28.2979L24.4332 28.5586C24.5261 28.6114 24.64 28.6109 24.7324 28.5572C24.8247 28.5035 24.8816 28.4047 24.8816 28.2979H24.5816ZM17.5159 24.2777L17.394 24.0035C17.2906 24.0495 17.2219 24.1498 17.2163 24.2628C17.2107 24.3759 17.2692 24.4824 17.3675 24.5384L17.5159 24.2777ZM24.5816 21.136H24.8816C24.8816 21.0345 24.8302 20.9398 24.745 20.8845C24.6598 20.8291 24.5525 20.8207 24.4597 20.8619L24.5816 21.136ZM24.9335 28.6151L16.9928 24.097L16.6961 24.6185L24.6368 29.1366L24.9335 28.6151ZM24.4851 20.8218V28.8758H25.0851V20.8218H24.4851ZM16.9638 24.6277L24.907 21.0959L24.6633 20.5477L16.7201 24.0794L16.9638 24.6277ZM16.5889 24.1924L16.5887 24.1928L17.0947 24.5151L17.095 24.5147L16.5889 24.1924ZM16.7198 24.0798L16.7179 24.0807L16.9618 24.6289L16.9636 24.6281L16.7198 24.0798ZM16.6915 24.6155L16.6963 24.6182L16.993 24.0967L16.9882 24.094L16.6915 24.6155ZM16.5916 24.1963L16.5915 24.1965L17.0974 24.519L17.0976 24.5187L16.5916 24.1963ZM24.7299 28.0371L17.6643 24.0169L17.3675 24.5384L24.4332 28.5586L24.7299 28.0371ZM24.2816 21.136V28.2979H24.8816V21.136H24.2816ZM17.6378 24.5518L24.7034 21.4102L24.4597 20.8619L17.394 24.0035L17.6378 24.5518Z" fill="currentcolor" mask="url(#path-7-outside-4_7288_10920)"/>
<mask id="path-9-outside-5_7288_10920" maskUnits="userSpaceOnUse" x="23.7852" y="19.8228" width="10" height="10" fill="black">
<rect fill="white" x="23.7852" y="19.8228" width="10" height="10"/>
<path fill-rule="evenodd" clip-rule="evenodd" d="M32.7285 24.3546L24.7852 20.8228V28.8768L32.7259 24.3587L32.7258 24.3585L32.7306 24.3558L32.7287 24.3549L32.7285 24.3546ZM24.9889 28.2988L32.0545 24.2786L24.9889 21.137V28.2988Z"/>
</mask>
<path fill-rule="evenodd" clip-rule="evenodd" d="M32.7285 24.3546L24.7852 20.8228V28.8768L32.7259 24.3587L32.7258 24.3585L32.7306 24.3558L32.7287 24.3549L32.7285 24.3546ZM24.9889 28.2988L32.0545 24.2786L24.9889 21.137V28.2988Z" fill="currentcolor"/>
<path d="M32.7285 24.3546L32.9815 24.1933C32.9498 24.1437 32.9042 24.1044 32.8504 24.0805L32.7285 24.3546ZM24.7852 20.8228L24.907 20.5486C24.8142 20.5074 24.7069 20.5159 24.6217 20.5712C24.5365 20.6265 24.4852 20.7212 24.4852 20.8228H24.7852ZM24.7852 28.8768H24.4852C24.4852 28.9836 24.542 29.0824 24.6343 29.1361C24.7267 29.1898 24.8407 29.1904 24.9335 29.1375L24.7852 28.8768ZM32.7259 24.3587L32.8743 24.6194C32.9457 24.5788 32.9973 24.5107 33.0171 24.4309C33.0369 24.3512 33.0231 24.2669 32.979 24.1976L32.7259 24.3587ZM32.7258 24.3585L32.5775 24.0977C32.5061 24.1383 32.4545 24.2065 32.4347 24.2862C32.4149 24.3659 32.4286 24.4503 32.4727 24.5196L32.7258 24.3585ZM32.7306 24.3558L32.8789 24.6165C32.9773 24.5606 33.0358 24.454 33.0302 24.341C33.0246 24.2279 32.9559 24.1277 32.8525 24.0817L32.7306 24.3558ZM32.7287 24.3549L32.4758 24.5162C32.5074 24.5659 32.553 24.6051 32.6068 24.629L32.7287 24.3549ZM32.0545 24.2786L32.2029 24.5394C32.3013 24.4834 32.3598 24.3768 32.3542 24.2638C32.3486 24.1508 32.2798 24.0505 32.1764 24.0045L32.0545 24.2786ZM24.9889 28.2988H24.6889C24.6889 28.4057 24.7457 28.5045 24.8381 28.5582C24.9304 28.6119 25.0444 28.6124 25.1372 28.5596L24.9889 28.2988ZM24.9889 21.137L25.1108 20.8629C25.018 20.8216 24.9106 20.8301 24.8254 20.8855C24.7403 20.9408 24.6889 21.0355 24.6889 21.137H24.9889ZM32.8504 24.0805L24.907 20.5486L24.6633 21.0969L32.6066 24.6287L32.8504 24.0805ZM24.4852 20.8228V28.8768H25.0852V20.8228H24.4852ZM24.9335 29.1375L32.8743 24.6194L32.5776 24.0979L24.6368 28.616L24.9335 29.1375ZM32.979 24.1976L32.9789 24.1974L32.4727 24.5196L32.4729 24.5198L32.979 24.1976ZM32.8742 24.6192L32.8789 24.6165L32.5823 24.095L32.5775 24.0977L32.8742 24.6192ZM32.8525 24.0817L32.8507 24.0808L32.6068 24.629L32.6086 24.6299L32.8525 24.0817ZM32.9816 24.1936L32.9815 24.1933L32.4756 24.5159L32.4758 24.5162L32.9816 24.1936ZM31.9062 24.0179L24.8405 28.0381L25.1372 28.5596L32.2029 24.5394L31.9062 24.0179ZM24.867 21.4111L31.9327 24.5528L32.1764 24.0045L25.1108 20.8629L24.867 21.4111ZM25.2889 28.2988V21.137H24.6889V28.2988H25.2889Z" fill="currentcolor" mask="url(#path-9-outside-5_7288_10920)"/>
<mask id="path-11-outside-6_7288_10920" maskUnits="userSpaceOnUse" x="23.7852" y="10.8892" width="10" height="14" fill="black">
<rect fill="white" x="23.7852" y="10.8892" width="10" height="14"/>
<path fill-rule="evenodd" clip-rule="evenodd" d="M24.7852 11.8892V20.822L32.7282 24.3544L24.7852 11.8892ZM24.9883 20.6893L31.8469 23.7394L24.9883 12.9761V20.6893Z"/>
</mask>
<path fill-rule="evenodd" clip-rule="evenodd" d="M24.7852 11.8892V20.822L32.7282 24.3544L24.7852 11.8892ZM24.9883 20.6893L31.8469 23.7394L24.9883 12.9761V20.6893Z" fill="currentcolor"/>
<path d="M24.7852 11.8892L25.0382 11.7279C24.9665 11.6155 24.8292 11.5638 24.7012 11.6011C24.5732 11.6385 24.4852 11.7558 24.4852 11.8892H24.7852ZM24.7852 20.822H24.4852C24.4852 20.9405 24.5549 21.048 24.6633 21.0961L24.7852 20.822ZM32.7282 24.3544L32.6063 24.6285C32.7272 24.6823 32.8691 24.6504 32.9555 24.5501C33.0419 24.4498 33.0523 24.3048 32.9812 24.1931L32.7282 24.3544ZM31.8469 23.7394L31.725 24.0135C31.8459 24.0673 31.9878 24.0355 32.0742 23.9352C32.1606 23.8349 32.171 23.6898 32.0999 23.5782L31.8469 23.7394ZM24.9883 20.6893H24.6883C24.6883 20.8079 24.7581 20.9153 24.8664 20.9635L24.9883 20.6893ZM24.9883 12.9761L25.2413 12.8149C25.1697 12.7024 25.0324 12.6507 24.9044 12.6881C24.7764 12.7254 24.6883 12.8427 24.6883 12.9761H24.9883ZM24.4852 11.8892V20.822H25.0852V11.8892H24.4852ZM24.6633 21.0961L32.6063 24.6285L32.8501 24.0802L24.9071 20.5479L24.6633 21.0961ZM32.9812 24.1931L25.0382 11.7279L24.5322 12.0504L32.4752 24.5156L32.9812 24.1931ZM31.9688 23.4653L25.1102 20.4152L24.8664 20.9635L31.725 24.0135L31.9688 23.4653ZM24.7353 13.1373L31.5939 23.9006L32.0999 23.5782L25.2413 12.8149L24.7353 13.1373ZM25.2883 20.6893V12.9761H24.6883V20.6893H25.2883Z" fill="currentcolor" mask="url(#path-11-outside-6_7288_10920)"/>
<path d="M15.7733 40.4414L15.2155 39.049L15.7734 40.4414C17.034 39.9363 18.4673 40.53 19.0015 41.7785L19.4181 42.752C21.3216 47.2004 27.6276 47.2004 29.5311 42.752L29.9477 41.7785C30.482 40.53 31.9152 39.9363 33.1759 40.4414L34.1588 40.8352C38.6502 42.6347 43.1093 38.1756 41.3098 33.6842L40.916 32.7013C40.4109 31.4406 41.0046 30.0073 42.2531 29.4731L43.2266 29.0565C47.675 27.153 47.675 20.847 43.2266 18.9435L42.2531 18.5269C41.0046 17.9927 40.4109 16.5594 40.916 15.2987L39.5236 14.7409L40.916 15.2987L41.3098 14.3158C43.1093 9.82436 38.6502 5.36535 34.1588 7.16482L33.1759 7.55863C31.9152 8.0637 30.482 7.47002 29.9477 6.22148L29.5311 5.24797C27.6276 0.799624 21.3216 0.799621 19.4181 5.24797L19.0015 6.22148C18.4673 7.47002 17.034 8.0637 15.7733 7.55863L14.7904 7.16482C10.299 5.36535 5.83996 9.82436 7.63943 14.3158L8.03324 15.2987C8.53831 16.5594 7.94463 17.9927 6.69609 18.5269L5.72258 18.9435C1.27423 20.847 1.27423 27.153 5.72258 29.0565L6.69609 29.4731C7.94463 30.0073 8.53831 31.4406 8.03324 32.7013L7.63943 33.6842C5.83996 38.1756 10.299 42.6347 14.7904 40.8352L15.7733 40.4414Z" stroke="currentcolor" stroke-width="3"/>
</svg>
