<svg width="1em" height="1em" viewBox="0 0 33 49" fill="none" xmlns="http://www.w3.org/2000/svg">
<path fill-rule="evenodd" clip-rule="evenodd" d="M31.745 27.446L16.6083 36.2503V47.5212L31.745 27.446ZM28.798 30.0589L16.9963 36.9234V45.711L28.798 30.0589Z" fill="currentcolor"/>
<path fill-rule="evenodd" clip-rule="evenodd" d="M1.46738 27.4467L1.46937 27.4493L1.46635 27.4476L16.6029 47.5226L16.6032 36.2505L1.46738 27.4467ZM4.40834 30.0591L16.2158 45.7188V36.9269L16.2108 36.924L4.40834 30.0591Z" fill="currentcolor"/>
<path d="M1.46582 25.1172L16.604 1.36035L16.6046 1.36129V18.3848L1.46582 25.1172ZM1.46582 25.1172L1.46985 25.116L16.6075 18.3853M1.46582 25.1172L1.47517 25.123L16.6075 33.733M16.6075 33.733V18.3853M16.6075 33.733L31.7401 25.1235L31.7488 25.1178L31.7452 25.1162M16.6075 18.3853L31.7447 25.1154L31.7452 25.1162M16.6075 18.3853L16.6083 1.36147L31.7452 25.1162M16.6075 18.3853L31.7472 25.1174L31.7452 25.1162M16.6083 36.2503L31.745 27.446L16.6083 47.5212V36.2503ZM16.9963 36.9234L28.798 30.0589L16.9963 45.711V36.9234ZM1.46738 27.4467L1.46937 27.4493L1.46635 27.4476L16.6029 47.5226L16.6032 36.2505L1.46738 27.4467ZM16.2158 45.7188L4.40834 30.0591L16.2108 36.924L16.2158 36.9269V45.7188ZM16.2143 3.43365V18.132L3.1447 23.9442L16.2143 3.43365ZM16.2187 32.6317L2.75441 24.9708L16.2187 18.9842V32.6317ZM30.4605 24.9708L16.9963 32.6317V18.9842L30.4605 24.9708ZM30.0659 23.9444L16.9963 18.1322V3.43383L30.0659 23.9444Z" stroke="currentcolor" stroke-linecap="round" stroke-linejoin="round"/>
</svg>
