<svg
  xmlns="http://www.w3.org/2000/svg"
  width="1em"
  height="1em"
  viewBox="0 0 101 153"
  fill="currentColor"
>
  <path
    fill-rule="evenodd"
    clip-rule="evenodd"
    d="M50.3522 107.07L98.2173 79.6525C100.197 78.5185 100.829 75.9608 99.6047 74.0355L53.7114 1.85385C52.1439 -0.611532 48.5481 -0.619415 46.9698 1.83907L0.634629 74.0151C-0.605229 75.9464 0.0307641 78.5227 2.02695 79.6551L50.3522 107.07ZM11.7944 75.9986L46.3522 95.6035V60.7135L11.7944 75.9986ZM54.3522 60.7376V95.5596L88.5109 75.993L54.3522 60.7376ZM84.723 65.5397L54.3522 51.976V17.7721L84.723 65.5397ZM46.3522 17.6096V51.9658L15.5501 65.5899L46.3522 17.6096ZM47.1423 151.311C48.7472 153.441 51.9472 153.433 53.5423 151.296L89.8937 102.592C92.5087 99.0888 88.4116 94.5304 84.6498 96.7582L50.3522 117.07L15.6159 96.6963C11.844 94.4839 7.76593 99.0617 10.3978 102.554L47.1423 151.311ZM28.8322 113.723L46.3522 136.97V123.999C46.3363 123.989 46.3205 123.98 46.3047 123.971L28.8322 113.723ZM54.3522 123.999V136.836L71.524 113.829L54.4288 123.954C54.4033 123.969 54.3778 123.984 54.3522 123.999Z"
  />
</svg>