<svg width="1em" height="1em" viewBox="0 0 24 24" fill="none" xmlns="http://www.w3.org/2000/svg">
<path d="M12 21.7501C11.9062 21.7501 11.7939 21.7316 11.7188 21.6749C6.84375 18.7877 3.9375 13.6876 3.9375 8.04407V5.21252C3.9375 4.96887 4.0874 4.76282 4.3125 4.68762L11.8125 1.91272C11.9438 1.87512 12.0752 1.87512 12.2061 1.91272L19.6875 4.68762C19.9126 4.76282 20.0625 4.98743 20.0625 5.21252V8.04407C20.0625 13.6876 17.1562 18.7877 12.2812 21.6749C12.2061 21.7316 12.0938 21.7501 12 21.7501ZM5.0625 5.60657V8.04407C5.0625 13.1813 7.6499 17.8126 12 20.5314C16.3501 17.8312 18.9375 13.1813 18.9375 8.04407V5.60657L12 3.03772L5.0625 5.60657Z" fill="currentColor"/>
<path d="M12.0011 19.0498C11.8888 19.0498 11.7575 19.0127 11.6637 18.9375C8.68228 16.7437 6.78872 13.5 6.30093 9.84375C6.26382 9.54395 6.46987 9.2627 6.78872 9.20605C7.08853 9.16895 7.36978 9.375 7.42593 9.69385C7.85757 12.8999 9.46987 15.75 12.0011 17.7563C14.9826 15.3936 16.6886 11.8687 16.6886 8.0249V7.1626L12.0011 5.4375L6.93862 7.3125C6.63882 7.4248 6.31997 7.2749 6.20718 6.9751C6.09487 6.6748 6.24478 6.35645 6.54507 6.24365L11.8136 4.3125C11.945 4.2749 12.0763 4.2749 12.2072 4.3125L17.4572 6.2627C17.6823 6.3374 17.8322 6.5625 17.8322 6.7876V8.04395C17.8322 12.3936 15.8449 16.3687 12.3576 18.9375C12.2448 19.0127 12.1134 19.0498 12.0011 19.0498Z" fill="currentColor"/>
<path d="M12 4.83765V18.4875C15.3188 16.0315 17.25 12.2253 17.25 8.04419V6.78784L12 4.83765Z" fill="currentColor"/>
</svg>
