<svg width="1em" height="1em" viewBox="0 0 24 24" fill="none" xmlns="http://www.w3.org/2000/svg">
<path d="M18.24 0.240234H5.76C2.5789 0.240234 0 2.81903 0 6.00024V18.0002C0 21.1813 2.5789 23.7602 5.76 23.7602H18.24C21.4212 23.7602 24 21.1813 24 18.0002V6.00024C24 2.81903 21.4212 0.240234 18.24 0.240234ZM19.0555 17.4064V17.9104C19.3423 17.8848 19.6013 18.1009 19.5994 18.3894V18.9582H14.4557V18.3894C14.4538 18.1009 14.7133 17.8847 15 17.9104V17.4064C15 17.1864 15.1525 17.0044 15.358 16.9484L15.3485 12.5839C15.1896 10.8473 13.7083 9.48604 11.905 9.48604C10.1012 9.48604 8.6204 10.8473 8.4615 12.5839L8.4519 16.9417C8.6795 16.9841 8.9837 17.15 8.9914 17.4065V17.9105C9.2777 17.8849 9.5371 18.101 9.5352 18.3895V18.9583H4.3915V18.3895C4.3896 18.101 4.649 17.8848 4.9353 17.9105V17.4065C4.9353 17.1536 5.1364 16.9517 5.3889 16.9341V9.03914H4.8984L4.2898 7.00824L6.9303 7.00774V5.04214H16.8798V7.00774H19.7017L19.0926 9.03914H18.6025V16.934C18.8544 16.9517 19.0555 17.1535 19.0555 17.4064Z" fill="currentColor"/>
</svg>
