<svg width="26" height="32" viewBox="0 0 26 32" fill="none" xmlns="http://www.w3.org/2000/svg">
  <path
    d="M0.644377 6.04297H3.2218C3.5761 6.04297 3.86618 6.33203 3.86618 6.6875L3.86618 18.2852C3.86618 18.5 3.76259 18.6875 3.6031 18.8047C3.4963 18.8828 3.36442 18.9297 3.2218 18.9297H0.644377C0.288763 18.9297 -1.90735e-06 18.6406 -1.90735e-06 18.2852L-1.90735e-06 6.6875C-1.90735e-06 6.33203 0.290037 6.04297 0.644377 6.04297Z"
    fill="currentColor" />
  <path
    d="M13.1654 6.04688C13.1654 6.04688 18.0243 6.02734 18.1281 6.04688C19.8457 6.33594 20.3371 8.66406 18.8671 9.60547C19.3661 10.4883 19.0748 11.6406 18.2228 12.1836C18.7217 13.0664 18.4303 14.2148 17.5784 14.7617C18.2931 16.0273 17.3434 17.6445 15.8943 17.6445H5.15497L5.15497 7.33203C5.15497 7.33203 8.26271 4.51953 9.26312 3.54297C9.83691 2.98437 10.2074 2.23828 10.3561 1.45312L10.3947 1.18359C10.4204 0.960937 10.446 0.738281 10.5624 0.539062C10.7056 0.296875 10.9458 0.117187 11.2191 0.046875C11.6956 -0.0703125 12.2867 0.0429688 12.7098 0.269531C14.0092 0.960938 14.3124 2.91406 13.8441 4.19531L13.1654 6.04688Z"
    fill="currentColor" />
  <path
    d="M7.87193 25.1172C7.97569 25.1368 12.8346 25.1172 12.8346 25.1172L12.1559 26.9688C11.6876 28.25 11.9908 30.2032 13.2902 30.8946C13.7132 31.1211 14.3044 31.2344 14.7809 31.1172C15.0542 31.0469 15.2944 30.8672 15.4376 30.625C15.5538 30.426 15.5795 30.2036 15.6052 29.9812L15.6439 29.711C15.7926 28.9258 16.1631 28.1797 16.7369 27.6211C17.7373 26.6446 20.845 23.8321 20.845 23.8321V13.5196H19.4396C19.3628 14.0799 19.1268 14.6156 18.7527 15.0516C19.1515 16.8035 17.8156 18.6447 15.8943 18.6447H7.6287C7.66657 18.7596 7.71594 18.8721 7.77724 18.9805C6.92525 19.5235 6.6339 20.6758 7.13287 21.5586C5.66286 22.5 6.15432 24.8282 7.87193 25.1172ZM22.7782 25.1211H25.3556C25.71 25.1211 26 24.8321 26 24.4766L26 12.879C26 12.5235 25.7112 12.2344 25.3556 12.2344H22.7782C22.6356 12.2344 22.5037 12.2813 22.3969 12.3594C22.2374 12.4766 22.1338 12.6641 22.1338 12.879L22.1338 24.4766C22.1338 24.8321 22.4239 25.1211 22.7782 25.1211Z"
    fill-rule="evenodd" clip-rule="evenodd" fill="currentColor" />
</svg>