<svg width="1em" height="1em" viewBox="0 0 24 24" fill="none" xmlns="http://www.w3.org/2000/svg">
<path d="M18 12C18 15.3138 15.3138 18 12 18C8.6862 18 6 15.3138 6 12C6 8.6862 8.6862 6 12 6C15.3138 6 18 8.6862 18 12Z" fill="currentColor"/>
<path d="M12 1.5C9.20009 1.5 6.56684 2.59983 4.58333 4.58333C4.38325 4.78342 4.38325 5.09983 4.58333 5.28342C4.78342 5.48351 5.09983 5.48351 5.28342 5.28342C7.08333 3.48351 9.46658 2.5 12 2.5C17.2335 2.5 21.5 6.76649 21.5 12C21.5 17.2335 17.2335 21.5 12 21.5C9.33333 21.5 6.86675 20.4167 5.06684 18.5H7C7.28342 18.5 7.5 18.2834 7.5 18C7.5 17.7166 7.28342 17.5 7 17.5H4C3.71658 17.5 3.5 17.7166 3.5 18V21C3.5 21.2834 3.71658 21.5 4 21.5C4.28342 21.5 4.5 21.2834 4.5 21V19.3498C6.46658 21.3668 9.13325 22.5 12 22.5C17.7834 22.5 22.5 17.7834 22.5 12C22.5 6.21658 17.7834 1.5 12 1.5Z" fill="currentColor"/>
<path d="M2.56659 15.8335C2.36651 15.8335 2.16642 15.7002 2.09958 15.5001C1.89993 14.9502 1.74975 14.3834 1.64993 13.8C1.59958 13.5335 1.78317 13.2666 2.04967 13.2167C2.31659 13.1668 2.58309 13.35 2.633 13.6169C2.71633 14.1334 2.84958 14.6503 3.03317 15.1503C3.133 15.4168 2.98326 15.7002 2.73326 15.7835C2.68291 15.817 2.61651 15.8335 2.56659 15.8335Z" fill="currentColor"/>
<path d="M2.10013 11.0832C2.08363 11.0832 2.05021 11.0832 2.03372 11.0832C1.76679 11.0498 1.56714 10.7833 1.61706 10.5164C1.76679 9.41652 2.10013 8.36661 2.58363 7.36661C2.70039 7.11661 3.0003 7.01635 3.2503 7.1331C3.5003 7.24986 3.60013 7.54977 3.48381 7.79977C3.03372 8.69994 2.73381 9.66652 2.60013 10.65C2.56714 10.9 2.35013 11.0832 2.10013 11.0832Z" fill="currentColor"/>
</svg>
