<svg width="1em" height="1em" viewBox="0 0 28 28" fill="none" xmlns="http://www.w3.org/2000/svg">
<path d="M14 4.80909L12.7457 3.51983C9.79808 0.490117 4.39976 1.53597 2.45063 5.34247C1.6061 6.99177 1.36467 9.31489 2.63945 12.25H0.752925C-2.97154 2.27999 8.04038 -3.20214 13.6926 2.00039C13.7969 2.09644 13.8994 2.19614 14 2.29951C14.1006 2.19614 14.2031 2.09645 14.3074 2.00041C19.9596 -3.20215 30.9715 2.27998 27.2471 12.25H25.3605C26.6353 9.31489 26.3939 6.99177 25.5494 5.34247C23.6002 1.53597 18.2019 0.490117 15.2543 3.51983L14 4.80909Z" fill="currentColor"/>
<path d="M3.87111 17.5H6.17214C8.03785 19.5707 10.5898 21.8013 14 24.1405C17.4102 21.8013 19.9622 19.5707 21.8279 17.5H24.1289C21.9146 20.2413 18.6346 23.1876 14 26.25C9.36544 23.1876 6.08536 20.2413 3.87111 17.5Z" fill="currentColor"/>
<path d="M18.3124 5.80003C18.1735 5.45263 17.829 5.23203 17.4553 5.25114C17.0816 5.27026 16.7615 5.52485 16.6587 5.88462L13.8618 15.6736L11.3124 9.30003C11.1917 8.99833 10.9138 8.78836 10.5906 8.7547C10.2674 8.72105 9.9522 8.86927 9.77196 9.13964L6.53171 14H0.875C0.391751 14 0 14.3918 0 14.875C0 15.3582 0.391751 15.75 0.875 15.75H7C7.29256 15.75 7.56576 15.6038 7.72804 15.3604L10.3054 11.4944L13.1876 18.7C13.3265 19.0474 13.671 19.268 14.0447 19.2489C14.4184 19.2297 14.7385 18.9751 14.8413 18.6154L17.6382 8.82644L20.1876 15.2C20.3205 15.5322 20.6422 15.75 21 15.75H27.125C27.6082 15.75 28 15.3582 28 14.875C28 14.3918 27.6082 14 27.125 14H21.5924L18.3124 5.80003Z" fill="currentColor"/>
</svg>
