<svg width="1em" height="1em" viewBox="0 0 51 36" fill="currentcolor" xmlns="http://www.w3.org/2000/svg">
<path d="M20.9142 15.7847L22.4273 14.946L16.4956 11.3819L22.5481 8.02694L21.0652 7.13592L13.4996 11.3296L20.9142 15.7847Z" />
<path d="M29.8117 21.1309L31.3248 20.2921L25.3932 16.728L26.9063 15.8893L32.8379 19.4534L37.3773 16.9372L29.9627 12.4821L28.4496 13.3208L34.3812 16.8849L32.8681 17.7236L26.9365 14.1595L22.3971 16.6757L29.8117 21.1309Z" />
<path fill-rule="evenodd" clip-rule="evenodd" d="M24.2654 1.21246C24.9331 0.826967 26.0157 0.826965 26.6834 1.21246L48.4693 13.7906C49.137 14.1761 49.137 14.8011 48.4693 15.1866L26.6834 27.7647C26.0157 28.1502 24.9331 28.1502 24.2654 27.7647L2.47949 15.1866C1.8118 14.8011 1.81179 14.1761 2.47949 13.7906L24.2654 1.21246ZM25.4744 2.86574L5.34306 14.4886L25.4744 26.1114L45.6057 14.4886L25.4744 2.86574Z" />
<path d="M46.1152 17.7202L49.6143 19.7404C50.9144 20.491 50.9144 21.708 49.6143 22.4586L27.8284 35.0367C26.5283 35.7873 24.4204 35.7873 23.1204 35.0367L1.33444 22.4586C0.034355 21.708 0.0343508 20.491 1.33444 19.7404L4.83346 17.7202L9.15981 20.2181L7.63313 21.0995L25.4744 31.4001L43.3156 21.0995L41.7888 20.218L46.1152 17.7202Z" />
</svg>
