<svg width="1em" height="1em" viewBox="0 0 53 38" fill="none" xmlns="http://www.w3.org/2000/svg">
<path d="M27.4564 0.564318C26.9777 0.341842 26.4032 0.341842 25.9245 0.564318L1.51012 11.9106C0.979738 12.1571 0.648438 12.6383 0.648438 13.1621C0.648438 13.6858 0.979738 14.167 1.51012 14.4135L11.0245 18.8352L1.51012 23.2569C0.979738 23.5034 0.648438 23.9846 0.648438 24.5084C0.648438 25.0321 0.979738 25.5133 1.51012 25.7598L25.9245 37.1061C26.4032 37.3286 26.9777 37.3286 27.4564 37.1061L51.8707 25.7598C52.4011 25.5133 52.7324 25.0321 52.7324 24.5084C52.7324 23.9846 52.4011 23.5034 51.8707 23.2569L42.3563 18.8352L51.8707 14.4135C52.4011 14.167 52.7324 13.6858 52.7324 13.1621C52.7324 12.6383 52.4011 12.1571 51.8707 11.9106L27.4564 0.564318ZM38.8976 20.4426L47.6461 24.5084L26.6904 34.2473L5.73476 24.5084L14.4832 20.4426L25.9245 25.7598C26.4032 25.9823 26.9777 25.9823 27.4564 25.7598L38.8976 20.4426ZM26.6904 22.901L5.73476 13.1621L26.6904 3.42314L47.6461 13.1621L26.6904 22.901Z" fill="currentcolor"/>
</svg>
