<svg width="1em" height="1em" viewBox="0 0 35 53" fill="none" xmlns="http://www.w3.org/2000/svg">
<path d="M6.13379 12.6543C6.13379 12.102 6.5815 11.6543 7.13379 11.6543H10.0074C10.5597 11.6543 11.0074 12.102 11.0074 12.6543V15.5279C11.0074 16.0802 10.5597 16.5279 10.0074 16.5279H7.13379C6.5815 16.5279 6.13379 16.0802 6.13379 15.5279V12.6543Z" fill="currentcolor"/>
<path d="M6.13379 19.0034C6.13379 18.4511 6.5815 18.0034 7.13379 18.0034H10.0074C10.5597 18.0034 11.0074 18.4511 11.0074 19.0034V21.8771C11.0074 22.4294 10.5597 22.8771 10.0074 22.8771H7.13379C6.5815 22.8771 6.13379 22.4294 6.13379 21.8771V19.0034Z" fill="currentcolor"/>
<path d="M12.4824 12.6543C12.4824 12.102 12.9301 11.6543 13.4824 11.6543H16.3561C16.9084 11.6543 17.3561 12.102 17.3561 12.6543V15.5279C17.3561 16.0802 16.9084 16.5279 16.3561 16.5279H13.4824C12.9301 16.5279 12.4824 16.0802 12.4824 15.5279V12.6543Z" fill="currentcolor"/>
<path d="M12.4824 19.0034C12.4824 18.4511 12.9301 18.0034 13.4824 18.0034H16.3561C16.9084 18.0034 17.3561 18.4511 17.3561 19.0034V21.8771C17.3561 22.4294 16.9084 22.8771 16.3561 22.8771H13.4824C12.9301 22.8771 12.4824 22.4294 12.4824 21.8771V19.0034Z" fill="currentcolor"/>
<path d="M18.8311 12.6543C18.8311 12.102 19.2788 11.6543 19.8311 11.6543H22.7047C23.257 11.6543 23.7047 12.102 23.7047 12.6543V15.5279C23.7047 16.0802 23.257 16.5279 22.7047 16.5279H19.8311C19.2788 16.5279 18.8311 16.0802 18.8311 15.5279V12.6543Z" fill="currentcolor"/>
<path d="M25.1787 12.6543C25.1787 12.102 25.6264 11.6543 26.1787 11.6543H29.0524C29.6046 11.6543 30.0524 12.102 30.0524 12.6543V15.5279C30.0524 16.0802 29.6046 16.5279 29.0524 16.5279H26.1787C25.6264 16.5279 25.1787 16.0802 25.1787 15.5279V12.6543Z" fill="currentcolor"/>
<path fill-rule="evenodd" clip-rule="evenodd" d="M3.95605 3.58398V49.4155H31.9113V3.58398H3.95605ZM2.95605 0.583984C1.85149 0.583984 0.956055 1.47942 0.956055 2.58399V50.4155C0.956055 51.5201 1.85149 52.4155 2.95606 52.4155H32.9113C34.0158 52.4155 34.9113 51.5201 34.9113 50.4155V2.58398C34.9113 1.47941 34.0158 0.583984 32.9113 0.583984H2.95605Z" fill="currentcolor"/>
<path fill-rule="evenodd" clip-rule="evenodd" d="M11.3301 46.2676C11.3301 45.9914 11.5539 45.7676 11.8301 45.7676H23.7051C23.9812 45.7676 24.2051 45.9914 24.2051 46.2676C24.2051 46.5437 23.9812 46.7676 23.7051 46.7676H11.8301C11.5539 46.7676 11.3301 46.5437 11.3301 46.2676Z" fill="currentcolor"/>
</svg>