<svg width="1em" height="1em" viewBox="0 0 28 27" fill="none" xmlns="http://www.w3.org/2000/svg">
<path fill-rule="evenodd" clip-rule="evenodd" d="M8.55465 4.25365L7.24975 8.92437C7.209 9.07021 7.18661 9.21589 7.18094 9.35926C4.3236 9.79799 2.46875 10.5056 2.46875 11.3039C2.46875 12.6353 7.6284 13.7146 13.9931 13.7146C20.3579 13.7146 25.5175 12.6353 25.5175 11.3039C25.5175 10.5057 23.663 9.79811 20.8061 9.35938C20.8004 9.21596 20.778 9.07025 20.7372 8.92437L19.4323 4.25365C19.1555 3.2629 18.1318 2.67902 17.1232 2.88113C16.1457 3.07699 14.9473 3.26818 13.9935 3.26818C13.0397 3.26818 11.8413 3.07699 10.8638 2.88113C9.85517 2.67902 8.83145 3.2629 8.55465 4.25365ZM8.59409 10.2288C8.61969 9.97123 8.84928 9.78315 9.1069 9.80874C10.5873 9.95585 12.2463 10.0384 13.9996 10.0384C15.7528 10.0384 17.4119 9.95585 18.8922 9.80874C19.1499 9.78315 19.3794 9.97123 19.405 10.2288C19.4306 10.4865 19.2426 10.7161 18.9849 10.7417C17.4714 10.892 15.7813 10.9759 13.9996 10.9759C12.2178 10.9759 10.5277 10.8921 9.01419 10.7417C8.75658 10.7161 8.56849 10.4865 8.59409 10.2288ZM6.8026 17.1966H9.67716C10.121 17.1966 10.4807 17.5564 10.4807 18.0002V19.2414C10.4807 20.479 9.47747 21.4823 8.23988 21.4823C7.00229 21.4823 5.99902 20.479 5.99902 19.2414V18.0002C5.99902 17.5564 6.35879 17.1966 6.8026 17.1966ZM4.12402 18.0002C4.12402 17.6703 4.18363 17.3545 4.29266 17.0627H4.12402C3.60626 17.0627 3.18652 16.643 3.18652 16.1252C3.18652 15.6074 3.60626 15.1877 4.12402 15.1877H6.59354C6.77025 15.1877 6.93555 15.2366 7.07664 15.3216H9.67716C10.9212 15.3216 11.9672 16.1697 12.2684 17.3193C13.4045 17.0074 14.6037 17.0072 15.7399 17.3185C16.0414 16.1693 17.0871 15.3216 18.3309 15.3216H20.9261C21.0672 15.2366 21.2325 15.1877 21.4092 15.1877H23.8787C24.3965 15.1877 24.8162 15.6074 24.8162 16.1252C24.8162 16.643 24.3965 17.0627 23.8787 17.0627H23.7154C23.8244 17.3545 23.8841 17.6704 23.8841 18.0002V19.2414C23.8841 21.5146 22.0413 23.3573 19.7682 23.3573C17.4993 23.3573 15.6592 21.5214 15.6524 19.2541L15.4561 19.1903C14.5135 18.8835 13.4978 18.8835 12.5552 19.1903L12.3557 19.2552C12.3483 21.522 10.5084 23.3573 8.23988 23.3573C5.96675 23.3573 4.12402 21.5146 4.12402 19.2414V18.0002ZM21.2055 17.1966H18.3309C17.8871 17.1966 17.5273 17.5564 17.5273 18.0002V19.2414C17.5273 20.479 18.5306 21.4823 19.7682 21.4823C21.0058 21.4823 22.0091 20.479 22.0091 19.2414V18.0002C22.0091 17.5564 21.6493 17.1966 21.2055 17.1966Z" fill="currentColor"/>
</svg>
