<svg width="1em" height="1em" viewBox="0 0 24 24" fill="none" xmlns="http://www.w3.org/2000/svg">
<path d="M17.4844 6.49687C16.3031 6.49687 15.3141 5.67656 15.0516 4.575C13.6172 4.77656 12.5109 6.01406 12.5109 7.5V7.50937C14.7328 7.59375 16.7578 8.21719 18.3656 9.21094C18.9562 8.75625 19.6969 8.48437 20.4984 8.48437C22.4344 8.48437 24 10.05 24 11.9859C24 13.3828 23.1844 14.5875 21.9984 15.15C21.8859 19.2187 17.4516 22.4906 12.0047 22.4906C6.55781 22.4906 2.13281 19.2234 2.01562 15.1594C0.825 14.6016 0 13.3922 0 11.9859C0 10.05 1.56562 8.48437 3.50156 8.48437C4.30781 8.48437 5.04844 8.75625 5.64375 9.21562C7.2375 8.22656 9.24375 7.60312 11.4422 7.50937V7.49531C11.4422 5.41875 13.0219 3.70312 15.0422 3.4875C15.2719 2.35312 16.275 1.5 17.4844 1.5C18.8625 1.5 19.9828 2.62031 19.9828 3.99844C19.9828 5.37656 18.8625 6.49687 17.4844 6.49687ZM7.38281 11.9672C6.40313 11.9672 5.55938 12.9422 5.49844 14.2125C5.4375 15.4828 6.3 15.9984 7.27969 15.9984C8.25938 15.9984 8.99531 15.5391 9.05156 14.2687C9.10781 12.9984 8.3625 11.9672 7.37812 11.9672H7.38281ZM18.5156 14.2078C18.4594 12.9375 17.6156 11.9625 16.6312 11.9625C15.6469 11.9625 14.9016 12.9937 14.9578 14.2641C15.0141 15.5344 15.75 15.9937 16.7297 15.9937C17.7094 15.9937 18.5719 15.4781 18.5109 14.2078H18.5156ZM15.6984 17.5266C15.7687 17.3578 15.6516 17.1656 15.4688 17.1469C14.3906 17.0391 13.2234 16.9781 12.0094 16.9781C10.7953 16.9781 9.62812 17.0391 8.55 17.1469C8.36719 17.1656 8.25 17.3578 8.32031 17.5266C8.925 18.9703 10.35 19.9828 12.0094 19.9828C13.6688 19.9828 15.0937 18.9703 15.6984 17.5266Z" fill="currentColor"/>
</svg>
