<svg width="1em" height="1em" viewBox="0 0 34 37" fill="none" xmlns="http://www.w3.org/2000/svg">
<path d="M14.2753 3.04564V8.9924H2.77635C1.50621 8.9924 0.476562 10.0221 0.476562 11.2922V20.4913C0.476562 21.7615 1.50621 22.7911 2.77635 22.7911H14.2753V36.5899H18.8749V22.7911H26.9969C27.6794 22.7911 28.3267 22.488 28.7636 21.9636L33.21 16.6279C33.5654 16.2015 33.5654 15.5821 33.21 15.1556L28.7636 9.8199C28.3267 9.29557 27.6794 8.9924 26.9969 8.9924H18.8749V3.04564C18.8749 2.4357 18.6326 1.85074 18.2013 1.41944C17.3032 0.521319 15.847 0.521319 14.9489 1.41944C14.5176 1.85074 14.2753 2.4357 14.2753 3.04564ZM26.9969 11.2922L30.8298 15.8918L26.9969 20.4913H2.77635L2.77635 11.2922H26.9969Z" fill="currentcolor"/>
</svg>
