<svg width="1em" height="1em" viewBox="0 0 24 24" fill="none" xmlns="http://www.w3.org/2000/svg">
<path fill-rule="evenodd" clip-rule="evenodd" d="M17.25 2.99985C16.9545 2.99985 16.6619 3.05805 16.389 3.17112C16.116 3.2842 15.8679 3.44993 15.659 3.65886C15.4501 3.86779 15.2843 4.11583 15.1713 4.38882C15.0582 4.6618 15 4.95438 15 5.24985C15 5.54533 15.0582 5.83791 15.1713 6.11089C15.2843 6.38387 15.4501 6.63191 15.659 6.84084C15.8679 7.04978 16.116 7.21551 16.389 7.32858C16.6619 7.44166 16.9545 7.49985 17.25 7.49985C17.8467 7.49985 18.419 7.2628 18.841 6.84084C19.2629 6.41889 19.5 5.84659 19.5 5.24985C19.5 4.65312 19.2629 4.08082 18.841 3.65886C18.419 3.23691 17.8467 2.99985 17.25 2.99985ZM13.575 4.49985C13.7471 3.65214 14.207 2.89 14.8768 2.34257C15.5466 1.79514 16.385 1.49609 17.25 1.49609C18.115 1.49609 18.9534 1.79514 19.6232 2.34257C20.293 2.89 20.7529 3.65214 20.925 4.49985H23.25C23.6642 4.49985 24 4.83564 24 5.24985V5.24985C24 5.66407 23.6642 5.99985 23.25 5.99985H20.925C20.7529 6.84757 20.293 7.60971 19.6232 8.15714C18.9534 8.70456 18.115 9.00361 17.25 9.00361C16.385 9.00361 15.5466 8.70456 14.8768 8.15714C14.207 7.60971 13.7471 6.84757 13.575 5.99985H0.749999C0.335786 5.99985 0 5.66407 0 5.24985V5.24985C0 4.83564 0.335786 4.49985 0.75 4.49985H13.575ZM6.75 10.4999C6.15326 10.4999 5.58097 10.7369 5.15901 11.1589C4.73705 11.5808 4.5 12.1531 4.5 12.7499C4.5 13.3466 4.73705 13.9189 5.15901 14.3408C5.58097 14.7628 6.15326 14.9999 6.75 14.9999C7.34674 14.9999 7.91903 14.7628 8.34099 14.3408C8.76295 13.9189 9 13.3466 9 12.7499C9 12.1531 8.76295 11.5808 8.34099 11.1589C7.91903 10.7369 7.34674 10.4999 6.75 10.4999ZM3.075 11.9999C3.24714 11.1521 3.70705 10.39 4.37681 9.84257C5.04657 9.29514 5.88498 8.99609 6.75 8.99609C7.61502 8.99609 8.45343 9.29514 9.12319 9.84257C9.79295 10.39 10.2529 11.1521 10.425 11.9999H23.25C23.6642 11.9999 24 12.3356 24 12.7499V12.7499C24 13.1641 23.6642 13.4999 23.25 13.4999H10.425C10.2529 14.3476 9.79295 15.1097 9.12319 15.6571C8.45343 16.2046 7.61502 16.5036 6.75 16.5036C5.88498 16.5036 5.04657 16.2046 4.37681 15.6571C3.70705 15.1097 3.24714 14.3476 3.075 13.4999H0.750001C0.335787 13.4999 0 13.1641 0 12.7499V12.7499C0 12.3356 0.335786 11.9999 0.75 11.9999H3.075ZM17.25 17.9999C16.6533 17.9999 16.081 18.2369 15.659 18.6589C15.2371 19.0808 15 19.6531 15 20.2499C15 20.8466 15.2371 21.4189 15.659 21.8408C16.081 22.2628 16.6533 22.4999 17.25 22.4999C17.8467 22.4999 18.419 22.2628 18.841 21.8408C19.2629 21.4189 19.5 20.8466 19.5 20.2499C19.5 19.6531 19.2629 19.0808 18.841 18.6589C18.419 18.2369 17.8467 17.9999 17.25 17.9999ZM13.575 19.4999C13.7471 18.6521 14.207 17.89 14.8768 17.3426C15.5466 16.7951 16.385 16.4961 17.25 16.4961C18.115 16.4961 18.9534 16.7951 19.6232 17.3426C20.293 17.89 20.7529 18.6521 20.925 19.4999H23.25C23.6642 19.4999 24 19.8356 24 20.2499V20.2499C24 20.6641 23.6642 20.9999 23.25 20.9999H20.925C20.7529 21.8476 20.293 22.6097 19.6232 23.1571C18.9534 23.7046 18.115 24.0036 17.25 24.0036C16.385 24.0036 15.5466 23.7046 14.8768 23.1571C14.207 22.6097 13.7471 21.8476 13.575 20.9999H0.749999C0.335786 20.9999 0 20.6641 0 20.2499V20.2499C0 19.8356 0.335786 19.4999 0.75 19.4999H13.575Z" fill="currentColor"/>
</svg>
