<svg width="1em" height="1em" viewBox="0 0 32 32" fill="none" xmlns="http://www.w3.org/2000/svg">
<path d="M16.4706 4.10407C16.1765 3.96531 15.8235 3.96531 15.5294 4.10407L0.529412 11.181C0.203548 11.3347 0 11.6348 0 11.9615C0 12.2882 0.203548 12.5883 0.529412 12.7421L6.375 15.5L0.529412 18.2579C0.203548 18.4117 0 18.7118 0 19.0385C0 19.3652 0.203548 19.6653 0.529412 19.819L15.5294 26.8959C15.8235 27.0347 16.1765 27.0347 16.4706 26.8959L31.4706 19.819C31.7965 19.6653 32 19.3652 32 19.0385C32 18.7118 31.7965 18.4117 31.4706 18.2579L25.625 15.5L31.4706 12.7421C31.7965 12.5883 32 12.2882 32 11.9615C32 11.6348 31.7965 11.3347 31.4706 11.181L16.4706 4.10407ZM23.5 16.5026L28.875 19.0385L16 25.1128L3.125 19.0385L8.5 16.5026L15.5294 19.819C15.8235 19.9578 16.1765 19.9578 16.4706 19.819L23.5 16.5026ZM16 18.0359L3.125 11.9615L16 5.88718L28.875 11.9615L16 18.0359Z" fill="currentcolor"/>
</svg>
