<svg width="1em" height="1em" viewBox="0 0 32 32" fill="none" xmlns="http://www.w3.org/2000/svg">
<path d="M27.6129 4.8725C27.6129 4.8725 30.2031 3.8625 29.9872 6.31536C29.9153 7.32537 29.2677 10.8604 28.7641 14.684L27.0373 26.0104C27.0373 26.0104 26.8934 27.6697 25.5983 27.9583C24.3031 28.2468 22.3605 26.9483 22.0007 26.6597C21.7129 26.4433 16.6045 23.1968 14.8057 21.6097C14.3021 21.1768 13.7265 20.3111 14.8777 19.3011L22.4325 12.0868C23.2959 11.2211 24.1593 9.2011 20.5617 11.654L10.4887 18.5076C10.4887 18.5076 9.33753 19.229 7.17907 18.5797L2.50228 17.1368C2.50228 17.1368 0.775474 16.0547 3.72543 14.9725C10.9205 11.5818 19.7703 8.1189 27.6129 4.8725Z" fill="currentcolor"/>
</svg>
