<svg width="1em" height="1em" viewBox="0 0 24 24" fill="none" xmlns="http://www.w3.org/2000/svg">
<path d="M23.489 18.5484L17.9999 13.0594C16.9171 11.9766 15.2999 11.7656 13.9968 12.4078L8.9999 7.41094V4.5L2.9999 0L-9.7692e-05 3L4.4999 9H7.41084L12.4077 13.9969C11.7702 15.3 11.9765 16.9172 13.0593 18L18.5483 23.4891C19.2327 24.1734 20.339 24.1734 21.0187 23.4891L23.489 21.0187C24.1687 20.3344 24.1687 19.2281 23.489 18.5484ZM15.5483 10.5469C16.8749 10.5469 18.1218 11.0625 19.0593 12L19.9687 12.9094C20.7093 12.5859 21.4124 12.1359 22.0218 11.5266C23.7608 9.7875 24.3515 7.34062 23.7983 5.11875C23.6952 4.69687 23.1655 4.55156 22.8562 4.86094L19.3687 8.34844L16.1858 7.81875L15.6562 4.63594L19.1437 1.14844C19.453 0.839063 19.303 0.309375 18.8765 0.201563C16.6546 -0.346875 14.2077 0.24375 12.4733 1.97813C11.1374 3.31406 10.5093 5.07656 10.5421 6.83438L14.3905 10.6828C14.7702 10.5937 15.164 10.5469 15.5483 10.5469ZM10.678 14.3906L8.02022 11.7328L0.876465 18.8812C-0.29541 20.0531 -0.29541 21.9516 0.876465 23.1234C2.04834 24.2953 3.94678 24.2953 5.11865 23.1234L10.9124 17.3297C10.5562 16.3969 10.4483 15.3797 10.678 14.3906ZM2.9999 22.125C2.38115 22.125 1.8749 21.6187 1.8749 21C1.8749 20.3766 2.37646 19.875 2.9999 19.875C3.62334 19.875 4.1249 20.3766 4.1249 21C4.1249 21.6187 3.62334 22.125 2.9999 22.125Z" fill="currentColor"/>
</svg>
