<svg width="1em" height="1em" viewBox="0 0 256 256" fill="currentColor" xmlns="http://www.w3.org/2000/svg">
<path d="M28.4,124.8a6,6,0,0,0,8.4-1.2,54,54,0,0,1,86.4,0,6,6,0,0,0,8.4,1.19,5.59,5.59,0,0,0,1.19-1.19h0a54,54,0,0,1,86.4,0,6,6,0,0,0,9.6-7.21,65.74,65.74,0,0,0-29.69-22.26,38,38,0,1,0-46.22,0A65.32,65.32,0,0,0,128,110.7a65.32,65.32,0,0,0-24.89-16.57,38,38,0,1,0-46.22,0A65.69,65.69,0,0,0,27.2,116.4,6,6,0,0,0,28.4,124.8ZM176,38a26,26,0,1,1-26,26A26,26,0,0,1,176,38ZM80,38A26,26,0,1,1,54,64,26,26,0,0,1,80,38ZM199.11,198.13a38,38,0,1,0-46.22,0A65.32,65.32,0,0,0,128,214.7a65.32,65.32,0,0,0-24.89-16.57,38,38,0,1,0-46.22,0A65.69,65.69,0,0,0,27.2,220.4a6,6,0,1,0,9.6,7.2,54,54,0,0,1,86.4,0,6,6,0,0,0,8.4,1.19,5.59,5.59,0,0,0,1.19-1.19h0a54,54,0,0,1,86.4,0,6,6,0,0,0,9.6-7.21A65.74,65.74,0,0,0,199.11,198.13ZM80,142a26,26,0,1,1-26,26A26,26,0,0,1,80,142Zm96,0a26,26,0,1,1-26,26A26,26,0,0,1,176,142Z"/>
</svg>
