<svg width="1em" height="1em" viewBox="0 0 24 24" fill="none" xmlns="http://www.w3.org/2000/svg">
<path d="M22.9024 6.50346C22.6407 5.51804 21.8696 4.74196 20.8906 4.47858C19.116 4 12.0001 4 12.0001 4C12.0001 4 4.88427 4 3.10965 4.47858C2.13061 4.742 1.35952 5.51804 1.09781 6.50346C0.622314 8.28958 0.622314 12.0162 0.622314 12.0162C0.622314 12.0162 0.622314 15.7428 1.09781 17.5289C1.35952 18.5143 2.13061 19.258 3.10965 19.5214C4.88427 20 12.0001 20 12.0001 20C12.0001 20 19.1159 20 20.8906 19.5214C21.8696 19.258 22.6407 18.5143 22.9024 17.5289C23.3779 15.7428 23.3779 12.0162 23.3779 12.0162C23.3779 12.0162 23.3779 8.28958 22.9024 6.50346ZM9.67281 15.3996V8.63271L15.6203 12.0163L9.67281 15.3996Z" fill="currentColor"/>
</svg>
