<?xml version="1.0" encoding="utf-8"?>
<!-- Generator: Adobe Illustrator 18.1.1, SVG Export Plug-In . SVG Version: 6.00 Build 0)  -->
<svg version="1.1" id="Layer_1" xmlns="http://www.w3.org/2000/svg" xmlns:xlink="http://www.w3.org/1999/xlink" x="0px" y="0px"
	 viewBox="0 0 1920 1080" enable-background="new 0 0 1920 1080" xml:space="preserve">
<g>
	<path fill="#3B3B3B" d="M566.6,822.1c0,2.1-1.8,3.8-3.9,3.8h-74.9c1.9,18.5,15.8,35.4,35.4,35.4c13.4,0,23.3-5.1,30.8-15.8
		c1.1-1.5,2.7-2.4,4.8-1.5c1.1,0.5,1.9,1.5,2.1,2.7c0.2,1.2-0.1,1.9-0.5,2.6c-7.5,13.1-22.5,19.6-37.3,19.6
		c-25.2,0-43.2-22.5-43.2-46.7c0-24.1,18-46.7,43.2-46.7C548.4,775.5,566.6,798,566.6,822.1z M558.6,818.4
		c-1.6-18.5-15.8-35.4-35.4-35.4s-33.5,16.9-35.4,35.4H558.6z"/>
	<path fill="#3B3B3B" d="M657.5,777.4c2.1,0,3.8,1.9,3.8,3.8c0,2.1-1.6,3.8-3.8,3.8h-20.1v78.8c0,1.9-1.6,3.8-3.8,3.8
		c-2.1,0-3.8-1.9-3.8-3.8v-78.8h-19.3c-2.1,0-3.8-1.6-3.8-3.8c0-1.9,1.6-3.8,3.8-3.8h19.3v-28.9c0-1.8,1.2-3.5,3-3.8
		c2.5-0.4,4.5,1.3,4.5,3.7v29H657.5z"/>
	<path fill="#3B3B3B" d="M780.1,815.5v47.7c0,2.1-1.9,3.8-3.8,3.8c-2.1,0-3.8-1.6-3.8-3.8v-47.7c0-16.1-9.1-32.2-27.1-32.2
		c-23.1,0-33,20.1-31.6,40.8c0,0.5,0.3,2.9,0.3,3.2v35.8c0,1.8-1.2,3.5-3,3.8c-2.5,0.4-4.5-1.3-4.5-3.7V706.3c0-1.9,1.6-3.8,3.8-3.8
		c2.1,0,3.8,1.9,3.8,3.8v88.8c6.4-11.5,18-19.3,31.4-19.3C767.5,775.8,780.1,795.1,780.1,815.5z"/>
	<path fill="#3B3B3B" d="M914.4,822.1c0,2.1-1.8,3.8-3.9,3.8h-74.9c1.9,18.5,15.8,35.4,35.4,35.4c13.4,0,23.3-5.1,30.8-15.8
		c1.1-1.5,2.7-2.4,4.8-1.5c1.1,0.5,1.9,1.5,2.1,2.7c0.2,1.2-0.1,1.9-0.5,2.6c-7.5,13.1-22.5,19.6-37.3,19.6
		c-25.2,0-43.2-22.5-43.2-46.7c0-24.1,18-46.7,43.2-46.7C896.2,775.5,914.4,798,914.4,822.1z M906.4,818.4
		c-1.6-18.5-15.8-35.4-35.4-35.4s-33.5,16.9-35.4,35.4H906.4z"/>
	<path fill="#3B3B3B" d="M1006.4,780.9c0,2.4-1.3,3.8-3.5,4c-22,3.2-31.9,21.2-31.9,42.1v35.8c0,1.8-1.2,3.5-3,3.8
		c-2.5,0.4-4.5-1.3-4.5-3.7v-81.7c0-1.8,1.2-3.5,3-3.8c2.5-0.4,4.5,1.3,4.5,3.7v16.6c6.2-10.5,18.5-20.4,31.4-20.4
		C1004.2,777.4,1006.4,778.7,1006.4,780.9z"/>
	<path fill="#3B3B3B" d="M1129.5,822.1c0,2.1-1.8,3.8-3.9,3.8h-74.9c1.9,18.5,15.8,35.4,35.4,35.4c13.4,0,23.3-5.1,30.8-15.8
		c1.1-1.5,2.7-2.4,4.8-1.5c1.1,0.5,1.9,1.5,2.1,2.7c0.2,1.2-0.1,1.9-0.5,2.6c-7.5,13.1-22.5,19.6-37.3,19.6
		c-25.2,0-43.2-22.5-43.2-46.7c0-24.1,18-46.7,43.2-46.7C1111.2,775.5,1129.4,798,1129.5,822.1z M1121.4,818.4
		c-1.6-18.5-15.8-35.4-35.4-35.4s-33.5,16.9-35.4,35.4H1121.4z"/>
	<path fill="#3B3B3B" d="M1250.4,781.8v25.9v56c0,2.1-1.9,3.8-3.8,3.8c-2.1,0-3.8-1.6-3.8-3.8v-15.6c-6.2,12.3-17.2,21.2-31.1,21.2
		c-22.3,0-34.6-19.3-34.6-39.7v-48c0-1.9,1.6-3.8,3.8-3.8s3.8,1.9,3.8,3.8v48c0,16.1,9.1,32.2,27.1,32.2c25.2,0,31.1-23.6,31.1-49.6
		v-30.6c0-2.2,2.2-4.4,4.8-3.6C1249.4,778.5,1250.4,780.1,1250.4,781.8z"/>
	<path fill="#3B3B3B" d="M1440,815.2v48c0,2.1-1.9,3.8-3.8,3.8c-2.1,0-3.8-1.6-3.8-3.8v-48c0-16.1-9.1-31.9-27.1-31.9
		c-22.5,0-31.1,24.1-31.1,42.9v37c0,2.1-1.9,3.8-3.8,3.8c-2.1,0-3.8-1.6-3.8-3.8v-48c0-16.1-9.1-31.9-27.1-31.9
		c-22.8,0-32.2,18-31.4,41.8c0,0.5,0.3,1.6,0,1.9v36.1c0,1.8-1.2,3.5-3,3.8c-2.5,0.4-4.5-1.3-4.5-3.7v-82c0-1.8,1.2-3.5,3-3.8
		c2.5-0.4,4.5,1.3,4.5,3.7v13.7c6.4-11.5,18-19,31.4-19c15.3,0,27.1,9.7,31.9,23.9c6.2-13.9,18.2-23.9,33.8-23.9
		C1427.4,775.8,1440,794.8,1440,815.2z"/>
</g>
<g>
	<polygon opacity="0.6" points="960,361.5 834.8,418.4 960,492.5 1085.2,418.4 	"/>
	<polygon opacity="0.45" points="834.8,418.4 960,492.5 960,361.5 960,210.6 	"/>
	<polygon opacity="0.8" points="960,210.6 960,361.5 960,492.5 1085.2,418.4 	"/>
	<polygon opacity="0.45" points="834.8,442.2 960,618.6 960,516.2 	"/>
	<polygon opacity="0.8" points="960,516.2 960,618.6 1085.3,442.2 	"/>
</g>
</svg>
