<?xml version="1.0" encoding="utf-8"?>
<!-- Generator: Adobe Illustrator 18.1.1, SVG Export Plug-In . SVG Version: 6.00 Build 0)  -->
<svg version="1.1" id="Layer_1" xmlns="http://www.w3.org/2000/svg" xmlns:xlink="http://www.w3.org/1999/xlink" x="0px" y="0px"
	 viewBox="0 0 1920 1080" enable-background="new 0 0 1920 1080" xml:space="preserve">
<g>
	<path fill="#3B3B3B" d="M726.2,560.4c0,1.9-1.6,3.5-3.6,3.5h-66.3c1.7,16.4,14,31.4,31.4,31.4c11.9,0,20.7-4.5,27.3-14
		c0.7-1,1.7-1.7,2.9-1.7c1.9,0,3.3,1.4,3.3,3.3c0,0.7-0.2,1.2-0.5,1.7c-6.7,11.6-20,17.3-33,17.3c-22.3,0-38.3-20-38.3-41.3
		c0-21.4,15.9-41.3,38.3-41.3C710,519.3,726.1,539.1,726.2,560.4z M719.1,557.3c-1.4-16.4-14-31.4-31.4-31.4s-29.7,15-31.4,31.4
		H719.1z"/>
	<path fill="#3B3B3B" d="M806.7,520.9c1.9,0,3.3,1.7,3.3,3.3c0,1.9-1.4,3.3-3.3,3.3h-17.8v69.9c0,1.7-1.4,3.3-3.3,3.3
		c-1.9,0-3.3-1.7-3.3-3.3v-69.9h-17.1c-1.9,0-3.3-1.4-3.3-3.3c0-1.7,1.4-3.3,3.3-3.3h17.1v-25.5c0-1.7,1.3-3.3,3-3.5
		c2.1-0.2,3.7,1.3,3.7,3.3v25.7H806.7z"/>
	<path fill="#3B3B3B" d="M915.3,554.7v42.3c0,1.9-1.7,3.3-3.3,3.3c-1.9,0-3.3-1.4-3.3-3.3v-42.3c0-14.3-8.1-28.5-24-28.5
		c-20.4,0-29.2,17.8-28,36.1c0,0.5,0.2,2.6,0.2,2.9v31.7c0,1.7-1.3,3.3-3,3.5c-2.1,0.2-3.7-1.3-3.7-3.3V458c0-1.7,1.4-3.3,3.3-3.3
		c1.9,0,3.3,1.7,3.3,3.3v78.6c5.7-10.2,15.9-17.1,27.8-17.1C904.2,519.5,915.3,536.6,915.3,554.7z"/>
	<path fill="#3B3B3B" d="M1034.4,560.4c0,1.9-1.6,3.5-3.6,3.5h-66.3c1.7,16.4,14,31.4,31.4,31.4c11.9,0,20.7-4.5,27.3-14
		c0.7-1,1.7-1.7,2.9-1.7c1.9,0,3.3,1.4,3.3,3.3c0,0.7-0.2,1.2-0.5,1.7c-6.7,11.6-20,17.3-33,17.3c-22.3,0-38.3-20-38.3-41.3
		c0-21.4,15.9-41.3,38.3-41.3C1018.1,519.3,1034.2,539.1,1034.4,560.4z M1027.2,557.3c-1.4-16.4-14-31.4-31.4-31.4
		c-17.3,0-29.7,15-31.4,31.4H1027.2z"/>
	<path fill="#3B3B3B" d="M1115.8,524c0,2.1-1.2,3.3-3.1,3.6c-19.5,2.9-28.3,18.8-28.3,37.3v31.7c0,1.7-1.3,3.3-3,3.5
		c-2.1,0.2-3.7-1.3-3.7-3.3v-72.3c0-1.7,1.3-3.3,3-3.5c2.1-0.2,3.7,1.3,3.7,3.3V539c5.5-9.3,16.4-18.1,27.8-18.1
		C1113.9,520.9,1115.8,522.1,1115.8,524z"/>
	<path fill="#3B3B3B" d="M1224.9,560.4c0,1.9-1.6,3.5-3.6,3.5H1155c1.7,16.4,14,31.4,31.4,31.4c11.9,0,20.7-4.5,27.3-14
		c0.7-1,1.7-1.7,2.9-1.7c1.9,0,3.3,1.4,3.3,3.3c0,0.7-0.2,1.2-0.5,1.7c-6.7,11.6-20,17.3-33,17.3c-22.3,0-38.3-20-38.3-41.3
		c0-21.4,15.9-41.3,38.3-41.3C1208.7,519.3,1224.8,539.1,1224.9,560.4z M1217.8,557.3c-1.4-16.4-14-31.4-31.4-31.4
		s-29.7,15-31.4,31.4H1217.8z"/>
	<path fill="#3B3B3B" d="M1332.1,524.8v22.9v49.7c0,1.9-1.7,3.3-3.3,3.3c-1.9,0-3.3-1.4-3.3-3.3v-13.8
		c-5.5,10.9-15.2,18.8-27.6,18.8c-19.7,0-30.6-17.1-30.6-35.2v-42.5c0-1.7,1.4-3.3,3.3-3.3s3.3,1.7,3.3,3.3v42.5
		c0,14.3,8.1,28.5,24,28.5c22.3,0,27.6-20.9,27.6-44v-27.1c0-2,2.1-4,4.5-3.1C1331.2,522.1,1332.1,523.4,1332.1,524.8z"/>
	<path fill="#3B3B3B" d="M1500,554.4v42.5c0,1.9-1.7,3.3-3.3,3.3c-1.9,0-3.3-1.4-3.3-3.3v-42.5c0-14.3-8.1-28.3-24-28.3
		c-20,0-27.6,21.4-27.6,38v32.8c0,1.9-1.7,3.3-3.3,3.3c-1.9,0-3.3-1.4-3.3-3.3v-42.5c0-14.3-8.1-28.3-24-28.3
		c-20.2,0-28.5,15.9-27.8,37.1c0,0.5,0.2,1.4,0,1.7v31.9c0,1.7-1.3,3.3-3,3.5c-2.1,0.2-3.7-1.3-3.7-3.3v-72.5c0-1.7,1.3-3.3,3-3.5
		c2.1-0.2,3.7,1.3,3.7,3.3v12.1c5.7-10.2,15.9-16.9,27.8-16.9c13.5,0,24,8.6,28.3,21.1c5.5-12.4,16.2-21.1,29.9-21.1
		C1488.9,519.5,1500,536.4,1500,554.4z"/>
</g>
<g>
	<polygon opacity="0.6" points="503,504.8 420,542.5 503,591.6 586.1,542.5 	"/>
	<polygon opacity="0.45" points="420,542.5 503,591.6 503,504.8 503,404.7 	"/>
	<polygon opacity="0.8" points="503,404.7 503,504.8 503,591.6 586.1,542.5 	"/>
	<polygon opacity="0.45" points="420,558.3 503,675.3 503,607.3 	"/>
	<polygon opacity="0.8" points="503,607.3 503,675.3 586.1,558.3 	"/>
</g>
</svg>
