<svg xmlns="http://www.w3.org/2000/svg" viewBox="0 0 29 28" fill="none">
<path d="M25.245 22.2467C22.2333 16.7648 18.5431 13.7917 14.7465 13.7882C10.9498 13.7846 7.25864 16.7509 4.24512 22.2271" stroke="#6C24DF" stroke-width="2" stroke-linecap="round"/>
<path d="M3.5225 7.43835L25.4995 7.43835" stroke="#6C24DF" stroke-width="2" stroke-linecap="round"/>
<path d="M5.63477 7.43823C5.63477 8.86975 5.63477 16.2332 5.63477 19.9702" stroke="#6C24DF" stroke-width="2" stroke-linecap="round"/>
<path d="M9.27734 7.43823C9.27734 8.39896 9.27734 13.3408 9.27734 15.8488" stroke="#6C24DF" stroke-width="2" stroke-linecap="round"/>
<path d="M12.9199 7.43823C12.9199 8.16357 12.9199 11.8946 12.9199 13.7881" stroke="#6C24DF" stroke-width="2" stroke-linecap="round"/>
<path d="M16.5605 7.43823C16.5605 8.16357 16.5605 11.8946 16.5605 13.7881" stroke="#6C24DF" stroke-width="2" stroke-linecap="round"/>
<path d="M20.2031 7.43823C20.2031 8.39896 20.2031 13.3408 20.2031 15.8488" stroke="#6C24DF" stroke-width="2" stroke-linecap="round"/>
<path d="M23.8457 7.43823C23.8457 8.86975 23.8457 16.2332 23.8457 19.9702" stroke="#6C24DF" stroke-width="2" stroke-linecap="round"/>
</svg>