<svg xmlns="http://www.w3.org/2000/svg" width="1em" height="1em" viewBox="0 0 209 148" fill="none">
  <path d="M107.404 1.24445C105.496 0.35732 103.205 0.35732 101.296 1.24445L3.94378 46.4878C1.82887 47.4707 0.507812 49.3893 0.507812 51.4779C0.507812 53.5665 1.82887 55.4851 3.94378 56.468L41.8825 74.0996L3.94378 91.7312C1.82887 92.7141 0.507812 94.6327 0.507812 96.7213C0.507812 98.8099 1.82887 100.729 3.94378 101.711L101.296 146.955C103.205 147.842 105.496 147.842 107.404 146.955L204.757 101.711C206.872 100.729 208.193 98.8099 208.193 96.7213C208.193 94.6327 206.872 92.7141 204.757 91.7312L166.818 74.0996L204.757 56.468C206.872 55.4851 208.193 53.5665 208.193 51.4779C208.193 49.3893 206.872 47.4707 204.757 46.4878L107.404 1.24445ZM153.026 80.5091L187.911 96.7213L104.35 135.555L20.7895 96.7213L55.6741 80.5091L101.296 101.711C103.205 102.599 105.496 102.599 107.404 101.711L153.026 80.5091ZM104.35 90.3118L20.7895 51.4779L104.35 12.644L187.911 51.4779L104.35 90.3118Z" fill="currentcolor"/>
</svg>