<svg xmlns="http://www.w3.org/2000/svg" viewBox="0 0 28 28" fill="none">
<path d="M20.3063 20.6754L21.1086 25.191C21.1176 25.2442 21.1102 25.2988 21.0873 25.3476C21.0643 25.3964 21.0271 25.4371 20.9804 25.4642C20.9338 25.4912 20.88 25.5034 20.8262 25.4991C20.7725 25.4947 20.7214 25.4741 20.6796 25.4399L18.7836 24.0168C18.6921 23.9484 18.5809 23.9115 18.4667 23.9115C18.3524 23.9115 18.2412 23.9484 18.1497 24.0168L16.2505 25.4394C16.2088 25.4735 16.1577 25.4941 16.104 25.4985C16.0504 25.5028 15.9966 25.4907 15.95 25.4637C15.9034 25.4367 15.8661 25.3961 15.8432 25.3474C15.8202 25.2987 15.8126 25.2441 15.8215 25.191L16.6233 20.6754M21.6425 18.0856C21.6425 19.8406 20.2198 21.2633 18.4648 21.2633C16.7098 21.2633 15.2871 19.8406 15.2871 18.0856C15.2871 16.3306 16.7098 14.9079 18.4648 14.9079C20.2198 14.9079 21.6425 16.3306 21.6425 18.0856Z" stroke="#6C24DF" stroke-width="2" stroke-linecap="round" stroke-linejoin="round"/>
<path d="M12.3044 20.451H7.01894C6.48996 20.451 5.98265 20.2408 5.6086 19.8668C5.23455 19.4927 5.02441 18.9854 5.02441 18.4564V4.49455C5.02441 3.96556 5.23455 3.45824 5.6086 3.08419C5.98265 2.71014 6.48996 2.5 7.01894 2.5H20.9807C21.5096 2.5 22.017 2.71014 22.391 3.08419C22.765 3.45824 22.9752 3.96556 22.9752 4.49455V14.4673L19.8837 11.3758C19.5084 11.0079 19.0031 10.8031 18.4776 10.8057C17.9522 10.8083 17.449 11.0182 17.0774 11.3897L8.01621 20.451M13.0025 8.48366C13.0025 9.58522 12.1096 10.4782 11.008 10.4782C9.90645 10.4782 9.01347 9.58522 9.01347 8.48366C9.01347 7.3821 9.90645 6.4891 11.008 6.4891C12.1096 6.4891 13.0025 7.3821 13.0025 8.48366Z" stroke="#6C24DF" stroke-width="2" stroke-linecap="round" stroke-linejoin="round"/>
</svg>