<svg xmlns="http://www.w3.org/2000/svg" viewBox="0 0 29 28" fill="none">
<path d="M12.9393 4.26957C13.8484 3.53008 15.1516 3.53008 16.0607 4.26957V4.26957C16.6074 4.7143 17.3178 4.90467 18.0136 4.79287V4.79287C19.1706 4.60697 20.2993 5.25859 20.7168 6.35353V6.35353C20.9679 7.01203 21.488 7.53212 22.1465 7.78321V7.78321C23.2414 8.20072 23.893 9.32936 23.7071 10.4864V10.4864C23.5953 11.1822 23.7857 11.8926 24.2304 12.4393V12.4393C24.9699 13.3484 24.9699 14.6516 24.2304 15.5607V15.5607C23.7857 16.1074 23.5953 16.8178 23.7071 17.5136V17.5136C23.893 18.6706 23.2414 19.7993 22.1465 20.2168V20.2168C21.488 20.4679 20.9679 20.988 20.7168 21.6465V21.6465C20.2993 22.7414 19.1706 23.393 18.0136 23.2071V23.2071C17.3178 23.0953 16.6074 23.2857 16.0607 23.7304V23.7304C15.1516 24.4699 13.8484 24.4699 12.9393 23.7304V23.7304C12.3926 23.2857 11.6822 23.0953 10.9864 23.2071V23.2071C9.82936 23.393 8.70072 22.7414 8.28321 21.6465V21.6465C8.03212 20.988 7.51203 20.4679 6.85353 20.2168V20.2168C5.75859 19.7993 5.10697 18.6706 5.29287 17.5136V17.5136C5.40467 16.8178 5.2143 16.1074 4.76957 15.5607V15.5607C4.03008 14.6516 4.03008 13.3484 4.76957 12.4393V12.4393C5.2143 11.8926 5.40467 11.1822 5.29287 10.4864V10.4864C5.10697 9.32936 5.75859 8.20072 6.85353 7.78321V7.78321C7.51203 7.53212 8.03212 7.01203 8.28321 6.35353V6.35353C8.70072 5.25859 9.82936 4.60697 10.9864 4.79287V4.79287C11.6822 4.90467 12.3926 4.7143 12.9393 4.26957V4.26957Z" stroke="#6C24DF" stroke-width="1.57143"/>
<path d="M14.4686 21.9587V17.9745L19.3914 15.0923L14.4686 21.9587Z" fill="#6C24DF"/>
<path fill-rule="evenodd" clip-rule="evenodd" d="M19.4017 15.0827C19.3973 15.0778 19.39 15.0767 19.3843 15.08L14.4615 17.9622C14.4572 17.9647 14.4546 17.9693 14.4546 17.9743V21.9585C14.4546 21.9646 14.4585 21.97 14.4643 21.9719C14.4701 21.9737 14.4765 21.9716 14.48 21.9667L19.4028 15.1003C19.4066 15.0949 19.4062 15.0876 19.4017 15.0827ZM19.3415 15.1376L14.4826 21.9148V17.9824L19.3415 15.1376Z" fill="#6C24DF"/>
<path d="M14.4524 21.9587V17.9745L9.52967 15.0923L14.4524 21.9587Z" fill="#6C24DF"/>
<path fill-rule="evenodd" clip-rule="evenodd" d="M9.51916 15.0827C9.51469 15.0876 9.51426 15.0949 9.51812 15.1003L14.4408 21.9667C14.4444 21.9716 14.4507 21.9737 14.4566 21.9719C14.4624 21.97 14.4663 21.9646 14.4663 21.9585V17.9743C14.4663 17.9693 14.4636 17.9647 14.4593 17.9622L9.53662 15.08C9.5309 15.0767 9.52362 15.0778 9.51916 15.0827ZM14.4382 17.9824V21.9148L9.57939 15.1376L14.4382 17.9824Z" fill="#6C24DF"/>
<path d="M14.4685 16.9843V11.8994L19.4477 14.1317L14.4685 16.9843Z" fill="#6C24DF"/>
<path fill-rule="evenodd" clip-rule="evenodd" d="M14.4609 11.8874C14.457 11.89 14.4545 11.8944 14.4545 11.8992V16.9841C14.4545 16.9891 14.4572 16.9937 14.4615 16.9962C14.4659 16.9988 14.4712 16.9988 14.4756 16.9963L19.4548 14.1437C19.4594 14.141 19.4621 14.1361 19.4618 14.1308C19.4616 14.1255 19.4584 14.1208 19.4535 14.1187L14.4743 11.8864C14.47 11.8844 14.4649 11.8848 14.4609 11.8874ZM19.4169 14.133L14.4826 16.9599V11.9209L19.4169 14.133Z" fill="#6C24DF"/>
<path d="M14.4524 16.9843V11.8994L9.47316 14.1317L14.4524 16.9843Z" fill="#6C24DF"/>
<path fill-rule="evenodd" clip-rule="evenodd" d="M14.4609 11.8874C14.457 11.8848 14.4509 11.8844 14.4465 11.8864L9.46728 14.1187C9.46246 14.1208 9.45926 14.1255 9.459 14.1308C9.45874 14.1361 9.46146 14.141 9.46604 14.1437L14.4453 16.9963C14.4496 16.9988 14.455 16.9988 14.4593 16.9962C14.4636 16.9937 14.4663 16.9891 14.4663 16.9841V11.8992C14.4663 11.8944 14.4649 11.89 14.4609 11.8874ZM14.4382 11.9209V16.9599L9.50392 14.133L14.4382 11.9209Z" fill="#6C24DF"/>
<path d="M19.4477 14.1317L14.4684 6.07833L14.4685 11.8994L19.4477 14.1317Z" fill="#6C24DF"/>
<path fill-rule="evenodd" clip-rule="evenodd" d="M14.4648 6.06474C14.4587 6.06646 14.4546 6.07197 14.4546 6.07825L14.4545 11.8992C14.4545 11.9047 14.4578 11.9097 14.4629 11.9119L19.4421 14.1442C19.4477 14.1467 19.4543 14.1453 19.4584 14.1407C19.4624 14.136 19.463 14.1293 19.4597 14.124L14.4805 6.07086C14.4772 6.06553 14.4708 6.06303 14.4648 6.06474ZM19.4118 14.0999L14.4826 11.89V6.12764L19.4118 14.0999Z" fill="#6C24DF"/>
<path d="M9.47316 14.1317L14.4524 6.07822V11.8994L9.47316 14.1317Z" fill="#6C24DF"/>
<path fill-rule="evenodd" clip-rule="evenodd" d="M14.4561 6.06476C14.4501 6.06304 14.4436 6.06554 14.4403 6.07088L9.46111 14.124C9.45787 14.1293 9.45843 14.136 9.46249 14.1407C9.46655 14.1453 9.47316 14.1468 9.47879 14.1442L14.458 11.9119C14.463 11.9097 14.4663 11.9047 14.4663 11.8992V6.07826C14.4663 6.07198 14.4621 6.06647 14.4561 6.06476ZM14.4382 6.12765V11.8901L9.50903 14.0999L14.4382 6.12765Z" fill="#6C24DF"/>
</svg>