<svg xmlns="http://www.w3.org/2000/svg" viewBox="0 0 35 34" fill="none">
<path d="M8.85352 15.897H14.4922M11.6729 13.0776V18.7163M21.5405 17.3066H21.5546M25.7695 14.4873H25.7836M24.811 7.43896H9.81209C8.41691 7.43929 7.07139 7.95684 6.03564 8.89158C4.99988 9.82631 4.34744 11.1118 4.20443 12.4997C4.19597 12.573 4.19033 12.642 4.18047 12.7139C4.06628 13.6641 3.21484 20.7688 3.21484 22.9453C3.21484 24.0669 3.6604 25.1426 4.45349 25.9357C5.24658 26.7288 6.32225 27.1743 7.44385 27.1743C8.85352 27.1743 9.55835 26.4695 10.2632 25.7646L12.2565 23.7714C12.7851 23.2426 13.5021 22.9455 14.2497 22.9453H20.3733C21.121 22.9455 21.838 23.2426 22.3666 23.7714L24.3599 25.7646C25.0647 26.4695 25.7695 27.1743 27.1792 27.1743C28.3008 27.1743 29.3765 26.7288 30.1696 25.9357C30.9626 25.1426 31.4082 24.0669 31.4082 22.9453C31.4082 20.7674 30.5568 13.6641 30.4426 12.7139C30.4327 12.6435 30.4271 12.573 30.4186 12.5011C30.2759 11.113 29.6236 9.82712 28.5878 8.8921C27.5521 7.95708 26.2064 7.43933 24.811 7.43896Z" stroke="#6C24DF" stroke-width="2" stroke-linecap="round" stroke-linejoin="round"/>
</svg>
