<svg xmlns="http://www.w3.org/2000/svg" viewBox="0 0 25 25" fill="none">
<path fill-rule="evenodd" clip-rule="evenodd" d="M7.9047 4.40706L6.78201 8.42463C6.7476 8.55081 6.72753 8.67555 6.72179 8.79886C4.26479 9.17653 2.66895 9.78561 2.66895 10.4721C2.66895 11.6172 7.10806 12.5454 12.583 12.5454C18.0587 12.5454 22.497 11.6172 22.497 10.4721C22.497 9.78561 20.902 9.17653 18.445 8.79886C18.4388 8.67228 18.4186 8.54677 18.3848 8.42463L17.2621 4.40706C17.0247 3.5545 16.1437 3.05209 15.2757 3.22587C14.4352 3.39449 13.4037 3.55881 12.583 3.55881C11.7623 3.55881 10.7316 3.39449 9.89025 3.22587C9.02308 3.05209 8.14214 3.5545 7.9047 4.40706ZM7.93911 9.54731C7.94998 9.44115 8.00239 9.34359 8.0849 9.2759C8.16741 9.20822 8.27334 9.1759 8.37958 9.18599C9.65281 9.31245 11.0809 9.38386 12.589 9.38386C14.0971 9.38386 15.5243 9.31245 16.7976 9.18599C16.8511 9.17912 16.9054 9.18305 16.9574 9.19755C17.0093 9.21205 17.0579 9.23682 17.1001 9.2704C17.1423 9.30398 17.1774 9.34569 17.2032 9.39305C17.229 9.44042 17.2451 9.49248 17.2504 9.54616C17.2558 9.59985 17.2503 9.65405 17.2343 9.70559C17.2184 9.75712 17.1922 9.80492 17.1575 9.84618C17.1227 9.88743 17.08 9.9213 17.032 9.94577C16.9839 9.97024 16.9314 9.98482 16.8776 9.98864C15.5751 10.1177 14.1212 10.19 12.589 10.19C11.0568 10.19 9.60206 10.1177 8.29957 9.98864C8.19324 9.97777 8.09554 9.92525 8.02783 9.84254C7.96012 9.75984 7.92791 9.6537 7.93825 9.54731M6.3966 15.5418H8.86909C9.25106 15.5418 9.56076 15.8515 9.56076 16.2327V17.3003C9.56076 17.5535 9.51089 17.8042 9.41401 18.0381C9.31712 18.272 9.17511 18.4845 8.99609 18.6635C8.81706 18.8426 8.60453 18.9846 8.37063 19.0815C8.13672 19.1783 7.88602 19.2282 7.63284 19.2282C7.37966 19.2282 7.12897 19.1783 6.89506 19.0815C6.66115 18.9846 6.44862 18.8426 6.2696 18.6635C6.09057 18.4845 5.94856 18.272 5.85168 18.0381C5.75479 17.8042 5.70492 17.5535 5.70492 17.3003V16.2335C5.70492 15.8507 6.01463 15.5418 6.3966 15.5418ZM4.09273 16.2327C4.09273 15.9488 4.14435 15.6778 4.23812 15.4266H4.09273C3.87883 15.4266 3.67369 15.3416 3.52243 15.1903C3.37118 15.0391 3.28621 14.8339 3.28621 14.62C3.28621 14.4061 3.37118 14.201 3.52243 14.0497C3.67369 13.8985 3.87883 13.8135 4.09273 13.8135H6.21766C6.36907 13.8135 6.51188 13.8557 6.63318 13.9288H8.86995C9.37903 13.9289 9.87377 14.0975 10.277 14.4083C10.6802 14.719 10.9692 15.1545 11.099 15.6468C12.0765 15.3785 13.1083 15.3785 14.0859 15.6468C14.2156 15.1547 14.5045 14.7193 14.9075 14.4085C15.3106 14.0978 15.8051 13.9291 16.3141 13.9288H18.5474C18.6727 13.8531 18.8165 13.8132 18.9629 13.8135H21.0878C21.3017 13.8135 21.5069 13.8985 21.6581 14.0497C21.8094 14.201 21.8944 14.4061 21.8944 14.62C21.8944 14.8339 21.8094 15.0391 21.6581 15.1903C21.5069 15.3416 21.3017 15.4266 21.0878 15.4266H20.9468C21.0414 15.6778 21.093 15.9488 21.093 16.2327V17.3003C21.0945 18.2395 20.7228 19.1409 20.0597 19.8061C19.3966 20.4713 18.4964 20.8458 17.5572 20.8473C16.618 20.8488 15.7166 20.4771 15.0514 19.814C14.3862 19.1509 14.0117 18.2507 14.0102 17.3115L13.8416 17.2564C13.0308 16.9934 12.1576 16.9934 11.3467 17.2564L11.1747 17.3123C11.1739 17.7773 11.0815 18.2376 10.9028 18.6669C10.7241 19.0962 10.4627 19.4862 10.1333 19.8144C9.80392 20.1427 9.41312 20.4028 8.98321 20.58C8.5533 20.7573 8.09269 20.8481 7.62768 20.8473C7.16267 20.8465 6.70238 20.7541 6.27307 20.5754C5.84376 20.3968 5.45385 20.1353 5.1256 19.8059C4.46267 19.1407 4.09114 18.2394 4.09273 17.3003V16.2327ZM18.7883 15.5418H16.3141C16.1308 15.5418 15.955 15.6146 15.8253 15.7441C15.6956 15.8737 15.6226 16.0494 15.6224 16.2327V17.3003C15.6224 17.8116 15.8255 18.302 16.1871 18.6635C16.5486 19.0251 17.039 19.2282 17.5503 19.2282C18.0616 19.2282 18.552 19.0251 18.9136 18.6635C19.2751 18.302 19.4782 17.8116 19.4782 17.3003V16.2335C19.4782 16.0502 19.4055 15.8744 19.2759 15.7447C19.1464 15.615 18.9716 15.5421 18.7883 15.5418Z" fill="#6C24DF"/>
</svg>