<svg xmlns="http://www.w3.org/2000/svg" viewBox="0 0 29 28" fill="none">
<path d="M14.25 23.1438C16.6751 23.1438 19.0008 22.1804 20.7156 20.4656C22.4304 18.7508 23.3938 16.4251 23.3938 14C23.3938 11.5749 22.4304 9.24918 20.7156 7.53439C19.0008 5.81961 16.6751 4.85625 14.25 4.85625M14.25 23.1438C11.8249 23.1438 9.49918 22.1804 7.78439 20.4656C6.06961 18.7508 5.10625 16.4251 5.10625 14M14.25 23.1438V25.4297M14.25 4.85625C11.8249 4.85625 9.49918 5.81961 7.78439 7.53439C6.06961 9.24918 5.10625 11.5749 5.10625 14M14.25 4.85625V2.57031M5.10625 14H2.82031M16.5359 14C16.5359 14.6063 16.2951 15.1877 15.8664 15.6164C15.4377 16.0451 14.8563 16.2859 14.25 16.2859C13.6437 16.2859 13.0623 16.0451 12.6336 15.6164C12.2049 15.1877 11.9641 14.6063 11.9641 14C11.9641 13.3937 12.2049 12.8123 12.6336 12.3836C13.0623 11.9549 13.6437 11.7141 14.25 11.7141C14.8563 11.7141 15.4377 11.9549 15.8664 12.3836C16.2951 12.8123 16.5359 13.3937 16.5359 14ZM16.5359 14H25.6797M19.9648 23.8981L18.8219 21.9208M13.107 12.0227L8.53516 4.10189M24.1481 19.7148L22.1708 18.5719M4.35189 8.28516L6.32923 9.42813M24.1481 8.28516L22.1708 9.42813M4.35189 19.7148L6.32923 18.5719M19.9648 4.10189L18.8219 6.07923M13.107 15.9773L8.53516 23.8981" stroke="#6C24DF" stroke-width="2" stroke-linecap="round" stroke-linejoin="round"/>
</svg>