<svg xmlns="http://www.w3.org/2000/svg" viewBox="0 0 28 28" fill="none">
<path d="M20.25 11H22.25C22.7804 11 23.2891 11.2107 23.6642 11.5858C24.0393 11.9609 24.25 12.4696 24.25 13V24L20.25 20H14.25C13.7196 20 13.2109 19.7893 12.8358 19.4142C12.4607 19.0391 12.25 18.5304 12.25 18V17M16.25 11C16.25 11.5304 16.0393 12.0391 15.6642 12.4142C15.2891 12.7893 14.7804 13 14.25 13H8.25L4.25 17V6C4.25 5.46957 4.46071 4.96086 4.83579 4.58579C5.21086 4.21071 5.71957 4 6.25 4H14.25C14.7804 4 15.2891 4.21071 15.6642 4.58579C16.0393 4.96086 16.25 5.46957 16.25 6V11Z" stroke="#6C24DF" stroke-width="2" stroke-linecap="round" stroke-linejoin="round"/>
</svg>       