<svg viewBox="0 0 567 400" xmlns="http://www.w3.org/2000/svg">
<circle id="Ellipse 1" cx="200" cy="200" r="200" transform="matrix(-1 0 0 1 400 0)" fill="var(--holders-deep)"/>
<path id="Ellipse 2" d="M0 200C0 228.433 6.06232 256.538 17.7826 282.443C29.503 308.347 46.6118 331.455 67.9683 350.225C89.3248 368.995 114.438 382.996 141.633 391.294C168.828 399.591 197.479 401.995 225.676 398.345C253.874 394.695 280.969 385.074 305.154 370.125C329.34 355.176 350.06 335.242 365.933 311.653C381.805 288.064 392.466 261.361 397.204 233.326C401.942 205.291 400.647 176.568 393.407 149.072L200 200H0Z" fill="var(--holders-mid)"/>
<path id="Ellipse 3" d="M0 200C0 235.107 9.24124 269.596 26.7949 300C44.3486 330.404 69.5962 355.651 100 373.205C130.404 390.759 164.893 400 200 400C235.107 400 269.596 390.759 300 373.205L200 200H0Z" fill="var(--holders-pale)"/>
<path d="M520.785 60.2683V57.2001L526.637 47.9956H529.421V52.0865H527.83L524.677 57.0865V57.2001H533.313V60.2683H520.785ZM527.859 62.541V59.3308L527.944 57.9956V47.9956H531.637V62.541H527.859ZM541.305 62.9387C539.984 62.934 538.843 62.6286 537.882 62.0225C536.921 61.4165 536.18 60.5429 535.659 59.4018C535.138 58.2607 534.88 56.8923 534.885 55.2967C534.889 53.6963 535.15 52.3374 535.666 51.22C536.187 50.1026 536.925 49.2527 537.882 48.6703C538.843 48.0879 539.984 47.7967 541.305 47.7967C542.626 47.7967 543.767 48.0903 544.728 48.6774C545.69 49.2598 546.431 50.1097 546.951 51.2271C547.472 52.3445 547.73 53.7011 547.725 55.2967C547.725 56.9018 547.465 58.2749 546.944 59.416C546.423 60.5571 545.682 61.4307 544.721 62.0368C543.765 62.6381 542.626 62.9387 541.305 62.9387ZM541.305 59.7285C541.987 59.7285 542.546 59.3734 542.981 58.6632C543.422 57.9482 543.639 56.8261 543.635 55.2967C543.635 54.2976 543.535 53.4809 543.336 52.8464C543.137 52.2119 542.863 51.7432 542.512 51.4402C542.162 51.1324 541.76 50.9785 541.305 50.9785C540.623 50.9785 540.067 51.3242 539.636 52.0154C539.205 52.7067 538.985 53.8005 538.975 55.2967C538.971 56.3147 539.068 57.1528 539.267 57.8109C539.466 58.4643 539.74 58.9473 540.091 59.2598C540.446 59.5723 540.85 59.7285 541.305 59.7285ZM557.903 59.8137V59.0467C557.903 58.4312 558.036 57.863 558.301 57.3422C558.571 56.8213 558.961 56.4023 559.473 56.085C559.984 55.7678 560.607 55.6092 561.341 55.6092C562.093 55.6092 562.725 55.7654 563.237 56.0779C563.753 56.3904 564.144 56.8071 564.409 57.3279C564.674 57.8488 564.806 58.4217 564.806 59.0467V59.8137C564.806 60.4293 564.672 60.9975 564.402 61.5183C564.136 62.0391 563.746 62.4582 563.23 62.7754C562.714 63.0926 562.084 63.2512 561.341 63.2512C560.597 63.2512 559.97 63.0926 559.458 62.7754C558.947 62.4582 558.559 62.0391 558.294 61.5183C558.033 60.9975 557.903 60.4293 557.903 59.8137ZM560.375 59.0467V59.8137C560.375 60.0836 560.441 60.3511 560.574 60.6163C560.711 60.8767 560.967 61.0069 561.341 61.0069C561.734 61.0069 561.992 60.8791 562.115 60.6234C562.243 60.3677 562.306 60.0978 562.306 59.8137V59.0467C562.306 58.7626 562.247 58.488 562.129 58.2228C562.011 57.9577 561.748 57.8251 561.341 57.8251C560.967 57.8251 560.711 57.9577 560.574 58.2228C560.441 58.488 560.375 58.7626 560.375 59.0467ZM550.289 51.4899V50.7228C550.289 50.0978 550.424 49.5249 550.694 49.0041C550.969 48.4832 551.362 48.0666 551.873 47.7541C552.385 47.4416 553.002 47.2853 553.727 47.2853C554.48 47.2853 555.112 47.4416 555.623 47.7541C556.139 48.0666 556.53 48.4832 556.795 49.0041C557.06 49.5249 557.193 50.0978 557.193 50.7228V51.4899C557.193 52.1149 557.058 52.6854 556.788 53.2015C556.523 53.7176 556.132 54.1296 555.616 54.4373C555.1 54.7451 554.47 54.899 553.727 54.899C552.984 54.899 552.356 54.7427 551.845 54.4302C551.333 54.1177 550.945 53.7034 550.68 53.1873C550.42 52.6712 550.289 52.1054 550.289 51.4899ZM552.789 50.7228V51.4899C552.789 51.774 552.856 52.0439 552.988 52.2995C553.121 52.5552 553.367 52.6831 553.727 52.6831C554.12 52.6831 554.378 52.5552 554.501 52.2995C554.629 52.0439 554.693 51.774 554.693 51.4899V50.7228C554.693 50.4387 554.634 50.1641 554.515 49.899C554.397 49.6338 554.134 49.5012 553.727 49.5012C553.353 49.5012 553.102 49.6386 552.974 49.9132C552.851 50.1831 552.789 50.4529 552.789 50.7228ZM551.497 62.541L561.497 47.9956H563.514L553.514 62.541H551.497ZM495.518 76.9047H496.927V84.6092C496.927 85.4047 496.74 86.1149 496.365 86.7399C495.993 87.3611 495.469 87.8516 494.791 88.2115C494.113 88.5675 493.317 88.7456 492.404 88.7456C491.492 88.7456 490.696 88.5675 490.018 88.2115C489.34 87.8516 488.814 87.3611 488.439 86.7399C488.067 86.1149 487.882 85.4047 487.882 84.6092V76.9047H489.291V84.4956C489.291 85.0637 489.416 85.5694 489.666 86.0126C489.916 86.452 490.272 86.7986 490.734 87.0524C491.2 87.3024 491.757 87.4274 492.404 87.4274C493.052 87.4274 493.609 87.3024 494.075 87.0524C494.541 86.7986 494.897 86.452 495.143 86.0126C495.393 85.5694 495.518 85.0637 495.518 84.4956V76.9047ZM505.741 81.7683L504.537 82.1092C504.461 81.9084 504.349 81.7134 504.201 81.524C504.057 81.3308 503.86 81.1717 503.61 81.0467C503.36 80.9217 503.04 80.8592 502.65 80.8592C502.116 80.8592 501.671 80.9823 501.315 81.2285C500.963 81.4709 500.787 81.7797 500.787 82.1547C500.787 82.488 500.908 82.7512 501.15 82.9444C501.393 83.1376 501.771 83.2986 502.287 83.4274L503.582 83.7456C504.362 83.935 504.944 84.2247 505.326 84.6149C505.709 85.0012 505.9 85.4993 505.9 86.1092C505.9 86.6092 505.756 87.0562 505.468 87.4501C505.184 87.844 504.787 88.1547 504.275 88.3819C503.764 88.6092 503.169 88.7228 502.491 88.7228C501.601 88.7228 500.864 88.5297 500.281 88.1433C499.698 87.7569 499.328 87.1925 499.173 86.4501L500.446 86.1319C500.567 86.6016 500.796 86.9539 501.133 87.1887C501.474 87.4236 501.919 87.541 502.468 87.541C503.093 87.541 503.59 87.4084 503.957 87.1433C504.328 86.8743 504.514 86.5524 504.514 86.1774C504.514 85.8743 504.408 85.6206 504.196 85.416C503.984 85.2077 503.658 85.0524 503.218 84.9501L501.764 84.6092C500.965 84.4198 500.377 84.1262 500.002 83.7285C499.631 83.327 499.446 82.8251 499.446 82.2228C499.446 81.7304 499.584 81.2948 499.86 80.916C500.141 80.5372 500.521 80.2399 501.002 80.024C501.487 79.8081 502.037 79.7001 502.65 79.7001C503.514 79.7001 504.192 79.8895 504.684 80.2683C505.181 80.6471 505.533 81.1471 505.741 81.7683ZM511.578 88.7228C510.737 88.7228 510.011 88.5372 509.402 88.166C508.796 87.791 508.328 87.2683 507.998 86.5978C507.672 85.9236 507.51 85.1395 507.51 84.2456C507.51 83.3516 507.672 82.5637 507.998 81.8819C508.328 81.1963 508.786 80.6622 509.373 80.2797C509.964 79.8933 510.654 79.7001 511.441 79.7001C511.896 79.7001 512.345 79.7759 512.788 79.9274C513.231 80.0789 513.635 80.3251 513.998 80.666C514.362 81.0031 514.652 81.4501 514.868 82.0069C515.083 82.5637 515.191 83.2493 515.191 84.0637V84.6319H508.464V83.4728H513.828C513.828 82.9804 513.729 82.541 513.532 82.1547C513.339 81.7683 513.063 81.4634 512.703 81.2399C512.347 81.0164 511.926 80.9047 511.441 80.9047C510.907 80.9047 510.445 81.0372 510.055 81.3024C509.669 81.5637 509.371 81.9047 509.163 82.3251C508.955 82.7456 508.85 83.1963 508.85 83.6774V84.4501C508.85 85.1092 508.964 85.6679 509.191 86.1262C509.422 86.5808 509.743 86.9274 510.152 87.166C510.561 87.4009 511.036 87.5183 511.578 87.5183C511.93 87.5183 512.248 87.469 512.532 87.3706C512.82 87.2683 513.068 87.1168 513.277 86.916C513.485 86.7115 513.646 86.4577 513.76 86.1547L515.055 86.5183C514.919 86.9577 514.69 87.344 514.368 87.6774C514.046 88.0069 513.648 88.2645 513.174 88.4501C512.701 88.6319 512.169 88.7228 511.578 88.7228ZM517.231 88.541V79.8137H518.527V81.1319H518.618C518.777 80.7001 519.065 80.3497 519.481 80.0808C519.898 79.8118 520.368 79.6774 520.89 79.6774C520.989 79.6774 521.112 79.6793 521.26 79.6831C521.407 79.6868 521.519 79.6925 521.595 79.7001V81.0637C521.549 81.0524 521.445 81.0353 521.282 81.0126C521.123 80.9861 520.955 80.9728 520.777 80.9728C520.352 80.9728 519.974 81.0618 519.64 81.2399C519.311 81.4141 519.049 81.6565 518.856 81.9672C518.667 82.274 518.572 82.6243 518.572 83.0183V88.541H517.231ZM529.366 81.7683L528.162 82.1092C528.086 81.9084 527.974 81.7134 527.826 81.524C527.682 81.3308 527.485 81.1717 527.235 81.0467C526.985 80.9217 526.665 80.8592 526.275 80.8592C525.741 80.8592 525.296 80.9823 524.94 81.2285C524.588 81.4709 524.412 81.7797 524.412 82.1547C524.412 82.488 524.533 82.7512 524.775 82.9444C525.018 83.1376 525.396 83.2986 525.912 83.4274L527.207 83.7456C527.987 83.935 528.569 84.2247 528.951 84.6149C529.334 85.0012 529.525 85.4993 529.525 86.1092C529.525 86.6092 529.381 87.0562 529.093 87.4501C528.809 87.844 528.412 88.1547 527.9 88.3819C527.389 88.6092 526.794 88.7228 526.116 88.7228C525.226 88.7228 524.489 88.5297 523.906 88.1433C523.323 87.7569 522.953 87.1925 522.798 86.4501L524.071 86.1319C524.192 86.6016 524.421 86.9539 524.758 87.1887C525.099 87.4236 525.544 87.541 526.093 87.541C526.718 87.541 527.215 87.4084 527.582 87.1433C527.953 86.8743 528.139 86.5524 528.139 86.1774C528.139 85.8743 528.033 85.6206 527.821 85.416C527.609 85.2077 527.283 85.0524 526.843 84.9501L525.389 84.6092C524.59 84.4198 524.002 84.1262 523.627 83.7285C523.256 83.327 523.071 82.8251 523.071 82.2228C523.071 81.7304 523.209 81.2948 523.485 80.916C523.766 80.5372 524.146 80.2399 524.627 80.024C525.112 79.8081 525.662 79.7001 526.275 79.7001C527.139 79.7001 527.817 79.8895 528.309 80.2683C528.806 80.6471 529.158 81.1471 529.366 81.7683ZM537.385 83.291V88.541H536.044V79.8137H537.339V81.1774H537.453C537.657 80.7342 537.968 80.3781 538.385 80.1092C538.801 79.8365 539.339 79.7001 539.998 79.7001C540.589 79.7001 541.106 79.8213 541.549 80.0637C541.993 80.3024 542.337 80.666 542.583 81.1547C542.83 81.6395 542.953 82.2531 542.953 82.9956V88.541H541.612V83.0865C541.612 82.4009 541.434 81.8668 541.078 81.4842C540.722 81.0978 540.233 80.9047 539.612 80.9047C539.184 80.9047 538.801 80.9975 538.464 81.1831C538.131 81.3687 537.868 81.6395 537.674 81.9956C537.481 82.3516 537.385 82.7834 537.385 83.291ZM548.949 88.7228C548.161 88.7228 547.469 88.5353 546.875 88.1603C546.284 87.7853 545.822 87.2607 545.488 86.5865C545.159 85.9122 544.994 85.1243 544.994 84.2228C544.994 83.3137 545.159 82.5202 545.488 81.8422C545.822 81.1641 546.284 80.6376 546.875 80.2626C547.469 79.8876 548.161 79.7001 548.949 79.7001C549.736 79.7001 550.426 79.8876 551.017 80.2626C551.611 80.6376 552.074 81.1641 552.403 81.8422C552.736 82.5202 552.903 83.3137 552.903 84.2228C552.903 85.1243 552.736 85.9122 552.403 86.5865C552.074 87.2607 551.611 87.7853 551.017 88.1603C550.426 88.5353 549.736 88.7228 548.949 88.7228ZM548.949 87.5183C549.547 87.5183 550.039 87.3649 550.426 87.0581C550.812 86.7512 551.098 86.3478 551.284 85.8478C551.469 85.3478 551.562 84.8062 551.562 84.2228C551.562 83.6395 551.469 83.0959 551.284 82.5922C551.098 82.0884 550.812 81.6812 550.426 81.3706C550.039 81.06 549.547 80.9047 548.949 80.9047C548.35 80.9047 547.858 81.06 547.471 81.3706C547.085 81.6812 546.799 82.0884 546.613 82.5922C546.428 83.0959 546.335 83.6395 546.335 84.2228C546.335 84.8062 546.428 85.3478 546.613 85.8478C546.799 86.3478 547.085 86.7512 547.471 87.0581C547.858 87.3649 548.35 87.5183 548.949 87.5183ZM556.63 88.541L553.971 79.8137H555.38L557.267 86.4956H557.358L559.221 79.8137H560.653L562.494 86.4728H562.585L564.471 79.8137H565.88L563.221 88.541H561.903L559.994 81.8365H559.858L557.949 88.541H556.63Z" fill="currentColor"/>
<line id="Line 2" x1="566.426" y1="103.041" x2="347.998" y2="103.041" stroke="currentColor"/>
<path d="M524.67 232.471L530.38 221.164V221.079H523.676V217.925H534.471V221.079L528.733 232.471H524.67ZM536.224 232.471V229.63L541.65 225.141C542.01 224.843 542.317 224.564 542.573 224.303C542.834 224.038 543.032 223.766 543.17 223.486C543.312 223.207 543.383 222.897 543.383 222.556C543.383 222.182 543.302 221.862 543.141 221.597C542.985 221.332 542.767 221.128 542.488 220.986C542.209 220.84 541.887 220.766 541.522 220.766C541.157 220.766 540.835 220.84 540.556 220.986C540.281 221.133 540.068 221.349 539.917 221.633C539.765 221.917 539.69 222.262 539.69 222.67H535.94C535.94 221.647 536.169 220.766 536.629 220.028C537.088 219.289 537.737 218.721 538.575 218.323C539.413 217.925 540.395 217.726 541.522 217.726C542.687 217.726 543.695 217.913 544.548 218.287C545.405 218.657 546.065 219.178 546.529 219.85C546.998 220.522 547.232 221.311 547.232 222.215C547.232 222.774 547.116 223.33 546.884 223.884C546.652 224.433 546.236 225.042 545.634 225.709C545.033 226.377 544.178 227.172 543.07 228.096L541.707 229.232V229.317H547.388V232.471H536.224ZM557.477 229.743V228.976C557.477 228.361 557.61 227.793 557.875 227.272C558.145 226.751 558.536 226.332 559.047 226.015C559.558 225.698 560.181 225.539 560.915 225.539C561.668 225.539 562.3 225.695 562.811 226.008C563.327 226.32 563.718 226.737 563.983 227.258C564.248 227.778 564.381 228.351 564.381 228.976V229.743C564.381 230.359 564.246 230.927 563.976 231.448C563.711 231.969 563.32 232.388 562.804 232.705C562.288 233.022 561.658 233.181 560.915 233.181C560.171 233.181 559.544 233.022 559.033 232.705C558.521 232.388 558.133 231.969 557.868 231.448C557.607 230.927 557.477 230.359 557.477 229.743ZM559.949 228.976V229.743C559.949 230.013 560.015 230.281 560.148 230.546C560.285 230.806 560.541 230.937 560.915 230.937C561.308 230.937 561.566 230.809 561.689 230.553C561.817 230.297 561.881 230.028 561.881 229.743V228.976C561.881 228.692 561.821 228.418 561.703 228.153C561.585 227.887 561.322 227.755 560.915 227.755C560.541 227.755 560.285 227.887 560.148 228.153C560.015 228.418 559.949 228.692 559.949 228.976ZM549.864 221.42V220.653C549.864 220.028 549.999 219.455 550.268 218.934C550.543 218.413 550.936 217.996 551.447 217.684C551.959 217.371 552.577 217.215 553.301 217.215C554.054 217.215 554.686 217.371 555.197 217.684C555.714 217.996 556.104 218.413 556.369 218.934C556.634 219.455 556.767 220.028 556.767 220.653V221.42C556.767 222.045 556.632 222.615 556.362 223.131C556.097 223.647 555.706 224.059 555.19 224.367C554.674 224.675 554.045 224.829 553.301 224.829C552.558 224.829 551.93 224.672 551.419 224.36C550.908 224.047 550.519 223.633 550.254 223.117C549.994 222.601 549.864 222.035 549.864 221.42ZM552.364 220.653V221.42C552.364 221.704 552.43 221.974 552.562 222.229C552.695 222.485 552.941 222.613 553.301 222.613C553.694 222.613 553.952 222.485 554.075 222.229C554.203 221.974 554.267 221.704 554.267 221.42V220.653C554.267 220.368 554.208 220.094 554.089 219.829C553.971 219.564 553.708 219.431 553.301 219.431C552.927 219.431 552.676 219.568 552.548 219.843C552.425 220.113 552.364 220.383 552.364 220.653ZM551.071 232.471L561.071 217.925H563.088L553.088 232.471H551.071ZM444.55 258.471V246.834H451.572V248.084H445.959V252.016H451.209V253.266H445.959V257.221H451.663V258.471H444.55ZM454.93 249.743L457.021 253.312L459.112 249.743H460.658L457.839 254.107L460.658 258.471H459.112L457.021 255.084L454.93 258.471H453.385L456.158 254.107L453.385 249.743H454.93ZM462.571 261.743V249.743H463.866V251.13H464.026C464.124 250.978 464.26 250.785 464.435 250.55C464.613 250.312 464.866 250.099 465.196 249.914C465.529 249.724 465.98 249.63 466.548 249.63C467.283 249.63 467.931 249.814 468.491 250.181C469.052 250.548 469.49 251.069 469.804 251.743C470.118 252.418 470.276 253.213 470.276 254.13C470.276 255.054 470.118 255.855 469.804 256.533C469.49 257.207 469.054 257.73 468.497 258.101C467.94 258.469 467.298 258.653 466.571 258.653C466.01 258.653 465.562 258.56 465.224 258.374C464.887 258.185 464.628 257.971 464.446 257.732C464.264 257.49 464.124 257.289 464.026 257.13H463.912V261.743H462.571ZM463.889 254.107C463.889 254.766 463.986 255.348 464.179 255.851C464.372 256.351 464.654 256.743 465.026 257.028C465.397 257.308 465.851 257.448 466.389 257.448C466.95 257.448 467.418 257.3 467.793 257.005C468.171 256.706 468.455 256.304 468.645 255.8C468.838 255.293 468.935 254.728 468.935 254.107C468.935 253.493 468.84 252.94 468.651 252.448C468.465 251.952 468.183 251.56 467.804 251.272C467.429 250.98 466.957 250.834 466.389 250.834C465.844 250.834 465.385 250.973 465.014 251.249C464.643 251.522 464.363 251.904 464.173 252.397C463.984 252.885 463.889 253.456 463.889 254.107ZM475.98 258.653C475.139 258.653 474.414 258.467 473.804 258.096C473.198 257.721 472.73 257.198 472.401 256.528C472.075 255.853 471.912 255.069 471.912 254.175C471.912 253.281 472.075 252.493 472.401 251.812C472.73 251.126 473.188 250.592 473.776 250.209C474.366 249.823 475.056 249.63 475.844 249.63C476.298 249.63 476.747 249.706 477.19 249.857C477.634 250.009 478.037 250.255 478.401 250.596C478.764 250.933 479.054 251.38 479.27 251.937C479.486 252.493 479.594 253.179 479.594 253.993V254.562H472.866V253.403H478.23C478.23 252.91 478.132 252.471 477.935 252.084C477.741 251.698 477.465 251.393 477.105 251.17C476.749 250.946 476.329 250.834 475.844 250.834C475.31 250.834 474.848 250.967 474.457 251.232C474.071 251.493 473.774 251.834 473.565 252.255C473.357 252.675 473.253 253.126 473.253 253.607V254.38C473.253 255.039 473.366 255.598 473.594 256.056C473.825 256.51 474.145 256.857 474.554 257.096C474.963 257.331 475.438 257.448 475.98 257.448C476.332 257.448 476.651 257.399 476.935 257.3C477.223 257.198 477.471 257.046 477.679 256.846C477.887 256.641 478.048 256.387 478.162 256.084L479.457 256.448C479.321 256.887 479.092 257.274 478.77 257.607C478.448 257.937 478.05 258.194 477.577 258.38C477.103 258.562 476.571 258.653 475.98 258.653ZM485.179 258.653C484.361 258.653 483.656 258.459 483.065 258.073C482.474 257.687 482.02 257.154 481.702 256.476C481.384 255.798 481.224 255.024 481.224 254.153C481.224 253.266 481.387 252.484 481.713 251.806C482.043 251.124 482.501 250.592 483.088 250.209C483.679 249.823 484.368 249.63 485.156 249.63C485.77 249.63 486.323 249.743 486.815 249.971C487.308 250.198 487.711 250.516 488.026 250.925C488.34 251.334 488.535 251.812 488.611 252.357H487.27C487.168 251.959 486.94 251.607 486.588 251.3C486.24 250.99 485.77 250.834 485.179 250.834C484.656 250.834 484.198 250.971 483.804 251.243C483.414 251.512 483.109 251.893 482.889 252.385C482.673 252.874 482.565 253.448 482.565 254.107C482.565 254.781 482.671 255.368 482.884 255.868C483.099 256.368 483.402 256.757 483.793 257.033C484.187 257.31 484.649 257.448 485.179 257.448C485.527 257.448 485.844 257.387 486.128 257.266C486.412 257.145 486.652 256.971 486.849 256.743C487.046 256.516 487.187 256.243 487.27 255.925H488.611C488.535 256.44 488.348 256.904 488.048 257.317C487.753 257.726 487.361 258.052 486.872 258.295C486.387 258.533 485.823 258.653 485.179 258.653ZM494.366 249.743V250.88H489.844V249.743H494.366ZM491.162 247.653H492.503V255.971C492.503 256.349 492.558 256.634 492.668 256.823C492.781 257.009 492.925 257.134 493.099 257.198C493.277 257.259 493.465 257.289 493.662 257.289C493.81 257.289 493.931 257.281 494.026 257.266C494.12 257.247 494.196 257.232 494.253 257.221L494.526 258.425C494.435 258.459 494.308 258.493 494.145 258.528C493.982 258.565 493.776 258.584 493.526 258.584C493.147 258.584 492.776 258.503 492.412 258.34C492.052 258.177 491.753 257.929 491.514 257.596C491.279 257.262 491.162 256.842 491.162 256.334V247.653ZM499.949 258.653C499.108 258.653 498.383 258.467 497.773 258.096C497.167 257.721 496.699 257.198 496.369 256.528C496.044 255.853 495.881 255.069 495.881 254.175C495.881 253.281 496.044 252.493 496.369 251.812C496.699 251.126 497.157 250.592 497.744 250.209C498.335 249.823 499.025 249.63 499.812 249.63C500.267 249.63 500.716 249.706 501.159 249.857C501.602 250.009 502.006 250.255 502.369 250.596C502.733 250.933 503.023 251.38 503.239 251.937C503.455 252.493 503.562 253.179 503.562 253.993V254.562H496.835V253.403H502.199C502.199 252.91 502.1 252.471 501.903 252.084C501.71 251.698 501.434 251.393 501.074 251.17C500.718 250.946 500.297 250.834 499.812 250.834C499.278 250.834 498.816 250.967 498.426 251.232C498.04 251.493 497.742 251.834 497.534 252.255C497.326 252.675 497.222 253.126 497.222 253.607V254.38C497.222 255.039 497.335 255.598 497.562 256.056C497.794 256.51 498.114 256.857 498.523 257.096C498.932 257.331 499.407 257.448 499.949 257.448C500.301 257.448 500.619 257.399 500.903 257.3C501.191 257.198 501.439 257.046 501.648 256.846C501.856 256.641 502.017 256.387 502.131 256.084L503.426 256.448C503.29 256.887 503.061 257.274 502.739 257.607C502.417 257.937 502.019 258.194 501.545 258.38C501.072 258.562 500.54 258.653 499.949 258.653ZM508.898 258.653C508.17 258.653 507.528 258.469 506.972 258.101C506.415 257.73 505.979 257.207 505.665 256.533C505.35 255.855 505.193 255.054 505.193 254.13C505.193 253.213 505.35 252.418 505.665 251.743C505.979 251.069 506.417 250.548 506.977 250.181C507.538 249.814 508.186 249.63 508.92 249.63C509.489 249.63 509.938 249.724 510.267 249.914C510.6 250.099 510.854 250.312 511.028 250.55C511.206 250.785 511.345 250.978 511.443 251.13H511.557V246.834H512.898V258.471H511.602V257.13H511.443C511.345 257.289 511.205 257.49 511.023 257.732C510.841 257.971 510.581 258.185 510.244 258.374C509.907 258.56 509.458 258.653 508.898 258.653ZM509.08 257.448C509.617 257.448 510.072 257.308 510.443 257.028C510.814 256.743 511.097 256.351 511.29 255.851C511.483 255.348 511.58 254.766 511.58 254.107C511.58 253.456 511.485 252.885 511.295 252.397C511.106 251.904 510.826 251.522 510.455 251.249C510.083 250.973 509.625 250.834 509.08 250.834C508.511 250.834 508.038 250.98 507.659 251.272C507.284 251.56 507.002 251.952 506.812 252.448C506.627 252.94 506.534 253.493 506.534 254.107C506.534 254.728 506.629 255.293 506.818 255.8C507.011 256.304 507.295 256.706 507.67 257.005C508.049 257.3 508.519 257.448 509.08 257.448ZM523.835 249.743V250.88H519.312V249.743H523.835ZM520.631 247.653H521.972V255.971C521.972 256.349 522.027 256.634 522.136 256.823C522.25 257.009 522.394 257.134 522.568 257.198C522.746 257.259 522.934 257.289 523.131 257.289C523.278 257.289 523.4 257.281 523.494 257.266C523.589 257.247 523.665 257.232 523.722 257.221L523.994 258.425C523.903 258.459 523.777 258.493 523.614 258.528C523.451 258.565 523.244 258.584 522.994 258.584C522.616 258.584 522.244 258.503 521.881 258.34C521.521 258.177 521.222 257.929 520.983 257.596C520.748 257.262 520.631 256.842 520.631 256.334V247.653ZM529.304 258.653C528.516 258.653 527.825 258.465 527.23 258.09C526.639 257.715 526.177 257.19 525.844 256.516C525.514 255.842 525.349 255.054 525.349 254.153C525.349 253.243 525.514 252.45 525.844 251.772C526.177 251.094 526.639 250.567 527.23 250.192C527.825 249.817 528.516 249.63 529.304 249.63C530.092 249.63 530.781 249.817 531.372 250.192C531.967 250.567 532.429 251.094 532.759 251.772C533.092 252.45 533.259 253.243 533.259 254.153C533.259 255.054 533.092 255.842 532.759 256.516C532.429 257.19 531.967 257.715 531.372 258.09C530.781 258.465 530.092 258.653 529.304 258.653ZM529.304 257.448C529.902 257.448 530.395 257.295 530.781 256.988C531.168 256.681 531.454 256.278 531.639 255.778C531.825 255.278 531.918 254.736 531.918 254.153C531.918 253.569 531.825 253.026 531.639 252.522C531.454 252.018 531.168 251.611 530.781 251.3C530.395 250.99 529.902 250.834 529.304 250.834C528.705 250.834 528.213 250.99 527.827 251.3C527.44 251.611 527.154 252.018 526.969 252.522C526.783 253.026 526.69 253.569 526.69 254.153C526.69 254.736 526.783 255.278 526.969 255.778C527.154 256.278 527.44 256.681 527.827 256.988C528.213 257.295 528.705 257.448 529.304 257.448ZM539.805 258.471V249.743H541.101V251.062H541.192C541.351 250.63 541.639 250.279 542.055 250.01C542.472 249.742 542.942 249.607 543.464 249.607C543.563 249.607 543.686 249.609 543.834 249.613C543.982 249.617 544.093 249.622 544.169 249.63V250.993C544.124 250.982 544.019 250.965 543.857 250.942C543.697 250.916 543.529 250.903 543.351 250.903C542.927 250.903 542.548 250.992 542.214 251.17C541.885 251.344 541.624 251.586 541.43 251.897C541.241 252.204 541.146 252.554 541.146 252.948V258.471H539.805ZM545.759 258.471V249.743H547.099V258.471H545.759ZM546.44 248.289C546.179 248.289 545.954 248.2 545.764 248.022C545.579 247.844 545.486 247.63 545.486 247.38C545.486 247.13 545.579 246.916 545.764 246.738C545.954 246.56 546.179 246.471 546.44 246.471C546.702 246.471 546.925 246.56 547.111 246.738C547.3 246.916 547.395 247.13 547.395 247.38C547.395 247.63 547.3 247.844 547.111 248.022C546.925 248.2 546.702 248.289 546.44 248.289ZM555.737 251.698L554.533 252.039C554.457 251.838 554.345 251.643 554.197 251.454C554.054 251.26 553.857 251.101 553.607 250.976C553.357 250.851 553.036 250.789 552.646 250.789C552.112 250.789 551.667 250.912 551.311 251.158C550.959 251.401 550.783 251.709 550.783 252.084C550.783 252.418 550.904 252.681 551.146 252.874C551.389 253.067 551.768 253.228 552.283 253.357L553.578 253.675C554.358 253.865 554.94 254.154 555.322 254.545C555.705 254.931 555.896 255.429 555.896 256.039C555.896 256.539 555.752 256.986 555.464 257.38C555.18 257.774 554.783 258.084 554.271 258.312C553.76 258.539 553.165 258.653 552.487 258.653C551.597 258.653 550.86 258.459 550.277 258.073C549.694 257.687 549.324 257.122 549.169 256.38L550.442 256.062C550.563 256.531 550.792 256.884 551.129 257.118C551.47 257.353 551.915 257.471 552.464 257.471C553.089 257.471 553.586 257.338 553.953 257.073C554.324 256.804 554.51 256.482 554.51 256.107C554.51 255.804 554.404 255.55 554.192 255.346C553.98 255.137 553.654 254.982 553.214 254.88L551.76 254.539C550.961 254.349 550.374 254.056 549.999 253.658C549.627 253.257 549.442 252.755 549.442 252.153C549.442 251.66 549.58 251.224 549.857 250.846C550.137 250.467 550.518 250.17 550.999 249.954C551.483 249.738 552.033 249.63 552.646 249.63C553.51 249.63 554.188 249.819 554.68 250.198C555.177 250.577 555.529 251.077 555.737 251.698ZM561.574 258.653C560.733 258.653 560.008 258.467 559.398 258.096C558.792 257.721 558.324 257.198 557.994 256.528C557.669 255.853 557.506 255.069 557.506 254.175C557.506 253.281 557.669 252.493 557.994 251.812C558.324 251.126 558.782 250.592 559.369 250.209C559.96 249.823 560.65 249.63 561.438 249.63C561.892 249.63 562.341 249.706 562.784 249.857C563.227 250.009 563.631 250.255 563.994 250.596C564.358 250.933 564.648 251.38 564.864 251.937C565.08 252.493 565.188 253.179 565.188 253.993V254.562H558.46V253.403H563.824C563.824 252.91 563.725 252.471 563.528 252.084C563.335 251.698 563.059 251.393 562.699 251.17C562.343 250.946 561.922 250.834 561.438 250.834C560.903 250.834 560.441 250.967 560.051 251.232C559.665 251.493 559.367 251.834 559.159 252.255C558.951 252.675 558.847 253.126 558.847 253.607V254.38C558.847 255.039 558.96 255.598 559.188 256.056C559.419 256.51 559.739 256.857 560.148 257.096C560.557 257.331 561.032 257.448 561.574 257.448C561.926 257.448 562.244 257.399 562.528 257.3C562.816 257.198 563.064 257.046 563.273 256.846C563.481 256.641 563.642 256.387 563.756 256.084L565.051 256.448C564.915 256.887 564.686 257.274 564.364 257.607C564.042 257.937 563.644 258.194 563.17 258.38C562.697 258.562 562.165 258.653 561.574 258.653ZM498.303 279.221V284.471H496.962V275.743H498.257V277.107H498.371C498.575 276.664 498.886 276.308 499.303 276.039C499.719 275.766 500.257 275.63 500.916 275.63C501.507 275.63 502.024 275.751 502.467 275.993C502.911 276.232 503.255 276.596 503.501 277.084C503.748 277.569 503.871 278.183 503.871 278.925V284.471H502.53V279.016C502.53 278.331 502.352 277.796 501.996 277.414C501.64 277.028 501.151 276.834 500.53 276.834C500.102 276.834 499.719 276.927 499.382 277.113C499.049 277.298 498.786 277.569 498.592 277.925C498.399 278.281 498.303 278.713 498.303 279.221ZM509.98 284.653C509.139 284.653 508.414 284.467 507.804 284.096C507.198 283.721 506.73 283.198 506.401 282.528C506.075 281.853 505.912 281.069 505.912 280.175C505.912 279.281 506.075 278.493 506.401 277.812C506.73 277.126 507.188 276.592 507.776 276.209C508.366 275.823 509.056 275.63 509.844 275.63C510.298 275.63 510.747 275.706 511.19 275.857C511.634 276.009 512.037 276.255 512.401 276.596C512.764 276.933 513.054 277.38 513.27 277.937C513.486 278.493 513.594 279.179 513.594 279.993V280.562H506.866V279.403H512.23C512.23 278.91 512.132 278.471 511.935 278.084C511.741 277.698 511.465 277.393 511.105 277.17C510.749 276.946 510.329 276.834 509.844 276.834C509.31 276.834 508.848 276.967 508.457 277.232C508.071 277.493 507.774 277.834 507.565 278.255C507.357 278.675 507.253 279.126 507.253 279.607V280.38C507.253 281.039 507.366 281.598 507.594 282.056C507.825 282.51 508.145 282.857 508.554 283.096C508.963 283.331 509.438 283.448 509.98 283.448C510.332 283.448 510.651 283.399 510.935 283.3C511.223 283.198 511.471 283.046 511.679 282.846C511.887 282.641 512.048 282.387 512.162 282.084L513.457 282.448C513.321 282.887 513.092 283.274 512.77 283.607C512.448 283.937 512.05 284.194 511.577 284.38C511.103 284.562 510.571 284.653 509.98 284.653ZM516.399 275.743L518.49 279.312L520.581 275.743H522.126L519.308 280.107L522.126 284.471H520.581L518.49 281.084L516.399 284.471H514.854L517.626 280.107L514.854 275.743H516.399ZM527.835 275.743V276.88H523.312V275.743H527.835ZM524.631 273.653H525.972V281.971C525.972 282.349 526.027 282.634 526.136 282.823C526.25 283.009 526.394 283.134 526.568 283.198C526.746 283.259 526.934 283.289 527.131 283.289C527.278 283.289 527.4 283.281 527.494 283.266C527.589 283.247 527.665 283.232 527.722 283.221L527.994 284.425C527.903 284.459 527.777 284.493 527.614 284.528C527.451 284.565 527.244 284.584 526.994 284.584C526.616 284.584 526.244 284.503 525.881 284.34C525.521 284.177 525.222 283.929 524.983 283.596C524.748 283.262 524.631 282.842 524.631 282.334V273.653ZM535.216 287.743C534.989 287.743 534.786 287.724 534.608 287.687C534.43 287.653 534.307 287.618 534.239 287.584L534.58 286.403C534.905 286.486 535.193 286.516 535.443 286.493C535.693 286.471 535.915 286.359 536.108 286.158C536.305 285.961 536.485 285.641 536.648 285.198L536.898 284.516L533.67 275.743H535.125L537.534 282.698H537.625L540.034 275.743H541.489L537.784 285.743C537.617 286.194 537.411 286.567 537.165 286.863C536.919 287.162 536.633 287.384 536.307 287.528C535.985 287.671 535.621 287.743 535.216 287.743ZM546.605 284.653C545.764 284.653 545.039 284.467 544.429 284.096C543.823 283.721 543.355 283.198 543.026 282.528C542.7 281.853 542.537 281.069 542.537 280.175C542.537 279.281 542.7 278.493 543.026 277.812C543.355 277.126 543.813 276.592 544.401 276.209C544.991 275.823 545.681 275.63 546.469 275.63C546.923 275.63 547.372 275.706 547.815 275.857C548.259 276.009 548.662 276.255 549.026 276.596C549.389 276.933 549.679 277.38 549.895 277.937C550.111 278.493 550.219 279.179 550.219 279.993V280.562H543.491V279.403H548.855C548.855 278.91 548.757 278.471 548.56 278.084C548.366 277.698 548.09 277.393 547.73 277.17C547.374 276.946 546.954 276.834 546.469 276.834C545.935 276.834 545.473 276.967 545.082 277.232C544.696 277.493 544.399 277.834 544.19 278.255C543.982 278.675 543.878 279.126 543.878 279.607V280.38C543.878 281.039 543.991 281.598 544.219 282.056C544.45 282.51 544.77 282.857 545.179 283.096C545.588 283.331 546.063 283.448 546.605 283.448C546.957 283.448 547.276 283.399 547.56 283.3C547.848 283.198 548.096 283.046 548.304 282.846C548.512 282.641 548.673 282.387 548.787 282.084L550.082 282.448C549.946 282.887 549.717 283.274 549.395 283.607C549.073 283.937 548.675 284.194 548.202 284.38C547.728 284.562 547.196 284.653 546.605 284.653ZM554.827 284.675C554.274 284.675 553.772 284.571 553.321 284.363C552.87 284.151 552.512 283.846 552.247 283.448C551.982 283.046 551.849 282.562 551.849 281.993C551.849 281.493 551.948 281.088 552.145 280.778C552.342 280.463 552.605 280.217 552.935 280.039C553.264 279.861 553.628 279.728 554.026 279.641C554.427 279.55 554.83 279.478 555.236 279.425C555.766 279.357 556.196 279.306 556.526 279.272C556.859 279.234 557.101 279.171 557.253 279.084C557.408 278.997 557.486 278.846 557.486 278.63V278.584C557.486 278.024 557.332 277.588 557.026 277.278C556.723 276.967 556.262 276.812 555.645 276.812C555.005 276.812 554.503 276.952 554.139 277.232C553.776 277.512 553.52 277.812 553.372 278.13L552.099 277.675C552.327 277.145 552.63 276.732 553.009 276.437C553.391 276.137 553.808 275.929 554.259 275.812C554.713 275.69 555.16 275.63 555.599 275.63C555.88 275.63 556.202 275.664 556.565 275.732C556.933 275.796 557.287 275.931 557.628 276.135C557.973 276.34 558.259 276.649 558.486 277.062C558.713 277.474 558.827 278.028 558.827 278.721V284.471H557.486V283.289H557.418C557.327 283.478 557.175 283.681 556.963 283.897C556.751 284.113 556.469 284.296 556.116 284.448C555.764 284.599 555.334 284.675 554.827 284.675ZM555.031 283.471C555.562 283.471 556.009 283.367 556.372 283.158C556.74 282.95 557.016 282.681 557.202 282.351C557.391 282.022 557.486 281.675 557.486 281.312V280.084C557.429 280.153 557.304 280.215 557.111 280.272C556.921 280.325 556.702 280.372 556.452 280.414C556.205 280.452 555.965 280.486 555.73 280.516C555.499 280.543 555.312 280.565 555.168 280.584C554.819 280.63 554.493 280.704 554.19 280.806C553.891 280.904 553.649 281.054 553.463 281.255C553.281 281.452 553.19 281.721 553.19 282.062C553.19 282.528 553.363 282.88 553.707 283.118C554.056 283.353 554.497 283.471 555.031 283.471ZM561.274 284.471V275.743H562.57V277.062H562.661C562.82 276.63 563.107 276.279 563.524 276.01C563.941 275.742 564.411 275.607 564.933 275.607C565.032 275.607 565.155 275.609 565.303 275.613C565.45 275.617 565.562 275.622 565.638 275.63V276.993C565.592 276.982 565.488 276.965 565.325 276.942C565.166 276.916 564.998 276.903 564.82 276.903C564.395 276.903 564.017 276.992 563.683 277.17C563.354 277.344 563.092 277.586 562.899 277.897C562.71 278.204 562.615 278.554 562.615 278.948V284.471H561.274Z" fill="currentColor"/>
<line id="Line 2_2" x1="566" y1="296.971" x2="326" y2="296.971" stroke="currentColor"/>
</svg>
