<svg enable-background="new 0 0 1920 1080" viewBox="0 0 1920 1080" xmlns="http://www.w3.org/2000/svg"><path d="m0 0h1920v1080h-1920z" fill="#151c2f"/><path d="m954.3 210.6-125.4 208.1 125.4-57z" fill="#8a92b2"/><path d="m954.3 361.7-125.4 57 125.4 74.2z" fill="#62688f"/><path d="m1079.7 418.7-125.4-208.1v151.1z" fill="#62688f"/><path d="m954.3 492.9 125.4-74.2-125.4-57z" fill="#454a75"/><path d="m828.9 442.5 125.4 176.8v-102.7z" fill="#8a92b2"/><path d="m954.3 516.6v102.7l125.5-176.8z" fill="#62688f"/><g fill="#8a92b2"><path d="m566.6 822.2c0 2.1-1.9 3.8-4 3.8h-74.8c1.9 18.5 15.8 35.4 35.4 35.4 13.4 0 23.3-5.1 30.8-15.8.8-1.1 1.9-1.9 3.2-1.9 2.1 0 3.8 1.6 3.8 3.8 0 .8-.3 1.3-.5 1.9-7.5 13.1-22.5 19.6-37.3 19.6-25.2 0-43.2-22.5-43.2-46.7 0-24.1 18-46.7 43.2-46.7 25.2-.1 43.4 22.4 43.4 46.6zm-8-3.8c-1.6-18.5-15.8-35.4-35.4-35.4s-33.5 16.9-35.4 35.4z"/><path d="m657.5 777.4c2.1 0 3.8 1.9 3.8 3.8 0 2.1-1.6 3.8-3.8 3.8h-20.1v78.8c0 1.9-1.6 3.8-3.8 3.8-2.1 0-3.8-1.9-3.8-3.8v-78.8h-19.3c-2.1 0-3.8-1.6-3.8-3.8 0-1.9 1.6-3.8 3.8-3.8h19.3v-29c0-2.1 1.6-3.8 3.8-3.8 2.1 0 3.8 1.6 3.8 3.8v29z"/><path d="m780.1 815.5v47.7c0 2.1-1.9 3.8-3.8 3.8-2.1 0-3.8-1.6-3.8-3.8v-47.7c0-16.1-9.1-32.2-27.1-32.2-23.1 0-33 20.1-31.6 40.8 0 .5.3 2.9.3 3.2v35.9c0 2.1-1.6 3.8-3.8 3.8-2.1 0-3.8-1.6-3.8-3.8v-156.9c0-1.9 1.6-3.8 3.8-3.8 2.1 0 3.8 1.9 3.8 3.8v88.8c6.4-11.5 18-19.3 31.4-19.3 22 0 34.6 19.3 34.6 39.7z"/><path d="m914.4 822.2c0 2.1-1.9 3.8-4 3.8h-74.8c1.9 18.5 15.8 35.4 35.4 35.4 13.4 0 23.3-5.1 30.8-15.8.8-1.1 1.9-1.9 3.2-1.9 2.1 0 3.8 1.6 3.8 3.8 0 .8-.3 1.3-.5 1.9-7.5 13.1-22.5 19.6-37.3 19.6-25.2 0-43.2-22.5-43.2-46.7 0-24.1 18-46.7 43.2-46.7s43.4 22.4 43.4 46.6zm-8-3.8c-1.6-18.5-15.8-35.4-35.4-35.4s-33.5 16.9-35.4 35.4z"/><path d="m1006.4 780.9c0 2.4-1.3 3.8-3.5 4-22 3.2-31.9 21.2-31.9 42.1v35.9c0 2.1-1.6 3.8-3.8 3.8-2.1 0-3.8-1.6-3.8-3.8v-81.8c0-2.1 1.6-3.8 3.8-3.8 2.1 0 3.8 1.6 3.8 3.8v16.6c6.2-10.5 18.5-20.4 31.4-20.4 1.8.1 4 1.4 4 3.6z"/><path d="m1129.5 822.2c0 2.1-1.9 3.8-4 3.8h-74.8c1.9 18.5 15.8 35.4 35.4 35.4 13.4 0 23.3-5.1 30.8-15.8.8-1.1 1.9-1.9 3.2-1.9 2.1 0 3.8 1.6 3.8 3.8 0 .8-.3 1.3-.5 1.9-7.5 13.1-22.5 19.6-37.3 19.6-25.2 0-43.2-22.5-43.2-46.7 0-24.1 18-46.7 43.2-46.7 25.1-.1 43.4 22.4 43.4 46.6zm-8.1-3.8c-1.6-18.5-15.8-35.4-35.4-35.4s-33.5 16.9-35.4 35.4z"/><path d="m1250.4 781.7v26 56c0 2.1-1.9 3.8-3.8 3.8-2.1 0-3.8-1.6-3.8-3.8v-15.6c-6.2 12.3-17.2 21.2-31.1 21.2-22.3 0-34.6-19.3-34.6-39.7v-48c0-1.9 1.6-3.8 3.8-3.8s3.8 1.9 3.8 3.8v48c0 16.1 9.1 32.2 27.1 32.2 25.2 0 31.1-23.6 31.1-49.6v-30.6c0-1.9 1.6-3.8 3.8-3.8 1.8.1 3.7 2 3.7 3.9z"/><path d="m1440 815.2v48c0 2.1-1.9 3.8-3.8 3.8-2.1 0-3.8-1.6-3.8-3.8v-48c0-16.1-9.1-31.9-27.1-31.9-22.5 0-31.1 24.1-31.1 42.9v37c0 2.1-1.9 3.8-3.8 3.8-2.1 0-3.8-1.6-3.8-3.8v-48c0-16.1-9.1-31.9-27.1-31.9-22.8 0-32.2 18-31.4 41.8 0 .5.3 1.6 0 1.9v36.2c0 2.1-1.6 3.8-3.8 3.8-2.1 0-3.8-1.6-3.8-3.8v-82.1c0-2.1 1.6-3.8 3.8-3.8 2.1 0 3.8 1.6 3.8 3.8v13.7c6.4-11.5 18-19 31.4-19 15.3 0 27.1 9.7 31.9 23.9 6.2-13.9 18.2-23.9 33.8-23.9 22.2 0 34.8 19 34.8 39.4z"/></g></svg>